<?xml version="1.0" encoding="utf-8"?>
<!-- Generator: Adobe Illustrator 27.8.1, SVG Export Plug-In . SVG Version: 6.00 Build 0)  -->
<svg version="1.2" baseProfile="tiny" id="Layer_1" xmlns="http://www.w3.org/2000/svg" xmlns:xlink="http://www.w3.org/1999/xlink"
	 x="0px" y="0px" viewBox="0 0 22 22" overflow="visible" xml:space="preserve">
<g>
	<path fill="#0277B6" d="M11,7.5c-2.1,0-3.7-1.7-3.7-3.7C7.3,1.7,8.9,0,11,0s3.7,1.7,3.7,3.7C14.7,5.8,13.1,7.5,11,7.5z M11,1.5
		c-1.2,0-2.2,1-2.2,2.2C8.8,5,9.8,6,11,6s2.2-1,2.2-2.2C13.2,2.5,12.2,1.5,11,1.5z"/>
</g>
<g>
	<path fill="#0277B6" d="M14,16.2H8c-0.4,0-0.8-0.3-0.8-0.8V8.2c0-0.4,0.3-0.8,0.8-0.8h6c0.4,0,0.8,0.3,0.8,0.8v7.3
		C14.7,15.9,14.4,16.2,14,16.2z M8.8,14.7h4.5V8.9H8.8V14.7z"/>
</g>
<g>
	<path fill="#0277B6" d="M14,22c-0.4,0-0.8-0.3-0.8-0.8v-5.8c0-0.4,0.3-0.8,0.8-0.8s0.8,0.3,0.8,0.8v5.8C14.7,21.7,14.4,22,14,22z"
		/>
</g>
<g>
	<path fill="#0277B6" d="M8,22c-0.4,0-0.8-0.3-0.8-0.8v-5.8c0-0.4,0.3-0.8,0.8-0.8s0.8,0.3,0.8,0.8v5.8C8.8,21.7,8.4,22,8,22z"/>
</g>
<g>
	<path fill="#0277B6" d="M19.2,8.9H14c-0.4,0-0.8-0.3-0.8-0.8s0.3-0.8,0.8-0.8h5.3c0.4,0,0.8,0.3,0.8,0.8S19.7,8.9,19.2,8.9z"/>
</g>
<g>
	<path fill="#0277B6" d="M8,8.9H2.8C2.3,8.9,2,8.6,2,8.2s0.3-0.8,0.8-0.8H8c0.4,0,0.8,0.3,0.8,0.8S8.4,8.9,8,8.9z"/>
</g>
</svg>
