<?xml version="1.0" encoding="utf-8"?>
<!-- Generator: Adobe Illustrator 27.8.1, SVG Export Plug-In . SVG Version: 6.00 Build 0)  -->
<svg version="1.2" baseProfile="tiny" id="Layer_1" xmlns="http://www.w3.org/2000/svg" xmlns:xlink="http://www.w3.org/1999/xlink"
	 x="0px" y="0px" viewBox="0 0 225 118" overflow="visible" xml:space="preserve">
<g>
	<path fill="#0077B6" d="M97.1,56.8H31.7v41.9H97V56.8H97.1z M96.1,97.8H32.7V57.8H96v39.9H96.1z"/>
	<path fill="#0077B6" d="M0,110.2v3.1c0,2.6,2.1,4.7,4.7,4.7h112.1h3.2c2.6,0,4.8-2.1,4.8-4.8v-3.1h-3.2h-7.7
		c1.1-0.9,1.9-2.2,1.9-3.8V88.9h9.7h18.1v2v1v14.5h-16.2v5.4H172h1h12.6v-5.4H173h-1h-2.6V88.9h49.4c3.4,0,6.2-2.8,6.2-6.2V6.2
		c0-3.4-2.8-6.2-6.2-6.2H94.2C90.8,0,88,2.8,88,6.2v38H17.7c-2.6,0-4.8,2.1-4.8,4.8v57.2c0,1.6,0.8,2.9,1.9,3.8L0,110.2z M1.1,113.1
		v-2h11.5v2.1c0,1.6,0.8,2.9,1.9,3.8H5C2.8,117,1.1,115.3,1.1,113.1z M82.3,111.6c0,1-0.8,1.8-1.8,1.8H56.9c-1,0-1.8-0.8-1.8-1.8
		v-0.5h27.2C82.3,111.1,82.3,111.6,82.3,111.6z M111.8,106.8H16.9v-58h94.9V106.8z M114.3,16.2v29.4c-0.9-0.8-2-1.3-3.3-1.3H98.1
		v-36h116.7v69.8h-89.3v-7.9h73.1v-54h-84.3V16.2z M120.8,53.7h-4.9v-4.6c0-0.8-0.2-1.5-0.5-2.1V17.2h82.1v52h-71.8V58.5
		C125.6,55.8,123.4,53.7,120.8,53.7z M115.4,69.3h9.7c0.3,0,0.5,0.2,0.5,0.5c0,0.3-0.2,0.5-0.5,0.5h-9.7c-0.3,0-0.5-0.2-0.5-0.5
		S115.1,69.3,115.4,69.3z M125.1,79.1h-9.7c-0.3,0-0.5-0.2-0.5-0.5s0.2-0.5,0.5-0.5h9.7c0.3,0,0.5,0.2,0.5,0.5
		S125.4,79.1,125.1,79.1z M172,107.4v3.4h-43.5v-3.4h15.2h18.3h1h6.3H172z M144.6,106.4V91.9h17.3v14.5H144.6z M224,82.7
		c0,2.9-2.3,5.2-5.2,5.2h-49.4h-25.6h-18.1v-8.8h90.3V7.3H97.1v37H89v-38c0-2.9,2.3-5.2,5.2-5.2h124.5c2.9,0,5.2,2.3,5.2,5.2v76.4
		H224z"/>
</g>
<g>
	<path fill="#0077B6" d="M64.4,89.7c-5.9,0-10.8-4.8-10.8-10.8c0-3.3,1.5-6.4,4-8.4c0.6-0.5,1.6-0.4,2.1,0.2
		c0.5,0.6,0.4,1.6-0.2,2.1c-1.9,1.5-2.9,3.7-2.9,6.1c0,4.3,3.5,7.7,7.7,7.7c4.3,0,7.7-3.5,7.7-7.7c0-2.4-1.1-4.6-2.9-6.1
		c-0.6-0.5-0.8-1.5-0.2-2.1c0.5-0.6,1.5-0.8,2.1-0.2c2.6,2.1,4,5.1,4,8.4C75.1,84.9,70.3,89.7,64.4,89.7z"/>
</g>
<g>
	<path fill="#0077B6" d="M64.4,82.9c-0.8,0-1.5-0.7-1.5-1.5v-14c0-0.8,0.7-1.5,1.5-1.5c0.8,0,1.5,0.7,1.5,1.5v14
		C65.9,82.2,65.2,82.9,64.4,82.9z"/>
</g>
<g>
	<path fill="#0077B6" d="M156.6,55.2c-5.9,0-10.8-4.8-10.8-10.8c0-3.3,1.5-6.4,4-8.4c0.6-0.5,1.6-0.4,2.1,0.2
		c0.5,0.6,0.4,1.6-0.2,2.1c-1.9,1.5-2.9,3.7-2.9,6.1c0,4.3,3.5,7.7,7.7,7.7s7.7-3.5,7.7-7.7c0-2.4-1.1-4.6-2.9-6.1
		c-0.6-0.5-0.8-1.5-0.2-2.1c0.5-0.6,1.5-0.8,2.1-0.2c2.6,2.1,4,5.1,4,8.4C167.3,50.3,162.5,55.2,156.6,55.2z"/>
</g>
<g>
	<path fill="#0077B6" d="M156.6,48.3c-0.8,0-1.5-0.7-1.5-1.5v-14c0-0.8,0.7-1.5,1.5-1.5c0.8,0,1.5,0.7,1.5,1.5v14
		C158.1,47.7,157.4,48.3,156.6,48.3z"/>
</g>
</svg>
