<?xml version="1.0" encoding="UTF-8" standalone="no"?>
<svg xmlns="http://www.w3.org/2000/svg" width="50.629543px" height="50.635956px" viewBox="0 0 50.629543 50.635955" >
  <path fill="#ffffff" fill-opacity="1" stroke-width="0.32107022"
     d="M 20.013859,50.188966 C 15.050242,49.098952 11.289323,46.984107 7.4921204,43.147722 4.276858,39.899285 2.8245447,37.6736 1.5364107,34.020537 0.29716039,30.506104 -0.17418901,27.26774 0.05660973,23.853695 1.2066403,6.842093 17.940208,-4.1746601 33.998217,1.5078154 c 3.692095,1.3065288 5.907287,2.7496832 9.165733,5.9712983 4.958846,4.9027943 7.136055,9.8059673 7.430284,16.7333223 0.260709,6.138177 -0.898178,10.31179 -4.281481,15.419301 -4.692429,7.083804 -12.288411,11.063701 -21.001235,11.003545 -1.854181,-0.01281 -4.238127,-0.213643 -5.297659,-0.446316 z m 7.802006,-10.50651 c 0.211907,-0.211906 0.385284,-0.789832 0.385284,-1.28428 v -0.898997 h -2.568561 -2.568562 v 0.898997 c 0,1.310682 0.552128,1.669565 2.568562,1.669565 0.988896,0 1.971371,-0.173378 2.183277,-0.385285 z m 1.048532,-3.799923 c 0.470105,-0.251594 0.621033,-0.677038 0.621033,-1.750597 0,-1.271531 0.164102,-1.582334 1.58644,-3.004672 3.421389,-3.421389 3.342646,-8.505717 -0.179625,-11.598313 -1.648946,-1.447794 -2.975542,-1.936126 -5.259657,-1.936126 -2.284115,0 -3.610712,0.488332 -5.259658,1.936126 -3.522272,3.092596 -3.601014,8.176924 -0.179625,11.598313 1.420761,1.420762 1.58644,1.734065 1.58644,3.000013 0,1.007541 0.161391,1.507576 0.561873,1.740833 0.737999,0.429846 5.725947,0.440874 6.522779,0.01442 z m -4.51609,-3.833303 c 0,-1.066189 -0.145202,-1.351878 -0.882943,-1.737222 -3.944642,-2.060399 -4.19821,-7.335941 -0.453754,-9.440443 3.138702,-1.764049 7.048193,-0.0013 7.886529,3.556032 0.475573,2.017992 -0.976731,4.776241 -3.098327,5.884411 -0.737742,0.385344 -0.882943,0.671033 -0.882943,1.737222 0,1.274662 -0.0014,1.276036 -1.284281,1.276036 -1.282898,0 -1.284281,-0.0013 -1.284281,-1.276036 z m -9.37207,-6.686272 0.0995,-1.380368 -2.025923,0.09609 c -1.959549,0.09294 -2.029337,0.125903 -2.130133,1.006153 -0.187728,1.639411 0.07789,1.860641 2.107016,1.754903 l 1.850037,-0.09641 z m 25.265046,0.09609 v -1.284281 l -2.006689,-0.09559 -2.006689,-0.09559 v 1.24609 c 0,0.68535 0.102624,1.348715 0.228056,1.474145 0.12543,0.12543 1.02844,0.185631 2.006689,0.133779 l 1.778633,-0.09428 z m -22.635451,-9.953177 -1.425155,-1.452128 -0.963211,0.963211 -0.963211,0.96321 1.425156,1.452128 1.425155,1.452128 0.963211,-0.963211 0.963211,-0.963211 z m 18.446509,-0.484287 -0.967841,-0.967841 -1.418138,1.444976 -1.418135,1.444976 0.933977,0.974864 0.93398,0.974865 1.451999,-1.451999 1.451998,-1.451999 z m -9.135472,-2.24481 v -1.926421 h -1.284281 -1.284281 v 1.926421 1.926421 h 1.284281 1.284281 z" />
</svg>
