<?xml version="1.0" encoding="UTF-8" standalone="no"?>
<svg xmlns="http://www.w3.org/2000/svg" width="50.720161px" height="50.697525px" viewBox="0 0 50.720161 50.697525" >
  <path fill="#ffffff" stroke-width="0.32107022"
     d="M 19.366961,50.055327 C 10.284777,47.820672 3.1610723,40.854556 0.70231717,31.803579 -0.23835182,28.340862 -0.23338906,22.314026 0.7130028,18.826826 3.1952849,9.6802809 10.857057,2.3703399 19.990663,0.43440133 c 2.738906,-0.58053232 7.952142,-0.57894921 10.699164,0.003249 4.463331,0.94594947 8.327819,2.97296107 11.841079,6.21091507 3.688574,3.3995266 6.012464,7.2001346 7.41863,12.1327946 1.023472,3.590227 1.028099,9.503609 0.01021,13.072195 -2.121112,7.436442 -7.308776,13.574489 -14.059788,16.635544 -4.853418,2.200644 -11.424566,2.823151 -16.53301,1.566228 z m 8.855152,-14.202531 c 2.23746,-0.890097 6.522984,-1.08785 8.829431,-0.407426 0.971237,0.286524 2.09097,0.602184 2.488294,0.701462 l 0.722408,0.180506 V 26.158144 15.988948 L 38.879882,15.377463 C 35.53065,13.895938 30.58228,13.914789 27.077688,15.422423 l -1.514459,0.651503 -1.292805,-0.65954 c -3.015921,-1.538608 -8.657984,-1.533756 -11.86102,0.0102 l -1.364549,0.657752 v 10.058315 c 0,7.610326 0.09501,10.089984 0.390355,10.188433 0.214696,0.07156 1.117706,-0.162968 2.006689,-0.521183 1.272201,-0.512634 2.368282,-0.654242 5.148107,-0.665113 3.185804,-0.01246 3.704756,0.07003 5.297658,0.842048 0.971238,0.470721 1.982609,0.777273 2.247492,0.681224 0.264883,-0.09605 1.204013,-0.46202 2.086957,-0.813267 z m -2.408027,-9.319293 c 0,-5.642224 0.101022,-7.623197 0.401338,-7.869963 1.083326,-0.890157 4.028979,-1.514738 7.143812,-1.514738 1.765887,0 3.463545,0.103827 3.772576,0.230726 0.512746,0.210552 0.561872,0.893785 0.561872,7.814174 v 7.58345 l -1.364548,-0.241301 c -3.084075,-0.545367 -6.650312,-0.07856 -9.953177,1.302839 -0.525838,0.21993 -0.561873,-0.248579 -0.561873,-7.305187 z" />
</svg>
