<?xml version="1.0" encoding="UTF-8" standalone="no"?>
<svg xmlns="http://www.w3.org/2000/svg" width="50.639992px" height="50.650108px" viewBox="0 0 50.639992 50.650108" >
  <path fill="#ffffff" stroke-width="0.32107022"
     d="M 21.154441,50.481672 C 15.608258,49.328841 11.616444,47.32142 7.8714974,43.801893 -0.06830933,36.340006 -2.2823854,24.132561 2.5184044,14.287287 5.9316944,7.2874436 12.544785,2.1433814 20.147416,0.57437321 c 3.729176,-0.76961628 6.64943,-0.76614024 10.422431,0.0124061 9.380755,1.93568819 16.829909,9.06019649 19.360309,18.51656069 0.890632,3.328387 0.952188,8.934307 0.133536,12.161548 -2.464882,9.716907 -10.40632,17.329701 -19.897984,19.074534 -1.814296,0.333518 -7.64805,0.425608 -9.011267,0.14225 z m 9.471572,-12.47431 v -1.444816 h -8.026755 -8.026756 v -8.687357 -8.687357 l -1.364549,0.09873 -1.364548,0.09873 -0.08544,8.755109 c -0.09223,9.451146 0.0406,10.347921 1.627334,10.986925 0.388078,0.156284 4.425998,0.29331 8.973155,0.304503 l 8.267558,0.02035 z m 6.965375,-4.787475 c 0.896836,-0.770655 0.901312,-0.794228 1.00538,-5.29766 l 0.104537,-4.52356 H 37.23222 35.763137 v 4.013378 4.013378 h -7.866221 -7.86622 v -8.026756 -8.026755 h 5.316119 5.31612 l -0.09873,-1.364549 -0.09873,-1.364548 -4.816053,-0.09503 c -5.649871,-0.111477 -6.711149,0.03451 -7.741558,1.064921 l -0.766803,0.766803 v 8.699434 c 0,7.049859 0.09004,8.873554 0.47485,9.617692 0.261167,0.505044 0.658492,0.992149 0.882943,1.082456 0.224451,0.09031 4.4094,0.1756 9.299888,0.189541 l 8.891794,0.02537 0.900849,-0.774098 z m -4.40526,-11.257578 5.281917,-5.289201 -0.938762,-0.979854 -0.938758,-0.979853 -4.424572,4.416104 -4.424571,4.416103 -2.023757,-2.005768 -2.023758,-2.005769 -0.935067,0.976001 -0.935068,0.976 2.869363,2.882719 c 1.57815,1.585495 2.946258,2.882719 3.040242,2.882719 0.09398,0 2.547739,-2.380141 5.452791,-5.289201 z" />
</svg>
