<?xml version="1.0" encoding="UTF-8" standalone="no"?>
<svg xmlns="http://www.w3.org/2000/svg" width="51.193378px" height="50.843132px" viewBox="0 0 51.193379 50.843132" >
  <path fill="#ffffff" fill-opacity="1" stroke-width="0.32107025"
     d="M 26.625339,50.697818 23.691323,50.843132 22.026571,50.578852 20.36182,50.314573 18.013193,49.609849 15.664566,48.905129 13.593344,47.776956 11.522122,46.648782 9.6180923,45.153096 7.7140625,43.657409 5.9888708,41.57917 4.2636789,39.500931 3.0017797,37.075399 1.7398801,34.649868 1.0601445,32.250628 0.3804089,29.851389 0.19020445,26.89562 0,23.939851 0.40196591,21.437426 0.80393182,18.935001 1.701253,16.471082 2.5985741,14.007163 4.0825654,11.713148 5.5665565,9.4191316 7.0837891,7.7957887 8.6010213,6.1724457 10.555939,4.7765306 12.510857,3.3806155 14.890387,2.2567048 17.269918,1.1327943 19.356874,0.56639716 21.443831,0 l 4.173913,0.0142257 4.173913,0.0142257 2.086957,0.56470806 2.086956,0.56470804 2.593513,1.2455495 2.593512,1.2455496 2.222541,1.7451128 2.222542,1.7451127 1.396453,1.7239914 1.396457,1.7239925 1.233828,2.086956 1.233828,2.086957 0.798411,2.408026 0.798412,2.408027 0.369154,2.721628 0.369157,2.721629 -0.223057,2.25496 -0.223061,2.25496 -0.593697,2.335356 -0.593701,2.335353 -1.491146,2.887137 -1.49115,2.887137 -2.232,2.390006 -2.232,2.390001 -1.506109,1.105587 -1.506111,1.105586 -2.32741,1.168047 -2.327412,1.168047 -2.443585,0.624963 -2.443583,0.624963 z M 22.39852,40.286172 h 0.986797 l 2.553497,-2.568562 2.553498,-2.568562 h 4.28282 4.28282 l 0.701301,-0.373514 0.701301,-0.373517 0.391128,-0.509426 0.391124,-0.509429 0.01021,-8.88344 0.01021,-8.883439 -0.199442,-0.51974 -0.199442,-0.519739 -0.908359,-0.469731 -0.90836,-0.46973 h -11.2781 -11.278101 l -0.938513,0.938513 -0.938513,0.938513 v 8.836225 8.836224 l 0.774379,0.900849 0.774378,0.900846 3.239,0.110355 3.238999,0.110352 v 2.153193 2.15319 l 0.385284,0.385285 0.385285,0.385284 z m 1.06205,-4.173913 h -0.250853 v -1.926421 -1.926422 h -3.852843 -3.852843 v -7.866221 -7.86622 h 10.595318 10.595318 v 7.86622 7.866221 h -4.5853 -4.585303 l -1.90632,1.926422 -1.90632,1.926421 z m 2.478244,-6.421405 h 1.444816 v -1.284281 -1.284281 h -1.444816 -1.444816 v 1.284281 1.284281 z m 0.160535,-3.852843 h 1.284281 v -0.388338 -0.388339 l 1.444816,-1.326485 1.444817,-1.326485 v -0.874846 -0.874846 l -0.330588,-0.617709 -0.330589,-0.61771 -1.005172,-0.519794 -1.005172,-0.519795 -1.923378,0.139125 -1.923377,0.139124 -0.754241,0.876857 -0.75424,0.876855 v 0.463702 0.463701 h 1.444817 1.444816 v -0.458063 -0.458063 l 0.561873,-0.120433 0.561872,-0.120433 0.539663,0.128529 0.539663,0.12853 0.160785,0.418999 0.160785,0.418998 -0.170366,0.651481 -0.170366,0.651481 -1.25249,0.828859 -1.25249,0.828858 v 0.79812 0.79812 z" />
</svg>
