<?xml version="1.0" encoding="UTF-8" standalone="no"?>
<svg xmlns="http://www.w3.org/2000/svg" width="50.715744px" height="50.849396px" viewBox="0 0 50.715744 50.849396" >
  <path fill="#ffffff" stroke-width="0.32107022" d="M 21.879624,50.693328 C 13.53791,49.369074 6.6298846,44.463962 2.8623795,37.189946 0.96459066,33.525838 0.23061986,30.814215 0.0334363,26.738541 -0.48307405,16.06256 5.0100256,6.9637303 14.74344,2.3727294 c 8.912715,-4.203898 19.648977,-2.73370296 27.112354,3.7126937 2.749594,2.3749279 4.612042,4.8067479 6.240273,8.1480009 1.943544,3.988301 2.632901,6.987856 2.619487,11.397994 -0.04126,13.564713 -10.570573,24.504003 -24.237162,25.180877 -1.613709,0.07992 -3.683155,0.02639 -4.598768,-0.118967 z m 5.146011,-10.970225 c 0.776197,-0.353658 1.495329,-1.498405 1.495329,-2.380328 0,-0.252502 0.34637,-0.686046 0.769711,-0.963432 0.712174,-0.466634 0.850179,-0.455274 1.846154,0.151934 1.623443,0.989753 2.423066,0.841352 4.008321,-0.743901 1.600554,-1.600554 1.818792,-2.797745 0.756239,-4.14856 -0.547389,-0.695893 -0.588647,-0.948266 -0.269532,-1.64865 0.211316,-0.463785 0.643178,-0.826976 0.983342,-0.826976 0.865242,0 2.387834,-0.847128 2.62271,-1.4592 0.37695,-0.982315 0.20011,-3.53409 -0.293779,-4.239216 -0.271272,-0.387295 -1.051129,-0.871326 -1.733018,-1.075625 -1.624471,-0.486703 -2.052259,-1.403938 -1.258104,-2.697531 0.857719,-1.39713 0.745287,-2.535256 -0.37669,-3.813117 -1.423073,-1.62079 -2.512554,-1.907559 -4.156686,-1.094108 -1.621588,0.802298 -2.898668,0.440209 -2.898668,-0.821857 0,-0.421442 -0.29945,-1.146948 -0.665444,-1.612234 -0.592529,-0.753278 -0.886114,-0.845975 -2.679335,-0.845975 -2.285773,0 -2.888792,0.416537 -3.427492,2.36755 -0.383906,1.390394 -1.467221,1.822472 -2.592758,1.034115 -1.308965,-0.916835 -2.763298,-0.659921 -4.157694,0.734475 -1.41973,1.41973 -1.595724,2.5136 -0.651797,4.051151 0.795962,1.296533 0.349773,2.32221 -1.131057,2.600015 -1.560496,0.292751 -2.353286,1.46248 -2.353286,3.472179 0,2.1229 0.617619,3.015457 2.269358,3.279581 1.54389,0.246878 1.983789,1.281865 1.146949,2.698522 -0.927857,1.570735 -0.690025,2.647114 0.910967,4.122859 1.618518,1.491897 2.349169,1.616787 3.889476,0.664824 1.383225,-0.854879 2.228628,-0.446709 2.699926,1.303561 0.228165,0.847336 0.635314,1.432991 1.214919,1.747569 1.044655,0.566984 2.952188,0.634342 4.031939,0.142375 z m -3.106678,-1.783994 c -0.117726,-0.117724 -0.214047,-0.472131 -0.214047,-0.787566 0,-1.086155 -0.707198,-2.12118 -1.808006,-2.64612 -1.439245,-0.686326 -2.314746,-0.661501 -3.467389,0.09833 -1.046488,0.689852 -1.838105,0.481997 -2.438762,-0.640339 -0.272048,-0.508328 -0.206243,-0.837082 0.313712,-1.567292 0.361884,-0.508218 0.654797,-1.190693 0.650919,-1.51661 -0.01217,-1.022686 -1.191409,-3.252335 -1.809513,-3.42134 -0.325305,-0.08895 -0.997218,-0.252259 -1.493142,-0.362917 -0.814059,-0.181645 -0.892059,-0.316322 -0.802676,-1.385922 0.08817,-1.055091 0.225787,-1.220784 1.257669,-1.514264 1.568595,-0.446128 2.030062,-0.890629 2.545254,-2.451677 0.407704,-1.235355 0.386575,-1.418868 -0.300904,-2.613387 l -0.739399,-1.284734 0.81689,-0.81689 0.81689,-0.81689 1.418251,0.75238 1.418251,0.752381 1.569146,-0.778204 c 1.324307,-0.656777 1.623926,-0.978594 1.920221,-2.062484 0.332552,-1.216522 0.41661,-1.284281 1.593218,-1.284281 1.143083,0 1.25913,0.08306 1.455152,1.041499 0.278374,1.361097 0.660989,1.786653 2.251034,2.503663 1.312893,0.592032 1.322856,0.591433 2.74947,-0.165385 l 1.431802,-0.759569 0.838883,0.838883 0.838886,0.838884 -0.815098,1.231695 c -0.800184,1.20916 -0.805472,1.256311 -0.288989,2.577291 0.663653,1.697392 1.053512,2.081258 2.533045,2.494114 1.068371,0.298123 1.200838,0.453939 1.289675,1.516975 0.08938,1.0696 0.0114,1.204277 -0.802675,1.385922 -0.495925,0.110658 -1.167839,0.273971 -1.493144,0.362917 -0.618102,0.169005 -1.797345,2.398654 -1.809513,3.42134 -0.0039,0.325917 0.29908,1.022499 0.673242,1.54796 l 0.680294,0.955383 -0.894316,0.933463 -0.894315,0.933464 -1.027889,-0.63527 c -1.242977,-0.768202 -2.192245,-0.78265 -3.681191,-0.05602 -0.882031,0.430442 -1.189718,0.824225 -1.430458,1.830733 -0.168692,0.705278 -0.457655,1.388477 -0.64214,1.518215 -0.420945,0.296024 -1.92245,0.317558 -2.208338,0.03166 z m 3.125179,-7.297036 c 1.719045,-0.718262 2.835202,-2.451025 2.835202,-4.40147 0,-1.844197 -0.596336,-2.888718 -2.31832,-4.06069 -3.419807,-2.327501 -8.180313,1.242691 -7.084306,5.312951 0.752365,2.794071 3.855765,4.282213 6.567424,3.149209 z M 23.44228,28.360419 c -1.664687,-1.400742 -1.367164,-3.847348 0.565198,-4.647759 1.931305,-0.799973 3.871345,0.485657 3.871345,2.565472 0,1.371153 -0.961045,2.45118 -2.445289,2.748029 -0.758288,0.151658 -1.192262,0.0066 -1.991254,-0.665742 z" />
</svg>
