<?xml version="1.0" encoding="UTF-8" standalone="no"?>
<svg xmlns="http://www.w3.org/2000/svg" width="50.724907px" height="50.87405px" viewBox="0 0 50.724907 50.87405" >
  <path fill="#ffffff" stroke-width="0.32107022"
     d="M 21.879624,50.717983 C 13.611533,49.405416 6.5966689,44.431345 2.876271,37.243157 0.96405796,33.548566 0.23096826,30.846071 0.0334363,26.763196 -0.48307405,16.087215 5.0100256,6.9883852 14.74344,2.3973843 27.01888,-3.3926245 41.66398,1.6475522 47.954475,13.82711 c 2.055684,3.98018 2.770431,6.949124 2.770431,11.507892 0,13.843496 -10.434102,24.817853 -24.246514,25.501948 -1.613709,0.07992 -3.683155,0.02639 -4.598768,-0.118967 z m 3.1276,-12.700706 2.788912,-2.729097 h 4.550922 c 4.403748,0 4.576407,-0.02549 5.339,-0.788083 l 0.788083,-0.78808 v -9.019155 -9.019155 l -0.788083,-0.788081 -0.78808,-0.788082 H 25.149726 13.401475 l -0.788082,0.788082 -0.788081,0.788081 v 8.961262 c 0,11.192599 -0.259136,10.587227 4.589845,10.722408 l 3.276375,0.09134 0.09646,2.234106 c 0.107714,2.494716 0.406208,3.063553 1.607579,3.063553 0.599672,0 1.57889,-0.739936 3.611651,-2.729097 z M 22.420629,34.717031 V 32.719618 H 18.407251 14.393873 V 24.688534 16.65745 l 10.675586,0.0846 10.675585,0.0846 0.08588,7.946488 0.08588,7.946489 h -4.732756 -4.732757 l -2.015327,1.997413 -2.015328,1.997413 z m 4.112107,-5.930524 C 26.434486,27.428593 26.427374,27.421479 25.069459,27.32323 L 23.70491,27.2245 v 1.463277 1.463277 h 1.463277 1.463277 z m -0.0055,-6.742475 -0.09325,-2.648829 h -1.284281 -1.284281 l -0.09325,2.648829 -0.09325,2.64883 h 1.470786 1.470786 l -0.09325,-2.64883 z" />
</svg>
