<?xml version="1.0" encoding="UTF-8" standalone="no"?>
<svg xmlns="http://www.w3.org/2000/svg" width="50.734299px" height="50.723751px" viewBox="0 0 50.734299 50.723751" >
  <path fill="#ffffff" stroke-width="0.32107022"
     d="M 25.398438 0 C 23.162064 0.0006010625 20.928348 0.23760029 19.166016 0.70898438 C 9.8459057 3.2019034 3.1127213 9.9393188 0.68945312 19.199219 C -0.15204637 22.414795 -0.23522798 27.829132 0.5078125 30.996094 C 2.7671029 40.625566 10.431488 48.175027 20.128906 50.320312 C 21.698221 50.667476 23.5409 50.780396 26.232422 50.697266 C 29.50723 50.596116 30.544972 50.426452 33.134766 49.5625 C 36.996541 48.274215 39.966784 46.517643 42.792969 43.851562 C 48.299812 38.656685 51.095313 31.703855 50.697266 24.191406 C 50.474389 19.98497 49.89846 17.754112 48.082031 14.0625 C 44.80952 7.4116183 38.93326 2.6360243 31.648438 0.70507812 C 29.873647 0.2346448 27.634811 -0.0006010625 25.398438 0 z M 23.226562 11.179688 L 27.507812 11.179688 L 27.507812 15.427734 L 23.226562 15.427734 L 23.226562 11.179688 z M 23.226562 19.126953 L 27.507812 19.126953 L 27.507812 39.544922 L 23.226562 39.544922 L 23.226562 19.126953 z" />
</svg>
