<?xml version="1.0" encoding="UTF-8" standalone="no"?>
<svg xmlns="http://www.w3.org/2000/svg" width="50.715744px" height="50.849396px" viewBox="0 0 50.715744 50.849396" >
  <path fill="#ffffff" stroke-width="0.32107022" d="M 21.879624,50.693328 C 13.53791,49.369074 6.6298846,44.463962 2.8623795,37.189946 0.96459066,33.525838 0.23061986,30.814215 0.0334363,26.738541 -0.48307405,16.06256 5.0100256,6.9637303 14.74344,2.3727294 c 8.912715,-4.203898 19.648977,-2.73370296 27.112354,3.7126937 2.749594,2.3749279 4.612042,4.8067479 6.240273,8.1480009 1.943544,3.988301 2.632901,6.987856 2.619487,11.397994 -0.04126,13.564713 -10.570573,24.504003 -24.237162,25.180877 -1.613709,0.07992 -3.683155,0.02639 -4.598768,-0.118967 z
 m 5.146011,-10.970225 c 0.776197,-0.353658 1.495329,-1.498405 1.495329,-2.380328 0,-0.252502 0.34637,-0.686046 0.769711,-0.963432 0.712174,-0.466634 0.850179,-0.455274 1.846154,0.151934 1.623443,0.989753 2.423066,0.841352 4.008321,-0.743901 1.600554,-1.600554 1.818792,-2.797745 0.756239,-4.14856 -0.547389,-0.695893 -0.588647,-0.948266 -0.269532,-1.64865 0.211316,-0.463785 0.643178,-0.826976 0.983342,-0.826976 0.865242,0 2.387834,-0.847128 2.62271,-1.4592 0.37695,-0.982315 0.20011,-3.53409 -0.293779,-4.239216 -0.271272,-0.387295 -1.051129,-0.871326 -1.733018,-1.075625 -1.624471,-0.486703 -2.052259,-1.403938 -1.258104,-2.697531 0.857719,-1.39713 0.745287,-2.535256 -0.37669,-3.813117 -1.423073,-1.62079 -2.512554,-1.907559 -4.156686,-1.094108 -1.621588,0.802298 -2.898668,0.440209 -2.898668,-0.821857 0,-0.421442 -0.29945,-1.146948 -0.665444,-1.612234 -0.592529,-0.753278 -0.886114,-0.845975 -2.679335,-0.845975 -2.285773,0 -2.888792,0.416537 -3.427492,2.36755 -0.383906,1.390394 -1.467221,1.822472 -2.592758,1.034115 -1.308965,-0.916835 -2.763298,-0.659921 -4.157694,0.734475 -1.41973,1.41973 -1.595724,2.5136 -0.651797,4.051151 0.795962,1.296533 0.349773,2.32221 -1.131057,2.600015 -1.560496,0.292751 -2.353286,1.46248 -2.353286,3.472179 0,2.1229 0.617619,3.015457 2.269358,3.279581 1.54389,0.246878 1.983789,1.281865 1.146949,2.698522 -0.927857,1.570735 -0.690025,2.647114 0.910967,4.122859 1.618518,1.491897 2.349169,1.616787 3.889476,0.664824 1.383225,-0.854879 2.228628,-0.446709 2.699926,1.303561 0.228165,0.847336 0.635314,1.432991 1.214919,1.747569 1.044655,0.566984 2.952188,0.634342 4.031939,0.142375 z
" />
<circle cx="25" cy="26" r="6" fill="#ffffff"/>
</svg>
