<?xml version="1.0" encoding="UTF-8" standalone="no"?>
<svg xmlns="http://www.w3.org/2000/svg" width="50.734299px" height="50.723751px" viewBox="0 0 50.734299 50.723751" >
  <path fill="#ffffff" stroke-width="0.32107022"
     d="M 25.398438 0 C 23.162064 0.0006010625 20.928348 0.23760029 19.166016 0.70898438 C 9.8459057 3.2019034 3.1127213 9.9393188 0.68945312 19.199219 C -0.15204637 22.414795 -0.23522798 27.829132 0.5078125 30.996094 C 2.7671029 40.625566 10.431488 48.175027 20.128906 50.320312 C 21.698221 50.667476 23.5409 50.780396 26.232422 50.697266 C 29.50723 50.596116 30.544972 50.426452 33.134766 49.5625 C 36.996541 48.274215 39.966784 46.517643 42.792969 43.851562 C 48.299812 38.656685 51.095313 31.703855 50.697266 24.191406 C 50.474389 19.98497 49.89846 17.754112 48.082031 14.0625 C 44.80952 7.4116183 38.93326 2.6360243 31.648438 0.70507812 C 29.873647 0.2346448 27.634811 -0.0006010625 25.398438 0 z M 25.603516 9.7304688 C 26.490668 9.7304688 27.396701 9.8216146 28.320312 10.003906 C 29.256076 10.174045 30.203993 10.434679 31.164062 10.787109 L 31.164062 13.777344 C 30.155382 13.303385 29.212891 12.951606 28.337891 12.720703 C 27.475043 12.477648 26.703993 12.355469 26.023438 12.355469 C 24.844618 12.355469 23.927734 12.597873 23.271484 13.083984 C 22.615234 13.570095 22.287109 14.244575 22.287109 15.107422 C 22.287109 16.201172 23.537543 17.448134 26.041016 18.845703 C 26.356988 19.027995 26.601345 19.16645 26.771484 19.263672 C 29.33572 20.709852 31.012804 21.902127 31.802734 22.837891 C 32.604818 23.773654 33.005859 24.854601 33.005859 26.082031 C 33.005859 27.175781 32.725043 28.147352 32.166016 28.998047 C 31.606988 29.848741 30.763021 30.596137 29.632812 31.240234 C 30.386285 31.872179 30.93316 32.523003 31.273438 33.191406 C 31.625868 33.847656 31.802734 34.564019 31.802734 35.341797 C 31.802734 37.067491 31.182943 38.442057 29.943359 39.462891 C 28.703776 40.483724 27.032118 40.994141 24.929688 40.994141 C 24.042535 40.994141 23.131076 40.902995 22.195312 40.720703 C 21.259549 40.550564 20.256944 40.287977 19.1875 39.935547 L 19.1875 36.947266 C 20.244792 37.421224 21.223741 37.773003 22.123047 38.003906 C 23.022352 38.246962 23.824436 38.369141 24.529297 38.369141 C 25.76888 38.369141 26.727648 38.113932 27.408203 37.603516 C 28.100911 37.093099 28.447266 36.374783 28.447266 35.451172 C 28.447266 34.211589 27.105686 32.844401 24.419922 31.349609 L 23.962891 31.095703 C 21.362196 29.63737 19.674262 28.445095 18.896484 27.521484 C 18.118707 26.585721 17.728516 25.499349 17.728516 24.259766 C 17.728516 23.153863 18.009332 22.169488 18.568359 21.306641 C 19.13954 20.431641 19.978082 19.695095 21.083984 19.099609 C 20.366971 18.564887 19.825521 17.957899 19.460938 17.277344 C 19.108507 16.596788 18.931641 15.836589 18.931641 14.998047 C 18.931641 13.418186 19.540582 12.149523 20.755859 11.189453 C 21.971137 10.217231 23.586155 9.7304687 25.603516 9.7304688 z M 22.960938 20.376953 C 22.195313 20.935981 21.624783 21.488281 21.248047 22.035156 C 20.871311 22.582031 20.681641 23.134332 20.681641 23.693359 C 20.681641 24.61697 21.100911 25.486545 21.939453 26.300781 C 22.790148 27.102865 24.735243 28.324219 27.773438 29.964844 C 28.539062 29.417969 29.109592 28.871094 29.486328 28.324219 C 29.863064 27.765191 30.052734 27.205512 30.052734 26.646484 C 30.052734 25.735026 29.615234 24.867404 28.740234 24.041016 C 27.877387 23.214627 25.950521 21.993273 22.960938 20.376953 z" />
</svg>
