<?xml version="1.0" encoding="UTF-8" standalone="no"?>
<svg xmlns="http://www.w3.org/2000/svg" width="50.734299px" height="50.723751px" viewBox="0 0 50.734299 50.723751" >
  <path fill="#ffffff" stroke-width="0.32107022"
     d="M 20.129445,50.319666 C 10.432027,48.174381 2.7666705,40.625673 0.50738009,30.996201 -0.23566039,27.829239 -0.152144,22.415349 0.6893555,19.199773 3.1126237,9.9398731 9.8461241,3.2009607 19.166234,0.70804171 22.690899,-0.23472645 28.099272,-0.23617995 31.648852,0.70468671 38.933674,2.6356329 44.80926,7.4117673 48.081771,14.062649 c 1.816429,3.691612 2.39232,5.921995 2.615197,10.128431 0.398047,7.512449 -2.397219,14.465231 -7.904062,19.660109 -2.826185,2.666081 -5.796528,4.422341 -9.658303,5.710626 -2.589794,0.863952 -3.628201,1.034835 -6.903009,1.135985 -2.691522,0.08313 -4.532834,-0.03097 -6.102149,-0.378134 z M 22.537472,36.05596 V 34.771679 H 21.253191 19.96891 v -3.884561 c 0,-3.847541 -0.0086,-3.892674 -0.90683,-4.735786 L 18.155249,25.300107 19.06208,24.55328 c 0.902604,-0.743348 0.90683,-0.76467 0.90683,-4.575251 v -3.828423 h 1.284281 1.284281 v -1.484574 -1.484574 l -1.820288,0.150952 c -1.47602,0.122403 -1.961808,0.315479 -2.568562,1.020873 -0.68385,0.795023 -0.748274,1.168725 -0.748274,4.34049 0,4.103311 -0.443135,5.020425 -2.591804,5.364011 -1.215511,0.194368 -1.261039,0.246534 -1.261039,1.444894 0,1.209841 0.03059,1.243246 1.13834,1.243246 0.780514,0 1.386065,0.247725 1.926421,0.788081 0.746074,0.746073 0.788082,0.986453 0.788082,4.509577 0,3.523123 0.04201,3.763505 0.788081,4.509576 0.647245,0.647246 1.106269,0.788083 2.568562,0.788083 h 1.780481 z m 9.855006,0.509532 c 0.875052,-0.752569 0.905444,-0.886709 1.061381,-4.684756 0.148791,-3.62396 0.215988,-3.954844 0.918512,-4.522909 0.41689,-0.337097 1.247659,-0.612903 1.846154,-0.612903 1.049508,0 1.088177,-0.04418 1.088177,-1.243246 0,-1.191728 -0.05066,-1.251347 -1.222616,-1.438749 -2.187667,-0.349823 -2.562654,-1.106515 -2.684417,-5.416961 -0.131404,-4.651604 -0.427014,-5.103171 -3.48553,-5.324404 l -1.959311,-0.141724 0.100687,1.404616 0.100686,1.404615 1.364548,0.09873 1.364549,0.09873 v 3.834382 c 0,3.406288 0.07169,3.906074 0.64214,4.476522 0.353177,0.353177 0.797709,0.64214 0.987846,0.64214 0.190135,0 -0.09445,0.370368 -0.632421,0.823039 l -0.978128,0.823039 -0.08999,3.912747 -0.08999,3.912747 -1.364548,0.09873 c -1.357915,0.09825 -1.364549,0.104881 -1.364549,1.364549 v 1.265819 h 1.747983 c 1.384781,0 1.935162,-0.160978 2.64883,-0.774749 z" />
</svg>
