<?xml version="1.0" encoding="UTF-8" standalone="no"?>
<svg version="1.1" xmlns="http://www.w3.org/2000/svg" width="240" height="240" viewBox="0 0 840 840" >
  <g transform="translate(-400,-590) scale(1.5,1.5)" fill="#ffffff">
    <path d="M 320 500 a 50 50 0 0 1 50 -50 h 350 a 50 50 0 0 1 50 50 v 350 a 50 50 0 0 1 -50 50 h -350 a 50 50 0 0 1 -50 -50 z
             M 546.5 505 a 168.33 168.33 0 0 0 0 336.66 a 168.33 168.33 0 0 0 0 -336.66 z
             M 546.5 564.58 a 108.75 108.75 0 0 1 0 217.5 a 108.75 108.75 0 0 1 0 -217.5 z
             M 530.875 470 h 31.25 v 410 h -31.25 z" />
  </g>
</svg>
