<?xml version="1.0" encoding="UTF-8" standalone="no"?>
<svg version="1.1" xmlns="http://www.w3.org/2000/svg" width="240" height="240" viewBox="0 0 140 140">
  <path fill="#ffffff" stroke-width="1.71428573"
     d="M 120 17.142578 C 63.193531 17.142578 17.142578 63.19357 17.142578 120 C 17.142578 176.80642 63.193531 222.85742 120 222.85742 C 176.80647 222.85742 222.85742 176.80642 222.85742 120 C 222.85742 63.19357 176.80647 17.142578 120 17.142578 z M 120 65.142578 A 10.285714 10.285714 0 0 1 130.28516 75.427734 A 10.285714 10.285714 0 0 1 120 85.714844 A 10.285714 10.285714 0 0 1 109.71484 75.427734 A 10.285714 10.285714 0 0 1 120 65.142578 z M 109.71484 96 L 130.28516 96 L 130.28516 178.28516 L 109.71484 178.28516 L 109.71484 96 z "
     transform="scale(0.58333333)" />
</svg>
