<?xml version="1.0" encoding="utf-8"?>
<!-- Generator: Adobe Illustrator 27.9.0, SVG Export Plug-In . SVG Version: 6.00 Build 0)  -->
<svg version="1.2" baseProfile="tiny" id="Layer_1" xmlns="http://www.w3.org/2000/svg" xmlns:xlink="http://www.w3.org/1999/xlink"
	 x="0px" y="0px" viewBox="0 0 22 22" overflow="visible" xml:space="preserve">
<path fill="#0077B6" d="M19.6,16.4l-1.7-2.9V8.4c0-3.5-2.6-6.4-6.1-6.8V0.8C11.8,0.3,11.4,0,11,0s-0.8,0.3-0.8,0.8v0.9
	C6.9,2.1,4.3,4.9,4.3,8.4v5.1l-1.7,2.9c-0.4,0.6-0.4,1.4,0,2c0.3,0.6,1,1,1.7,1h3.1C7.7,20.9,9,22,10.6,22c1.6,0,2.9-1.1,3.4-2.6
	h3.7c0.8,0,1.4-0.4,1.9-1C20,17.8,20,17,19.6,16.4z M10.7,20.5c-0.8,0-1.4-0.5-1.7-1.1h3.3C12.1,20,11.5,20.5,10.7,20.5z M18.1,17.6
	c0,0.1-0.1,0.3-0.4,0.3H4.2c-0.2,0-0.4-0.2-0.4-0.3c0-0.1-0.1-0.3,0-0.5l1.9-3.2V8.4c0-2.9,2.4-5.3,5.3-5.3s5.3,2.4,5.2,5.3v5.5
	l1.9,3.2C18.2,17.3,18.1,17.5,18.1,17.6z"/>
</svg>
