<?xml version="1.0" encoding="utf-8"?>
<!-- Generator: Adobe Illustrator 27.8.1, SVG Export Plug-In . SVG Version: 6.00 Build 0)  -->
<svg version="1.2" baseProfile="tiny" id="Layer_1" xmlns="http://www.w3.org/2000/svg" xmlns:xlink="http://www.w3.org/1999/xlink"
	 x="0px" y="0px" viewBox="0 0 22 22" overflow="visible" xml:space="preserve">
<g>
	<path fill="#0077B6" d="M11,13c-2.1,0-3.7-1.7-3.7-3.7S8.9,5.5,11,5.5s3.7,1.7,3.7,3.7S13.1,13,11,13z M11,7C9.8,7,8.8,8,8.8,9.2
		s1,2.2,2.2,2.2s2.2-1,2.2-2.2S12.2,7,11,7z"/>
</g>
<g>
	<path fill="#0077B6" d="M11,17.4c-0.4,0-0.8-0.3-0.8-0.8v-4.4c0-0.4,0.3-0.8,0.8-0.8s0.8,0.3,0.8,0.8v4.4
		C11.8,17,11.4,17.4,11,17.4z"/>
</g>
<g>
	<path fill="#0077B6" d="M11,22c0,0-0.1,0-0.1,0C6,21,2.6,17.7,1,12.3c-1.2-4-1-7.6-1-7.7C0,4.3,0.2,4,0.5,3.9L10.7,0
		C10.9,0,11.1,0,11.3,0l10.2,3.9C21.8,4,22,4.3,22,4.6c0,0.2,0.2,3.8-1,7.7c-1.6,5.4-5,8.7-9.8,9.7C11.1,22,11,22,11,22z M1.5,5.2
		c0,1.1,0.1,3.9,1,6.8c1.5,4.8,4.3,7.7,8.5,8.6c9.1-2,9.5-12.9,9.5-15.3L11,1.6L1.5,5.2z"/>
</g>
</svg>
