<?xml version="1.0" encoding="utf-8"?>
<!-- Generator: Adobe Illustrator 27.8.1, SVG Export Plug-In . SVG Version: 6.00 Build 0)  -->
<svg version="1.2" baseProfile="tiny" id="Layer_1" xmlns="http://www.w3.org/2000/svg" xmlns:xlink="http://www.w3.org/1999/xlink"
	 x="0px" y="0px" viewBox="0 0 22 22" overflow="visible" xml:space="preserve">
<g>
	<g>
		<g>
			<path fill="#0077B6" d="M19.9,22H2.1C0.9,22,0,21.1,0,19.9V2.1C0,0.9,0.9,0,2.1,0h14c0.6,0,1.1,0.2,1.5,0.6l3.8,3.8
				C21.8,4.7,22,5.3,22,5.9v14C22,21.1,21.1,22,19.9,22z M2.1,1.5c-0.3,0-0.6,0.3-0.6,0.6v17.8c0,0.3,0.3,0.6,0.6,0.6h17.8
				c0.3,0,0.6-0.3,0.6-0.6v-14c0-0.2-0.1-0.3-0.2-0.4l-3.8-3.8c-0.1-0.1-0.3-0.2-0.4-0.2H2.1z"/>
		</g>
		<g>
			<path fill="#0077B6" d="M18.1,21.2h-1.5v-7.9c0-0.3-0.3-0.6-0.6-0.6H6.1c-0.3,0-0.6,0.3-0.6,0.6v7.9H4v-7.9
				c0-1.2,0.9-2.1,2.1-2.1H16c1.2,0,2.1,0.9,2.1,2.1V21.2z"/>
		</g>
		<g>
			<path fill="#0077B6" d="M13.3,6.4H8.7c-1.2,0-2.1-0.9-2.1-2.1V0.8h1.5v3.6c0,0.3,0.3,0.6,0.6,0.6h4.6c0.3,0,0.6-0.3,0.6-0.6V0.8
				h1.5v3.6C15.4,5.5,14.4,6.4,13.3,6.4z"/>
		</g>
	</g>
</g>
</svg>
