<svg enable-background="new 0 0 160 160" viewBox="0 0 160 160" xmlns="http://www.w3.org/2000/svg"><g style="fill:none;stroke:#0077b6;stroke-width:7;stroke-linecap:square;stroke-linejoin:round;stroke-miterlimit:10"><path d="m139.8 80c0-4.5-.6-8.6-1.4-12.8l14.5-13.9-13.4-22.8-19.2 5.5c-6.4-5.8-13.6-10.3-22.3-13.1l-4.6-19.4h-26.2l-4.7 19.5c-8.3 2.8-15.9 7.2-22.3 13.1l-19.8-5.6-13.3 22.8 14.5 13.9c-.8 3.9-1.4 8.1-1.4 12.8s.6 8.6 1.4 12.8l-14.5 13.9 13.4 22.8 19.2-5.6c6.4 5.8 13.6 10.3 22.3 13.1l4.7 19.5h26.1l4.7-19.5c8.3-2.8 15.9-7.2 22.3-13.1l19.2 5.6 13.4-22.8-14.5-13.9c1.4-4.2 1.9-8.3 1.9-12.8z"/><circle cx="80" cy="80" r="22.8"/></g></svg>