<?xml version="1.0" encoding="utf-8"?>
<!-- Generator: Adobe Illustrator 27.8.1, SVG Export Plug-In . SVG Version: 6.00 Build 0)  -->
<svg version="1.2" baseProfile="tiny" id="Layer_1" xmlns="http://www.w3.org/2000/svg" xmlns:xlink="http://www.w3.org/1999/xlink"
	 x="0px" y="0px" viewBox="0 0 80 80" overflow="visible" xml:space="preserve">
<g>
	<g>
		<g>
			<path fill="#0077B6" d="M40,80C17.9,80,0,62.1,0,40S17.9,0,40,0s40,17.9,40,40S62.1,80,40,80z M40,1C18.5,1,1,18.5,1,40
				s17.5,39,39,39s39-17.5,39-39S61.5,1,40,1z"/>
		</g>
		<g>
			<path fill="#3E8401" d="M33.3,52.7c-0.5,0-1-0.2-1.4-0.6L24,44.2c-0.8-0.8-0.8-2,0-2.8s2-0.8,2.8,0l6.5,6.5l20-20
				c0.8-0.8,2-0.8,2.8,0s0.8,2,0,2.8L34.7,52.1C34.3,52.5,33.8,52.7,33.3,52.7z"/>
		</g>
	</g>
</g>
</svg>
