<?xml version="1.0" encoding="UTF-8"?>
<svg id="Ebene_2" data-name="Ebene 2" xmlns="http://www.w3.org/2000/svg" viewBox="0 0 225 118">
  <defs>
    <style>
      .cls-1 {
        fill: none;
        stroke: #0077b6;
        stroke-miterlimit: 10;
      }

      .cls-2 {
        fill: #0077b6;
        stroke-width: 0px;
      }
    </style>
  </defs>
  <g id="Layer_1" data-name="Layer 1">
    <path class="cls-2" d="M0,110.45v2.6c0,2.73,2.22,4.95,4.95,4.95h115.05c2.6,0,4.8-2.1,4.8-4.8v-2.85c0-.14-.11-.25-.25-.25h-10.01c-.22,0-.33-.26-.18-.42.86-.87,1.44-2.01,1.44-3.38v-17.15c0-.14.11-.25.25-.25h27.3c.14,0,.25.11.25.25v17c0,.14-.11.25-.25.25h-15.7c-.14,0-.25.11-.25.25v4.9c0,.14.11.25.25.25h57.7c.14,0,.25-.11.25-.25v-4.9c0-.14-.11-.25-.25-.25h-15.7c-.14,0-.25-.11-.25-.25v-17c0-.14.11-.25.25-.25h48.9c3.55,0,6.45-2.9,6.45-6.45V6.45c0-3.55-2.9-6.45-6.45-6.45h-124.1c-3.55,0-6.45,2.9-6.45,6.45v37.5c0,.14-.11.25-.25.25H17.7c-2.6,0-4.8,2.1-4.8,4.8v57.2c0,1.37.59,2.52,1.45,3.39.15.16.04.42-.17.42l-13.93.19c-.14,0-.25.11-.25.25ZM1.1,112.85v-1.5c0-.14.11-.25.25-.25h11c.14,0,.25.11.25.25v1.85c0,1.37.58,2.51,1.44,3.38.15.16.04.42-.18.42H5.25c-2.29,0-4.15-1.86-4.15-4.15ZM82.3,111.35c0,1.13-.92,2.05-2.05,2.05h-23.1c-1.13,0-2.05-.92-2.05-2.05h0c0-.14.11-.25.25-.25h26.7c.14,0,.25.11.25.25h0ZM111.55,106.8H17.15c-.14,0-.25-.11-.25-.25v-57.5c0-.14.11-.25.25-.25h94.4c.14,0,.25.11.25.25v57.5c0,.14-.11.25-.25.25ZM98.1,44.05V8.55c0-.14.11-.25.25-.25h116.2c.14,0,.25.11.25.25v69.3c0,.14-.11.25-.25.25l-99.4.5c-.14,0-.25-.11-.25-.25v-6.87s0-16.18,0-23.62c0-1.98-1.61-3.58-3.59-3.58l-12.96.02c-.14,0-.25-.11-.25-.25ZM114.9,78.6c0,.3-.07,2.32,10.2.5h-9.7c-.3,0-.5-.2-.5-.5M172,107.65v2.9c0,.14-.11.25-.25.25h-43c-.14,0-.25-.11-.25-.25v-2.9c0-.14.11-.25.25-.25h43c.14,0,.25.11.25.25ZM144.6,106.15v-14c0-.14.11-.25.25-.25h16.8c.14,0,.25.11.25.25v14c0,.14-.11.25-.25.25h-16.8c-.14,0-.25-.11-.25-.25Z"/>
    <polygon class="cls-1" points="98.08 94.26 101.8 98.68 101.8 90.27 101.8 69.8 62.8 69.8 62.8 94.26 98.08 94.26"/>
    <rect class="cls-1" x="19.71" y="52.22" width="88.05" height="51.13"/>
    <polygon class="cls-1" points="199.16 64.13 203.92 69.8 203.92 59.03 203.92 32.8 153.97 32.8 153.97 64.13 199.16 64.13"/>
    <polygon class="cls-1" points="210.54 74.61 113.49 74.61 113.49 47.17 102.36 45.7 102.36 11.79 210.54 11.79 210.54 74.61"/>
  </g>
</svg>
