<?xml version="1.0" encoding="utf-8"?>
<!-- Generator: Adobe Illustrator 27.8.1, SVG Export Plug-In . SVG Version: 6.00 Build 0)  -->
<svg version="1.2" baseProfile="tiny" id="Layer_1" xmlns="http://www.w3.org/2000/svg" xmlns:xlink="http://www.w3.org/1999/xlink"
	 x="0px" y="0px" viewBox="0 0 40 36" overflow="visible" xml:space="preserve">
<g>
	<g>
		<g>
			<path fill="#DB6A00" d="M20,30.9c-0.8,0-1.5-0.7-1.5-1.5v-1.9c0-0.8,0.7-1.5,1.5-1.5c0.8,0,1.5,0.7,1.5,1.5v1.9
				C21.5,30.2,20.9,30.9,20,30.9z"/>
		</g>
		<g>
			<path fill="#DB6A00" d="M20,23.8c-0.8,0-1.5-0.7-1.5-1.5V12.2c0-0.8,0.7-1.5,1.5-1.5c0.8,0,1.5,0.7,1.5,1.5v10.2
				C21.5,23.1,20.9,23.8,20,23.8z"/>
		</g>
		<g>
			<path fill="#DB6A00" d="M36,36H4c-1.4,0-2.7-0.7-3.4-2c-0.8-1.3-0.8-2.8-0.1-4.1L16.5,2c0.7-1.2,2-2,3.5-2c0,0,0,0,0,0
				c1.5,0,2.8,0.8,3.5,2.1l16,27.8c0.7,1.2,0.8,2.7,0,4C38.8,35.2,37.5,36,36,36z M20,3c-0.2,0-0.6,0-0.8,0.5l-16,27.9
				C3,31.7,3,32.1,3.2,32.5C3.3,32.7,3.5,33,4,33h32c0.5,0,0.7-0.4,0.8-0.5c0.1-0.1,0.3-0.6,0-1l-16-27.9C20.6,3.1,20.1,3,20,3L20,3
				z"/>
		</g>
	</g>
</g>
</svg>
