<?xml version="1.0" encoding="utf-8"?>
<!-- Generator: Adobe Illustrator 27.8.1, SVG Export Plug-In . SVG Version: 6.00 Build 0)  -->
<svg version="1.2" baseProfile="tiny" id="Layer_1" xmlns="http://www.w3.org/2000/svg" xmlns:xlink="http://www.w3.org/1999/xlink"
	 x="0px" y="0px" viewBox="0 0 200 80" overflow="visible" xml:space="preserve">
<g>
	<path fill="#FF0000" d="M16.9,26.8c10.4-10.3,24.3-16,39.1-16s28.7,5.7,39.1,16.1l0.4,0.3l6.9-6.8L102,20
		C76.7-5.1,35.4-5.1,10.1,20l-0.4,0.3l6.9,6.8L16.9,26.8z M101,20.4l-5.4,5.4C84.9,15.5,70.9,9.8,56,9.8s-28.9,5.7-39.5,16l-5.4-5.4
		C36-3.9,76.1-3.9,101,20.4z"/>
	<path fill="#FF0000" d="M113,38.4H68.3V67H113V38.4z M112,66H69.3V39.4H112V66z"/>
	<path fill="#FF0000" d="M12.7,36.9h5.9c0.7,0,1.3-0.6,1.3-1.3s-0.6-1.3-1.3-1.3h-5.9c-0.7,0-1.3,0.6-1.3,1.3S11.9,36.9,12.7,36.9z"
		/>
	<path fill="#FF0000" d="M195.6,0H111c-2.4,0-4.4,2-4.4,4.4v25.5H89.7c-9.2-8.5-21-13.2-33.7-13.2c-12,0-23.3,4.2-32.3,11.9
		c-0.2,0.1-0.3,0.3-0.5,0.4c-0.2,0.2-0.5,0.4-0.7,0.6c-0.1,0.1-0.2,0.1-0.2,0.2H3.4c-1.9,0-3.4,1.5-3.4,3.4v43.3
		c0,2,1.5,3.5,3.4,3.5h24.4c1.9,0,3.4-1.5,3.4-3.4V35c0.1-0.1,0.1-0.1,0.2-0.2c0.2-0.2,0.5-0.4,0.7-0.6c0.3-0.2,0.5-0.4,0.8-0.6
		c0.2-0.2,0.4-0.3,0.6-0.5c0.3-0.2,0.6-0.4,0.9-0.6c0.2-0.1,0.4-0.2,0.5-0.3c0.4-0.2,0.7-0.4,1.1-0.6c0.1-0.1,0.3-0.2,0.4-0.2
		c0.4-0.2,0.8-0.4,1.2-0.7c0.1,0,0.2-0.1,0.3-0.1c0.5-0.2,0.9-0.5,1.4-0.7c5.1-2.3,10.7-3.6,16.6-3.6c5.7,0,11.4,1.2,16.5,3.6H59
		c-1.5,0-2.8,1-3.3,2.4c-5.6,0.1-11,1.5-15.8,4.1l0,0l-0.7,0.4c-1.2,0.7-2.4,1.5-3.5,2.3c-0.1,0.1-0.2,0.1-0.3,0.2
		c-0.4,0.3-0.9,0.7-1.3,1.1c-0.1,0.1-0.2,0.2-0.4,0.3c-0.5,0.4-1,0.9-1.5,1.4l-0.4,0.3l6.9,6.8l0.4-0.3c0.1-0.1,0.2-0.2,0.4-0.3
		c0.1-0.1,0.2-0.2,0.3-0.2l0.2-0.1l0,0c4.3-3.9,9.8-6.1,15.6-6.2v6c-4.6,0.1-8.9,2-12.2,5.2L43,53.4l6.9,6.8l0.4-0.3
		c1.4-1.4,3.3-2.3,5.3-2.4v14.4c0,0.9,0.4,1.8,1,2.4h-1.3h-8.5v2.3c0,1.9,1.5,3.4,3.4,3.4h8.5h67.6h2.2c1.9,0,3.4-1.5,3.4-3.4v-2.3
		h-2.2h-4.9c0.6-0.6,1-1.5,1-2.4V60.3h6.6h12v1v10.5h-11v4h31.3h8.6v-4h-8.6h-2.5V60.3h33.4c2.4,0,4.4-2,4.4-4.4V4.4
		C200,2,198,0,195.6,0z M55.5,56.5c-2.1,0.1-4.1,0.9-5.7,2.3l-5.5-5.4c3-2.8,7-4.4,11.1-4.5L55.5,56.5L55.5,56.5z M55.5,33.3v7.6
		c-5.8,0.1-11.3,2.2-15.6,5.9v-9.3C44.6,34.8,50,33.4,55.5,33.3L55.5,33.3z M50.1,79c-1.3,0-2.4-1.1-2.4-2.4v-1.3h7.5v1.3
		c0,0.9,0.4,1.8,1,2.4H50.1z M28.6,75.9c0,0.8-0.7,1.5-1.5,1.5h-23c-0.8,0-1.5-0.7-1.5-1.5v-2.5c0-0.8,0.7-1.5,1.5-1.5h23
		c0.8,0,1.5,0.7,1.5,1.5V75.9z M28.6,71.4c-0.4-0.3-0.9-0.5-1.5-0.5h-23c-0.6,0-1.1,0.2-1.5,0.5V34c0-0.8,0.7-1.5,1.5-1.5h17.8
		l5.7,5.7l0.4-0.3c0.2-0.2,0.4-0.4,0.6-0.6C28.6,37.3,28.6,71.4,28.6,71.4z M31.3,34.7c0,0.3-0.2,0.5-0.5,0.5s-0.5-0.2-0.5-0.5v-1.4
		c0-1.3-1.1-2.4-2.4-2.4h-5.3c-0.3,0-0.5-0.2-0.5-0.5s0.2-0.5,0.5-0.5h5.3c1.9,0,3.4,1.5,3.4,3.4C31.3,33.3,31.3,34.7,31.3,34.7z
		 M56,25.3c-5.8,0-11.4,1.2-16.5,3.5c-0.6-1.2-1.8-1.9-3.1-1.9h-8.9c8.2-5.9,18.1-9.2,28.4-9.2c12,0,23.3,4.3,32.2,12.2H74.8
		C69,26.9,62.6,25.3,56,25.3z M102.7,75.5c0,0.6-0.5,1-1,1H85.5c-0.6,0-1-0.5-1-1v-0.2h18.2V75.5z M122.8,72H58.6V33.2h64.2
		C122.8,33.2,122.8,72,122.8,72z M124.5,10.9v19.7c-0.6-0.4-1.3-0.7-2.1-0.7h-8.6v-24h79v46.8h-60.4v-5h49.7V10.9H124.5z M129,36.3
		h-3.2v-3c0-0.5-0.1-1-0.4-1.5V11.9H181v34.8h-48.7v-7C132.4,37.8,130.9,36.3,129,36.3z M131.9,46.7c0.3,0,0.5,0.2,0.5,0.5
		s-0.2,0.5-0.5,0.5h-6.6c-0.3,0-0.5-0.2-0.5-0.5s0.2-0.5,0.5-0.5H131.9z M131.9,53.7h-6.6c-0.3,0-0.5-0.2-0.5-0.5s0.2-0.5,0.5-0.5
		h6.6c0.3,0,0.5,0.2,0.5,0.5S132.2,53.7,131.9,53.7z M163.6,72.8v2h-29.3v-2h10h13.4h4.3H163.6z M145.4,71.8v-9.5h11.5v9.5H145.4z
		 M199,55.9c0,1.9-1.5,3.4-3.4,3.4h-33.4h-17.8h-12v-5.6h61.4V4.9h-81v25h-5.2V4.4c0-1.9,1.5-3.4,3.4-3.4h84.6
		c1.9,0,3.4,1.5,3.4,3.4L199,55.9L199,55.9z"/>
</g>
<g>
	<path fill="#FF0000" d="M8.7,61.4c-0.2,0-0.3-0.1-0.5-0.2C8,61,8,60.6,8.2,60.4l13.9-13.9c0.2-0.2,0.7-0.2,0.9,0s0.2,0.7,0,0.9
		L9.1,61.3C9,61.4,8.9,61.4,8.7,61.4z"/>
</g>
<g>
	<path fill="#FF0000" d="M22.6,61.4c-0.2,0-0.3-0.1-0.5-0.2L8.2,47.3c-0.3-0.2-0.3-0.7,0-0.9c0.2-0.2,0.7-0.2,0.9,0l13.9,13.9
		c0.3,0.2,0.3,0.7,0,0.9C22.9,61.4,22.8,61.4,22.6,61.4z"/>
</g>
<g>
	<path fill="#FF0000" d="M83.7,60.2c-0.2,0-0.3-0.1-0.5-0.2c-0.2-0.2-0.2-0.7,0-0.9l13.9-13.9c0.2-0.2,0.7-0.2,0.9,0
		c0.2,0.2,0.2,0.7,0,0.9L84.2,60C84.1,60.1,83.9,60.2,83.7,60.2z"/>
</g>
<g>
	<path fill="#FF0000" d="M97.7,60.2c-0.2,0-0.3-0.1-0.5-0.2L83.3,46.1c-0.3-0.2-0.3-0.7,0-0.9c0.2-0.2,0.7-0.2,0.9,0l13.9,13.9
		c0.3,0.2,0.3,0.7,0,0.9C98,60.1,97.8,60.2,97.7,60.2z"/>
</g>
<g>
	<path fill="#FF0000" d="M145.7,36.2c-0.2,0-0.3-0.1-0.5-0.2c-0.2-0.2-0.2-0.7,0-0.9l13.9-13.9c0.2-0.2,0.7-0.3,0.9,0
		c0.2,0.2,0.2,0.7,0,0.9l-13.9,13.9C146.1,36.2,145.9,36.2,145.7,36.2z"/>
</g>
<g>
	<path fill="#FF0000" d="M159.7,36.2c-0.2,0-0.3-0.1-0.5-0.2l-13.9-13.9c-0.2-0.2-0.2-0.7,0-0.9c0.2-0.3,0.7-0.3,0.9,0l13.9,13.9
		c0.2,0.2,0.2,0.7,0,0.9C160,36.2,159.8,36.2,159.7,36.2z"/>
</g>
</svg>
