<?xml version="1.0" encoding="utf-8"?>
<!-- Generator: Adobe Illustrator 27.9.0, SVG Export Plug-In . SVG Version: 6.00 Build 0)  -->
<svg version="1.2" baseProfile="tiny" id="Layer_1" xmlns="http://www.w3.org/2000/svg" xmlns:xlink="http://www.w3.org/1999/xlink"
	 x="0px" y="0px" viewBox="0 0 156 118" overflow="visible" xml:space="preserve">
<g>
	<path fill="#0077B6" d="M40,54.5h28.9c0.3,0,0.5-0.2,0.5-0.5s-0.2-0.5-0.5-0.5H40c-0.3,0-0.5,0.2-0.5,0.5S39.7,54.5,40,54.5z"/>
	<path fill="#0077B6" d="M40,62.8h28.9c0.3,0,0.5-0.2,0.5-0.5s-0.2-0.5-0.5-0.5H40c-0.3,0-0.5,0.2-0.5,0.5S39.7,62.8,40,62.8z"/>
	<path fill="#0077B6" d="M101.8,79.1c0.1,0.1,0.2,0.1,0.4,0.1s0.3,0,0.4-0.1c1.6-1.6,2.4-3.7,2.4-5.9s-0.9-4.3-2.4-5.9
		c-0.2-0.2-0.5-0.2-0.7,0s-0.2,0.5,0,0.7c1.4,1.4,2.1,3.2,2.1,5.2c0,2-0.8,3.8-2.1,5.2C101.6,78.6,101.6,78.9,101.8,79.1z"/>
	<path fill="#0077B6" d="M91.1,79.2c0.1,0,0.3,0,0.4-0.1c0.2-0.2,0.2-0.5,0-0.7c-2.9-2.9-2.9-7.5,0-10.4c0.2-0.2,0.2-0.5,0-0.7
		s-0.5-0.2-0.7,0c-3.2,3.2-3.2,8.5,0,11.8C90.8,79.2,90.9,79.2,91.1,79.2z"/>
	<path fill="#0077B6" d="M108.3,85.6c0.1,0.1,0.2,0.1,0.4,0.1s0.3,0,0.4-0.1c6.9-6.9,6.9-18,0-24.9c-0.2-0.2-0.5-0.2-0.7,0
		s-0.2,0.5,0,0.7c6.5,6.5,6.5,17,0,23.5C108.1,85.1,108.1,85.5,108.3,85.6z"/>
	<path fill="#0077B6" d="M114.9,92.2c0.1,0.1,0.2,0.1,0.4,0.1s0.3,0,0.4-0.1c10.5-10.5,10.5-27.5,0-38c-0.2-0.2-0.5-0.2-0.7,0
		s-0.2,0.5,0,0.7c10.1,10.1,10.1,26.5,0,36.6C114.7,91.7,114.7,92,114.9,92.2z"/>
	<path fill="#0077B6" d="M96.6,74.6c0.8,0,1.4-0.6,1.4-1.4s-0.6-1.4-1.4-1.4s-1.4,0.6-1.4,1.4S95.8,74.6,96.6,74.6z M96.6,72.8
		c0.2,0,0.4,0.2,0.4,0.4s-0.2,0.4-0.4,0.4c-0.2,0-0.4-0.2-0.4-0.4S96.4,72.8,96.6,72.8z"/>
	<path fill="#0077B6" d="M156,46.5c0-2.5-2-4.5-4.5-4.5h-11H140h-35.2l-1.5-8.1c-0.3-1.4-1.4-2.5-2.7-2.8c1.2-5.9,4.4-7.6,8.5-9.8
		c5.5-3,12.3-6.6,12.3-20.8V0h-7v0.5c0,10-3.6,12-8.7,14.7c-4.7,2.5-10.6,5.7-12.3,15.9h-0.3c-1.7,0-3.1,1.2-3.4,2.8L88.4,42H72.1
		H5.2C2.3,42,0,44.3,0,47.2v37.3c0,2.7,2.1,4.9,4.7,5.2c0,0,0,0,0,0c0,0,0,0,0,0c0.2,0,0.3,0,0.5,0h32.4v17.8
		c0,5.8,4.7,10.5,10.5,10.5h97.4c5.8,0,10.5-4.7,10.5-10.5V46.5z M106.3,16c4.8-2.6,9-4.9,9.2-15h5c-0.2,13.2-6.6,16.6-11.8,19.4
		c-4.1,2.2-7.7,4.2-9,10.6h-5.1C96.1,21.5,101.5,18.6,106.3,16z M90.8,34.1c0.2-1.2,1.2-2,2.4-2h0.2l6.6,0l0,0c1.1,0,2.1,0.9,2.3,2
		l1.5,7.9H89.4L90.8,34.1z M37.6,88.7H5.3c0.2-8.7,7.2-15.6,15.9-15.9c0.2,0,0.3,0,0.5,0c0.2,0,0.3,0,0.4,0
		c8.6,0.3,15.6,7.2,15.8,15.9H37.6z M21.1,71.8c-4.5-0.3-8.2-4-8.2-8.6c0-4.8,3.9-8.7,8.7-8.7c4.8,0,8.7,3.9,8.7,8.7
		c0,4.6-3.6,8.4-8.2,8.6c-0.2,0-0.3,0-0.5,0C21.4,71.8,21.3,71.8,21.1,71.8z M53.1,99.8c-0.3,0-0.5-0.2-0.5-0.5V89.2
		c0-0.3,0.2-0.5,0.5-0.5H42.4h-3.5c-0.2-8.1-6-14.9-13.7-16.5c3.6-1.4,6.1-4.9,6.1-9c0-5.3-4.3-9.7-9.7-9.7c-5.3,0-9.7,4.3-9.7,9.7
		c0,4.1,2.5,7.5,6.1,9c-7.7,1.6-13.5,8.3-13.8,16.4C2.4,88.2,1,86.5,1,84.5V47.2C1,44.9,2.9,43,5.2,43h66.9c2.3,0,4.2,1.9,4.2,4.2
		v4.9v3.6c0-0.1,0-0.3,0.1-0.4c0.4-0.4,0.7-0.8,1.1-1.2c0.2-0.2,0.5-0.2,0.7,0s0.2,0.5,0,0.7c-0.4,0.4-0.7,0.8-1.1,1.1
		c-0.1,0.1-0.2,0.2-0.4,0.2c-0.1,0-0.2,0-0.3-0.1c-0.1-0.1-0.2-0.2-0.2-0.3v28.7c0,2.3-1.9,4.2-4.2,4.2H53.6h-0.5
		c0.3,0,0.5,0.2,0.5,0.5v10.1C53.6,99.6,53.4,99.8,53.1,99.8z M78.3,92.2c-0.1,0.1-0.2,0.1-0.4,0.1s-0.3,0-0.4-0.1
		c-1.1-1.1-2.1-2.3-3.1-3.6c-0.2-0.2-0.1-0.5,0.1-0.7c0.2-0.2,0.5-0.1,0.7,0.1c0.9,1.2,1.9,2.4,2.9,3.5C78.5,91.7,78.5,92,78.3,92.2
		z M140,103.4H53.6v-3.6h28.1c2.9,0,5.2-2.3,5.2-5.2V57.4c0-2.8-2.4-5.2-5.2-5.2h-4.3v-4.9c0-1.7-0.9-3.3-2.2-4.2h13H105h35V103.4z
		 M84.9,84.9c0.2,0.2,0.2,0.5,0,0.7c-0.1,0.1-0.2,0.1-0.4,0.1s-0.3,0-0.4-0.1c-3.3-3.3-5.2-7.7-5.2-12.4c0-4.7,1.8-9.1,5.2-12.4
		c0.2-0.2,0.5-0.2,0.7,0s0.2,0.5,0,0.7c-3.1,3.1-4.9,7.3-4.9,11.7S81.7,81.8,84.9,84.9z"/>
</g>
</svg>
