<?xml version="1.0" encoding="UTF-8" standalone="no"?>
<svg version="1.1"
	 xmlns="http://www.w3.org/2000/svg" xmlns:xlink="http://www.w3.org/1999/xlink" x="0px" y="0px" width="512px" height="512px"
	 viewBox="0 0 512 512" enable-background="new 0 0 512 512" xml:space="preserve">
<g id="Layer_2">
	<linearGradient id="SVGID_1_" gradientUnits="userSpaceOnUse" x1="255.9995" y1="0" x2="255.9995" y2="512.0005">
		<stop  offset="0" style="stop-color:#DA4133"/>
		<stop  offset="1" style="stop-color:#B52127"/>
	</linearGradient>
	<path fill="url(#SVGID_1_)" d="M512,432c0,44.183-35.817,80-80,80H80c-44.183,0-80-35.817-80-80V80C0,35.817,35.817,0,80,0h352
		c44.183,0,80,35.817,80,80V432z"/>
</g>
<g id="Layer_3">
	<circle fill="#FFFFFF" cx="252.015" cy="396.428" r="42.12"/>
	<path fill="#FFFFFF" d="M295.792,114.428c0,24.177-19.6,208.816-43.777,208.816s-43.777-184.64-43.777-208.816
		s19.6-43.776,43.777-43.776S295.792,90.251,295.792,114.428z"/>
</g>
</svg>
