<?xml version="1.0" encoding="UTF-8" standalone="no"?>
<svg version="1.1" xmlns="http://www.w3.org/2000/svg" width="96" height="96" viewBox="0 0 840 840" >
  <g transform="translate(-235,-280) scale(1.2,1.2)" fill="#8e8e93">
    <path d="M 210 432 c0 -11 8 -26 18 -34 22 -18 293 -128 317 -128 24 0 295 110 318 128 9 8 17 23 17 34 0 17 -16 18 -335 18 -319 0 -335 -1 -335 -18 Z
             M 320 460 L 770 460 770 840 a 50 50 0 0 1 -50 50 L 370 890 a 50 50 0 0 1 -50 -50 Z
             M 546.5 505 a 168.33 168.33 0 0 0 0 336.66 a 168.33 168.33 0 0 0 0 -336.66 z
             M 546.5 564.58 a 108.75 108.75 0 0 1 0 217.5 a 108.75 108.75 0 0 1 0 -217.5 z
             M 530.875 470 h 31.25 v 410 h -31.25 z" />
  </g>
</svg>
