<?xml version="1.0" encoding="UTF-8" standalone="no"?>
<svg version="1.1" xmlns="http://www.w3.org/2000/svg" width="96px" height="96px" viewBox="0 0 840 840" >
  <path d="M95,250 c0,0 0,-100 100,-100 h450 c0,0 100,0 100,100 v300 c0,0 0,100 -100,100 h-450 c0,0 -100,0 -100,-100 Z
           M210,295 c0,0 0,20 20,20 h390 c0,0 20,0 20,-20 v-5 c0,0 0,-20 -20,-20 h-390 c0,0 -20,0 -20,20 Z
           M210,405 c0,0 0,20 20,20 h210 c0,0 20,0 20,-20 v-5 c0,0 0,-20 -20,-20 h-210 c0,0 -20,0 -20,20 Z
           M210,515 c0,0 0,20 20,20 h310 c0,0 20,0 20,-20 v-5 c0,0 0,-20 -20,-20 h-310 c0,0 -20,0 -20,20 Z"
        fill="#8e8e93" />
  <path d="M210,650 L410,650 L210,790 Z" fill="#8e8e93" />
</svg>
