<?xml version="1.0" encoding="UTF-8" standalone="no"?>
<svg xmlns="http://www.w3.org/2000/svg" xmlns:xlink="http://www.w3.org/1999/xlink" width="138" height="138" viewBox="-1 -1 34 34">
  <defs>
    <g id="gear" fill="#8e8e93">
      <path d="M183.5126953,183.3852539l-8.5625,8.5615234c-2.1396484,2.1386719-5.6181641,2.1396484-7.7597656,0.0009766
               l-3.1816406-3.1826172c-2.5058594,1.3637695-5.1445313,2.4555664-7.8857422,3.2636719v4.5029297
               c0,1.465332-0.5703125,2.84375-1.6064453,3.8798828s-2.4150391,1.6064453-3.8798828,1.6074219l-12.109375-0.0009766
               c-1.4648438,0-2.8427734-0.5703125-3.8789063-1.6064453c-1.0351563-1.0371094-1.6064453-2.4150391-1.6064453-3.8798828v-4.5048828
               c-2.7412109-0.8066406-5.3798828-1.8979492-7.8857422-3.2626953l-3.1816406,3.1826172
               c-2.140625,2.1396484-5.6210938,2.1401367-7.7597656,0.0009766l-8.5625-8.5625
               c-1.0351563-1.0351563-1.6064453-2.4140625-1.6064453-3.8789063c-0.0009766-1.4658203,0.5703125-2.84375,1.6064453-3.8798828
               l3.1835938-3.1831055c-1.3642578-2.5053711-2.4550781-5.1435547-3.2636719-7.8862305l-4.5039063,0.0009766
               c-3.0253906,0-5.4863281-2.4609375-5.4863281-5.4863281v-12.1083984c0-1.4648438,0.5703125-2.8432617,1.6064453-3.8798828
               c1.0361328-1.0361328,2.4140625-1.6064453,3.8798828-1.6074219l4.5029297,0.0009766
               c0.8085938-2.7421875,1.9003906-5.3808594,3.2646484-7.8867188l-3.1835938-3.1816406
               c-2.1386719-2.1391602-2.1386719-5.6201172,0-7.7587891l8.5625-8.5625c2.1396484-2.1391602,5.6201172-2.1386719,7.7597656,0
               l3.1816406,3.1821289c2.5058594-1.3637695,5.1445313-2.4545898,7.8857422-3.2636719v-4.503418
               c0-1.4648438,0.5703125-2.8427734,1.6064453-3.8779297c1.0361328-1.0366211,2.4140625-1.6079102,3.8798828-1.6083984
               l12.1083984,0.0009766c1.4658203-0.0009766,2.8427734,0.5693359,3.8798828,1.6064453
               c1.0361328,1.0361328,1.6064453,2.4140625,1.6064453,3.8789063v4.5039063
               c2.7402344,0.8076172,5.3789063,1.9003906,7.8857422,3.2641602l3.1816406-3.1831055
               c2.1396484-2.1386719,5.6201172-2.1386719,7.7597656-0.0009766l8.5615234,8.5634766
               c1.0361328,1.0351563,1.6074219,2.4130859,1.6074219,3.8793945s-0.5693359,2.8427734-1.6064453,3.878418l-3.1826172,3.1835938
               c1.3642578,2.5058594,2.4560547,5.1435547,3.2636719,7.8847656l4.5029297,0.0009766
               c3.0253906-0.0004883,5.4863281,2.4619141,5.4863281,5.4858398l0.0009766,12.1088867
               c0,1.465332-0.5703125,2.8427734-1.6074219,3.8793945c-1.0361328,1.0366211-2.4130859,1.6069336-3.8789063,1.6064453
               l-4.5039063,0.0004883c-0.8085938,2.7412109-1.9003906,5.3779297-3.2636719,7.8857422l3.1826172,3.1826172
               C185.6513672,177.7651367,185.6503906,181.2460938,183.5126953,183.3852539z M168.4873047,183.4428711l6.5200195-6.5200195
               l-5.4921875-5.4916992l1.2353516-1.9614258c1.859375-2.9506836,3.1923828-6.1743164,3.965332-9.5825195l0.5126953-2.2592773
               L183,157.6274414l0.0004883-9.2202148l-7.7700195,0.0004883l-0.5141602-2.2612305
               c-0.7734375-3.4086914-2.1074219-6.6333008-3.9648438-9.5820313l-1.2353516-1.9604492l5.4912109-5.4921875l-6.5200195-6.5200195
               l-5.4916992,5.4921875l-1.9609375-1.2348633c-2.949707-1.8579102-6.1748047-3.1933594-9.5820313-3.9658203l-2.2597656-0.5136719
               v-7.7700195l-9.2207031-0.0004883v7.7705078l-2.2607422,0.5131836c-3.409668,0.7734375-6.6337891,2.1083984-9.5820313,3.965332
               l-1.9609375,1.2353516l-5.4916992-5.4921875l-6.5200195,6.5205078l5.4926758,5.4921875l-1.2358398,1.9609375
               c-1.8574219,2.9477539-3.1914063,6.1713867-3.9648438,9.5810547l-0.5131836,2.2617188l-7.7714844-0.0009766v9.2211914
               l7.7714844-0.0004883l0.5131836,2.2602539c0.7744141,3.4101563,2.1074219,6.6337891,3.9648438,9.581543l1.2348633,1.9619141
               l-5.4926758,5.4912109l6.5209961,6.5205078l5.4916992-5.4921875l1.9619141,1.2353516
               c2.9492188,1.8569336,6.1723633,3.1914063,9.5800781,3.965332l2.2617188,0.5126953v7.7714844l9.2207031-0.0004883v-7.7705078
               l2.2607422-0.512207c3.4086914-0.7744141,6.6318359-2.1083984,9.5810547-3.9663086l1.9609375-1.2353516L168.4873047,183.4428711z" />
      <path d="M160.6000977,136.9990234c-8.8334961-8.8320313-23.2026367-8.8320313-32.0351563,0.0009766
               c-8.8325195,8.831543-8.8325195,23.2026367,0,32.0341797c8.8325195,8.8325195,23.2026367,8.8330078,32.034668,0.0004883
               C169.4316406,160.2026367,169.4326172,145.831543,160.6000977,136.9990234z M144.4072266,166.7856445
               c-7.5419922,0-13.6557617-6.112793-13.6557617-13.6542969c0-7.5424805,6.1137695-13.6552734,13.6557617-13.6552734
               c7.5424805,0,13.6552734,6.112793,13.6552734,13.6552734C158.0625,160.6728516,151.949707,166.7856445,144.4072266,166.7856445z" />
    </g>
  </defs>
  <path d="M 22.507,0 9.175,0 C 7.9,0 6.87,1.034 6.87,2.309 l 0,27.07 c 0,1.271 1.03,2.306 2.305,2.306 l 13.332,0 c 1.273,0 2.307,-1.034 2.307,-2.306 l 0,-27.07 C 24.813,1.034 23.78,0 22.507,0 Z
           m 0.578,25.672 -14.486,0 0,-21.777 14.486,0 0,21.777 z
           m -4.153,-23.329 -6.181,0 0,-0.674 6.182,0 -0.001,0.674 0,0 z
           m 2.645,-0.308 c 0,0.326 -0.266,0.59 -0.591,0.59 -0.326,0 -0.591,-0.265 -0.591,-0.59 0,-0.325 0.265,-0.59 0.591,-0.59 0.326,-0.001 0.591,0.264 0.591,0.59 z
           m -2.922,27.19 -5.629,0 0,-1.732 5.629,0 0,1.732 z"
        style="fill: #8e8e93;" />
  <use xlink:href="#gear" x="-18" y="-50" transform="scale(0.125,0.125)"/>
</svg>
