<?xml version="1.0" encoding="UTF-8" standalone="no"?>
<svg version="1.1" xmlns="http://www.w3.org/2000/svg" width="96" height="96" viewBox="-1 -1 34 34">
  <path d="M 22.507,0 9.175,0 C 7.9,0 6.87,1.034 6.87,2.309 l 0,27.07 c 0,1.271 1.03,2.306 2.305,2.306 l 13.332,0 c 1.273,0 2.307,-1.034 2.307,-2.306 l 0,-27.07 C 24.813,1.034 23.78,0 22.507,0 Z
           m 0.578,25.672 -14.486,0 0,-21.777 14.486,0 0,21.777 z
           m -4.153,-23.329 -6.181,0 0,-0.674 6.182,0 -0.001,0.674 0,0 z
           m 2.645,-0.308 c 0,0.326 -0.266,0.59 -0.591,0.59 -0.326,0 -0.591,-0.265 -0.591,-0.59 0,-0.325 0.265,-0.59 0.591,-0.59 0.326,-0.001 0.591,0.264 0.591,0.59 z
           m -2.922,27.19 -5.629,0 0,-1.732 5.629,0 0,1.732 z"
        style="fill: #8e8e93;" />
</svg>
