<svg xmlns="http://www.w3.org/2000/svg" xmlns:xlink="http://www.w3.org/1999/xlink" width="86" height="83" viewBox="0 0 86 83">
    <defs>
        <path id="a" d="M.226 1H86v81.88H.226z"/>
        <path id="c" d="M.226 1H86v81.88H.226z"/>
    </defs>
    <g fill="none" fill-rule="evenodd">
        <mask id="b" fill="#fff">
            <use xlink:href="#a"/>
        </mask>
        <path fill="#164a8c" d="M56.753 45.001c-6.036-.23-12.078-.374-18.116-.635 6.044.07 12.083.281 18.116.635m-1.95-28.29c-.853.704-1.71 1.403-2.573 2.095a231.86 231.86 0 0 1-11.269 8.463c-.521.368-.022 1.236.505.863a234.455 234.455 0 0 0 14.045-10.714c.931-.771 2.197-1.465 1.592-2.807-.392-.87-1.689-1.801-2.341-2.469a403156.945 403156.945 0 0 1-3.101-3.175l-.026-.026a12.58 12.58 0 0 0-.114-.116c-.008-.008-.017-.01-.024-.016-2.582-2.462-5.25-5.363-8.254-7.283-2.152-1.375-3.763.228-5.547 1.577A319.35 319.35 0 0 0 8.577 28.008a313.493 313.493 0 0 0-4.683 4.615c-1.079 1.085-2.676 2.244-3.35 3.647-1.34 2.786 1.887 5.221 3.464 7.096 2.875 3.418 5.477 7.055 7.977 10.752 2.614 3.867 5.113 7.81 7.699 11.695 2.518 3.781 4.159 7.895 6.356 11.848a.43.43 0 0 0 .386.237.44.44 0 0 0 .146.382c1.421 1.35 3.605 3.759 5.52 4.442 1.175.419 1.464-.031 2.386-.91 4.032-3.85 8.013-7.754 12.017-11.634.237.035.469.081.706.112.303.04.455-.166.47-.401.191-.173.287-.489.082-.749A208.517 208.517 0 0 1 31.43 44.98c16.966 1.102 33.999.543 50.85 3.182.452.117.885.189 1.286.197h.007c.097.002.199.014.29.007a.52.52 0 0 0 .483-.367c.651-1.944.538-4.493.753-6.54.3-2.862.679-5.739.87-8.612.068-1.039.116-1.57-.885-1.926-1.36-.484-3.613-.021-5.071-.019-.644.001-.645 1.001 0 1 1.078-.002-1.763 2.738-.827 3.225 1.275.664-.674 2.397-.813 3.75-.227 2.231.538 3.259.295 5.489-.052.478-1.055-1.279-1.107-.802-.362.536 1.363 2.975.812 2.563-1.061-.078 1.483.091.459-.212-.017-.005-.029-.001-.044-.004.456-4.613.762-9.234.911-13.868.009-.283-.237-.481-.5-.5l-39.466-2.69" mask="url(#b)" transform="matrix(-1 0 0 1 86.226 0)"/>
        <path fill="#FFF" d="M15.637 44.366c6.044.07 12.083.281 18.116.635-6.036-.23-12.078-.374-18.116-.635zm16.166-27.655c-.853.704-1.71 1.403-2.573 2.095a231.86 231.86 0 0 1-11.27 8.463c-.52.368-.021 1.236.506.863A234.455 234.455 0 0 0 32.51 17.418c.93-.771 2.197-1.465 1.592-2.807-.392-.87-1.69-1.801-2.341-2.469-1.033-1.057-1.115-.086-2.147-1.142l-.954-2.033C28.65 8.959 6.233 29.006 6.226 29c-.728-.694 15.93.32 49.973 3.043l-.826 13.81L.226 44.98 15.636 67C6.64 73.028 2.44 76.582 3.04 77.661a.43.43 0 0 0 .386.237c-.015.128-.51-2.016-.386-1.898 1.42 1.35 4.137 6.039 6.052 6.722 1.175.419 1.464-.031 2.386-.91 4.032-3.85 8.013-7.754 12.017-11.634.237.035.469.081.706.112.303.04.455-.166.47-.401.19-.173.287-.489.082-.749A208.517 208.517 0 0 1 8.43 44.98c16.966 1.102 33.999.543 50.85 3.182.452.117.885.189 1.286.197.104.002.206.014.297.007a.52.52 0 0 0 .483-.367c.65-1.944.538-4.493.753-6.54.3-2.862.679-5.739.87-8.612.068-1.039.116-1.57-.885-1.926-1.36-.484-3.613-.021-5.071-.019-.644.001-.645 1.001 0 1 1.078-.002-1.763 2.738-.827 3.225 1.275.664-.674 2.397-.813 3.75-.227 2.231.538 3.259.295 5.489-.052.478-1.055-1.279-1.107-.802-.362.536 1.363 2.975.812 2.563-1.061-.078 1.483.091.459-.212.412-4.617.718-9.238.867-13.872.009-.283-.237-.481-.5-.5l-39.466-2.69" mask="url(#b)" transform="matrix(-1 0 0 1 63.226 0)"/>
        <mask id="d" fill="#fff">
            <use xlink:href="#c"/>
        </mask>
        <path fill="#000" stroke="#000" d="M30.519 45.405a209.977 209.977 0 0 0 15.854 23.55.523.523 0 0 0-.155.097l-.068.067a34.418 34.418 0 0 1-6.64-1.787c-.22-.084-.392-.006-.496.135.119-.675-.191-1.435-.997-2.514-2.515-3.369-5.556-6.303-7.968-9.755-2.316-3.315-4.1-6.932-5.44-10.739.51-.013 1.02-.017 1.532-.028a.5.5 0 0 0 .35.181c1.344.116 2.689.217 4.035.31a.446.446 0 0 0-.007.483m6.363 32.687c-.843.816-3.023 3.745-4.286 3.766-.64.011-2.2-1.567-2.71-1.977a42.258 42.258 0 0 1-2.606-2.308.467.467 0 0 0-.321-.133.483.483 0 0 0-.02-.17c3.412-2.545 6.827-5.087 10.235-7.636.925-.692 1.5-1.25 1.739-1.847a.506.506 0 0 0 .332.51c1.966.747 3.965 1.3 6.016 1.682l-8.38 8.113m19.872-33.09c-6.036-.232-12.078-.375-18.116-.636 6.044.07 12.083.28 18.116.635M13.858 55.117c-2.276-3.416-4.621-6.79-7.16-10.019-1.297-1.648-2.691-3.203-4.045-4.802-2.788-3.289 1.37-6.405 3.609-8.625a317.93 317.93 0 0 1 31.94-27.704c1.96-1.484 3.296-2.625 5.49-.817 1.708 1.407 3.354 2.902 4.985 4.397 1.21 1.11 2.118 1.363 1.006 2.74-.751.93-1.733 1.758-2.584 2.594a165.248 165.248 0 0 1-5.34 5.015 169.21 169.21 0 0 1-12.682 10.315c-.4.294-.266.896.252.932l29.922 2.04 13.964.952c1.263.086 2.762-.025 3.99.272.676-.188 1.165.01 1.463.593a193.687 193.687 0 0 1-.487 8.594c-.053.665.108 3.367-.338 3.812-.644.644-1.772.204-2.548.12a375.753 375.753 0 0 0-21.709-1.724 384.29 384.29 0 0 0-29.691-.33c-.308.008-.59.315-.482.633 2.05 6.085 5.295 11.4 9.458 16.265 1.087 1.27 2.204 2.517 3.26 3.814.747.914 2.387 2.335 1.659 3.721-.272.518-2.075 1.577-2.622 1.985l-8.684 6.481c-1.831-3.445-3.264-7.05-5.438-10.317-2.417-3.632-4.77-7.307-7.188-10.937m71.226-24.196c-1.36-.485-3.613-.02-5.071-.019-.643.001-.644 1.001 0 1 1.078-.002 3.479-.486 4.414.001 1.276.664.109 5.334-.03 6.687-.23 2.231-.464 4.462-.706 6.693l-.156 1.434c-.362.535-.818.596-1.368.184-1.061-.078-2.311-.684-3.335-.986-.016-.005-.03 0-.043-.004.456-4.613.76-9.235.91-13.868.009-.284-.237-.482-.5-.5l-48.505-3.307a171.942 171.942 0 0 0 20.62-18.209c1.363 1.318 2.968 2.64 4.037 4.15.923 1.301.668 1.53-.548 2.534-.852.704-1.71 1.403-2.573 2.094a231.214 231.214 0 0 1-11.27 8.463c-.52.368-.021 1.237.506.864A234.135 234.135 0 0 0 55.51 17.418c.932-.77 2.197-1.465 1.592-2.807-.392-.87-1.688-1.802-2.341-2.47a4629.58 4629.58 0 0 1-3.097-3.17l-.003-.004a.65.65 0 0 1-.027-.026l-.114-.116c-.008-.008-.017-.01-.023-.017-2.583-2.462-5.25-5.362-8.254-7.282-2.153-1.375-3.764.228-5.547 1.576A318.136 318.136 0 0 0 3.894 32.623c-1.078 1.085-2.676 2.244-3.35 3.646-1.34 2.786 1.887 5.222 3.464 7.097 2.875 3.418 5.478 7.055 7.978 10.752 2.613 3.867 5.112 7.81 7.698 11.694 2.519 3.781 4.159 7.896 6.356 11.85.094.17.239.233.386.236a.445.445 0 0 0 .147.382c1.42 1.35 3.604 3.76 5.519 4.441 1.175.42 1.464-.03 2.386-.91 4.032-3.849 8.014-7.754 12.018-11.634.236.036.468.082.706.113.302.04.455-.166.469-.402.192-.172.287-.488.082-.749A208.432 208.432 0 0 1 31.43 44.98c16.966 1.103 33.999.544 50.85 3.183.453.117.885.188 1.287.197h.007c.096.002.198.014.29.007a.523.523 0 0 0 .482-.367c.652-1.945.538-4.493.753-6.54.3-2.863.68-5.74.87-8.613.069-1.039.116-1.569-.885-1.925" mask="url(#d)" transform="matrix(-1 0 0 1 86.226 0)"/>
    </g>
</svg>
