<?xml version="1.0" encoding="UTF-8" standalone="no"?>
<svg xmlns="http://www.w3.org/2000/svg" xmlns:xlink="http://www.w3.org/1999/xlink" width="38px" height="37px" viewBox="0 0 38 37">
  <defs>
    <path id="a" d="M0 .049h35.78v20.336H0z"/>
  </defs>
  <g fill="none" fill-rule="evenodd">
    <g transform="matrix(0 1 1 0 -.115 .5)">
      <mask id="b" fill="#fff">
        <use xlink:href="#a"/>
      </mask>
      <path fill="#000" d="M.313 4.688l15.094 13.288a.182.182 0 0 0 .06.19l2.261 2.046c.027.087.115.16.215.165.116.034.235-.042.274-.143 5.519-4.44 11.16-8.79 17.395-12.187a.18.18 0 0 0 .082-.052c.105-.073.105-.194.046-.283-.008-.014-.02-.025-.032-.038-.004-.004-.007-.01-.012-.014-.008-.007-.012-.016-.021-.023a8.476 8.476 0 0 1-2.103-2.295c-.072-.115-.197-.121-.29-.072a23.893 23.893 0 0 1-4.496-4.066.25.25 0 0 0-.087-.074.146.146 0 0 0-.047-.013.203.203 0 0 0-.193.049c-3.919 3.559-7.983 6.945-12.32 9.982A134.23 134.23 0 0 0 5.118.106C4.966-.03 4.762.1 4.746.251A64.407 64.407 0 0 0 .07 4.009c-.21.185.098.49.307.307" mask="url(#b)"/>
    </g>
    <g transform="matrix(0 1 1 0 -.115 .5)">
      <mask id="d" fill="#fff">
        <use xlink:href="#a"/>
      </mask>
      <path fill="#000" d="M16.217 18.109c6.403-3.003 10.784-8.993 17.14-12.074a.183.183 0 0 0 .096-.105 9.022 9.022 0 0 0 1.733 1.86c-6.154 3.383-11.736 7.683-17.197 12.074l-1.927-1.744c.047.014.1.015.155-.011M35.74 7.712c-.007-.014-.02-.025-.03-.038l-.013-.014c-.008-.007-.012-.016-.021-.024a8.476 8.476 0 0 1-2.103-2.295c-.072-.114-.197-.12-.29-.071a23.863 23.863 0 0 1-4.496-4.066.26.26 0 0 0-.087-.074c-.016-.008-.031-.01-.047-.014a.204.204 0 0 0-.193.05c-3.919 3.559-7.983 6.945-12.32 9.982A134.23 134.23 0 0 0 5.118.106C4.967-.03 4.762.099 4.746.25A64.641 64.641 0 0 0 .07 4.01c-.21.185.098.49.307.306A63.639 63.639 0 0 1 5.008.592 134.296 134.296 0 0 1 15.954 11.59c.008.009.018.012.026.02a.297.297 0 0 0 .023.017c.013.007.025.016.038.02.017.008.036.01.056.01l.013.002a.185.185 0 0 0 .067-.018l.007-.003c.011-.005.022-.007.033-.014 4.357-3.038 8.438-6.428 12.372-9.992a24.341 24.341 0 0 0 4.517 4.046c-6.338 3.086-10.717 9.06-17.108 12.058a.18.18 0 0 0-.096.1C10.808 13.35 5.714 8.865.62 4.382c-.21-.184-.517.121-.307.306l15.094 13.288a.183.183 0 0 0 .06.19l2.261 2.046c.027.087.115.16.215.165.116.035.235-.042.274-.144 5.519-4.439 11.16-8.788 17.395-12.186a.188.188 0 0 0 .082-.051c.105-.073.104-.196.045-.284" mask="url(#d)"/>
    </g>
    <path fill="#FFF" d="M17.994 16.717C14.991 23.12 9.001 27.501 5.92 33.857a.183.183 0 0 1-.105.096 9.022 9.022 0 0 1 1.86 1.733c3.383-6.154 7.683-11.736 12.074-17.197l-1.743-1.927c.013.047.014.1-.012.155"/>
    <g>
      <g transform="matrix(0 1 1 0 17.385 .5)">
        <mask id="f" fill="#fff">
          <use xlink:href="#a"/>
        </mask>
        <path fill="#000" d="M.313 4.688l15.094 13.288a.182.182 0 0 0 .06.19l2.261 2.046c.027.087.115.16.215.165.116.034.235-.042.274-.143 5.519-4.44 11.16-8.79 17.395-12.187a.18.18 0 0 0 .082-.052c.105-.073.105-.194.046-.283-.008-.014-.02-.025-.032-.038-.004-.004-.007-.01-.012-.014-.008-.007-.012-.016-.021-.023a8.476 8.476 0 0 1-2.103-2.295c-.072-.115-.197-.121-.29-.072a23.893 23.893 0 0 1-4.496-4.066.25.25 0 0 0-.087-.074.146.146 0 0 0-.047-.013.203.203 0 0 0-.193.049c-3.919 3.559-7.983 6.945-12.32 9.982A134.23 134.23 0 0 0 5.118.106C4.966-.03 4.762.1 4.746.251A64.407 64.407 0 0 0 .07 4.009c-.21.185.098.49.307.307" mask="url(#f)"/>
      </g>
      <g transform="matrix(0 1 1 0 17.385 .5)">
        <mask id="h" fill="#fff">
          <use xlink:href="#a"/>
        </mask>
        <path fill="#000" d="M16.217 18.109c6.403-3.003 10.784-8.993 17.14-12.074a.183.183 0 0 0 .096-.105 9.022 9.022 0 0 0 1.733 1.86c-6.154 3.383-11.736 7.683-17.197 12.074l-1.927-1.744c.047.014.1.015.155-.011M35.74 7.712c-.007-.014-.02-.025-.03-.038l-.013-.014c-.008-.007-.012-.016-.021-.024a8.476 8.476 0 0 1-2.103-2.295c-.072-.114-.197-.12-.29-.071a23.863 23.863 0 0 1-4.496-4.066.26.26 0 0 0-.087-.074c-.016-.008-.031-.01-.047-.014a.204.204 0 0 0-.193.05c-3.919 3.559-7.983 6.945-12.32 9.982A134.23 134.23 0 0 0 5.118.106C4.967-.03 4.762.099 4.746.25A64.641 64.641 0 0 0 .07 4.01c-.21.185.098.49.307.306A63.639 63.639 0 0 1 5.008.592 134.296 134.296 0 0 1 15.954 11.59c.008.009.018.012.026.02a.297.297 0 0 0 .023.017c.013.007.025.016.038.02.017.008.036.01.056.01l.013.002a.185.185 0 0 0 .067-.018l.007-.003c.011-.005.022-.007.033-.014 4.357-3.038 8.438-6.428 12.372-9.992a24.341 24.341 0 0 0 4.517 4.046c-6.338 3.086-10.717 9.06-17.108 12.058a.18.18 0 0 0-.096.1C10.808 13.35 5.714 8.865.62 4.382c-.21-.184-.517.121-.307.306l15.094 13.288a.183.183 0 0 0 .06.19l2.261 2.046c.027.087.115.16.215.165.116.035.235-.042.274-.144 5.519-4.439 11.16-8.788 17.395-12.186a.188.188 0 0 0 .082-.051c.105-.073.104-.196.045-.284" mask="url(#h)"/>
      </g>
      <path fill="#FFF" d="M35.494 16.717c-3.003 6.403-8.993 10.784-12.074 17.14a.183.183 0 0 1-.105.096 9.022 9.022 0 0 1 1.86 1.733c3.383-6.154 7.683-11.736 12.074-17.197l-1.743-1.927c.013.047.014.1-.012.155"/>
    </g>
  </g>
</svg>
