<?xml version="1.0" encoding="UTF-8" standalone="no"?>
<svg xmlns="http://www.w3.org/2000/svg" xmlns:xlink="http://www.w3.org/1999/xlink" width="70px" height="70px" viewBox="0 0 70 70">
  <defs>
    <path id="a" d="M0 .038h35.288v65.51H0z"/>
    <path id="c" d="M0 .038h35.288v65.51H0z"/>
  </defs>
  <g fill="none" fill-rule="evenodd">
    <path fill="#FFF" d="M36.513 16.118c0-.09.028-.162.065-.224a49.278 49.278 0 0 0-.726-.869 221.87 221.87 0 0 0-.382 11.658c.372-.376.761-.73 1.16-1.073a.434.434 0 0 1-.07-.224 301.66 301.66 0 0 1-.047-9.268M33.114 40.062c-.741 4.774-1.478 9.548-2.212 14.322l.906-.837c-.006-.037-.018-.071-.014-.116.337-4.17 1.523-8.226 1.432-12.431a.403.403 0 0 1 .119-.307c-.08-.21-.158-.42-.231-.63"/>
    <g transform="translate(17 2.415)">
      <mask id="b" fill="#fff">
        <use xlink:href="#a"/>
      </mask>
      <path fill="#FFF" d="M25.067 20.843a19.15 19.15 0 0 0-6.74 4.897c-.265.3-.772.055-.772-.32.006-4.613.156-9.223.45-13.827.03-.473.632-.554.834-.253.077.016.153.05.221.128a49.406 49.406 0 0 1 6.169 8.757c.107.193.065.519-.162.618M18.783 48.69l-5.202 4.808c-.354.327-.822-.007-.755-.44.896-5.842 1.798-11.683 2.705-17.524l.002-.012.006-.04c.04-.26.242-.345.44-.314.188-.01.374.078.432.315.435 1.77 1.154 3.467 2.003 5.076.414.785.863 1.556 1.378 2.279.435.611 1.108 1.179 1.385 1.888.655 1.678-1.363 3.01-2.394 3.964m16.49-23.66a.41.41 0 0 0-.13-.339c-1.157-1.143-2.028-2.535-3.185-3.677a.42.42 0 0 0-.243-.119c-1.711-3.557-4.561-6.49-6.877-9.654A142.215 142.215 0 0 1 17.57.258c-.17-.285-.615-.302-.78 0-2.297 4.189-2.246 8.865-2.394 13.517L12.264 7.94a.443.443 0 0 0-.179-.22.442.442 0 0 0-.31-.152L8.804 7.35c-.124-.166-.341-.265-.576-.142a40.61 40.61 0 0 0-3.591 2.097c-.697.459-1.64.912-1.574 1.879.045.645.408 1.297.633 1.894l.79 2.096 1.66 4.402 1.58 4.192c.27.715.75 1.551.87 2.305.154.969-.689 1.408-1.33 1.957L.133 34.125c-.136.116-.184.399-.07.548a25.705 25.705 0 0 1 3.144 5.38c.044.102.151.174.27.207l2.705 1.994c.146.108.434.072.548-.07a31.067 31.067 0 0 1 4.067-4.165c-.17 1.197-.318 2.397-.468 3.598a93.958 93.958 0 0 1-1.586 9.022c-.638 2.82-1.375 5.618-2.122 8.412-.521 1.955-.81 3.958-1.312 5.916-.092.358.326.742.664.51 2.274-1.56 4.489-3.202 6.681-4.872.007-.005.013-.005.019-.01 2.928-2.394 6.449-3.962 9.722-5.804 4.073-2.292 7.887-4.98 12.312-6.588.015-.005.031-.008.047-.015.232-.073.32-.323.265-.541a.446.446 0 0 0-.018-.058.469.469 0 0 0-.078-.147c-3.836-4.667-7.499-9.385-9.808-15.01a34.525 34.525 0 0 1 9.942-6.957.363.363 0 0 0 .216-.445" mask="url(#b)"/>
    </g>
    <path fill="#000" d="M36.365 46.187c.138.178.282.349.424.522.691.844.623 1.563-.097 2.316-.688.719-1.468 1.365-2.2 2.04l-1.722 1.593c.356-3.409 1.193-6.746 1.34-10.168a20.735 20.735 0 0 0 2.255 3.697m-3.02-5.494a.403.403 0 0 0-.12.307c.092 4.205-1.094 8.261-1.431 12.431-.004.045.007.079.014.116-.301.28-.603.558-.905.837.733-4.774 1.47-9.548 2.211-14.322.073.211.151.421.23.631m-2.763 15.218l5.202-4.807c1.03-.954 3.049-2.286 2.394-3.965-.277-.709-.95-1.276-1.385-1.887a20.312 20.312 0 0 1-1.378-2.279c-.849-1.61-1.567-3.307-2.003-5.077-.058-.236-.244-.325-.43-.315-.2-.03-.401.055-.442.315l-.006.04c0 .004 0 .008-.002.012-.906 5.84-1.808 11.681-2.705 17.524-.067.432.4.767.755.44M36.578 15.894a.43.43 0 0 0-.066.224c-.031 3.09-.015 6.179.049 9.268.002.09.03.161.069.224-.4.343-.788.697-1.16 1.073.025-3.889.152-7.776.382-11.658.245.287.488.577.726.87m.837 1.054a48.495 48.495 0 0 1 3.789 5.718 19.733 19.733 0 0 0-3.745 2.268c-.05-2.662-.064-5.323-.044-7.986m-2.088 11.206a19.153 19.153 0 0 1 6.74-4.897c.227-.1.268-.425.162-.619a49.401 49.401 0 0 0-6.17-8.756.392.392 0 0 0-.22-.129c-.202-.3-.804-.22-.834.253a221.856 221.856 0 0 0-.45 13.828c0 .374.507.62.772.32"/>
    <g transform="translate(17 2.415)">
      <mask id="d" fill="#fff">
        <use xlink:href="#c"/>
      </mask>
      <path fill="#000" d="M21.94 54.01c-.85.478-1.712.938-2.575 1.399 3.206-2.495 6.432-4.965 9.78-7.269 1.118-.059 2.231-.039 3.345-.002-3.688 1.637-7.026 3.889-10.55 5.872M7.438 59.5c.765-2.863 1.523-5.73 2.177-8.621a90.905 90.905 0 0 0 1.483-8.202c.243-1.845.453-3.694.741-5.53a.34.34 0 0 0 .061-.38 41.96 41.96 0 0 1 .65-3.244c.086-.346-.328-.763-.663-.51-2.706 2.039-5.41 4.079-8.116 6.12a25.714 25.714 0 0 0-2.71-4.614l6.503-5.559c.665-.568 1.932-1.273 2.056-2.24.076-.588-.27-1.194-.47-1.724l-.869-2.306-3.161-8.384-.79-2.096c-.085-.224-.395-.697-.344-.944.098-.477.728-.93 1.106-1.18a39.924 39.924 0 0 1 2.82-1.685 168.153 168.153 0 0 0 5.654 13.401c.17.359.734.249.827-.107 1.72-6.609-.187-14.02 2.822-20.286a141.825 141.825 0 0 0 6.843 10.287c2.382 3.257 5.328 6.271 7.018 9.967l-7.71 5.574c-1.211.875-2.536 1.687-3.667 2.663-.814.702-.958 1.598-.563 2.576.507 1.257 1.558 2.356 2.33 3.457a100.818 100.818 0 0 1 7.006 11.58c-7.552 5.221-14.498 11.26-22.019 16.522.33-1.51.586-3.038.985-4.534M6.34 41.253l-1.966-1.45 7.03-5.301c-.153.723-.285 1.45-.403 2.178a31.068 31.068 0 0 0-4.66 4.573m7.905-25.262c.012.033.034.054.05.08-.085 1.384-.224 2.757-.487 4.107A165.379 165.379 0 0 1 8.821 8.256l2.67.195 2.755 7.54m10.24 15.794c-.008-.002-.012-.006-.02-.008a180.123 180.123 0 0 1-4.407-.861c.048-.08.104-.159.173-.236.284-.323.685-.562 1.03-.811l3.474-2.512 7.113-5.142c.786.88 1.472 1.848 2.272 2.716a35.192 35.192 0 0 0-9.636 6.854m4.86 15.445a102.927 102.927 0 0 0-8.312-13.448c-.328-.45-.693-.892-.943-1.39a2.118 2.118 0 0 1-.201-.59c1.42.294 2.843.573 4.269.834a.497.497 0 0 0 .122.12c2.237 5.418 5.669 10.01 9.344 14.517-1.427-.054-2.85-.106-4.28-.043m5.93-22.2a.41.41 0 0 0-.131-.34c-1.157-1.142-2.028-2.535-3.185-3.677a.417.417 0 0 0-.243-.119c-1.711-3.557-4.561-6.49-6.877-9.654A142.215 142.215 0 0 1 17.57.258c-.17-.285-.615-.302-.78 0-2.297 4.188-2.246 8.865-2.394 13.517L12.264 7.94a.441.441 0 0 0-.179-.22.442.442 0 0 0-.31-.152L8.804 7.35c-.124-.166-.341-.265-.576-.142a40.717 40.717 0 0 0-3.591 2.097c-.697.459-1.64.912-1.574 1.879.045.645.408 1.297.633 1.894l.79 2.097 1.66 4.4 1.58 4.193c.27.715.75 1.552.87 2.305.154.969-.689 1.408-1.33 1.957-2.378 2.03-4.754 4.062-7.131 6.094-.136.116-.184.399-.07.548a25.705 25.705 0 0 1 3.144 5.38c.044.102.151.174.27.207l2.705 1.994c.146.107.434.072.548-.07a31.067 31.067 0 0 1 4.067-4.165c-.17 1.197-.318 2.397-.468 3.598a93.983 93.983 0 0 1-1.586 9.022c-.638 2.82-1.375 5.618-2.122 8.412-.521 1.955-.81 3.958-1.312 5.916-.092.358.326.742.664.51 2.274-1.56 4.489-3.201 6.681-4.872.007-.005.013-.005.019-.01 2.928-2.394 6.449-3.962 9.722-5.804 4.073-2.292 7.887-4.98 12.312-6.587.015-.006.031-.009.047-.016.232-.073.32-.323.265-.54a.446.446 0 0 0-.018-.059.464.464 0 0 0-.078-.147c-3.836-4.667-7.499-9.385-9.808-15.01a34.525 34.525 0 0 1 9.942-6.957.363.363 0 0 0 .216-.445" mask="url(#d)"/>
    </g>
  </g>
</svg>
