<?xml version="1.0" encoding="UTF-8" standalone="no"?>
<svg xmlns="http://www.w3.org/2000/svg" xmlns:xlink="http://www.w3.org/1999/xlink" width="160px" height="165px" viewBox="0 0 160 165">
  <defs>
    <rect id="a" width="113" height="140" x="8" y="10" rx="9"/>
    <path id="b" d="M98 84h48v60l-24-19-24 19z"/>
  </defs>
  <g fill="none" fill-rule="evenodd">
    <use fill="#FFF" xlink:href="#a"/>
    <rect width="110" height="137" x="9.5" y="11.5" stroke="#000" stroke-width="3" rx="9"/>
    <g stroke="#000" stroke-linecap="round" stroke-width="4">
      <path d="M23 30h69M23 54h49M23 103h49M23 78h49M23 126h69"/>
    </g>
    <use fill="#FFF68B" xlink:href="#b"/>
    <path stroke="#000" stroke-width="3" d="M99.5 85.5v55.4l22.5-17.813 22.5 17.812V85.5h-45z"/>
    <circle cx="120.5" cy="73.5" r="35.5" fill="#FFF68B" stroke="#000" stroke-width="3"/>
    <path fill="#000" d="M104.079 81.362h.397c1.229 0 1.697-.595 1.697-2.781 0-2.183-.468-2.739-1.697-2.739h-.397c-.145 0-.217.081-.217.24v5.04c0 .162.072.24.217.24zm.397-10.76c1.156 0 1.517-.637 1.517-2.503s-.361-2.46-1.517-2.46h-.397c-.145 0-.217.077-.217.235v4.488c0 .159.072.24.217.24h.397zM97 60.397c0-.238.144-.397.361-.397h8.162c5.02 0 7.188 2.46 7.188 7.068 0 3.256-1.012 5.001-2.817 5.874v.08c1.77.677 3.106 2.265 3.106 6.157 0 5.677-2.672 7.821-7.477 7.821h-8.162c-.217 0-.361-.158-.361-.397V60.397zM118.276 87c-.21 0-.351-.158-.421-.397l-4.837-26.206c-.07-.238.07-.397.28-.397h6.204c.21 0 .35.159.421.397l1.611 14.453h.106l1.507-14.453c.07-.238.21-.397.42-.397h6.134c.21 0 .351.159.28.397l-4.871 26.206c-.07.239-.21.397-.421.397h-6.413zM138.211 77.708l-1.107-8.18h-.07l-1.176 8.18h2.353zm-5.016-17.31c.035-.24.173-.398.415-.398h6.85c.24 0 .38.159.414.397l5.12 26.206c.034.239-.07.397-.277.397h-5.88c-.243 0-.381-.158-.416-.397l-.484-3.573h-3.84l-.518 3.573c-.035.239-.173.397-.415.397h-5.88c-.208 0-.313-.158-.277-.397l5.188-26.206z"/>
  </g>
</svg>
