<?xml version="1.0" encoding="UTF-8" standalone="no"?>
<svg xmlns="http://www.w3.org/2000/svg" xmlns:xlink="http://www.w3.org/1999/xlink" width="173px" height="149px" viewBox="0 0 173 149">
  <defs>
    <path id="a" d="M0 .634h142.262V119H0z"/>
    <path id="c" d="M0 .634h142.262V119H0z"/>
  </defs>
  <g fill="none" fill-rule="evenodd">
    <g transform="rotate(15 20.638 124.285)">
      <mask id="b" fill="#fff">
        <use xlink:href="#a"/>
      </mask>
      <path fill="#FFF" d="M141.759 11.077A81.384 81.384 0 0 1 126.363.881c-.563-.474-1.26-.202-1.573.265a31.834 31.834 0 0 0-12.372 7.123c-.011.01-.012.022-.022.032a.73.73 0 0 0-.264.2c-18.37 22.234-35.435 45.64-50.846 70.04-6.215-3.216-12.054-7.22-18.626-9.71-6.447-2.443-12.177-6.386-18.645-8.739a.825.825 0 0 0-.593-.136.78.78 0 0 0-.536.263c-2.15 1.434-4.037 3.262-5.954 4.99a.966.966 0 0 0-.373.256A133.13 133.13 0 0 0 .134 87.728c-.281.478-.098 1.08.358 1.37a422.59 422.59 0 0 0 32.603 18.72 416.946 416.946 0 0 0 16.899 8.242c1.666.767 3.776 2.18 5.683 2.47.253.424.755.66 1.267.277 1.202-.897 2.09-.946 3.524-.743 1.266.18 2.45.158 3.687-.073.244.061.505.002.73-.222a.8.8 0 0 0 .295-.359c20.607-26.555 40.33-53.779 59.737-81.22a6164.725 6164.725 0 0 0 16.378-23.288c.87-.073 1.42-1.336.464-1.825" mask="url(#b)"/>
    </g>
    <g transform="rotate(15 20.638 124.285)">
      <mask id="d" fill="#fff">
        <use xlink:href="#c"/>
      </mask>
      <path fill="#000" d="M81.299 92.982a1671.865 1671.865 0 0 1-17.571 23.063c-1.34.238-2.611.057-3.848.007.3-.457.58-.925.865-1.358a1335.465 1335.465 0 0 1 43.036-61.676 1338.21 1338.21 0 0 1 26.483-34.559c.018-.024.032-.05.049-.076 2.289-.408 4.484-1.4 6.546-2.625-18.206 25.965-36.557 51.834-55.56 77.224m-44.684 14.394c-11.718-5.945-23.137-12.46-34.25-19.473a130.669 130.669 0 0 1 13.368-18.502c12.573 8.021 26.92 12.86 38.927 21.812.438.327 1.114.063 1.368-.358 16.969-28.149 36.167-55.035 57.074-80.393l14.927 7.63a1349.048 1349.048 0 0 0-42.176 56.274A1330.825 1330.825 0 0 0 60.589 111.3c-.871 1.32-1.694 2.694-2.615 3.978-1.47 2.052-3.431.671-5.26-.16a418.001 418.001 0 0 1-16.1-7.74m23.608-27.139a643.373 643.373 0 0 0-5.35 8.68C43.139 80.41 29.297 75.605 17.079 67.885c.264-.295.522-.594.788-.886.06-.036.123-.055.182-.107 1.827-1.629 3.61-3.398 5.635-4.792 6.112 2.27 11.48 6.125 17.627 8.36 6.699 2.433 12.614 6.513 18.912 9.777m69.15-63.702l-14.752-7.54a29.544 29.544 0 0 1 11.119-6.054 83.693 83.693 0 0 0 13.339 8.977c-2.916 2.07-6.183 4.103-9.705 4.617m12.386-5.459A81.423 81.423 0 0 1 126.362.881c-.562-.474-1.258-.202-1.572.266a31.81 31.81 0 0 0-12.372 7.123c-.011.01-.012.021-.022.031a.741.741 0 0 0-.264.2c-18.37 22.234-35.435 45.64-50.846 70.04-6.215-3.216-12.054-7.22-18.626-9.71-6.447-2.443-12.177-6.386-18.645-8.739a.82.82 0 0 0-.593-.135.775.775 0 0 0-.536.262c-2.15 1.434-4.037 3.263-5.954 4.99a.966.966 0 0 0-.373.256A133.098 133.098 0 0 0 .134 87.73c-.281.478-.098 1.08.358 1.368a422.59 422.59 0 0 0 32.603 18.721 418.295 418.295 0 0 0 16.899 8.243c1.666.766 3.776 2.178 5.683 2.468.253.426.755.66 1.267.278 1.202-.896 2.09-.946 3.524-.742 1.266.18 2.45.157 3.686-.074.245.061.506.002.732-.222a.803.803 0 0 0 .294-.358c20.607-26.556 40.33-53.78 59.737-81.22a6164.725 6164.725 0 0 0 16.378-23.289c.87-.073 1.42-1.336.464-1.825" mask="url(#d)"/>
    </g>
  </g>
</svg>
