<?xml version="1.0" encoding="UTF-8" standalone="no"?>
<svg xmlns="http://www.w3.org/2000/svg" width="304px" height="152px" viewBox="0 0 304 152">
  <g fill="none" fill-rule="evenodd">
    <g fill="#000">
      <path fill-rule="nonzero" d="M19.65 131.594a2.5 2.5 0 0 0 4.73 1.62 146.437 146.437 0 0 1 3.88-10.098 2.5 2.5 0 0 0-4.598-1.965 151.437 151.437 0 0 0-4.012 10.443zm8.786-20.566a2.5 2.5 0 1 0 4.44 2.298 147.274 147.274 0 0 1 5.322-9.42 2.5 2.5 0 0 0-4.26-2.617 152.274 152.274 0 0 0-5.502 9.739zM40.15 91.965a2.5 2.5 0 0 0 4.057 2.923 148.15 148.15 0 0 1 6.638-8.537 2.5 2.5 0 0 0-3.833-3.211 153.15 153.15 0 0 0-6.862 8.825zm14.345-17.123a2.5 2.5 0 0 0 3.589 3.481 148.43 148.43 0 0 1 7.81-7.484 2.5 2.5 0 0 0-3.326-3.734 153.43 153.43 0 0 0-8.073 7.737zM71.21 59.955a2.5 2.5 0 0 0 3.044 3.966 147.934 147.934 0 0 1 8.815-6.265 2.5 2.5 0 0 0-2.746-4.179 152.934 152.934 0 0 0-9.113 6.478zm18.644-12.253a2.5 2.5 0 1 0 2.433 4.368 146.99 146.99 0 0 1 9.634-4.912 2.5 2.5 0 0 0-2.105-4.535 151.988 151.988 0 0 0-9.962 5.079zm20.293-9.42a2.5 2.5 0 0 0 1.765 4.679 146.33 146.33 0 0 1 10.253-3.44 2.5 2.5 0 1 0-1.414-4.797 151.33 151.33 0 0 0-10.604 3.558zm21.478-6.331a2.5 2.5 0 0 0 1.056 4.887c3.518-.76 7.069-1.39 10.649-1.892a2.5 2.5 0 0 0-.693-4.951c-3.702.518-7.374 1.17-11.012 1.956zm22.183-3.103a2.5 2.5 0 1 0 .328 4.99 149.742 149.742 0 0 1 10.82-.32 2.5 2.5 0 0 0 .034-5 154.743 154.743 0 0 0-11.182.33zm22.357.148a2.5 2.5 0 1 0-.395 4.985 147.8 147.8 0 0 1 10.742 1.247 2.5 2.5 0 0 0 .758-4.943 152.799 152.799 0 0 0-11.105-1.289zm22.101 3.393a2.5 2.5 0 0 0-1.12 4.873c3.52.81 7.004 1.748 10.446 2.812a2.5 2.5 0 0 0 1.477-4.777c-3.56-1.1-7.162-2.07-10.803-2.908zm21.352 6.602a2.5 2.5 0 0 0-1.825 4.655 146.63 146.63 0 0 1 9.914 4.316 2.5 2.5 0 0 0 2.164-4.507 151.63 151.63 0 0 0-10.253-4.464zm20.178 9.687a2.5 2.5 0 0 0-2.49 4.336 147.567 147.567 0 0 1 9.177 5.727 2.5 2.5 0 1 0 2.8-4.142 152.567 152.567 0 0 0-9.487-5.921zm18.497 12.505a2.5 2.5 0 1 0-3.095 3.926 148.312 148.312 0 0 1 8.247 7.004 2.5 2.5 0 1 0 3.373-3.69 153.312 153.312 0 0 0-8.525-7.24zM274.8 76.27a2.5 2.5 0 0 0-3.634 3.435 148.358 148.358 0 0 1 7.141 8.128 2.5 2.5 0 1 0 3.874-3.161 153.358 153.358 0 0 0-7.381-8.402zm14.147 17.343a2.5 2.5 0 0 0-4.095 2.869c2.07 2.954 4.03 5.983 5.878 9.08a2.5 2.5 0 1 0 4.294-2.56 152.673 152.673 0 0 0-6.077-9.389zm11.469 19.235a2.5 2.5 0 0 0-4.472 2.237 146.719 146.719 0 0 1 4.482 9.844 2.5 2.5 0 0 0 4.624-1.903 151.72 151.72 0 0 0-4.634-10.178z"/>
      <path d="M38.103 141.14l-21.437 10.456a2 2 0 0 1-2.674-.92L3.536 129.237a2 2 0 0 1 2.449-2.768l31.893 10.982a2 2 0 0 1 .225 3.688z"/>
    </g>
    <path fill="#1D1D1B" d="M178.76 17.866c0-2.146.018-4.213-.006-6.28-.015-1.39-.484-2.653-1.244-3.81-2.293-3.487-7.234-4.883-11.25-3.075-3.25 1.463-5.11 3.924-5.048 7.626.026 1.58.003 3.159.006 4.738 0 .26.022.521.034.801h17.509zm3.974-.024c1.574 0 3.05-.004 4.528.002 1.794.006 2.736.946 2.736 2.744.003 8.534.002 17.068 0 25.602 0 1.9-.927 2.806-2.901 2.807-8.145.004-16.29.002-24.436.002-3.233 0-6.466.003-9.7-.001-2.095-.003-2.96-.874-2.96-2.965V20.727c0-2.002.88-2.882 2.883-2.884 1.428-.002 2.856 0 4.38 0 0-.411-.01-.772.002-1.132.088-2.385-.071-4.813.325-7.147.802-4.714 4.976-8.534 9.99-9.347 4.07-.66 7.81.153 11.002 2.87 2.747 2.34 4.108 5.358 4.148 8.96.02 1.896.003 3.793.003 5.795z"/>
  </g>
</svg>
