<?xml version="1.0" encoding="UTF-8" standalone="no"?>
<svg xmlns="http://www.w3.org/2000/svg" xmlns:xlink="http://www.w3.org/1999/xlink" width="160px" height="160px" viewBox="0 0 160 160">
  <defs>
    <path id="a" d="M0 .659h29.158v6.145H0z"/>
  </defs>
  <g fill="none" fill-rule="evenodd">
    <path fill="#FFF" d="M152.216 130.094c-.057-.239-.2-.46-.423-.612-7.912-5.375-15.842-10.76-23.19-16.894-3.532-2.95-6.927-6.067-10.09-9.41-1.97-2.085-3.926-4.25-5.48-6.657a271.001 271.001 0 0 0 29.645-3.87c.966-.182.783-1.419.036-1.72.363-.09.673-.366.673-.853v-4.62c0-.462-.28-.738-.623-.842a.876.876 0 0 0-.607-.704A1852.921 1852.921 0 0 1 62.021 55.05c-.895-.346-1.366.741-.944 1.401 0 .056-.013.107-.004.167 4.53 25.896 9.838 51.655 16.338 77.13a.82.82 0 0 0 .803.651c-.001.254.08.468.226.632l.305 1.954c.078.497.694.762 1.137.645a.826.826 0 0 0 .524-.405.948.948 0 0 0 .241-.364 364.291 364.291 0 0 1 9.118-22.392c2.766 3.09 5.588 6.134 8.292 9.28 3.25 3.783 6.114 7.921 9.634 11.465 7.777 7.83 16.154 15.136 24.225 22.664.403.376.893.288 1.223.015.561.306 1.539-.192 1.419-1.069a26.927 26.927 0 0 1-.216-2.62.945.945 0 0 0 .594-.373 66.364 66.364 0 0 1 16.821-15.753.923.923 0 0 0 .348-.404c.07-.13.117-.28.096-.477-.219-2.1-.135-4.17.297-6.238a.887.887 0 0 0-.282-.865"/>
    <path fill="#000" d="M134.374 151.58c.058-.988.154-1.975.32-2.959l15.695-16.061a21.31 21.31 0 0 0-.06 4.261 68.86 68.86 0 0 0-15.955 14.759m-25.377-17.673c-3.435-3.459-6.234-7.49-9.398-11.19-2.992-3.5-6.14-6.865-9.2-10.305-.06-1.467-.313-2.91-.475-4.363a475.436 475.436 0 0 0 42.233 40.639c-.172.465.115.96.528 1.16a29.756 29.756 0 0 0-.037 6.19c-7.894-7.34-16.057-14.486-23.65-22.131m-28.579-1.641c1.436-7.886 3.755-15.631 7.514-22.736.021-.038.02-.075.033-.113.019-.039.047-.064.06-.107l.15-.47c.167 1.26.357 2.518.39 3.795a370.977 370.977 0 0 0-8.147 19.63m30.529-39.893c1.741-.229 3.47-.565 5.222-.724.04-.004.066-.024.103-.03.05-.004.091.008.142-.003a790.127 790.127 0 0 1 25.125-5.003v3.466c0 .422.235.687.535.81a266.27 266.27 0 0 1-29.64 3.832.976.976 0 0 0-.399.117c-.42-.79-.779-1.614-1.088-2.465m15.726 21c7.344 6.202 15.279 11.65 23.221 17.05l-16.508 16.894a475.642 475.642 0 0 1-44.321-42.923c-.487-.537-1.344-.222-1.545.408l-1.247 3.926c-3.727 7.08-6.093 14.767-7.558 22.613-6.172-24.424-11.264-49.103-15.628-73.91a1851.18 1851.18 0 0 0 76.708 27.632 794.16 794.16 0 0 0-23.83 4.762c-2.1.207-4.168.658-6.271.848-.579.053-1.075.55-.891 1.17 1.244 4.199 3.86 7.633 6.75 10.85 3.439 3.826 7.191 7.362 11.12 10.68m25.542 16.722c-.056-.239-.2-.46-.423-.612-7.911-5.374-15.842-10.76-23.19-16.894-3.531-2.95-6.926-6.067-10.089-9.41-1.972-2.085-3.927-4.251-5.482-6.657a270.943 270.943 0 0 0 29.645-3.87c.966-.182.784-1.419.036-1.721.364-.089.675-.365.675-.852v-4.62c0-.462-.281-.738-.623-.842a.877.877 0 0 0-.607-.705 1850.052 1850.052 0 0 1-80.138-28.86c-.894-.347-1.364.74-.942 1.4 0 .056-.015.107-.005.168 4.529 25.894 9.838 51.654 16.338 77.129.114.446.45.641.803.651-.001.254.081.468.226.632l.305 1.954c.079.497.694.762 1.137.645a.825.825 0 0 0 .525-.405.959.959 0 0 0 .24-.364 363.71 363.71 0 0 1 9.118-22.392c2.767 3.09 5.589 6.134 8.291 9.28 3.25 3.782 6.115 7.921 9.635 11.464 7.777 7.831 16.154 15.137 24.225 22.665.402.376.893.288 1.224.015.56.306 1.537-.192 1.417-1.069-.12-.873-.18-1.747-.214-2.62a.946.946 0 0 0 .593-.372 66.382 66.382 0 0 1 16.82-15.754.917.917 0 0 0 .348-.404.78.78 0 0 0 .097-.476c-.219-2.101-.135-4.17.296-6.24a.887.887 0 0 0-.28-.864"/>
    <path fill="#FFF" d="M71.359 1.97h-2.094c-2.568.639-4.181 28.79-3.646 27.434 2.084-5.284 5.495-11.587 7.58-16.871.745-1.89 1.503-3.853 1.41-5.884-.096-2.03-1.285-4.16-3.25-4.678"/>
    <path fill="#000" d="M71.359 1.047c-1.042 0-2.263-.273-3.077.505-.615.588-.862 1.65-1.083 2.433-.906 3.218-1.233 6.646-1.593 9.96a199.947 199.947 0 0 0-.894 11.173c-.048.915-.756 4.562.409 5.132.394.192.792.145 1.12-.144.725-.639.947-2.11 1.317-2.952a168.077 168.077 0 0 1 1.963-4.271c1.37-2.908 2.781-5.798 4.021-8.764 1.755-4.199 3.88-10.958-1.937-13.04C70.483.678 70 2.463 71.112 2.86c5.601 2.004.715 10.735-.808 14.038-.945 2.052-1.93 4.085-2.887 6.132-.495 1.058-.985 2.12-1.455 3.19-.216.49-.623 2.22-1.028 2.577l1.12-.144c.85.416.192.793.388.145.087-.286.005-.76.01-1.064.024-1.106.083-2.214.146-3.32.174-3.118.422-6.232.738-9.34.311-3.052.652-6.124 1.293-9.127.192-.899.381-1.846.755-2.69.127-.284.458-.598-.003-.363.433-.22 1.478 0 1.978 0 1.188 0 1.19-1.848 0-1.848"/>
    <path fill="#FFF" d="M46.854 42.466A78.849 78.849 0 0 0 15.799 25.14c-.413-.118-.856-.233-1.265-.101-.569.182-.886.775-1.117 1.325a17.774 17.774 0 0 0-1.253 4.733c-.062.517-.095 1.073.169 1.522.431.74 1.426.858 2.276.962 7.155.864 12.932 6.034 18.2 10.952 1.572 1.467 3.276 3 5.399 3.34 2.386.382 4.94-1.038 5.876-3.265"/>
    <path fill="#000" d="M47.507 41.813c-4.896-4.403-10.28-8.232-16.095-11.328a81.195 81.195 0 0 0-8.72-3.991 77.56 77.56 0 0 0-4.41-1.563c-1.147-.368-2.753-1.167-3.994-.784-2.142.662-2.71 4.498-2.956 6.3-.31 2.255.365 3.538 2.632 3.973 3.429.658 6.393 1.607 9.361 3.507 2.903 1.858 5.486 4.16 8.008 6.495 2.103 1.947 4.408 4.34 7.474 4.434 2.602.079 4.943-1.491 6.075-3.78.526-1.064-1.067-2-1.595-.934-3.847 7.777-12.148-2.628-15.789-5.486-2.306-1.809-4.758-3.428-7.47-4.559a20.266 20.266 0 0 0-3.714-1.169c-.558-.114-1.16-.123-1.705-.271-1.404-.38-1.5-1.528-1.283-2.927.12-.772.408-1.631.683-2.358.532-1.408.97-1.388 2.292-1.121 1.502.304 3.003.95 4.44 1.475a76.91 76.91 0 0 1 9.049 3.991c5.939 3.087 11.435 6.928 16.41 11.402.883.793 2.194-.51 1.307-1.306"/>
    <path fill="#FFF" d="M38.515 69.136l-14.835-.46c-1.275-.04-2.683-.033-3.643.808-1.365 1.198-1.086 3.359-.69 5.132.124.558.281 1.168.747 1.5.332.237.758.283 1.163.323 5.383.526 10.767 1.05 16.15 1.574.76.075 1.595.131 2.222-.307 1.62-1.131.132-3.76.764-5.632"/>
    <path fill="#000" d="M38.515 68.212c-3.2-.098-6.4-.198-9.599-.297-2.459-.077-5.643-.712-8.037.086-1.58.527-2.515 1.779-2.73 3.41-.195 1.486-.001 4.019 1.104 5.153 1.387 1.42 4.692 1.061 6.491 1.237l9.868.962c1.684.164 4.015.718 5.184-.935 1.145-1.62.069-3.725.487-5.508.272-1.157-1.51-1.65-1.781-.492-.291 1.24.18 2.43-.024 3.618-.392 2.279-3.056 1.548-4.762 1.38-3.93-.382-8.263-.322-12.113-1.18-1.909-.425-2.518-1.15-2.632-2.883-.079-1.193-.02-2.387 1.399-2.98 1.502-.628 3.815-.135 5.364-.088l11.781.365c1.19.037 1.188-1.811 0-1.848"/>
    <path fill="#FFF" d="M87.946 45.057l24.36-2.774c.468-.054.981-.096 1.37.169.324.221.486.611.617.982a16.64 16.64 0 0 1 .844 7.354l-26.378.044c-.356.001-.726-.003-1.041-.166-1.223-.636-.357-2.493.609-3.477"/>
    <path fill="#000" d="M87.946 45.981c5.263-.6 10.527-1.2 15.79-1.798 2.45-.28 5.215-.991 7.669-.874.99.047 1.613.14 2.254 1.159.247.395.304 1.156.391 1.611.299 1.57.299 3.126.163 4.709l.924-.924-14.553.025-7.277.012c-1.146.002-2.513.206-3.639.005-1.618-.287-1.888-.686-.688-2.064.778-.893-.523-2.205-1.306-1.306-.941 1.08-2.103 2.887-1.12 4.304 1.22 1.756 5.004.911 6.753.909l21.83-.037c.531-.001.881-.425.924-.924.22-2.557.136-5.755-1.089-8.094-1.187-2.27-4.234-1.157-6.274-.925-6.917.789-13.835 1.576-20.752 2.364-1.168.133-1.18 1.983 0 1.848"/>
    <path fill="#FFF" d="M49.03 87.258a56.833 56.833 0 0 0-3.121 8.596c-.323 1.175-.61 2.405-.382 3.602.227 1.199 1.102 2.355 2.308 2.533.98-.406 1.233-1.652 1.348-2.706.59-5.375 1.178-10.75 1.769-16.125"/>
    <path fill="#000" d="M48.233 86.791c-1.527 3.406-3.27 7.22-3.653 10.973-.182 1.79.734 5.356 3.255 5.149 2.546-.209 2.391-4.712 2.568-6.317l1.473-13.438c.129-1.18-1.72-1.171-1.848 0-.557 5.076-1.057 10.16-1.67 15.23-.039.319-.003 1.51-.249 1.73l-1.352.021-.385-1.403c-.097-1.13.344-2.368.654-3.438.75-2.592 1.699-5.113 2.803-7.573.482-1.077-1.11-2.017-1.596-.934"/>
    <path fill="#FFF" d="M81.016 32.79A41.378 41.378 0 0 1 95.29 19.163c1.575.23 2.21 2.374 1.525 3.813-.683 1.437-2.163 2.293-3.558 3.06L79.006 33.89"/>
    <path fill="#000" d="M81.814 33.257c1.704-2.624 3.657-5.053 5.902-7.234a38.615 38.615 0 0 1 5.535-4.503c.857-.577 1.468-1.352 2.353-.795 3.118 1.958-5.983 6.262-7.168 6.914L78.54 33.09c-1.041.575-.11 2.172.934 1.597 4.849-2.672 9.742-5.278 14.551-8.021 2.457-1.4 5.528-4.307 3.24-7.293-.741-.967-1.69-1.3-2.76-.822-1.91.85-3.725 2.402-5.337 3.713-3.511 2.853-6.488 6.27-8.95 10.058-.648 1.001.951 1.929 1.597.934"/>
    <path fill="#FFF" d="M50.034 30.078a86.528 86.528 0 0 1-15.25-9.726c-1.007-.803-2.036-1.68-2.497-2.883-.46-1.2-.127-2.807 1.042-3.345.478-.22 1.026-.236 1.551-.18 3.398.359 5.812 3.366 7.822 6.13l7.267 9.996"/>
    <path fill="#000" d="M50.5 29.28a90.018 90.018 0 0 1-9.26-5.363 84.587 84.587 0 0 1-4.595-3.28c-1.152-.881-3.8-2.504-3.634-4.262.339-3.57 5.199-.027 5.9.617 1.359 1.25 2.432 2.78 3.512 4.262 2.252 3.092 4.498 6.188 6.748 9.282.693.953 2.297.032 1.596-.932-3.12-4.29-6.01-8.988-9.578-12.921-1.895-2.09-6.789-5.727-9.312-2.523-2.472 3.138 1.444 6.244 3.645 7.93 4.397 3.371 9.103 6.29 14.046 8.787 1.06.534 1.995-1.06.933-1.597"/>
    <path fill="#FFF" d="M35.25 55.041a90.942 90.942 0 0 0-23.944-2.407c-1.27.041-2.756.238-3.375 1.348 1.775 2.595 5.439 2.85 8.584 2.848l18.306-.018"/>
    <g transform="translate(7 50.948)">
      <mask id="b" fill="#fff">
        <use xlink:href="#a"/>
      </mask>
      <path fill="#000" d="M28.497 3.203C23.043 1.937 17.497 1.12 11.9.834 9.22.697 6.431.541 3.751.792c-1.516.141-2.69.533-3.618 1.775-.265.355-.09.818.145 1.119 2.41 3.104 6.56 3.118 10.152 3.118 5.797 0 11.594-.01 17.391-.016 1.19-.002 1.191-1.85 0-1.848l-14.645.014c-3.755.003-8.985.782-11.592-2.575l.144 1.12c1.111-1.487 4.558-.946 6.153-.935 2.234.015 4.469.115 6.697.294 4.529.366 9.003 1.098 13.427 2.127 1.158.268 1.652-1.514.492-1.782" mask="url(#b)"/>
    </g>
  </g>
</svg>
