<?xml version="1.0" encoding="UTF-8" standalone="no"?>
<svg xmlns="http://www.w3.org/2000/svg" xmlns:xlink="http://www.w3.org/1999/xlink" width="187px" height="118px" viewBox="0 0 187 118">
  <defs>
    <path id="a" d="M0 117h186.162V.952H0z"/>
  </defs>
  <g fill="none" fill-rule="evenodd">
    <path fill="#FFF" d="M1.5 115.548h183.162v-113H1.5z"/>
    <path stroke="#000" stroke-width="3" d="M1.5 115.548h183.162v-113H1.5z"/>
    <path fill="#000" d="M1.5 11.12h183.162V1H1.5z"/>
    <g transform="translate(0 .048)">
      <path fill="#FFF" d="M7.25 6.012a2 2 0 1 1-4.001-.002 2 2 0 0 1 4.001.002M15.25 6.012a2 2 0 1 1-4.001-.002 2 2 0 0 1 4.002.002M23.251 6.012a2 2 0 1 1-4.001-.002 2 2 0 0 1 4.001.002"/>
      <path fill="#000" d="M61.17 32.912a63.67 63.67 0 0 1 8.365-17.137c-.311-.084-.621-.17-.932-.253a80.95 80.95 0 0 0 1.936 11.289.509.509 0 0 0 .482.368c1.526-.013 2.798-.52 4.158-1.167.99-.472 1.984-1.087 3.077-1.285 1.768-.32 2.936.374 4.539.794 4.319 1.129 9.053.1 13.476.42 9.79.705 19.319 3.615 29.203 3.064.64-.036.644-1.036 0-1-11.407.636-22.406-3.386-33.783-3.206-2.88.046-5.8.51-8.63-.242-2.048-.546-3.628-1.273-5.723-.608-1.76.558-5.002 3.307-6.167 1.22-.597-1.07-.64-2.982-.842-4.165a78.285 78.285 0 0 1-.726-5.482c-.05-.496-.64-.676-.932-.252a64.578 64.578 0 0 0-8.465 17.376c-.193.616.772.879.964.266"/>
      <mask id="b" fill="#fff">
        <use xlink:href="#a"/>
      </mask>
      <path fill="#FFF" d="M59.081 115.5h68V42.796h-68z" mask="url(#b)"/>
      <path stroke="#000" stroke-width="3" d="M59.081 115.5h68V42.796h-68z" mask="url(#b)"/>
      <path fill="#000" d="M68.5 52.5h48.667v-2H68.5zM68.5 68.016h48.667v-2H68.5zM68.5 74.404h48.667v-2H68.5zM68.5 80.792h48.667v-2H68.5zM68.5 87.18h48.667v-2H68.5zM69.415 95.773h23.418v-2H69.415zM69.415 102.627h23.418v-2H69.415zM69.415 108.55h23.418v-2H69.415zM106.222 95.78c.296.202.573.448.953.416.352-.029.64-.324.9-.525l1.909-1.476c.509-.394-.204-1.096-.707-.707l-1.272.983c-.22.17-.681.691-.948.675-.184-.01-.836-.58-.991-.688-.441-.306-.881-.613-1.322-.918-.53-.368-1.03.498-.504.863.66.46 1.317.924 1.982 1.377M106.082 102.634c.295.202.572.448.953.416.351-.029.64-.324.901-.526l1.908-1.475c.508-.393-.204-1.096-.707-.707l-1.272.983c-.221.17-.682.691-.948.675-.185-.01-.836-.58-.991-.688l-1.322-.918c-.529-.368-1.03.498-.504.864.66.458 1.317.923 1.982 1.376M109.276 106.264l-1.27.984c-.222.17-.683.69-.95.674-.184-.01-.836-.58-.99-.688l-1.322-.918c-.53-.368-1.03.498-.505.864.661.46 1.318.923 1.982 1.376.296.202.573.448.953.416.352-.029.64-.324.901-.525l1.908-1.476c.51-.393-.204-1.096-.707-.707" mask="url(#b)"/>
    </g>
  </g>
</svg>
