<svg xmlns="http://www.w3.org/2000/svg" xmlns:xlink="http://www.w3.org/1999/xlink" width="88" height="142" viewBox="0 0 88 142">
    <defs>
        <path id="a" d="M.007.565H85.91V140H.007z"/>
    </defs>
    <g fill="none" fill-rule="evenodd">
        <g transform="translate(0 .723)">
            <mask id="b" fill="#fff">
                <use xlink:href="#a"/>
            </mask>
            <path fill="#FFF" d="M3.673 116.883c.008-.039-.002-.072 0-.109m44.561 21.692c-.18.91 1.212 1.321 1.394.403a32.031 32.031 0 0 1 4.801-11.635c.337-.506-.067-.994-.532-1.069a.824.824 0 0 0-.148-.303c.845-4.42 3.3-8.163 6.577-11.192 1.582-1.463 3.324-2.746 5.16-3.872 1.544-.948 3.192-1.759 4.323-3.225 2.377-3.08 2.326-7.824 2.488-11.523.2-4.555.314-9.236 3.011-13.115.363-.522-.094-1.026-.59-1.064.218-.42.426-.85.617-1.29 3.253-7.453 2.806-15.839 3.728-23.756.527-4.532 1.805-8.739 3.3-13.03 1.45-4.162 2.636-8.285 2.73-12.718.098-4.658-.135-9.22.32-13.874.445-4.575.883-9.142-.073-13.685-.012-.056-.04-.093-.06-.14-.005-.01-.003-.02-.008-.032-.012-.026-.027-.048-.039-.074-.008-.014-.013-.032-.023-.044C83.75.166 79.508-.145 76.95 1.73c-3.842 2.815-4.368 8.676-4.848 13.012-1.23 11.072.122 23.007-5.11 33.16-.558-3.27.205-6.862-2.549-9.363-2.775-2.52-6.36-1.948-9.205.058-1.64 1.158-3.27 2.735-5.417 2.716-2.486-.022-4.644-1.718-7.147-1.81-3.552-.13-7.052 2.231-8.266 5.565-.439 1.207-.939 1.725-2.346 1.701-1.042-.018-2.08-.135-3.116-.242-1.895-.196-3.84-.434-5.733-.063-4.114.807-5.704 4.33-6.688 8.02-.574 2.15-1.062 4.307-2.285 6.203-1.384 2.144-3.302 3.876-4.603 6.084-2.5 4.246-3.067 9.29-2.985 14.13.1 5.946.91 11.9 1.465 17.817.567 6.021 1.02 12.38-4.3 16.508-.238.185-.293.42-.237.632a.824.824 0 0 0-.163.31c-.373-.313-1.015-.294-1.14.311L.027 127.48c-.082.387.092.778.494.9a522.815 522.815 0 0 0 46.101 11.603c.91.185 1.322-1.208.405-1.395" mask="url(#b)"/>
        </g>
        <path fill="#000" d="M21.706 56.727c.858-.37.151-1.64-.7-1.272-1.819.784-2.774 2.91-2.196 4.794.274.89 1.684.542 1.41-.355-.404-1.313.233-2.627 1.486-3.167M21.774 59.574a12.912 12.912 0 0 0-2.33 4.65c-.244.902 1.149 1.309 1.395.405a11.932 11.932 0 0 1 2.172-4.295c.578-.734-.666-1.486-1.237-.76M38.742 48.279c-1.667.704-2.544 2.584-2.13 4.322.217.909 1.625.556 1.408-.356-.274-1.154.35-2.241 1.422-2.694.862-.364.154-1.633-.7-1.272M42.13 54.45c-.679-.424-.712-1.438-.126-1.948.707-.615-.298-1.665-1-1.053-1.3 1.132-1.078 3.337.364 4.237.795.496 1.554-.742.761-1.237M57.77 43.332c-2.494-.124-4.886 1.227-6.05 3.44-.431.824.804 1.588 1.239.761.94-1.79 2.768-2.849 4.79-2.749.935.047.955-1.406.02-1.452M56.841 47.006c-1.268.8-2.294 1.867-3.007 3.19-.442.82.794 1.583 1.238.76.595-1.105 1.407-2.007 2.47-2.678.788-.497.092-1.772-.7-1.272M57.88 49.874c-1.17.69-2.009 1.798-2.295 3.132-.194.91 1.198 1.32 1.396.404.208-.97.74-1.758 1.598-2.264.806-.474.108-1.748-.7-1.272M76.553 34.626l3.146.363c.925.107.941-1.346.018-1.453-1.049-.12-2.098-.242-3.145-.363-.927-.106-.942 1.347-.019 1.453M80.537 37.076l-6.007-.968c-.91-.147-1.326 1.246-.404 1.395l6.007.968c.91.147 1.326-1.246.404-1.395"/>
        <path fill="#000" d="M67.868 108.253c-1.667 1.444-3.8 2.373-5.587 3.673-1.597 1.163-3.101 2.455-4.447 3.902-2.732 2.933-4.737 6.423-5.487 10.383a.737.737 0 0 0 .042.4c-3.247 1.453-7.752.092-11.042-.417-4.191-.648-8.373-1.375-12.522-2.251-8.062-1.703-16.011-3.996-23.566-7.303 1.782-1.52 3.046-3.457 3.815-5.608a22.51 22.51 0 0 0 14.712 4.522c.928-.045.955-1.498.019-1.452-5.22.254-10.177-1.334-14.288-4.547a16.14 16.14 0 0 0 .416-2.585c.392-5.003-.622-10.265-1.09-15.243-.458-4.873-1.048-9.803-.583-14.698.234-2.457.764-4.901 1.784-7.156 1.064-2.352 2.727-4.178 4.312-6.176 1.173-1.478 2.069-3.04 2.664-4.834.73-2.201 1.034-4.578 2.042-6.683 2.16-4.5 6.78-3.756 10.91-3.37 1.313.123 3.068.47 4.308-.11.576-.268.88-.707 1.128-1.276.554-1.268.823-2.42 1.817-3.463 1.388-1.455 3.407-2.363 5.43-2.282 2.393.095 4.448 1.64 6.837 1.787 4.31.263 6.586-4.767 10.78-4.482 6.229.424 4.302 7.404 5.68 11.483-.02.034-.037.067-.06.1-1.286 1.445-.93 3.994-.378 5.69.818 2.512 2.144 4.872 3.66 7.019.534.756 1.81.063 1.272-.701-1.038-1.47-1.96-3.01-2.705-4.65-.68-1.49-2.216-4.94-.747-6.42.02-.02.027-.044.045-.066.023-.03.053-.045.073-.08.057-.09.104-.182.158-.273a.54.54 0 0 0 .237-.41c4.737-8.131 5.07-17.694 5.476-26.878.219-4.968.399-10.11 1.735-14.928.396-1.428.994-2.967 1.958-4.16.38 2.982.503 5.966.37 8.974-.074 1.714.032 3.253 2.07 3.284.75.012 2.19.01 2.88-.407.784-.472 1.045-1.68 1.302-2.462.503-1.526.857-3.092 1.162-4.668.06 2.716-.203 5.44-.47 8.16-.4 4.105-.402 8.119-.348 12.238.06 4.538-.766 8.693-2.222 12.979-1.402 4.127-2.86 8.162-3.512 12.49-1.233 8.169-.496 16.845-3.574 24.653-1.68 4.263-4.683 7.497-7.932 10.63-2.913 2.808-5.708 5.69-8.234 8.856-5.725 7.173-11.077 15.806-11.264 25.25-.018.934 1.434.956 1.452.019.163-8.242 4.477-15.813 9.35-22.307a.718.718 0 0 0 .175.24 9.267 9.267 0 0 0 3.123 1.887c.88.318 1.28-1.078.404-1.395a7.409 7.409 0 0 1-2.475-1.493.713.713 0 0 0-.503-.191c.175-.227.349-.455.525-.68a12.044 12.044 0 0 0 3.338 2.669c.82.442 1.585-.795.76-1.238a10.944 10.944 0 0 1-3.173-2.575c2.616-3.167 5.52-6.017 8.459-8.895 1.427-1.4 2.78-2.841 3.977-4.397-.903 2.502-1.21 5.197-1.356 7.9-.233 4.245.459 10.945-3.092 14.022m13.576-93.434a1.324 1.324 0 0 1-.678.558c-.241.09-1.441.208-1.63.139a.969.969 0 0 1-.566-.521c.016-.01.03-.008.046-.017.808-.494 1.677-.554 2.554-.207.098.039.189.05.274.048M83.88 4.537c-.387 2.053-.708 4.12-1.166 6.159-.224.995-.461 2-.8 2.965a.718.718 0 0 0-.34-.285 4.11 4.11 0 0 0-3.103.052c.029-.271.063-.527.07-.735.033-1.01.035-2.021.006-3.03a53.274 53.274 0 0 0-.566-6.152c.19-.125.382-.25.592-.35 1.846-.884 4.313-.471 5.307 1.376M72.298 96.774c.2-4.555.313-9.237 3.01-13.115.364-.523-.093-1.027-.59-1.065.218-.421.426-.85.618-1.29 3.253-7.452 2.805-15.838 3.727-23.756.528-4.532 1.806-8.738 3.3-13.031 1.449-4.161 2.637-8.283 2.73-12.717.098-4.657-.134-9.22.32-13.873.445-4.576.884-9.143-.072-13.685-.012-.056-.04-.093-.061-.14-.005-.012-.003-.022-.008-.033-.011-.026-.026-.048-.04-.074-.007-.013-.011-.031-.021-.043-1.46-3.063-5.702-3.373-8.261-1.5-3.842 2.817-4.367 8.677-4.848 13.014-1.23 11.072.122 23.007-5.11 33.158-.558-3.27.206-6.86-2.55-9.362-2.773-2.52-6.36-1.948-9.203.058-1.642 1.159-3.271 2.735-5.417 2.717-2.486-.022-4.644-1.72-7.147-1.81-3.552-.131-7.052 2.23-8.266 5.564-.44 1.208-.94 1.726-2.347 1.7-1.042-.016-2.08-.134-3.115-.241-1.895-.196-3.842-.433-5.733-.062-4.115.806-5.704 4.329-6.69 8.02-.572 2.149-1.06 4.307-2.283 6.202-1.385 2.145-3.303 3.876-4.603 6.084-2.501 4.246-3.067 9.29-2.985 14.13.1 5.946.908 11.9 1.465 17.817.566 6.022 1.02 12.38-4.301 16.509-.237.185-.293.418-.236.632a.824.824 0 0 0-.163.309c-.373-.313-1.016-.293-1.14.312l-2.252 11c-.08.388.094.779.495.9a522.92 522.92 0 0 0 46.102 11.603c.909.186 1.32-1.207.404-1.394a522.943 522.943 0 0 1-45.461-11.416l2.108-10.29c.007-.04-.002-.071 0-.11.033.023.052.05.093.069 8.33 3.732 17.103 6.245 26.038 8.059 4.335.88 8.702 1.607 13.078 2.26 3.14.468 6.689 1.383 9.749.2a33.059 33.059 0 0 0-4.398 11.105c-.18.91 1.213 1.322 1.395.404a32.007 32.007 0 0 1 4.8-11.635c.337-.506-.066-.995-.532-1.07a.821.821 0 0 0-.147-.302c.845-4.422 3.3-8.163 6.577-11.193 1.582-1.463 3.323-2.745 5.159-3.872 1.545-.948 3.193-1.76 4.323-3.224 2.377-3.08 2.327-7.824 2.489-11.523"/>
        <path fill="#000" d="M21.706 56.727c.858-.37.151-1.64-.7-1.272-1.819.784-2.774 2.91-2.196 4.794.274.89 1.684.542 1.41-.355-.404-1.313.233-2.627 1.486-3.167M21.774 59.574a12.912 12.912 0 0 0-2.33 4.65c-.244.902 1.149 1.309 1.395.405a11.932 11.932 0 0 1 2.172-4.295c.578-.734-.666-1.486-1.237-.76M38.742 48.279c-1.667.704-2.544 2.584-2.13 4.322.217.909 1.625.556 1.408-.356-.274-1.154.35-2.241 1.422-2.694.862-.364.154-1.633-.7-1.272M42.13 54.45c-.679-.424-.712-1.438-.126-1.948.707-.615-.298-1.665-1-1.053-1.3 1.132-1.078 3.337.364 4.237.795.496 1.554-.742.761-1.237M57.77 43.332c-2.494-.124-4.886 1.227-6.05 3.44-.431.824.804 1.588 1.239.761.94-1.79 2.768-2.849 4.79-2.749.935.047.955-1.406.02-1.452M56.841 47.006c-1.268.8-2.294 1.867-3.007 3.19-.442.82.794 1.583 1.238.76.595-1.105 1.407-2.007 2.47-2.678.788-.497.092-1.772-.7-1.272M57.88 49.874c-1.17.69-2.009 1.798-2.295 3.132-.194.91 1.198 1.32 1.396.404.208-.97.74-1.758 1.598-2.264.806-.474.108-1.748-.7-1.272M76.553 34.626l3.146.363c.925.107.941-1.346.018-1.453-1.049-.12-2.098-.242-3.145-.363-.927-.106-.942 1.347-.019 1.453M80.537 37.076l-6.007-.968c-.91-.147-1.326 1.246-.404 1.395l6.007.968c.91.147 1.326-1.246.404-1.395"/>
    </g>
</svg>
