<?xml version="1.0" encoding="UTF-8" standalone="no"?>
<svg xmlns="http://www.w3.org/2000/svg" xmlns:xlink="http://www.w3.org/1999/xlink" width="140px" height="140px" viewBox="0 0 140 140">
  <defs>
    <path id="a" d="M0 .397h139.302v136.666H0z"/>
  </defs>
  <g fill="none" fill-rule="evenodd">
    <g transform="translate(0 1.583)">
      <mask id="b" fill="#fff">
        <use xlink:href="#a"/>
      </mask>
      <path fill="#F8E71C" d="M138.33 57.786c-3.536-1.884-6.947-3.98-10.192-6.332a78.322 78.322 0 0 1-4.99-3.942c-1.32-1.131-3.088-2.403-3.971-3.941-1.006-1.75-.776-4.036-.83-5.972l-.185-6.778c-.125-4.518-.25-9.036-.372-13.556-.039-1.364-1.216-2.107-2.48-1.887L101.973 17.7l-6.669 1.16c-2.245.392-4.7 1.136-6.988 1.071-3.75-.104-6.621-5.63-8.66-8.258-2.766-3.56-5.533-7.123-8.298-10.685-.858-1.105-2.413-.481-3.076.398-5.096 6.754-11.229 12.67-18.127 17.563l-27.408-5.133c-1.178-.22-2.547.524-2.478 1.889l.855 16.817c.138 2.72.352 5.448.416 8.17.03 1.345.014 2.216-1.1 3.088-1.086.851-2.482 1.434-3.683 2.107-4.812 2.697-9.826 5.198-14.5 8.126-4.603 2.886-1.105 6.73 1.182 9.974l4.73 6.71c1.34 1.9 3.802 4.358 3.987 6.782.176 2.305-1.159 5.03-1.767 7.205a183.675 183.675 0 0 0-2.122 8.308c-.606 2.63-1.18 5.273-1.646 7.93-.304 1.732-.532 3.534.907 4.84 1.501 1.362 4.124 1.469 6.003 1.885 2.856.632 5.713 1.266 8.57 1.897 2.758.61 6.17.85 8.75 1.993 2.18.968 3.288 5.135 4.265 7.15l8.458 17.434c.477.982 1.8 1.16 2.678.701l12.738-6.649 6.792-3.546c.771-.402 1.72-1.162 2.548-1.33 1.742-.35 3.198.861 4.59 1.651l12.738 7.217c2.784 1.579 6.572 4.301 9.705 1.98 1.218-.903 1.706-2.286 2.151-3.672.665-2.069 1.273-4.15 1.98-6.206 1.493-4.34 3.061-8.843 5.184-12.922 2.107-4.05 7.296-3.925 11.306-4.68l13.84-2.603c1.035-.195 1.639-1.458 1.368-2.409l-3.438-12.07c-.926-3.251-3.424-8.133-1.746-11.348 1.724-3.301 4.147-6.36 6.203-9.466l6.822-10.304c.568-.858.193-2.202-.703-2.679" mask="url(#b)"/>
    </g>
    <path fill="#F8E71C" d="M73.116 81.78c-2.267.156-4.534.286-6.806.353-1.934.058-6.072.959-7.237-.783-1.322-1.98-1.872-5.3-2.517-7.564a114.304 114.304 0 0 1-1.922-7.852c-2.085-9.958-2.988-20.106-3.812-30.233.282.192.628.32 1.05.332 8.544.262 17.079-.03 25.583-.857-1.447 15.535-2.892 31.07-4.34 46.604m6.5-50.735a201.02 201.02 0 0 1-27.742 1.072c-.647-.018-1.125.227-1.44.601-.841-1.706-3.887-1.472-3.708.755 1.002 12.398 2.008 24.89 4.92 37.015a102.564 102.564 0 0 0 2.455 8.61c.687 2.049 1.28 4.903 3.19 6.214 1.926 1.324 4.925.827 7.11.785 3.505-.068 7.006-.25 10.502-.52 1.133-.087 1.854-.832 1.958-1.958 1.572-16.872 3.142-33.744 4.712-50.616.091-.977-.974-2.065-1.958-1.958M74.027 108.458c-3.379 2.478-8.465 3.097-10.131-1.489-.981-2.699-2.47-9.289 1.13-10.555.01-.002.021 0 .034-.002 3.561-.51 8.579-1.169 11.037 2.165 2.39 3.24.949 7.668-2.07 9.881m-7.183-16.14a2.142 2.142 0 0 0-.453-.05 7.081 7.081 0 0 0-2.238.35c-.044.007-.09.012-.135.018-.44.064-.764.238-.994.473-1.502.804-2.712 2.129-3.449 3.78-1.42 3.184-.725 6.925.231 10.14.843 2.836 2.26 5.64 5.19 6.752 2.915 1.106 6.369.446 9.11-.844 5.524-2.593 8.689-8.921 6.21-14.744-2.38-5.588-8.122-6.31-13.472-5.876"/>
    <path fill="#FFF" d="M79.614 31.045a200.874 200.874 0 0 1-27.741 1.073c-.647-.02-1.125.226-1.44.6-.841-1.706-3.887-1.472-3.708.755 1.002 12.4 2.008 24.89 4.92 37.015a102.564 102.564 0 0 0 2.455 8.61c.687 2.048 1.28 4.903 3.19 6.215 1.926 1.323 4.925.825 7.108.783 3.507-.067 7.008-.248 10.504-.52 1.133-.087 1.854-.83 1.958-1.958 1.572-16.871 3.142-33.744 4.712-50.615.091-.977-.974-2.064-1.958-1.958M66.843 92.317a2.2 2.2 0 0 0-.452-.049 7.058 7.058 0 0 0-2.238.351l-.134.017c-.44.065-.765.238-.995.474-1.503.803-2.712 2.127-3.45 3.779-1.42 3.184-.725 6.925.232 10.14.843 2.837 2.26 5.64 5.19 6.752 2.914 1.106 6.37.445 9.11-.844 5.523-2.593 8.688-8.922 6.21-14.744-2.38-5.588-8.123-6.31-13.473-5.876"/>
    <path fill="#000" d="M128.719 71.168c-2.131 3.219-5.273 6.734-6.468 10.447-1.165 3.612.763 7.753 1.745 11.198l3.252 11.421-11.89 2.238c-3.614.68-8.333.81-11.263 3.311-2.827 2.414-4.021 6.715-5.362 10.05-1.782 4.432-3.115 8.975-4.671 13.48-.964 2.785-4.412-.038-6.014-.946l-6.368-3.61-6.369-3.608c-1.691-.959-3.513-2.363-5.523-2.462-2.011-.098-3.853 1.246-5.568 2.143l-6.368 3.323-11.295 5.896-6.377-13.14c-1.198-2.47-2.388-4.943-3.594-7.41-.89-1.818-1.84-3.23-3.793-3.995-2.147-.842-4.61-1.128-6.856-1.626l-8.57-1.897-3.81-.844c-.617-.136-1.892-.168-2.38-.528-.253-.186-.347-.192-.376-.173.006-.042-.001-.151-.076-.422-.241-.88.534-2.822.722-3.742a184.14 184.14 0 0 1 2.877-12.047c.707-2.575 1.756-5.163 2.07-7.822.54-4.559-3.1-8.215-5.542-11.678L6.4 62.409c-.326-.462-2.157-2.459-2.055-2.956.216-1.048 2.864-1.91 3.714-2.387 4.725-2.648 9.603-5.13 14.213-7.974 1.868-1.153 3.224-2.548 3.54-4.796.353-2.513-.108-5.263-.237-7.788l-.856-16.846 25.356 4.749c.118.022.23.026.34.029.486.23 1.074.225 1.675-.196 6.92-4.838 13.018-10.575 18.286-17.134 2.595 3.34 5.188 6.681 7.781 10.02 2.428 3.127 4.875 7.51 9.146 8.191 2.039.325 4.117-.172 6.121-.52l7.622-1.328 13.305-2.316c.12 4.394.24 8.789.362 13.184.11 3.976-.628 9.21 1.497 12.789 2 3.369 5.92 5.951 8.987 8.268 3.104 2.344 6.373 4.442 9.761 6.345l-6.24 9.425m10.026-11.8c-3.535-1.884-6.946-3.98-10.192-6.332a78.322 78.322 0 0 1-4.99-3.941c-1.32-1.132-3.087-2.404-3.97-3.941-1.007-1.75-.777-4.035-.83-5.973l-.186-6.778-.373-13.554c-.037-1.366-1.215-2.11-2.478-1.889-4.446.775-8.892 1.548-13.339 2.322l-6.669 1.16c-2.245.392-4.7 1.137-6.988 1.072-3.75-.105-6.62-5.63-8.66-8.257-2.766-3.562-5.532-7.125-8.298-10.685-.858-1.106-2.413-.483-3.076.396C63.6 9.722 57.468 15.638 50.57 20.532l-27.408-5.133c-1.178-.22-2.548.523-2.479 1.888l.856 16.819c.138 2.719.352 5.446.415 8.168.031 1.345.014 2.216-1.099 3.09-1.086.85-2.482 1.432-3.684 2.105-4.813 2.698-9.825 5.199-14.5 8.127-4.602 2.885-1.104 6.73 1.183 9.974l4.73 6.71c1.339 1.9 3.8 4.357 3.986 6.781.176 2.305-1.158 5.03-1.766 7.205a182.379 182.379 0 0 0-2.122 8.308c-.607 2.63-1.18 5.273-1.647 7.93-.304 1.732-.531 3.534.907 4.84 1.5 1.362 4.125 1.469 6.003 1.885 2.857.632 5.714 1.266 8.57 1.897 2.759.611 6.17.851 8.75 1.995 2.18.966 3.288 5.135 4.265 7.148l8.459 17.434c.476.983 1.8 1.16 2.678.703 4.245-2.218 8.491-4.434 12.737-6.65 2.265-1.181 4.528-2.363 6.793-3.546.771-.402 1.719-1.163 2.547-1.33 1.743-.35 3.198.86 4.59 1.65l12.738 7.218c2.784 1.578 6.572 4.3 9.706 1.98 1.218-.903 1.705-2.287 2.15-3.673.665-2.069 1.273-4.15 1.98-6.206 1.493-4.339 3.062-8.843 5.184-12.922 2.108-4.05 7.296-3.925 11.307-4.68l13.84-2.603c1.034-.194 1.638-1.457 1.367-2.408l-3.437-12.07c-.926-3.252-3.424-8.133-1.746-11.349 1.723-3.3 4.146-6.36 6.202-9.466l6.822-10.303c.568-.858.193-2.202-.702-2.68"/>
    <path fill="#000" d="M73.116 81.78c-2.267.156-4.534.286-6.806.353-1.934.058-6.072.959-7.237-.783-1.322-1.98-1.872-5.3-2.517-7.564a114.304 114.304 0 0 1-1.922-7.852c-2.085-9.958-2.988-20.106-3.812-30.233.282.192.628.32 1.05.332 8.544.262 17.079-.03 25.583-.857-1.447 15.535-2.892 31.07-4.34 46.604m6.5-50.735a201.02 201.02 0 0 1-27.742 1.072c-.647-.018-1.125.227-1.44.601-.841-1.706-3.887-1.472-3.708.755 1.002 12.398 2.008 24.89 4.92 37.015a102.564 102.564 0 0 0 2.455 8.61c.687 2.049 1.28 4.903 3.19 6.214 1.926 1.324 4.925.827 7.11.785 3.505-.068 7.006-.25 10.502-.52 1.133-.087 1.854-.832 1.958-1.958 1.572-16.872 3.142-33.744 4.712-50.616.091-.977-.974-2.065-1.958-1.958M74.027 108.458c-3.379 2.478-8.465 3.097-10.131-1.489-.981-2.699-2.47-9.289 1.13-10.555.01-.002.021 0 .034-.002 3.561-.51 8.579-1.169 11.037 2.165 2.39 3.24.949 7.668-2.07 9.881m-7.183-16.14a2.142 2.142 0 0 0-.453-.05 7.081 7.081 0 0 0-2.238.35c-.044.007-.09.012-.135.018-.44.064-.764.238-.994.473-1.502.804-2.712 2.129-3.449 3.78-1.42 3.184-.725 6.925.231 10.14.843 2.836 2.26 5.64 5.19 6.752 2.915 1.106 6.369.446 9.11-.844 5.524-2.593 8.689-8.921 6.21-14.744-2.38-5.588-8.122-6.31-13.472-5.876"/>
  </g>
</svg>
