<?xml version="1.0" encoding="UTF-8" standalone="no"?>
<svg xmlns="http://www.w3.org/2000/svg" width="196px" height="185px" viewBox="0 0 196 185">
  <g fill="none" fill-rule="evenodd">
    <path fill="#659CCD" d="M88.266 139.48c-13.767-2.745-27.513-5.615-41.293-8.288 13.78 2.673 27.526 5.543 41.293 8.289 18.798 3.748 37.59 7.528 56.394 11.232-18.804-3.704-37.596-7.484-56.394-11.232"/>
    <path fill="#659BCD" d="M144.192 114.369l-38.038-7.463c-2.41-.438-3.044-1.54-2.59-3.94.461-2.445 1.53-3.098 3.89-2.623 12.666 2.55 25.344 5.05 38.037 7.46 2.558.484 3.098 1.603 2.647 4.102-.473 2.615-1.727 2.923-3.946 2.464m-51.14 5.145c-11.688 2.616-23.385 2.601-34.757-1.221-6.228-2.095-12.08-5.379-18.008-8.316-1.298-.643-3.061-2.056-3.117-3.185-.136-2.7.733-5.513 3.446-6.832 1.89-.92 4.025-1.465 6.114-1.824 3.872-.665 7.806-.966 11.68-1.62 2.922-.494 2.944-.693 3.021-4.112-4.448-1.195-8.933-2.46-11.994-6.65 4.292-1.503 5.813-5.062 6.902-8.842 1.418-4.914 2.263-10.033 4.047-14.8 2.742-7.326 10.135-10.739 17.26-8.004 3.483 1.336 6.842 3.38 9.764 5.728 3.525 2.835 3.429 7.238 2.96 11.278-.495 4.273-1.661 8.46-2.365 12.713-.617 3.716-.082 7.203 2.953 9.872-2.163 1.825-2.163 1.825-13.328 1.983-1.22 2.204-.696 3.808 1.53 5.059 4.14 2.327 8.307 4.63 12.306 7.189 3.863 2.47 4.69 4.96 3.931 9.188-.268 1.499-.948 2.083-2.346 2.396m17.406-34.694a4394.259 4394.259 0 0 0 38.03 7.465c2.337.448 3.136 1.405 2.638 3.886-.47 2.34-1.253 3.227-3.753 2.683-6.398-1.396-12.842-2.569-19.269-3.83-6.337-1.245-12.663-2.573-19.021-3.692-2.48-.437-3-1.549-2.555-3.913.464-2.466 1.607-3.065 3.93-2.6m2.837-15.51a3481.984 3481.984 0 0 0 38.282 7.511c2.51.477 2.914 1.68 2.461 3.985-.433 2.208-1.19 3.087-3.583 2.567-6.397-1.387-12.838-2.565-19.263-3.826-6.336-1.244-12.659-2.564-19.014-3.692-2.357-.418-3.215-1.327-2.719-3.812.468-2.338 1.387-3.228 3.836-2.734m59.698.53c.427-2.32-.082-5.05-.893-7.325-1.77-4.966-6.009-6.8-10.846-7.746-36.41-7.114-72.81-14.277-109.216-21.421a30.832 30.832 0 0 0-2.39-.396c-7.41-.86-12.94 3.23-14.342 10.603-4.388 23.032-8.553 46.11-13.283 69.068-1.55 7.521 2.817 15.166 11.123 16.647 4.597.818 9.19 1.672 13.777 2.547 13.763 2.627 27.491 5.45 41.242 8.15 18.775 3.685 37.544 7.402 56.326 11.043 7.312 1.418 13.619-2.646 14.97-9.668 4.58-23.821 9.153-47.644 13.532-71.502"/>
  </g>
</svg>
