<?xml version="1.0" encoding="UTF-8" standalone="no"?>
<svg xmlns="http://www.w3.org/2000/svg" xmlns:xlink="http://www.w3.org/1999/xlink" width="141px" height="108px" viewBox="0 0 141 108">
  <defs>
    <path id="a" d="M0 .767h49.667V38.1H0z"/>
    <path id="c" d="M.486.52h65.481V66H.487z"/>
  </defs>
  <g fill="none" fill-rule="evenodd">
    <path fill="#000" d="M40.165 15.331c0 8.467-6.864 15.331-15.331 15.331-8.468 0-15.332-6.864-15.332-15.33C9.502 6.862 16.366 0 24.834 0c8.467 0 15.33 6.863 15.33 15.331"/>
    <g transform="translate(0 34.41)">
      <mask id="b" fill="#fff">
        <use xlink:href="#a"/>
      </mask>
      <path fill="#000" d="M24 .767h1.667c13.2 0 24 10.8 24 24V32.1c0 3.301-2.7 6-6 6H6c-3.3 0-6-2.699-6-6v-7.333c0-13.2 10.8-24 24-24" mask="url(#b)"/>
    </g>
    <path fill="#000" d="M82.498 24.179c0 8.468-6.864 15.331-15.331 15.331-8.467 0-15.331-6.863-15.331-15.331 0-8.467 6.864-15.331 15.33-15.331 8.468 0 15.332 6.864 15.332 15.331M68 43.51h-1.666c-5.072 0-9.786 1.6-13.673 4.312a28.83 28.83 0 0 1 2.006 10.577v7.334c0 6.065-4.935 11-11 11h-1.022c.796 2.381 3.048 4.111 5.689 4.111H86c3.3 0 6-2.7 6-6V67.51c0-13.199-10.8-24-24-24"/>
    <g transform="translate(75 41.41)">
      <mask id="d" fill="#fff">
        <use xlink:href="#c"/>
      </mask>
      <path fill="#000" d="M65.968 33.26C65.968 51.34 51.309 66 33.227 66 15.145 66 .486 51.341.486 33.26.486 15.176 15.146.52 33.228.52c18.081 0 32.74 14.657 32.74 32.74" mask="url(#d)"/>
    </g>
    <path fill="#FFF" d="M109.307 63.796a4.465 4.465 0 1 0 0-8.93 4.465 4.465 0 0 0 0 8.93M112.93 89.114a89.18 89.18 0 0 0-2.302-.194c-.004-.578-.02-1.142-.008-1.65l.42-16.195c.09-3.44-5.255-3.439-5.343 0l-.263 10.121-.118 4.555c-.022.843-.043 1.688-.066 2.53l-.01.42c-.564-.007-1.127-.015-1.692-.012-3.44.023-3.442 5.292 0 5.344 1.03.016 2.296.163 3.472.052 1.971.062 3.94.18 5.91.373 3.42.332 3.396-5.014 0-5.344"/>
  </g>
</svg>
