<?xml version="1.0" encoding="UTF-8" standalone="no"?>
<svg xmlns="http://www.w3.org/2000/svg" xmlns:xlink="http://www.w3.org/1999/xlink" width="232px" height="147px" viewBox="0 0 232 147">
  <defs>
    <path id="a" d="M0 .551h204v124H0z"/>
  </defs>
  <g fill="none" fill-rule="evenodd">
    <path fill="#FFF" d="M212.99 123H19.01a3.01 3.01 0 0 1-3.01-3.01V13.01C16 7.48 20.481 3 26.01 3h179.98C211.518 3 216 7.48 216 13.01v106.98a3.01 3.01 0 0 1-3.01 3.01"/>
    <g transform="translate(14 .449)">
      <mask id="b" fill="#fff">
        <use xlink:href="#a"/>
      </mask>
      <path fill="#000" d="M12.01 4.55C7.593 4.55 4 8.145 4 12.56v106.98c0 .558.453 1.01 1.01 1.01h193.98c.557 0 1.01-.452 1.01-1.01V12.56c0-4.416-3.593-8.01-8.01-8.01H12.01zm186.98 120H5.01A5.016 5.016 0 0 1 0 119.54V12.56C0 5.94 5.388.55 12.01.55h179.98C198.613.55 204 5.94 204 12.56v106.98a5.016 5.016 0 0 1-5.01 5.01z" mask="url(#b)"/>
    </g>
    <path fill="#FFF" d="M220 144.449H12c-5.523 0-10-4.478-10-10v-10a2 2 0 0 1 2-2h223a3 3 0 0 1 3 3v9c0 5.522-4.477 10-10 10"/>
    <path fill="#000" d="M4 124.449v10c0 4.411 3.589 8 8 8h208c4.411 0 8-3.589 8-8v-9c0-.551-.449-1-1-1H4zm216 22H12c-6.617 0-12-5.383-12-12v-10c0-2.206 1.794-4 4-4h223c2.757 0 5 2.243 5 5v9c0 6.617-5.383 12-12 12zM27.11 48.808a2 2 0 0 1-1.414-3.414L39.9 31.188a2 2 0 1 1 2.828 2.828L28.523 48.222a1.99 1.99 0 0 1-1.414.586M29.95 58.397a2 2 0 0 1-1.414-3.414l20.955-20.954a2 2 0 1 1 2.828 2.828L31.365 57.81a1.99 1.99 0 0 1-1.414.586M216.29 23.833h-200a1.5 1.5 0 1 1 0-3h200a1.5 1.5 0 1 1 0 3"/>
  </g>
</svg>
