<?xml version="1.0" encoding="UTF-8" standalone="no"?>
<svg xmlns="http://www.w3.org/2000/svg" xmlns:xlink="http://www.w3.org/1999/xlink" width="197px" height="145px" viewBox="0 0 197 145">
  <defs>
    <path id="a" d="M0 .928h196.587v143.079H0z"/>
    <path id="c" d="M0 .928h196.587v143.079H0z"/>
  </defs>
  <g fill="none" fill-rule="evenodd">
    <g transform="translate(0 .066)">
      <mask id="b" fill="#fff">
        <use xlink:href="#a"/>
      </mask>
      <path fill="#FFF" d="M193.799 39.217l.102 4.204M90.456 6.997c.991-.809-.42-2.207-1.404-1.404-26.404 21.535-51.8 44.273-78.204 65.81-.467.381-.347 1.309.2 1.56 1.069.489 2.143.963 3.214 1.449-1.71 2.059-3.698 3.708-6.076 4.976-.514.274-.702 1.168-.201 1.559a70.787 70.787 0 0 0 3.325 2.432A37.787 37.787 0 0 1 .737 87.971a.881.881 0 0 0-.688.778c-.122.383-.029.81.45 1.038 1.295.614 2.59 1.222 3.886 1.832.093 3.85 1.54 7.414 1.234 11.342-.036.468.341.803.73.957 15.373 6.132 29.962 14.006 45.086 20.697 7.06 3.123 14.2 5.905 21.623 8.042 7.273 2.094 14.567 4.018 21.746 6.423 5.653 1.893 11.41 3.836 17.34 4.636 2.133.288 4.376.473 6.5.009 2.558-.557 4.266-2.492 6.202-4.137 12.158-10.33 24.32-20.462 35.277-32.092 11.444-12.148 25.158-22.003 36.143-34.593.197-.159.33-.4.321-.736l-.838-34.424a1.017 1.017 0 0 0-.082-.36c.41-.555.066-1.283-.547-1.524A1301.253 1301.253 0 0 0 94.79.975c-1.226-.37-1.75 1.546-.528 1.916" mask="url(#b)"/>
    </g>
    <path fill="#FFF" d="M95.382 13.312c-2.556 0-2.56 3.972 0 3.972 2.556 0 2.56-3.972 0-3.972M113.26 19.933c-2.557 0-2.561 3.973 0 3.973 2.555 0 2.56-3.973 0-3.973M124.515 25.23c-2.556 0-2.56 3.972 0 3.972 2.556 0 2.56-3.972 0-3.972M144.378 30.527c-2.556 0-2.56 3.972 0 3.972 2.556 0 2.56-3.972 0-3.972M164.903 37.148c-2.556 0-2.56 3.972 0 3.972 2.555 0 2.56-3.972 0-3.972"/>
    <g transform="translate(0 .066)">
      <mask id="d" fill="#fff">
        <use xlink:href="#c"/>
      </mask>
      <path fill="#000" d="M163.672 101.068c-5.41 5.27-10.391 10.936-15.919 16.093-5.687 5.301-11.626 10.324-17.57 15.331-2.961 2.496-5.927 4.987-8.868 7.506-2.01 1.723-3.888 2.11-6.52 1.99-5.864-.267-11.71-2.272-17.245-4.087-14.204-4.66-28.802-7.957-42.564-13.888-15.953-6.876-31.245-15.204-47.365-21.7.104-3.363-.958-6.467-1.216-9.745 26.406 12.362 53.32 23.802 80.953 33.116 7.237 2.44 14.53 4.72 21.887 6.77 1.701.475 3.404.966 5.12 1.386 1.621.396 2.37-.406 3.752-1.297a184.09 184.09 0 0 0 9.669-6.68c12.26-9.057 23.151-19.597 33.026-31.185 10.43-12.24 20.4-25.579 33.48-35.169l.3 12.285c-9.384 10.674-20.76 19.38-30.92 29.274m-106.506 1.961l58.236 20.446c.416.146.742.005.952-.247.005-.004.01-.004.015-.008 21.607-18.801 42.081-38.95 61.765-59.747a921.454 921.454 0 0 0 15.836-17.178c.089 3.6.176 7.201.264 10.801-11.5 8.173-20.595 19.251-29.6 29.978-9.524 11.345-19.335 22.215-30.835 31.62a182.103 182.103 0 0 1-9.836 7.497 181.487 181.487 0 0 1-4.301 2.964c-1.411.944-3.415 2.849-5.16 2.666-3.508-.366-7.337-2.001-10.72-3.005a437.799 437.799 0 0 1-10.555-3.28c-14.87-4.825-29.508-10.355-43.974-16.28-15.342-6.284-30.484-13.048-45.478-20.122a39.48 39.48 0 0 0 8.95-4.284c.135-.088.239-.192.311-.306 13.35 8.72 29.22 13.25 44.13 18.485M15.943 75.5c.068-.084.114-.173.151-.262a958.26 958.26 0 0 0 75.587 30.312 975.158 975.158 0 0 0 9.965 3.448c3.228 1.098 6.514 2.48 9.917 2.927 6.333.832 10.41-3.432 14.605-7.48l32.571-31.414 35.06-33.815.102 4.205a961.829 961.829 0 0 1-62.433 63.542 697.428 697.428 0 0 1-16.023 14.427l-55.888-19.622C42.92 95.926 24.767 91.082 10.464 80.34c2.092-1.297 3.922-2.886 5.48-4.84m180.643-3.333l-.838-34.424a1.017 1.017 0 0 0-.082-.36c.41-.555.066-1.283-.547-1.524A1301.253 1301.253 0 0 0 94.79.975c-1.226-.37-1.75 1.546-.528 1.916a1301.123 1301.123 0 0 1 98.79 34.286l-61.208 59.035-7.788 7.513c-2.307 2.224-4.64 4.821-7.754 5.88-3.52 1.196-7.15-.175-10.492-1.294A959.504 959.504 0 0 1 56.4 90.216a945.457 945.457 0 0 1-42.995-18.36c25.99-21.255 51.034-43.638 77.051-64.86.991-.808-.42-2.205-1.404-1.404-26.404 21.536-51.8 44.274-78.204 65.81-.467.382-.347 1.31.2 1.56 1.069.49 2.143.964 3.214 1.45-1.71 2.059-3.698 3.708-6.076 4.975-.514.275-.702 1.168-.201 1.56a70.787 70.787 0 0 0 3.325 2.432A37.787 37.787 0 0 1 .737 87.97a.882.882 0 0 0-.688.778c-.122.383-.029.81.45 1.038 1.295.613 2.59 1.223 3.886 1.832.093 3.85 1.54 7.415 1.234 11.342-.036.468.341.803.73.958 15.373 6.13 29.962 14.005 45.086 20.695 7.06 3.124 14.2 5.906 21.623 8.043 7.273 2.094 14.567 4.017 21.746 6.423 5.653 1.894 11.41 3.836 17.34 4.636 2.133.288 4.376.472 6.5.01 2.558-.558 4.266-2.493 6.202-4.137 12.158-10.332 24.32-20.463 35.277-32.093 11.444-12.149 25.158-22.003 36.143-34.592.197-.16.33-.402.321-.737" mask="url(#d)"/>
    </g>
    <path fill="#000" d="M95.382 13.312c-2.556 0-2.56 3.972 0 3.972 2.556 0 2.56-3.972 0-3.972M113.26 19.933c-2.557 0-2.561 3.973 0 3.973 2.555 0 2.56-3.973 0-3.973M124.515 25.23c-2.556 0-2.56 3.972 0 3.972 2.556 0 2.56-3.972 0-3.972M144.378 30.527c-2.556 0-2.56 3.972 0 3.972 2.556 0 2.56-3.972 0-3.972M164.903 37.148c-2.556 0-2.56 3.972 0 3.972 2.555 0 2.56-3.972 0-3.972"/>
  </g>
</svg>
