<?xml version="1.0" encoding="UTF-8" standalone="no"?>
<svg xmlns="http://www.w3.org/2000/svg" width="90px" height="90px" viewBox="0 0 90 90">
  <g fill="#000" fill-rule="evenodd">
    <path d="M42.39 35.573c.11-1.046.247-1.948.293-2.854a24.043 24.043 0 0 0-1.024-8.358 3.559 3.559 0 0 1-.095-1.612c.163-.92.727-1.612 1.665-1.841.95-.231 1.722.176 2.303.915.237.304.436.666.551 1.033 1.79 5.677 1.793 11.362.006 17.04-.43 1.368-1.486 2.148-2.727 1.965-.49-.072-1-.326-1.405-.627-4.834-3.62-9.65-7.262-14.472-10.897-.205-.155-.418-.3-.696-.5-.399 1.494-.407 2.916-.063 4.334.231.954.528 1.893.816 2.833.225.737.257 1.455-.064 2.175-.667 1.498-2.306 1.865-3.5.747-.31-.29-.6-.668-.739-1.062-.826-2.335-1.527-4.701-1.443-7.222.075-2.26.666-4.41 1.472-6.492.668-1.726 2.431-2.134 3.923-1.011 4.842 3.646 9.68 7.297 14.52 10.946.182.138.372.268.68.488M36.213 76.033c-1.213 0-2.373.026-3.53-.023-.229-.01-.522-.265-.657-.485-1.97-3.205-3.917-6.424-5.87-9.639-.098-.159-.204-.312-.408-.626v10.742h-3.893V57.644c1.217 0 2.436-.02 3.652.022.186.007.413.276.536.476 1.928 3.154 3.842 6.316 5.761 9.475.131.216.275.423.492.757V57.695h3.917v18.338zM67.79 31.414c-.025 6.07-1.096 11.997-3.276 17.72-.055.143-.104.29-.17.426-.578 1.215-1.866 1.812-2.974 1.383-1.17-.452-1.769-1.817-1.37-3.11.635-2.066 1.39-4.106 1.881-6.206 2.073-8.845 1.475-17.54-1.64-26.072-.199-.54-.343-1.144-.326-1.713.03-.973.566-1.692 1.495-2.043.9-.34 1.701-.07 2.338.583.325.333.58.775.747 1.213 2.196 5.716 3.268 11.645 3.294 17.82M57.56 31.4c.019 4.312-.832 8.465-2.28 12.509-.03.082-.065.162-.1.242-.564 1.312-1.86 1.977-3.006 1.543-1.175-.443-1.771-1.833-1.383-3.17.505-1.738 1.095-3.461 1.467-5.228 1.17-5.574.639-11.04-1.221-16.4-.197-.566-.342-1.19-.327-1.78.026-.998.564-1.73 1.525-2.086.826-.306 1.778-.043 2.41.737.308.38.538.848.706 1.31 1.437 3.98 2.229 8.08 2.209 12.323M51.992 57.688v3.877H44.19v2.634h6.486v3.926h-6.522v7.874h-3.905V57.688zM66.974 72.245c.159.827.318 1.73.51 2.625.074.344-.061.477-.361.56-3.314.91-6.587.993-9.673-.738-2.533-1.42-3.747-3.758-3.945-6.575a12.784 12.784 0 0 1 .312-3.897c.868-3.532 3.86-5.972 7.624-6.447 1.822-.23 3.623-.167 5.406.272.31.076.606.21.94.326l-.845 3.105c-.71-.163-1.378-.42-2.056-.45-1.06-.05-2.165-.11-3.184.124-2.642.608-4.115 2.916-3.967 5.943.176 3.6 2.313 5.63 5.922 5.542 1.082-.026 2.159-.248 3.317-.39"/>
  </g>
</svg>
