<?xml version="1.0" encoding="UTF-8" standalone="no"?>
<svg xmlns="http://www.w3.org/2000/svg" width="107px" height="165px" viewBox="0 0 107 165">
  <g fill="none" fill-rule="evenodd">
    <path fill="#000" fill-rule="nonzero" d="M17 9a5 5 0 0 0-5 5v138a5 5 0 0 0 5 5h74a5 5 0 0 0 5-5V14a5 5 0 0 0-5-5H17zm0-5h74c5.523 0 10 4.477 10 10v138c0 5.523-4.477 10-10 10H17c-5.523 0-10-4.477-10-10V14C7 8.477 11.477 4 17 4z"/>
    <path fill="#000" d="M17 4h74c5.523 0 10 4.477 10 10v6H7v-6C7 8.477 11.477 4 17 4zm0 158c-5.523 0-10-4.477-10-10v-16h94v16c0 5.523-4.477 10-10 10H17z"/>
    <circle cx="53.5" cy="148.5" r="4.5" fill="#FFF"/>
    <path fill="#EDF5FB" d="M12 136h84V20H12z" opacity=".5"/>
  </g>
</svg>
