<?xml version="1.0" encoding="UTF-8" standalone="no"?>
<svg xmlns="http://www.w3.org/2000/svg" width="600" height="600" viewBox="0 0 158.75 158.75">
  <g transform="translate(0,-138.25001)">
    <g transform="matrix(0.85786241,0,0,0.85786241,31.443598,145.07437)" style="fill:none;fill-rule:evenodd">
      <path d="m 17,9 a 5,5 0 0 0 -5,5 v 138 a 5,5 0 0 0 5,5 h 74 a 5,5 0 0 0 5,-5 V 14 A 5,5 0 0 0 91,9 Z m 0,-5 h 74 c 5.523,0 10,4.477 10,10 v 138 c 0,5.523 -4.477,10 -10,10 H 17 C 11.477,162 7,157.523 7,152 V 14 C 7,8.477 11.477,4 17,4 Z" style="fill:#000000;fill-rule:nonzero" />
      <path d="m 17,4 h 74 c 5.523,0 10,4.477 10,10 v 6 H 7 V 14 C 7,8.477 11.477,4 17,4 Z m 0,158 C 11.477,162 7,157.523 7,152 v -16 h 94 v 16 c 0,5.523 -4.477,10 -10,10 z" fill="#000000" />
      <circle id="circle5123" r="4.5" cy="148.5" cx="53.5" style="fill:#ffffff" />
      <path d="M 12,136 H 96 V 20 H 12 Z" style="opacity:0.5;fill:#edf5fb" />
    </g>
    <rect fill="#164a8c" width="72.032883" height="10.130742" x="41.737949" y="162.23161" />
    <rect fill="#164a8c" width="61.071571" height="10.130743" x="47.232815" y="246.01053" />
    <rect fill="#000000" width="62.177082" height="3.0238097" x="46.49107" y="178.59897" />
    <rect fill="#000000" width="62.177082" height="3.0238097" x="46.434376" y="188.76637" />
    <rect fill="#000000" width="62.177082" height="3.0238097" x="46.434376" y="199.87872" />
  </g>
</svg>
