<?xml version="1.0" encoding="UTF-8" standalone="no"?>
<svg xmlns="http://www.w3.org/2000/svg" xmlns:xlink="http://www.w3.org/1999/xlink" width="205px" height="218px" viewBox="0 0 205 218">
  <path fill="#000" d="M192.844 64.257a1435.822 1435.822 0 0 1-21.516 62.09c-6.846 18.38-13.311 37.408-22.495 54.784-2.01 3.798-4.256 7.554-6.77 11.097-42.71-12.288-86.045-24.987-130.343-29.87a1.756 1.756 0 0 0-.834.098c8.314-16.778 17.706-33.15 26.402-49.69 9.93-18.884 19.622-37.921 30.053-56.537 5.49-9.793 11.25-19.446 17.557-28.74 1.917-2.82 3.89-5.61 5.909-8.364.18.103.369.197.62.237a6792.713 6792.713 0 0 0 108.398 16.775c.322.047.615.015.879-.064-.64 9.506-5.044 19.412-7.86 28.184m-80.769 149.205c-11.055 2.035-22.416-.397-33.125-3.126-10.438-2.662-20.827-5.536-31.236-8.315-10.533-2.81-21.09-5.547-31.604-8.435-4.962-1.363-10.646-3.058-12.018-8.731-1.179-4.869.972-10.225 3.01-14.564a397.641 397.641 0 0 1 2.843-5.905c.122.854.694 1.679 1.775 1.797 43.437 4.788 85.984 17.255 127.877 29.317-6.999 8.82-15.925 15.83-27.522 17.962m-1.113-209.16c11.897.024 24.066 1.902 35.854 3.372 12.668 1.58 25.28 3.565 37.835 5.877.055.01.1-.008.153-.002.118.02.22.072.354.07 8.48-.038 15.19 11.044 15.588 18.56.003.085.002.171.005.255A6808.827 6808.827 0 0 1 93.325 15.817c.83-1.085 1.63-2.196 2.483-3.26 4.118-5.137 8.295-8.268 15.154-8.254m91.988 20.345c-2.878-6.85-9.569-14.756-17.605-14.844C161.615 5.441 137.39 1.782 113.27.56c-4.09-.206-8.39-.043-12.11 1.869-4.4 2.262-7.392 6.52-10.331 10.34-7.07 9.19-13.463 18.876-19.428 28.81C59.189 61.918 48.526 83.18 37.49 104.168l-17.53 33.339c-5.6 10.65-11.853 21.176-16.768 32.158-3 6.701-5.377 15.482.047 21.659 2.708 3.084 6.676 4.478 10.507 5.584 5.828 1.683 11.736 3.14 17.6 4.704l36.123 9.642c10.892 2.906 21.902 6.176 33.234 6.689 19.375.878 32.985-8.422 43.229-21.902.283-.212.484-.512.621-.847 12.571-16.986 20.006-40.251 26.875-58.301a1433.407 1433.407 0 0 0 27.35-78.675c3.252-10.317 8.682-22.839 4.17-33.57" mask="url(#b)"/>
  <path fill="#000" d="M69.568 196.302c-2.95.71-6.341.58-9.177-.5-2.268-.864-4.502-2.657-5.176-5.11-.995-3.635 2.836-8.106 6.211-4.674 1.332 1.35 3.22.03 3.197-1.442 3.89-.198 8.464-.08 10.537 3.554 2.486 4.353-1.72 7.24-5.592 8.172m-6.799-15.395c-.61.037-1.067.308-1.37.687-4.34-1.583-9.585 1.365-10.15 6.457-.882 7.94 7.186 12.17 13.993 12.413 5.734.206 13.64-2.346 14.577-8.916 1.362-9.536-10.402-11.044-17.05-10.641M137.87 16.567a47.201 47.201 0 0 1 17.524 2.256c2.362.765 3.372-2.963 1.025-3.726a50.21 50.21 0 0 0-18.549-2.394c-2.46.143-2.478 4.007 0 3.864"/>
</svg>
