<?xml version="1.0" encoding="UTF-8" standalone="no"?>
<svg xmlns="http://www.w3.org/2000/svg" xmlns:xlink="http://www.w3.org/1999/xlink" width="83px" height="114px" viewBox="0 0 83 114">
  <defs>
    <path id="a" d="M0 .055h82.045v85.819H0z"/>
    <path id="c" d="M0 .055h82.045v85.819H0z"/>
  </defs>
  <g fill="none" fill-rule="evenodd">
    <path fill="#FFF" d="M27.15 94.82c-.072.003-.125.032-.19.047-.008 0-.017-.005-.027-.006-.03-.006-.054.003-.083 0-.061-.01-.113-.037-.182-.036-4.771.027-9.301 3.49-9.834 8.39-.514 4.713 3.045 9.532 7.818 10.103.308.037.616.052.923.054a.855.855 0 0 0 .548.357c5.357 1.127 12.312-2.26 13.18-8.016 1.068-7.08-5.768-11.226-12.153-10.894"/>
    <g transform="translate(0 .945)">
      <mask id="b" fill="#fff">
        <use xlink:href="#a"/>
      </mask>
      <path fill="#FFF" d="M76.39 11.33c-3.51-4.614-9.378-8.127-15.268-8.444C56.562 1.159 51.478.538 46.747.211c-7.07-.488-14.32.13-21.07 2.375C12.65 6.92 1.74 18.006.65 32.113c-.955.181-.857 1.837.297 1.974 4.997.594 10.015.963 15.048 1.055.695.013 1.536.115 2.296.01.124.067.268.113.437.122 1.77.1 3.514.091 5.286.042a1.022 1.022 0 0 0 1-1c.165-3.84.428-9.092 2.563-12.45 1.53-2.407 5.702-5.294 8.571-5.239.017.001.028-.007.044-.007 1.854-.02 3.734.213 5.556.738 4.703 1.355 8.846 5.089 9.136 10.224.278 4.926-3.76 8.209-7.454 10.696-6.619 4.457-13.92 8.521-18.376 15.387-2.85 4.393-4.362 9.666-5.518 14.726-1.22 5.34-1.834 10.791-1.92 16.266-.01.541.463.999 1 1 4.116.004 8.548.477 12.634.013.233-.027.435-.079.623-.144.037-.001.066.012.104.007a43.125 43.125 0 0 1 5.585-.389c.556-.004.98-.455 1-1 .142-3.763.482-7.694 2.403-11.024 1.868-3.239 5.385-5.538 8.243-7.844 2.12-1.709 4.328-3.186 6.654-4.413.092-.004.182 0 .285-.035 6.53-2.193 13.41-4.794 18.23-9.934 4.773-5.086 6.96-12.351 7.54-19.168.628-7.384-.998-14.442-5.526-20.396" mask="url(#b)"/>
    </g>
    <path fill="#000" d="M37.268 105.791c-.622 2.882-3.37 4.986-6.339 5.8 1.862-1.36 3.224-3.392 3.54-5.732.397-2.959-.932-6.292-3.163-8.533 3.786 1.117 6.921 4.021 5.962 8.465m-18.476-2.238c.344-3.924 4.022-6.65 7.77-6.722 3.363.761 6.025 4.65 5.987 8.025-.04 3.718-3.625 6.702-7.258 6.517-3.835-.194-6.827-4.082-6.499-7.82m8.358-8.734c-.072.004-.125.034-.19.05l-.027-.008c-.029-.006-.054.004-.083 0-.06-.01-.113-.036-.183-.036-4.77.028-9.3 3.49-9.834 8.39-.513 4.714 3.046 9.533 7.82 10.103.306.037.615.053.922.054a.856.856 0 0 0 .547.357c5.358 1.127 12.313-2.259 13.181-8.016 1.068-7.08-5.768-11.226-12.153-10.894"/>
    <g transform="translate(0 .945)">
      <mask id="d" fill="#fff">
        <use xlink:href="#c"/>
      </mask>
      <path fill="#000" d="M79.838 32.533c-.686 6.398-2.932 13.182-7.659 17.735-2.489 2.398-5.46 4.153-8.6 5.585-6.23 1.418-11.523 4.51-16.46 8.562-3.023 2.481-6.44 4.806-8.256 8.383-1.632 3.215-2.08 6.826-2.257 10.387a46.655 46.655 0 0 0-3.155.202c.166-.892.15-1.91.225-2.799.331-3.894.538-8.09 2.75-11.462 2.1-3.204 5.492-5.645 8.534-7.889 5.631-4.152 11.84-7.099 17.86-10.589 5.032-2.916 9.707-6.64 11.913-12.194 4.022-10.129 1.744-24.334-6.793-31.619a21.39 21.39 0 0 1 7.662 6.802c3.862 5.656 4.958 12.171 4.236 18.896m-54.42 51.13l-5.776-.005c.147-5.272.794-10.5 2.032-15.634 1.304-5.4 3.013-10.979 6.56-15.36 3.017-3.724 6.951-6.552 10.912-9.184 3.54-2.352 7.498-4.47 10.421-7.615 5.69-6.12 3.325-15.169-3.779-19.017C39.155 13.255 29.875 13.97 24 18.755c-3.9 3.178-4.84 7.45-5.55 12.198-.064.436-.115 1.901-.57 2.212-.319.218-2.436-.034-2.829-.044a145.143 145.143 0 0 1-4.712-.193 148.076 148.076 0 0 1-7.704-.664C3.532 19.842 12.9 9.626 24.198 5.237c6.072-2.359 12.603-3.276 19.094-3.174 5.587.09 11.702.637 17.045 2.676.046.025.104.036.156.054.783.303 1.548.638 2.292 1.01C73.77 11.295 77.217 26.95 72.838 37.797c-2.309 5.718-7.445 9.176-12.649 12.038-5.289 2.91-10.609 5.612-15.524 9.155-5.199 3.747-10.524 7.732-12.059 14.28-.337 1.437-.518 2.911-.672 4.378-.133 1.276.145 3.945-.45 5.032-.933 1.707-4.389.985-6.067.983m1.104-63.75c-2.818 3.3-3.262 9.057-3.464 13.415-.92.017-1.84.013-2.757-.008.42-1.472.235-3.507.45-4.719.772-4.36 3.275-7.575 6.597-9.576a15.17 15.17 0 0 0-.826.888m49.87-8.583c-3.51-4.614-9.379-8.127-15.269-8.444C56.562 1.16 51.478.538 46.747.211c-7.07-.489-14.32.13-21.07 2.375C12.65 6.92 1.74 18.006.65 32.113c-.956.181-.857 1.837.296 1.974 4.997.594 10.016.963 15.048 1.055.696.013 1.536.115 2.297.01.124.067.268.112.437.122 1.77.1 3.513.091 5.286.042.557-.016.975-.447 1-1 .165-3.84.428-9.092 2.562-12.45 1.531-2.407 5.702-5.294 8.572-5.239.017.001.028-.007.044-.008 1.854-.02 3.734.214 5.556.74 4.702 1.354 8.846 5.088 9.136 10.223.277 4.926-3.76 8.21-7.454 10.696-6.619 4.457-13.92 8.521-18.376 15.387-2.85 4.393-4.362 9.666-5.519 14.725-1.219 5.341-1.834 10.791-1.92 16.267-.009.541.464 1 1 1 4.117.004 8.55.477 12.635.013.233-.027.435-.079.623-.144.036 0 .066.011.104.007a43.125 43.125 0 0 1 5.585-.389c.555-.004.98-.455 1-1 .142-3.763.482-7.694 2.403-11.025 1.868-3.238 5.385-5.537 8.243-7.843 2.12-1.709 4.327-3.186 6.653-4.413.092-.004.183 0 .286-.035 6.53-2.193 13.41-4.794 18.23-9.934 4.773-5.087 6.96-12.35 7.54-19.168.628-7.384-.998-14.442-5.526-20.396" mask="url(#d)"/>
    </g>
  </g>
</svg>
