<?xml version="1.0" encoding="UTF-8" standalone="no"?>
<svg xmlns="http://www.w3.org/2000/svg" xmlns:xlink="http://www.w3.org/1999/xlink" width="77px" height="89px" viewBox="0 0 77 89">
  <defs>
    <path id="a" d="M0 0h77v89H0z"/>
    <path id="c" d="M0 89h77V0H0z"/>
  </defs>
  <g fill="none" fill-rule="evenodd">
    <path fill="#FFF" d="M69.791 85.5h-62a6 6 0 0 1-6-6v-70c0-3.3 2.7-6 6-6h62c3.3 0 6 2.7 6 6v70c0 3.3-2.7 6-6 6"/>
    <mask id="b" fill="#fff">
      <use xlink:href="#a"/>
    </mask>
    <path fill="#000" d="M74 79.5c0 3.584-2.732 6.5-6.09 6.5H9.089c-3.358 0-6.09-2.916-6.09-6.5v-70C3 5.916 5.732 3 9.09 3h58.82C71.269 3 74 5.916 74 9.5v70zM67.91 0H9.089C4.078 0-.001 4.262-.001 9.5v70C0 84.738 4.079 89 9.09 89h58.82c5.013 0 9.09-4.262 9.09-9.5v-70C77 4.262 72.923 0 67.91 0z" mask="url(#b)"/>
    <path fill="#000" d="M61 28.338c0 .827-.674 1.5-1.5 1.5h-42c-.828 0-1.5-.673-1.5-1.5v-14c0-.827.672-1.5 1.5-1.5h42c.826 0 1.5.673 1.5 1.5v14zm-1.5-18.5h-42a4.505 4.505 0 0 0-4.5 4.5v14c0 2.48 2.018 4.5 4.5 4.5h42c2.48 0 4.5-2.02 4.5-4.5v-14c0-2.481-2.02-4.5-4.5-4.5z"/>
    <mask id="d" fill="#fff">
      <use xlink:href="#c"/>
    </mask>
    <path fill="#000" d="M14.208 47.48h8v-4h-8zM34.208 47.48h8v-4h-8zM54.208 47.48h8v-4h-8zM14.208 62.813h8v-4h-8zM34.208 62.813h8v-4h-8zM54.208 62.813h8v-4h-8zM14.208 78.147h8v-4h-8zM34.208 78.147h8v-4h-8zM54.208 78.147h8v-4h-8z" mask="url(#d)"/>
  </g>
</svg>
