<?xml version="1.0" encoding="UTF-8" standalone="no"?>
<svg xmlns="http://www.w3.org/2000/svg" width="78px" height="109px" viewBox="0 0 78 109">
  <defs>
    <filter id="a" width="135.9%" height="125.7%" x="-15.4%" y="-9.2%" filterUnits="objectBoundingBox">
      <feOffset dx="2" dy="4" in="SourceAlpha" result="shadowOffsetOuter1"/>
      <feGaussianBlur in="shadowOffsetOuter1" result="shadowBlurOuter1" stdDeviation="4"/>
      <feColorMatrix in="shadowBlurOuter1" result="shadowMatrixOuter1" values="0 0 0 0 0 0 0 0 0 0 0 0 0 0 0 0 0 0 0.3 0"/>
      <feMerge>
        <feMergeNode in="shadowMatrixOuter1"/>
        <feMergeNode in="SourceGraphic"/>
      </feMerge>
    </filter>
  </defs>
  <g fill="none" fill-rule="evenodd" filter="url(#a)">
    <path fill="#E9D048" d="M.98 17.01l20.71-5.702c.148-.04.19-.054.238-.07a.832.832 0 0 0 .13-.06c.044-.024.082-.049.21-.134L37.247 1.12c.29-.192.407-.241.546-.274a.893.893 0 0 1 .416 0c.139.033.256.082.546.274l14.966 9.917c.133.088.172.113.219.138a.833.833 0 0 0 .137.061c.05.017.095.03.25.069l22.67 5.722c.372.094.5.159.626.255a.9.9 0 0 1 .284.365c.063.146.094.285.094.67V83.13c0 .313-.017.424-.056.546a.885.885 0 0 1-.18.322c-.084.096-.17.169-.437.332l-38.59 23.561c-.286.175-.4.22-.535.248a.89.89 0 0 1-.4-.004c-.133-.032-.246-.08-.528-.26L.649 84.335c-.259-.165-.342-.238-.422-.333a.884.884 0 0 1-.174-.319C.016 83.565 0 83.456 0 83.148v-64.85c0-.38.03-.517.091-.662a.898.898 0 0 1 .276-.362c.123-.097.248-.163.613-.263z"/>
    <path fill="#000" d="M38 .828a.962.962 0 0 1 .036.008c.139.032.256.082.545.272l15.037 9.923c.132.087.172.112.218.137a.833.833 0 0 0 .137.06c.05.018.095.03.25.069l22.772 5.724c.372.094.5.159.627.255a.9.9 0 0 1 .284.365c.063.146.094.285.094.67v64.822c0 .313-.017.425-.056.546a.886.886 0 0 1-.181.323c-.084.096-.17.169-.438.331l-38.76 23.569c-.286.173-.4.218-.534.246a.962.962 0 0 1-.031.006V.828z" opacity=".1"/>
    <path fill="#FFF" d="M30.045 63.896l-9.784-10.657L17 56.79 30.045 71 58 40.552 54.739 37z"/>
  </g>
</svg>
