<?xml version="1.0" encoding="UTF-8" standalone="no"?>
<svg xmlns="http://www.w3.org/2000/svg" width="99px" height="143px" viewBox="0 0 99 143">
  <g fill="none" fill-rule="evenodd">
    <path fill="#FFF" d="M1.127 129.491v-116c0-6.627 5.373-12 12-12h72.25c6.6 0 12 5.4 12 12v116c0 6.6-5.4 12-12 12h-72.25c-6.6 0-12-5.4-12-12"/>
    <path fill="#000" d="M12.287 138.544c-4.74 0-8.597-3.856-8.597-8.597v-8.403h91.123v8.403c0 4.741-3.856 8.597-8.596 8.597h-73.93zm0-134.105h73.93c4.74 0 8.596 3.856 8.596 8.596v1.482H3.69v-1.482c0-4.74 3.857-8.596 8.597-8.596zM3.69 119.824h91.123V16.236H3.69v103.588zm94.562 10.123V13.035C98.252 6.399 92.852 1 86.217 1h-73.93C5.65 1 .252 6.399.252 13.035v116.912c0 6.637 5.399 12.035 12.035 12.035h73.93c6.636 0 12.035-5.398 12.035-12.035z"/>
    <path fill="#000" d="M52.69 129.81a3.44 3.44 0 1 0-6.878 0 3.44 3.44 0 0 0 6.878 0M46.852 54.085c.11-1.046.247-1.948.293-2.854a24.022 24.022 0 0 0-1.024-8.358 3.573 3.573 0 0 1-.095-1.612c.163-.92.727-1.612 1.665-1.841.95-.231 1.723.176 2.303.915.238.304.436.666.552 1.033 1.788 5.677 1.793 11.362.005 17.04-.43 1.368-1.486 2.148-2.727 1.965-.49-.072-1-.326-1.404-.627-4.835-3.619-9.65-7.262-14.473-10.897-.205-.155-.418-.3-.696-.499-.399 1.493-.407 2.915-.063 4.333.232.954.53 1.893.816 2.833.225.737.258 1.455-.064 2.175-.667 1.498-2.305 1.866-3.5.747-.31-.29-.6-.668-.739-1.061-.826-2.336-1.527-4.702-1.443-7.223.076-2.259.666-4.41 1.472-6.492.668-1.726 2.431-2.134 3.923-1.011 4.842 3.646 9.68 7.297 14.52 10.946.182.138.372.268.68.488M40.676 94.546c-1.213 0-2.374.025-3.53-.023-.23-.01-.522-.265-.657-.485-1.97-3.205-3.917-6.424-5.872-9.64-.096-.158-.202-.311-.406-.625v10.742h-3.894V76.156c1.218 0 2.437-.02 3.653.022.186.007.413.276.536.477 1.928 3.153 3.842 6.314 5.76 9.474.132.216.275.423.493.757v-10.68h3.917v18.339zM72.251 49.927c-.025 6.069-1.095 11.997-3.276 17.72-.053.143-.103.289-.168.426-.579 1.215-1.867 1.812-2.975 1.383-1.17-.452-1.768-1.817-1.37-3.111.635-2.065 1.388-4.105 1.88-6.205 2.075-8.844 1.477-17.54-1.64-26.072-.198-.541-.343-1.144-.325-1.713.03-.973.566-1.692 1.496-2.043.898-.34 1.7-.071 2.337.584.325.332.58.774.748 1.212 2.195 5.716 3.267 11.645 3.293 17.819M62.022 49.913c.019 4.312-.832 8.464-2.28 12.508a3.433 3.433 0 0 1-.1.243c-.565 1.312-1.86 1.976-3.007 1.543-1.173-.443-1.77-1.834-1.383-3.17.505-1.74 1.095-3.461 1.467-5.23 1.172-5.572.64-11.037-1.22-16.4-.198-.564-.343-1.187-.328-1.78.026-.996.565-1.727 1.526-2.084.825-.307 1.778-.044 2.41.736.307.38.538.848.706 1.312 1.436 3.98 2.23 8.079 2.209 12.322M56.454 76.2v3.877h-7.802v2.634h6.486v3.926h-6.522v7.874h-3.905v-18.31zM71.436 90.757c.159.828.318 1.73.51 2.626.074.344-.061.477-.362.56-3.313.91-6.586.993-9.672-.738-2.533-1.42-3.747-3.76-3.945-6.576a12.815 12.815 0 0 1 .311-3.896c.868-3.532 3.862-5.973 7.625-6.447 1.821-.23 3.622-.167 5.406.272.31.076.606.209.939.326l-.844 3.105c-.709-.163-1.378-.42-2.057-.451-1.059-.05-2.164-.11-3.183.126-2.642.607-4.115 2.915-3.967 5.942.176 3.599 2.312 5.63 5.922 5.542 1.082-.027 2.158-.25 3.317-.391"/>
  </g>
</svg>
