<?xml version="1.0" encoding="UTF-8" standalone="no"?>
<svg xmlns="http://www.w3.org/2000/svg" width="164px" height="115px" viewBox="0 0 164 115">
  <g fill="none" fill-rule="evenodd">
    <path fill="#FFF" d="M150 114.772H14c-7.72 0-14-6.28-14-14v-86c0-7.72 6.28-14 14-14h136c7.72 0 14 6.28 14 14v86c0 7.72-6.28 14-14 14"/>
    <path fill="#000" d="M14 4.772c-5.514 0-10 4.486-10 10v86c0 5.514 4.486 10 10 10h136c5.514 0 10-4.486 10-10v-86c0-5.514-4.486-10-10-10H14zm136 110H14c-7.72 0-14-6.28-14-14v-86c0-7.72 6.28-14 14-14h136c7.72 0 14 6.28 14 14v86c0 7.72-6.28 14-14 14z"/>
    <path fill="#000" d="M27.006 29.859a2 2 0 0 1-1.414-3.414l14.206-14.206a2 2 0 1 1 2.828 2.828L28.42 29.273a1.99 1.99 0 0 1-1.414.586M29.848 39.448a2 2 0 0 1-1.414-3.414L49.388 15.08a2 2 0 1 1 2.828 2.828L31.262 38.862a1.99 1.99 0 0 1-1.414.586M16.724 112.272V3.273v108.999zM15.724 112.272h2V3.273h-2zM139.225 113.272a1 1 0 0 1-1-1v-109a1 1 0 0 1 2 0v109a1 1 0 0 1-1 1M153.84 57.772a4 4 0 1 1-8.001 0 4 4 0 0 1 8 0"/>
  </g>
</svg>
