<?xml version="1.0" encoding="UTF-8" standalone="no"?>
<svg xmlns="http://www.w3.org/2000/svg" xmlns:xlink="http://www.w3.org/1999/xlink" width="149px" height="149px" viewBox="0 0 149 149">
  <defs>
    <path id="a" d="M.5.717h147.963V148H.5z"/>
  </defs>
  <g fill="none" fill-rule="evenodd">
    <g transform="matrix(-1 0 0 1 149 .753)">
      <mask id="b" fill="#fff">
        <use xlink:href="#a"/>
      </mask>
      <path fill="#FFF" d="M130.601 134.563l-3.706.827c.811-.514 2.222-.704 3.706-.827m17.73-37.225c-.58-12.37-3.24-24.57-7.752-36.096-.08-.2-.249-.377-.483-.367-5.434.216-10.869.241-16.306.075-.289-.009-.44.19-.47.41-3.382.762-4.786 4.33-5.792 7.267l.316.836c-2.839.008-5.678-.073-8.512-.274-4.17-.295-8.573-.567-12.597-1.775-4.074-1.223-7.189-4.085-10.369-6.775-2.919-2.469-5.748-5.024-8.318-7.86-4.63-5.11-8.74-10.769-14.65-14.512-6.786-4.299-12.347-9.809-17.6-15.87C40.058 15.771 35.032 8.576 30.714.953c-.144-.254-.439-.287-.684-.18-5.655 2.481-8.219 8.946-7.635 14.843.81 8.2 6.431 14.752 10.703 21.421 2.535 3.955 4.555 8.087 5.372 12.746.232 1.321.406 2.647.567 3.974-.29-.1-.68.051-.683.453-.023 5.297-7.766 5.437-10.728 8.592-1.209 1.287-1.653 2.272-3.616 2.787-1.26.331-2.605.461-3.88.737-2.593.56-5.15 1.281-7.59 2.33C5.642 71.618-.738 78.24.707 86.314c.632 3.532 2.765 6.706 6.087 8.198.31.14.63.24.95.351-3.722 3.963-3.402 10.627-1.404 15.377 1.79 4.254 5.797 6.13 10.061 6.502-.236 5.064-.03 11.147 2.07 15.793 2.491 5.51 8.575 5.772 13.411 3.194.452-.24.896-.5 1.335-.77-.22 4.081-.804 10.977 3.87 12.518 4.663 1.537 9.054-.503 12.22-3.752 5.255.644 10.781-.304 15.91-1.402 5.4-1.157 10.933-2.7 15.837-5.302 6.168-3.27 11.041-8.31 17.798-10.627 4.335-1.488 8.588-1.385 13.045-.54 1.732.33 3.444.683 5.163.94-.615 3.101-.64 6.924 1.09 9.668 1.37 2.174 3.626 1.353 5.614.514a78.372 78.372 0 0 0 1.538-.13c4.333-.408 8.795-1.095 12.624-3.06 1.552-.044 3.111-.238 3.554-1.76l.18.474c6.117-10.802 7.243-22.956 6.671-35.163" mask="url(#b)"/>
    </g>
    <path fill="#040404" d="M119.653 3.43c-.127-.629.837-.898.964-.267 1.196 5.938-2.303 10.815-6.575 14.536-.484.42-1.194-.284-.707-.707 3.967-3.456 7.44-7.994 6.318-13.563"/>
    <path fill="#000" d="M120.141 3.317a10.534 10.534 0 0 1 .002.014l-.002-.014m-6.425 15.01a.983.983 0 0 0 .654-.251c5.511-4.8 7.778-9.85 6.737-15.011a.93.93 0 0 0-1.126-.741c-.501.1-.944.579-.819 1.204.892 4.423-1.122 8.703-6.156 13.086a.934.934 0 0 0-.087 1.346c.195.224.49.368.797.368"/>
    <path fill="#040404" d="M133.831 86.31l-.54 4.526c-.075.63-1.076.639-1 0l.54-4.525c.075-.631 1.076-.64 1 0"/>
    <path fill="#000" d="M133.335 86.242l.496.068-.494-.059c0-.003 0-.006-.002-.009m-.602 5.57c.147 0 .294-.03.433-.09.345-.147.577-.457.622-.828l.54-4.524a.895.895 0 0 0-.344-.846c-.28-.209-.683-.248-1.029-.1a1.02 1.02 0 0 0-.62.827l-.54 4.524c-.04.344.084.653.343.846.167.126.38.19.595.19"/>
    <path fill="#040404" d="M131.449 88.075v2.5c0 .643-1 .645-1 0v-2.5c0-.644 1-.645 1 0"/>
    <path fill="#000" d="M130.948 91.558c.57 0 1-.423 1-.983v-2.5c0-.561-.43-.984-1-.984-.57 0-1 .423-1 .984v2.5c0 .56.43.983 1 .983"/>
    <path fill="#040404" d="M122.359 111.195c-.424.486-1.13-.224-.707-.707l3.727-4.271c.423-.485 1.128.225.707.707l-3.727 4.27"/>
    <path fill="#000" d="M125.755 106.546l-3.773 4.32.377.329-.383-.322 3.78-4.327zm-3.729 5.31c.26 0 .517-.112.71-.331l3.726-4.272a.997.997 0 0 0 .198-.986 1.062 1.062 0 0 0-.776-.696.915.915 0 0 0-.882.317l-3.726 4.27c-.419.48-.272 1.116.114 1.45a.962.962 0 0 0 .636.249z"/>
    <path fill="#040404" d="M121.584 107.825c-.887.176-1.61.767-1.899 1.634-.203.607-1.169.346-.964-.266.394-1.183 1.364-2.087 2.597-2.332.628-.126.898.838.266.964"/>
    <path fill="#000" d="M121.366 107.361c-.397.095-.762.26-1.076.483a2.907 2.907 0 0 1 1.076-.483m-2.167 2.941a.987.987 0 0 0 .96-.685c.225-.67.793-1.157 1.523-1.302.53-.105.849-.588.743-1.123-.1-.502-.577-.947-1.204-.822-1.378.275-2.518 1.296-2.974 2.664a.941.941 0 0 0 .615 1.214c.108.036.222.054.337.054"/>
    <path fill="#040404" d="M105.093 120.47l2.525-3.23c.396-.507 1.1.205.707.707-.84 1.077-1.683 2.153-2.525 3.23-.395.507-1.099-.206-.707-.707"/>
    <path fill="#000" d="M105.48 121.85a.903.903 0 0 0 .715-.365l2.524-3.231c.404-.515.216-1.158-.197-1.481-.423-.328-.968-.263-1.298.159l-2.524 3.23a1.025 1.025 0 0 0-.144 1.026c.14.349.454.605.8.654a.873.873 0 0 0 .124.009"/>
    <path fill="#040404" d="M104.42 119.356c-.378.513-1.246.015-.864-.504l1.482-2.014c.378-.512 1.246-.014.863.505l-1.482 2.013z"/>
    <path fill="#000" d="M103.998 120.07c.325 0 .627-.15.824-.418l1.483-2.013a.9.9 0 0 0 .12-.91 1.054 1.054 0 0 0-.848-.599 1.008 1.008 0 0 0-.94.411l-1.484 2.013c-.206.281-.249.612-.119.911a1.055 1.055 0 0 0 .964.605"/>
    <path fill="#040404" d="M100.32 131.992l-3.001.49c-.63.103-.9-.86-.266-.964l3.002-.49c.629-.103.9.86.266.964"/>
    <path fill="#000" d="M100.248 131.497l.072.495-.08-.492c.003 0 .005-.002.008-.003m-3.026 1.493c.057 0 .117-.005.177-.014l3.002-.49c.533-.089.855-.539.768-1.073-.084-.515-.55-.982-1.195-.879l-3 .49c-.534.088-.857.538-.769 1.073.076.465.468.893 1.017.893"/>
    <path fill="#040404" d="M99.557 132.81l.998-.256c.624-.16.891.804.267.964l-.999.256c-.623.161-.89-.804-.266-.964"/>
    <path fill="#000" d="M100.68 133.038l-.982.252.981-.252zm-.993 1.254c.086 0 .173-.01.261-.033l1-.257c.346-.09.6-.332.692-.665a1.06 1.06 0 0 0-.263-1.012.955.955 0 0 0-.946-.256l-.998.256a.951.951 0 0 0-.63.5 1.007 1.007 0 0 0-.067.701c.062.244.206.455.404.594a.944.944 0 0 0 .547.172z"/>
    <path fill="#040404" d="M48.886 124.74c6.84 1.868 12.043 6.466 17.866 10.214 4.731 3.044 10.521 4.632 15.948 5.887 5.188 1.2 10.787 2.233 16.155 1.74-.38-.447-.745-.91-1.08-1.386-3.899-5.556-4.858-12.115-5.564-18.687-.294-2.733-.846-6.21 2.422-6.144-2.668-3.123-4.802-6.822-3.586-10.583 1.61-4.98 6.781-6.232 11.457-5.875-2.317-2.852-3.817-6.16-2.892-10.02 1.12-4.676 4.865-5.848 9.084-5.167-.209-.46-.4-.936-.556-1.44-1.285-4.136.834-7.002 4.692-8.38 5.261-1.88 11.013-1.652 16.207.309.597.225.338 1.193-.265.965-4.348-1.641-9.033-2.062-13.57-.945-2.414.594-5.59 1.575-6.309 4.27-.644 2.418.58 4.974 2.041 6.819 5.405 6.818 15.931 7.919 24.021 8.135 4.374.118 8.743-.93 11.083-4.962 2.016-3.476 1.841-7.88.046-11.394-4.15-8.131-13.254-10.02-21.363-11.76-1.629-.35-2.417-.968-3.455-2.244-1.834-2.255-3.93-2.944-6.522-4.051-2.27-.971-4.442-2.507-4.975-4.914-.298 2.538-.6 5.073-1.194 7.576-1.744 7.365-5.16 14.399-10.253 20.034-5.762 6.377-13.582 10.743-22.108 11.962-.63.089-.9-.874-.266-.965 15.393-2.2 26.826-14.37 31.038-28.917 2.094-7.234 1.494-15.068 4.505-22.038 3.014-6.976 8.404-12.571 11.68-19.404 3.414-7.122 3.957-17.727-4.268-21.725-3.735 6.54-7.984 12.768-12.764 18.59-4.829 5.879-10.258 12.26-16.606 16.547-3.42 2.31-6.749 4.287-9.683 7.254-2.703 2.73-5.09 5.749-7.644 8.615-2.732 3.064-5.734 5.823-8.867 8.472-2.704 2.288-5.417 4.832-8.698 6.264-3.733 1.63-8.063 1.95-12.073 2.337-5.155.495-10.329.624-15.5.45-7.578 17.579-8.166 37.636-1.674 55.643.024-.001.043-.01.07-.007 7.977.905 15.411-3.26 23.42-1.074m62.393 21.645c4.602-1.367 3.635-8.582 3.471-12.283 0-.007.003-.01.003-.017-2.223-1.483-4.304-3.243-6.35-4.906a146.652 146.652 0 0 1-9.363-8.287c-1.053-1.017-2.298-2.204-3.5-3.508a.504.504 0 0 1-.27.029c-2.734-.482-2.478 1.954-2.237 3.808.181 1.393.268 2.788.422 4.184.563 5.086 1.92 10.287 4.732 14.614 2.796 4.305 7.633 7.986 13.092 6.366m17.616-13.113c1.735-2.583 2.1-6.056 2.401-9.064.254-2.527.398-5.082.3-7.622a20.757 20.757 0 0 1-4.203-.294c-7.255-1.254-13.217-5.867-18.71-10.481-1.705-1.432-3.595-3.03-5.229-4.812-3.16-.4-6.692-.342-9.256 1.813-1.957 1.644-2.933 4.256-2.32 6.76.92 3.767 4.287 7.073 6.95 9.716 2.82 2.8 5.794 5.458 8.847 8.002 4.675 3.897 15.715 14.173 21.22 5.982m11.27-38.295c-3.433.868-7.167.4-10.624.013-6.934-.778-16.372-2.564-20.246-9.147-2.728-.602-5.954-.8-7.706 1.808-1.44 2.146-1.51 5.054-.726 7.43 1.185 3.596 4.05 6.203 6.84 8.597 2.894 2.483 5.83 4.96 9.024 7.054 4.2 2.755 9.801 5.174 15.11 4.954a.556.556 0 0 1 .414-.018c1.946-.132 3.847-.621 5.616-1.604 5.94-3.298 7.177-14.4 2.297-19.087M.668 97.12c.58-12.37 3.24-24.571 7.753-36.096.08-.201.248-.377.483-.367 5.434.216 10.87.24 16.305.075.29-.01.442.19.471.41 3.382.762 4.786 4.33 5.792 7.267.21.61-.757.872-.965.266-.725-2.12-1.492-4.464-3.436-5.78-3.117-2.106-5.485.098-6.57 2.942-1.355 3.546-1.817 7.48-2.108 11.237-.636 8.232-.763 16.55-.922 24.804-.155 8.059-.405 16.327.455 24.355.468 4.37 2.663 7.309 6.637 9.153.673.313 1.374.605 2.058.793l.67.149c1.453.23 2.75-.2 3.398-2.261.756-2.402.761-4.906.263-7.354-1.806.224-3.625.313-5.486.102a.518.518 0 0 1-.444-.364c-.227.035-.48-.053-.578-.327-6.665-18.456-5.927-39.006 1.97-56.96.18-.404.638-.283.825.02 4.145.134 8.291.08 12.428-.213 4.171-.295 8.573-.566 12.598-1.775 4.074-1.223 7.188-4.085 10.37-6.775 2.918-2.47 5.747-5.024 8.316-7.86 4.631-5.111 8.742-10.77 14.652-14.512 6.785-4.3 12.346-9.81 17.6-15.871 5.738-6.624 10.764-13.82 15.081-21.442.145-.254.44-.287.685-.18 5.654 2.48 8.22 8.946 7.635 14.843-.81 8.2-6.43 14.752-10.703 21.42-2.535 3.956-4.555 8.088-5.372 12.747a75.529 75.529 0 0 0-.568 3.974c.292-.1.682.05.684.453.022 5.297 7.765 5.437 10.727 8.592 1.21 1.287 1.654 2.272 3.617 2.787 1.26.33 2.605.46 3.88.737 2.592.559 5.15 1.28 7.59 2.329 6.9 2.963 13.28 9.585 11.833 17.659-.632 3.532-2.764 6.706-6.087 8.198-.309.139-.63.239-.948.35 3.721 3.965 3.4 10.628 1.402 15.378-1.79 4.254-5.796 6.13-10.06 6.502.235 5.065.031 11.147-2.069 15.793-2.493 5.509-8.577 5.772-13.413 3.194a26.178 26.178 0 0 1-1.335-.77c.222 4.08.804 10.977-3.87 12.518-4.663 1.537-9.053-.503-12.219-3.752-5.255.644-10.782-.304-15.91-1.402-5.4-1.157-10.933-2.7-15.837-5.302-6.168-3.271-11.04-8.31-17.798-10.627-4.335-1.488-8.588-1.384-13.045-.54-1.733.329-3.445.683-5.163.94.615 3.1.64 6.924-1.089 9.668-1.37 2.174-3.627 1.353-5.615.514a70.82 70.82 0 0 1-1.538-.13c-5.226-.492-10.653-1.36-14.912-4.428l13.32 2.97c-1.76-1.114-3.273-2.57-4.148-4.524-1.47-3.285-1.257-7.34-1.385-10.85-.354-9.622-.13-19.254.21-28.873.294-8.278-.192-17.464 2.752-25.353.556-1.49 1.423-2.93 2.64-3.78-2.666.05-5.33.07-7.997.023-1.3-.023-4.076-.62-5.129.336-.94.854-1.46 3.978-1.869 5.217a111.724 111.724 0 0 0-4.812 21.47c-1.765 14.468-1.51 29.967 5.835 42.94.318.562-.546 1.067-.863.506C1.223 121.48.097 109.327.668 97.12"/>
    <path fill="#000" d="M118.72.982c.781.344 1.495.763 2.145 1.242a12.506 12.506 0 0 0-1.742-1.024l-.413-.201.01-.017zm6.834 8.339a16.5 16.5 0 0 1 .553 6.029c-.41 4.148-2.095 7.895-4.206 11.449a42.221 42.221 0 0 0 1.722-3.208c1.894-3.949 2.724-8.435 2.278-12.308a16.13 16.13 0 0 0-.347-1.962zm-20.459 11.402c-4.77 5.78-9.925 11.656-15.84 15.649-.606.41-1.21.809-1.809 1.205-2.209 1.461-4.322 2.857-6.308 4.578 1.47-1.354 3.03-2.607 4.732-3.685 5.942-3.764 11.404-8.688 17.71-15.966.51-.587 1.015-1.182 1.515-1.781zm10.071 16.321c-2.1 3.352-3.547 6.428-4.433 9.458.327-1.2.724-2.379 1.22-3.525.891-2.064 2.01-4.03 3.213-5.933zm-5.043 16.969c.001.18.012.355.03.524l-.11-.497.08-.027zM9.85 61.233c-.442.101-.834.272-1.136.546a1.829 1.829 0 0 0-.078.075l.252-.648c.32.01.642.019.962.027zm14.823.324c-.376 0-.748.057-1.113.173-1.267.4-2.4 1.526-3.186 3.14.453-.956 1.127-1.997 2.088-2.669l1.33-.93 1.434-.039.047.344.3.055c1.128.254 2.025.86 2.758 1.676a6.168 6.168 0 0 0-.978-.825c-.91-.616-1.809-.925-2.68-.925zm94.57.062c.69.383 1.294.806 1.766 1.307.245.262.46.511.66.746.794.927 1.481 1.727 3.168 2.177l-.009-.002c-1.542-.331-2.224-.907-3.17-2.071a9.994 9.994 0 0 0-2.415-2.157zm-57.337.078c-2.31 1.983-4.698 4.03-7.462 5.237-1.365.595-2.81 1.012-4.296 1.322a30.115 30.115 0 0 0 2.262-.582c3.721-1.116 6.665-3.567 9.496-5.977zm64.337 4.454c.304.055.608.105.908.154.543.089 1.085.177 1.615.292 2.894.624 5.346 1.377 7.496 2.3a23.814 23.814 0 0 1 3.271 1.717c-3.988-2.336-8.759-3.48-13.29-4.463zm-99.498 3.518l-.134.313a71.473 71.473 0 0 0-1.105 2.709 74.633 74.633 0 0 1 1.313-3.201l.09.144.315.05a138.388 138.388 0 0 0-.138-.004l-.34-.011zm97.81 4.813zm22.851 5.534c.437 1.373.65 2.824.582 4.336a13.121 13.121 0 0 0-.582-4.336zM19.483 67.267c-.968 3.18-1.34 6.554-1.588 9.769a248.026 248.026 0 0 0-.484 8.186c.112-6.085.305-12.312 2.072-17.955zm89.441 16.716c.48 1.087 1.114 2.006 1.621 2.645 1.303 1.645 2.881 2.963 4.645 4.022-2.253-1.244-4.182-2.883-5.463-5.061l-.11-.188-.214-.046-.267-.059.4.065-.385-.849c-.082-.18-.158-.356-.227-.529zm.695-31.853l-.344 2.938c-.289 2.459-.587 5.002-1.184 7.519-1.805 7.62-5.309 14.472-10.138 19.814-5.375 5.949-12.403 9.981-19.957 11.486 13.695-2.798 25.133-13.947 29.472-28.932.904-3.124 1.316-6.391 1.715-9.552.193-1.535.39-3.088.644-4.635-.072.478-.137.951-.198 1.407l-.01-.045zm-9.67 38.631a10.168 10.168 0 0 0 .44 4.478c.136.414.293.815.47 1.203-.91-1.903-1.208-3.784-.91-5.681zm45.183.787a9.486 9.486 0 0 1-3.13 2.29c-.23.103-.465.183-.699.264l-.936.326.526.559c1.342 1.43 2.126 3.244 2.482 5.188-.466-2.241-1.45-4.2-2.865-5.558l-.199-.192-.27.068c-1.846.467-3.78.535-5.728.441l.632.018c4.525.124 7.946-1.022 10.187-3.404zm-41.534 8.942l.023.027-.104-.014a35.074 35.074 0 0 0-.435-.052l.516.039zm-86.618.943l-.016.791.016-.791zm76.05 1.831c-1.16 1.334-1.808 3.024-1.83 4.729 0-.707.107-1.392.323-2.059a7.35 7.35 0 0 1 1.506-2.67zM119 112.68c1.623.886 3.59 1.801 5.748 2.474-2.006-.601-3.916-1.455-5.748-2.474zm12.735 2.51c-4.406.144-9.765-1.616-14.735-4.875-3.114-2.042-6.02-4.484-8.972-7.017-2.889-2.478-5.574-4.982-6.692-8.371-.818-2.485-.563-5.165.667-6.996 1.245-1.855 3.467-2.379 6.975-1.645 4.065 6.638 13.635 8.431 20.507 9.201l.376.042c3.361.38 6.836.77 10.147 0 2.07 2.146 3.043 5.809 2.544 9.648-.5 3.856-2.343 7.015-4.929 8.451-1.575.875-3.365 1.392-5.32 1.536a1.05 1.05 0 0 0-.568.026zm-36.277 1.69l-.094.036a5.081 5.081 0 0 0-.326-.045l.42.009zm-1.205-.006c-.47.06-.856.232-1.156.519a1.81 1.81 0 0 0-.243.283c.061-.106.131-.203.21-.289.273-.3.665-.469 1.19-.513zm-2.57-6.207c1.218 3.443 4.23 6.434 6.69 8.877l.102.1.376.372c-.926-.894-1.949-1.891-2.944-2.971l-.229-.248-.013.005-.652-.764c-1.642-1.92-2.748-3.702-3.33-5.371zm-66.256 15.172l-.006.178-.002-.004.004-.196.004.022zm106.653-9.684l.018.393c.26 5.543-.14 9.963-1.217 13.42.531-1.923.734-3.946.912-5.71.295-2.943.391-5.388.3-7.691l-.016-.413.003.001zm-16.828 17.672l.1.064-.1-.064zM20.85 62.313c-.867.97-1.434 2.152-1.78 3.083-2.425 6.492-2.552 13.758-2.674 20.787-.029 1.596-.056 3.175-.11 4.723-.326 9.162-.576 19.006-.21 28.909.02.602.032 1.219.044 1.847.061 3.135.123 6.377 1.383 9.189.55 1.226 1.376 2.341 2.468 3.332L8.704 131.67a1.08 1.08 0 0 0-.065-.138C2.48 120.651.643 107.105 2.865 88.898a111.223 111.223 0 0 1 4.79-21.374c.112-.341.234-.822.37-1.36.311-1.243.784-3.121 1.36-3.644.64-.581 2.43-.411 3.613-.293.447.043.852.081 1.171.087 1.997.036 4.148.035 6.68-.001zm95.536 72.209c.631.368 1.27.708 1.91 1.007a14.024 14.024 0 0 1-.94-.459c-.328-.173-.65-.358-.97-.548zm-67.63-9.299c5.054 1.38 9.13 4.226 13.445 7.24 1.39.97 2.826 1.973 4.283 2.911.254.163.51.322.77.478-2.085-1.188-4.058-2.577-5.975-3.924-3.36-2.363-6.835-4.807-10.968-6.225a21.252 21.252 0 0 0-4.478-1.014 17.44 17.44 0 0 1 2.922.534zm79.725 7.77c-1.11 1.653-2.474 2.571-4.169 2.806-4.996.684-11.444-4.768-15.293-8.03-.367-.311-.709-.601-1.023-.862-3.28-2.734-6.165-5.342-8.815-7.972l-.1-.101c-2.603-2.583-5.84-5.797-6.716-9.381-.548-2.241.297-4.697 2.156-6.258 1.961-1.648 4.725-2.198 8.691-1.722 1.66 1.789 3.591 3.412 5.15 4.721 5.55 4.662 11.586 9.32 18.947 10.592a19.94 19.94 0 0 0 3.804.311c.057 2.114-.043 4.374-.313 7.061-.283 2.821-.636 6.329-2.319 8.835zm-97.932-5.729c.42 2.374.307 4.61-.336 6.652-.49 1.56-1.36 2.154-2.843 1.918l-.638-.144c-.535-.146-1.164-.389-1.957-.757-3.887-1.805-5.905-4.586-6.35-8.754-.792-7.391-.639-15.054-.489-22.465l.065-3.348c.146-7.64.296-15.541.892-23.254.285-3.687.733-7.584 2.075-11.097.667-1.747 1.722-2.962 2.893-3.331.91-.289 1.892-.077 2.931.626 1.761 1.19 2.49 3.322 3.194 5.382l.017.052c-.837-.01-1.678-.027-2.526-.054a1.062 1.062 0 0 0-.76-.283c-.338.024-.614.227-.759.557-7.918 17.999-8.64 38.894-1.984 57.33.126.348.41.582.756.646.167.206.407.34.681.372 1.577.177 3.22.163 5.138-.048zm-18.784 6.113l12.6 2.81-.62-.056c-4.109-.387-8.336-1.012-11.98-2.754zm5.393-10.093c.076 1.004.165 2.005.272 3.002.48 4.488 2.745 7.613 6.924 9.553.351.164.675.305.976.426l-.056-.005a37.527 37.527 0 0 1-.586-.046l-2.315-1.466c-1.906-1.207-3.2-2.615-3.957-4.306-.966-2.155-1.179-4.654-1.258-7.158zm14.548 5.031c.347 3.059-.098 5.792-1.277 7.663-1.089 1.727-2.828 1.224-4.83.391.317.119.611.215.892.292l.692.155c2.008.324 3.343-.555 3.984-2.599.58-1.841.76-3.819.54-5.902zm64.713 9.627a24.92 24.92 0 0 0 1.35 2.35l.001.002a23.879 23.879 0 0 1-1.35-2.352zm1.8 3.011zm-19.473-.573a121.41 121.41 0 0 0 4.253 1.043 95.457 95.457 0 0 1-4.253-1.043zm19.118 1.774c-5.094.3-10.442-.734-15.05-1.8-5.468-1.265-11.166-2.845-15.789-5.822-1.442-.926-2.869-1.925-4.25-2.888-4.197-2.931-8.534-5.96-13.756-7.386-4.556-1.242-8.96-.475-13.22.268-3.269.571-6.646 1.158-10.043.817-6.259-17.611-5.663-37.49 1.64-54.653 5.221.161 10.342.005 15.222-.463l.784-.076c3.874-.366 7.88-.745 11.442-2.301 2.907-1.27 5.358-3.372 7.728-5.407.366-.313.73-.626 1.093-.933 3.663-3.099 6.497-5.807 8.917-8.523.89-.996 1.757-2.012 2.626-3.027 1.597-1.867 3.248-3.798 5-5.568 2.377-2.402 5.006-4.14 7.79-5.98.602-.398 1.208-.8 1.818-1.211 6.3-4.253 11.71-10.554 16.712-16.644 4.6-5.601 8.83-11.737 12.573-18.243 4.476 2.474 8.908 9.82 3.622 20.844-1.527 3.187-3.564 6.166-5.533 9.046-2.233 3.267-4.542 6.645-6.155 10.377-1.754 4.06-2.308 8.451-2.843 12.697-.394 3.122-.8 6.35-1.684 9.4-4.437 15.325-16.459 26.536-30.628 28.561a.89.89 0 0 0-.78 1.042c.074.522.537 1.009 1.188.912 8.483-1.212 16.441-5.517 22.41-12.122 4.94-5.466 8.524-12.47 10.367-20.254.458-1.93.742-3.86.978-5.754.875 1.377 2.383 2.529 4.508 3.437l.856.36c2.193.917 3.925 1.642 5.474 3.547 1.056 1.298 1.924 2.029 3.737 2.418l.221.047c7.873 1.69 16.797 3.606 20.803 11.451 1.82 3.562 1.807 7.744-.033 10.915-1.895 3.266-5.47 4.857-10.637 4.714-8.25-.22-18.394-1.324-23.643-7.945-.82-1.036-2.655-3.732-1.95-6.379.616-2.311 3.352-3.275 5.946-3.915 4.282-1.055 8.873-.733 13.273.927.327.122.661.074.915-.134.274-.224.412-.608.352-.979a1.01 1.01 0 0 0-.648-.787c-5.464-2.062-11.342-2.172-16.552-.312-4.46 1.593-6.284 4.873-5.002 9a12 12 0 0 0 .237.68c-4.674-.476-7.779 1.506-8.774 5.662-.773 3.228-.013 6.373 2.324 9.585-3.296-.052-9.069.674-10.877 6.272-1.003 3.103.003 6.489 3.08 10.332-.54.127-.984.379-1.326.753-1.124 1.229-.876 3.469-.657 5.444l.045.406c.727 6.761 1.706 13.297 5.652 18.92.156.221.32.445.497.672zm1.603.374c.153.174.31.345.47.513l-.059-.059-.024.002-.387-.456zm.114.49c-2.355.284-4.77.245-7.187.011 2.171.201 4.363.246 6.508.051l.68-.062zm11.557 2.888c-5.276 1.57-9.93-2.156-12.53-6.159-2.449-3.767-4.015-8.611-4.655-14.396a93.117 93.117 0 0 1-.168-1.733 61.976 61.976 0 0 0-.255-2.461c-.128-.99-.322-2.486.26-3.042.267-.255.738-.325 1.393-.209.06.01.111.015.175.015 1.056 1.133 2.13 2.166 3.08 3.084l.257.247a147.515 147.515 0 0 0 9.393 8.315l.911.745c1.687 1.378 3.43 2.802 5.264 4.046.016.321.036.653.058 1 .227 3.757.571 9.434-3.183 10.548zm3.961-3.528c-.437 2.052-1.389 3.763-3.343 4.407-.88.29-1.776.448-2.678.481a9.763 9.763 0 0 0 2.344-.401c2.165-.642 3.206-2.391 3.677-4.487zm-6.365 5.896c1.12 0 2.238-.177 3.336-.54 4.683-1.544 4.491-7.963 4.265-12.085.182.104.365.206.55.304 3.12 1.663 6.477 2.084 9.21 1.154 2.18-.743 3.871-2.328 4.891-4.583 1.705-3.77 2.403-8.86 2.133-15.549 4.853-.551 8.395-2.938 10.002-6.758 1.98-4.703 2.376-11.15-1.003-15.345.1-.038.197-.078.294-.122 3.295-1.48 5.678-4.683 6.373-8.565 1.494-8.338-5.015-15.152-12.128-18.206-2.21-.951-4.722-1.722-7.68-2.36-.547-.117-1.106-.209-1.664-.301-.733-.12-1.49-.244-2.196-.429-1.405-.369-1.916-.965-2.689-1.868-.21-.246-.433-.505-.689-.779-1.18-1.258-3.045-2.052-4.848-2.821-2.948-1.257-5.732-2.444-5.745-5.43a.961.961 0 0 0-.623-.912c.133-1.063.294-2.256.5-3.428.707-4.03 2.39-8.022 5.3-12.562a160.256 160.256 0 0 1 2.583-3.863c3.702-5.428 7.53-11.039 8.197-17.778.542-5.479-1.709-12.62-7.933-15.35-.51-.221-1.064-.058-1.319.391-4.364 7.704-9.419 14.89-15.026 21.36-6.239 7.201-11.633 12.067-17.489 15.777-4.65 2.946-8.239 7.105-11.709 11.127-1.007 1.167-2.012 2.333-3.045 3.472-2.197 2.425-4.748 4.835-8.269 7.814l-.812.69c-2.828 2.409-5.752 4.899-9.379 5.988-3.804 1.142-7.955 1.435-11.969 1.719l-.52.036c-2.466.176-5.025.268-7.65.279a.978.978 0 0 0-.037-.505c-1.085-3.169-2.525-6.607-5.88-7.523a.948.948 0 0 0-.87-.491c-5.409.165-10.883.139-16.272-.076-.416-.008-.798.251-.968.686C3.366 72.562.747 84.76.17 97.097c-.694 14.831 1.447 26.09 6.737 35.431a.954.954 0 0 0 .647.481c.232.045.48.004.696-.119.118-.068.218-.151.298-.246 4.332 3.096 9.82 3.985 15.104 4.483.488.045.976.088 1.465.124 1.718.724 4.521 1.856 6.158-.74 1.938-3.075 1.671-7.099 1.252-9.519 1.163-.186 2.333-.413 3.468-.633l1.203-.23c5.018-.952 8.962-.793 12.79.52 3.997 1.372 7.412 3.774 10.715 6.097 2.225 1.564 4.525 3.182 7.01 4.499 4.215 2.237 9.14 3.887 15.967 5.35 5.132 1.098 10.596 2.028 15.83 1.438 2.782 2.781 6.012 4.241 9.224 4.241z"/>
    <path fill="#040404" d="M85.66 44.696l1.002 4.5c.14.626-.825.894-.965.265l-1.002-4.499c-.14-.627.825-.895.965-.266"/>
    <path fill="#000" d="M86.135 50.32c.074 0 .151-.008.23-.025.494-.11.921-.592.785-1.208l-1.002-4.5a.944.944 0 0 0-1.155-.725c-.494.11-.922.592-.786 1.208l1.002 4.5c.102.456.481.75.926.75"/>
  </g>
</svg>
