<svg xmlns="http://www.w3.org/2000/svg" xmlns:xlink="http://www.w3.org/1999/xlink" width="80px" height="60px" viewBox="0 0 80 60">
  <defs>
    <path id="a" d="M0 .5h77.457v51.356H0z"/>
  </defs>
  <g fill="none" fill-rule="evenodd">
    <g transform="translate(1 3.451)">
      <mask id="b" fill="#fff">
        <use xlink:href="#a"/>
      </mask>
      <path fill="#FFF" d="M13.63 50.957c-.515.329-.038 1.153.48.822a386.3 386.3 0 0 0 32.717-23.384C52.795 34.23 58.217 40.7 65.56 44.87c.503.91 1.108 1.59 1.957 2.236.165.127.439.062.576-.074 1.624-1.607 3.462-2.894 5.586-3.75 1.049-.423 2.325-.639 3.083-1.563 1.894-2.311-.5-4.89-2.234-6.313a.474.474 0 0 0-.28-.105c-.772-1.213-1.945-2.363-2.647-3.216a.41.41 0 0 0-.111-.467A695.204 695.204 0 0 1 40.613.641c-.128-.137-.415-.198-.575-.074A565.381 565.381 0 0 0 .148 34.364c-.278.258-.125.614.14.748-.22.156-.33.468-.08.709l8.729 8.385c.1.096.21.13.316.13a.458.458 0 0 0 .05.296 25.248 25.248 0 0 0 4.367 5.782" mask="url(#b)"/>
    </g>
    <g transform="translate(1 3.451)">
      <mask id="d" fill="#fff">
        <use xlink:href="#a"/>
      </mask>
      <path fill="#000" d="M75.563 40.923c-1.05 1.169-2.178 1.385-3.533 2.062a17.073 17.073 0 0 0-2.954 1.884c-.248.196-.926.95-1.156.996-.541.108-.98-.446-1.294-.986a.386.386 0 0 0 .38-.06 110.137 110.137 0 0 0 4.17-3.162c1.08-.862 3.029-1.994 3.64-3.325.194-.421.23-.861.158-1.309.153.143.298.29.43.444.3.48.602.958.902 1.436.4.868.152 1.54-.743 2.02M38.717 20.37c-.41-.275-.789.201-.663.576-8.355 8.88-20.268 13.596-27.955 23.176a.407.407 0 0 0-.358-.197.417.417 0 0 0-.131-.391L.88 35.149c-.038-.037-.079-.056-.12-.076.02-.015.041-.02.061-.037a559.598 559.598 0 0 1 35.531-30.41c.697-.546 1.395-1.162 2.127-1.661a3.328 3.328 0 0 1 2.085-.985c.208.22.416.442.623.664 1.568.975 3.107 3.288 4.391 4.63a681.742 681.742 0 0 0 8.267 8.484 691.107 691.107 0 0 0 16.66 16.234.379.379 0 0 0 .079.328l1.933 2.554c1.136 1.503 2.036 2.25.287 4.213-1.7 1.908-4.222 3.421-6.28 4.91a.475.475 0 0 0-.173.25c-.016-.013-.026-.029-.045-.04l-.05-.03-.012-.024a.398.398 0 0 0-.415-.231c-10.501-6.06-17.092-16.836-27.112-23.552m35.811 15.036a.477.477 0 0 0-.28-.105c-.772-1.214-1.946-2.364-2.647-3.215a.41.41 0 0 0-.11-.467A694.694 694.694 0 0 1 40.613.64c-.129-.137-.416-.198-.577-.074A565.822 565.822 0 0 0 .147 34.363c-.277.26-.124.615.14.75-.22.155-.329.467-.08.708l8.73 8.385c.1.096.21.13.317.13a.443.443 0 0 0 .05.295 25.179 25.179 0 0 0 4.366 5.783c.436.43 1.11-.24.673-.673a24.269 24.269 0 0 1-3.724-4.762c7.691-9.72 19.741-14.436 28.153-23.408 2.644 1.834 5.056 3.94 7.367 6.163A383.833 383.833 0 0 1 13.63 50.957c-.514.329-.038 1.153.48.822a386.454 386.454 0 0 0 32.717-23.384c5.968 5.836 11.39 12.305 18.732 16.474.504.91 1.108 1.592 1.958 2.237.165.127.44.061.575-.074 1.625-1.607 3.463-2.893 5.588-3.75 1.048-.423 2.325-.639 3.083-1.562 1.894-2.312-.502-4.89-2.235-6.314" mask="url(#d)"/>
    </g>
  </g>
</svg>
