<?xml version="1.0" encoding="UTF-8" standalone="no"?>
<svg xmlns="http://www.w3.org/2000/svg" width="70px" height="70px" viewBox="0 0 70 70">
    <path fill="#000" fill-rule="evenodd" d="M27.112 50.025c-.622-.336-1.114-.797-1.144-1.407-.048-.974.182-2.037.272-3.008l.274-2.95c-1.46-.62-2.797-1.57-3.787-2.831-1.166-1.486-1.653-3.296-1.953-5.14-.7-4.313-1.096-8.731-.438-13.074a.337.337 0 0 1 .07-.17c.005-.07.01-.142.018-.215.357-3.452 3.977-4.801 6.938-4.012.068-.494.139-.984.188-1.463l.443-4.272c-.361-.506-.318-1.3.117-1.799 1-1.141 3.212-.537 4.482-.419 3.604.337 7.22.744 10.737 1.626 1.195.3 3.003.537 3.803 1.607.568.76.255 1.662-.516 2.085l-.954 4.032c-.077.321-.146.654-.226.986a.352.352 0 0 1 .29-.164c1.726-.088 3.22.91 4.164 2.325.955 1.43 1.548 3.639.469 5.16a3.04 3.04 0 0 1-.02.028 18.735 18.735 0 0 1-3.852 9.554 17.866 17.866 0 0 1-8.12 5.899c-1.646.585-3.447 1.011-5.265 1.165l-.221 3.204c-.07 1.016-.051 2.09-.217 3.095-.146.884-1.282 1.029-2.27.984-.072 1.081-.084 2.176.23 3.22.35 1.157 1.113 2.085 2.007 2.865 1.863 1.625 4.195 2.679 6.404 3.734.111.054.187.2.182.321-.059 1.769-2.92.742-3.748.414-1.657-.655-3.236-1.505-4.635-2.616-2.683-2.132-4.443-5.328-3.722-8.764zm.693.31c-.504 2.72.682 5.294 2.687 7.183.944.89 2.024 1.62 3.162 2.235.379.204 4.789 2.293 4.824 1.238l.183.322c-2.407-1.151-4.976-2.312-6.924-4.19-1.846-1.78-2.187-3.936-2.07-6.337a8.27 8.27 0 0 1-1.862-.45zm-.419-1.068c.226-.158.613-.003.593.31a5.96 5.96 0 0 0 1.738.478c.07-.442.773-.433.736.033v.007c.28-.002.56-.025.836-.068.438-.07.576-.095.671-.547.09-.427.064-.918.094-1.354l.311-4.51c-1.758.074-3.513-.119-5.143-.683l-.386 4.16c-.072.776-.388 1.556.346 2.045.067.044.135.088.204.13zm-6.555-25.735c-.364 3.977.034 8.136.835 12 .368 1.775 1.056 3.388 2.37 4.652 1.237 1.189 2.812 1.96 4.463 2.348 3.736.875 8.04.083 11.46-1.592 5.072-2.486 8.687-7.583 9.548-13.2-.797.532-1.804.758-2.733.862-2.116.237-4.284.072-6.394-.145-4.417-.453-8.84-1-13.241-1.59-2.244-.3-5.21-1.226-6.308-3.335zm28.807 3.116c.014-.16.026-.32.036-.48.015-.25.223-.368.413-.356.348-1.165-.139-2.598-.762-3.57-.806-1.254-2.085-2.14-3.6-2.063-.224.011-.341-.15-.352-.326-.2.766-.476 1.51-1.036 2.078-1.436 1.457-3.817 1.227-5.671 1.182-2.691-.066-5.473-.024-8.143-.394-1.584-.219-3.277-.938-3.361-2.777-.03-.648.024-1.314.104-1.981-1.673-.479-3.596-.333-4.91.931-1.262 1.214-1.618 3.12-.638 4.62 1.783 2.728 5.813 2.665 8.66 3.009 3.44.416 6.881.89 10.331 1.227 1.641.16 3.292.26 4.94.19 1.312-.054 2.957-.173 3.918-1.21.025-.026.049-.053.071-.08zM28.677 11.927l.048-.467c.024-.228-.135-.345-.31-.352a.331.331 0 0 1 .276.044c2.74 1.694 5.861 2.527 9.044 2.864 1.454.153 2.917.213 4.38.222.777.004 1.555-.006 2.333-.025.393-.01 1.037.027 1.533-.119l.13-.55c.071-.3.393-.321.58-.174.053-1.128-3.569-1.778-4.19-1.923a53.632 53.632 0 0 0-4.809-.877c-1.802-.252-3.614-.432-5.426-.6-.784-.071-1.596-.207-2.385-.186-.444.012-1.028.06-1.29.487-.19.308-.171.838.25.94.45.11.273.788-.164.716zm17.12 2.948c-1.125.256-2.458.102-3.536.099-1.657-.006-3.314-.076-4.96-.272-3.03-.36-5.991-1.156-8.631-2.704l-.443 4.272-.213 2.062c-.078.753-.302 1.705.089 2.41.537.965 1.875 1.195 2.865 1.294 1.432.143 2.883.171 4.32.23 1.52.063 3.04.115 4.56.137 1.134.016 2.381.018 3.399-.555 1.272-.716 1.443-2.302 1.75-3.597l.8-3.376zM28.31 31.165c-.46-.084-.263-.861.192-.778a61.54 61.54 0 0 0 10.226.993c.466.007.465.814 0 .807a62.7 62.7 0 0 1-10.418-1.022zm-.501 2.648c-.476-.013-.476-.735 0-.722 4.144.112 8.28.372 12.405.782.47.046.473.768 0 .721-4.125-.409-8.261-.67-12.405-.781zm-.005 2.157c-.468-.05-.471-.82 0-.769 4.025.433 8.07.541 12.11.326.475-.025.472.744 0 .77a75.675 75.675 0 0 1-12.11-.327z"/>
</svg>
