<?xml version="1.0" encoding="UTF-8" standalone="no"?>
<svg xmlns="http://www.w3.org/2000/svg" xmlns:xlink="http://www.w3.org/1999/xlink" width="70px" height="70px" viewBox="0 0 70 70">
  <defs>
    <path id="a" d="M0 .45h65.928v31.377H0z"/>
  </defs>
  <g fill="none" fill-rule="evenodd">
    <path fill="#000" d="M45.1 57.896c-.25.856-.47 2.084-1.09 2.734-.55.575-1.825.631-2.829.67a28.643 28.643 0 0 1 2.976-6.235.518.518 0 0 0 .087-.294c.401-.045 1.228-.1 2.03-.25-.511 1.066-.828 2.197-1.174 3.375m-11.849-.585c-2.64-.305-5.973.37-7.788 2.481a17.075 17.075 0 0 0-3.403-6.32c2.719-2.724 6.576-3.804 10.358-3.996 2.209-.112 4.392.066 6.468.868 1.789.69 3.838 1.544 4.57 3.466.016.04.043.067.064.1a.491.491 0 0 0-.06.373.553.553 0 0 0-.26.222 29.702 29.702 0 0 0-3.129 6.575c-1.723-2.056-4.107-3.454-6.82-3.769m12.266-4.795c.36.16.746.303 1.09.492.254.139.52.114.325.266-.181.14-.832.119-1.053.15-.445.064-.89.128-1.336.19-.007-.032-.003-.063-.016-.099a5.811 5.811 0 0 0-1.246-1.944c.752.303 1.499.619 2.236.945m-.109-1.251a61.098 61.098 0 0 0-3.39-1.356c-2.239-.81-4.525-1.43-6.889-1.747-.223-.03-.366.067-.447.207-.451-.026-.89-.039-1.3-.034-4.55.056-9.351 1.274-12.495 4.755-.294.326-.11.747.187.9.014.021.018.044.036.064 1.72 1.975 2.88 4.26 3.493 6.803.05.213.189.323.347.367.23.246.67.31.889-.067 1.437-2.479 5.117-3.122 7.727-2.688 2.513.419 4.705 1.892 6.158 3.963.265.379.766.273.968-.008 1.02-.077 2.155-.067 3.11-.343.92-.265 1.292-1.043 1.657-1.877.914-2.084 1.157-4.35 2.43-6.256.438-.322.563-.778.034-1.438-.512-.638-1.771-.923-2.515-1.245M34.75 38.506c-6.25.406-11.946 3.529-16.568 7.614-.029-.046-.056-.093-.105-.137a33.659 33.659 0 0 0-5.21-3.728C16.766 34.717 24.122 29.078 32.8 28.81c4.965-.154 9.96 1.23 14.126 3.939 1.403.912 5.303 3.378 4.767 5.312-.243.873-.824 1.752-1.145 2.607a31.275 31.275 0 0 0-1.006 3.249c-3.78-3.93-9.376-5.763-14.791-5.41m11.11-10.08c4.545 1.051 8.73 2.95 11.23 6.934a53.91 53.91 0 0 0-4.354 1.424c-.199-.543-.591-1.041-1.089-1.562-2.814-2.944-6.43-5.093-10.303-6.32a25.385 25.385 0 0 0-5.11-1.052c3.237-.297 6.529-.142 9.627.575m8.667 14.684a25.82 25.82 0 0 0-3.995 1.44c.518-2.06 1.287-3.944 2.106-5.902.106-.256.163-.494.198-.723a55.586 55.586 0 0 1 4.28-1.421c-.747 2.245-1.893 4.336-2.59 6.606m3.963-7.469a.474.474 0 0 0-.054-.171c-.008-.016-.007-.031-.015-.048-2.515-4.546-6.905-6.71-11.81-7.954-5.65-1.434-11.978-1.022-17.528.637a.557.557 0 0 0-.219.123 23.105 23.105 0 0 0-9.457 4.364c-3.297 2.557-5.929 5.882-7.762 9.623-.169.344.032.659.301.782a32.194 32.194 0 0 1 5.346 3.771c.093.08.193.114.293.128.03.396.563.739.956.382 4.468-4.062 10.073-7.258 16.209-7.662 5.526-.364 11.172 1.623 14.763 5.928.114.283.437.505.793.329a24.52 24.52 0 0 1 4.807-1.777c.033-.008.054-.027.084-.04l.048-.023a.486.486 0 0 0 .127-.098c.012-.012.02-.025.03-.038a.485.485 0 0 0 .071-.136c.008-.019.02-.03.027-.052.774-2.707 2.243-5.139 2.977-7.86.006-.024 0-.045.004-.069v-.012c.003-.02.004-.039.005-.057 0-.024.006-.045.004-.07"/>
    <g transform="translate(2 6.106)">
      <mask id="b" fill="#fff">
        <use xlink:href="#a"/>
      </mask>
      <path fill="#000" d="M62.141 20.774c-1.394.184-2.783.395-4.17.628a48.513 48.513 0 0 1 2.523-6.722.551.551 0 0 0 .042-.316c1.254.148 2.803-.573 4.01-.977-.706 2.492-1.839 4.85-2.405 7.387m-12.643-7.218c-4.026-2.291-8.38-4.21-12.968-5.007-4.745-.825-9.282-.065-13.882 1.153-.005 0-.01.003-.014.004l-.092.024c-2.044.543-3.995 1.065-5.68 2.401-1.794 1.425-3.438 3.151-4.956 4.863-3.112 3.507-5.573 7.728-5.76 12.467-1.647-1.148-3.294-2.297-4.942-3.444.774-2.455 1.949-4.731 3.264-6.94 1.39-2.336 2.794-4.727 4.48-6.864 3.237-4.103 8.093-7.184 13.074-8.69 4.886-1.477 10.447-1.706 15.507-1.246a36.286 36.286 0 0 1 15.547 5.162c1.294.792 2.486 1.702 3.533 2.803.973 1.022 1.66 2.188 2.491 3.31.15.202.321.355.504.478-.023.03-.05.052-.068.09a50.739 50.739 0 0 0-2.606 6.896c-2.055-2.968-4.203-5.623-7.432-7.46m-36.1 5.325c-1.308 2.013-2.47 4.118-3.62 6.224-.93 1.7-1.784 3.385-2.176 5.267a4.07 4.07 0 0 1-.294-.38.537.537 0 0 0-.06-.07c.045-4.284 2.082-8.162 4.803-11.403 1.308-1.56 2.752-3.004 4.232-4.4.957-.902 1.914-1.568 2.97-2.09-2.293 1.945-4.206 4.314-5.855 6.852M50.115 3.554a33.22 33.22 0 0 1 7.57 3.875c2.219 1.524 4.123 3.473 6.387 4.927-.416.123-.83.252-1.245.387-.592.19-1.6.682-2.22.548-.673-.145-1.059-1.11-1.401-1.601a20.031 20.031 0 0 0-1.053-1.382c-1.662-1.993-3.75-3.476-6.028-4.69-3.58-1.91-7.38-3.27-11.337-3.996 3.174.204 6.318.852 9.327 1.932m15.19 8.26c-2.693-1.55-4.847-3.87-7.429-5.592a34.479 34.479 0 0 0-7.885-3.885C44.408.41 38.404-.041 32.593.98h-.006c-8.81.12-17.698 2.755-23.693 9.567-1.957 2.223-3.477 4.824-5.01 7.348C2.315 20.482.893 23.149.027 26.06c-.088.292.06.505.27.61.039.066.095.127.17.18l5.784 4.03c.015.011.03.018.046.026.119.121.286.18.453.17.3.348.653.642 1.108.736.385.079.658-.164.703-.535.286-2.37 1.522-4.432 2.654-6.484 1-1.812 2.014-3.616 3.142-5.352 2.238-3.446 4.962-6.575 8.546-8.657 4.085-1.076 8.19-1.88 12.441-1.3 4.255.58 8.304 2.198 12.078 4.198 1.932 1.023 3.773 2.113 5.308 3.693 1.361 1.402 2.46 3.026 3.552 4.641-.042.34.237.75.686.67 1.887-.337 3.78-.63 5.68-.874.34-.044.515-.331.524-.603.002-.01.009-.015.011-.025.642-2.978 2.09-5.702 2.732-8.68.093-.428-.276-.703-.61-.69" mask="url(#b)"/>
    </g>
  </g>
</svg>
