<?xml version="1.0" encoding="utf-8"?>
<!-- Generator: Adobe Illustrator 27.8.1, SVG Export Plug-In . SVG Version: 6.00 Build 0)  -->
<svg version="1.2" baseProfile="tiny" id="Layer_1" xmlns="http://www.w3.org/2000/svg" xmlns:xlink="http://www.w3.org/1999/xlink"
	 x="0px" y="0px" viewBox="0 0 22 22" overflow="visible" xml:space="preserve">
<g>
	<g>
		<g>
			<path fill="#576164" d="M21.3,11.8H0.7C0.3,11.8,0,11.4,0,11s0.3-0.8,0.7-0.8h20.5c0.4,0,0.7,0.3,0.7,0.8S21.7,11.8,21.3,11.8z"
				/>
		</g>
		<g>
			<path fill="#576164" d="M16.7,13.7c-0.4,0-0.7-0.3-0.7-0.8V9.1c0-0.4,0.3-0.8,0.7-0.8s0.7,0.3,0.7,0.8v3.8
				C17.5,13.3,17.2,13.7,16.7,13.7z"/>
		</g>
		<g>
			<path fill="#576164" d="M21.3,20.1H0.7c-0.4,0-0.7-0.3-0.7-0.8s0.3-0.8,0.7-0.8h20.5c0.4,0,0.7,0.3,0.7,0.8S21.7,20.1,21.3,20.1z
				"/>
		</g>
		<g>
			<path fill="#576164" d="M11,22c-0.4,0-0.7-0.3-0.7-0.8v-3.8c0-0.4,0.3-0.8,0.7-0.8s0.8,0.3,0.8,0.8v3.8C11.8,21.7,11.4,22,11,22z
				"/>
		</g>
		<g>
			<path fill="#576164" d="M21.3,3.4H0.7C0.3,3.4,0,3.1,0,2.7s0.3-0.8,0.7-0.8h20.5c0.4,0,0.7,0.3,0.7,0.8S21.7,3.4,21.3,3.4z"/>
		</g>
		<g>
			<path fill="#576164" d="M5.3,5.3C4.8,5.3,4.5,5,4.5,4.6V0.8C4.5,0.3,4.8,0,5.3,0S6,0.3,6,0.8v3.8C6,5,5.7,5.3,5.3,5.3z"/>
		</g>
	</g>
</g>
</svg>
