<?xml version="1.0" encoding="utf-8"?>
<!-- Generator: Adobe Illustrator 27.8.1, SVG Export Plug-In . SVG Version: 6.00 Build 0)  -->
<svg version="1.1" id="Layer_1" xmlns="http://www.w3.org/2000/svg" xmlns:xlink="http://www.w3.org/1999/xlink" x="0px" y="0px"
	 viewBox="0 0 22 22" style="enable-background:new 0 0 22 22;" xml:space="preserve">
<style type="text/css">
	.st0{fill:#576164;}
</style>
<g>
	<g>
		<g>
			<path class="st0" d="M11.3,22C5.1,22,0,16.9,0,10.7C0,5.9,3.1,1.6,7.7,0C8-0.1,8.3,0,8.5,0.2C8.7,0.4,8.7,0.7,8.7,1
				C7.5,4.5,8.4,8.3,11,11c0,0,0,0,0,0c2.6,2.6,6.4,3.5,10,2.4c0.3-0.1,0.6,0,0.8,0.2c0.2,0.2,0.3,0.5,0.2,0.8
				C20.4,18.9,16.1,22,11.3,22z M6.9,2c-3.3,1.6-5.4,5-5.4,8.7c0,5.4,4.4,9.8,9.8,9.8c3.7,0,7.1-2.1,8.7-5.3
				c-3.6,0.7-7.4-0.5-10-3.1C7.3,9.4,6.2,5.6,6.9,2z"/>
		</g>
		<g>
			<path class="st0" d="M17,7.7c-0.4,0-0.8-0.3-0.8-0.7V3.1c0-0.4,0.3-0.7,0.8-0.7s0.8,0.3,0.8,0.7V7C17.7,7.4,17.4,7.7,17,7.7z"/>
		</g>
		<g>
			<path class="st0" d="M18.9,5.8H15c-0.4,0-0.8-0.3-0.8-0.7c0-0.4,0.3-0.7,0.8-0.7h3.9c0.4,0,0.8,0.3,0.8,0.7
				C19.7,5.5,19.4,5.8,18.9,5.8z"/>
		</g>
	</g>
</g>
</svg>
