<?xml version="1.0" encoding="utf-8"?>
<!-- Generator: Adobe Illustrator 27.8.1, SVG Export Plug-In . SVG Version: 6.00 Build 0)  -->
<svg version="1.2" baseProfile="tiny" id="Layer_1" xmlns="http://www.w3.org/2000/svg" xmlns:xlink="http://www.w3.org/1999/xlink"
	 x="0px" y="0px" viewBox="0 0 22 22" overflow="visible" xml:space="preserve">
<g>
	<g>
		<g>
			<path fill="#576164" d="M11,16.7c-3.1,0-5.7-2.6-5.7-5.7S7.9,5.3,11,5.3c3.1,0,5.7,2.6,5.7,5.7S14.1,16.7,11,16.7z M11,6.8
				c-2.3,0-4.2,1.9-4.2,4.2s1.9,4.2,4.2,4.2c2.3,0,4.2-1.9,4.2-4.2S13.3,6.8,11,6.8z"/>
		</g>
		<g>
			<path fill="#576164" d="M11,3.7c-0.4,0-0.8-0.3-0.8-0.8V0.7C10.2,0.3,10.6,0,11,0s0.8,0.3,0.8,0.8V3C11.8,3.4,11.4,3.7,11,3.7z"
				/>
		</g>
		<g>
			<path fill="#576164" d="M5.3,6.1C5.1,6.1,5,6,4.8,5.9L3.2,4.3C2.9,4,2.9,3.5,3.2,3.2s0.8-0.3,1.1,0l1.6,1.6
				c0.3,0.3,0.3,0.8,0,1.1C5.7,6,5.5,6.1,5.3,6.1z"/>
		</g>
		<g>
			<path fill="#576164" d="M3,11.8H0.8C0.3,11.8,0,11.4,0,11s0.3-0.8,0.8-0.8H3c0.4,0,0.8,0.3,0.8,0.8S3.4,11.8,3,11.8z"/>
		</g>
		<g>
			<path fill="#576164" d="M3.8,19c-0.2,0-0.4-0.1-0.5-0.2c-0.3-0.3-0.3-0.8,0-1.1l1.6-1.6c0.3-0.3,0.8-0.3,1.1,0
				c0.3,0.3,0.3,0.8,0,1.1l-1.6,1.6C4.2,18.9,4,19,3.8,19z"/>
		</g>
		<g>
			<path fill="#576164" d="M11,22c-0.4,0-0.8-0.3-0.8-0.8V19c0-0.4,0.3-0.8,0.8-0.8s0.8,0.3,0.8,0.8v2.2C11.8,21.7,11.4,22,11,22z"
				/>
		</g>
		<g>
			<path fill="#576164" d="M18.2,19c-0.2,0-0.4-0.1-0.5-0.2l-1.6-1.6c-0.3-0.3-0.3-0.8,0-1.1c0.3-0.3,0.8-0.3,1.1,0l1.6,1.6
				c0.3,0.3,0.3,0.8,0,1.1C18.6,18.9,18.4,19,18.2,19z"/>
		</g>
		<g>
			<path fill="#576164" d="M21.2,11.8H19c-0.4,0-0.8-0.3-0.8-0.8s0.3-0.8,0.8-0.8h2.2c0.4,0,0.8,0.3,0.8,0.8S21.7,11.8,21.2,11.8z"
				/>
		</g>
		<g>
			<path fill="#576164" d="M16.7,6.1c-0.2,0-0.4-0.1-0.5-0.2c-0.3-0.3-0.3-0.8,0-1.1l1.6-1.6c0.3-0.3,0.8-0.3,1.1,0s0.3,0.8,0,1.1
				l-1.6,1.6C17,6,16.9,6.1,16.7,6.1z"/>
		</g>
	</g>
</g>
</svg>
