<?xml version="1.0" encoding="UTF-8" standalone="yes"?>
<svg xmlns="http://www.w3.org/2000/svg" width="155" height="108" viewBox="0 0 155 108">
  <rect x="10" y ="10" width="135" height="88" style="fill:#ffffff" />
  <path d="m 132.43882,68.14766 -42.639471,-0.0747
           c -2.69422,0.0329 -3.6101,-1.02398 -3.62362,-3.71076
             -0.0154,-2.736843 1.00185,-3.666319 3.64984,-3.648759
             14.211841,0.095 28.426151,0.13349 42.637751,0.07165
             2.86369,-0.01428 3.68165,1.080669 3.71917,3.873729
             0.0382,2.92292 -1.25128,3.5187 -3.74367,3.48883
           M 78.298239,84.43693
           c -12.071512,5.27792 -24.704964,7.71681 -37.786534,5.97672
             -7.16465,-0.95497 -14.172859,-3.27272 -21.190301,-5.19983
             -1.536526,-0.42188 -3.73677,-1.57758 -4.034203,-2.78491
             -0.713555,-2.88688 -0.365638,-6.10672 2.286988,-8.10041
             1.847704,-1.39009 4.038665,-2.4267 6.218996,-3.2528
             4.041369,-1.53075 8.226086,-2.68148 12.271924,-4.20077
             3.051461,-1.14671 3.033447,-1.36621 2.398978,-5.074179
             -5.053724,-0.356758 -10.162092,-0.781336 -14.346767,-4.663183
             4.318992,-2.523771 5.214355,-6.685987 5.596862,-10.996163
             0.499744,-5.603711 0.33774,-11.308512 1.26354,-16.830314
             1.42313,-8.486059 8.689663,-13.723099 16.957215,-12.265338
             4.041322,0.711553 8.09735,2.213622 11.745318,4.135671
             4.401297,2.321343 5.221782,7.095807 5.563316,11.556597
             0.362364,4.717837 -0.01786,9.48365 0.114628,14.223759
             0.11372,4.142 1.423294,7.794937 5.260652,10.03988
             -1.952537,2.424617 -1.952537,2.424617 -13.975229,4.93865
             -0.854746,2.63592 0.04773,4.25792 2.713913,5.14152
             4.958744,1.64373 9.941604,3.25588 14.796793,5.17971
             4.689656,1.85627 6.105271,4.37137 6.173121,9.09603
             0.0252,1.67485 -0.586439,2.44818 -2.03029,3.07958
           m 11.5129,-41.115579
           a 4833.6849,4833.6849 0 0 0 42.631241,0.07852
           c 2.6175,-0.0068 3.68112,0.85889 3.66412,3.642374
             -0.0164,2.625356 -0.67566,3.747473 -3.48932,3.684793
             -7.2015,-0.164512 -14.40587,-0.07857 -21.61034,-0.09122
             -7.10395,-0.01427 -14.213431,-0.120463 -21.313601,0.0057
             -2.76961,0.04866 -3.5645,-1.042925 -3.58016,-3.688949
             -0.0166,-2.760151 1.0919,-3.646849 3.69786,-3.632321
           m -0.19203,-17.342992
           a 3830.1824,3830.1824 0 0 0 42.912991,0.07529
           c 2.81039,-0.01176 3.49913,1.202429 3.49378,3.786425
             -0.004,2.475058 -0.63703,3.58308 -3.3301,3.523855
             -7.19853,-0.155002 -14.40072,-0.0751 -21.60303,-0.08817
             -7.10266,-0.0134 -14.207221,-0.111585 -21.306051,0.0043
             -2.63279,0.04336 -3.75004,-0.758085 -3.73604,-3.545468
             0.0146,-2.622778 0.82014,-3.77668 3.56824,-3.757283
           M 154.19015,14.018706
           c -0.0258,-2.594736 -1.14848,-5.4357277 -2.50169,-7.7220287
             -2.95354,-4.990731 -7.91571,-6.08134302 -13.33721,-6.08758702
             -40.808311,-0.03953 -81.616102,-0.134077 -122.426387,-0.206844
           a 33.9152,33.9152 0 0 0 -2.663814,0.07404
           C 5.0793011,0.70295028 -0.03348788,6.2799823 1.6511745e-4,14.535538
             0.09622512,40.326257 0.44274512,66.11984 0.15399112,91.90244
           c -0.0951,8.44642 6.22495898,15.78483 15.50453988,15.64065
             5.135484,-0.0816 10.274206,-0.12348 15.410855,-0.14142
             15.412529,-0.0521 30.828404,0.11476 46.243298,0.144
             21.046505,0.0384 42.093246,0.11251 63.138056,0.10186
             8.19306,-0.003 14.15029,-5.71562 14.13524,-13.58147
             -0.0543,-26.68296 -0.11667,-53.366629 -0.39583,-80.047365" style="fill:#4d7aa4" />
</svg>
