<?xml version="1.0" encoding="UTF-8"?>
<svg id="Ebene_1" data-name="Ebene 1" xmlns="http://www.w3.org/2000/svg" xmlns:xlink="http://www.w3.org/1999/xlink" viewBox="0 0 597.7 201">
  <defs>
    <style>
      .cls-1 {
        fill: #5487c4;
      }

      .cls-2 {
        fill: #5386c1;
      }

      .cls-3 {
        fill: url(#Unbenannter_Verlauf_4);
      }

      .cls-4 {
        fill: url(#Unbenannter_Verlauf_2);
      }

      .cls-5 {
        fill: #57a729;
      }
    </style>
    <linearGradient id="Unbenannter_Verlauf_2" data-name="Unbenannter Verlauf 2" x1="127.26" y1="149.43" x2="127.26" y2="51.57" gradientUnits="userSpaceOnUse">
      <stop offset="0" stop-color="#578bc4"/>
      <stop offset=".18" stop-color="#689cce"/>
      <stop offset=".41" stop-color="#79add9"/>
      <stop offset=".68" stop-color="#83b7df"/>
      <stop offset="1" stop-color="#87bbe1"/>
    </linearGradient>
    <linearGradient id="Unbenannter_Verlauf_4" data-name="Unbenannter Verlauf 4" x1="73.53" y1="149.43" x2="73.53" y2="51.57" gradientUnits="userSpaceOnUse">
      <stop offset="0" stop-color="#5dab2d"/>
      <stop offset=".07" stop-color="#65ae37"/>
      <stop offset=".27" stop-color="#79b74e"/>
      <stop offset=".48" stop-color="#87bd5f"/>
      <stop offset=".71" stop-color="#90c069"/>
      <stop offset="1" stop-color="#93c26d"/>
    </linearGradient>
  </defs>
  <path class="cls-4" d="M104.98,51.57v17.32c15.47,2.23,27.36,15.53,27.36,31.61s-11.89,29.39-27.36,31.61v17.32c24.99-2.32,44.56-23.33,44.56-48.93s-19.57-46.61-44.56-48.93Z"/>
  <path class="cls-3" d="M95.83,132.12c-15.48-2.21-27.39-15.52-27.39-31.62s11.91-29.41,27.39-31.62v-17.31c-25.01,2.3-44.59,23.33-44.59,48.93s19.59,46.63,44.59,48.93v-17.31Z"/>
  <path class="cls-2" d="M148.94,167.5H52.06c-10.23,0-18.56-8.33-18.56-18.56V52.06c0-10.23,8.33-18.56,18.56-18.56h96.88c10.23,0,18.56,8.33,18.56,18.56v96.88c0,10.23-8.33,18.56-18.56,18.56ZM52.06,37.5c-8.03,0-14.56,6.53-14.56,14.56v96.88c0,8.03,6.53,14.56,14.56,14.56h96.88c8.03,0,14.56-6.53,14.56-14.56V52.06c0-8.03-6.53-14.56-14.56-14.56H52.06Z"/>
  <g>
    <path class="cls-1" d="M229.64,99.03l-3.33-11.22h-13.87l-3.33,11.22h-9.93l15.5-47.39h10.27l14.89,47.39h-10.2ZM221.41,70.4l-1.9-8.36c-.27,1.09-1.43,5.98-2.24,9.11-.88,3.4-1.5,5.64-2.52,8.77h9.25c-.34-1.02-1.84-6.26-2.58-9.52Z"/>
    <path class="cls-1" d="M267.51,99.98c-1.16-.82-2.11-1.97-2.72-3.4-2.24,2.18-5.51,3.33-9.18,3.33-4.9,0-9.11-2.31-10.27-5.64-.54-1.56-.75-3.4-.75-6.94v-22.3l8.97-1.7v22.37c0,3.13.27,4.76.75,5.71s1.84,1.63,3.2,1.63c2.24,0,4.96-1.63,5.64-3.33v-24.48l8.7-1.84v26.59c0,2.31.75,4.69,2.11,6.32l-6.46,3.67Z"/>
    <path class="cls-1" d="M292.95,100.11c-4.28,0-8.98-1.36-14.07-4.01l3.26-6.66c2.79,1.7,7.62,3.94,11.56,3.94,2.58,0,4.62-1.7,4.62-3.94,0-2.38-1.7-3.6-5.37-4.28l-4.08-.75c-2.31-.41-5.17-2.04-6.39-3.54-1.22-1.5-1.97-4.01-1.97-6.26,0-6.8,5.37-11.35,13.46-11.35,5.58,0,9.25,1.7,12.44,3.26l-2.99,6.12c-3.47-1.77-5.98-2.52-8.57-2.52s-4.42,1.36-4.42,3.4c0,1.77,1.16,2.72,4.35,3.54l4.22,1.09c4.28,1.09,5.71,2.38,6.94,3.94,1.29,1.63,1.9,3.6,1.9,5.92,0,7.21-5.98,12.1-14.89,12.1Z"/>
    <path class="cls-1" d="M348.36,99.03h-8.36l-3.13-11.97c-.75-2.79-1.56-6.12-1.97-8.43l-.54-3.47c-.2,1.5-.27,1.97-.82,4.49-.68,2.99-2.18,8.98-2.99,12.24l-1.77,7.14h-8.5l-9.52-34.2,9.04-1.02,2.86,13.4c.82,3.6,1.77,9.45,1.97,10.81.41-2.65,1.43-8.23,2.52-12.1l3.26-11.69h8.57l2.79,11.49c1.36,5.78,2.38,11.15,2.58,12.31.2-1.5.95-6.94,1.9-11.35l2.65-12.44h9.38l-9.93,34.81Z"/>
    <path class="cls-1" d="M371.42,84.48v.27c0,5.37,2.65,8.43,7.34,8.43,3.13,0,6.05-1.16,8.84-3.47l3.54,5.44c-4.01,3.26-8.23,4.83-13.12,4.83-10,0-16.45-7.07-16.45-18.02,0-6.26,1.29-10.4,4.35-13.8,2.86-3.2,6.32-4.69,10.95-4.69,4.01,0,7.82,1.36,10.06,3.67,3.2,3.26,4.62,7.96,4.62,15.23v2.11h-20.13ZM382.09,77.4c0-2.58-.27-3.94-1.09-5.24-.88-1.36-2.18-2.04-4.01-2.04-3.47,0-5.44,2.72-5.44,7.55v.14h10.54v-.41Z"/>
    <path class="cls-1" d="M403.45,60.27c-3.06,0-5.58-2.52-5.58-5.64s2.58-5.64,5.71-5.64,5.51,2.52,5.51,5.64-2.52,5.64-5.64,5.64ZM398.89,99.03v-34.2l9.11-1.43v35.63h-9.11Z"/>
    <path class="cls-1" d="M428.74,100.11c-4.28,0-8.97-1.36-14.07-4.01l3.26-6.66c2.79,1.7,7.62,3.94,11.56,3.94,2.58,0,4.62-1.7,4.62-3.94,0-2.38-1.7-3.6-5.37-4.28l-4.08-.75c-2.31-.41-5.17-2.04-6.39-3.54-1.22-1.5-1.97-4.01-1.97-6.26,0-6.8,5.37-11.35,13.46-11.35,5.58,0,9.25,1.7,12.44,3.26l-2.99,6.12c-3.47-1.77-5.98-2.52-8.57-2.52s-4.42,1.36-4.42,3.4c0,1.77,1.16,2.72,4.35,3.54l4.22,1.09c4.28,1.09,5.71,2.38,6.93,3.94,1.29,1.63,1.9,3.6,1.9,5.92,0,7.21-5.98,12.1-14.89,12.1Z"/>
    <path class="cls-1" d="M480.76,99.03l-3.33-11.22h-13.87l-3.33,11.22h-9.93l15.5-47.39h10.27l14.89,47.39h-10.2ZM472.53,70.4l-1.9-8.36c-.27,1.09-1.43,5.98-2.24,9.11-.88,3.4-1.5,5.64-2.52,8.77h9.25c-.34-1.02-1.84-6.26-2.58-9.52Z"/>
    <path class="cls-1" d="M522.1,95.83c-2.38,2.52-5.51,3.94-9.32,3.94-2.72,0-5.3-.68-7.28-1.84.14.82.14,1.84.14,2.86v10.88l-8.77,2.31v-40.25c0-4.56-.07-5.85-.54-8.77l8.09-1.43c.34,1.22.54,2.18.61,3.26,1.56-1.9,5.03-3.26,8.57-3.26,2.45,0,4.96.82,6.87,2.11,3.74,2.52,6.46,7,6.46,15.03,0,7.48-1.22,11.29-4.83,15.16ZM516.12,73.87c-.68-1.9-2.11-2.92-4.35-2.92s-4.42.95-6.05,2.65v16.93c1.22,1.02,3.2,2.04,5.03,2.04,4.49,0,6.26-3.06,6.26-11.01,0-3.33-.27-5.98-.88-7.68Z"/>
    <path class="cls-1" d="M559.37,95.83c-2.38,2.52-5.51,3.94-9.32,3.94-2.72,0-5.3-.68-7.28-1.84.14.82.14,1.84.14,2.86v10.88l-8.77,2.31v-40.25c0-4.56-.07-5.85-.54-8.77l8.09-1.43c.34,1.22.54,2.18.61,3.26,1.56-1.9,5.03-3.26,8.57-3.26,2.45,0,4.96.82,6.87,2.11,3.74,2.52,6.46,7,6.46,15.03,0,7.48-1.22,11.29-4.83,15.16ZM553.39,73.87c-.68-1.9-2.11-2.92-4.35-2.92s-4.42.95-6.05,2.65v16.93c1.22,1.02,3.2,2.04,5.03,2.04,4.49,0,6.26-3.06,6.26-11.01,0-3.33-.27-5.98-.88-7.68Z"/>
  </g>
  <g>
    <path class="cls-5" d="M213.21,139.61h-8.98c.24,2.82,1.79,3.96,4.54,3.96,2.17,0,3.54-1,3.99-1.34l1,3.03c-.52.48-2,1.96-5.95,1.96-4.54,0-7.77-2.54-7.77-8.91,0-5.95,3.47-8.67,7.64-8.67,3.61,0,5.81,2.3,5.81,6.71,0,1.51-.14,2.48-.28,3.27ZM204.2,136.72h5.4c.03-.31.03-.55.03-.79,0-1.79-.86-2.92-2.37-2.92-1.72,0-2.96,1.24-3.06,3.71Z"/>
    <path class="cls-5" d="M219.54,126.4h-2.82v-3.34h10.25v3.34h-2.82v17.06h2.85v3.34h-10.32v-3.34h2.85v-17.06Z"/>
    <path class="cls-5" d="M231.34,146.8v-23.73h5.67c9.01,0,13.14,3.34,13.14,11.52s-5.16,12.21-13.45,12.21h-5.37ZM235.95,126.88v16.1h.76c5.64,0,8.63-2.3,8.63-8.39,0-5.71-2.82-7.7-8.32-7.7h-1.07Z"/>
    <path class="cls-5" d="M263.43,137.96h-9.6v-3.44h9.6v3.44Z"/>
    <path class="cls-5" d="M278.36,128.16c-.55-.45-1.96-1.65-4.23-1.65s-3.2.96-3.2,2.13c0,1.48.69,2.2,2.61,3.37l2.58,1.58c3.23,1.99,4.64,3.89,4.64,6.91,0,3.3-2.34,6.71-8.08,6.71-3.82,0-5.81-1.65-6.6-2.3l1.51-3.85c.79.79,2.55,2.24,5.02,2.24s3.58-1.03,3.58-2.2c0-1.58-.69-2.41-2.51-3.61l-2.58-1.72c-3.27-2.17-4.68-3.85-4.68-7.02,0-3.37,2.82-6.09,7.57-6.09,3.34,0,5.06,1.31,5.81,1.86l-1.44,3.65Z"/>
    <path class="cls-5" d="M291.02,147.21c-4.23,0-7.57-2.72-7.57-8.8s3.75-8.77,7.81-8.77c4.26,0,7.57,2.68,7.57,8.77s-3.75,8.8-7.81,8.8ZM291.16,133.35c-1.79,0-3.27,1.44-3.27,5.06s1.48,5.09,3.27,5.09,3.23-1.44,3.23-5.09-1.48-5.06-3.23-5.06Z"/>
    <path class="cls-5" d="M311.42,133.49h-3.75v13.31h-4.33v-13.31h-2.27v-2.96l2.27-.41v-1.44c0-4.4,2.24-6.67,6.19-6.67,1.62,0,2.51.45,2.82.62l-.69,3.44c-.21-.1-.89-.41-1.65-.41-1.55,0-2.34.76-2.34,2.89v1.51h4.16l-.41,3.44Z"/>
    <path class="cls-5" d="M323.49,133.49h-3.85v6.78c0,2.44.65,3.23,2.24,3.23.79,0,1.48-.21,1.75-.31l.31,3.2c-.34.17-1.31.76-3.2.76-3.75,0-5.43-1.72-5.43-6.47v-7.19h-2.27v-2.96l2.27-.41.48-4.68h3.85v4.61h4.23l-.38,3.44Z"/>
    <path class="cls-5" d="M343.75,146.8h-3.58l-2.68-7.81h-.07l-3.03,7.81h-3.58l-5.81-16.75h4.68l3.23,11.18h.07l2.85-6.98-1.44-4.2h4.26l3.44,11.18h.07l3.13-11.18h4.26l-5.81,16.75Z"/>
    <path class="cls-5" d="M358.76,137.1h.69v-.58c0-2.17-.93-3.27-2.82-3.27-2.06,0-3.37,1.07-3.96,1.62l-1.34-2.75c.79-.83,2.75-2.48,6.19-2.48,3.92,0,6.12,2.2,6.12,7.02v5.64c0,1.93.14,3.44.28,4.51h-3.99c-.03-.48-.1-1.2-.1-1.86h-.07c-.58,1.03-1.62,2.27-3.99,2.27-2.75,0-4.68-1.99-4.68-5.02,0-3.51,3.37-5.09,7.67-5.09ZM359.44,142.81v-3.1l-.86.03c-2.24.1-3.41.69-3.41,2.03,0,1.2.79,2.06,1.82,2.06,1.24,0,1.96-.52,2.44-1.03Z"/>
    <path class="cls-5" d="M377.23,133.66c-.14-.07-.58-.21-1.27-.21-1.93,0-3.1.83-3.68,1.72v11.62h-4.33v-16.75h3.99v2.34h.07c.76-1.51,1.93-2.65,4.16-2.65.62,0,1.2.1,1.38.14l-.31,3.78Z"/>
    <path class="cls-5" d="M392.4,139.61h-8.98c.24,2.82,1.79,3.96,4.54,3.96,2.17,0,3.54-1,3.99-1.34l1,3.03c-.52.48-1.99,1.96-5.95,1.96-4.54,0-7.77-2.54-7.77-8.91,0-5.95,3.47-8.67,7.64-8.67,3.61,0,5.81,2.3,5.81,6.71,0,1.51-.14,2.48-.27,3.27ZM383.38,136.72h5.4c.03-.31.03-.55.03-.79,0-1.79-.86-2.92-2.37-2.92-1.72,0-2.96,1.24-3.06,3.71Z"/>
    <path class="cls-5" d="M410.56,129.64c1.38,0,2.3.34,2.92.72v-7.81l4.33-.38v24.63h-3.96v-1.89h-.07c-.38.62-1.55,2.3-4.54,2.3-3.78,0-6.4-2.92-6.4-8.74s3.65-8.84,7.7-8.84ZM413.48,142.36v-8.6c-.52-.34-1.24-.62-2.27-.62-2.3,0-3.92,1.65-3.92,5.12,0,3.78,1.38,5.23,3.23,5.23,1.44,0,2.37-.58,2.96-1.13Z"/>
    <path class="cls-5" d="M434.6,139.61h-8.98c.24,2.82,1.79,3.96,4.54,3.96,2.17,0,3.54-1,3.99-1.34l1,3.03c-.52.48-1.99,1.96-5.95,1.96-4.54,0-7.77-2.54-7.77-8.91,0-5.95,3.47-8.67,7.64-8.67,3.61,0,5.81,2.3,5.81,6.71,0,1.51-.14,2.48-.27,3.27ZM425.59,136.72h5.4c.03-.31.03-.55.03-.79,0-1.79-.86-2.92-2.37-2.92-1.72,0-2.96,1.24-3.06,3.71Z"/>
    <path class="cls-5" d="M447.61,134.31c-.48-.34-1.72-1.24-3.47-1.24-1.45,0-2.24.52-2.24,1.17,0,.86.62,1.27,2.17,2.03l1,.48c2.55,1.24,4.23,2.61,4.23,5.33,0,3.1-2.2,5.12-6.33,5.12-2.99,0-4.57-1.1-5.37-1.79l1.34-3.51c.65.65,2.03,1.75,3.89,1.75,1.48,0,2.44-.48,2.44-1.24,0-1-.69-1.34-2.44-2.24l-1-.52c-2.3-1.2-3.78-2.58-3.78-5.23,0-2.96,2.54-4.81,5.98-4.81,2.75,0,4.13,1.07,4.71,1.51l-1.13,3.16Z"/>
    <path class="cls-5" d="M471.1,134.55v.07c2.24.45,4.92,2.2,4.92,5.5,0,3.92-2.92,6.67-9.73,6.67h-5.92v-23.73h5.61c6.95,0,9.39,2.41,9.39,6.26,0,3.4-2.24,4.61-4.26,5.23ZM465.98,126.71h-1v6.36h.96c3.27,0,4.78-1.27,4.78-3.4,0-1.82-1.34-2.96-4.75-2.96ZM466.49,136.65h-1.51v6.43h1.31c3.51,0,4.99-1.14,4.99-3.27s-1.69-3.16-4.78-3.16Z"/>
    <path class="cls-5" d="M493.98,146.8h-3.96v-1.89h-.07c-.62.83-1.96,2.3-4.78,2.3-3.58,0-5.43-2.34-5.43-6.53v-10.63h4.33v9.87c0,2.55.76,3.58,2.61,3.58,1.41,0,2.3-.55,2.96-1.13v-12.31h4.33v16.75Z"/>
    <path class="cls-5" d="M508.46,146.8v-9.91c0-2.48-.83-3.54-2.68-3.54-1.41,0-2.41.58-3.06,1.17v12.28h-4.33v-16.75h3.99v1.86h.07c.62-.83,2.1-2.27,4.85-2.27,3.58,0,5.5,2.37,5.5,6.53v10.63h-4.33Z"/>
    <path class="cls-5" d="M523.97,129.64c1.38,0,2.3.34,2.92.72v-7.81l4.33-.38v24.63h-3.96v-1.89h-.07c-.38.62-1.55,2.3-4.54,2.3-3.78,0-6.4-2.92-6.4-8.74s3.65-8.84,7.7-8.84ZM526.9,142.36v-8.6c-.52-.34-1.24-.62-2.27-.62-2.3,0-3.92,1.65-3.92,5.12,0,3.78,1.38,5.23,3.23,5.23,1.44,0,2.37-.58,2.96-1.13Z"/>
    <path class="cls-5" d="M548.02,139.61h-8.98c.24,2.82,1.79,3.96,4.54,3.96,2.17,0,3.54-1,3.99-1.34l1,3.03c-.52.48-1.99,1.96-5.95,1.96-4.54,0-7.77-2.54-7.77-8.91,0-5.95,3.47-8.67,7.64-8.67,3.61,0,5.81,2.3,5.81,6.71,0,1.51-.14,2.48-.28,3.27ZM539.01,136.72h5.4c.03-.31.03-.55.03-.79,0-1.79-.86-2.92-2.37-2.92-1.72,0-2.96,1.24-3.06,3.71Z"/>
    <path class="cls-5" d="M561.02,134.31c-.48-.34-1.72-1.24-3.47-1.24-1.45,0-2.24.52-2.24,1.17,0,.86.62,1.27,2.17,2.03l1,.48c2.55,1.24,4.23,2.61,4.23,5.33,0,3.1-2.2,5.12-6.33,5.12-2.99,0-4.57-1.1-5.37-1.79l1.34-3.51c.65.65,2.03,1.75,3.89,1.75,1.48,0,2.44-.48,2.44-1.24,0-1-.69-1.34-2.44-2.24l-1-.52c-2.3-1.2-3.78-2.58-3.78-5.23,0-2.96,2.54-4.81,5.98-4.81,2.75,0,4.13,1.07,4.71,1.51l-1.13,3.16Z"/>
  </g>
</svg>
