<?xml version="1.0" encoding="utf-8"?>
<!-- Generator: Adobe Illustrator 14.0.0, SVG Export Plug-In . SVG Version: 6.00 Build 43363)  -->
<!DOCTYPE svg PUBLIC "-//W3C//DTD SVG 1.1//EN" "http://www.w3.org/Graphics/SVG/1.1/DTD/svg11.dtd">
<svg version="1.1" id="Ebene_1" xmlns="http://www.w3.org/2000/svg" xmlns:xlink="http://www.w3.org/1999/xlink" x="0px" y="0px"
	 width="106.975px" height="106.976px" viewBox="0 0 106.975 106.976" enable-background="new 0 0 106.975 106.976"
	 xml:space="preserve">
<g>
	<g>
		<path fill="#568AC3" d="M106.975,91.783V15.191c0,0,0-15.191-15.194-15.191H15.192C15.192,0,0,0,0,15.191v76.592
			c0,0,0,15.192,15.191,15.192h76.592C91.784,106.974,106.975,106.974,106.975,91.783L106.975,91.783z"/>
		<path fill="#568AC3" d="M106.975,91.783V15.191c0,0,0-15.191-15.194-15.191H15.192C15.192,0,0,0,0,15.191v76.592
			c0,0,0,15.192,15.191,15.192h76.592C91.784,106.974,106.975,106.974,106.975,91.783L106.975,91.783z"/>
		<path fill="#568AC3" d="M103.793,91.132c0,12.661-12.661,12.661-12.661,12.661h-75.29C3.18,103.793,3.18,91.132,3.18,91.132
			V15.841c0-12.659,12.662-12.659,12.662-12.659h75.291c12.66,0,12.66,12.659,12.66,12.659V91.132L103.793,91.132z"/>
	</g>
	<path fill-rule="evenodd" clip-rule="evenodd" fill="#FFFFFF" d="M89.928,66.847L76.844,53.763
		c1.569-2.657,2.486-5.748,2.486-9.058c0-9.861-7.994-17.857-17.856-17.857s-17.858,7.996-17.858,17.857
		c0,9.863,7.996,17.857,17.858,17.857c3.31,0,6.399-0.917,9.057-2.487l13.083,13.086c0.809,0.805,1.925,1.306,3.156,1.306
		c2.467,0,4.465-1.999,4.465-4.464C91.235,68.77,90.734,67.653,89.928,66.847z M61.474,58.098c-7.396,0-13.392-5.995-13.392-13.393
		c0-7.396,5.996-13.393,13.392-13.393s13.392,5.997,13.392,13.393C74.866,52.103,68.87,58.098,61.474,58.098z"/>
	<path fill-rule="evenodd" clip-rule="evenodd" fill="#FFFFFF" d="M61.474,64.423c-4.056,0-7.829-1.232-10.968-3.342h-7.761v-2.23
		h5.013c-0.715-0.695-1.379-1.438-1.98-2.232h-3.032v-2.23h1.563c-1.621-2.862-2.553-6.165-2.553-9.683
		c0-2.167,0.357-4.252,1.007-6.203H23.651c-1.231,0-2.231,0.998-2.231,2.23v6.694v21.568c0,1.231,1,2.23,2.231,2.23h43.135
		c1.232,0,2.23-0.999,2.23-2.23v-6.092C66.626,63.9,64.063,64.423,61.474,64.423z M40.318,60.218c0,0.002,0,0.002,0,0.004
		c0,0.439-0.356,0.796-0.797,0.796H24.118c-0.439,0-0.795-0.356-0.795-0.796c0-0.002,0-0.002,0-0.004h-0.002
		c0,0,0-2.902,2.122-3.957c1.342-0.668,0.825-0.125,2.473-0.809c1.648-0.684,2.039-0.921,2.039-0.921l0.016-1.573
		c0,0-0.617-0.473-0.809-1.953c-0.386,0.111-0.514-0.453-0.537-0.812c-0.021-0.35-0.224-1.434,0.248-1.336
		c-0.097-0.724-0.166-1.377-0.133-1.724c0.118-1.215,1.289-2.485,3.094-2.577c2.12,0.092,2.96,1.36,3.077,2.575
		c0.034,0.347-0.04,1-0.137,1.725c0.471-0.097,0.266,0.985,0.243,1.334c-0.021,0.36-0.151,0.923-0.536,0.812
		c-0.193,1.48-0.811,1.948-0.811,1.948l0.015,1.566c0,0,0.391,0.222,2.039,0.905c1.647,0.684,1.13,0.172,2.473,0.84
		C40.319,57.315,40.319,60.218,40.318,60.218L40.318,60.218z"/>
</g>
</svg>
