<?xml version="1.0" encoding="utf-8"?>
<!-- Generator: Adobe Illustrator 14.0.0, SVG Export Plug-In . SVG Version: 6.00 Build 43363)  -->
<!DOCTYPE svg PUBLIC "-//W3C//DTD SVG 1.1//EN" "http://www.w3.org/Graphics/SVG/1.1/DTD/svg11.dtd">
<svg version="1.1" id="Layer_1" xmlns="http://www.w3.org/2000/svg" xmlns:xlink="http://www.w3.org/1999/xlink" x="0px" y="0px"
	 width="64px" height="64px" viewBox="0 0 64 64" enable-background="new 0 0 64 64" xml:space="preserve">
<path fill="#FFFFFF" d="M54.91,0H9.089C9.089,0,0,0,0,9.089v45.822c0,0,0,9.09,9.089,9.09h45.822c0-0.002,9.089-0.002,9.089-9.09
	V9.089C64,9.089,64,0,54.91,0z M29.848,17.121c-7.207,1.154-12.73,7.349-12.73,14.88c0,7.532,5.523,13.726,12.73,14.88v8.229
	C18.092,53.896,8.888,44.077,8.888,32c0-12.078,9.203-21.897,20.96-23.111V17.121z M34.151,55.11v-8.229
	c7.207-1.154,12.729-7.349,12.729-14.88c0-7.531-5.522-13.728-12.729-14.881V8.889C45.907,10.103,55.111,19.922,55.111,32
	C55.111,44.077,45.907,53.896,34.151,55.11z"/>
</svg>
