<?xml version="1.0" encoding="utf-8"?>
<!-- Generator: Adobe Illustrator 14.0.0, SVG Export Plug-In . SVG Version: 6.00 Build 43363)  -->
<svg version="1.1" id="Layer_1" xmlns="http://www.w3.org/2000/svg" xmlns:xlink="http://www.w3.org/1999/xlink" x="0px" y="0px"
	 width="64px" height="64px" viewBox="0 0 64 64" enable-background="new 0 0 64 64" xml:space="preserve">
<g id="TAGS_1_" enable-background="new    ">
	<g id="TAGS">
		<g>
			<path fill="#5489C2" d="M56.113,26.872l-5.133-4.91c-0.006,0.009-0.013,0.019-0.018,0.028L34.126,5.884
				C33.582,5.338,32.831,5,32,5c-0.003,0-0.005,0.001-0.008,0.001V4.993H13V5c-1.657,0-3,1.343-3,3h22l24.081,23.155L56.3,30.9
				l0.002,0.001C56.73,30.383,57,29.726,57,29C57,28.168,56.66,27.415,56.113,26.872z M54.997,35.951
				c-0.001-0.087-0.004-0.174-0.013-0.26c-0.002-0.017-0.006-0.03-0.008-0.045c-0.011-0.086-0.021-0.17-0.039-0.254
				c0-0.002,0-0.002,0-0.004c-0.123-0.595-0.422-1.123-0.84-1.531L31.126,11.884C30.582,11.338,29.831,11,29,11
				c-0.003,0-0.005,0.001-0.008,0.001v-0.008H10V11c-1.657,0-3,1.343-3,3H6.993v19.049h0.013c0.016,0.878,0.409,1.657,1.023,2.196
				l-0.011,0.012l25,23l0.006-0.005c0.395,0.348,0.879,0.594,1.418,0.693c0.021,0.005,0.045,0.008,0.066,0.011
				c0.067,0.011,0.135,0.022,0.202,0.028C34.807,58.995,34.902,59,35,59c0.916,0,1.734-0.411,2.284-1.059l0.001,0.002l17-20
				l-0.001-0.002C54.73,37.418,55,36.741,55,36C55,35.984,54.998,35.968,54.997,35.951z M15,23c-2.209,0-4-1.791-4-4s1.791-4,4-4
				s4,1.791,4,4S17.209,23,15,23z"/>
		</g>
	</g>
</g>
</svg>
