<?xml version="1.0" encoding="utf-8"?>
<!-- Generator: Adobe Illustrator 14.0.0, SVG Export Plug-In . SVG Version: 6.00 Build 43363)  -->
<svg version="1.1" id="Layer_1" xmlns="http://www.w3.org/2000/svg" xmlns:xlink="http://www.w3.org/1999/xlink" x="0px" y="0px"
	 width="64px" height="64px" viewBox="0 0 64 64" enable-background="new 0 0 64 64" xml:space="preserve">
<g id="TEXT__x2F__LEFT_1_" enable-background="new    ">
	<g id="TEXT__x2F__LEFT">
		<g>
			<path fill="#FFFFFF" d="M3,27h40c0,0,0,0,0.001,0H49c1.657,0,3-1.343,3-3s-1.343-3-3-3H3c-1.657,0-3,1.343-3,3S1.343,27,3,27z
				 M3,11h58c1.657,0,3-1.343,3-3s-1.343-3-3-3H3C1.343,5,0,6.343,0,8S1.343,11,3,11z M61,37H3c-1.657,0-3,1.343-3,3s1.343,3,3,3h58
				c1.657,0,3-1.343,3-3S62.657,37,61,37z M43,53H3c-1.657,0-3,1.343-3,3s1.343,3,3,3h40c1.657,0,3-1.343,3-3S44.657,53,43,53z"/>
		</g>
	</g>
</g>
</svg>
