<?xml version="1.0" encoding="utf-8"?>
<!-- Generator: Adobe Illustrator 14.0.0, SVG Export Plug-In . SVG Version: 6.00 Build 43363)  -->
<!DOCTYPE svg PUBLIC "-//W3C//DTD SVG 1.1//EN" "http://www.w3.org/Graphics/SVG/1.1/DTD/svg11.dtd">
<svg version="1.1" id="Layer_1" xmlns="http://www.w3.org/2000/svg" xmlns:xlink="http://www.w3.org/1999/xlink" x="0px" y="0px"
	 width="64px" height="64px" viewBox="0 0 64 64" enable-background="new 0 0 64 64" xml:space="preserve">
<g id="COG_1_" enable-background="new    ">
	<g id="COG">
		<g>
			<path fill="#FFFFFF" d="M32,20c-6.627,0-12,5.372-12,12c0,6.627,5.372,12,12,12s12-5.373,12-12S38.627,20,32,20z M32,38
				c-3.313,0-6-2.686-6-6c0-3.314,2.687-6,6-6c3.314,0,6,2.686,6,6C38,35.314,35.314,38,32,38z M55.518,25.462
				c-0.541-1.957-1.326-3.811-2.312-5.536c1.121-1.507,4.98-7.143,2.199-9.926l-1.428-1.507c-2.379-2.378-8.455,1.336-9.932,2.298
				c-1.745-0.989-3.62-1.774-5.6-2.31c-0.317-1.887-1.704-8.487-5.619-8.487h-1.566c-3.361,0-5.29,6.824-5.722,8.534
				c-1.952,0.545-3.801,1.334-5.521,2.32C18.661,9.839,12.841,5.816,10,8.656L8.493,9.924c-2.476,2.475,1.638,9.004,2.39,10.147
				c-0.951,1.698-1.715,3.517-2.24,5.435c-1.642,0.262-8.649,1.614-8.649,5.646v1.566c0,3.493,7.349,5.433,8.69,5.759
				c0.532,1.904,1.3,3.709,2.255,5.395c-0.791,1.238-4.745,7.738-2.292,10.193l1.427,1.188c3.229,3.229,9.974-2.075,9.974-2.075
				l-0.313-0.334c1.789,1.059,3.726,1.896,5.772,2.471c0.335,1.379,2.275,8.677,5.756,8.677h1.566c4.566,0,5.697-8.521,5.697-8.521
				l-0.418-0.013c2.068-0.529,4.031-1.325,5.851-2.346c1.426,0.949,7.401,4.688,9.786,2.305l1.587-1.588
				c3.184-3.184-1.997-9.696-2.142-9.877c0.983-1.723,1.772-3.571,2.315-5.525c1.78-0.451,8.483-2.374,8.483-5.707v-1.566
				C63.988,26.73,56.016,25.533,55.518,25.462z M32,50c-9.94,0-18-8.059-18-18c0-9.941,8.06-18,18-18c9.941,0,18,8.059,18,18
				C50,41.941,41.941,50,32,50z"/>
		</g>
	</g>
</g>
</svg>
