<?xml version="1.0" encoding="utf-8"?>
<!-- Generator: Adobe Illustrator 27.9.0, SVG Export Plug-In . SVG Version: 6.00 Build 0)  -->
<svg version="1.2" baseProfile="tiny" id="Layer_1" xmlns="http://www.w3.org/2000/svg" xmlns:xlink="http://www.w3.org/1999/xlink"
	 x="0px" y="0px" viewBox="0 0 138 60" overflow="visible" xml:space="preserve">
<g>
	<path fill="#0077B6" d="M129.2,11.9h-30c-0.3,0-0.5,0.2-0.5,0.5s0.2,0.5,0.5,0.5h30c0.3,0,0.5-0.2,0.5-0.5S129.5,11.9,129.2,11.9z"
		/>
	<path fill="#0077B6" d="M129.2,20.5h-30c-0.3,0-0.5,0.2-0.5,0.5s0.2,0.5,0.5,0.5h30c0.3,0,0.5-0.2,0.5-0.5S129.5,20.5,129.2,20.5z"
		/>
	<path fill="#0077B6" d="M108.6,42.6h21.1v-9.4h-21.1V42.6z M109.6,34.2h19.1v7.4h-19.1V34.2z"/>
	<path fill="#0077B6" d="M62.6,48.4h-3.3l2.3-2.3c0.2-0.2,0.2-0.5,0-0.7s-0.5-0.2-0.7,0l-2.3,2.3v-3.3c0-0.3-0.2-0.5-0.5-0.5
		s-0.5,0.2-0.5,0.5v3.3l-2.3-2.3c-0.2-0.2-0.5-0.2-0.7,0s-0.2,0.5,0,0.7l2.3,2.3h-3.3c-0.3,0-0.5,0.2-0.5,0.5s0.2,0.5,0.5,0.5h3.3
		l-2.3,2.3c-0.2,0.2-0.2,0.5,0,0.7c0.1,0.1,0.2,0.1,0.4,0.1s0.3,0,0.4-0.1l2.3-2.3v3.3c0,0.3,0.2,0.5,0.5,0.5s0.5-0.2,0.5-0.5v-3.3
		l2.3,2.3c0.1,0.1,0.2,0.1,0.4,0.1s0.3,0,0.4-0.1c0.2-0.2,0.2-0.5,0-0.7l-2.3-2.3h3.3c0.3,0,0.5-0.2,0.5-0.5S62.9,48.4,62.6,48.4z"
		/>
	<path fill="#0077B6" d="M48,48.4h-3.3l2.3-2.3c0.2-0.2,0.2-0.5,0-0.7s-0.5-0.2-0.7,0L44,47.7v-3.3c0-0.3-0.2-0.5-0.5-0.5
		S43,44.2,43,44.5v3.3l-2.3-2.3c-0.2-0.2-0.5-0.2-0.7,0s-0.2,0.5,0,0.7l2.3,2.3H39c-0.3,0-0.5,0.2-0.5,0.5s0.2,0.5,0.5,0.5h3.3
		l-2.3,2.3c-0.2,0.2-0.2,0.5,0,0.7c0.1,0.1,0.2,0.1,0.4,0.1c0.1,0,0.3,0,0.4-0.1l2.3-2.3v3.3c0,0.3,0.2,0.5,0.5,0.5s0.5-0.2,0.5-0.5
		v-3.3l2.3,2.3c0.1,0.1,0.2,0.1,0.4,0.1s0.3,0,0.4-0.1c0.2-0.2,0.2-0.5,0-0.7l-2.3-2.3H48c0.3,0,0.5-0.2,0.5-0.5S48.2,48.4,48,48.4z
		"/>
	<path fill="#0077B6" d="M77.3,48.4h-3.3l2.3-2.3c0.2-0.2,0.2-0.5,0-0.7s-0.5-0.2-0.7,0l-2.3,2.3v-3.3c0-0.3-0.2-0.5-0.5-0.5
		s-0.5,0.2-0.5,0.5v3.3L70,45.4c-0.2-0.2-0.5-0.2-0.7,0s-0.2,0.5,0,0.7l2.3,2.3h-3.3c-0.3,0-0.5,0.2-0.5,0.5s0.2,0.5,0.5,0.5h3.3
		l-2.3,2.3c-0.2,0.2-0.2,0.5,0,0.7c0.1,0.1,0.2,0.1,0.4,0.1s0.3,0,0.4-0.1l2.3-2.3v3.3c0,0.3,0.2,0.5,0.5,0.5s0.5-0.2,0.5-0.5v-3.3
		l2.3,2.3c0.1,0.1,0.2,0.1,0.4,0.1s0.3,0,0.4-0.1c0.2-0.2,0.2-0.5,0-0.7l-2.3-2.3h3.3c0.3,0,0.5-0.2,0.5-0.5S77.6,48.4,77.3,48.4z"
		/>
	<path fill="#0077B6" d="M92,48.4h-3.3l2.3-2.3c0.2-0.2,0.2-0.5,0-0.7s-0.5-0.2-0.7,0L88,47.7v-3.3c0-0.3-0.2-0.5-0.5-0.5
		c-0.3,0-0.5,0.2-0.5,0.5v3.3l-2.3-2.3c-0.2-0.2-0.5-0.2-0.7,0s-0.2,0.5,0,0.7l2.3,2.3H83c-0.3,0-0.5,0.2-0.5,0.5s0.2,0.5,0.5,0.5
		h3.3L84,51.8c-0.2,0.2-0.2,0.5,0,0.7c0.1,0.1,0.2,0.1,0.4,0.1c0.1,0,0.3,0,0.4-0.1l2.3-2.3v3.3c0,0.3,0.2,0.5,0.5,0.5
		c0.3,0,0.5-0.2,0.5-0.5v-3.3l2.3,2.3c0.1,0.1,0.2,0.1,0.4,0.1s0.3,0,0.4-0.1c0.2-0.2,0.2-0.5,0-0.7l-2.3-2.3H92
		c0.3,0,0.5-0.2,0.5-0.5S92.3,48.4,92,48.4z"/>
	<path fill="#0077B6" d="M33.3,48.4H30l2.3-2.3c0.2-0.2,0.2-0.5,0-0.7s-0.5-0.2-0.7,0l-2.3,2.3v-3.3c0-0.3-0.2-0.5-0.5-0.5
		s-0.5,0.2-0.5,0.5v3.3l-2.3-2.3c-0.2-0.2-0.5-0.2-0.7,0s-0.2,0.5,0,0.7l2.3,2.3h-3.3c-0.3,0-0.5,0.2-0.5,0.5s0.2,0.5,0.5,0.5h3.3
		l-2.3,2.3c-0.2,0.2-0.2,0.5,0,0.7c0.1,0.1,0.2,0.1,0.4,0.1c0.1,0,0.3,0,0.4-0.1l2.3-2.3v3.3c0,0.3,0.2,0.5,0.5,0.5s0.5-0.2,0.5-0.5
		v-3.3l2.3,2.3c0.1,0.1,0.2,0.1,0.4,0.1s0.3,0,0.4-0.1c0.2-0.2,0.2-0.5,0-0.7L30,49.4h3.3c0.3,0,0.5-0.2,0.5-0.5
		S33.5,48.4,33.3,48.4z"/>
	<path fill="#0077B6" d="M18.6,48.4h-3.3l2.3-2.3c0.2-0.2,0.2-0.5,0-0.7s-0.5-0.2-0.7,0l-2.3,2.3v-3.3c0-0.3-0.2-0.5-0.5-0.5
		c-0.3,0-0.5,0.2-0.5,0.5v3.3l-2.3-2.3c-0.2-0.2-0.5-0.2-0.7,0c-0.2,0.2-0.2,0.5,0,0.7l2.3,2.3H9.6c-0.3,0-0.5,0.2-0.5,0.5
		s0.2,0.5,0.5,0.5h3.3l-2.3,2.3c-0.2,0.2-0.2,0.5,0,0.7c0.1,0.1,0.2,0.1,0.4,0.1s0.3,0,0.4-0.1l2.3-2.3v3.3c0,0.3,0.2,0.5,0.5,0.5
		c0.3,0,0.5-0.2,0.5-0.5v-3.3l2.3,2.3c0.1,0.1,0.2,0.1,0.4,0.1c0.1,0,0.3,0,0.4-0.1c0.2-0.2,0.2-0.5,0-0.7l-2.3-2.3h3.3
		c0.3,0,0.5-0.2,0.5-0.5S18.8,48.4,18.6,48.4z"/>
	<path fill="#0077B6" d="M112.1,36.8c-0.3,0-0.5,0.2-0.5,0.5v1.1c0,0.3,0.2,0.5,0.5,0.5s0.5-0.2,0.5-0.5v-1.1
		C112.6,37.1,112.4,36.8,112.1,36.8z"/>
	<path fill="#0077B6" d="M126.2,36.8c-0.3,0-0.5,0.2-0.5,0.5v1.1c0,0.3,0.2,0.5,0.5,0.5s0.5-0.2,0.5-0.5v-1.1
		C126.7,37.1,126.5,36.8,126.2,36.8z"/>
	<path fill="#0077B6" d="M123.4,36.8c-0.3,0-0.5,0.2-0.5,0.5v1.1c0,0.3,0.2,0.5,0.5,0.5s0.5-0.2,0.5-0.5v-1.1
		C123.9,37.1,123.7,36.8,123.4,36.8z"/>
	<path fill="#0077B6" d="M120.6,36.8c-0.3,0-0.5,0.2-0.5,0.5v1.1c0,0.3,0.2,0.5,0.5,0.5s0.5-0.2,0.5-0.5v-1.1
		C121.1,37.1,120.8,36.8,120.6,36.8z"/>
	<path fill="#0077B6" d="M117.8,36.8c-0.3,0-0.5,0.2-0.5,0.5v1.1c0,0.3,0.2,0.5,0.5,0.5s0.5-0.2,0.5-0.5v-1.1
		C118.3,37.1,118,36.8,117.8,36.8z"/>
	<path fill="#0077B6" d="M114.9,36.8c-0.3,0-0.5,0.2-0.5,0.5v1.1c0,0.3,0.2,0.5,0.5,0.5s0.5-0.2,0.5-0.5v-1.1
		C115.4,37.1,115.2,36.8,114.9,36.8z"/>
	<path fill="#0077B6" d="M132.6,0H63c-2.9,0-5.4,2.5-5.4,5.4v27.8v4.7h-50c-4.2,0-7.6,3.4-7.6,7.6v7C0,56.6,3.4,60,7.6,60H94
		c4.2,0,7.6-3.4,7.6-7.6v-3h4.5h26.4c3,0,5.4-2.4,5.4-5.4V5.4C138,2.5,135.5,0,132.6,0z M100.6,49.4v3c0,3.6-3,6.6-6.6,6.6H7.6
		C4,59,1,56.1,1,52.4v-7c0-3.6,3-6.6,6.6-6.6h50H94c3.6,0,6.6,2.9,6.6,6.6V49.4z M65.6,38.1c1.5-2,3.4-3.6,5.6-4.9
		c0.2-0.1,0.5,0,0.7,0.2c0.1,0.2,0,0.5-0.2,0.7c-2.1,1.2-3.8,2.7-5.2,4.6c-0.1,0.1-0.2,0.2-0.4,0.2c-0.1,0-0.2,0-0.3-0.1
		C65.5,38.6,65.5,38.3,65.6,38.1z M80,32c0,0,0.1,0,0.1,0c0,0,0.1,0,0.1,0c2.1,0,4.3,0.4,6.3,1.2H73.6C75.6,32.4,77.8,32,80,32z
		 M79.5,30.9c-4.7-0.3-8.4-4.2-8.4-9c0-5,4-9,9-9c5,0,9,4,9,9c0,4.8-3.7,8.7-8.4,9c-0.2,0-0.4,0-0.6,0
		C79.9,30.9,79.7,30.9,79.5,30.9z M88.2,33.4c0.1-0.2,0.4-0.3,0.7-0.2c2.2,1.2,4,2.9,5.6,4.9c0.2,0.2,0.1,0.5-0.1,0.7
		c-0.1,0.1-0.2,0.1-0.3,0.1c-0.2,0-0.3-0.1-0.4-0.2c-1.4-1.9-3.2-3.4-5.2-4.6C88.2,34,88.1,33.7,88.2,33.4z M137,44
		c0,2.4-2,4.4-4.4,4.4h-26.3c0-0.2,0-0.5,0-0.7v-7c0-4.2-3.4-7.6-7.6-7.6h-10c-1.6-0.9-3.3-1.5-5.1-1.9c3.8-1.4,6.4-5.1,6.4-9.3
		c0-5.5-4.5-10-10-10c-5.5,0-10,4.5-10,10c0,4.2,2.7,7.9,6.4,9.3c-1.8,0.4-3.5,1-5.2,1.9H58.6V5.4C58.6,3,60.6,1,63,1h69.6
		c2.4,0,4.4,2,4.4,4.4V44z"/>
</g>
</svg>
