<svg width="222" height="138" viewBox="0 0 222 138" fill="none" xmlns="http://www.w3.org/2000/svg">
<path d="M205.892 2.68994H16.0911C8.68852 2.68994 2.6875 8.69679 2.6875 16.1066V121.876C2.6875 129.286 8.68852 135.293 16.0911 135.293H205.892C213.295 135.293 219.296 129.286 219.296 121.876V16.1066C219.296 8.69679 213.295 2.68994 205.892 2.68994Z" stroke="#0077B6" stroke-linecap="round" stroke-linejoin="round"/>
<path d="M14.7305 134.435C14.7305 108.291 35.9781 87.3594 62.4999 87.3594C89.0216 87.3594 110.269 108.308 110.269 134.435" stroke="#0077B6" stroke-linecap="round" stroke-linejoin="round"/>
<path d="M118.097 35.2061H200.064" stroke="#0077B6" stroke-linecap="round" stroke-linejoin="round"/>
<path d="M62.6342 87.4941C76.9849 87.4941 88.6184 75.8493 88.6184 61.4846C88.6184 47.1199 76.9849 35.4751 62.6342 35.4751C48.2835 35.4751 36.6499 47.1199 36.6499 61.4846C36.6499 75.8493 48.2835 87.4941 62.6342 87.4941Z" stroke="#0077B6" stroke-linecap="round" stroke-linejoin="round"/>
<path d="M118.097 58.7778H200.064" stroke="#0077B6" stroke-linecap="round" stroke-linejoin="round"/>
<path d="M118.097 81.5757H182.041" stroke="#0077B6" stroke-linecap="round" stroke-linejoin="round"/>
<path d="M117.845 103.853H137.933" stroke="#0077B6" stroke-linecap="round" stroke-linejoin="round"/>
<path fill-rule="evenodd" clip-rule="evenodd" d="M145 116.897H204.384C205.775 116.897 206.903 115.768 206.903 114.375V104H208.34C209.731 104 210.859 105.129 210.859 106.522V120.191C210.859 121.583 209.731 122.713 208.34 122.713H147.52C146.128 122.713 145 121.583 145 120.191V116.897Z" fill="#0077B6"/>
<path d="M204.34 99H143.519C142.128 99 141 100.129 141 101.522V114.064C141 115.457 142.128 116.586 143.519 116.586H204.34C205.731 116.586 206.859 115.457 206.859 114.064V101.522C206.859 100.129 205.731 99 204.34 99Z" stroke="#0077B6" stroke-linecap="round" stroke-linejoin="round"/>
<path d="M153.055 107.379H151.106L152.483 106.001C152.702 105.782 152.702 105.446 152.483 105.227C152.265 105.009 151.929 105.009 151.711 105.227L150.334 106.606V104.656C150.334 104.353 150.082 104.118 149.796 104.118C149.51 104.118 149.259 104.37 149.259 104.656V106.606L147.881 105.227C147.663 105.009 147.327 105.009 147.109 105.227C146.89 105.446 146.89 105.782 147.109 106.001L148.486 107.379H146.537C146.235 107.379 146 107.632 146 107.917C146 108.203 146.252 108.455 146.537 108.455H148.486L147.109 109.834C146.89 110.053 146.89 110.389 147.109 110.607C147.209 110.708 147.361 110.776 147.495 110.776C147.629 110.776 147.78 110.725 147.881 110.607L149.259 109.229V111.179C149.259 111.482 149.51 111.717 149.796 111.717C150.082 111.717 150.334 111.465 150.334 111.179V109.229L151.711 110.607C151.812 110.708 151.963 110.776 152.097 110.776C152.232 110.776 152.383 110.725 152.483 110.607C152.702 110.389 152.702 110.053 152.483 109.834L151.106 108.455H153.055C153.357 108.455 153.592 108.203 153.592 107.917C153.592 107.632 153.34 107.379 153.055 107.379Z" fill="#0077B6"/>
<path d="M162.628 107.379H160.68L162.057 106.001C162.276 105.782 162.276 105.446 162.057 105.227C161.839 105.009 161.503 105.009 161.285 105.227L159.907 106.606V104.656C159.907 104.353 159.655 104.118 159.37 104.118C159.084 104.118 158.832 104.37 158.832 104.656V106.606L157.455 105.227C157.237 105.009 156.901 105.009 156.682 105.227C156.464 105.446 156.464 105.782 156.682 106.001L158.06 107.379H156.111C155.809 107.379 155.574 107.632 155.574 107.917C155.574 108.203 155.826 108.455 156.111 108.455H158.06L156.682 109.834C156.464 110.053 156.464 110.389 156.682 110.607C156.783 110.708 156.934 110.776 157.069 110.776C157.203 110.776 157.354 110.725 157.455 110.607L158.832 109.229V111.179C158.832 111.482 159.084 111.717 159.37 111.717C159.655 111.717 159.907 111.465 159.907 111.179V109.229L161.285 110.607C161.385 110.708 161.537 110.776 161.671 110.776C161.805 110.776 161.956 110.725 162.057 110.607C162.276 110.389 162.276 110.053 162.057 109.834L160.68 108.455H162.628C162.931 108.455 163.166 108.203 163.166 107.917C163.166 107.632 162.914 107.379 162.628 107.379Z" fill="#0077B6"/>
<path d="M171.984 107.279H170.036L171.413 105.9C171.632 105.682 171.632 105.345 171.413 105.127C171.195 104.908 170.859 104.908 170.641 105.127L169.263 106.505V104.555C169.263 104.252 169.011 104.017 168.726 104.017C168.44 104.017 168.188 104.269 168.188 104.555V106.505L166.811 105.127C166.593 104.908 166.257 104.908 166.038 105.127C165.82 105.345 165.82 105.682 166.038 105.9L167.416 107.279H165.467C165.165 107.279 164.93 107.531 164.93 107.817C164.93 108.103 165.182 108.355 165.467 108.355H167.416L166.038 109.733C165.82 109.952 165.82 110.288 166.038 110.507C166.139 110.608 166.29 110.675 166.425 110.675C166.559 110.675 166.71 110.625 166.811 110.507L168.188 109.128V111.078C168.188 111.381 168.44 111.616 168.726 111.616C169.011 111.616 169.263 111.364 169.263 111.078V109.128L170.641 110.507C170.741 110.608 170.892 110.675 171.027 110.675C171.161 110.675 171.312 110.625 171.413 110.507C171.632 110.288 171.632 109.952 171.413 109.733L170.036 108.355H171.984C172.287 108.355 172.522 108.103 172.522 107.817C172.522 107.531 172.27 107.279 171.984 107.279Z" fill="#0077B6"/>
<path d="M181.054 107.329H179.089L180.483 105.934C180.701 105.715 180.701 105.362 180.483 105.16C180.265 104.959 179.912 104.942 179.71 105.16L178.316 106.556V104.572C178.316 104.269 178.064 104.017 177.762 104.017C177.46 104.017 177.208 104.269 177.208 104.572V106.556L175.814 105.16C175.595 104.942 175.242 104.942 175.041 105.16C174.839 105.379 174.823 105.732 175.041 105.934L176.435 107.329H174.47C174.167 107.329 173.916 107.581 173.916 107.884C173.916 108.187 174.167 108.439 174.47 108.439H176.452L175.058 109.834C174.839 110.053 174.839 110.406 175.058 110.608C175.158 110.709 175.31 110.776 175.444 110.776C175.578 110.776 175.73 110.725 175.83 110.608L177.224 109.212V111.179C177.224 111.482 177.476 111.734 177.779 111.734C178.081 111.734 178.333 111.482 178.333 111.179V109.212L179.727 110.608C179.828 110.709 179.979 110.776 180.113 110.776C180.248 110.776 180.399 110.725 180.5 110.608C180.718 110.389 180.718 110.036 180.5 109.834L179.106 108.439H181.088C181.39 108.439 181.642 108.187 181.642 107.884C181.642 107.581 181.39 107.329 181.088 107.329H181.054Z" fill="#0077B6"/>
<path d="M190.494 107.329H188.512L189.906 105.933C190.124 105.715 190.124 105.362 189.906 105.143C189.688 104.925 189.335 104.925 189.116 105.143L187.722 106.539V104.555C187.722 104.252 187.47 104 187.168 104C186.866 104 186.614 104.252 186.614 104.555V106.539L185.22 105.143C185.001 104.925 184.649 104.925 184.43 105.143C184.212 105.362 184.212 105.715 184.43 105.933L185.824 107.329H183.842C183.54 107.329 183.288 107.581 183.288 107.884C183.288 108.186 183.54 108.439 183.842 108.439H185.824L184.43 109.834C184.212 110.053 184.212 110.406 184.43 110.624C184.531 110.725 184.682 110.792 184.817 110.792C184.951 110.792 185.102 110.742 185.203 110.624L186.597 109.229V111.213C186.597 111.515 186.849 111.768 187.151 111.768C187.454 111.768 187.706 111.515 187.706 111.213V109.229L189.1 110.624C189.2 110.725 189.352 110.792 189.486 110.792C189.62 110.792 189.772 110.742 189.872 110.624C190.091 110.406 190.091 110.053 189.872 109.834L188.478 108.439H190.46C190.763 108.439 191.014 108.186 191.014 107.884C191.014 107.581 190.763 107.329 190.46 107.329H190.494Z" fill="#0077B6"/>
<path d="M199.95 107.279H198.002L199.379 105.9C199.597 105.682 199.597 105.345 199.379 105.127C199.161 104.908 198.825 104.908 198.606 105.127L197.229 106.505V104.555C197.229 104.252 196.977 104.017 196.692 104.017C196.406 104.017 196.154 104.269 196.154 104.555V106.505L194.777 105.127C194.558 104.908 194.222 104.908 194.004 105.127C193.786 105.345 193.786 105.682 194.004 105.9L195.381 107.279H193.433C193.131 107.279 192.896 107.531 192.896 107.817C192.896 108.103 193.147 108.355 193.433 108.355H195.381L194.004 109.733C193.786 109.952 193.786 110.288 194.004 110.507C194.105 110.608 194.256 110.675 194.39 110.675C194.525 110.675 194.676 110.625 194.777 110.507L196.154 109.128V111.078C196.154 111.381 196.406 111.616 196.692 111.616C196.977 111.616 197.229 111.364 197.229 111.078V109.128L198.606 110.507C198.707 110.608 198.858 110.675 198.993 110.675C199.127 110.675 199.278 110.625 199.379 110.507C199.597 110.288 199.597 109.952 199.379 109.733L198.002 108.355H199.95C200.252 108.355 200.488 108.103 200.488 107.817C200.488 107.531 200.236 107.279 199.95 107.279Z" fill="#0077B6"/>
</svg>
