<?xml version="1.0" encoding="utf-8"?>
<!-- Generator: Adobe Illustrator 27.8.1, SVG Export Plug-In . SVG Version: 6.00 Build 0)  -->
<svg version="1.2" baseProfile="tiny" id="Layer_1" xmlns="http://www.w3.org/2000/svg" xmlns:xlink="http://www.w3.org/1999/xlink"
	 x="0px" y="0px" viewBox="0 0 18 22" overflow="visible" xml:space="preserve">
<g>
	<g>
		<g>
			<path fill="#0077B6" d="M15.8,22H2.2C1,22,0,21,0,19.8V4c0-1.2,1-2.2,2.2-2.2h2.7l0.4-1.3C5.3,0.2,5.6,0,6,0h6
				c0.3,0,0.6,0.2,0.7,0.5l0.4,1.3h2.7C17,1.9,18,2.9,18,4v15.8C18,21,17,22,15.8,22z M2.2,3.4C1.8,3.4,1.5,3.7,1.5,4v15.8
				c0,0.4,0.3,0.7,0.6,0.7h13.7c0.4,0,0.6-0.3,0.6-0.7V4c0-0.4-0.3-0.7-0.6-0.7h-3.3c-0.3,0-0.6-0.2-0.7-0.5l-0.4-1.3H6.6L6.2,2.8
				C6.1,3.2,5.8,3.4,5.4,3.4H2.2z"/>
		</g>
		<g>
			<path fill="#0077B6" d="M4.9,9L4.9,9C4.6,9,4.4,8.9,4.3,8.8l-1-1C3,7.5,3,7,3.3,6.7c0.3-0.3,0.8-0.3,1.1,0l0.4,0.4l1.6-1.6
				c0.3-0.3,0.8-0.3,1.1,0s0.3,0.8,0,1.1L5.4,8.8C5.2,9,5.1,9,4.9,9z"/>
		</g>
		<g>
			<path fill="#0077B6" d="M14.1,8H9.9C9.5,8,9.2,7.6,9.2,7.2S9.5,6.4,10,6.4h4.1c0.4,0,0.8,0.3,0.8,0.8S14.5,8,14.1,8z"/>
		</g>
		<g>
			<path fill="#0077B6" d="M4.9,13.9c-0.2,0-0.4-0.1-0.5-0.2l-1-1c-0.3-0.3-0.3-0.8,0-1.1s0.8-0.3,1.1,0L4.9,12l1.6-1.6
				c0.3-0.3,0.8-0.3,1.1,0s0.3,0.8,0,1.1l-2.1,2.1C5.2,13.8,5.1,13.9,4.9,13.9z"/>
		</g>
		<g>
			<path fill="#0077B6" d="M14.1,12.8H9.9c-0.4,0-0.8-0.3-0.8-0.8s0.3-0.8,0.8-0.8H14c0.4,0,0.8,0.3,0.8,0.8S14.5,12.8,14.1,12.8z"
				/>
		</g>
		<g>
			<path fill="#0077B6" d="M4.9,18.7L4.9,18.7c-0.2,0-0.4-0.1-0.5-0.2l-1-1c-0.3-0.3-0.3-0.8,0-1.1c0.3-0.3,0.8-0.3,1.1,0l0.4,0.4
				l1.6-1.6c0.3-0.3,0.8-0.3,1.1,0s0.3,0.8,0,1.1l-2.1,2.1C5.2,18.6,5.1,18.7,4.9,18.7z"/>
		</g>
		<g>
			<path fill="#0077B6" d="M14.1,17.7H9.9c-0.4,0-0.8-0.3-0.8-0.8s0.3-0.8,0.8-0.8H14c0.4,0,0.8,0.3,0.8,0.8S14.5,17.7,14.1,17.7z"
				/>
		</g>
	</g>
</g>
</svg>
