<?xml version="1.0" encoding="utf-8"?>
<!-- Generator: Adobe Illustrator 27.8.1, SVG Export Plug-In . SVG Version: 6.00 Build 0)  -->
<svg version="1.2" baseProfile="tiny" id="Layer_1" xmlns="http://www.w3.org/2000/svg" xmlns:xlink="http://www.w3.org/1999/xlink"
	 x="0px" y="0px" viewBox="0 0 22 18" overflow="visible" xml:space="preserve">
<g>
	<path fill="#576164" d="M19.8,18H2.3C1,18,0,17,0,15.7V2.3C0,1,1,0,2.3,0h17.5C21,0,22,1,22,2.3v13.5C22,17,21,18,19.8,18z
		 M2.3,1.5c-0.4,0-0.7,0.3-0.7,0.8v13.5c0,0.4,0.3,0.8,0.7,0.8h17.5c0.4,0,0.7-0.3,0.7-0.8V2.3c0-0.4-0.3-0.8-0.7-0.8H2.3z"/>
</g>
<g>
	<path fill="#576164" d="M11,12.7c-0.5,0-1-0.2-1.4-0.5L0.3,4.9C0,4.6-0.1,4.2,0.2,3.8s0.7-0.4,1.1-0.1l9.3,7.4
		c0.3,0.2,0.7,0.2,0.9,0l9.3-7.4c0.3-0.3,0.8-0.2,1.1,0.1c0.3,0.3,0.2,0.8-0.1,1.1l-9.3,7.4C12,12.6,11.5,12.7,11,12.7z"/>
</g>
</svg>
