<?xml version="1.0" encoding="utf-8"?>
<!-- Generator: Adobe Illustrator 27.8.1, SVG Export Plug-In . SVG Version: 6.00 Build 0)  -->
<svg version="1.2" baseProfile="tiny" id="Layer_1" xmlns="http://www.w3.org/2000/svg" xmlns:xlink="http://www.w3.org/1999/xlink"
	 x="0px" y="0px" viewBox="0 -4 30 30" overflow="visible" xml:space="preserve">
<g>
	<path fill="#3F4846" d="M15,16.4c-3,0-5.4-2.4-5.4-5.4c0-3,2.4-5.4,5.4-5.4c3,0,5.4,2.4,5.4,5.4C20.4,14,18,16.4,15,16.4z M15,7.6
		c-1.9,0-3.4,1.5-3.4,3.4c0,1.9,1.5,3.4,3.4,3.4c1.9,0,3.4-1.5,3.4-3.4C18.4,9.1,16.9,7.6,15,7.6z"/>
</g>
<g>
	<path fill="#3F4846" d="M15,22C8.2,22,2.1,17.6,0,11.3C0,11.1,0,10.9,0,10.7C1.9,4.4,8.1,0,15,0s13.1,4.4,15,10.7
		c0.1,0.2,0.1,0.4,0,0.6C28.1,17.6,21.9,22,15,22z M2.1,11c1.9,5.3,7.1,9,12.9,9c5.9,0,11.2-3.7,13-9c-1.7-5.3-7-9-13-9
		C9.1,2,3.8,5.7,2.1,11z"/>
</g>
</svg>
