<?xml version="1.0" encoding="utf-8"?>
<!-- Generator: Adobe Illustrator 27.8.1, SVG Export Plug-In . SVG Version: 6.00 Build 0)  -->
<svg version="1.2" baseProfile="tiny" id="Layer_1" xmlns="http://www.w3.org/2000/svg" xmlns:xlink="http://www.w3.org/1999/xlink"
	 x="0px" y="0px" viewBox="0 0 30 30" overflow="visible" xml:space="preserve">
<g>
	<path fill="#3F4846" d="M29,30c-0.3,0-0.5-0.1-0.7-0.3l-28-28c-0.4-0.4-0.4-1,0-1.4s1-0.4,1.4,0l28,28c0.4,0.4,0.4,1,0,1.4
		C29.5,29.9,29.3,30,29,30z"/>
</g>
<g>
	<path fill="#3F4846" d="M15,20.4c-3,0-5.4-2.4-5.4-5.4c0-3,2.4-5.4,5.4-5.4c3,0,5.4,2.4,5.4,5.4C20.4,18,18,20.4,15,20.4z M15,11.6
		c-1.9,0-3.4,1.5-3.4,3.4c0,1.9,1.5,3.4,3.4,3.4c1.9,0,3.4-1.5,3.4-3.4C18.4,13.1,16.9,11.6,15,11.6z"/>
</g>
<g>
	<path fill="#3F4846" d="M15,26C8.2,26,2.1,21.6,0,15.3C0,15.1,0,14.9,0,14.7C1.9,8.4,8.1,4,15,4s13.1,4.4,15,10.7
		c0.1,0.2,0.1,0.4,0,0.6C28.1,21.6,21.9,26,15,26z M2.1,15c1.9,5.3,7.1,9,12.9,9c5.9,0,11.2-3.7,13-9c-1.7-5.3-7-9-13-9
		C9.1,6,3.8,9.7,2.1,15z"/>
</g>
</svg>
