<?xml version="1.0" encoding="utf-8"?>
<!-- Generator: Adobe Illustrator 27.8.1, SVG Export Plug-In . SVG Version: 6.00 Build 0)  -->
<svg version="1.2" baseProfile="tiny" id="Layer_1" xmlns="http://www.w3.org/2000/svg" xmlns:xlink="http://www.w3.org/1999/xlink"
	 x="0px" y="0px" viewBox="0 0 22 22" overflow="visible" xml:space="preserve">
<g>
	<g>
		<path fill="#0077B6" d="M11,11.3c-0.4,0-0.8-0.3-0.8-0.8c0-1,0.6-2,1.5-2.4c0.5-0.3,0.8-0.8,0.8-1.4c0-0.9-0.7-1.6-1.6-1.6
			S9.4,5.8,9.4,6.7c0,0.4-0.3,0.8-0.8,0.8S7.9,7.1,7.9,6.7C7.9,5,9.3,3.6,11,3.6s3.1,1.4,3.1,3.1c0,1.1-0.6,2.2-1.7,2.7
			c-0.4,0.2-0.7,0.6-0.7,1.1C11.8,10.9,11.4,11.3,11,11.3z"/>
	</g>
	<g>
		<path fill="#0077B6" d="M11,14.4c-0.4,0-0.8-0.3-0.8-0.8v-0.8c0-0.4,0.3-0.8,0.8-0.8s0.8,0.3,0.8,0.8v0.8
			C11.8,14,11.4,14.4,11,14.4z"/>
	</g>
</g>
<g>
	<path fill="#0077B6" d="M21.2,22c-0.1,0-0.3,0-0.4-0.1L15.2,18h-13C1,18,0,17,0,15.8V2.2C0,1,1,0,2.2,0h17.5C21,0,22,1,22,2.2v19
		c0,0.3-0.2,0.5-0.4,0.7C21.5,22,21.4,22,21.2,22z M2.2,1.5c-0.4,0-0.8,0.3-0.8,0.8v13.5c0,0.4,0.3,0.8,0.8,0.8h13.2
		c0.2,0,0.3,0,0.4,0.1l4.6,3.2V2.2c0-0.4-0.3-0.8-0.8-0.8H2.2z"/>
</g>
</svg>
