<?xml version="1.0" encoding="utf-8"?>
<!-- Generator: Adobe Illustrator 27.8.1, SVG Export Plug-In . SVG Version: 6.00 Build 0)  -->
<svg version="1.2" baseProfile="tiny" id="Layer_1" xmlns="http://www.w3.org/2000/svg" xmlns:xlink="http://www.w3.org/1999/xlink"
	 x="0px" y="0px" viewBox="0 0 22 22" overflow="visible" xml:space="preserve">
<g>
	<path fill="#576164" d="M13.2,20.3H9c-1,0-1.7-0.8-1.7-1.7v-6.4L0.7,5.8C0,5.1-0.2,4.1,0.2,3.2c0.4-0.9,1.2-1.5,2.2-1.5h17.2
		c1,0,1.8,0.6,2.2,1.5c0.4,0.9,0.2,1.9-0.5,2.6L15,12.1v6.4C15,19.5,14.2,20.3,13.2,20.3z M2.4,3.2c-0.6,0-0.8,0.4-0.8,0.6
		s-0.2,0.6,0.2,1l6.7,6.6c0.1,0.1,0.2,0.3,0.2,0.5v6.7c0,0.1,0.1,0.2,0.2,0.2h4.3c0.1,0,0.2-0.1,0.2-0.2v-6.7c0-0.2,0.1-0.4,0.2-0.5
		l6.6-6.6c0.4-0.4,0.3-0.9,0.2-1s-0.3-0.6-0.8-0.6H2.4z"/>
</g>
<g>
	<path fill="#576164" d="M0.8,22c-0.2,0-0.4-0.1-0.5-0.2c-0.3-0.3-0.3-0.8,0-1.1L20.7,0.2c0.3-0.3,0.8-0.3,1.1,0s0.3,0.8,0,1.1
		L1.3,21.8C1.1,21.9,0.9,22,0.8,22z"/>
</g>
</svg>
