<?xml version="1.0" encoding="utf-8"?>
<!-- Generator: Adobe Illustrator 27.8.1, SVG Export Plug-In . SVG Version: 6.00 Build 0)  -->
<svg version="1.2" baseProfile="tiny" id="Layer_1" xmlns="http://www.w3.org/2000/svg" xmlns:xlink="http://www.w3.org/1999/xlink"
	 x="0px" y="0px" viewBox="0 0 22 22" overflow="visible" xml:space="preserve">
<g>
	<path fill="#576164" d="M9.5,22c-0.5,0-0.9-0.1-1.3-0.4c-0.7-0.4-1.1-1.2-1.1-2v-5.1l-6.7-11c-0.4-0.7-0.5-1.6,0-2.3
		C0.7,0.4,1.5,0,2.3,0h17.3c0.9,0,1.6,0.4,2,1.2c0.4,0.7,0.4,1.6,0,2.3l-6.7,11v3.7c0,0.9-0.5,1.7-1.3,2.1l-2.9,1.5
		C10.3,21.9,9.9,22,9.5,22z M2.3,1.5c-0.4,0-0.6,0.3-0.7,0.4C1.5,2,1.4,2.4,1.6,2.7l6.9,11.2c0.1,0.1,0.1,0.3,0.1,0.4v5.4
		c0,0.4,0.3,0.6,0.4,0.7c0.3,0.2,0.7,0.2,1,0l3-1.5c0.3-0.1,0.5-0.4,0.5-0.7v-3.9c0-0.1,0-0.3,0.1-0.4l6.9-11.2
		c0.2-0.4,0.1-0.7,0-0.8c-0.1-0.1-0.3-0.4-0.7-0.4H2.3z"/>
</g>
</svg>
