<?xml version="1.0" encoding="UTF-8" standalone="no"?>
<svg version="1.1" xmlns="http://www.w3.org/2000/svg" xmlns:xlink="http://www.w3.org/1999/xlink" width="512px" height="512px" viewBox="90 90 332 332">
  <path fill="#68B633" d="M196.128,280.614c7.912,21.703,20.335,37.694,38.703,51.545c9.032,6.81,20.226-0.987,23.568-9.589
                          c17.133-44.117,38.522-86.035,63.694-126.099c11.04-17.578-16.732-33.666-27.71-16.194c-26.665,42.45-48.79,87.045-66.927,133.759
                          c7.857-3.196,15.714-6.393,23.568-9.588c-11.286-8.508-19.14-19.15-23.955-32.362C220.042,252.808,189.026,261.13,196.128,280.614
                          L196.128,280.614z"/>
  <path fill="#FFFFFF" d="M 256 94 a 162 162 0 0 1 0 324 a 162 162 0 0 1 0 -324 z
                          M 256 124 a 132 132 0 0 0 0 264 a 132 132 0 0 0 0 -264 z" />
</svg>
