<?xml version="1.0" encoding="utf-8"?>
<!-- Generator: Adobe Illustrator 27.8.1, SVG Export Plug-In . SVG Version: 6.00 Build 0)  -->
<svg version="1.2" baseProfile="tiny" id="Layer_1" xmlns="http://www.w3.org/2000/svg" xmlns:xlink="http://www.w3.org/1999/xlink"
	 x="0px" y="0px" viewBox="0 0 22 22" overflow="visible" xml:space="preserve">
<g>
	<g>
		<g>
			<path fill="#576164" d="M11,22C4.9,22,0,17.1,0,11S4.9,0,11,0c6.1,0,11,4.9,11,11S17.1,22,11,22z M11,1.5c-5.2,0-9.5,4.3-9.5,9.5
				s4.3,9.5,9.5,9.5c5.2,0,9.5-4.3,9.5-9.5S16.2,1.5,11,1.5z"/>
		</g>
		<g>
			<path fill="#576164" d="M10.9,13.8c-0.4,0-0.8-0.3-0.8-0.8c0-1.2,0.7-2.4,1.8-3c0.8-0.4,1.3-1.2,1.3-2c0-1.2-1-2.3-2.3-2.3
				c-1.3,0-2.3,1-2.3,2.3c0,0.4-0.3,0.8-0.8,0.8S7.2,8.4,7.2,8c0-2.1,1.7-3.8,3.8-3.8c2.1,0,3.8,1.7,3.8,3.8c0,1.5-0.8,2.7-2.1,3.4
				c-0.6,0.3-1,1-1,1.7C11.7,13.4,11.3,13.8,10.9,13.8z"/>
		</g>
		<g>
			<path fill="#576164" d="M11,17.9c-0.4,0-0.8-0.3-0.8-0.8V16c0-0.4,0.3-0.8,0.8-0.8c0.4,0,0.8,0.3,0.8,0.8v1.1
				C11.8,17.5,11.4,17.9,11,17.9z"/>
		</g>
	</g>
</g>
</svg>
