<?xml version="1.0" encoding="utf-8"?>
<!-- Generator: Adobe Illustrator 27.9.0, SVG Export Plug-In . SVG Version: 6.00 Build 0)  -->
<svg version="1.2" baseProfile="tiny" id="Layer_1" xmlns="http://www.w3.org/2000/svg" xmlns:xlink="http://www.w3.org/1999/xlink"
	 x="0px" y="0px" viewBox="0 0 40 26" overflow="visible" xml:space="preserve">
<g>
	<path fill="#798183" d="M23.4,26c-0.4,0-0.8-0.1-1.1-0.4c-1.3-1.3-3.4-1.3-4.6,0c-0.6,0.6-1.5,0.6-2.1,0C15,25,15,24,15.6,23.4
		c1.2-1.2,2.8-1.9,4.4-1.9s3.2,0.7,4.4,1.9c0.6,0.6,0.6,1.6,0,2.2C24.2,25.9,23.8,26,23.4,26z"/>
</g>
<g>
	<path fill="#798183" d="M28.4,21c-0.4,0-0.8-0.1-1.1-0.4c-2-2-4.6-3.1-7.4-3.1s-5.4,1.1-7.4,3.1c-0.6,0.6-1.5,0.6-2.1,0
		s-0.6-1.6,0-2.2c2.5-2.6,5.9-4,9.5-4s7,1.4,9.5,4c0.6,0.6,0.6,1.6,0,2.2C29.2,20.9,28.8,21,28.4,21z"/>
</g>
<g>
	<path fill="#798183" d="M33.5,16c-0.4,0-0.8-0.1-1.1-0.4c-6.8-7-18-7-24.8,0c-0.6,0.6-1.5,0.6-2.1,0s-0.6-1.6,0-2.2
		c8-8.2,21-8.2,29,0c0.6,0.6,0.6,1.6,0,2.2C34.2,15.9,33.8,16,33.5,16z"/>
</g>
<g>
	<path fill="#798183" d="M1.5,10.9c-0.4,0-0.8-0.1-1.1-0.4c-0.6-0.6-0.6-1.6,0-2.2c10.8-11,28.3-11,39.1,0c0.6,0.6,0.6,1.6,0,2.2
		s-1.5,0.6-2.1,0c-9.6-9.8-25.3-9.8-34.9,0C2.3,10.7,1.9,10.9,1.5,10.9z"/>
</g>
</svg>
