<?xml version="1.0" encoding="UTF-8" standalone="no"?>
<!-- Generator: Adobe Illustrator 16.0.0, SVG Export Plug-In . SVG Version: 6.00 Build 0)  -->

<svg
   xmlns:dc="http://purl.org/dc/elements/1.1/"
   xmlns:cc="http://creativecommons.org/ns#"
   xmlns:rdf="http://www.w3.org/1999/02/22-rdf-syntax-ns#"
   xmlns:svg="http://www.w3.org/2000/svg"
   xmlns="http://www.w3.org/2000/svg"
   xmlns:sodipodi="http://sodipodi.sourceforge.net/DTD/sodipodi-0.dtd"
   xmlns:inkscape="http://www.inkscape.org/namespaces/inkscape"
   version="1.1"
   id="Layer_1"
   x="0px"
   y="0px"
   width="512px"
   height="512px"
   viewBox="0 0 512 512"
   enable-background="new 0 0 512 512"
   xml:space="preserve"
   inkscape:version="0.91 r13725"
   sodipodi:docname="icon_Pin.svg"><metadata
     id="metadata21"><rdf:RDF><cc:Work
         rdf:about=""><dc:format>image/svg+xml</dc:format><dc:type
           rdf:resource="http://purl.org/dc/dcmitype/StillImage" /><dc:title></dc:title></cc:Work></rdf:RDF></metadata><defs
     id="defs19" /><sodipodi:namedview
     pagecolor="#ffffff"
     bordercolor="#666666"
     borderopacity="1"
     objecttolerance="10"
     gridtolerance="10"
     guidetolerance="10"
     inkscape:pageopacity="0"
     inkscape:pageshadow="2"
     inkscape:window-width="1920"
     inkscape:window-height="1016"
     id="namedview17"
     showgrid="false"
     inkscape:zoom="1.84375"
     inkscape:cx="181.72569"
     inkscape:cy="254.00799"
     inkscape:window-x="0"
     inkscape:window-y="27"
     inkscape:window-maximized="1"
     inkscape:current-layer="Layer_1" /><path
     d="m 157.62299,214.14607 26.31166,-5.87683 159.67805,0 c 0,0 4.54109,2.07024 9.72321,2.93398 5.18015,0.86475 4.36414,45.96677 4.36414,45.96677 l 0.0482,102.83722 -15.76359,12.73855 -171.48059,0 -16.0733,-10.72643"
     id="path3"
     inkscape:connector-curvature="0"
     style="fill:#ffffff" /><g
     id="g5"><g
       id="g7"><g
         id="g9"><path
           d="M339.729,212.858c8.298,0,15.049,6.751,15.049,15.046v127.253c0,8.298-6.751,15.047-15.049,15.047     H173.766c-8.297,0-15.046-6.749-15.046-15.047V227.905c0-8.295,6.749-15.046,15.046-15.046H339.729 M339.729,201.62H173.766     c-14.517,0-26.285,11.768-26.285,26.285v127.253c0,14.518,11.769,26.286,26.285,26.286h165.964     c14.517,0,26.288-11.769,26.288-26.286V227.905C366.018,213.388,354.246,201.62,339.729,201.62L339.729,201.62z"
           id="path11"
           fill="#DCEBF6" /></g><g
         id="g13"><path
           d="M256.332,129.059c-41.834,0-76.131,32.183-79.537,73.139h28.325c3.297-25.33,24.998-44.961,51.212-44.961     s47.915,19.632,51.212,44.961h28.327C332.464,161.241,298.168,129.059,256.332,129.059z"
           id="path15"
           fill="#659CCD" /></g></g></g></svg>