<?xml version="1.0" encoding="utf-8"?>
<!-- Generator: Adobe Illustrator 15.0.0, SVG Export Plug-In . SVG Version: 6.00 Build 0)  -->
<svg version="1.1" id="Ebene_1" xmlns="http://www.w3.org/2000/svg" xmlns:xlink="http://www.w3.org/1999/xlink" x="0px" y="0px"
	 width="70.87px" height="70.87px" viewBox="0 0 70.87 70.87" enable-background="new 0 0 70.87 70.87" xml:space="preserve">
<path fill="#5389C2" d="M35.43,17.849c-9.695,0-17.582,7.89-17.582,17.588c0,9.697,7.887,17.586,17.582,17.586
	c9.699,0,17.592-7.889,17.592-17.586C53.021,25.738,45.129,17.849,35.43,17.849 M35.43,57.04c-11.91,0-21.6-9.688-21.6-21.604
	c0-11.913,9.69-21.606,21.6-21.606c11.916,0,21.611,9.693,21.611,21.606C57.041,47.352,47.346,57.04,35.43,57.04"/>
<polygon fill="#84BC5A" points="34.535,46.109 23.721,37.85 27.314,33.139 33.25,37.689 42.432,24.761 47.148,28.356 "/>
</svg>
