<?xml version="1.0" encoding="UTF-8" standalone="yes" ?>
<svg version="1.1" xmlns="http://www.w3.org/2000/svg" width="240" height="240" viewBox="0 0 320 320">
  <path fill="#164a8c"
        d="M 23 160
           a 137 137 0 0 1 274 0
           a 137 137 0 0 1 -274 0
           z
           M 135 100
           a 25 25 0 0 0 50 0
           a 25 25 0 0 0 -50 0
           z
           m 10 40
           a 10 10 0 0 0 -10 10
           v 85
           a 10 10 0 0 0 10 10
           h 30
           a 10 10 0 0 0 10 -10
           v -85
           a 10 10 0 0 0 -10 -10
           z" />
</svg>
