<svg width="41" height="28" viewBox="0 0 41 28" fill="none" xmlns="http://www.w3.org/2000/svg">
<g clip-path="url(#clip0_43_3562)">
<path d="M35.06 0.5H6.35409C3.23531 0.5 0.707031 2.97015 0.707031 6.01724V21.6494C0.707031 24.6965 3.23531 27.1667 6.35409 27.1667H35.06C38.1788 27.1667 40.707 24.6965 40.707 21.6494V6.01724C40.707 2.97015 38.1788 0.5 35.06 0.5Z" fill="#0454F0"/>
<path d="M35.6529 0.53125L1.06934 23.5841C1.80816 25.5014 3.6011 26.9175 5.7611 27.1381L40.3446 4.08068C39.6058 2.16343 37.8129 0.747342 35.6529 0.53125Z" fill="white"/>
<path d="M7.2949 0.5H6.35372C4.2549 0.5 2.42431 1.62184 1.4502 3.28621L36.8431 26.8816C38.7537 26.2609 40.2078 24.6701 40.5984 22.7069L7.2949 0.5Z" fill="white"/>
<path d="M37.178 0.90625L1.60156 24.6258C2.22744 25.5821 3.14509 26.3361 4.23686 26.7637L39.8133 3.04418C39.1874 2.08786 38.2698 1.33384 37.178 0.90625Z" fill="#EB0000"/>
<path d="M5.34631 0.59375C4.08042 0.819037 2.96513 1.45352 2.1416 2.35467L38.0757 26.3087C39.0263 25.7202 39.784 24.8696 40.2357 23.8535L5.34631 0.59375Z" fill="#EB0000"/>
<path d="M25.4127 0.5H16.001V27.1667H25.4127V0.5Z" fill="white"/>
<path d="M0.707031 9.23819L0.707031 18.4336H40.707V9.23819H0.707031Z" fill="white"/>
<path d="M24.2356 0.5H17.1768V27.1667H24.2356V0.5Z" fill="#EB0000"/>
<path d="M0.707031 10.3847L0.707031 17.2812H40.707V10.3847H0.707031Z" fill="#EB0000"/>
</g>
<defs>
<clipPath id="clip0_43_3562">
<rect width="40" height="26.6667" fill="white" transform="translate(0.707031 0.5)"/>
</clipPath>
</defs>
</svg>
