<?xml version="1.0" encoding="UTF-8" standalone="no"?>
<svg version="1.1" xmlns="http://www.w3.org/2000/svg" width="80px" height="48px" viewBox="0 0 8000 4000" preserveAspectRatio="none">
  <rect x="0" y="0" width="8000" height="4800" fill="#143789" />
  <g fill="#fefbfb" stroke="none">
    <path d="M1920 3370 l1255 -629 -658 0 -657 -1 -930 465 -930 465 0 -83 0 -82 763 -382 762 -382 -762 0 -763 -1 0 -150 0 -150 1778 2 1777 3 3 778 2 777 -150 0 -150 0 0 -565 c0 -311 -2 -565 -5 -565 -3 0 -514 254 -1135 565 l-1130 565 -162 -1 -163 0 1255 -629z"/>
    <path d="M4442 3223 l3 -778 1778 -3 1777 -2 0 150 0 150 -762 1 -763 0 763 382 762 382 0 82 0 83 -930 -465 -930 -465 -657 1 -658 0 1255 629 1255 629 -163 0 -162 1 -1130 -565 c-621 -311 -1132 -565 -1135 -565 -3 0 -5 254 -5 565 l0 565 -150 0 -150 0 2 -777z"/>
    <path d="M0 1410 l0 -150 763 -1 762 0 -762 -382 -763 -382 0 -82 0 -83 930 465 930 465 657 -1 658 0 -1255 -629 -1255 -629 163 0 162 -1 1130 565 c621 311 1132 565 1135 565 3 0 5 -254 5 -565 l0 -565 150 0 150 0 -2 778 -3 777 -1777 3 -1778 2 0 -150z"/>
    <path d="M4447 1553 c-4 -3 -7 -354 -7 -780 l0 -773 150 0 150 0 0 565 c0 311 2 565 5 565 3 0 514 -254 1135 -565 l1130 -565 162 1 163 0 -1255 629 -1255 629 658 0 657 1 930 -465 930 -465 0 86 0 86 -757 376 -758 377 758 3 757 2 0 150 0 150 -1773 0 c-976 0 -1777 -3 -1780 -7z"/>
  </g>
  <g fill="#dd0624" stroke="none">
    <path d="M0 3835 l0 -165 930 -465 930 -465 657 1 658 0 -1255 629 -1255 629 -332 0 -333 1 0 -165z"/>
    <path d="M3558 3223 l-3 -778 -1777 -3 -1778 -2 0 -440 0 -440 1778 -2 1777 -3 3 -777 2 -778 440 0 440 0 2 778 3 777 1778 3 1777 2 0 440 0 440 -1777 2 -1778 3 -3 778 -2 777 -440 0 -440 0 -2 -777z"/>
    <path d="M6080 3370 l-1255 -629 658 0 657 -1 930 465 930 465 0 165 0 165 -332 -1 -333 0 -1255 -629z"/>
    <path d="M928 794 l-928 -464 0 -165 0 -165 333 1 332 0 1255 629 1255 629 -660 0 -660 0 -927 -465z"/>
    <path d="M6080 630 l1255 -629 333 0 332 -1 0 165 0 165 -930 465 -930 465 -657 -1 -658 0 1255 -629z"/>
  </g>
  <rect width="8000" height="4000" style="fill:none;stroke-width:150;stroke:rgb(0,0,0)" />
</svg>
