<?xml version="1.0" encoding="utf-8"?>
<!-- Generator: Adobe Illustrator 27.8.1, SVG Export Plug-In . SVG Version: 6.00 Build 0)  -->
<svg version="1.2" baseProfile="tiny" id="Layer_1" xmlns="http://www.w3.org/2000/svg" xmlns:xlink="http://www.w3.org/1999/xlink"
	 x="0px" y="0px" viewBox="0 0 70 80" overflow="visible" xml:space="preserve">
<g>
	<g>
		<g>
			<path fill="#0077B6" d="M63.2,80H6.8C3.1,80,0,77,0,73.2V32.1c0-3.7,3.1-6.8,6.8-6.8h56.3c3.7,0,6.8,3,6.9,6.8v41.1
				C70,77,66.9,80,63.2,80z M6.8,28.3C4.7,28.3,3,30,3,32.1v41.1C3,75.3,4.7,77,6.8,77h56.3c2.1,0,3.8-1.7,3.8-3.8V32.1
				c0-2.1-1.7-3.8-3.8-3.8H6.8z"/>
		</g>
		<g>
			<path fill="#0077B6" d="M52.5,28.3c-0.8,0-1.5-0.7-1.5-1.5v-7.9C51,10.1,43.8,3,34.9,3c-8.9,0-16.1,7.1-16.1,15.9v7.9
				c0,0.8-0.7,1.5-1.5,1.5s-1.5-0.7-1.5-1.5v-7.9C15.9,8.5,24.4,0,34.9,0c10.5,0,19,8.5,19,18.9v7.9C54,27.7,53.3,28.3,52.5,28.3z"
				/>
		</g>
		<g>
			<path fill="#0077B6" d="M35,57.7c-4.8,0-8.7-3.9-8.7-8.7s3.9-8.6,8.7-8.6c4.8,0,8.7,3.9,8.7,8.6S39.8,57.7,35,57.7z M35,43.4
				c-3.1,0-5.7,2.5-5.7,5.6s2.6,5.7,5.7,5.7c3.1,0,5.7-2.5,5.7-5.7S38.1,43.4,35,43.4z"/>
		</g>
		<g>
			<path fill="#0077B6" d="M35,66.3c-0.8,0-1.5-0.7-1.5-1.5v-8.7c0-0.8,0.7-1.5,1.5-1.5s1.5,0.7,1.5,1.5v8.7
				C36.5,65.6,35.8,66.3,35,66.3z"/>
		</g>
	</g>
</g>
</svg>
