<?xml version="1.0" encoding="utf-8" ?>
<svg version="1.1" xmlns="http://www.w3.org/2000/svg" xmlns:xlink="http://www.w3.org/1999/xlink" width="1024" height="768" viewBox="0 0 1024 768">
  <image xlink:href="./logo_beta_background.svg" width="1024" height="768" />
  <!-- <text style="font-weight:bold; font-size:160px; font-family:sans-serif; fill:#FFFFFF;" x="35" y="520" transform="rotate(-9)">PREVIEW</text> -->
  <g style="fill:#FFFFFF;" transform="rotate(-9)">
    <path d="m 49.6875,403.35937 h 49.921875 q 22.265625,0 34.140625,9.92188 11.95312,9.84375 11.95312,28.125 0,18.35937 -11.95312,28.28125 -11.875,9.84375 -34.140625,9.84375 H 79.765625 V 520 H 49.6875 Z
             m 30.078125,21.79688 v 32.57812 H 96.40625 q 8.75,0 13.51563,-4.21875 4.76562,-4.29687 4.76562,-12.10937 0,-7.8125 -4.76562,-12.03125 -4.76563,-4.21875 -13.51563,-4.21875 z" />
    <path d="m 209.6875,455.07812 q 9.45312,0 13.51562,-3.51562 4.14063,-3.51563 4.14063,-11.5625 0,-7.96875 -4.14063,-11.40625 -4.0625,-3.4375 -13.51562,-3.4375 h -12.65625 v 29.92187 z
             m -12.65625,20.78125 V 520 H 166.95312 V 403.35937 h 45.9375 q 23.04688,0 33.75,7.73438 10.78125,7.73437 10.78125,24.45312 0,11.5625 -5.625,18.98438 -5.54687,7.42187 -16.79687,10.9375 6.17187,1.40625 11.01562,6.40625 4.92188,4.92187 9.92188,15 L 272.26562,520 h -32.03125 l -14.21875,-28.98438 q -4.29687,-8.75 -8.75,-11.95312 -4.375,-3.20313 -11.71875,-3.20313 z" />
    <path d="m 290.15625,403.35937 h 81.17187 v 22.73438 h -51.09375 v 21.71875 h 48.04688 v 22.73437 h -48.04688 v 26.71875 h 52.8125 V 520 h -82.89062 z" />
    <path d="m 385.54687,403.35937 h 30.23438 l 30.9375,86.09375 30.85937,-86.09375 H 507.8125 L 464.60937,520 H 428.75 Z" />
    <path d="m 523.28125,403.35937 h 30.07812 V 520 h -30.07812 z" />
    <path d="m 582.8125,403.35937 h 81.17187 v 22.73438 h -51.09375 v 21.71875 h 48.04688 v 22.73437 h -48.04688 v 26.71875 h 52.8125 V 520 H 582.8125 Z" />
    <path d="m 682.1875,403.35937 h 28.82812 l 20.15625,84.76563 20,-84.76563 h 28.98438 l 20,84.76563 20.15625,-84.76563 h 28.59375 L 821.40625,520 h -34.6875 L 765.54687,431.32812 744.60937,520 h -34.6875 z" />
  </g>
</svg>
