<?xml version="1.0" encoding="UTF-8" standalone="no"?>
<svg version="1.1" xmlns="http://www.w3.org/2000/svg" width="240" height="240" viewBox="0 0 40 40" >
  <path d="M 8 10 a 4 4 0 0 0 -4 4 v 14 a 4 4 0 0 0 4 4 h 24 a 4 4 0 0 0 4 -4 v -14 a 4 4 0 0 0 -4 -4 z
           M 10 18 a 3 3 0 0 1 6 0 a 3 3 0 0 1 -6 0 z
           m -3 9 v -1 c 0 -2 4 -3.1 6 -3.1 s 6 1.1 6 3.1 v 1 z
           M 22.5 14 a 1 1 0 0 1 0 -2 h 9 a 1 1 0 0 1 0 2 z
           m 0 3 a 1 1 0 0 1 0 -2 h 9 a 1 1 0 0 1 0 2 z
           M 31.64 35.75 l -3 -6 a 6 6 0 1 1 2 -1 l 3 6 a 1.118 1.118 0 0 1 -2 1 z
           m -9.64 -11.8 a 5 5 0 0 0 10 0 a 5 5 0 0 0 -10 0 z
           m 1.536 2 a 4 4 0 0 1 0 -4 h 6.928 a 4 4 0 0 1 0 4 z" fill="#164a8c" />
</svg>
