<?xml version="1.0" encoding="utf-8"?>
<!-- Generator: Adobe Illustrator 27.8.1, SVG Export Plug-In . SVG Version: 6.00 Build 0)  -->
<svg version="1.2" baseProfile="tiny" id="Layer_1" xmlns="http://www.w3.org/2000/svg" xmlns:xlink="http://www.w3.org/1999/xlink"
	 x="0px" y="0px" viewBox="0 0 80 80" overflow="visible" xml:space="preserve">
<g>
	<g>
		<g>
			<path fill="#0077B6" d="M73.2,51.8h-0.9c-0.8,0-1.5-0.7-1.5-1.5s0.7-1.5,1.5-1.5h0.9c2.1,0,3.8-1.7,3.8-3.8V6.8
				C77,4.7,75.3,3,73.2,3H6.8C4.7,3,3,4.7,3,6.8V45c0,2.1,1.7,3.8,3.8,3.8h29.6c0.8,0,1.5,0.7,1.5,1.5s-0.7,1.5-1.5,1.5H6.8
				C3,51.8,0,48.7,0,45V6.8C0,3,3,0,6.8,0h66.4C77,0,80,3,80,6.8V45C80,48.8,77,51.8,73.2,51.8z"/>
		</g>
		<g>
			<path fill="#0077B6" d="M54.4,66.9c-10.9,0-19.8-8.9-19.8-19.8c0-10.9,8.9-19.8,19.8-19.8s19.8,8.9,19.8,19.8
				C74.1,58,65.3,66.9,54.4,66.9z M54.4,30.3c-9.2,0-16.8,7.5-16.8,16.8c0,9.2,7.5,16.8,16.8,16.8s16.8-7.5,16.8-16.8
				C71.1,37.9,63.6,30.3,54.4,30.3z"/>
		</g>
		<g>
			<path fill="#0077B6" d="M23,80c-0.4,0-0.8-0.1-1.1-0.4c-0.6-0.6-0.6-1.5,0-2.1l18.5-18.5c0.6-0.6,1.5-0.6,2.1,0s0.6,1.5,0,2.1
				L24,79.6C23.7,79.9,23.4,80,23,80z"/>
		</g>
		<g>
			<path fill="#0077B6" d="M68.3,15H43.8c-0.8,0-1.5-0.7-1.5-1.5s0.7-1.5,1.5-1.5h24.6c0.8,0,1.5,0.7,1.5,1.5S69.2,15,68.3,15z"/>
		</g>
		<g>
			<path fill="#0077B6" d="M24.6,34.2c-6.1,0-11.1-5-11.1-11.1S18.5,12,24.6,12s11.1,5,11.1,11.1S30.7,34.2,24.6,34.2z M24.6,15
				c-4.5,0-8.1,3.6-8.1,8.1s3.6,8.1,8.1,8.1s8.1-3.6,8.1-8.1S29.1,15,24.6,15z"/>
		</g>
		<g>
			<path fill="#0077B6" d="M7,51.8c-0.8,0-1.5-0.7-1.5-1.5c0-10.5,8.6-19.1,19.1-19.1c5.6,0,11,2.5,14.6,6.8
				c0.5,0.6,0.5,1.6-0.2,2.1c-0.6,0.5-1.6,0.5-2.1-0.2c-3.1-3.6-7.5-5.7-12.3-5.7c-8.9,0-16.1,7.2-16.1,16.1
				C8.5,51.1,7.8,51.8,7,51.8z"/>
		</g>
		<g>
			<path fill="#0077B6" d="M68.3,23.6H43.8c-0.8,0-1.5-0.7-1.5-1.5s0.7-1.5,1.5-1.5h24.6c0.8,0,1.5,0.7,1.5,1.5S69.2,23.6,68.3,23.6
				z"/>
		</g>
	</g>
</g>
</svg>
