<?xml version="1.0" encoding="UTF-8" standalone="yes" ?>
<svg version="1.1" xmlns="http://www.w3.org/2000/svg" xmlns:xlink="http://www.w3.org/1999/xlink" width="768" height="768" viewBox="0 0 37 37">
  <defs>
    <linearGradient x1="0" y1="0" x2="1" y2="0" id="greenGradient1">
      <stop style="stop-color:#58ab27;stop-opacity:1" offset="0" />
      <stop style="stop-color:#93c36c;stop-opacity:1" offset="0.78019702" />
    </linearGradient>
    <linearGradient x1="0" y1="0" x2="1" y2="0" id="greenGradient2" xlink:href="#greenGradient1" gradientUnits="userSpaceOnUse" gradientTransform="matrix(0,-26.61169,26.61169,0,5.06287,31.67544)" spreadMethod="pad" />
    <linearGradient x1="0" y1="0" x2="1" y2="0" id="blueGradient1">
      <stop style="stop-color:#88bce2;stop-opacity:1" offset="0" />
      <stop style="stop-color:#5489c2;stop-opacity:1" offset="1" />
    </linearGradient>
    <linearGradient x1="0" y1="0" x2="1" y2="0" id="blueGradient2" xlink:href="#blueGradient1" gradientUnits="userSpaceOnUse" gradientTransform="matrix(0,26.61169,26.61169,0,19.60739,5.06376)" spreadMethod="pad" />
  </defs>
  <rect x="0.55" y="0.55" width="35.9" height="35.9" rx="4.45" ry="4.45" style="fill:#FFFFFF; stroke-width:1.1; stroke:#5489c2;" />
  <path d="M 17.25 5.058 v 4.832 a 8.7 8.7 0 0 0 0 17.22 v 4.832 a 13.5 13.5 0 0 1 0 -26.884 z" style="fill:url(#greenGradient2);" />
  <path d="M 19.75 5.058 v 4.832 a 8.7 8.7 0 0 1 0 17.22 v 4.832 a 13.5 13.5 0 0 0 0 -26.884 z" style="fill:url(#blueGradient2);" />
</svg>
