<?xml version="1.0" encoding="UTF-8" standalone="no"?>
<svg xmlns:svg="http://www.w3.org/2000/svg" xmlns="http://www.w3.org/2000/svg" xmlns:xlink="http://www.w3.org/1999/xlink" version="1.1" width="768" height="768" viewBox="0 0 37 37" id="svg2696">
  <defs id="defs2698">
    <linearGradient x1="0" y1="0" x2="1" y2="0" id="linearGradient2559">
      <stop style="stop-color:#58ab27;stop-opacity:1" offset="0"/>
      <stop style="stop-color:#93c36c;stop-opacity:1" offset="0.78019702"/>
    </linearGradient>
    <linearGradient x1="0" y1="0" x2="1" y2="0" id="linearGradient2688" xlink:href="#linearGradient2559" gradientUnits="userSpaceOnUse" gradientTransform="matrix(0,-26.61169,26.61169,0,5.06287,31.67544)" spreadMethod="pad"/>
    <linearGradient x1="0" y1="0" x2="1" y2="0" id="linearGradient2583">
      <stop style="stop-color:#88bce2;stop-opacity:1" offset="0"/>
      <stop style="stop-color:#5489c2;stop-opacity:1" offset="1"/>
    </linearGradient>
    <linearGradient x1="0" y1="0" x2="1" y2="0" id="linearGradient2683" xlink:href="#linearGradient2583" gradientUnits="userSpaceOnUse" gradientTransform="matrix(0,26.61169,26.61169,0,19.60739,5.06376)" spreadMethod="pad"/>
    <g id="balken">
      <path fill-rule="evenodd" clip-rule="evenodd" fill="#B50202"
            d="M930.1914063,224.3017578 c0.4013672-0.0766602,0.7988281-0.1586914,1.1816406-0.2539063 C930.9677734,224.0883789,930.5751953,224.1787109,930.1914063,224.3017578z" />
      <path fill-rule="evenodd" clip-rule="evenodd" fill="#B50202"
            d="M930.1914063,224.3017578 c-4.2128906,0.8032227-9.2978516,0.734375-12.0058594,3.0429688 C920.2412109,238.8300781,923.7841797,226.3496094,930.1914063,224.3017578z" />
      <path fill-rule="evenodd" clip-rule="evenodd" fill="#B50202"
            d="M852.2470703,243.8295898 c1.2910156-4.2543945-4.7246094-3.9301758-2.4726563-6.5942383c-2.6367188,0.1118164-6.3085938-0.8125-5.7685547,2.4731445
               C848.421875,239.4121094,849.0009766,242.953125,852.2470703,243.8295898z" />
      <path fill-rule="evenodd" clip-rule="evenodd" fill="#B50202"
            d="M835.7929688,243.0053711 c0.1738281-0.9243164,0.8994141-1.2832031,1.6328125-1.6484375c0.0361328,1.1342773-0.3964844,1.8095703-0.8320313,2.4726563
               c2.2167969,0.5678711,1.6210938-1.7041016,2.5-2.4726563C838.1376953,240.6650391,837,240.2695313,835,240.5327148
               c0,0.5498047,0,1.0991211,0,1.6484375C835,242.6835938,835.0917969,243.1567383,835.7929688,243.0053711z" />
      <path fill-rule="evenodd" clip-rule="evenodd" fill="#B50202"
            d="M862.9619141,240.5327148 c-0.9277344,1.5458984-3.1943359,1.7509766-4.1210938,3.296875 C861.1806641,244.1816406,865.2539063,242.0878906,862.9619141,240.5327148z" />
      <path fill-rule="evenodd" clip-rule="evenodd" fill="#B50202"
            d="M856.3681641,243.8295898 c0.6494141-3.1738281-3.9462891-3.1738281-3.296875,0C855.3203125,243.7543945,854.7294922,245.2026367,856.3681641,243.8295898z" />
      <path fill-rule="evenodd" clip-rule="evenodd" fill="#B50202"
            d="M975.8828125,274.3261719 c2.1298828,0.7412109,4.0429688-4.6557617,0.8242188-4.1210938 C977.3876953,272.534668,975.5458984,272.340332,975.8828125,274.3261719z" />
      <path fill-rule="evenodd" clip-rule="evenodd" fill="#B50202"
            d="M984.125,280.0957031 c0.2431641-2.1669922-3.1972656-0.6484375-2.4726563-3.296875c0.5048828,0.2412109,3.1738281,2.050293,3.296875,0
               c-1.4580078-0.7407227-2.4072266-1.9897461-4.1210938-2.4726563c-1.0625,4.9863281-3.6552734,8.6484375,0,12.3637695
               c-1.9208984-4.8847656,3.7138672-4.940918,5.7695313-3.296875c-2.2216797-2.5029297,2.9404297-3.2421875,0-5.7700195
               C985.7929688,278.4663086,984.96875,279.2905273,984.125,280.0957031z" />
      <path fill-rule="evenodd" clip-rule="evenodd" fill="#B50202"
            d="M50.2641602,483.6835938 c-1.1333008,1.0556641-1.4350586,4.9277344,0.8242188,4.9433594 C52.2216797,487.5712891,52.5229492,483.6992188,50.2641602,483.6835938z" />
      <path d="m 1003.9062,383.94971 c -1.499,-11.13916 -3.4453,-21.83008 -4.94526,-32.96924 -3.65625,1.83838 -10.21875,0.66211 -15.66016,2.47265 -1.31836,-4.57958 -4.23242,-11.17919
              -7.41797,-9.0664 1.44239,-4.55957 0.97461,-2.87549 -0.82422,-6.59424 1.5586,-1.63525 3.89356,-0.3999 5.76953,0 5.41895,-5.2959 6.16602,-15.26367 13.1875,-18.95752 -2.68652,-11.05176
              -2.75488,-24.72119 -6.59375,-34.61767 -0.54199,2.46826 -1.76171,-0.78809 -3.29687,0 -0.64844,2.02246 -1.66309,3.67822 -2.79102,5.22167 -1.29882,-2.9165 -3.04589,-5.62109
              -5.20507,-7.89013 -0.51172,-3.74561 -1.71973,-7.32813 -3.45704,-10.66553 0.62989,0.375 1.61329,0.48242 3.21094,0.146 -2.73828,-0.71143 -6.03906,-7.25049 -2.47363,-9.06641
              3.78125,4.96826 8.2334,7.89453 13.18848,13.1875 -1.1836,-16.95068 -5.47364,-30.79297 -6.59375,-47.80566 -2.81153,-0.84961 -7.08985,3.12207 -12.36426,2.47265 -1.50488,-2.0664
              -1.71387,-5.42822 -4.1211,-6.59326 -1.99218,1.02979 -1.88769,4.15576 -4.94531,4.12061 -0.92676,-2.37061 -1.73144,-4.86231 -3.29687,-6.59375 -5.07129,-0.10645 -11.27539,1.10986
              -10.71485,4.12109 -1.72461,-0.44336 -3.09765,-1.44482 -4.12109,0.82471 3.47559,-0.14014 -0.0146,1.26562 0,2.47168 4.17773,1.05713 0.4375,-3.94385 4.12109,-1.64795
              -5.9375,4.32422 -2.55566,9.71875 -5.76953,14.83642 1.08301,-0.10888 5.96289,-0.125 3.29688,0.82422 -0.59864,2.39356 3.63281,-3.09228 5.76953,-3.29687 2.38965,2.71777
              0.6748,7.90332 1.26855,12.2417 -5.6748,-1.93506 -11.73242,-2.63575 -17.66308,-1.75733 0.12109,-0.96728 0.35644,-1.98681 0.7334,-3.0664 -1.80762,-0.93946 -3.36719,-2.12745
              -6.59375,-1.64844 -4.00977,-4.38818 -3.64063,-16.0874 -12.36329,-13.18799 -1.69336,-0.7793 -0.69824,-4.24658 -3.29687,-4.12109 -2.38086,1.46582 -7.85449,-0.16211
              -9.06641,2.47265 3.48145,1.03272 0.28125,4.45801 0.82422,7.41797 -5.31543,1.43311 -10.18359,0.50733 -9.0664,-6.59424 -10.00586,0.16065 -17.19532,3.13721 -27.2002,3.29737
              1.55664,5.53662 1.95215,6.21191 1.64844,10.71533 -2.26758,-3.99805 -1.76758,1.90088 -4.1211,2.47266 -9.45898,2.22607 -17.45996,-10.37647 -24.72754,-7.41797 3.49219,-0.19483
              4.88184,1.71142 5.77149,4.12109 -0.79883,2.22461 -2.06836,3.97754 -4.94727,4.12109 -3.34863,-0.58056 -3.83789,-5.2915 -8.24218,-2.47265 -1.85645,-1.16504 -1.6211,-4.42383
              -4.1211,-4.94531 -3.2959,-0.27393 -4.57519,1.46923 -8.24219,0.82421 -1.5664,2.03516 2.33204,4.37842 -0.82421,6.59375 -1.05372,0.0454 -1.14161,1.05664 -2.47266,0.82422
              -2.06738,-1.22949 -2.89258,-3.70019 -4.12109,-5.76953 -2.85938,-0.66113 -3.16797,1.22803 -5.76954,0.82422 l -32.96972,4.94531 c -2.90918,0.93701 -6.78418,0.75537
              -9.89063,1.49414 l -7.41894,0.93994 c -41.2461,7.6587 -85.13281,12.69727 -126.10742,20.62598 l -14.0127,3.31543 c -4.34668,-0.88867 -9.26855,-0.0762 -14.83594,0.82422
              -72.28711,11.6958 -156.9209,24.67285 -229.9624,34.61816 -24.53069,3.49019 -24.05221,7.85228 -25.55127,16.48487 1.6875,2.15869 2.58399,5.1084 2.47315,9.0664 -1.81592,2.18116
              -3.54004,1.31934 -6.59424,0.82422 -1.19922,3.19678 -3.94141,4.85108 -7.41797,5.76953 -2.66748,-0.93554 -4.76563,-2.43994 -8.21924,-2.58935 -1.96826,-1.61426 -3.98437,-3.1875
              -6.06299,-4.76367 -5.98144,-4.53516 -12.80469,-6.77588 -19.65576,-6.99219 -0.90771,-1.81348 -1.96533,-3.37549 -3.15283,-4.61231 -24.08057,2.29541 -45.39795,7.35352
              -69.23584,9.89112 -17.30908,2.47265 -13.80132,2.66723 -17.30908,2.47265 l -32.14551,5.77002 c -8.06348,1.27735 -16.83447,1.84717 -23.90332,4.1211 -0.0982,2.37402
              0.45068,5.3955 -0.82373,6.59375 -6.45117,1.26367 -9.55371,0.57617 -10.71485,-4.94532 -9.54834,0.34278 -16.82714,2.95411 -26.37548,3.29688 -5.23584,16.72266
              -20.759281,-0.67774 -34.618656,5.76953 0.02734,10.74219 -8.334473,13.0957 -14.011719,18.1333 1.749023,2.9209 6.891601,2.4502 6.594238,7.41797 -5.730957,8.55518
              -11.773926,16.80029 -26.375977,16.48584 -5.817871,-8.52441 -6.666503,-30.54346 8.242676,-31.32227 -0.682129,-2.958 1.858399,-3.98681 0,-5.76953 -6.708984,-0.29297
              -18.658691,1.05127 -24.727051,4.1211 8.725586,9.1167 -1.884765,25.41992 -9.891113,30.49804 1.819336,21.8086 6.217774,41.03809 9.066895,61.81641 6.033691,-0.81348
              9.365234,1.07617 11.539062,4.12109 6.973633,-2.96289 19.833008,-1.1582 23.902832,0.82422 -0.428223,4.79297 -8.676758,1.76367 -7.417969,8.24317 3.940918,1.42968
              5.873047,4.86914 9.916016,6.19629 0.694824,5.01562 2.527344,9.98925 5.056641,13.32226 0.777832,1.02539 1.524414,1.96192 2.260253,2.8418 0.122559,1.63769 0.405274,3.26172
              0.856446,4.84863 -1.133301,-1.21777 -2.624512,-2.00781 -4.901367,-1.6582 -0.451172,3.12207 -2.682129,4.46191 -2.473145,8.24219 0.428223,2.04589 2.009766,2.93652
              3.297363,4.12109 -0.492187,3.35254 -2.481933,4.37695 -2.473144,7.41894 0.02393,8.31836 7.888183,10.95704 13.187988,14.83594 3.721192,2.72363 5.084473,6.5293
              8.242188,7.41797 2.74414,0.77246 6.482422,-0.60547 9.891113,0 6.48682,1.15332 8.09814,1.91699 14.83643,0.82422 28.66211,-4.64746 66.95361,-9.82813 90.66601,-14.01172
              l 32.96924,-4.94531 c 2.90967,-0.9375 6.7832,-0.91016 9.89111,-1.64844 l 7.41797,-0.82422 c 24.0918,-4.22558 49.51953,-8.6123 72.53272,-11.53906 1.82715,-1.74609
              1.7373,-5.40723 5.77002,-4.94629 3.11621,0.5127 -0.89112,3.44336 3.29687,3.29688 14.06641,-2.14356 28.33936,-4.08008 42.03613,-6.59375 l 280.24024,-43.68457
              c 40.92969,-5.50098 83.10058,-14.15918 122.81152,-18.13282 l 9.06641,-2.47265 c 2.87793,0.62402 6.22363,-2.49512 8.24316,0 l 33.79297,-6.59375 c 15.21289,-1.82227
              29.29785,-4.77149 44.50977,-6.59473 4.45117,-7.63672 14.49902,-9.67676 25.55078,-10.71484 3.02344,-1.12305 5.98242,-2.02247 8.89355,-2.792 6.04492,2.67969
              13.10254,4.58008 19.46973,4.29493 C 939.91797,411.49609 946.02051,409 952.4873,406 l 0.003,0 c -4.4414,2 -0.96289,0.16406 1.01465,-0.30664 1.3584,-0.17383
              2.7168,-0.4502 4.0791,-0.67578 8.74512,-1.44824 15.28907,-7.40918 18.85254,-14.88867 9.21387,-2.26954 18.5625,-4.13184 27.46971,-6.1792 z M 982.47656,259.49023
              c -8.74316,3.625 -1.10351,-9.87158 0,0 z m -5.76953,-9.89111 c 3.08692,-0.32617 4.25098,3.74902 2.47266,5.76953 -3.28516,0.5376 -2.36133,-3.13379 -2.47266,-5.76953
              z M 32.131348,417.74316 c -2.375,-0.0976 -5.396485,0.45118 -6.594727,-0.82421 0.156738,-0.93555 0.82666,-0.45704 0.824219,0 3.558594,-1.54395 5.482422,0.40039
              5.770508,-4.1211 2.320312,0.83301 -0.228028,3.50195 0,4.94531 z m 3.296386,-21.42871 c -0.02246,0.80078 -1.008789,0.6377 -1.648437,0.82325 0.02246,0.80175
              1.009277,0.63964 1.648437,0.82421 -1.230468,2.47559 -3.694336,-0.60644 -3.296386,-2.47265 0.732422,-0.64063 1.860351,-0.88672 3.296386,-0.82422 -0.506836,0.7334
              -0.995117,1.47461 0,1.64941 z M 82.40918,515.00391 c 1.590332,2.10058 3.798339,1.7539 5.211914,0.23925 0.268066,0.23438 0.540527,0.46192 0.812988,0.68946
              -2.038574,1.88281 -5.668457,2.66015 -6.024902,-0.92871 z M 355.23193,342.73779 c -1.78222,0.69092 -2.81201,2.13428 -5.76953,1.64893 -8.6206,-7.1792 9.58643,-13.83936
              5.76953,-1.64893 z m 18.13282,-7.41797 c -4.00586,-2.90478 -5.90479,-11.23974 -4.94532,-16.48486 3.80567,3.61279 6.58448,8.25195 8.24268,14.01221 -2.1582,-3.3374
              -4.02539,-6.96387 -6.59424,-9.89112 -2.5293,4.1001 5.34375,8.68653 3.29688,12.36377 z m 446.73681,-79.12695 c -2.64648,0.72266 -1.70898,-2.13721 -3.29687,-2.47266
              0.25488,-1.11865 2.06347,-0.6831 3.29687,-0.82421 -0.0742,2.24902 1.37305,1.65966 0,3.29687 z m 12.36328,-1.64844 c -1.05761,-1.083 -1.05761,-3.03808 0,-4.12109
              2.09766,0.10059 3.19629,1.19971 3.29688,3.29687 -0.7334,0.64063 -1.86035,0.88624 -3.29688,0.82422 z m 4.1211,4.1211 c -0.80957,-4.20362 3.08203,-7.56739
              6.59375,-9.89063 2.88086,0.6919 5.84668,1.29737 5.77051,4.94531 2.48046,-1.15478 5.98437,-1.20312 6.59375,1.64844 -4.13575,5.43604 -17.11915,12.84473 -18.95801,3.29688 z
              m 18.95801,9.06689 c -0.66797,-0.15674 -0.82129,-0.82666 -1.64844,-0.82373 0.15136,-0.70166 -0.32129,-0.77832 -0.82422,-0.82471 0.60742,-0.86767 3.1416,0.56641
              3.29687,-2.47265 0.1045,-1.47901 -1.00976,-1.73877 -0.82421,-3.29688 -1.87891,-0.23095 -3.09864,0.19873 -3.29688,1.64844 -1.79199,-2.97021 5.64844,-2.97021 6.59375,0
              0.22656,3.24854 -3.52441,2.52051 -3.29687,5.76953 z m 126.93261,51.10254 c -0.65234,-1.78516 -1.65625,-2.55176 -2.85156,-2.82715 0.43555,-0.65722 0.84473,-1.34228
              1.22656,-2.05615 0.49512,1.67383 2.01465,2.32422 1.625,4.8833 z m -19.78222,-62.64209 c 2.16015,1.1377 2.83691,3.75684 5.76953,4.12158 1.06933,-1.67871 0.53027,-4.96484
              3.29687,-4.9458 1.20703,0.7168 2.61328,1.23389 2.47364,3.29688 -0.31446,3.53222 -4.22168,3.47168 -5.77051,5.77051 2.75488,0.4663 2.71777,2.65771 3.07226,4.42822
              -3.03222,-5.0083 -7.28906,-9.36914 -12.27539,-12.71582 1.08887,-0.0947 2.22949,-0.0899 3.4336,0.0444 z m -50.27832,-18.95752 c 5.68164,-4.28174 4.78515,8.15186
              -0.82422,3.29736 0.0693,-1.30517 -0.39649,-3.14404 0.82422,-3.29736 z m -32.96973,14.83643 c -5.87598,-1.50293 -5.95215,-5.31787 -0.82324,-0.82422 2.66699,1.01855
              0.6289,-2.66699 3.2959,-1.64844 0.21582,-2.41308 -1.86329,-2.53223 -1.64844,-4.94531 -2.52051,-0.59815 -2.42383,1.42139 -4.94531,0.82422 0.0908,-2.10596
              2.75976,-1.63623 4.94531,-1.64844 2.78711,2.30371 3.21679,7.03271 -0.82422,8.24219 z"
            style="clip-rule:evenodd;fill:#b50202;fill-rule:evenodd" />
      <path fill-rule="evenodd" clip-rule="evenodd" fill="#B50202"
            d="M978,223.2241211c0-1.9238281,0-3.8466797,0-5.7700195 c-3-0.4731445-10.0166016,0.3754883-8.2431641,2.4726563C971.2460938,220.8037109,974,222.7402344,978,223.2241211z" />
      <path fill-rule="evenodd" clip-rule="evenodd" fill="#B50202"
            d="M937.9677734,230.6411133 c2.5419922,0.0585938,1.0898438-3.0454102,1.6484375-6.5932617c-1.1357422,0.0351563-1.8095703-0.3886719-2.4726563-0.8237305
               C938.2304688,227.1489258,939.0458984,227.1333008,937.9677734,230.6411133z" />
      <path fill-rule="evenodd" clip-rule="evenodd" fill="#B50202"
            d="M925.6035156,231.4658203 c0.1972656-1.5458984,1.3574219,0.4677734,1.6484375-0.824707c-0.5029297-0.0458984-0.9755859-0.1225586-0.8242188-0.8237305
               c2.0351563-0.7128906,5.7060547,0.2109375,5.7695313-2.4726563 C929.1445313,227.3496094,923.7236328,229.2631836,925.6035156,231.4658203z" />
      <path fill-rule="evenodd" clip-rule="evenodd" fill="#B50202"
            d="M930.5488281,231.4658203 c3.1601563-0.1494141,0.2988281,0.6748047,0.8242188,2.4726563c2.5097656,0.0366211,3.2060547-1.7402344,4.9462891-2.4726563
               c-0.0029297,0.8271484,0.6669922,0.980957,0.8242188,1.6479492c-2.0371094-2.0493164-2.4394531,1.7451172-4.1210938,2.4731445
               c2.3408203,2.3540039,1.1855469-2.996582,4.9453125-1.6484375c0.7158203-3.1889648-2.0136719-2.9321289-2.4726563-4.9453125
               C933.6611328,229.6333008,931.0253906,229.46875,930.5488281,231.4658203z" />
      <path fill-rule="evenodd" clip-rule="evenodd" fill="#B50202"
            d="M926.4277344,243.0053711 c3.1328125-1.8076172,3.1279297,1.6533203,6.5947266,1.6484375c0.2880859-3.1713867,3.0205078-3.8974609,4.1210938-4.1210938
               c-2.1669922,0.2436523-0.6494141-3.1982422-3.296875-2.4731445c-2.0175781,0.730957-0.8935547,4.6025391-4.1220703,4.121582
               c-0.0019531-0.8266602,0.6679688-0.980957,0.8242188-1.6484375    C928.4433594,240.6245117,927.6640625,242.0439453,926.4277344,243.0053711z" />
      <path fill-rule="evenodd" clip-rule="evenodd" fill="#B50202"
            d="M59.3305664,486.15625 c-0.0102539,1.6367188-2.2485352,1.0478516-1.6484375,3.2958984c1.878418-1.1318359,3.0986328,2.125,3.296875,0
               C58.7407227,490.0419922,61.5688477,485.5654297,59.3305664,486.15625z" />
      <path fill-rule="evenodd" clip-rule="evenodd" fill="#B50202"
            d="M58.5063477,510.8828125 c-1.534668-0.7880859-2.7548828,2.4677734-3.296875,0c0.5595703-2.2763672,0.1489258-1.8818359,2.4726563-3.2978516
               c-2.1835938-2.3632813-0.4360352-8.8613281-7.4179688-8.2421875c-1.5712891,7.2363281-6.8120117,16.4111328-10.7158203,23.9033203
               c1.5380859,8.9023438,3.2910156,17.5908203,4.121582,27.1992188c6.940918,1.7294922,23.5087891-5.4667969,25.5512695-3.296875
               c0.4970703-5.2724609,11.3886719-0.1513672,13.1879883-4.1210938    C81.8623047,527.4199219,57.2509766,530.8154297,58.5063477,510.8828125z" />
      <path fill-rule="evenodd" clip-rule="evenodd" fill="#B50202"
            d="M844.828125,250.4233398 c-1.2333984,0.1411133-3.0410156-0.2944336-3.296875,0.8242188c2.2978516,2.6484375,3.7373047,6.1542969,6.5947266,8.2426758
               c0.1816406-0.6425781,0.6894531-0.9584961,1.6484375-0.824707    C850.5302734,252.5976563,844.0488281,252.1230469,844.828125,250.4233398z" />
    </g>
    <g id="schrift">
      <path fill="#FFFFFF"
            d="M71.8759766,408.8876953l41.2275391-6.4589844 c4.1943359-0.6572266,8.1435547-0.7929688,11.8447266-0.4082031c3.6992188,0.3857422,7,1.2939453,9.9013672,2.7246094
               c2.8994141,1.4335938,5.3017578,3.46875,7.2070313,6.1083984c1.9052734,2.6416016,3.1601563,5.8867188,3.7636719,9.7392578
               c0.8857422,5.6513672,0.2158203,10.3408203-2.0078125,14.0654297c-2.2236328,3.7265625-5.7265625,6.8417969-10.5097656,9.3447266
               l0.0400391,0.2568359c12.4628906,0.5927734,19.53125,6.2392578,21.2080078,16.9414063
               c0.8457031,5.3945313,0.4580078,9.9287109-1.1582031,13.6035156c-1.6171875,3.6748047-3.9443359,6.7363281-6.9814453,9.1865234
               c-3.0371094,2.4492188-6.5791016,4.3427734-10.625,5.6777344c-4.0458984,1.3369141-8.0800781,2.3183594-12.1035156,2.9492188 l-37.7597656,5.9160156L71.8759766,408.8876953z
               M101.3193359,440.5927734l6.6796875-1.046875 c1.9667969-0.3076172,3.8710938-0.7587891,5.7080078-1.3544922c1.8349609-0.59375,3.4501953-1.3505859,4.8417969-2.2724609
               c1.3896484-0.9179688,2.4580078-2.0722656,3.2080078-3.4628906c0.7460938-1.3876953,0.9726563-3.0244141,0.6777344-4.9091797
               c-0.3222656-2.0546875-1.0263672-3.609375-2.1132813-4.6689453c-1.0869141-1.0576172-2.40625-1.7714844-3.9541016-2.1435547
               c-1.5507813-0.3701172-3.2802734-0.4941406-5.1904297-0.3710938c-1.9111328,0.1240234-3.8505859,0.3398438-5.8193359,0.6484375 l-6.9355469,1.0859375L101.3193359,440.5927734z
               M107.1552734,477.8378906l7.0634766-1.1064453 c2.1396484-0.3349609,4.2646484-0.7773438,6.3710938-1.3271484c2.1064453-0.5478516,3.9589844-1.3212891,5.5585938-2.3183594
               c1.5986328-0.9951172,2.8046875-2.2597656,3.6171875-3.7910156c0.8134766-1.5292969,1.0380859-3.4521484,0.6757813-5.7636719
               c-0.375-2.3964844-1.2128906-4.2382813-2.5107422-5.5283203c-1.2998047-1.2871094-2.8359375-2.1416016-4.6132813-2.5664063
               c-1.7773438-0.4228516-3.7314453-0.5771484-5.8623047-0.4628906c-2.1328125,0.1162109-4.2246094,0.3330078-6.2792969,0.6542969 l-7.3212891,1.1474609L107.1552734,477.8378906z" />
      <path fill="#FFFFFF"
            d="M154.9716797,395.8681641l63.1894531-9.9003906l2.65625,16.953125l-39.3007813,6.1572266
               l2.8984375,18.4951172l37.1171875-5.8164063l2.65625,16.953125l-37.1171875,5.8164063L190.25,464.8183594l40.7138672-6.3789063
               l2.65625,16.953125l-64.6025391,10.1220703L154.9716797,395.8681641z" />
      <path fill="#FFFFFF"
            d="M249.7060547,399.1835938l-22.0908203,3.4619141l-2.7763672-17.7241211l68.0683594-10.6655273
               l2.7773438,17.7236328l-22.0898438,3.4619141l11.2685547,71.921875l-23.8886719,3.7431641L249.7060547,399.1835938z" />
      <path fill="#FFFFFF"
         d="M317.5693359,370.3916016l29.2822266-4.5878906l48.5947266,84.2333984l-26.2001953,4.1044922
            l-9.6767578-18.0898438l-33.6503906,5.2724609l-4.0654297,20.2431641l-24.2734375,3.8037109L317.5693359,370.3916016z
            M335.1074219,386.5917969l-0.2568359,0.0410156l-6.0644531,36.8730469l22.4755859-3.5214844L335.1074219,386.5917969z" />
      <path fill="#FFFFFF"
            d="M391.1445313,406.6298828l34.8056641-5.4541016l2.65625,16.953125l-34.8056641,5.4541016 L391.1445313,406.6298828z" />
      <path fill="#FFFFFF"
            d="M446.5947266,368.3349609l-22.0908203,3.4609375l-2.7763672-17.7241211l68.0683594-10.6655273
               l2.7773438,17.7241211l-22.0898438,3.4614258l11.2685547,71.921875l-23.8886719,3.7431641L446.5947266,368.3349609z" />
      <path fill="#FFFFFF"
            d="M496.6025391,342.3398438l63.1894531-9.9008789l2.65625,16.953125l-39.2998047,6.1577148
               l2.8974609,18.4951172l37.1171875-5.815918l2.65625,16.9526367l-37.1171875,5.8164063l3.1796875,20.2919922l40.7128906-6.3789063
               l2.65625,16.953125l-64.6015625,10.1220703L496.6025391,342.3398438z" />
      <path fill="#FFFFFF"
            d="M583.9902344,397.8623047c3.3505859,1.2304688,7.2109375,2.0732422,11.5810547,2.5273438
               c4.3681641,0.4560547,9.0371094,0.2949219,14.0039063-0.4833984c1.8818359-0.2949219,3.7070313-0.6904297,5.4716797-1.1865234
               c1.765625-0.4941406,3.28125-1.171875,4.5507813-2.0283203c1.2685547-0.8564453,2.2197266-1.9267578,2.8525391-3.2109375
               c0.6318359-1.2832031,0.8076172-2.8232422,0.5263672-4.6220703c-0.4433594-2.8251953-1.8271484-4.7998047-4.1533203-5.9287109
               c-2.3271484-1.1259766-5.1357422-1.9785156-8.4277344-2.5610352c-3.2939453-0.5795898-6.8652344-1.1157227-10.7138672-1.6108398
               c-3.8496094-0.4926758-7.4882813-1.4580078-10.9140625-2.8955078c-3.4287109-1.4370117-6.4453125-3.6162109-9.0527344-6.5429688
               c-2.6083984-2.9233398-4.3398438-7.1259766-5.1982422-12.6064453c-0.8457031-5.394043-0.3486328-10.0556641,1.4931641-13.9848633
               c1.8388672-3.9272461,4.4619141-7.2124023,7.8642578-9.8515625c3.4023438-2.6381836,7.3486328-4.7475586,11.8378906-6.3286133
               c4.4902344-1.5791016,9.0019531-2.7255859,13.5419922-3.4370117c4.3662109-0.684082,8.6074219-1.0405273,12.7265625-1.0737305
               c4.1181641-0.0302734,7.7548828,0.2329102,10.9140625,0.7905273l1.3564453,18.7353516
               c-3.3105469-0.972168-6.7070313-1.5141602-10.1894531-1.6264648c-3.484375-0.1123047-6.9375,0.1000977-10.3613281,0.6362305
               c-1.5410156,0.2416992-3.2226563,0.5708008-5.0429688,0.9873047c-1.8222656,0.4174805-3.5019531,1.0322266-5.0410156,1.8422852
               c-1.5390625,0.8125-2.7792969,1.8623047-3.7167969,3.1489258c-0.9394531,1.2875977-1.2539063,2.9160156-0.9453125,4.8847656
               c0.3759766,2.3984375,1.7109375,4.0742188,4.0117188,5.0297852c2.2988281,0.9555664,5.0839844,1.6601563,8.3574219,2.1118164
               c3.2724609,0.4536133,6.8300781,0.9038086,10.6738281,1.3540039c3.8417969,0.4506836,7.4794922,1.4169922,10.9140625,2.8955078
               c3.4335938,1.480957,6.453125,3.6826172,9.0625,6.6064453c2.6064453,2.9267578,4.3339844,7.0849609,5.1787109,12.4794922
               c0.9130859,5.8232422,0.5537109,10.8134766-1.0751953,14.9716797c-1.6308594,4.1591797-4.1113281,7.640625-7.4433594,10.4423828
               c-3.3339844,2.8046875-7.3046875,5.0273438-11.9160156,6.6699219c-4.6113281,1.6435547-9.4013672,2.8554688-14.3662109,3.6328125
               c-4.1953125,0.6582031-8.7412109,1.0410156-13.6357422,1.1503906c-4.8964844,0.109375-9.4570313-0.1640625-13.6816406-0.8173828 L583.9902344,397.8623047z" />
      <path fill="#FFFFFF"
            d="M667.2402344,333.7626953l-22.0908203,3.4614258L642.3720703,319.5l68.0703125-10.6655273
               l2.7763672,17.7241211l-22.0898438,3.4609375l11.2685547,71.9228516l-23.8886719,3.7421875L667.2402344,333.7626953z" />
      <path fill="#FFFFFF"
            d="M719.046875,307.4863281l23.8886719-3.7431641l14.0458984,89.6464844l-23.8886719,3.7431641 L719.046875,307.4863281z" />
      <path fill="#FFFFFF"
            d="M758.6044922,301.2880859l30.4384766-4.769043l39.8486328,56.1279297l0.2578125-0.0400391
               l-9.9238281-60.8168945l21.8330078-3.4208984l14.0458984,89.6464844l-29.6679688,4.6484375L784.5,326.3115234
               l-0.2558594,0.0405273l10.3681641,61.1411133l-21.9619141,3.4414063L758.6044922,301.2880859z" />
      <path fill="#FFFFFF"
            d="M952.0546875,360.1928711c-7.3134766,3.1650391-13.7851563,5.3842773-19.4179688,6.6616211 c-5.6347656,1.2773438-10.5048828,2.2382813-14.6142578,2.8818359
             c-5.9951172,0.9394531-12.1816406,1.0737305-18.5566406,0.4072266    c-6.3769531-0.6660156-12.3085938-2.4140625-17.7949219-5.2382813
               c-5.4873047-2.824707-10.2529297-6.9243164-14.2958984-12.3007813c-4.0458984-5.3735352-6.7304688-12.3007813-8.0585938-20.777832
              c-1.328125-8.4765625-1.0429688-15.8901367,0.8574219-22.2402344c1.8994141-6.3510742,5.0615234-11.7807617,9.4873047-16.2900391
             s9.9716797-8.1625977,16.6376953-10.9633789c6.6679688-2.7983398,14.1113281-4.8417969,22.3310547-6.1298828
             c1.4550781-0.2280273,3.2822266-0.4697266,5.4785156-0.7275391c2.1962891-0.2553711,4.5585938-0.4287109,7.0898438-0.5185547
             c2.5292969-0.0878906,5.0976563-0.0751953,7.7050781,0.0424805c2.6044922,0.1186523,5.0878906,0.4326172,7.4492188,0.9384766
             l1.1328125,19.8237305c-4.1171875-1.6347656-8.2294922-2.546875-12.3369141-2.7382813
             c-4.109375-0.1884766-7.5771484-0.0625-10.4013672,0.3798828c-4.8808594,0.7646484-9.3789063,2.0175781-13.4921875,3.7587891
             c-4.1142578,1.7421875-7.59375,4.019043-10.4423828,6.8334961c-2.8486328,2.8149414-4.9052734,6.2094727-6.1689453,10.1777344
             c-1.265625,3.9711914-1.4863281,8.5683594-0.6679688,13.7895508c0.6835938,4.3666992,2.0498047,8.1884766,4.0976563,11.4638672
             c2.0478516,3.2768555,4.5693359,5.9291992,7.5644531,7.9599609c2.9921875,2.03125,6.4316406,3.4008789,10.3144531,4.1083984
             c3.8818359,0.7070313,8.0087891,0.71875,12.375,0.0341797c3.4238281-0.5361328,6.1689453-1.4926758,8.2353516-2.8691406
             l-2.7763672-17.7236328l-14,2.1933594l-2.65625-16.9536133l37.1162109-5.8154297L952.0546875,360.1928711z" />
  </g>
  </defs>
  <rect x="0" y="0" width="37" height="37" rx="5" ry="5" style="fill:#5489c2" />
  <rect x="1.1" y="1.1" width="34.8" height="34.8" rx="3.9" ry="3.9" style="fill:#ffffff" />
  <path d="M 18.5 5 L 18.5 9.8 A 8.7 8.7 0 0 0 18.5 27.2 L 18.5 32 A 13.5 13.5 0 0 1 18.5 5" style="fill:url(#linearGradient2688);stroke:none"/>
  <path d="M 18.5 5 L 18.5 9.8 A 8.7 8.7 0 0 1 18.5 27.2 L 18.5 32 A 13.5 13.5 0 0 0 18.5 5" style="fill:url(#linearGradient2683);stroke:none"/>
  <rect x="17.25" y="4" width="2.5" height="30" style="fill:#ffffff" />
  <use xlink:href="#balken" transform="translate(0.5,5) scale(0.035,0.035)" />
  <use xlink:href="#schrift" transform="translate(0.5,5) scale(0.035,0.035)" />
</svg>
