<?xml version="1.0" encoding="utf-8"?>
<!-- Generator: Adobe Illustrator 27.8.1, SVG Export Plug-In . SVG Version: 6.00 Build 0)  -->
<svg version="1.2" baseProfile="tiny" id="Layer_1" xmlns="http://www.w3.org/2000/svg" xmlns:xlink="http://www.w3.org/1999/xlink"
	 x="0px" y="0px" viewBox="0 0 22 22" overflow="visible" xml:space="preserve">
<g>
	<g>
		<g>
			<path fill="#0077B6" d="M19.7,22H2.3C1,22,0,21,0,19.7V2.3C0,1,1,0,2.3,0h6.3C9,0,9.3,0.3,9.3,0.8S9,1.5,8.6,1.5H2.3
				c-0.4,0-0.8,0.4-0.8,0.8v17.4c0,0.4,0.4,0.8,0.8,0.8h17.4c0.4,0,0.8-0.4,0.8-0.8v-6.3c0-0.4,0.3-0.8,0.8-0.8S22,13,22,13.4v6.3
				C22,21,21,22,19.7,22z"/>
		</g>
		<g>
			<path fill="#0077B6" d="M21.2,10.3c-0.4,0-0.8-0.3-0.8-0.8v-8h-8c-0.4,0-0.8-0.3-0.8-0.8S12,0,12.5,0h8.8C21.7,0,22,0.3,22,0.8
				v8.8C22,9.9,21.7,10.3,21.2,10.3z"/>
		</g>
		<g>
			<path fill="#0077B6" d="M5.9,16.9c-0.2,0-0.4-0.1-0.5-0.2c-0.3-0.3-0.3-0.8,0-1.1L20.7,0.2c0.3-0.3,0.8-0.3,1.1,0s0.3,0.8,0,1.1
				L6.4,16.7C6.2,16.8,6,16.9,5.9,16.9z"/>
		</g>
	</g>
</g>
</svg>
