<?xml version="1.0" encoding="UTF-8" standalone="no"?>
<svg version="1.1" xmlns="http://www.w3.org/2000/svg" width="100" height="100" viewBox="0 0 720 720">
  <path d="M 65 342 a 30 30 0 0 1 30 -30 h 65 v -100 a 200 200 0 0 1 400 0 v 100 h 65 a 30 30 0 0 1 30 30 v 340 a 30 30 0 0 1 -30 30 h -530 a 30 30 0 0 1 -30 -30 z
           m 365 100 a 65 65 0 0 0 -130 0 v 50 a 10 10 0 0 0 10 10 a 10 10 0 0 1 10 10 v 110 a 45 45 0 0 0 90 0 v -110 a 10 10 0 0 1 10 -10 a 10 10 0 0 0 10 -10 z
           m 40 -130 v -100 a 110 110 0 0 0 -220 0 v 100 z" fill="#000000" />
</svg>
