<?xml version="1.0" encoding="utf-8"?>
<!-- Generator: Adobe Illustrator 27.8.1, SVG Export Plug-In . SVG Version: 6.00 Build 0)  -->
<svg version="1.2" baseProfile="tiny" id="Layer_1" xmlns="http://www.w3.org/2000/svg" xmlns:xlink="http://www.w3.org/1999/xlink"
	 x="0px" y="0px" viewBox="0 0 200 80" overflow="visible" xml:space="preserve">
<g>
	<path fill="#0077B6" d="M140.4,29h9.6c1.5,0,2.8-1.2,2.8-2.8v-8.3c0-1.5-1.3-2.8-2.8-2.8h-9.6c-1.5,0-2.8,1.2-2.8,2.8v8.3
		C137.6,27.8,138.9,29,140.4,29z M138.6,17.9c0-1,0.8-1.8,1.8-1.8h9.6c1,0,1.8,0.8,1.8,1.8v8.3c0,1-0.8,1.8-1.8,1.8h-9.6
		c-1,0-1.8-0.8-1.8-1.8V17.9z"/>
	<path fill="#0077B6" d="M156.5,29h9.6c1.5,0,2.8-1.2,2.8-2.8v-8.3c0-1.5-1.3-2.8-2.8-2.8h-9.6c-1.5,0-2.8,1.2-2.8,2.8v8.3
		C153.7,27.8,154.9,29,156.5,29z M154.7,17.9c0-1,0.8-1.8,1.8-1.8h9.6c1,0,1.8,0.8,1.8,1.8v8.3c0,1-0.8,1.8-1.8,1.8h-9.6
		c-1,0-1.8-0.8-1.8-1.8V17.9z"/>
	<path fill="#0077B6" d="M140.4,43.5h9.6c1.5,0,2.8-1.2,2.8-2.8v-8.3c0-1.5-1.3-2.8-2.8-2.8h-9.6c-1.5,0-2.8,1.2-2.8,2.8v8.3
		C137.6,42.2,138.9,43.5,140.4,43.5z M138.6,32.4c0-1,0.8-1.8,1.8-1.8h9.6c1,0,1.8,0.8,1.8,1.8v8.3c0,1-0.8,1.8-1.8,1.8h-9.6
		c-1,0-1.8-0.8-1.8-1.8V32.4z"/>
	<path fill="#0077B6" d="M156.5,43.5h9.6c1.5,0,2.8-1.2,2.8-2.8v-8.3c0-1.5-1.3-2.8-2.8-2.8h-9.6c-1.5,0-2.8,1.2-2.8,2.8v8.3
		C153.7,42.2,154.9,43.5,156.5,43.5z M154.7,32.4c0-1,0.8-1.8,1.8-1.8h9.6c1,0,1.8,0.8,1.8,1.8v8.3c0,1-0.8,1.8-1.8,1.8h-9.6
		c-1,0-1.8-0.8-1.8-1.8V32.4z"/>
	<path fill="#0077B6" d="M16.9,26.8C27.3,16.5,41.2,10.8,56,10.8c14.8,0,28.7,5.7,39.1,16.1l0.4,0.3l6.9-6.8L102,20
		C76.7-5.1,35.4-5.1,10.1,20l-0.4,0.3l6.9,6.8L16.9,26.8z M101,20.4l-5.4,5.4C84.9,15.5,70.9,9.8,56,9.8c-14.9,0-28.9,5.7-39.5,16
		l-5.4-5.4C36-3.9,76.1-3.9,101,20.4z"/>
	<path fill="#0077B6" d="M113,38.4H68.3V67H113V38.4z M112,66H69.3V39.4H112V66z"/>
	<path fill="#0077B6" d="M93.2,52.6h7.4c1.3,0,2.3-1,2.3-2.3v-6.4c0-1.2-1-2.3-2.3-2.3h-7.4c-1.3,0-2.3,1-2.3,2.3v6.4
		C90.9,51.5,91.9,52.6,93.2,52.6z M91.9,43.9c0-0.7,0.6-1.3,1.3-1.3h7.4c0.7,0,1.3,0.6,1.3,1.3v6.4c0,0.7-0.6,1.3-1.3,1.3h-7.4
		c-0.7,0-1.3-0.6-1.3-1.3V43.9z"/>
	<path fill="#0077B6" d="M80.8,52.6h7.4c1.3,0,2.3-1,2.3-2.3v-6.4c0-1.2-1-2.3-2.3-2.3h-7.4c-1.3,0-2.3,1-2.3,2.3v6.4
		C78.5,51.5,79.5,52.6,80.8,52.6z M79.5,43.9c0-0.7,0.6-1.3,1.3-1.3h7.4c0.7,0,1.3,0.6,1.3,1.3v6.4c0,0.7-0.6,1.3-1.3,1.3h-7.4
		c-0.7,0-1.3-0.6-1.3-1.3V43.9z"/>
	<path fill="#0077B6" d="M93.2,63.7h7.4c1.3,0,2.3-1,2.3-2.3V55c0-1.2-1-2.3-2.3-2.3h-7.4c-1.3,0-2.3,1-2.3,2.3v6.4
		C90.9,62.7,91.9,63.7,93.2,63.7z M91.9,55c0-0.7,0.6-1.3,1.3-1.3h7.4c0.7,0,1.3,0.6,1.3,1.3v6.4c0,0.7-0.6,1.3-1.3,1.3h-7.4
		c-0.7,0-1.3-0.6-1.3-1.3V55z"/>
	<path fill="#0077B6" d="M80.8,63.7h7.4c1.3,0,2.3-1,2.3-2.3V55c0-1.2-1-2.3-2.3-2.3h-7.4c-1.3,0-2.3,1-2.3,2.3v6.4
		C78.5,62.7,79.5,63.7,80.8,63.7z M79.5,55c0-0.7,0.6-1.3,1.3-1.3h7.4c0.7,0,1.3,0.6,1.3,1.3v6.4c0,0.7-0.6,1.3-1.3,1.3h-7.4
		c-0.7,0-1.3-0.6-1.3-1.3V55z"/>
	<path fill="#0077B6" d="M12.7,36.9h5.9c0.7,0,1.3-0.6,1.3-1.3s-0.6-1.3-1.3-1.3h-5.9c-0.7,0-1.3,0.6-1.3,1.3S11.9,36.9,12.7,36.9z"
		/>
	<path fill="#0077B6" d="M22.9,46.5c-0.8,0-3.4-0.1-4.1-0.1c1.3,0.9,1.5,2.6,1.6,5.8c0.1,1.9,0,8.4,0,8.7l0,1.8l-6.9-6.9v-2.2
		l5.5,5.5c0-1.1,0-2.5,0-3.8c0-1.3,0-2.4-0.1-3c-0.2-3.4-0.5-5.1-2.3-5.7c-0.6-0.2-1.1-0.2-1.9-0.3h-1.4c-1.7,0-4.5,0-5,0
		c-0.8,0-1.3,0.6-1.3,1.3c0,0.7,0,13.7,0,14.4c0,0.7,0.6,1.2,1.3,1.3c0.8,0,3.4,0.1,4.1,0.1c-1.3-0.9-1.5-2.6-1.6-5.8
		c-0.1-1.9,0-8.4,0-8.7l0-1.8l6.9,6.9v2.2l-5.5-5.5c0,1.1,0,2.5,0,3.8c0,1.3,0,2.4,0.1,3c0.2,3.4,0.5,5.1,2.3,5.7
		c0.6,0.2,1.1,0.2,1.9,0.2c0.7,0,5.7,0,6.4,0c0.8,0,1.3-0.6,1.3-1.3c0-0.7,0-13.7,0-14.4C24.2,47.1,23.7,46.6,22.9,46.5z"/>
	<path fill="#0077B6" d="M195.6,0H111c-2.4,0-4.4,2-4.4,4.4v25.5H89.7c-9.2-8.5-21-13.2-33.7-13.2c-12,0-23.3,4.2-32.3,11.9
		c-0.2,0.1-0.3,0.3-0.5,0.4c-0.2,0.2-0.5,0.4-0.7,0.6c-0.1,0.1-0.2,0.1-0.2,0.2H3.4c-1.9,0-3.4,1.5-3.4,3.4v43.3
		C0,78.5,1.5,80,3.4,80h24.4c1.9,0,3.4-1.5,3.4-3.4V35c0.1-0.1,0.1-0.1,0.2-0.2c0.2-0.2,0.5-0.4,0.7-0.6c0.3-0.2,0.5-0.4,0.8-0.6
		c0.2-0.2,0.4-0.3,0.6-0.5c0.3-0.2,0.6-0.4,0.9-0.6c0.2-0.1,0.4-0.2,0.5-0.3c0.4-0.2,0.7-0.4,1.1-0.6c0.1-0.1,0.3-0.2,0.4-0.2
		c0.4-0.2,0.8-0.4,1.2-0.7c0.1,0,0.2-0.1,0.3-0.1c0.5-0.2,0.9-0.5,1.4-0.7c5.1-2.3,10.7-3.6,16.6-3.6c5.7,0,11.4,1.2,16.5,3.6H59
		c-1.5,0-2.8,1-3.3,2.4c-5.6,0.1-11,1.5-15.8,4.1v0l-0.7,0.4c-1.2,0.7-2.4,1.5-3.5,2.3c-0.1,0.1-0.2,0.1-0.3,0.2
		c-0.4,0.3-0.9,0.7-1.3,1.1c-0.1,0.1-0.2,0.2-0.4,0.3c-0.5,0.4-1,0.9-1.5,1.4l-0.4,0.3l6.9,6.8l0.4-0.3c0.1-0.1,0.2-0.2,0.4-0.3
		c0.1-0.1,0.2-0.2,0.3-0.2l0.2-0.1v0c4.3-3.9,9.8-6.1,15.6-6.2v6c-4.6,0.1-8.9,2-12.2,5.2L43,53.4l6.9,6.8l0.4-0.3
		c1.4-1.4,3.3-2.3,5.3-2.4v14.4c0,0.9,0.4,1.8,1,2.4h-1.3h-8.5v2.3c0,1.9,1.5,3.4,3.4,3.4h8.5h67.6h2.2c1.9,0,3.4-1.5,3.4-3.4v-2.3
		h-2.2h-4.9c0.6-0.6,1-1.5,1-2.4V60.3h6.6h12v1v10.5h-11v4h31.3h8.6v-4h-8.6h-2.5V60.3h33.4c2.4,0,4.4-2,4.4-4.4V4.4
		C200,2,198,0,195.6,0z M55.5,56.5c-2.1,0.1-4.1,0.9-5.7,2.3l-5.5-5.4c3-2.8,7-4.4,11.1-4.5V56.5z M55.5,33.3v7.6
		c-5.8,0.1-11.3,2.2-15.6,5.9v-9.3C44.6,34.8,50,33.4,55.5,33.3C55.5,33.3,55.5,33.3,55.5,33.3z M50.1,79c-1.3,0-2.4-1.1-2.4-2.4
		v-1.3h7.5v1.3c0,0.9,0.4,1.8,1,2.4H50.1z M28.6,75.9c0,0.8-0.7,1.5-1.5,1.5h-23c-0.8,0-1.5-0.7-1.5-1.5v-2.5c0-0.8,0.7-1.5,1.5-1.5
		h23c0.8,0,1.5,0.7,1.5,1.5V75.9z M28.6,71.4c-0.4-0.3-0.9-0.5-1.5-0.5h-23c-0.6,0-1.1,0.2-1.5,0.5V34c0-0.8,0.7-1.5,1.5-1.5h17.8
		l5.7,5.7l0.4-0.3c0.2-0.2,0.4-0.4,0.6-0.6V71.4z M31.3,34.7c0,0.3-0.2,0.5-0.5,0.5s-0.5-0.2-0.5-0.5v-1.4c0-1.3-1.1-2.4-2.4-2.4
		h-5.3c-0.3,0-0.5-0.2-0.5-0.5s0.2-0.5,0.5-0.5h5.3c1.9,0,3.4,1.5,3.4,3.4V34.7z M56,25.3c-5.8,0-11.4,1.2-16.5,3.5
		c-0.6-1.2-1.8-1.9-3.1-1.9h-8.9c8.2-5.9,18.1-9.2,28.4-9.2c12,0,23.3,4.3,32.2,12.2H74.8C69,26.9,62.6,25.3,56,25.3z M102.7,75.5
		c0,0.6-0.5,1-1,1H85.5c-0.6,0-1-0.5-1-1v-0.2h18.2V75.5z M122.8,72H58.6V33.2h64.2V72z M124.5,10.9v19.7c-0.6-0.4-1.3-0.7-2.1-0.7
		h-8.6v-24h79v46.8h-60.4v-5h49.7V10.9H124.5z M129,36.3h-3.2v-3c0-0.5-0.1-1-0.4-1.5V11.9h55.6v34.8h-48.7v-7
		C132.4,37.8,130.9,36.3,129,36.3z M131.9,46.7c0.3,0,0.5,0.2,0.5,0.5c0,0.3-0.2,0.5-0.5,0.5h-6.6c-0.3,0-0.5-0.2-0.5-0.5
		c0-0.3,0.2-0.5,0.5-0.5H131.9z M131.9,53.7h-6.6c-0.3,0-0.5-0.2-0.5-0.5s0.2-0.5,0.5-0.5h6.6c0.3,0,0.5,0.2,0.5,0.5
		S132.2,53.7,131.9,53.7z M163.6,72.8v2h-29.3v-2h10h13.4h4.3H163.6z M145.4,71.8v-9.5h11.5v9.5H145.4z M199,55.9
		c0,1.9-1.5,3.4-3.4,3.4h-33.4h-17.8h-12v-5.6h61.4V4.9h-81v25h-5.2V4.4c0-1.9,1.5-3.4,3.4-3.4h84.6c1.9,0,3.4,1.5,3.4,3.4V55.9z"/>
</g>
</svg>
