<?xml version="1.0" encoding="UTF-8" standalone="no"?>
<svg xmlns="http://www.w3.org/2000/svg" xmlns:xlink="http://www.w3.org/1999/xlink" width="320" height="500" viewBox="0 0 320 500">
	<defs>
		<g id="nfc_n_mark">
			<rect width="46" height="74.5" fill="white"/>
			<path d="m 12,-0.5 c -7.65625,0 -19.55625,0.035 -21.8125,0.15625 -3.335,0.18125 -5.57125,2.59875 -5.71875,5.71875 -0.15125,3.09125 -0.205,60.62 0,63.75 0.19625,3.1 2.565,5.44 5.71875,5.625 3.4825,0.20625 14.7575,0.25 18,0.25 -5.78625,-3.99375 -6.58375,-11.52125 -7.125,-25.5 -0.3225,-8.28125 -0.025,-37.30125 0,-38.53125 l 0.15625,-7.90625 30.4375,30.4375 0,9.53125 -24.21875,-24.21875 c -0.0625,4.78625 -0.125,11.0425 -0.125,16.75 0,5.56125 0.0888,10.5975 0.25,13.25 0.90875,15.23375 2.33125,22.39 10.28125,25.1875 2.43125,0.855 4.68375,1.045 8.46875,1.09375 3.12,0.0387 24.89125,0.015 28.03125,-0.15625 3.335,-0.17625 5.5625,-2.60375 5.71875,-5.71875 0.15125,-3.08625 0.195,-60.46 0,-63.59375 -0.205,-3.09625 -2.56375,-5.435 -5.71875,-5.625 -3.48125,-0.205 -14.75875,-0.375 -18,-0.375 5.785,3.99875 6.5825,11.49375 7.125,25.46875 0.3225,8.28125 0.0238,37.30125 0,38.53125 l -0.15625,7.9375 -30.4375,-30.4375 0,-9.53125 24.21875,24.1875 c 0.0637,-4.785 0.125,-11.04125 0.125,-16.75 0,-5.56625 -0.0887,-10.59375 -0.25,-13.25 -0.9075,-15.23 -2.3325,-22.35875 -10.28125,-25.15625 -2.43125,-0.86 -4.69,-1.07625 -8.46875,-1.125 l -6.21875,0 z" fill="#659ccd"/>
		</g>
	</defs>
	<rect x="0" y="0" width="320" height="500" rx="20" ry="20" fill="#444445" />
	<circle cx="160" cy="220" r="80" fill="#659ccd" />
	<use xlink:href="#nfc_n_mark" x="52" y="65" transform="scale(2.15,2.15)" />
	<path d="m40 40 h240 v360 h-240 v-360 m40,180 a80,80,0 0 0 160,0 a80,80,0 0 0 -160,0 Z" fill="#eef5fb" />
</svg>
