<?xml version="1.0" encoding="utf-8"?>
<!-- Generator: Adobe Illustrator 27.9.0, SVG Export Plug-In . SVG Version: 6.00 Build 0)  -->
<svg version="1.2" baseProfile="tiny" id="Layer_1" xmlns="http://www.w3.org/2000/svg" xmlns:xlink="http://www.w3.org/1999/xlink"
	 x="0px" y="0px" viewBox="0 0 122 118" overflow="visible" xml:space="preserve">
<g>
	<path fill="#0077B6" d="M117.2,33.7h-8.4c-2.6,0-4.8,2.1-4.8,4.8v8.4c0,2.6,2.1,4.8,4.8,4.8h8.4c2.6,0,4.8-2.1,4.8-4.8v-8.4
		C122,35.8,119.9,33.7,117.2,33.7z M121,46.8c0,2.1-1.7,3.8-3.8,3.8h-8.4c-2.1,0-3.8-1.7-3.8-3.8v-8.4c0-2.1,1.7-3.8,3.8-3.8h8.4
		c2.1,0,3.8,1.7,3.8,3.8V46.8z"/>
	<path fill="#0077B6" d="M95,100.1h-8.4c-2.6,0-4.8,2.1-4.8,4.8v8.4c0,2.6,2.1,4.8,4.8,4.8H95c2.6,0,4.8-2.1,4.8-4.8v-8.4
		C99.8,102.3,97.7,100.1,95,100.1z M98.8,113.2c0,2.1-1.7,3.8-3.8,3.8h-8.4c-2.1,0-3.8-1.7-3.8-3.8v-8.4c0-2.1,1.7-3.8,3.8-3.8H95
		c2.1,0,3.8,1.7,3.8,3.8V113.2z"/>
	<path fill="#0077B6" d="M62.5,64.1h-3.3l2.3-2.3c0.2-0.2,0.2-0.5,0-0.7s-0.5-0.2-0.7,0l-2.3,2.3v-3.3c0-0.3-0.2-0.5-0.5-0.5
		s-0.5,0.2-0.5,0.5v3.3L55.2,61c-0.2-0.2-0.5-0.2-0.7,0s-0.2,0.5,0,0.7l2.3,2.3h-3.3c-0.3,0-0.5,0.2-0.5,0.5s0.2,0.5,0.5,0.5h3.3
		l-2.3,2.3c-0.2,0.2-0.2,0.5,0,0.7c0.1,0.1,0.2,0.1,0.4,0.1s0.3,0,0.4-0.1l2.3-2.3v3.3c0,0.3,0.2,0.5,0.5,0.5s0.5-0.2,0.5-0.5v-3.3
		l2.3,2.3c0.1,0.1,0.2,0.1,0.4,0.1s0.3,0,0.4-0.1c0.2-0.2,0.2-0.5,0-0.7l-2.3-2.3h3.3c0.3,0,0.5-0.2,0.5-0.5S62.8,64.1,62.5,64.1z"
		/>
	<path fill="#0077B6" d="M47.9,64.1h-3.3l2.3-2.3c0.2-0.2,0.2-0.5,0-0.7s-0.5-0.2-0.7,0l-2.3,2.3v-3.3c0-0.3-0.2-0.5-0.5-0.5
		s-0.5,0.2-0.5,0.5v3.3L40.5,61c-0.2-0.2-0.5-0.2-0.7,0s-0.2,0.5,0,0.7l2.3,2.3h-3.3c-0.3,0-0.5,0.2-0.5,0.5s0.2,0.5,0.5,0.5h3.3
		l-2.3,2.3c-0.2,0.2-0.2,0.5,0,0.7c0.1,0.1,0.2,0.1,0.4,0.1s0.3,0,0.4-0.1l2.3-2.3v3.3c0,0.3,0.2,0.5,0.5,0.5s0.5-0.2,0.5-0.5v-3.3
		l2.3,2.3c0.1,0.1,0.2,0.1,0.4,0.1s0.3,0,0.4-0.1c0.2-0.2,0.2-0.5,0-0.7l-2.3-2.3h3.3c0.3,0,0.5-0.2,0.5-0.5S48.1,64.1,47.9,64.1z"
		/>
	<path fill="#0077B6" d="M77.2,64.1h-3.3l2.3-2.3c0.2-0.2,0.2-0.5,0-0.7s-0.5-0.2-0.7,0l-2.3,2.3v-3.3c0-0.3-0.2-0.5-0.5-0.5
		s-0.5,0.2-0.5,0.5v3.3L69.9,61c-0.2-0.2-0.5-0.2-0.7,0s-0.2,0.5,0,0.7l2.3,2.3h-3.3c-0.3,0-0.5,0.2-0.5,0.5s0.2,0.5,0.5,0.5h3.3
		l-2.3,2.3c-0.2,0.2-0.2,0.5,0,0.7c0.1,0.1,0.2,0.1,0.4,0.1s0.3,0,0.4-0.1l2.3-2.3v3.3c0,0.3,0.2,0.5,0.5,0.5s0.5-0.2,0.5-0.5v-3.3
		l2.3,2.3c0.1,0.1,0.2,0.1,0.4,0.1s0.3,0,0.4-0.1c0.2-0.2,0.2-0.5,0-0.7l-2.3-2.3h3.3c0.3,0,0.5-0.2,0.5-0.5S77.5,64.1,77.2,64.1z"
		/>
	<path fill="#0077B6" d="M91.8,64.1h-3.3l2.3-2.3c0.2-0.2,0.2-0.5,0-0.7s-0.5-0.2-0.7,0l-2.3,2.3v-3.3c0-0.3-0.2-0.5-0.5-0.5
		s-0.5,0.2-0.5,0.5v3.3L84.5,61c-0.2-0.2-0.5-0.2-0.7,0s-0.2,0.5,0,0.7l2.3,2.3h-3.3c-0.3,0-0.5,0.2-0.5,0.5s0.2,0.5,0.5,0.5h3.3
		l-2.3,2.3c-0.2,0.2-0.2,0.5,0,0.7c0.1,0.1,0.2,0.1,0.4,0.1s0.3,0,0.4-0.1l2.3-2.3v3.3c0,0.3,0.2,0.5,0.5,0.5s0.5-0.2,0.5-0.5v-3.3
		l2.3,2.3c0.1,0.1,0.2,0.1,0.4,0.1s0.3,0,0.4-0.1c0.2-0.2,0.2-0.5,0-0.7l-2.3-2.3h3.3c0.3,0,0.5-0.2,0.5-0.5S92.1,64.1,91.8,64.1z"
		/>
	<path fill="#0077B6" d="M33.2,64.1h-3.3l2.3-2.3c0.2-0.2,0.2-0.5,0-0.7s-0.5-0.2-0.7,0l-2.3,2.3v-3.3c0-0.3-0.2-0.5-0.5-0.5
		s-0.5,0.2-0.5,0.5v3.3L25.9,61c-0.2-0.2-0.5-0.2-0.7,0s-0.2,0.5,0,0.7l2.3,2.3h-3.3c-0.3,0-0.5,0.2-0.5,0.5s0.2,0.5,0.5,0.5h3.3
		l-2.3,2.3c-0.2,0.2-0.2,0.5,0,0.7c0.1,0.1,0.2,0.1,0.4,0.1s0.3,0,0.4-0.1l2.3-2.3v3.3c0,0.3,0.2,0.5,0.5,0.5s0.5-0.2,0.5-0.5v-3.3
		l2.3,2.3c0.1,0.1,0.2,0.1,0.4,0.1s0.3,0,0.4-0.1c0.2-0.2,0.2-0.5,0-0.7l-2.3-2.3h3.3c0.3,0,0.5-0.2,0.5-0.5S33.5,64.1,33.2,64.1z"
		/>
	<path fill="#0077B6" d="M18.5,64.1h-3.3l2.3-2.3c0.2-0.2,0.2-0.5,0-0.7s-0.5-0.2-0.7,0l-2.3,2.3v-3.3c0-0.3-0.2-0.5-0.5-0.5
		s-0.5,0.2-0.5,0.5v3.3L11.2,61c-0.2-0.2-0.5-0.2-0.7,0s-0.2,0.5,0,0.7l2.3,2.3H9.6c-0.3,0-0.5,0.2-0.5,0.5s0.2,0.5,0.5,0.5h3.3
		l-2.3,2.3c-0.2,0.2-0.2,0.5,0,0.7c0.1,0.1,0.2,0.1,0.4,0.1s0.3,0,0.4-0.1l2.3-2.3v3.3c0,0.3,0.2,0.5,0.5,0.5s0.5-0.2,0.5-0.5v-3.3
		l2.3,2.3c0.1,0.1,0.2,0.1,0.4,0.1s0.3,0,0.4-0.1c0.2-0.2,0.2-0.5,0-0.7l-2.3-2.3h3.3c0.3,0,0.5-0.2,0.5-0.5S18.8,64.1,18.5,64.1z"
		/>
	<path fill="#0077B6" d="M72.8,50.5c2.1,0,3.8-1.7,3.8-3.8v-2.3c0-0.1,0-0.1,0-0.1c-1.2,2.3-2.8,4.4-4.6,6.4
		c0.1-0.1,0.2-0.1,0.3-0.1H72.8z"/>
	<path fill="#0077B6" d="M117.2,55.8h-8.4c-2.6,0-4.8,2.1-4.8,4.8v2.4c-0.3,0-0.6-0.1-0.9-0.1h-1.8v-1.8c0-4.2-3.4-7.6-7.6-7.6h-6.7
		c0.3-0.6,0.6-1.3,0.9-2h7c2.6,0,4.8-2.1,4.8-4.8v-8.4c0-2.6-2.1-4.8-4.8-4.8h-5.2c-1.6-8-6.4-15.1-13.5-19.6
		C70.9,5.6,61.5,0,50.7,0C33.9,0,20.3,13.6,20.3,30.4c0,9,3.9,17.3,10.7,23.1H7.6c-4.2,0-7.6,3.4-7.6,7.6v7c0,4.2,3.4,7.6,7.6,7.6
		h1.8v1.8c0,4.2,3.4,7.6,7.6,7.6h42.8v6.1c0,2.6,2.1,4.8,4.8,4.8h8.4c2.6,0,4.8-2.1,4.8-4.8V85h4.3v6.1c0,2.6,2.1,4.8,4.8,4.8H95
		c2.6,0,4.8-2.1,4.8-4.8V85h3.4c0.3,0,0.6,0,0.9-0.1v6.2c0,2.6,2.1,4.8,4.8,4.8h8.4c2.6,0,4.8-2.1,4.8-4.8v-8.4
		c0-2.6-2.1-4.8-4.8-4.8h-6.5c0-0.2,0-0.4,0-0.6v-3.7h6.5c2.6,0,4.8-2.1,4.8-4.8v-8.4C122,57.9,119.9,55.8,117.2,55.8z M95,34.7
		c2.1,0,3.8,1.7,3.8,3.8v8.4c0,2.1-1.7,3.8-3.8,3.8h-6.6c1.3-3.4,2-7.1,2-10.8c0-1.7-0.2-3.4-0.4-5.1H95z M81.9,38.4
		c0-2.6,2.1-4.8,4.8-4.8h2.8c0.3,0,0.5,0.2,0.5,0.5s-0.2,0.5-0.5,0.5h-2.8c-2.1,0-3.8,1.7-3.8,3.8v8.4c0,2.1,1.7,3.8,3.8,3.8h1.1
		c0.3,0,0.5,0.2,0.5,0.5s-0.2,0.5-0.5,0.5h-1.1c-2.6,0-4.8-2.1-4.8-4.8V38.4z M21.3,30.4C21.3,14.2,34.5,1,50.7,1
		s29.4,13.2,29.4,29.4c0,4.9-1.2,9.6-3.4,13.8c0.1-0.1,0.2-0.2,0.4-0.2c0.3,0,0.5,0.2,0.5,0.5v2.3c0,2.6-2.1,4.8-4.8,4.8h-0.5
		c-0.3,0-0.5-0.2-0.5-0.5c0-0.1,0.1-0.2,0.1-0.3c-1,1-2,1.9-3.1,2.8H32.5C25.4,47.9,21.3,39.5,21.3,30.4z M76.6,91.1
		c0,2.1-1.7,3.8-3.8,3.8h-8.4c-2.1,0-3.8-1.7-3.8-3.8V85h15.9V91.1z M77.6,84.5c0,0.3-0.2,0.5-0.5,0.5s-0.5-0.2-0.5-0.5v-1.8
		c0-2.1-1.7-3.8-3.8-3.8h-8.4c-2.1,0-3.8,1.7-3.8,3.8v1.8c0,0.3-0.2,0.5-0.5,0.5s-0.5-0.2-0.5-0.5v-1.8c0-2.6,2.1-4.8,4.8-4.8h8.4
		c2.6,0,4.8,2.1,4.8,4.8V84.5z M98.8,91.1c0,2.1-1.7,3.8-3.8,3.8h-8.4c-2.1,0-3.8-1.7-3.8-3.8V85h15.9V91.1z M99.8,84.5
		c0,0.3-0.2,0.5-0.5,0.5s-0.5-0.2-0.5-0.5v-1.8c0-2.1-1.7-3.8-3.8-3.8h-8.4c-2.1,0-3.8,1.7-3.8,3.8v1.8c0,0.3-0.2,0.5-0.5,0.5
		s-0.5-0.2-0.5-0.5v-1.8c0-2.6,2.1-4.8,4.8-4.8H95c2.6,0,4.8,2.1,4.8,4.8V84.5z M100.4,62.9v5.2c0,3.6-2.9,6.6-6.6,6.6H9.4H7.6
		c-3.6,0-6.6-2.9-6.6-6.6v-7c0-3.6,2.9-6.6,6.6-6.6h24.6h35.4h1.6h17.4h7.2c3.6,0,6.6,2.9,6.6,6.6V62.9z M104.6,84.8
		c-0.3,0-0.5-0.2-0.5-0.5v-1.6c0-2.6,2.1-4.8,4.8-4.8h1.3c0.3,0,0.5,0.2,0.5,0.5s-0.2,0.5-0.5,0.5h-1.3c-2.1,0-3.8,1.7-3.8,3.8v1.6
		C105.1,84.6,104.9,84.8,104.6,84.8z M117.2,79c2.1,0,3.8,1.7,3.8,3.8v8.4c0,2.1-1.7,3.8-3.8,3.8h-8.4c-2.1,0-3.8-1.7-3.8-3.8v-6.4
		c2.7-0.7,4.9-3,5.5-5.8H117.2z M110.3,73.7h-1.4c-2.6,0-4.8-2.1-4.8-4.8v-5.4c0-0.3,0.2-0.5,0.5-0.5s0.5,0.2,0.5,0.5v5.4
		c0,2.1,1.7,3.8,3.8,3.8h1.4c0.3,0,0.5,0.2,0.5,0.5S110.5,73.7,110.3,73.7z M121,68.9c0,2.1-1.7,3.8-3.8,3.8h-6.5v-2.2
		c0-3.5-2.4-6.4-5.6-7.3v-2.6c0-2.1,1.7-3.8,3.8-3.8h8.4c2.1,0,3.8,1.7,3.8,3.8V68.9z"/>
	<path fill="#0077B6" d="M45.6,26.6c0.8,0,1.5-0.7,1.5-1.5c0-2,1.6-3.6,3.6-3.6s3.6,1.6,3.6,3.6c0,1.3-0.7,2.6-1.9,3.2
		c-1.9,1-3.1,3-3.1,5.2c0,0.8,0.7,1.5,1.5,1.5s1.5-0.7,1.5-1.5c0-1.1,0.6-2,1.5-2.5c2.2-1.1,3.6-3.4,3.6-5.9c0-3.6-3-6.6-6.6-6.6
		s-6.6,3-6.6,6.6C44.1,25.9,44.8,26.6,45.6,26.6z"/>
	<path fill="#0077B6" d="M50.7,37c-0.8,0-1.5,0.7-1.5,1.5v1.8c0,0.8,0.7,1.5,1.5,1.5s1.5-0.7,1.5-1.5v-1.8
		C52.2,37.7,51.5,37,50.7,37z"/>
</g>
</svg>
