<?xml version="1.0" encoding="utf-8"?>
<!-- Generator: Adobe Illustrator 28.0.0, SVG Export Plug-In . SVG Version: 6.00 Build 0)  -->
<svg version="1.1" id="Layer_2_00000036938257262336080260000010294761580487134849_"
	 xmlns="http://www.w3.org/2000/svg" xmlns:xlink="http://www.w3.org/1999/xlink" x="0px" y="0px" viewBox="0 0 174 96"
	 style="enable-background:new 0 0 174 96;" xml:space="preserve">
<style type="text/css">
	.st0{fill:#0098EB;}
	.st1{fill:url(#SVGID_1_);}
	.st2{fill:url(#SVGID_00000008828942592785594170000013525567109941788306_);}
	.st3{fill:#5286C1;}
	.st4{fill:#EB0000;}
	.st5{fill:#5FCB01;}
</style>
<g id="Layer_1-2">
	<g>
		<g>
			<path class="st0" d="M60.6,8.7h20.8c0.3,0,0.5-0.2,0.5-0.5s-0.2-0.5-0.5-0.5H60.6c-0.3,0-0.5,0.2-0.5,0.5
				C60.1,8.5,60.4,8.7,60.6,8.7z"/>
			<path class="st0" d="M60.6,12.6h20.8c0.3,0,0.5-0.2,0.5-0.5s-0.2-0.5-0.5-0.5H60.6c-0.3,0-0.5,0.2-0.5,0.5S60.4,12.6,60.6,12.6z"
				/>
			<path class="st0" d="M99,8.7h20.8c0.3,0,0.5-0.2,0.5-0.5s-0.2-0.5-0.5-0.5H99c-0.3,0-0.5,0.2-0.5,0.5C98.5,8.5,98.8,8.7,99,8.7z"
				/>
			<path class="st0" d="M60.6,16.4h20.8c0.3,0,0.5-0.2,0.5-0.5s-0.2-0.5-0.5-0.5H60.6c-0.3,0-0.5,0.2-0.5,0.5
				C60.1,16.2,60.4,16.4,60.6,16.4z"/>
			<path class="st0" d="M60.6,20.2h20.8c0.3,0,0.5-0.2,0.5-0.5s-0.2-0.5-0.5-0.5H60.6c-0.3,0-0.5,0.2-0.5,0.5S60.4,20.2,60.6,20.2z"
				/>
			<path class="st0" d="M75.2,72H60.7c-0.3,0-0.5,0.2-0.5,0.5s0.2,0.5,0.5,0.5h14.5c0.3,0,0.5-0.2,0.5-0.5S75.4,72,75.2,72z"/>
			<path class="st0" d="M60.6,29.9h20.8c0.3,0,0.5-0.2,0.5-0.5s-0.2-0.5-0.5-0.5H60.6c-0.3,0-0.5,0.2-0.5,0.5S60.4,29.9,60.6,29.9z"
				/>
			<path class="st0" d="M107.7,19.8c0,0.3,0.2,0.5,0.5,0.5h59.2c0.3,0,0.5-0.2,0.5-0.5s-0.2-0.5-0.5-0.5h-59.2
				C107.9,19.3,107.7,19.5,107.7,19.8z"/>
			<path class="st0" d="M108.2,24.1h51.2c0.3,0,0.5-0.2,0.5-0.5s-0.2-0.5-0.5-0.5h-51.2c-0.3,0-0.5,0.2-0.5,0.5
				S107.9,24.1,108.2,24.1z"/>
			<path class="st0" d="M167.4,26.9h-59.2c-0.3,0-0.5,0.2-0.5,0.5s0.2,0.5,0.5,0.5h59.2c0.3,0,0.5-0.2,0.5-0.5
				S167.6,26.9,167.4,26.9z"/>
			<path class="st0" d="M108.2,31.8h42.7c0.3,0,0.5-0.2,0.5-0.5s-0.2-0.5-0.5-0.5h-42.7c-0.3,0-0.5,0.2-0.5,0.5
				S107.9,31.8,108.2,31.8z"/>
			<path class="st0" d="M167.4,40.2h-59.2c-0.3,0-0.5,0.2-0.5,0.5s0.2,0.5,0.5,0.5h59.2c0.3,0,0.5-0.2,0.5-0.5
				S167.6,40.2,167.4,40.2z"/>
			<path class="st0" d="M167.4,44h-59.2c-0.3,0-0.5,0.2-0.5,0.5s0.2,0.5,0.5,0.5h59.2c0.3,0,0.5-0.2,0.5-0.5S167.6,44,167.4,44z"/>
			<path class="st0" d="M167.4,83.7h-59.2c-0.3,0-0.5,0.2-0.5,0.5s0.2,0.5,0.5,0.5h59.2c0.3,0,0.5-0.2,0.5-0.5
				S167.6,83.7,167.4,83.7z"/>
			<path class="st0" d="M159.4,87.6h-51.2c-0.3,0-0.5,0.2-0.5,0.5s0.2,0.5,0.5,0.5h51.2c0.3,0,0.5-0.2,0.5-0.5
				S159.6,87.6,159.4,87.6z"/>
			<path class="st0" d="M126.4,11.6V0H54v47H7.2c-4,0-7.2,3.2-7.2,7.2V62c0,4,3.2,7.2,7.2,7.2H54v13.3h47.6V96H174V11.6H126.4z
				 M55,1h70.4v10.6h-23.9v9.7H83.9v11.4H60.6c-0.3,0-0.5,0.2-0.5,0.5s0.2,0.5,0.5,0.5h23.2v2.8H60.6c-0.3,0-0.5,0.2-0.5,0.5
				s0.2,0.5,0.5,0.5h23.2v2.8H60.6c-0.3,0-0.5,0.2-0.5,0.5s0.2,0.5,0.5,0.5h23.2V47H55V1z M84.4,40.3h9.6c0.3,0,0.5,0.2,0.5,0.5
				s-0.2,0.5-0.5,0.5h-9.6c-0.3,0-0.5-0.2-0.5-0.5S84.1,40.3,84.4,40.3z M83.9,81.5H55V69.1h28.9V81.5z M102.1,75.9
				c-0.3,0-0.5-0.2-0.5-0.5v-6.7c0-0.3,0.2-0.5,0.5-0.5H7.2C3.8,68.1,1,65.4,1,62v-7.8C1,50.8,3.8,48,7.2,48h117.9
				c3.4,0,6.2,2.8,6.2,6.2V62c0,3.4-2.8,6.2-6.2,6.2h-23c0.3,0,0.5,0.2,0.5,0.5v6.7C102.6,75.7,102.3,75.9,102.1,75.9z M137.5,71
				h-28.8v4.5c0,0.3-0.2,0.5-0.5,0.5s-0.5-0.2-0.5-0.5V70h29.8c0.3,0,0.5,0.2,0.5,0.5S137.8,71,137.5,71z M166.8,71v8.9h-58.2v-4
				h22.4c3.2,0,5.9-2.1,6.8-4.9H166.8L166.8,71z M173,95h-70.4V75.9h5.1v5h60.2V70h-29.7c0.1-0.4,0.1-0.8,0.1-1.3V61
				c0-3.5-2.6-6.5-6-7.1c-0.2-3.8-3.3-6.8-7.2-6.8h-22.5V37c0,0.3-0.2,0.5-0.5,0.5H84.3c-0.3,0-0.5-0.2-0.5-0.5s0.2-0.5,0.5-0.5H102
				c0.3,0,0.5,0.2,0.5,0.5v-3.8c0,0.3-0.2,0.5-0.5,0.5H84.3c-0.3,0-0.5-0.2-0.5-0.5s0.2-0.5,0.5-0.5H102c0.3,0,0.5,0.2,0.5,0.5V12.6
				H173L173,95L173,95z"/>
		</g>
		<g>
			
				<linearGradient id="SVGID_1_" gradientUnits="userSpaceOnUse" x1="94.575" y1="-1700.65" x2="94.575" y2="-1694.7899" gradientTransform="matrix(1 0 0 -1 0 -1685.85)">
				<stop  offset="0" style="stop-color:#568BC4"/>
				<stop  offset="0.19" style="stop-color:#6A9FD0"/>
				<stop  offset="0.42" style="stop-color:#7BAFDA"/>
				<stop  offset="0.68" style="stop-color:#85B9E0"/>
				<stop  offset="1" style="stop-color:#88BCE2"/>
			</linearGradient>
			<path class="st1" d="M93.2,8.9v1c0.9,0.1,1.6,0.9,1.6,1.9s-0.7,1.8-1.6,1.9v1c1.5-0.1,2.7-1.4,2.7-2.9S94.7,9.1,93.2,8.9z"/>
			
				<linearGradient id="SVGID_00000100343545229933526190000011624182369070551946_" gradientUnits="userSpaceOnUse" x1="91.355" y1="-1700.65" x2="91.355" y2="-1694.79" gradientTransform="matrix(1 0 0 -1 0 -1685.85)">
				<stop  offset="0" style="stop-color:#5BAC2A"/>
				<stop  offset="8.000000e-02" style="stop-color:#65B036"/>
				<stop  offset="0.28" style="stop-color:#79B94E"/>
				<stop  offset="0.49" style="stop-color:#88BE5F"/>
				<stop  offset="0.72" style="stop-color:#90C269"/>
				<stop  offset="1" style="stop-color:#93C36C"/>
			</linearGradient>
			<path style="fill:url(#SVGID_00000100343545229933526190000011624182369070551946_);" d="M92.7,13.8c-0.9-0.1-1.6-0.9-1.6-1.9
				s0.7-1.8,1.6-1.9v-1c-1.5,0.1-2.7,1.4-2.7,2.9s1.2,2.8,2.7,2.9V13.8z"/>
			<path class="st3" d="M95.9,15.9h-5.8c-0.6,0-1.1-0.5-1.1-1.1V9c0-0.6,0.5-1.1,1.1-1.1h5.8C96.5,7.9,97,8.4,97,9v5.8
				C97,15.4,96.5,15.9,95.9,15.9L95.9,15.9z M90.1,8.1c-0.5,0-0.9,0.4-0.9,0.9v5.8c0,0.5,0.4,0.9,0.9,0.9h5.8c0.5,0,0.9-0.4,0.9-0.9
				V9c0-0.5-0.4-0.9-0.9-0.9C95.9,8.1,90.1,8.1,90.1,8.1z"/>
		</g>
		<path class="st4" d="M144.9,51.3h20.5c1.1,0,2,0.9,2,2v9.5c0,1.1-0.9,2-2,2h-20.5c-1.1,0-2-0.9-2-2v-9.5
			C142.9,52.2,143.8,51.3,144.9,51.3z"/>
		<rect x="142.9" y="55.2" class="st0" width="24.4" height="5.8"/>
		<path class="st5" d="M9.7,60.9c-0.1,0-0.2,0-0.4-0.1l-2.5-2.5c-0.2-0.2-0.2-0.5,0-0.7c0.2-0.2,0.5-0.2,0.7,0l2.2,2.2l4.4-4.3
			c0.2-0.2,0.5-0.2,0.7,0s0.2,0.5,0,0.7l-4.7,4.7C10,60.9,9.8,60.9,9.7,60.9L9.7,60.9z"/>
		<path class="st5" d="M22,60.9c-0.1,0-0.2,0-0.4-0.1l-2.5-2.5c-0.2-0.2-0.2-0.5,0-0.7c0.2-0.2,0.5-0.2,0.7,0l2.2,2.2l4.4-4.3
			c0.2-0.2,0.5-0.2,0.7,0s0.2,0.5,0,0.7l-4.7,4.7C22.2,60.9,22.1,60.9,22,60.9L22,60.9z"/>
		<path class="st5" d="M34.2,60.9c-0.1,0-0.2,0-0.3-0.1l-2.5-2.5c-0.2-0.2-0.2-0.5,0-0.7c0.2-0.2,0.5-0.2,0.7,0l2.2,2.2l4.3-4.3
			c0.2-0.2,0.5-0.2,0.7,0s0.2,0.5,0,0.7l-4.7,4.7C34.5,60.9,34.4,60.9,34.2,60.9L34.2,60.9z"/>
		<path class="st5" d="M46.5,60.9c-0.1,0-0.2,0-0.3-0.1l-2.5-2.5c-0.2-0.2-0.2-0.5,0-0.7c0.2-0.2,0.5-0.2,0.7,0l2.2,2.2l4.3-4.3
			c0.2-0.2,0.5-0.2,0.7,0s0.2,0.5,0,0.7l-4.7,4.7C46.8,60.9,46.6,60.9,46.5,60.9L46.5,60.9z"/>
		<path class="st5" d="M58.8,60.9c-0.1,0-0.2,0-0.3-0.1l-2.5-2.5c-0.2-0.2-0.2-0.5,0-0.7c0.2-0.2,0.5-0.2,0.7,0l2.2,2.2l4.3-4.3
			c0.2-0.2,0.5-0.2,0.7,0c0.2,0.2,0.2,0.5,0,0.7l-4.7,4.7C59.1,60.9,58.9,60.9,58.8,60.9L58.8,60.9z"/>
		<path class="st5" d="M71.1,60.9c-0.1,0-0.2,0-0.3-0.1l-2.5-2.5c-0.2-0.2-0.2-0.5,0-0.7c0.2-0.2,0.5-0.2,0.7,0l2.2,2.2l4.3-4.3
			c0.2-0.2,0.5-0.2,0.7,0s0.2,0.5,0,0.7l-4.7,4.7C71.3,60.9,71.2,60.9,71.1,60.9L71.1,60.9z"/>
		<path class="st5" d="M83.3,60.9c-0.1,0-0.2,0-0.3-0.1l-2.5-2.5c-0.2-0.2-0.2-0.5,0-0.7c0.2-0.2,0.5-0.2,0.7,0l2.2,2.2l4.3-4.3
			c0.2-0.2,0.5-0.2,0.7,0s0.2,0.5,0,0.7l-4.7,4.7C83.6,60.9,83.5,60.9,83.3,60.9L83.3,60.9z"/>
		<path class="st5" d="M95.6,60.9c-0.1,0-0.2,0-0.3-0.1l-2.5-2.5c-0.2-0.2-0.2-0.5,0-0.7c0.2-0.2,0.5-0.2,0.7,0l2.2,2.2l4.3-4.3
			c0.2-0.2,0.5-0.2,0.7,0s0.2,0.5,0,0.7L96,60.8C95.9,60.9,95.7,60.9,95.6,60.9L95.6,60.9z"/>
		<path class="st5" d="M107.9,60.9c-0.1,0-0.2,0-0.3-0.1l-2.5-2.5c-0.2-0.2-0.2-0.5,0-0.7c0.2-0.2,0.5-0.2,0.7,0l2.2,2.2l4.3-4.3
			c0.2-0.2,0.5-0.2,0.7,0s0.2,0.5,0,0.7l-4.7,4.7C108.1,60.9,108,60.9,107.9,60.9L107.9,60.9z"/>
		<path class="st5" d="M120.2,60.9c-0.1,0-0.2,0-0.3-0.1l-2.5-2.5c-0.2-0.2-0.2-0.5,0-0.7c0.2-0.2,0.5-0.2,0.7,0l2.2,2.2l4.3-4.3
			c0.2-0.2,0.5-0.2,0.7,0s0.2,0.5,0,0.7l-4.7,4.7C120.4,60.9,120.3,60.9,120.2,60.9L120.2,60.9z"/>
	</g>
</g>
</svg>
