<?xml version="1.0" encoding="utf-8"?>
<!-- Generator: Adobe Illustrator 27.9.0, SVG Export Plug-In . SVG Version: 6.00 Build 0)  -->
<svg version="1.0" id="Layer_1" xmlns="http://www.w3.org/2000/svg" xmlns:xlink="http://www.w3.org/1999/xlink" x="0px" y="0px"
	 viewBox="0 0 174 118" enable-background="new 0 0 174 118" xml:space="preserve">
<g>
	<path fill="#0077B6" d="M60.6,8.7h20.8c0.3,0,0.5-0.2,0.5-0.5s-0.2-0.5-0.5-0.5H60.6c-0.3,0-0.5,0.2-0.5,0.5S60.4,8.7,60.6,8.7z"/>
	<path fill="#0077B6" d="M60.6,12.5h20.8c0.3,0,0.5-0.2,0.5-0.5s-0.2-0.5-0.5-0.5H60.6c-0.3,0-0.5,0.2-0.5,0.5S60.4,12.5,60.6,12.5z
		"/>
	<path fill="#0077B6" d="M99,8.7h20.8c0.3,0,0.5-0.2,0.5-0.5s-0.2-0.5-0.5-0.5H99c-0.3,0-0.5,0.2-0.5,0.5S98.8,8.7,99,8.7z"/>
	<path fill="#0077B6" d="M99,12.5h20.8c0.3,0,0.5-0.2,0.5-0.5s-0.2-0.5-0.5-0.5H99c-0.3,0-0.5,0.2-0.5,0.5S98.8,12.5,99,12.5z"/>
	<path fill="#0077B6" d="M60.6,16.4h20.8c0.3,0,0.5-0.2,0.5-0.5s-0.2-0.5-0.5-0.5H60.6c-0.3,0-0.5,0.2-0.5,0.5S60.4,16.4,60.6,16.4z
		"/>
	<path fill="#0077B6" d="M60.6,20.2h20.8c0.3,0,0.5-0.2,0.5-0.5s-0.2-0.5-0.5-0.5H60.6c-0.3,0-0.5,0.2-0.5,0.5S60.4,20.2,60.6,20.2z
		"/>
	<path fill="#0077B6" d="M74.9,61.4H60.6c-0.3,0-0.5,0.2-0.5,0.5s0.2,0.5,0.5,0.5h14.3c0.3,0,0.5-0.2,0.5-0.5S75.2,61.4,74.9,61.4z"
		/>
	<path fill="#0077B6" d="M60.6,29.8h20.8c0.3,0,0.5-0.2,0.5-0.5s-0.2-0.5-0.5-0.5H60.6c-0.3,0-0.5,0.2-0.5,0.5S60.4,29.8,60.6,29.8z
		"/>
	<path fill="#0077B6" d="M107.7,38.8c0,0.3,0.2,0.5,0.5,0.5h59.2c0.3,0,0.5-0.2,0.5-0.5s-0.2-0.5-0.5-0.5h-59.2
		C107.9,38.3,107.7,38.5,107.7,38.8z"/>
	<path fill="#0077B6" d="M108.2,43.1h51.2c0.3,0,0.5-0.2,0.5-0.5s-0.2-0.5-0.5-0.5h-51.2c-0.3,0-0.5,0.2-0.5,0.5
		S107.9,43.1,108.2,43.1z"/>
	<path fill="#0077B6" d="M167.4,45.9h-59.2c-0.3,0-0.5,0.2-0.5,0.5s0.2,0.5,0.5,0.5h59.2c0.3,0,0.5-0.2,0.5-0.5
		S167.6,45.9,167.4,45.9z"/>
	<path fill="#0077B6" d="M108.2,50.8h42.7c0.3,0,0.5-0.2,0.5-0.5s-0.2-0.5-0.5-0.5h-42.7c-0.3,0-0.5,0.2-0.5,0.5
		S107.9,50.8,108.2,50.8z"/>
	<path fill="#0077B6" d="M167.4,59.4h-59.2c-0.3,0-0.5,0.2-0.5,0.5s0.2,0.5,0.5,0.5h59.2c0.3,0,0.5-0.2,0.5-0.5
		S167.6,59.4,167.4,59.4z"/>
	<path fill="#0077B6" d="M167.4,63.2h-59.2c-0.3,0-0.5,0.2-0.5,0.5s0.2,0.5,0.5,0.5h59.2c0.3,0,0.5-0.2,0.5-0.5
		S167.6,63.2,167.4,63.2z"/>
	<path fill="#0077B6" d="M167.4,105.8h-59.2c-0.3,0-0.5,0.2-0.5,0.5s0.2,0.5,0.5,0.5h59.2c0.3,0,0.5-0.2,0.5-0.5
		S167.6,105.8,167.4,105.8z"/>
	<path fill="#0077B6" d="M159.4,109.6h-51.2c-0.3,0-0.5,0.2-0.5,0.5s0.2,0.5,0.5,0.5h51.2c0.3,0,0.5-0.2,0.5-0.5
		S159.7,109.6,159.4,109.6z"/>
	<path fill="#0077B6" d="M105.4,78.6h2.4l-1.7,1.7c-0.2,0.2-0.2,0.5,0,0.7c0.1,0.1,0.2,0.1,0.4,0.1s0.3,0,0.4-0.1l1.7-1.7v2.4
		c0,0.3,0.2,0.5,0.5,0.5s0.5-0.2,0.5-0.5v-2.4l1.7,1.7c0.1,0.1,0.2,0.1,0.4,0.1s0.3,0,0.4-0.1c0.2-0.2,0.2-0.5,0-0.7l-1.7-1.7h2.4
		c0.3,0,0.5-0.2,0.5-0.5s-0.2-0.5-0.5-0.5h-2.4l1.7-1.7c0.2-0.2,0.2-0.5,0-0.7s-0.5-0.2-0.7,0l-1.7,1.7v-2.4c0-0.3-0.2-0.5-0.5-0.5
		s-0.5,0.2-0.5,0.5v2.4l-1.7-1.7c-0.2-0.2-0.5-0.2-0.7,0s-0.2,0.5,0,0.7l1.7,1.7h-2.4c-0.3,0-0.5,0.2-0.5,0.5S105.1,78.6,105.4,78.6
		z"/>
	<path fill="#0077B6" d="M100.3,77.6h-2.4l1.7-1.7c0.2-0.2,0.2-0.5,0-0.7s-0.5-0.2-0.7,0l-1.7,1.7v-2.4c0-0.3-0.2-0.5-0.5-0.5
		s-0.5,0.2-0.5,0.5v2.4l-1.7-1.7c-0.2-0.2-0.5-0.2-0.7,0s-0.2,0.5,0,0.7l1.7,1.7h-2.4c-0.3,0-0.5,0.2-0.5,0.5s0.2,0.5,0.5,0.5h2.4
		l-1.7,1.7c-0.2,0.2-0.2,0.5,0,0.7c0.1,0.1,0.2,0.1,0.4,0.1s0.3,0,0.4-0.1l1.7-1.7v2.4c0,0.3,0.2,0.5,0.5,0.5s0.5-0.2,0.5-0.5v-2.4
		l1.7,1.7c0.1,0.1,0.2,0.1,0.4,0.1s0.3,0,0.4-0.1c0.2-0.2,0.2-0.5,0-0.7l-1.7-1.7h2.4c0.3,0,0.5-0.2,0.5-0.5S100.6,77.6,100.3,77.6z
		"/>
	<path fill="#0077B6" d="M117.6,78.6h2.4l-1.7,1.7c-0.2,0.2-0.2,0.5,0,0.7c0.1,0.1,0.2,0.1,0.4,0.1s0.3,0,0.4-0.1l1.7-1.7v2.4
		c0,0.3,0.2,0.5,0.5,0.5s0.5-0.2,0.5-0.5v-2.4l1.7,1.7c0.1,0.1,0.2,0.1,0.4,0.1s0.3,0,0.4-0.1c0.2-0.2,0.2-0.5,0-0.7l-1.7-1.7h2.4
		c0.3,0,0.5-0.2,0.5-0.5s-0.2-0.5-0.5-0.5h-2.4l1.7-1.7c0.2-0.2,0.2-0.5,0-0.7s-0.5-0.2-0.7,0l-1.7,1.7v-2.4c0-0.3-0.2-0.5-0.5-0.5
		s-0.5,0.2-0.5,0.5v2.4l-1.7-1.7c-0.2-0.2-0.5-0.2-0.7,0s-0.2,0.5,0,0.7l1.7,1.7h-2.4c-0.3,0-0.5,0.2-0.5,0.5S117.4,78.6,117.6,78.6
		z"/>
	<path fill="#0077B6" d="M88,77.6h-2.4l1.7-1.7c0.2-0.2,0.2-0.5,0-0.7s-0.5-0.2-0.7,0l-1.7,1.7v-2.4c0-0.3-0.2-0.5-0.5-0.5
		s-0.5,0.2-0.5,0.5v2.4l-1.7-1.7c-0.2-0.2-0.5-0.2-0.7,0s-0.2,0.5,0,0.7l1.7,1.7h-2.4c-0.3,0-0.5,0.2-0.5,0.5s0.2,0.5,0.5,0.5h2.4
		l-1.7,1.7c-0.2,0.2-0.2,0.5,0,0.7c0.1,0.1,0.2,0.1,0.4,0.1s0.3,0,0.4-0.1l1.7-1.7v2.4c0,0.3,0.2,0.5,0.5,0.5s0.5-0.2,0.5-0.5v-2.4
		l1.7,1.7c0.1,0.1,0.2,0.1,0.4,0.1s0.3,0,0.4-0.1c0.2-0.2,0.2-0.5,0-0.7l-1.7-1.7H88c0.3,0,0.5-0.2,0.5-0.5S88.3,77.6,88,77.6z"/>
	<path fill="#0077B6" d="M75.8,77.6h-2.4l1.7-1.7c0.2-0.2,0.2-0.5,0-0.7s-0.5-0.2-0.7,0l-1.7,1.7v-2.4c0-0.3-0.2-0.5-0.5-0.5
		s-0.5,0.2-0.5,0.5v2.4l-1.7-1.7c-0.2-0.2-0.5-0.2-0.7,0s-0.2,0.5,0,0.7l1.7,1.7h-2.4c-0.3,0-0.5,0.2-0.5,0.5s0.2,0.5,0.5,0.5h2.4
		l-1.7,1.7c-0.2,0.2-0.2,0.5,0,0.7c0.1,0.1,0.2,0.1,0.4,0.1s0.3,0,0.4-0.1l1.7-1.7v2.4c0,0.3,0.2,0.5,0.5,0.5s0.5-0.2,0.5-0.5v-2.4
		l1.7,1.7c0.1,0.1,0.2,0.1,0.4,0.1s0.3,0,0.4-0.1c0.2-0.2,0.2-0.5,0-0.7l-1.7-1.7h2.4c0.3,0,0.5-0.2,0.5-0.5S76,77.6,75.8,77.6z"/>
	<path fill="#0077B6" d="M51.2,77.6h-2.4l1.7-1.7c0.2-0.2,0.2-0.5,0-0.7s-0.5-0.2-0.7,0l-1.7,1.7v-2.4c0-0.3-0.2-0.5-0.5-0.5
		s-0.5,0.2-0.5,0.5v2.4l-1.7-1.7c-0.2-0.2-0.5-0.2-0.7,0s-0.2,0.5,0,0.7l1.7,1.7H44c-0.3,0-0.5,0.2-0.5,0.5s0.2,0.5,0.5,0.5h2.4
		l-1.7,1.7c-0.2,0.2-0.2,0.5,0,0.7c0.1,0.1,0.2,0.1,0.4,0.1s0.3,0,0.4-0.1l1.7-1.7v2.4c0,0.3,0.2,0.5,0.5,0.5s0.5-0.2,0.5-0.5v-2.4
		l1.7,1.7c0.1,0.1,0.2,0.1,0.4,0.1s0.3,0,0.4-0.1c0.2-0.2,0.2-0.5,0-0.7l-1.7-1.7h2.4c0.3,0,0.5-0.2,0.5-0.5S51.5,77.6,51.2,77.6z"
		/>
	<path fill="#0077B6" d="M38.9,77.6h-2.4l1.7-1.7c0.2-0.2,0.2-0.5,0-0.7s-0.5-0.2-0.7,0l-1.7,1.7v-2.4c0-0.3-0.2-0.5-0.5-0.5
		s-0.5,0.2-0.5,0.5v2.4l-1.7-1.7c-0.2-0.2-0.5-0.2-0.7,0s-0.2,0.5,0,0.7l1.7,1.7h-2.4c-0.3,0-0.5,0.2-0.5,0.5s0.2,0.5,0.5,0.5h2.4
		l-1.7,1.7c-0.2,0.2-0.2,0.5,0,0.7c0.1,0.1,0.2,0.1,0.4,0.1s0.3,0,0.4-0.1l1.7-1.7v2.4c0,0.3,0.2,0.5,0.5,0.5s0.5-0.2,0.5-0.5v-2.4
		l1.7,1.7c0.1,0.1,0.2,0.1,0.4,0.1s0.3,0,0.4-0.1c0.2-0.2,0.2-0.5,0-0.7l-1.7-1.7h2.4c0.3,0,0.5-0.2,0.5-0.5S39.2,77.6,38.9,77.6z"
		/>
	<path fill="#0077B6" d="M63.5,77.6h-2.4l1.7-1.7c0.2-0.2,0.2-0.5,0-0.7s-0.5-0.2-0.7,0l-1.7,1.7v-2.4c0-0.3-0.2-0.5-0.5-0.5
		s-0.5,0.2-0.5,0.5v2.4l-1.7-1.7c-0.2-0.2-0.5-0.2-0.7,0s-0.2,0.5,0,0.7l1.7,1.7h-2.4c-0.3,0-0.5,0.2-0.5,0.5s0.2,0.5,0.5,0.5h2.4
		L57,80.3c-0.2,0.2-0.2,0.5,0,0.7c0.1,0.1,0.2,0.1,0.4,0.1s0.3,0,0.4-0.1l1.7-1.7v2.4c0,0.3,0.2,0.5,0.5,0.5s0.5-0.2,0.5-0.5v-2.4
		l1.7,1.7c0.1,0.1,0.2,0.1,0.4,0.1s0.3,0,0.4-0.1c0.2-0.2,0.2-0.5,0-0.7l-1.7-1.7h2.4c0.3,0,0.5-0.2,0.5-0.5S63.8,77.6,63.5,77.6z"
		/>
	<path fill="#0077B6" d="M26.7,77.6h-2.4l1.7-1.7c0.2-0.2,0.2-0.5,0-0.7s-0.5-0.2-0.7,0l-1.7,1.7v-2.4c0-0.3-0.2-0.5-0.5-0.5
		s-0.5,0.2-0.5,0.5v2.4l-1.7-1.7c-0.2-0.2-0.5-0.2-0.7,0s-0.2,0.5,0,0.7l1.7,1.7h-2.4c-0.3,0-0.5,0.2-0.5,0.5s0.2,0.5,0.5,0.5h2.4
		l-1.7,1.7c-0.2,0.2-0.2,0.5,0,0.7c0.1,0.1,0.2,0.1,0.4,0.1s0.3,0,0.4-0.1l1.7-1.7v2.4c0,0.3,0.2,0.5,0.5,0.5s0.5-0.2,0.5-0.5v-2.4
		l1.7,1.7c0.1,0.1,0.2,0.1,0.4,0.1s0.3,0,0.4-0.1c0.2-0.2,0.2-0.5,0-0.7l-1.7-1.7h2.4c0.3,0,0.5-0.2,0.5-0.5S26.9,77.6,26.7,77.6z"
		/>
	<path fill="#0077B6" d="M14.4,77.6H12l1.7-1.7c0.2-0.2,0.2-0.5,0-0.7s-0.5-0.2-0.7,0l-1.7,1.7v-2.4c0-0.3-0.2-0.5-0.5-0.5
		s-0.5,0.2-0.5,0.5v2.4l-1.7-1.7c-0.2-0.2-0.5-0.2-0.7,0s-0.2,0.5,0,0.7l1.7,1.7H7.2c-0.3,0-0.5,0.2-0.5,0.5s0.2,0.5,0.5,0.5h2.4
		l-1.7,1.7c-0.2,0.2-0.2,0.5,0,0.7c0.1,0.1,0.2,0.1,0.4,0.1s0.3,0,0.4-0.1l1.7-1.7v2.4c0,0.3,0.2,0.5,0.5,0.5s0.5-0.2,0.5-0.5v-2.4
		L13,81c0.1,0.1,0.2,0.1,0.4,0.1s0.3,0,0.4-0.1c0.2-0.2,0.2-0.5,0-0.7L12,78.6h2.4c0.3,0,0.5-0.2,0.5-0.5S14.7,77.6,14.4,77.6z"/>
	<path fill="#0077B6" d="M126.4,30.6v-6.9V0H54v67H7.2c-4,0-7.2,3.2-7.2,7.2V82c0,4,3.2,7.2,7.2,7.2h94.4v6.7V118H174V30.6H126.4z
		 M55,1h70.4v22.7H83.9v9H60.6c-0.3,0-0.5,0.2-0.5,0.5s0.2,0.5,0.5,0.5h23.2v2.8H60.6c-0.3,0-0.5,0.2-0.5,0.5s0.2,0.5,0.5,0.5h23.2
		v2.8H60.6c-0.3,0-0.5,0.2-0.5,0.5s0.2,0.5,0.5,0.5h23.2V50H60.6c-0.3,0-0.5,0.2-0.5,0.5s0.2,0.5,0.5,0.5h23.2v2.8H60.6
		c-0.3,0-0.5,0.2-0.5,0.5s0.2,0.5,0.5,0.5h23.2v2.8H60.6c-0.3,0-0.5,0.2-0.5,0.5s0.2,0.5,0.5,0.5h23.2V67H55V1z M84.4,40.3h9.6
		c0.3,0,0.5,0.2,0.5,0.5s-0.2,0.5-0.5,0.5h-9.6c-0.3,0-0.5-0.2-0.5-0.5S84.1,40.3,84.4,40.3z M7.2,88.2C3.8,88.2,1,85.4,1,82v-7.8
		C1,70.8,3.8,68,7.2,68h76.7h18.7h5.6h16.9c3.4,0,6.2,2.8,6.2,6.2V82c0,3.4-2.8,6.2-6.2,6.2h-23.5H7.2z M136.6,93h-27.9v2.4
		c0,0.3-0.2,0.5-0.5,0.5s-0.5-0.2-0.5-0.5V92h28.9c0.3,0,0.5,0.2,0.5,0.5S136.9,93,136.6,93z M166.9,93v8.9h-58.2v-6h22.4
		c2.4,0,4.4-1.1,5.8-2.9H166.9z M173,117h-70.4V95.9h5.1v7h60.2V92h-30.4c0.5-1,0.8-2.1,0.8-3.3V81c0-3.5-2.6-6.5-6-7.1
		c-0.1-2.5-1.5-4.6-3.5-5.8h30.6c0.3,0,0.5-0.2,0.5-0.5s-0.2-0.5-0.5-0.5h-34.3h-16.9h-5.6v-8.9c0,0.3-0.2,0.5-0.5,0.5H84.4
		c-0.3,0-0.5-0.2-0.5-0.5s0.2-0.5,0.5-0.5h17.7c0.3,0,0.5,0.2,0.5,0.5v-3.8c0,0.3-0.2,0.5-0.5,0.5H84.4c-0.3,0-0.5-0.2-0.5-0.5
		s0.2-0.5,0.5-0.5h17.7c0.3,0,0.5,0.2,0.5,0.5v-3.8c0,0.3-0.2,0.5-0.5,0.5H84.4c-0.3,0-0.5-0.2-0.5-0.5s0.2-0.5,0.5-0.5h17.7
		c0.3,0,0.5,0.2,0.5,0.5V37c0,0.3-0.2,0.5-0.5,0.5H84.4c-0.3,0-0.5-0.2-0.5-0.5s0.2-0.5,0.5-0.5h17.7c0.3,0,0.5,0.2,0.5,0.5v-3.8
		c0,0.3-0.2,0.5-0.5,0.5H84.4c-0.3,0-0.5-0.2-0.5-0.5s0.2-0.5,0.5-0.5h17.7c0.3,0,0.5,0.2,0.5,0.5v-1.6h23.9H173V117z"/>
</g>
<g>
	<g>
		<g>
			<g>
				<defs>
					<path id="SVGID_1_" d="M93.2,8.9v1c0.9,0.1,1.6,0.9,1.6,1.9s-0.7,1.8-1.6,1.9v1c1.5-0.1,2.7-1.4,2.7-2.9S94.7,9.1,93.2,8.9z"/>
				</defs>
				<clipPath id="SVGID_00000110437523022412135710000001770599587635294625_">
					<use xlink:href="#SVGID_1_"  overflow="visible"/>
				</clipPath>
				<path clip-path="url(#SVGID_00000110437523022412135710000001770599587635294625_)" fill="#568BC4" d="M93.2,14.8h2.7H93.2z"/>
				
					<rect x="93.2" y="14.7" clip-path="url(#SVGID_00000110437523022412135710000001770599587635294625_)" fill="#568BC4" width="2.7" height="0.1"/>
				
					<rect x="93.2" y="14.7" clip-path="url(#SVGID_00000110437523022412135710000001770599587635294625_)" fill="#578CC5" width="2.7" height="0.1"/>
				
					<rect x="93.2" y="14.6" clip-path="url(#SVGID_00000110437523022412135710000001770599587635294625_)" fill="#588DC5" width="2.7" height="0.1"/>
				
					<rect x="93.2" y="14.6" clip-path="url(#SVGID_00000110437523022412135710000001770599587635294625_)" fill="#598EC6" width="2.7" height="0.1"/>
				
					<rect x="93.2" y="14.5" clip-path="url(#SVGID_00000110437523022412135710000001770599587635294625_)" fill="#5A8FC7" width="2.7" height="0.1"/>
				
					<rect x="93.2" y="14.4" clip-path="url(#SVGID_00000110437523022412135710000001770599587635294625_)" fill="#5B90C7" width="2.7" height="0.1"/>
				
					<rect x="93.2" y="14.4" clip-path="url(#SVGID_00000110437523022412135710000001770599587635294625_)" fill="#5C91C8" width="2.7" height="0.1"/>
				
					<rect x="93.2" y="14.3" clip-path="url(#SVGID_00000110437523022412135710000001770599587635294625_)" fill="#5D92C8" width="2.7" height="0.1"/>
				
					<rect x="93.2" y="14.3" clip-path="url(#SVGID_00000110437523022412135710000001770599587635294625_)" fill="#5E93C9" width="2.7" height="0.1"/>
				
					<rect x="93.2" y="14.2" clip-path="url(#SVGID_00000110437523022412135710000001770599587635294625_)" fill="#5F94CA" width="2.7" height="0.1"/>
				
					<rect x="93.2" y="14.2" clip-path="url(#SVGID_00000110437523022412135710000001770599587635294625_)" fill="#6196CA" width="2.7" height="0.1"/>
				
					<rect x="93.2" y="14.1" clip-path="url(#SVGID_00000110437523022412135710000001770599587635294625_)" fill="#6297CB" width="2.7" height="0.1"/>
				
					<rect x="93.2" y="14.1" clip-path="url(#SVGID_00000110437523022412135710000001770599587635294625_)" fill="#6398CC" width="2.7" height="0.1"/>
				
					<rect x="93.2" y="14" clip-path="url(#SVGID_00000110437523022412135710000001770599587635294625_)" fill="#6499CC" width="2.7" height="0.1"/>
				
					<rect x="93.2" y="13.9" clip-path="url(#SVGID_00000110437523022412135710000001770599587635294625_)" fill="#659ACD" width="2.7" height="0.1"/>
				
					<rect x="93.2" y="13.9" clip-path="url(#SVGID_00000110437523022412135710000001770599587635294625_)" fill="#669BCD" width="2.7" height="0.1"/>
				
					<rect x="93.2" y="13.8" clip-path="url(#SVGID_00000110437523022412135710000001770599587635294625_)" fill="#679CCE" width="2.7" height="0.1"/>
				
					<rect x="93.2" y="13.8" clip-path="url(#SVGID_00000110437523022412135710000001770599587635294625_)" fill="#689DCF" width="2.7" height="0.1"/>
				
					<rect x="93.2" y="13.7" clip-path="url(#SVGID_00000110437523022412135710000001770599587635294625_)" fill="#699ECF" width="2.7" height="0.1"/>
				
					<rect x="93.2" y="13.7" clip-path="url(#SVGID_00000110437523022412135710000001770599587635294625_)" fill="#6A9FD0" width="2.7" height="0.1"/>
				
					<rect x="93.2" y="13.6" clip-path="url(#SVGID_00000110437523022412135710000001770599587635294625_)" fill="#6A9FD0" width="2.7" height="0.1"/>
				
					<rect x="93.2" y="13.5" clip-path="url(#SVGID_00000110437523022412135710000001770599587635294625_)" fill="#6BA0D1" width="2.7" height="0.1"/>
				
					<rect x="93.2" y="13.4" clip-path="url(#SVGID_00000110437523022412135710000001770599587635294625_)" fill="#6CA1D1" width="2.7" height="0.1"/>
				
					<rect x="93.2" y="13.3" clip-path="url(#SVGID_00000110437523022412135710000001770599587635294625_)" fill="#6DA2D2" width="2.7" height="0.1"/>
				
					<rect x="93.2" y="13.3" clip-path="url(#SVGID_00000110437523022412135710000001770599587635294625_)" fill="#6EA3D3" width="2.7" height="0.1"/>
				
					<rect x="93.2" y="13.2" clip-path="url(#SVGID_00000110437523022412135710000001770599587635294625_)" fill="#6FA4D3" width="2.7" height="0.1"/>
				
					<rect x="93.2" y="13.1" clip-path="url(#SVGID_00000110437523022412135710000001770599587635294625_)" fill="#70A5D4" width="2.7" height="0.1"/>
				
					<rect x="93.2" y="13" clip-path="url(#SVGID_00000110437523022412135710000001770599587635294625_)" fill="#71A6D4" width="2.7" height="0.1"/>
				
					<rect x="93.2" y="12.9" clip-path="url(#SVGID_00000110437523022412135710000001770599587635294625_)" fill="#73A7D5" width="2.7" height="0.1"/>
				
					<rect x="93.2" y="12.9" clip-path="url(#SVGID_00000110437523022412135710000001770599587635294625_)" fill="#74A8D6" width="2.7" height="0.1"/>
				
					<rect x="93.2" y="12.8" clip-path="url(#SVGID_00000110437523022412135710000001770599587635294625_)" fill="#75A9D6" width="2.7" height="0.1"/>
				
					<rect x="93.2" y="12.7" clip-path="url(#SVGID_00000110437523022412135710000001770599587635294625_)" fill="#76AAD7" width="2.7" height="0.1"/>
				
					<rect x="93.2" y="12.6" clip-path="url(#SVGID_00000110437523022412135710000001770599587635294625_)" fill="#77ABD8" width="2.7" height="0.1"/>
				
					<rect x="93.2" y="12.5" clip-path="url(#SVGID_00000110437523022412135710000001770599587635294625_)" fill="#78ACD8" width="2.7" height="0.1"/>
				
					<rect x="93.2" y="12.5" clip-path="url(#SVGID_00000110437523022412135710000001770599587635294625_)" fill="#79ADD9" width="2.7" height="0.1"/>
				
					<rect x="93.2" y="12.4" clip-path="url(#SVGID_00000110437523022412135710000001770599587635294625_)" fill="#7AAED9" width="2.7" height="0.1"/>
				
					<rect x="93.2" y="12.3" clip-path="url(#SVGID_00000110437523022412135710000001770599587635294625_)" fill="#7BAFDA" width="2.7" height="0.1"/>
				
					<rect x="93.2" y="12.1" clip-path="url(#SVGID_00000110437523022412135710000001770599587635294625_)" fill="#7BAFDA" width="2.7" height="0.2"/>
				
					<rect x="93.2" y="12" clip-path="url(#SVGID_00000110437523022412135710000001770599587635294625_)" fill="#7CB0DB" width="2.7" height="0.2"/>
				
					<rect x="93.2" y="11.8" clip-path="url(#SVGID_00000110437523022412135710000001770599587635294625_)" fill="#7DB1DB" width="2.7" height="0.2"/>
				
					<rect x="93.2" y="11.7" clip-path="url(#SVGID_00000110437523022412135710000001770599587635294625_)" fill="#7EB2DC" width="2.7" height="0.2"/>
				
					<rect x="93.2" y="11.5" clip-path="url(#SVGID_00000110437523022412135710000001770599587635294625_)" fill="#7FB3DD" width="2.7" height="0.2"/>
				
					<rect x="93.2" y="11.4" clip-path="url(#SVGID_00000110437523022412135710000001770599587635294625_)" fill="#81B5DD" width="2.7" height="0.2"/>
				
					<rect x="93.2" y="11.2" clip-path="url(#SVGID_00000110437523022412135710000001770599587635294625_)" fill="#82B6DE" width="2.7" height="0.2"/>
				
					<rect x="93.2" y="11.1" clip-path="url(#SVGID_00000110437523022412135710000001770599587635294625_)" fill="#83B7DF" width="2.7" height="0.2"/>
				
					<rect x="93.2" y="10.9" clip-path="url(#SVGID_00000110437523022412135710000001770599587635294625_)" fill="#84B8DF" width="2.7" height="0.2"/>
				
					<rect x="93.2" y="10.8" clip-path="url(#SVGID_00000110437523022412135710000001770599587635294625_)" fill="#85B9E0" width="2.7" height="0.2"/>
				
					<rect x="93.2" y="10.2" clip-path="url(#SVGID_00000110437523022412135710000001770599587635294625_)" fill="#85B9E0" width="2.7" height="0.6"/>
				
					<rect x="93.2" y="9.5" clip-path="url(#SVGID_00000110437523022412135710000001770599587635294625_)" fill="#87BBE1" width="2.7" height="0.6"/>
				
					<rect x="93.2" y="8.9" clip-path="url(#SVGID_00000110437523022412135710000001770599587635294625_)" fill="#88BCE2" width="2.7" height="0.6"/>
				<path clip-path="url(#SVGID_00000110437523022412135710000001770599587635294625_)" fill="#88BCE2" d="M95.9,8.9h-2.7H95.9z"/>
			</g>
		</g>
	</g>
	<g>
		<g>
			<g>
				<defs>
					<path id="SVGID_00000026882812423948348690000001277647486618269366_" d="M92.7,13.7c-0.9-0.1-1.6-0.9-1.6-1.9s0.7-1.8,1.6-1.9
						v-1c-1.5,0.1-2.7,1.4-2.7,2.9s1.2,2.8,2.7,2.9V13.7z"/>
				</defs>
				<clipPath id="SVGID_00000107555103887651698120000013452328114912230797_">
					<use xlink:href="#SVGID_00000026882812423948348690000001277647486618269366_"  overflow="visible"/>
				</clipPath>
				<path clip-path="url(#SVGID_00000107555103887651698120000013452328114912230797_)" fill="#5BAC2A" d="M90,14.8h2.7H90z"/>
				
					<rect x="90" y="14.7" clip-path="url(#SVGID_00000107555103887651698120000013452328114912230797_)" fill="#5BAC2A" width="2.7" height="0"/>
				
					<rect x="90" y="14.7" clip-path="url(#SVGID_00000107555103887651698120000013452328114912230797_)" fill="#5CAC2B" width="2.7" height="0"/>
				
					<rect x="90" y="14.7" clip-path="url(#SVGID_00000107555103887651698120000013452328114912230797_)" fill="#5DAD2C" width="2.7" height="0"/>
				
					<rect x="90" y="14.6" clip-path="url(#SVGID_00000107555103887651698120000013452328114912230797_)" fill="#5EAD2D" width="2.7" height="0"/>
				
					<rect x="90" y="14.6" clip-path="url(#SVGID_00000107555103887651698120000013452328114912230797_)" fill="#5FAD2E" width="2.7" height="0"/>
				
					<rect x="90" y="14.5" clip-path="url(#SVGID_00000107555103887651698120000013452328114912230797_)" fill="#60AE2F" width="2.7" height="0"/>
				
					<rect x="90" y="14.5" clip-path="url(#SVGID_00000107555103887651698120000013452328114912230797_)" fill="#60AE31" width="2.7" height="0"/>
				
					<rect x="90" y="14.5" clip-path="url(#SVGID_00000107555103887651698120000013452328114912230797_)" fill="#61AF32" width="2.7" height="0"/>
				
					<rect x="90" y="14.4" clip-path="url(#SVGID_00000107555103887651698120000013452328114912230797_)" fill="#62AF33" width="2.7" height="0"/>
				
					<rect x="90" y="14.4" clip-path="url(#SVGID_00000107555103887651698120000013452328114912230797_)" fill="#63AF34" width="2.7" height="0"/>
				
					<rect x="90" y="14.3" clip-path="url(#SVGID_00000107555103887651698120000013452328114912230797_)" fill="#64B035" width="2.7" height="0"/>
				
					<rect x="90" y="14.3" clip-path="url(#SVGID_00000107555103887651698120000013452328114912230797_)" fill="#65B036" width="2.7" height="0"/>
				
					<rect x="90" y="14.3" clip-path="url(#SVGID_00000107555103887651698120000013452328114912230797_)" fill="#65B036" width="2.7" height="0"/>
				
					<rect x="90" y="14.2" clip-path="url(#SVGID_00000107555103887651698120000013452328114912230797_)" fill="#66B037" width="2.7" height="0"/>
				
					<rect x="90" y="14.2" clip-path="url(#SVGID_00000107555103887651698120000013452328114912230797_)" fill="#67B138" width="2.7" height="0"/>
				
					<rect x="90" y="14.1" clip-path="url(#SVGID_00000107555103887651698120000013452328114912230797_)" fill="#68B139" width="2.7" height="0"/>
				
					<rect x="90" y="14.1" clip-path="url(#SVGID_00000107555103887651698120000013452328114912230797_)" fill="#68B23A" width="2.7" height="0"/>
				
					<rect x="90" y="14" clip-path="url(#SVGID_00000107555103887651698120000013452328114912230797_)" fill="#69B23B" width="2.7" height="0"/>
				
					<rect x="90" y="14" clip-path="url(#SVGID_00000107555103887651698120000013452328114912230797_)" fill="#6AB23C" width="2.7" height="0"/>
				
					<rect x="90" y="13.9" clip-path="url(#SVGID_00000107555103887651698120000013452328114912230797_)" fill="#6BB33D" width="2.7" height="0"/>
				
					<rect x="90" y="13.9" clip-path="url(#SVGID_00000107555103887651698120000013452328114912230797_)" fill="#6CB33E" width="2.7" height="0"/>
				
					<rect x="90" y="13.8" clip-path="url(#SVGID_00000107555103887651698120000013452328114912230797_)" fill="#6DB43F" width="2.7" height="0"/>
				
					<rect x="90" y="13.8" clip-path="url(#SVGID_00000107555103887651698120000013452328114912230797_)" fill="#6EB440" width="2.7" height="0"/>
				
					<rect x="90" y="13.7" clip-path="url(#SVGID_00000107555103887651698120000013452328114912230797_)" fill="#6FB441" width="2.7" height="0"/>
				
					<rect x="90" y="13.7" clip-path="url(#SVGID_00000107555103887651698120000013452328114912230797_)" fill="#6FB543" width="2.7" height="0"/>
				
					<rect x="90" y="13.6" clip-path="url(#SVGID_00000107555103887651698120000013452328114912230797_)" fill="#70B544" width="2.7" height="0"/>
				
					<rect x="90" y="13.6" clip-path="url(#SVGID_00000107555103887651698120000013452328114912230797_)" fill="#71B545" width="2.7" height="0"/>
				
					<rect x="90" y="13.5" clip-path="url(#SVGID_00000107555103887651698120000013452328114912230797_)" fill="#72B646" width="2.7" height="0"/>
				
					<rect x="90" y="13.5" clip-path="url(#SVGID_00000107555103887651698120000013452328114912230797_)" fill="#73B647" width="2.7" height="0"/>
				
					<rect x="90" y="13.4" clip-path="url(#SVGID_00000107555103887651698120000013452328114912230797_)" fill="#74B748" width="2.7" height="0"/>
				
					<rect x="90" y="13.4" clip-path="url(#SVGID_00000107555103887651698120000013452328114912230797_)" fill="#75B749" width="2.7" height="0"/>
				
					<rect x="90" y="13.3" clip-path="url(#SVGID_00000107555103887651698120000013452328114912230797_)" fill="#76B74A" width="2.7" height="0"/>
				
					<rect x="90" y="13.3" clip-path="url(#SVGID_00000107555103887651698120000013452328114912230797_)" fill="#76B84B" width="2.7" height="0"/>
				
					<rect x="90" y="13.2" clip-path="url(#SVGID_00000107555103887651698120000013452328114912230797_)" fill="#77B84C" width="2.7" height="0"/>
				
					<rect x="90" y="13.2" clip-path="url(#SVGID_00000107555103887651698120000013452328114912230797_)" fill="#78B94D" width="2.7" height="0"/>
				
					<rect x="90" y="13.1" clip-path="url(#SVGID_00000107555103887651698120000013452328114912230797_)" fill="#79B94E" width="2.7" height="0"/>
				
					<rect x="90" y="13.1" clip-path="url(#SVGID_00000107555103887651698120000013452328114912230797_)" fill="#79B94E" width="2.7" height="0.1"/>
				
					<rect x="90" y="13" clip-path="url(#SVGID_00000107555103887651698120000013452328114912230797_)" fill="#7AB94F" width="2.7" height="0.1"/>
				
					<rect x="90" y="12.9" clip-path="url(#SVGID_00000107555103887651698120000013452328114912230797_)" fill="#7BBA50" width="2.7" height="0.1"/>
				
					<rect x="90" y="12.9" clip-path="url(#SVGID_00000107555103887651698120000013452328114912230797_)" fill="#7CBA51" width="2.7" height="0.1"/>
				
					<rect x="90" y="12.8" clip-path="url(#SVGID_00000107555103887651698120000013452328114912230797_)" fill="#7DBA52" width="2.7" height="0.1"/>
				
					<rect x="90" y="12.7" clip-path="url(#SVGID_00000107555103887651698120000013452328114912230797_)" fill="#7EBB53" width="2.7" height="0.1"/>
				
					<rect x="90" y="12.6" clip-path="url(#SVGID_00000107555103887651698120000013452328114912230797_)" fill="#7FBB54" width="2.7" height="0.1"/>
				
					<rect x="90" y="12.6" clip-path="url(#SVGID_00000107555103887651698120000013452328114912230797_)" fill="#80BB55" width="2.7" height="0.1"/>
				
					<rect x="90" y="12.5" clip-path="url(#SVGID_00000107555103887651698120000013452328114912230797_)" fill="#81BC57" width="2.7" height="0.1"/>
				
					<rect x="90" y="12.4" clip-path="url(#SVGID_00000107555103887651698120000013452328114912230797_)" fill="#81BC58" width="2.7" height="0.1"/>
				
					<rect x="90" y="12.4" clip-path="url(#SVGID_00000107555103887651698120000013452328114912230797_)" fill="#82BC59" width="2.7" height="0.1"/>
				
					<rect x="90" y="12.3" clip-path="url(#SVGID_00000107555103887651698120000013452328114912230797_)" fill="#83BC5A" width="2.7" height="0.1"/>
				
					<rect x="90" y="12.2" clip-path="url(#SVGID_00000107555103887651698120000013452328114912230797_)" fill="#84BD5B" width="2.7" height="0.1"/>
				
					<rect x="90" y="12.1" clip-path="url(#SVGID_00000107555103887651698120000013452328114912230797_)" fill="#85BD5C" width="2.7" height="0.1"/>
				
					<rect x="90" y="12.1" clip-path="url(#SVGID_00000107555103887651698120000013452328114912230797_)" fill="#86BD5D" width="2.7" height="0.1"/>
				
					<rect x="90" y="12" clip-path="url(#SVGID_00000107555103887651698120000013452328114912230797_)" fill="#87BE5E" width="2.7" height="0.1"/>
				
					<rect x="90" y="11.9" clip-path="url(#SVGID_00000107555103887651698120000013452328114912230797_)" fill="#88BE5F" width="2.7" height="0.1"/>
				
					<rect x="90" y="11.8" clip-path="url(#SVGID_00000107555103887651698120000013452328114912230797_)" fill="#88BE5F" width="2.7" height="0.1"/>
				
					<rect x="90" y="11.7" clip-path="url(#SVGID_00000107555103887651698120000013452328114912230797_)" fill="#89BE60" width="2.7" height="0.1"/>
				
					<rect x="90" y="11.5" clip-path="url(#SVGID_00000107555103887651698120000013452328114912230797_)" fill="#8ABF61" width="2.7" height="0.1"/>
				
					<rect x="90" y="11.4" clip-path="url(#SVGID_00000107555103887651698120000013452328114912230797_)" fill="#8BBF62" width="2.7" height="0.1"/>
				
					<rect x="90" y="11.3" clip-path="url(#SVGID_00000107555103887651698120000013452328114912230797_)" fill="#8CC063" width="2.7" height="0.1"/>
				
					<rect x="90" y="11.1" clip-path="url(#SVGID_00000107555103887651698120000013452328114912230797_)" fill="#8CC065" width="2.7" height="0.1"/>
				
					<rect x="90" y="11" clip-path="url(#SVGID_00000107555103887651698120000013452328114912230797_)" fill="#8DC166" width="2.7" height="0.1"/>
				
					<rect x="90" y="10.9" clip-path="url(#SVGID_00000107555103887651698120000013452328114912230797_)" fill="#8EC167" width="2.7" height="0.1"/>
				
					<rect x="90" y="10.7" clip-path="url(#SVGID_00000107555103887651698120000013452328114912230797_)" fill="#8FC268" width="2.7" height="0.1"/>
				
					<rect x="90" y="10.6" clip-path="url(#SVGID_00000107555103887651698120000013452328114912230797_)" fill="#90C269" width="2.7" height="0.1"/>
				
					<rect x="90" y="10" clip-path="url(#SVGID_00000107555103887651698120000013452328114912230797_)" fill="#90C269" width="2.7" height="0.6"/>
				
					<rect x="90" y="9.5" clip-path="url(#SVGID_00000107555103887651698120000013452328114912230797_)" fill="#92C36B" width="2.7" height="0.6"/>
				
					<rect x="90" y="8.9" clip-path="url(#SVGID_00000107555103887651698120000013452328114912230797_)" fill="#93C36C" width="2.7" height="0.6"/>
				<path clip-path="url(#SVGID_00000107555103887651698120000013452328114912230797_)" fill="#93C36C" d="M92.7,8.9H90H92.7z"/>
			</g>
		</g>
	</g>
	<g>
		<path fill="#5286C1" d="M95.9,15.9h-5.8c-0.6,0-1.1-0.5-1.1-1.1V8.9c0-0.6,0.5-1.1,1.1-1.1h5.8c0.6,0,1.1,0.5,1.1,1.1v5.8
			C97,15.4,96.5,15.9,95.9,15.9z M90.1,8.1c-0.5,0-0.9,0.4-0.9,0.9v5.8c0,0.5,0.4,0.9,0.9,0.9h5.8c0.5,0,0.9-0.4,0.9-0.9V8.9
			c0-0.5-0.4-0.9-0.9-0.9H90.1z"/>
	</g>
</g>
<g>
	<path fill="#EB0000" d="M165.4,84.8h-20.5c-1.1,0-2-0.9-2-2v-9.5c0-1.1,0.9-2,2-2h20.5c1.1,0,2,0.9,2,2v9.5
		C167.4,84,166.5,84.8,165.4,84.8z"/>
</g>
<g>
	<rect x="142.9" y="75.2" fill="#0077B6" width="24.4" height="5.8"/>
</g>
</svg>
