<?xml version="1.0" encoding="UTF-8"?>
<svg id="Layer_2" data-name="Layer 2" xmlns="http://www.w3.org/2000/svg" xmlns:xlink="http://www.w3.org/1999/xlink" viewBox="0 0 174 96">
  <defs>
    <style>
      .cls-1 {
        fill: url(#linear-gradient);
      }

      .cls-1, .cls-2, .cls-3, .cls-4, .cls-5, .cls-6 {
        stroke-width: 0px;
      }

      .cls-2 {
        fill: url(#linear-gradient-2);
      }

      .cls-3 {
        fill: #5286c1;
      }

      .cls-4 {
        fill: #3e8401;
      }

      .cls-5 {
        fill: #eb0000;
      }

      .cls-6 {
        fill: #0077b6;
      }
    </style>
    <linearGradient id="linear-gradient" x1="94.58" y1="1798.65" x2="94.58" y2="1792.79" gradientTransform="translate(0 -1783.85)" gradientUnits="userSpaceOnUse">
      <stop offset="0" stop-color="#568bc4"/>
      <stop offset=".19" stop-color="#6a9fd0"/>
      <stop offset=".42" stop-color="#7bafda"/>
      <stop offset=".68" stop-color="#85b9e0"/>
      <stop offset="1" stop-color="#88bce2"/>
    </linearGradient>
    <linearGradient id="linear-gradient-2" x1="91.36" y1="1798.65" x2="91.36" y2="1792.79" gradientTransform="translate(0 -1783.85)" gradientUnits="userSpaceOnUse">
      <stop offset="0" stop-color="#5bac2a"/>
      <stop offset=".08" stop-color="#65b036"/>
      <stop offset=".28" stop-color="#79b94e"/>
      <stop offset=".49" stop-color="#88be5f"/>
      <stop offset=".72" stop-color="#90c269"/>
      <stop offset="1" stop-color="#93c36c"/>
    </linearGradient>
  </defs>
  <g id="Layer_1-2" data-name="Layer 1">
    <g>
      <g>
        <path class="cls-6" d="m60.64,8.74h20.75c.28,0,.5-.22.5-.5s-.22-.5-.5-.5h-20.75c-.28,0-.5.22-.5.5s.22.5.5.5Z"/>
        <path class="cls-6" d="m60.64,12.56h20.75c.28,0,.5-.22.5-.5s-.22-.5-.5-.5h-20.75c-.28,0-.5.22-.5.5s.22.5.5.5Z"/>
        <path class="cls-6" d="m99.04,8.74h20.75c.28,0,.5-.22.5-.5s-.22-.5-.5-.5h-20.75c-.28,0-.5.22-.5.5s.22.5.5.5Z"/>
        <path class="cls-6" d="m60.64,16.39h20.75c.28,0,.5-.22.5-.5s-.22-.5-.5-.5h-20.75c-.28,0-.5.22-.5.5s.22.5.5.5Z"/>
        <path class="cls-6" d="m60.64,20.21h20.75c.28,0,.5-.22.5-.5s-.22-.5-.5-.5h-20.75c-.28,0-.5.22-.5.5s.22.5.5.5Z"/>
        <path class="cls-6" d="m75.16,71.96h-14.51c-.28,0-.5.22-.5.5s.22.5.5.5h14.51c.28,0,.5-.22.5-.5s-.22-.5-.5-.5Z"/>
        <path class="cls-6" d="m60.64,29.86h20.75c.28,0,.5-.22.5-.5s-.22-.5-.5-.5h-20.75c-.28,0-.5.22-.5.5s.22.5.5.5Z"/>
        <path class="cls-6" d="m107.7,19.78c0,.28.22.5.5.5h59.15c.28,0,.5-.22.5-.5s-.22-.5-.5-.5h-59.15c-.28,0-.5.22-.5.5Z"/>
        <path class="cls-6" d="m108.2,24.11h51.17c.28,0,.5-.22.5-.5s-.22-.5-.5-.5h-51.17c-.28,0-.5.22-.5.5s.22.5.5.5Z"/>
        <path class="cls-6" d="m167.36,26.93h-59.15c-.28,0-.5.22-.5.5s.22.5.5.5h59.15c.28,0,.5-.22.5-.5s-.22-.5-.5-.5Z"/>
        <path class="cls-6" d="m108.2,31.75h42.71c.28,0,.5-.22.5-.5s-.22-.5-.5-.5h-42.71c-.28,0-.5.22-.5.5s.22.5.5.5Z"/>
        <path class="cls-6" d="m167.36,40.22h-59.15c-.28,0-.5.22-.5.5s.22.5.5.5h59.15c.28,0,.5-.22.5-.5s-.22-.5-.5-.5Z"/>
        <path class="cls-6" d="m167.36,44.05h-59.15c-.28,0-.5.22-.5.5s.22.5.5.5h59.15c.28,0,.5-.22.5-.5s-.22-.5-.5-.5Z"/>
        <path class="cls-6" d="m167.36,83.73h-59.15c-.28,0-.5.22-.5.5s.22.5.5.5h59.15c.28,0,.5-.22.5-.5s-.22-.5-.5-.5Z"/>
        <path class="cls-6" d="m159.37,87.55h-51.17c-.28,0-.5.22-.5.5s.22.5.5.5h51.17c.28,0,.5-.22.5-.5s-.22-.5-.5-.5Z"/>
        <path class="cls-6" d="m126.44,11.55V0H54v47.02H7.18c-3.96,0-7.18,3.22-7.18,7.18v7.76c0,3.96,3.22,7.18,7.18,7.18h46.82v13.32h47.56v13.54h72.44V11.55h-47.56ZM55,1h70.44v10.55h-23.88v9.71h-17.7v11.43h-23.22c-.28,0-.5.22-.5.5s.22.5.5.5h23.22v2.82h-23.22c-.28,0-.5.22-.5.5s.22.5.5.5h23.22v2.82h-23.22c-.28,0-.5.22-.5.5s.22.5.5.5h23.22v5.69h-28.86V1Zm29.36,39.33h9.57c.28,0,.5.22.5.5s-.22.5-.5.5h-9.57c-.28,0-.5-.22-.5-.5s.22-.5.5-.5Zm-.5,41.13h-28.86v-12.32h28.86v12.32Zm18.2-5.58c-.28,0-.5-.22-.5-.5v-6.74c0-.28.22-.5.5-.5H7.18c-3.41,0-6.18-2.77-6.18-6.18v-7.76c0-3.41,2.77-6.18,6.18-6.18h117.92c3.41,0,6.18,2.77,6.18,6.18v7.76c0,3.41-2.77,6.18-6.18,6.18h-23.04c.28,0,.5.22.5.5v6.74c0,.28-.22.5-.5.5Zm35.46-4.91h-28.82v4.47c0,.28-.22.5-.5.5s-.5-.22-.5-.5v-5.47h29.82c.28,0,.5.22.5.5s-.22.5-.5.5Zm29.33,0v8.94h-58.15v-4.03h22.39c3.17,0,5.85-2.06,6.8-4.91h28.96Zm6.14,24.04h-70.44v-19.12h5.14v5.03h60.15v-10.94h-29.71c.07-.41.12-.83.12-1.26v-7.76c0-3.55-2.56-6.51-6.01-7.08-.18-3.8-3.32-6.84-7.16-6.84h-22.54v-10.02c0,.28-.22.5-.5.5h-17.7c-.28,0-.5-.22-.5-.5s.22-.5.5-.5h17.7c.28,0,.5.22.5.5v-3.82c0,.28-.22.5-.5.5h-17.7c-.28,0-.5-.22-.5-.5s.22-.5.5-.5h17.7c.28,0,.5.22.5.5V12.55h70.44v82.45Z"/>
      </g>
      <g>
        <path class="cls-1" d="m93.24,8.94v1.04c.92.13,1.64.93,1.64,1.89s-.71,1.76-1.64,1.89v1.04c1.5-.14,2.67-1.4,2.67-2.93s-1.17-2.79-2.67-2.93Z"/>
        <path class="cls-2" d="m92.69,13.77c-.92-.13-1.64-.93-1.64-1.89s.71-1.76,1.64-1.89v-1.04c-1.5.14-2.67,1.4-2.67,2.93s1.17,2.79,2.67,2.93v-1.04Z"/>
        <path class="cls-3" d="m95.87,15.89h-5.8c-.62,0-1.11-.5-1.11-1.11v-5.8c0-.62.5-1.11,1.11-1.11h5.81c.61,0,1.11.5,1.11,1.11v5.81c0,.61-.5,1.11-1.11,1.11Zm-5.8-7.79c-.49,0-.87.39-.87.87v5.81c0,.48.39.87.87.87h5.81c.48,0,.87-.39.87-.87v-5.81c0-.48-.39-.87-.87-.87h-5.81Z"/>
      </g>
      <rect class="cls-5" x="142.93" y="51.35" width="24.43" height="13.47" rx="1.97" ry="1.97"/>
      <rect class="cls-6" x="142.93" y="55.17" width="24.43" height="5.82"/>
      <path class="cls-4" d="m9.7,60.93c-.13,0-.25-.05-.35-.14l-2.52-2.5c-.2-.19-.2-.51,0-.71.19-.2.51-.2.71,0l2.17,2.15,4.35-4.35c.2-.2.51-.2.71,0s.2.51,0,.71l-4.7,4.7c-.1.1-.23.15-.35.15Z"/>
      <path class="cls-4" d="m21.97,60.93c-.13,0-.25-.05-.35-.14l-2.52-2.5c-.2-.19-.2-.51,0-.71.19-.2.51-.2.71,0l2.17,2.15,4.35-4.35c.2-.2.51-.2.71,0s.2.51,0,.71l-4.7,4.7c-.1.1-.23.15-.35.15Z"/>
      <path class="cls-4" d="m34.24,60.93c-.13,0-.25-.05-.35-.14l-2.52-2.5c-.2-.19-.2-.51,0-.71.19-.2.51-.2.71,0l2.17,2.15,4.35-4.35c.2-.2.51-.2.71,0s.2.51,0,.71l-4.7,4.7c-.1.1-.23.15-.35.15Z"/>
      <path class="cls-4" d="m46.51,60.93c-.13,0-.25-.05-.35-.14l-2.52-2.5c-.2-.19-.2-.51,0-.71.19-.2.51-.2.71,0l2.17,2.15,4.35-4.35c.2-.2.51-.2.71,0s.2.51,0,.71l-4.7,4.7c-.1.1-.23.15-.35.15Z"/>
      <path class="cls-4" d="m58.79,60.93c-.13,0-.25-.05-.35-.14l-2.52-2.5c-.2-.19-.2-.51,0-.71.19-.2.51-.2.71,0l2.17,2.15,4.35-4.35c.2-.2.51-.2.71,0s.2.51,0,.71l-4.7,4.7c-.1.1-.23.15-.35.15Z"/>
      <path class="cls-4" d="m71.06,60.93c-.13,0-.25-.05-.35-.14l-2.52-2.5c-.2-.19-.2-.51,0-.71.19-.2.51-.2.71,0l2.17,2.15,4.35-4.35c.2-.2.51-.2.71,0s.2.51,0,.71l-4.7,4.7c-.1.1-.23.15-.35.15Z"/>
      <path class="cls-4" d="m83.33,60.93c-.13,0-.25-.05-.35-.14l-2.52-2.5c-.2-.19-.2-.51,0-.71.19-.2.51-.2.71,0l2.17,2.15,4.35-4.35c.2-.2.51-.2.71,0s.2.51,0,.71l-4.7,4.7c-.1.1-.23.15-.35.15Z"/>
      <path class="cls-4" d="m95.6,60.93c-.13,0-.25-.05-.35-.14l-2.52-2.5c-.2-.19-.2-.51,0-.71.19-.2.51-.2.71,0l2.17,2.15,4.35-4.35c.2-.2.51-.2.71,0s.2.51,0,.71l-4.7,4.7c-.1.1-.23.15-.35.15Z"/>
      <path class="cls-4" d="m107.87,60.93c-.13,0-.25-.05-.35-.14l-2.52-2.5c-.2-.19-.2-.51,0-.71.19-.2.51-.2.71,0l2.17,2.15,4.35-4.35c.2-.2.51-.2.71,0s.2.51,0,.71l-4.7,4.7c-.1.1-.23.15-.35.15Z"/>
      <path class="cls-4" d="m120.15,60.93c-.13,0-.25-.05-.35-.14l-2.52-2.5c-.2-.19-.2-.51,0-.71.19-.2.51-.2.71,0l2.17,2.15,4.35-4.35c.2-.2.51-.2.71,0s.2.51,0,.71l-4.7,4.7c-.1.1-.23.15-.35.15Z"/>
    </g>
  </g>
</svg>