<?xml version="1.0" encoding="utf-8"?>
<!-- Generator: Adobe Illustrator 27.9.0, SVG Export Plug-In . SVG Version: 6.00 Build 0)  -->
<svg version="1.2" baseProfile="tiny" id="Layer_2_00000123427632949945700700000003569740925409782912_"
	 xmlns="http://www.w3.org/2000/svg" xmlns:xlink="http://www.w3.org/1999/xlink" x="0px" y="0px" viewBox="0 0 99 118"
	 overflow="visible" xml:space="preserve">
<g id="Layer_1-2">
	<path fill="#0077B6" d="M94.5,34V5.8H99V0H27.2v5.8h4.5V34c0,0.4,0,0.7,0,1.1c-3.4-2.8-7.7-4.4-12.3-4.4C8.7,30.7,0,39.4,0,50.1
		s8.7,19.4,19.4,19.4c9.5,0,17.5-6.9,19.1-16c0,0.1,0.1,0.1,0.1,0.2c0.3,0.3,0.5,0.7,0.8,1c0.1,0.2,0.2,0.3,0.4,0.4l0,0
		c0.1,0.1,0.2,0.2,0.3,0.3l0.2,0.2l0,0c1.2,1.2,2.4,2.4,3.8,3.4c-7.8,5.9-12.4,15.2-12.4,25v28.3h-4.5v5.8H99v-5.8h-4.5V83.9
		c0-9.8-4.6-19-12.4-25C89.9,53.1,94.5,43.8,94.5,34L94.5,34z M31.7,4.8h-3.5V1h52.7v3.8C80.9,4.8,31.7,4.8,31.7,4.8z M72.3,5.8v6.6
		H32.7V5.8H72.3z M13.4,52.2c0.2,0.2,0.3,0.5,0.1,0.7S13,53.1,12.8,53l-2.7-1.9c0.5,4.7,4.5,8.4,9.3,8.4c0.3,0,0.5,0.2,0.5,0.5
		s-0.2,0.5-0.5,0.5c-5.2,0-9.6-3.9-10.3-9l-1.7,2.4c-0.1,0.1-0.2,0.2-0.4,0.2c-0.1,0-0.2,0-0.3-0.1c-0.2-0.2-0.3-0.5-0.1-0.7l2.8-4
		L13.4,52.2L13.4,52.2z M25.5,48c-0.2-0.2-0.3-0.5-0.1-0.7s0.5-0.3,0.7-0.1l2.7,1.9c-0.5-4.7-4.5-8.4-9.3-8.4
		c-0.3,0-0.5-0.2-0.5-0.5s0.2-0.5,0.5-0.5c5.2,0,9.6,3.9,10.3,9l1.7-2.4c0.2-0.2,0.5-0.3,0.7-0.1c0.2,0.2,0.3,0.5,0.1,0.7l-2.8,4
		L25.5,48L25.5,48z M38.7,52.3c0,0.2-0.2,0.4-0.5,0.4c0,0,0,0-0.1,0c-0.3,0-0.5-0.3-0.4-0.5c0.1-0.7,0.1-1.4,0.1-2.1
		c0-5.1-2.1-10-5.9-13.5c-0.2-0.2-0.2-0.5,0-0.7c0.2-0.2,0.5-0.2,0.7,0c3.9,3.7,6.2,8.8,6.2,14.2C38.8,50.8,38.8,51.6,38.7,52.3
		L38.7,52.3z M32.7,105.7h39.6v6.6H32.7V105.7z M80.9,117H28.2v-3.8h52.7L80.9,117L80.9,117z M89,105.7H72.8c-0.3,0-0.5-0.2-0.5-0.5
		s0.2-0.5,0.5-0.5H89c0.3,0,0.5,0.2,0.5,0.5S89.3,105.7,89,105.7z M81,59.4c7.8,5.7,12.5,14.9,12.5,24.5v20.7h-3.9v-1.4h0v-8.7
		c-7.4,2.8-16.6,0.3-26.1-1.9c-9-2.1-18.3-4-26.7-0.8v11.4h0v1.4h-3.9V83.9c0-9.7,4.7-18.8,12.5-24.5l0.5-0.4l-0.5-0.4
		c-1.6-1.2-3-2.5-4.4-3.9c0.7-1.2,1.2-2.5,1.6-3.8c4.8,5.9,12.1,9.6,20.6,9.6c15,0,26.4-11.3,26.4-26.4v-5.5
		c-7.4,2.8-16.6,0.3-26.1-1.9c-9-2.1-18.3-4-26.7-0.8v4.8c-1.2-1-2.5-1.9-4-2.7V13.3h60.7V34c0,9.7-4.7,18.8-12.5,24.5L80.4,59
		L81,59.4L81,59.4z"/>
</g>
</svg>
