<?xml version="1.0" encoding="UTF-8" standalone="no"?>
<svg version="1.1" xmlns="http://www.w3.org/2000/svg" xmlns:xlink="http://www.w3.org/1999/xlink" width="128" height="128" viewBox="2 2 20 20">
  <path fill="#8E8E8E" d="M15.502,14h-0.794l-0.275-0.274C15.408,12.589,16,11.115,16,9.5C16,5.91,13.09,3,9.5,3S3,5.91,3,9.5
                          C3,13.09,5.91,16,9.5,16c1.615,0,3.088-0.592,4.225-1.567l0.276,0.275V15.5l4.998,4.991L20.49,19L15.502,14z M9.5,14
                          C7.015,14,5,11.985,5,9.5C5,7.015,7.015,5,9.5,5S14,7.015,14,9.5C14,11.985,11.985,14,9.5,14z"/>
</svg>
