<?xml version="1.0" encoding="UTF-8" standalone="no"?>
<svg xmlns="http://www.w3.org/2000/svg" width="40px" height="40px" viewBox="6 6 206 206" >
  <path d="m 85.817871,146.75488 c -13.037598,-6.45215 -22.006348,-19.88379 -22.006348,-35.41601
           c 0,-21.815433 17.684571,-39.500003 39.499997,-39.500003 c 15.43946,0 28.80078,8.863281 35.29737,21.774414
           c 2.46045,-0.113769 19.89209,-2.794433 38.65283,9.545609 l 6.33008,-2.62256
           c 2.43261,-1.006838 4.32422,-2.900392 5.33203,-5.332033 c 1.00683,-2.431641 1.00683,-5.111328 -0.002,-7.541016
           l -8.32031,-20.092773 c -2.08008,-5.016602 -7.85449,-7.408203 -12.87304,-5.331055 l -7.46875,3.09375
           c -3.22168,-3.985351 -6.84864,-7.611328 -10.84082,-10.833008 l 3.09668,-7.474609
           c 1.00683,-2.431641 1.00683,-5.109375 -9.8e-4,-7.540527 c -1.00781,-2.432618 -2.90235,-4.326172 -5.33203,-5.332032
           l -20.08887,-8.378125 c -2.43164,-1.006836 -5.10937,-1.005371 -7.54004,0.002
           c -2.43164,1.006836 -4.32519,2.899903 -5.33301,5.331055 l -3.09375,7.47168
           c -5.10547,-0.542969 -10.2334,-0.544922 -15.328122,-0.0039 l -3.091797,-7.466796
           c -2.080078,-5.020508 -7.855469,-7.41211 -12.875,-5.333008 L 59.742187,34.097168
           C 54.722656,36.17627 52.330078,41.95166 54.410156,46.97168 l 3.091797,7.466797
           c -3.984375,3.220214 -7.609375,6.847168 -10.833008,10.841308 l -7.473632,-3.095703
           c -2.430665,-1.006348 -5.109375,-1.006836 -7.541016,0 -2.431641,1.007813 -4.325195,2.901856 -5.332031,5.333496
           L 18,87.60791 c -2.078125,5.019043 0.313477,10.793946 5.333008,12.87305 l 7.473633,3.0957
           c -0.544922,5.10449 -0.545899,10.23242 -0.0059,15.32617 l -7.467773,3.09375
           c -2.431641,1.00684 -4.325196,2.90137 -5.333008,5.33301 -1.006836,2.43066 -1.005859,5.11035 9.77e-4,7.54053
           l 8.321289,20.09033 c 2.079101,5.01953 7.853515,7.41211 12.874023,5.33252 l 7.467773,-3.09326
           c 3.220704,3.98437 6.84668,7.60937 10.840821,10.83349 l -3.095703,7.47315
           c -1.006836,2.43164 -1.006836,5.10986 0,7.5415 1.006836,2.43115 2.901367,4.32568 5.333007,5.33203 l 20.089844,8.32178
           c 2.431641,1.00684 5.109375,1.00684 7.541016,0 2.43164,-1.00684 4.326172,-2.90137 5.333008,-5.33203 l 2.637207,-6.3667
           c -2.039063,-3.09326 -11.388184,-17.47705 -9.525391,-38.24805 z" fill="#ffffff"/>
  <path d="M183.5126953,183.3852539l-8.5625,8.5615234c-2.1396484,2.1386719-5.6181641,2.1396484-7.7597656,0.0009766
           l-3.1816406-3.1826172c-2.5058594,1.3637695-5.1445313,2.4555664-7.8857422,3.2636719v4.5029297
           c0,1.465332-0.5703125,2.84375-1.6064453,3.8798828s-2.4150391,1.6064453-3.8798828,1.6074219l-12.109375-0.0009766
           c-1.4648438,0-2.8427734-0.5703125-3.8789063-1.6064453c-1.0351563-1.0371094-1.6064453-2.4150391-1.6064453-3.8798828v-4.5048828
           c-2.7412109-0.8066406-5.3798828-1.8979492-7.8857422-3.2626953l-3.1816406,3.1826172
           c-2.140625,2.1396484-5.6210938,2.1401367-7.7597656,0.0009766l-8.5625-8.5625
           c-1.0351563-1.0351563-1.6064453-2.4140625-1.6064453-3.8789063c-0.0009766-1.4658203,0.5703125-2.84375,1.6064453-3.8798828
           l3.1835938-3.1831055c-1.3642578-2.5053711-2.4550781-5.1435547-3.2636719-7.8862305l-4.5039063,0.0009766
           c-3.0253906,0-5.4863281-2.4609375-5.4863281-5.4863281v-12.1083984c0-1.4648438,0.5703125-2.8432617,1.6064453-3.8798828
           c1.0361328-1.0361328,2.4140625-1.6064453,3.8798828-1.6074219l4.5029297,0.0009766
           c0.8085938-2.7421875,1.9003906-5.3808594,3.2646484-7.8867188l-3.1835938-3.1816406
           c-2.1386719-2.1391602-2.1386719-5.6201172,0-7.7587891l8.5625-8.5625c2.1396484-2.1391602,5.6201172-2.1386719,7.7597656,0
           l3.1816406,3.1821289c2.5058594-1.3637695,5.1445313-2.4545898,7.8857422-3.2636719v-4.503418
           c0-1.4648438,0.5703125-2.8427734,1.6064453-3.8779297c1.0361328-1.0366211,2.4140625-1.6079102,3.8798828-1.6083984
           l12.1083984,0.0009766c1.4658203-0.0009766,2.8427734,0.5693359,3.8798828,1.6064453
           c1.0361328,1.0361328,1.6064453,2.4140625,1.6064453,3.8789063v4.5039063
           c2.7402344,0.8076172,5.3789063,1.9003906,7.8857422,3.2641602l3.1816406-3.1831055
           c2.1396484-2.1386719,5.6201172-2.1386719,7.7597656-0.0009766l8.5615234,8.5634766
           c1.0361328,1.0351563,1.6074219,2.4130859,1.6074219,3.8793945s-0.5693359,2.8427734-1.6064453,3.878418l-3.1826172,3.1835938
           c1.3642578,2.5058594,2.4560547,5.1435547,3.2636719,7.8847656l4.5029297,0.0009766
           c3.0253906-0.0004883,5.4863281,2.4619141,5.4863281,5.4858398l0.0009766,12.1088867
           c0,1.465332-0.5703125,2.8427734-1.6074219,3.8793945c-1.0361328,1.0366211-2.4130859,1.6069336-3.8789063,1.6064453
           l-4.5039063,0.0004883c-0.8085938,2.7412109-1.9003906,5.3779297-3.2636719,7.8857422l3.1826172,3.1826172
           C185.6513672,177.7651367,185.6503906,181.2460938,183.5126953,183.3852539z
           M 124.3 153.1 a 20 20 0 0 0 40 0 a 20 20 0 0 0 -40 0 z" fill="#ffffff"/>
</svg>
