<?xml version="1.0" encoding="utf-8"?>
<!-- Generator: Adobe Illustrator 27.8.1, SVG Export Plug-In . SVG Version: 6.00 Build 0)  -->
<svg version="1.0" id="Layer_1" xmlns="http://www.w3.org/2000/svg" xmlns:xlink="http://www.w3.org/1999/xlink" x="0px" y="0px"
	 viewBox="0 0 182 96" enable-background="new 0 0 182 96" xml:space="preserve">
<g>
	<path fill="#0098EB" d="M96.1,14H0V0h96.1V14z M2.5,11.5h91.1V2.4H2.5V11.5z"/>
</g>
<g>
	<path fill="#0098EB" d="M68.9,78.5H0v-20h68.9V78.5z M2.5,76h63.9V61H2.5V76z"/>
</g>
<path fill="#0098EB" d="M11,8.7l1.1-4.5h1l-1.7,5.9h-0.8L9.2,5.6l-1.4,4.5H7L5.3,4.2h1l1.2,4.4l1.4-4.4h0.8L11,8.7z"/>
<path fill="#0098EB" d="M19.4,8.7l1.1-4.5h1l-1.7,5.9H19l-1.4-4.5l-1.4,4.5h-0.8l-1.7-5.9h1l1.2,4.4l1.4-4.4H18L19.4,8.7z"/>
<path fill="#0098EB" d="M27.9,8.7L29,4.2h1l-1.7,5.9h-0.8L26,5.6l-1.4,4.5h-0.8l-1.7-5.9h1l1.2,4.4l1.4-4.4h0.8L27.9,8.7z"/>
<g>
	<path fill="#0098EB" d="M106.2,12.9c-3.3,0-5.9-2.7-5.9-5.9c0-3.3,2.7-5.9,5.9-5.9c3.3,0,5.9,2.7,5.9,5.9
		C112.1,10.3,109.4,12.9,106.2,12.9z M106.2,3.6c-1.9,0-3.4,1.5-3.4,3.4s1.5,3.4,3.4,3.4c1.9,0,3.4-1.5,3.4-3.4S108.1,3.6,106.2,3.6
		z"/>
</g>
<g>
	<path fill="#0098EB" d="M120.5,12.9c-3.3,0-5.9-2.7-5.9-5.9c0-3.3,2.7-5.9,5.9-5.9c3.3,0,5.9,2.7,5.9,5.9
		C126.4,10.3,123.7,12.9,120.5,12.9z M120.5,3.6c-1.9,0-3.4,1.5-3.4,3.4s1.5,3.4,3.4,3.4c1.9,0,3.4-1.5,3.4-3.4S122.4,3.6,120.5,3.6
		z"/>
</g>
<g>
	<path fill="#0098EB" d="M67.6,87.2H1.3C0.6,87.2,0,86.7,0,86s0.6-1.3,1.3-1.3h66.4c0.7,0,1.2,0.6,1.2,1.2S68.3,87.2,67.6,87.2z"/>
</g>
<g>
	<path fill="#0098EB" d="M51.4,96H1.3C0.6,96,0,95.4,0,94.7s0.6-1.2,1.2-1.2h50.1c0.7,0,1.2,0.6,1.2,1.2S52.1,96,51.4,96z"/>
</g>
<g>
	<path fill="#0098EB" d="M158.5,73.7c-0.3,0-0.6-0.1-0.9-0.4l-6.1-6.1c-0.5-0.5-0.5-1.3,0-1.8s1.3-0.5,1.8,0l6.1,6.1
		c0.5,0.5,0.5,1.3,0,1.8C159.1,73.5,158.8,73.7,158.5,73.7z"/>
</g>
<g>
	<path fill="#0098EB" d="M176.3,95.9L176.3,95.9c-1.5,0-2.9-0.6-4-1.7l-18.7-18.7l8-8l18.7,18.7c2.2,2.2,2.2,5.8,0,8
		C179.3,95.4,177.9,95.9,176.3,95.9z M157.1,75.5l17,17c0.6,0.6,1.4,0.9,2.2,0.9l0,0c0.8,0,1.6-0.3,2.2-0.9c1.2-1.2,1.2-3.2,0-4.5
		l-17-17L157.1,75.5z"/>
</g>
<g>
	<path fill="#0098EB" d="M125.1,84.7H75.8c-0.7,0-1.2,0.6-1.2,1.2s0.6,1.2,1.2,1.2h49.4c0.7,0,1.2-0.6,1.2-1.2
		S125.8,84.7,125.1,84.7z"/>
	<path fill="#0098EB" d="M125.1,93.5H75.8c-0.7,0-1.2,0.6-1.2,1.2s0.6,1.2,1.2,1.2h49.4c0.7,0,1.2-0.6,1.2-1.2
		S125.8,93.5,125.1,93.5z"/>
	<path fill="#0098EB" d="M131.6,14.8c-5.6,0-10.8,1.5-15.3,4.1H0v34.6h93.1c0,1.7,0.2,3.3,0.4,4.9H75.8c-0.7,0-1.2,0.6-1.2,1.2
		s0.6,1.2,1.2,1.2h18.3c0.6,2.2,1.4,4.3,2.4,6.3H75.8c-0.7,0-1.2,0.6-1.2,1.2s0.6,1.2,1.2,1.2h22.1c1.5,2.3,3.2,4.4,5.2,6.2H75.8
		c-0.7,0-1.2,0.6-1.2,1.2c0,0.7,0.6,1.2,1.2,1.2h30.5c5,3.5,11,5.5,17.5,5.5c10.4,0,19.7-5.2,25.2-13.2c8-5.5,13.3-14.8,13.3-25.3
		C162.3,28.6,148.5,14.8,131.6,14.8z M2.5,21.4h110.1c-2.4,1.9-4.5,4.1-6.2,6.7c-7.4,5.1-12.5,13.5-13.1,23H2.5V21.4z M93.1,52.3
		c0-0.7,0.6-1.2,1.2-1.2h8.6c0.7,0,1.2,0.6,1.2,1.2s-0.6,1.2-1.2,1.2h-8.6C93.7,53.6,93.1,53,93.1,52.3z M95.1,61
		c-0.7,0-1.2-0.6-1.2-1.2s0.6-1.2,1.2-1.2h10.7c0.7,0,1.2,0.6,1.2,1.2s-0.6,1.2-1.2,1.2H95.1z M98.6,69.7c-0.7,0-1.2-0.6-1.2-1.2
		s0.6-1.2,1.2-1.2h14.6c0.7,0,1.2,0.6,1.2,1.2s-0.6,1.2-1.2,1.2H98.6z M125.1,78.5h-18.5c-0.7,0-1.2-0.6-1.2-1.2
		c0-0.7,0.6-1.2,1.2-1.2h18.5c0.7,0,1.2,0.6,1.2,1.2C126.4,77.9,125.8,78.5,125.1,78.5z M131.6,73.7c-15.5,0-28.2-12.6-28.2-28.2
		s12.6-28.2,28.2-28.2s28.2,12.6,28.2,28.2S147.1,73.7,131.6,73.7z"/>
</g>
<linearGradient id="SVGID_1_" gradientUnits="userSpaceOnUse" x1="139.2383" y1="5347.3359" x2="139.2383" y2="5319.6997" gradientTransform="matrix(1 0 0 1 0 -5288)">
	<stop  offset="0" style="stop-color:#568BC4"/>
	<stop  offset="0.19" style="stop-color:#6A9FD0"/>
	<stop  offset="0.42" style="stop-color:#7BAFDA"/>
	<stop  offset="0.68" style="stop-color:#85B9E0"/>
	<stop  offset="1" style="stop-color:#88BCE2"/>
</linearGradient>
<path fill="url(#SVGID_1_)" d="M132.9,31.7v4.9c4.4,0.6,7.7,4.4,7.7,8.9c0,4.6-3.4,8.3-7.7,8.9v4.9c7.1-0.6,12.6-6.6,12.6-13.8
	S139.9,32.3,132.9,31.7z"/>
<linearGradient id="SVGID_00000176023184494462330680000004025380476594581918_" gradientUnits="userSpaceOnUse" x1="123.934" y1="5347.2998" x2="123.934" y2="5319.6636" gradientTransform="matrix(1 0 0 1 0 -5288)">
	<stop  offset="0" style="stop-color:#5BAC2A"/>
	<stop  offset="8.000000e-02" style="stop-color:#65B036"/>
	<stop  offset="0.28" style="stop-color:#79B94E"/>
	<stop  offset="0.49" style="stop-color:#88BE5F"/>
	<stop  offset="0.72" style="stop-color:#90C269"/>
	<stop  offset="1" style="stop-color:#93C36C"/>
</linearGradient>
<path fill="url(#SVGID_00000176023184494462330680000004025380476594581918_)" d="M130.2,54.4c-4.4-0.6-7.7-4.4-7.7-8.9
	s3.4-8.3,7.7-8.9v-4.9c-7.1,0.6-12.6,6.6-12.6,13.8s5.5,13.2,12.6,13.8V54.4z"/>
<path fill="#5286C1" d="M145.2,64.4h-27.3c-2.9,0-5.3-2.3-5.3-5.3V31.8c0-2.9,2.3-5.3,5.3-5.3h27.4c2.9,0,5.2,2.3,5.2,5.3v27.4
	C150.5,62.1,148.1,64.4,145.2,64.4L145.2,64.4z M117.9,27.7c-2.3,0-4.1,1.8-4.1,4.1v27.4c0,2.3,1.8,4.1,4.1,4.1h27.4
	c2.3,0,4.1-1.8,4.1-4.1V31.8c0-2.3-1.8-4.1-4.1-4.1C145.3,27.7,117.9,27.7,117.9,27.7z"/>
</svg>
