<?xml version="1.0" encoding="utf-8"?>
<!-- Generator: Adobe Illustrator 27.9.0, SVG Export Plug-In . SVG Version: 6.00 Build 0)  -->
<svg version="1.0" xmlns="http://www.w3.org/2000/svg" xmlns:xlink="http://www.w3.org/1999/xlink" x="0px" y="0px"
	 viewBox="0 0 136 96" enable-background="new 0 0 136 96" xml:space="preserve">
<g id="Layer_1">
	<g>
		<g>
			
				<linearGradient id="SVGID_1_" gradientUnits="userSpaceOnUse" x1="85.1232" y1="1798.6542" x2="85.1232" y2="1792.7932" gradientTransform="matrix(1 0 0 1 0 -1783.8502)">
				<stop  offset="0" style="stop-color:#568BC4"/>
				<stop  offset="0.1908" style="stop-color:#6A9FD0"/>
				<stop  offset="0.4245" style="stop-color:#7BAFDA"/>
				<stop  offset="0.6808" style="stop-color:#85B9E0"/>
				<stop  offset="1" style="stop-color:#88BCE2"/>
			</linearGradient>
			<path fill="url(#SVGID_1_)" d="M83.8,8.9v1c0.9,0.1,1.6,0.9,1.6,1.9s-0.7,1.8-1.6,1.9v1c1.5-0.1,2.7-1.4,2.7-2.9
				S85.3,9.1,83.8,8.9z"/>
		</g>
		<g>
			
				<linearGradient id="SVGID_00000143584273775234968620000003867458049132820408_" gradientUnits="userSpaceOnUse" x1="81.899" y1="1798.6542" x2="81.899" y2="1792.7932" gradientTransform="matrix(1 0 0 1 0 -1783.8502)">
				<stop  offset="0" style="stop-color:#5BAC2A"/>
				<stop  offset="8.199999e-02" style="stop-color:#65B036"/>
				<stop  offset="0.2782" style="stop-color:#79B94E"/>
				<stop  offset="0.4872" style="stop-color:#88BE5F"/>
				<stop  offset="0.7156" style="stop-color:#90C269"/>
				<stop  offset="1" style="stop-color:#93C36C"/>
			</linearGradient>
			<path fill="url(#SVGID_00000143584273775234968620000003867458049132820408_)" d="M83.2,13.8c-0.9-0.1-1.6-0.9-1.6-1.9
				s0.7-1.8,1.6-1.9v-1c-1.5,0.1-2.7,1.4-2.7,2.9s1.2,2.8,2.7,2.9V13.8z"/>
		</g>
		<path fill="#5286C1" d="M86.4,15.9h-5.8c-0.6,0-1.1-0.5-1.1-1.1V9c0-0.6,0.5-1.1,1.1-1.1h5.8c0.6,0,1.1,0.5,1.1,1.1v5.8
			C87.5,15.4,87,15.9,86.4,15.9z M80.6,8.1c-0.5,0-0.9,0.4-0.9,0.9v5.8c0,0.5,0.4,0.9,0.9,0.9h5.8c0.5,0,0.9-0.4,0.9-0.9V9
			c0-0.5-0.4-0.9-0.9-0.9H80.6z"/>
	</g>
	<path fill="#EB0000" d="M29.1,64.8H8.6c-1.1,0-2-0.9-2-2v-9.5c0-1.1,0.9-2,2-2h20.5c1.1,0,2,0.9,2,2v9.5
		C31.1,63.9,30.2,64.8,29.1,64.8z"/>
	<rect x="6.6" y="55.2" fill="#0098EB" width="24.4" height="5.8"/>
	<path fill="#0098EB" d="M71.9,7.7H51.2c-0.3,0-0.5,0.2-0.5,0.5s0.2,0.5,0.5,0.5h20.8c0.3,0,0.5-0.2,0.5-0.5S72.2,7.7,71.9,7.7z"/>
	<path fill="#0098EB" d="M89.6,8.7h20.8c0.3,0,0.5-0.2,0.5-0.5s-0.2-0.5-0.5-0.5H89.6c-0.3,0-0.5,0.2-0.5,0.5S89.3,8.7,89.6,8.7z"/>
	<path fill="#0098EB" d="M89.6,12.5h20.8c0.3,0,0.5-0.2,0.5-0.5s-0.2-0.5-0.5-0.5H89.6c-0.3,0-0.5,0.2-0.5,0.5S89.3,12.5,89.6,12.5z
		"/>
	<path fill="#0098EB" d="M6.6,20.3h59.2c0.3,0,0.5-0.2,0.5-0.5s-0.2-0.5-0.5-0.5H6.6c-0.3,0-0.5,0.2-0.5,0.5S6.4,20.3,6.6,20.3z"/>
	<path fill="#0098EB" d="M6.6,24.1h51.2c0.3,0,0.5-0.2,0.5-0.5s-0.2-0.5-0.5-0.5H6.6c-0.3,0-0.5,0.2-0.5,0.5S6.4,24.1,6.6,24.1z"/>
	<path fill="#0098EB" d="M6.6,27.9h59.2c0.3,0,0.5-0.2,0.5-0.5s-0.2-0.5-0.5-0.5H6.6c-0.3,0-0.5,0.2-0.5,0.5S6.4,27.9,6.6,27.9z"/>
	<path fill="#0098EB" d="M6.6,31.8h42.7c0.3,0,0.5-0.2,0.5-0.5s-0.2-0.5-0.5-0.5H6.6c-0.3,0-0.5,0.2-0.5,0.5S6.4,31.8,6.6,31.8z"/>
	<path fill="#0098EB" d="M6.6,41.2h59.2c0.3,0,0.5-0.2,0.5-0.5s-0.2-0.5-0.5-0.5H6.6c-0.3,0-0.5,0.2-0.5,0.5S6.4,41.2,6.6,41.2z"/>
	<path fill="#0098EB" d="M6.6,45h59.2c0.3,0,0.5-0.2,0.5-0.5S66.1,44,65.8,44H6.6c-0.3,0-0.5,0.2-0.5,0.5S6.4,45,6.6,45z"/>
	<path fill="#0098EB" d="M65.8,83.7H6.6c-0.3,0-0.5,0.2-0.5,0.5s0.2,0.5,0.5,0.5h59.2c0.3,0,0.5-0.2,0.5-0.5S66.1,83.7,65.8,83.7z"
		/>
	<path fill="#0098EB" d="M57.8,87.6H6.6c-0.3,0-0.5,0.2-0.5,0.5s0.2,0.5,0.5,0.5h51.2c0.3,0,0.5-0.2,0.5-0.5S58.1,87.6,57.8,87.6z"
		/>
	<path fill="#0098EB" d="M128.8,47H117V0H44.5v11.5H0V96h72.4V82.5h17.7H117V69.1h11.8c4,0,7.2-3.2,7.2-7.2v-7.8
		C136,50.2,132.8,47,128.8,47z M45.5,1H116v46H90.1v-5.7h12.1c0.3,0,0.5-0.2,0.5-0.5s-0.2-0.5-0.5-0.5H90.1v-2.8h20.2
		c0.3,0,0.5-0.2,0.5-0.5s-0.2-0.5-0.5-0.5H90.1v-2.8h20.2c0.3,0,0.5-0.2,0.5-0.5s-0.2-0.5-0.5-0.5H90.1V21.3H72.4v-9.7H45.5V1z
		 M71.4,82.5V95H1V12.5h70.4v8.7v11.9c0-0.3,0.2-0.5,0.5-0.5h17.6c0.3,0,0.5,0.2,0.5,0.5s-0.2,0.5-0.5,0.5H71.9
		c-0.3,0-0.5-0.2-0.5-0.5V37c0-0.3,0.2-0.5,0.5-0.5h17.6c0.3,0,0.5,0.2,0.5,0.5s-0.2,0.5-0.5,0.5H71.9c-0.3,0-0.5-0.2-0.5-0.5v3.8
		c0-0.3,0.2-0.5,0.5-0.5h17.6c0.3,0,0.5,0.2,0.5,0.5s-0.2,0.5-0.5,0.5H71.9c-0.3,0-0.5-0.2-0.5-0.5V47H52.6c-4,0-7.2,3.2-7.2,7.2
		v1.7h-1.7c-4,0-7.2,3.2-7.2,7.2V70H6.1v10.9h60.2V78h5.1V82.5z M37.1,71c-0.3,0-0.5-0.2-0.5-0.5s0.2-0.5,0.5-0.5h29.2v7.5
		c0,0.3-0.2,0.5-0.5,0.5s-0.5-0.2-0.5-0.5V71H37.1z M65.3,78v1.9H7.1V71h29.5c0.1,3.9,3.3,7,7.2,7H65.3z M116,81.5H90.1V69.1H116
		V81.5z M135,62c0,3.4-2.8,6.2-6.2,6.2H90.1H72.4h-0.5c0.3,0,0.5,0.2,0.5,0.5v8.8c0,0.3-0.2,0.5-0.5,0.5s-0.5-0.2-0.5-0.5v-8.8
		c0-0.3,0.2-0.5,0.5-0.5h-0.5H52.6c-3.4,0-6.2-2.8-6.2-6.2v-6.1v-1.7c0-3.4,2.8-6.2,6.2-6.2h18.8h18.7h38.7c3.4,0,6.2,2.8,6.2,6.2
		V62z"/>
</g>
<g id="Layer_2">
	<path fill="#0098EB" d="M110.8,57.6h-3.3l2.3-2.3c0.2-0.2,0.2-0.5,0-0.7s-0.5-0.2-0.7,0l-2.3,2.3v-3.3c0-0.3-0.2-0.5-0.5-0.5
		s-0.5,0.2-0.5,0.5v3.3l-2.3-2.3c-0.2-0.2-0.5-0.2-0.7,0s-0.2,0.5,0,0.7l2.3,2.3h-3.3c-0.3,0-0.5,0.2-0.5,0.5s0.2,0.5,0.5,0.5h3.3
		l-2.3,2.3c-0.2,0.2-0.2,0.5,0,0.7c0.1,0.1,0.2,0.1,0.4,0.1s0.3,0,0.4-0.1l2.3-2.3v3.3c0,0.3,0.2,0.5,0.5,0.5s0.5-0.2,0.5-0.5v-3.3
		l2.3,2.3c0.1,0.1,0.2,0.1,0.4,0.1s0.3,0,0.4-0.1c0.2-0.2,0.2-0.5,0-0.7l-2.3-2.3h3.3c0.3,0,0.5-0.2,0.5-0.5S111.1,57.6,110.8,57.6z
		"/>
	<path fill="#0098EB" d="M95.2,57.6h-3.3l2.3-2.3c0.2-0.2,0.2-0.5,0-0.7s-0.5-0.2-0.7,0l-2.3,2.3v-3.3c0-0.3-0.2-0.5-0.5-0.5
		s-0.5,0.2-0.5,0.5v3.3l-2.3-2.3c-0.2-0.2-0.5-0.2-0.7,0s-0.2,0.5,0,0.7l2.3,2.3h-3.3c-0.3,0-0.5,0.2-0.5,0.5s0.2,0.5,0.5,0.5h3.3
		l-2.3,2.3c-0.2,0.2-0.2,0.5,0,0.7c0.1,0.1,0.2,0.1,0.4,0.1s0.3,0,0.4-0.1l2.3-2.3v3.3c0,0.3,0.2,0.5,0.5,0.5s0.5-0.2,0.5-0.5v-3.3
		l2.3,2.3c0.1,0.1,0.2,0.1,0.4,0.1s0.3,0,0.4-0.1c0.2-0.2,0.2-0.5,0-0.7l-2.3-2.3h3.3c0.3,0,0.5-0.2,0.5-0.5S95.5,57.6,95.2,57.6z"
		/>
	<path fill="#0098EB" d="M126.4,57.6h-3.3l2.3-2.3c0.2-0.2,0.2-0.5,0-0.7s-0.5-0.2-0.7,0l-2.3,2.3v-3.3c0-0.3-0.2-0.5-0.5-0.5
		s-0.5,0.2-0.5,0.5v3.3l-2.3-2.3c-0.2-0.2-0.5-0.2-0.7,0s-0.2,0.5,0,0.7l2.3,2.3h-3.3c-0.3,0-0.5,0.2-0.5,0.5s0.2,0.5,0.5,0.5h3.3
		l-2.3,2.3c-0.2,0.2-0.2,0.5,0,0.7c0.1,0.1,0.2,0.1,0.4,0.1s0.3,0,0.4-0.1l2.3-2.3v3.3c0,0.3,0.2,0.5,0.5,0.5s0.5-0.2,0.5-0.5v-3.3
		l2.3,2.3c0.1,0.1,0.2,0.1,0.4,0.1s0.3,0,0.4-0.1c0.2-0.2,0.2-0.5,0-0.7l-2.3-2.3h3.3c0.3,0,0.5-0.2,0.5-0.5S126.7,57.6,126.4,57.6z
		"/>
	<path fill="#0098EB" d="M79.6,57.6h-3.3l2.3-2.3c0.2-0.2,0.2-0.5,0-0.7s-0.5-0.2-0.7,0l-2.3,2.3v-3.3c0-0.3-0.2-0.5-0.5-0.5
		s-0.5,0.2-0.5,0.5v3.3l-2.3-2.3c-0.2-0.2-0.5-0.2-0.7,0s-0.2,0.5,0,0.7l2.3,2.3h-3.3c-0.3,0-0.5,0.2-0.5,0.5s0.2,0.5,0.5,0.5h3.3
		l-2.3,2.3c-0.2,0.2-0.2,0.5,0,0.7c0.1,0.1,0.2,0.1,0.4,0.1s0.3,0,0.4-0.1l2.3-2.3v3.3c0,0.3,0.2,0.5,0.5,0.5s0.5-0.2,0.5-0.5v-3.3
		l2.3,2.3c0.1,0.1,0.2,0.1,0.4,0.1s0.3,0,0.4-0.1c0.2-0.2,0.2-0.5,0-0.7l-2.3-2.3h3.3c0.3,0,0.5-0.2,0.5-0.5S79.9,57.6,79.6,57.6z"
		/>
	<path fill="#0098EB" d="M64,57.6h-3.3l2.3-2.3c0.2-0.2,0.2-0.5,0-0.7s-0.5-0.2-0.7,0L60,56.9v-3.3c0-0.3-0.2-0.5-0.5-0.5
		S59,53.3,59,53.6v3.3l-2.3-2.3c-0.2-0.2-0.5-0.2-0.7,0s-0.2,0.5,0,0.7l2.3,2.3H55c-0.3,0-0.5,0.2-0.5,0.5s0.2,0.5,0.5,0.5h3.3
		L56,60.9c-0.2,0.2-0.2,0.5,0,0.7c0.1,0.1,0.2,0.1,0.4,0.1s0.3,0,0.4-0.1l2.3-2.3v3.3c0,0.3,0.2,0.5,0.5,0.5s0.5-0.2,0.5-0.5v-3.3
		l2.3,2.3c0.1,0.1,0.2,0.1,0.4,0.1s0.3,0,0.4-0.1c0.2-0.2,0.2-0.5,0-0.7l-2.3-2.3H64c0.3,0,0.5-0.2,0.5-0.5S64.3,57.6,64,57.6z"/>
</g>
</svg>
