<?xml version="1.0" encoding="utf-8"?>
<!-- Generator: Adobe Illustrator 27.8.1, SVG Export Plug-In . SVG Version: 6.00 Build 0)  -->
<svg version="1.2" baseProfile="tiny" id="Layer_1" xmlns="http://www.w3.org/2000/svg" xmlns:xlink="http://www.w3.org/1999/xlink"
	 x="0px" y="0px" viewBox="0 0 20 22" overflow="visible" xml:space="preserve">
<g>
	<path fill="#576164" d="M10,4.4c-0.4,0-0.7-0.3-0.7-0.8V0.8C9.2,0.3,9.6,0,10,0s0.7,0.3,0.7,0.8v2.9C10.7,4.1,10.4,4.4,10,4.4z"/>
</g>
<g>
	<path fill="#576164" d="M19.3,4.4H0.7C0.3,4.4,0,4.1,0,3.7s0.3-0.8,0.7-0.8h18.5c0.4,0,0.7,0.3,0.7,0.8S19.7,4.4,19.3,4.4z"/>
</g>
<g>
	<path fill="#576164" d="M14.6,22H5.4c-1.6,0-3-1.3-3-3V2.9h15.1V19C17.6,20.7,16.2,22,14.6,22z M3.9,4.4V19c0,0.8,0.7,1.5,1.5,1.5
		h9.2c0.8,0,1.5-0.7,1.5-1.5V4.4H3.9z"/>
</g>
<g>
	<path fill="#576164" d="M7.3,22c-0.4,0-0.7-0.3-0.7-0.8V8.8c0-0.4,0.3-0.8,0.7-0.8C7.7,8.1,8,8.4,8,8.8v12.4C8,21.7,7.7,22,7.3,22z
		"/>
</g>
<g>
	<path fill="#576164" d="M12.7,22c-0.4,0-0.7-0.3-0.7-0.8V8.8c0-0.4,0.3-0.8,0.7-0.8c0.4,0,0.7,0.3,0.7,0.8v12.4
		C13.5,21.7,13.1,22,12.7,22z"/>
</g>
</svg>
