<?xml version="1.0" encoding="utf-8"?>
<!-- Generator: Adobe Illustrator 27.8.1, SVG Export Plug-In . SVG Version: 6.00 Build 0)  -->
<svg version="1.2" baseProfile="tiny" id="Layer_1" xmlns="http://www.w3.org/2000/svg" xmlns:xlink="http://www.w3.org/1999/xlink"
	 x="0px" y="0px" viewBox="0 0 22 22" overflow="visible" xml:space="preserve">
<g>
	<path fill="#576164" d="M12,4.4c-0.4,0-0.8-0.3-0.8-0.8V0.8C11.2,0.3,11.6,0,12,0s0.8,0.3,0.8,0.8v2.9C12.8,4.1,12.4,4.4,12,4.4z"
		/>
</g>
<g>
	<path fill="#576164" d="M21.2,4.4H2.8C2.3,4.4,2,4.1,2,3.7s0.3-0.8,0.8-0.8h18.5c0.4,0,0.8,0.3,0.8,0.8S21.7,4.4,21.2,4.4z"/>
</g>
<g>
	<path fill="#576164" d="M16.6,22H7.4c-1.6,0-3-1.3-3-3V18c0-0.4,0.3-0.8,0.8-0.8s0.8,0.3,0.8,0.8V19c0,0.8,0.7,1.5,1.5,1.5h9.2
		c0.8,0,1.5-0.7,1.5-1.5V4.4H5.9V7c0,0.4-0.3,0.8-0.8,0.8S4.4,7.4,4.4,7v-4h15.1V19C19.6,20.7,18.2,22,16.6,22z"/>
</g>
<g>
	<path fill="#576164" d="M14.7,22c-0.4,0-0.8-0.3-0.8-0.8V8.8c0-0.4,0.3-0.8,0.8-0.8s0.8,0.3,0.8,0.8v12.4
		C15.5,21.7,15.1,22,14.7,22z"/>
</g>
<g>
	<path fill="#576164" d="M9.3,22c-0.4,0-0.8-0.3-0.8-0.8v-4c0-0.4,0.3-0.8,0.8-0.8s0.8,0.3,0.8,0.8v4C10,21.7,9.7,22,9.3,22z"/>
</g>
<g>
	<path fill="#576164" d="M6.4,18.8C2.9,18.8,0,16,0,12.5c0-3.5,2.9-6.4,6.4-6.4s6.4,2.9,6.4,6.4C12.8,16,9.9,18.8,6.4,18.8z
		 M6.4,7.6c-2.7,0-4.9,2.2-4.9,4.9c0,2.7,2.2,4.9,4.9,4.9s4.9-2.2,4.9-4.9C11.2,9.8,9.1,7.6,6.4,7.6z"/>
</g>
<g>
	<path fill="#576164" d="M8.4,15.2c-0.2,0-0.4-0.1-0.5-0.2l-2-2c-0.1-0.1-0.2-0.3-0.2-0.5v-3C5.6,9,6,8.7,6.4,8.7S7.1,9,7.1,9.5v2.7
		l1.8,1.8c0.3,0.3,0.3,0.8,0,1.1C8.8,15.1,8.6,15.2,8.4,15.2z"/>
</g>
</svg>
