<?xml version="1.0" encoding="UTF-8" standalone="no"?>
<svg version="1.1" xmlns="http://www.w3.org/2000/svg" width="96px" height="96px" viewBox="0 0 1920 1920">
  <g id="layer1" fill="#8e8e93" stroke="none">
    <path d="M549 1667 c-18 -12 -44 -38 -56 -56 l-23 -34 2 -511 3 -511 485 0 485 0 3 511 2 511 -23 34 c-12 18 -38 44 -56 56 -34 23 -35 23 -411 23 -376 0 -377 0 -411 -23z"/>
    <path d="M394 477 c-3 -8 -4 -47 -2 -88 l3 -74 141 -3 140 -3 39 -39 39 -40 206 0 206 0 39 40 39 39 140 3 141 3 0 85 0 85 -563 3 c-465 2 -563 0 -568 -11z"/>
  </g>
</svg>

