<?xml version="1.0" encoding="UTF-8" ?>
<svg version="1.1" xmlns="http://www.w3.org/2000/svg" width="128" height="128" viewBox="0 0 24 24">
  <path d="M 12 7 c 2.76 0 5 2.24 5 5 0 .65 -.13 1.26 -.36 1.83 l 2.92 2.92 c 1.51 -1.26 2.7 -2.89 3.43 -4.75 -1.73 -4.39 -6 -7.5 -11 -7.5 -1.4 0 -2.74 .25 -3.98 .7 l 2.16 2.16 C 10.74 7.13 11.35 7 12 7 z
           M 2 4.27 l 2.28 2.28 .46 .46 C 3.08 8.3 1.78 10.02 1 12 c 1.73 4.39 6 7.5 11 7.5 1.55 0 3.03 -.3 4.38 -.84 l .42 .42 L 19.73 22 21 20.73 3.27 3 2 4.27 z
           M 7.53 9.8 l 1.55 1.55 c -.05 .21 -.08 .43 -.08 .65 0 1.66 1.34 3 3 3 .22 0 .44 -.03 .65 -.08 l 1.55 1.55 c -.67 .33 -1.41 .53 -2.2 .53 -2.76 0 -5 -2.24 -5 -5 0 -.79 .2 -1.53 .53 -2.2 z
           m 4.31 -.78 l 3.15 3.15 .02 -.16 c 0 -1.66 -1.34 -3 -3 -3 l -.17 .01 z"
        fill="#ffffff"/>
</svg>
