<?xml version="1.0" encoding="utf-8"?>
<!-- Generator: Adobe Illustrator 27.8.1, SVG Export Plug-In . SVG Version: 6.00 Build 0)  -->
<svg version="1.2" baseProfile="tiny" id="Layer_1" xmlns="http://www.w3.org/2000/svg" xmlns:xlink="http://www.w3.org/1999/xlink"
	 x="0px" y="0px" viewBox="0 0 109 94" overflow="visible" xml:space="preserve">
<g>
	<path fill="#EB0000" d="M75.3,76.6c-0.4,0-0.8-0.1-1.1-0.4c-0.6-0.6-0.6-1.5,0-2.1l14.8-14.8c0.6-0.6,1.5-0.6,2.1,0s0.6,1.5,0,2.1
		L76.4,76.2C76.1,76.5,75.7,76.6,75.3,76.6z"/>
</g>
<g>
	<path fill="#EB0000" d="M82.7,79.7c-6.6,0-12-5.4-12-12c0-6.6,5.4-12,12-12c6.6,0,12,5.4,12,12C94.7,74.4,89.4,79.7,82.7,79.7z
		 M82.7,58.7c-5,0-9,4-9,9c0,5,4,9,9,9c5,0,9-4,9-9C91.7,62.8,87.7,58.7,82.7,58.7z"/>
</g>
<path fill="#0077B6" d="M82.7,41.5c-3.9,0-7.5,0.8-10.8,2.3c0.8-2.8,1.2-5.6,1.2-8.5c0-0.2,0-0.3,0-0.5c0,0,0,0,0,0
	c0-0.1,0-0.1,0-0.2c0-8.6-3.1-16.4-8.3-22.5c0,0,0,0,0,0c0-0.1-0.1-0.1-0.1-0.1C58.3,4.7,49,0,38.5,0C28,0,18.7,4.7,12.3,12
	c-0.1,0-0.1,0.1-0.1,0.1c0,0,0,0,0,0C7,18.2,3.8,26.1,3.8,34.7c0,8.6,3.1,16.4,8.3,22.5c0,0,0,0,0,0c0,0,0.1,0.1,0.1,0.1
	c6.3,7.3,15.5,11.9,25.8,12.1v7.3c-4.4,0.3-7.9,3.8-8.2,8.2H0.5C0.2,84.8,0,85,0,85.3s0.2,0.5,0.5,0.5h29.3c0.3,4.6,4,8.2,8.7,8.2
	s8.4-3.6,8.7-8.2h16.6c4.8,5,11.5,8.2,19,8.2C97.2,94,109,82.2,109,67.7S97.2,41.5,82.7,41.5z M72.2,34.2H57.3c0-6.2-1-12-2.6-17
	c3.6-1,6.8-2.4,9.6-4.1C69.1,18.8,72,26.1,72.2,34.2z M49.7,62.2c-0.1,0-0.2,0-0.3-0.1c-0.2-0.2-0.3-0.5-0.1-0.7
	c1.6-2.4,3-5.3,4.1-8.5c-0.8-0.2-1.6-0.4-2.4-0.6c-0.3-0.1-0.4-0.3-0.4-0.6c0.1-0.3,0.3-0.4,0.6-0.4c0.8,0.2,1.7,0.4,2.5,0.6
	c0.9-2.7,1.5-5.6,2-8.7c0-0.3,0.3-0.5,0.6-0.4c0.3,0,0.5,0.3,0.4,0.6c-0.4,3.1-1.1,6.1-2,8.8c2.1,0.6,4.1,1.3,6,2.1
	c0.3,0.1,0.4,0.4,0.3,0.7c-0.1,0.2-0.3,0.3-0.5,0.3c-0.1,0-0.1,0-0.2,0c-1.8-0.8-3.8-1.5-5.9-2.1c-1.1,3.3-2.6,6.3-4.3,8.8
	C50,62.1,49.9,62.2,49.7,62.2z M49.9,66.3c-2,0.7-4,1.2-6,1.5c2-1.1,3.8-2.8,5.5-4.9C49.4,64.1,49.6,65.2,49.9,66.3z M56.9,41.8
	c0.2-2.2,0.4-4.4,0.4-6.7h11.1C63.9,36.4,60,38.7,56.9,41.8z M63.6,12.3c-2.7,1.6-5.8,2.9-9.2,3.9C52,9.2,48.2,3.8,43.8,1.4
	C51.7,2.7,58.6,6.6,63.6,12.3z M39,1c6.1,0.3,11.4,6.4,14.4,15.4c-4.4,1.2-9.4,1.8-14.4,1.9V1z M39,19.3c5.2,0,10.2-0.7,14.8-1.9
	c1.6,4.9,2.5,10.7,2.5,16.8H39V19.3z M39,35.2h17.3c0,2.7-0.2,5.4-0.6,7.9c-2.1,2.4-3.8,5.2-4.9,8.2c-3.8-0.8-7.8-1.2-11.8-1.2V35.2
	z M39,51c4,0,7.8,0.4,11.5,1.2c-0.9,2.6-1.3,5.4-1.3,8.2c0,0.4,0,0.7,0,1.1c-2.9,4.1-6.4,6.6-10.2,6.8V51z M20.7,34.2
	c0-6.1,1-11.9,2.5-16.8c4.5,1.2,9.6,1.9,14.8,1.9v14.9H20.7z M38,35.2V50c-5.2,0-10.2,0.7-14.8,1.9c-1.6-4.9-2.5-10.7-2.5-16.8H38z
	 M23.6,16.4C26.6,7.4,31.9,1.3,38,1v17.3C32.9,18.2,28,17.6,23.6,16.4z M33.2,1.4C28.8,3.8,25,9.2,22.6,16.2c-3.4-1-6.6-2.3-9.2-3.9
	C18.4,6.6,25.4,2.7,33.2,1.4z M12.7,13.1c2.8,1.7,6,3,9.6,4.1c-1.6,5-2.5,10.8-2.6,17H4.9C5,26.1,7.9,18.8,12.7,13.1z M4.9,35.2
	h14.9c0,6.2,1,12,2.6,17c-3.6,1-6.8,2.4-9.6,4.1C7.9,50.5,5,43.2,4.9,35.2z M13.4,57c2.7-1.6,5.8-2.9,9.2-3.9
	c2.4,7,6.2,12.3,10.6,14.8C25.4,66.7,18.4,62.7,13.4,57z M23.6,52.9C28,51.7,32.9,51.1,38,51v17.3C31.9,68,26.6,61.9,23.6,52.9z
	 M38.5,93c-4.2,0-7.7-3.4-7.7-7.7s3.4-7.7,7.7-7.7s7.7,3.4,7.7,7.7S42.7,93,38.5,93z M47.2,84.8c-0.3-4.4-3.8-7.9-8.2-8.2v-7.3
	c4-0.1,7.9-0.8,11.6-2.2c0,0,0,0,0.1,0c0,0,0.1,0,0.1-0.1c0.2-0.1,0.4-0.2,0.7-0.3c0.5-0.2,1-0.4,1.4-0.6c0.3-0.1,0.6-0.3,0.8-0.4
	c0.4-0.2,0.8-0.4,1.2-0.6c0.3-0.2,0.6-0.3,0.8-0.5c0.3-0.2,0.6-0.4,1-0.6c-0.2,1.2-0.3,2.4-0.3,3.6c0,6.5,2.4,12.5,6.3,17.1H47.2z
	 M82.7,93c-13.9,0-25.3-11.3-25.3-25.3c0-1.6,0.2-3.1,0.4-4.6c0.1-0.4,0.2-0.9,0.3-1.3c0,0,0,0,0-0.1c0,0,0,0,0,0
	c0.1-0.4,0.2-0.8,0.3-1.3c0,0,0-0.1,0-0.1c0.1-0.2,0.1-0.4,0.2-0.6c1.2-3.5,3.1-6.7,5.6-9.3c0,0,0.1-0.1,0.1-0.1
	c0.3-0.3,0.5-0.6,0.8-0.8c0.1-0.1,0.1-0.1,0.2-0.2c0.3-0.2,0.5-0.5,0.8-0.7c0.1-0.1,0.2-0.2,0.3-0.2c0.3-0.3,0.6-0.5,0.9-0.7
	c0.1,0,0.1-0.1,0.2-0.1c0.3-0.2,0.6-0.5,1-0.7c0,0,0.1,0,0.1-0.1c0.2-0.1,0.3-0.2,0.5-0.3c0.2-0.1,0.3-0.2,0.5-0.3
	c0.1,0,0.1-0.1,0.2-0.1c0.2-0.1,0.3-0.2,0.5-0.3c0.1-0.1,0.2-0.1,0.3-0.2c0.1-0.1,0.2-0.1,0.4-0.2c3.5-1.8,7.5-2.9,11.7-2.9
	c13.9,0,25.3,11.3,25.3,25.3S96.7,93,82.7,93z"/>
</svg>
