<?xml version="1.0" encoding="utf-8"?>
<!-- Generator: Adobe Illustrator 27.9.0, SVG Export Plug-In . SVG Version: 6.00 Build 0)  -->
<svg version="1.0" id="Layer_1" xmlns="http://www.w3.org/2000/svg" xmlns:xlink="http://www.w3.org/1999/xlink" x="0px" y="0px"
	 viewBox="0 0 174 96" enable-background="new 0 0 174 96" xml:space="preserve">
<g>
	<path fill="#0077B6" d="M60.6,8.7h20.8c0.3,0,0.5-0.2,0.5-0.5s-0.2-0.5-0.5-0.5H60.6c-0.3,0-0.5,0.2-0.5,0.5S60.4,8.7,60.6,8.7z"/>
	<path fill="#0077B6" d="M60.6,12.6h20.8c0.3,0,0.5-0.2,0.5-0.5s-0.2-0.5-0.5-0.5H60.6c-0.3,0-0.5,0.2-0.5,0.5S60.4,12.6,60.6,12.6z
		"/>
	<path fill="#0077B6" d="M99,8.7h20.8c0.3,0,0.5-0.2,0.5-0.5s-0.2-0.5-0.5-0.5H99c-0.3,0-0.5,0.2-0.5,0.5S98.8,8.7,99,8.7z"/>
	<path fill="#0077B6" d="M60.6,16.4h20.8c0.3,0,0.5-0.2,0.5-0.5s-0.2-0.5-0.5-0.5H60.6c-0.3,0-0.5,0.2-0.5,0.5S60.4,16.4,60.6,16.4z
		"/>
	<path fill="#0077B6" d="M60.6,20.2h20.8c0.3,0,0.5-0.2,0.5-0.5s-0.2-0.5-0.5-0.5H60.6c-0.3,0-0.5,0.2-0.5,0.5S60.4,20.2,60.6,20.2z
		"/>
	<path fill="#0077B6" d="M75.2,72H60.6c-0.3,0-0.5,0.2-0.5,0.5s0.2,0.5,0.5,0.5h14.5c0.3,0,0.5-0.2,0.5-0.5S75.4,72,75.2,72z"/>
	<path fill="#0077B6" d="M60.6,29.9h20.8c0.3,0,0.5-0.2,0.5-0.5s-0.2-0.5-0.5-0.5H60.6c-0.3,0-0.5,0.2-0.5,0.5S60.4,29.9,60.6,29.9z
		"/>
	<path fill="#0077B6" d="M107.7,19.8c0,0.3,0.2,0.5,0.5,0.5h59.2c0.3,0,0.5-0.2,0.5-0.5s-0.2-0.5-0.5-0.5h-59.2
		C107.9,19.3,107.7,19.5,107.7,19.8z"/>
	<path fill="#0077B6" d="M108.2,24.1h51.2c0.3,0,0.5-0.2,0.5-0.5s-0.2-0.5-0.5-0.5h-51.2c-0.3,0-0.5,0.2-0.5,0.5
		S107.9,24.1,108.2,24.1z"/>
	<path fill="#0077B6" d="M167.4,26.9h-59.2c-0.3,0-0.5,0.2-0.5,0.5s0.2,0.5,0.5,0.5h59.2c0.3,0,0.5-0.2,0.5-0.5
		S167.6,26.9,167.4,26.9z"/>
	<path fill="#0077B6" d="M108.2,31.8h42.7c0.3,0,0.5-0.2,0.5-0.5s-0.2-0.5-0.5-0.5h-42.7c-0.3,0-0.5,0.2-0.5,0.5
		S107.9,31.8,108.2,31.8z"/>
	<path fill="#0077B6" d="M167.4,40.2h-59.2c-0.3,0-0.5,0.2-0.5,0.5s0.2,0.5,0.5,0.5h59.2c0.3,0,0.5-0.2,0.5-0.5
		S167.6,40.2,167.4,40.2z"/>
	<path fill="#0077B6" d="M167.4,44h-59.2c-0.3,0-0.5,0.2-0.5,0.5s0.2,0.5,0.5,0.5h59.2c0.3,0,0.5-0.2,0.5-0.5S167.6,44,167.4,44z"/>
	<path fill="#0077B6" d="M167.4,83.7h-59.2c-0.3,0-0.5,0.2-0.5,0.5s0.2,0.5,0.5,0.5h59.2c0.3,0,0.5-0.2,0.5-0.5
		S167.6,83.7,167.4,83.7z"/>
	<path fill="#0077B6" d="M159.4,87.6h-51.2c-0.3,0-0.5,0.2-0.5,0.5s0.2,0.5,0.5,0.5h51.2c0.3,0,0.5-0.2,0.5-0.5
		S159.7,87.6,159.4,87.6z"/>
	<path fill="#0077B6" d="M126.4,11.5V0H54v47H7.2c-4,0-7.2,3.2-7.2,7.2V62c0,4,3.2,7.2,7.2,7.2H54v13.3h29.9h17.7V96H174V11.5H126.4
		z M55,1h70.4v10.5h-23.9v9.7H83.9v11.4H60.6c-0.3,0-0.5,0.2-0.5,0.5s0.2,0.5,0.5,0.5h23.2v2.8H60.6c-0.3,0-0.5,0.2-0.5,0.5
		s0.2,0.5,0.5,0.5h23.2v2.8H60.6c-0.3,0-0.5,0.2-0.5,0.5s0.2,0.5,0.5,0.5h23.2V47H55V1z M84.4,40.3h9.6c0.3,0,0.5,0.2,0.5,0.5
		s-0.2,0.5-0.5,0.5h-9.6c-0.3,0-0.5-0.2-0.5-0.5S84.1,40.3,84.4,40.3z M83.9,81.5H55V69.1h28.9V81.5z M102.1,75.9
		c-0.3,0-0.5-0.2-0.5-0.5v-6.7c0-0.3,0.2-0.5,0.5-0.5h-0.5H83.9H7.2C3.8,68.1,1,65.4,1,62v-7.8C1,50.8,3.8,48,7.2,48h76.7h18.7h22.5
		c3.4,0,6.2,2.8,6.2,6.2V62c0,3.4-2.8,6.2-6.2,6.2h-22.5h-0.5c0.3,0,0.5,0.2,0.5,0.5v6.7C102.6,75.7,102.3,75.9,102.1,75.9z
		 M137.5,71h-28.8v4.5c0,0.3-0.2,0.5-0.5,0.5s-0.5-0.2-0.5-0.5V70h29.8c0.3,0,0.5,0.2,0.5,0.5S137.8,71,137.5,71z M166.9,71v8.9
		h-58.2v-4h22.4c3.2,0,5.9-2.1,6.8-4.9H166.9z M173,95h-70.4V82.5v-6.6h5.1v5h60.2V70h-29.7c0.1-0.4,0.1-0.8,0.1-1.3v-7.8
		c0-3.5-2.6-6.5-6-7.1c-0.2-3.8-3.3-6.8-7.2-6.8h-22.5V37c0,0.3-0.2,0.5-0.5,0.5H84.4c-0.3,0-0.5-0.2-0.5-0.5s0.2-0.5,0.5-0.5h17.7
		c0.3,0,0.5,0.2,0.5,0.5v-3.8c0,0.3-0.2,0.5-0.5,0.5H84.4c-0.3,0-0.5-0.2-0.5-0.5s0.2-0.5,0.5-0.5h17.7c0.3,0,0.5,0.2,0.5,0.5V21.3
		v-8.7H173V95z"/>
</g>
<g>
	<g>
		
			<linearGradient id="SVGID_1_" gradientUnits="userSpaceOnUse" x1="94.5792" y1="1798.6533" x2="94.5792" y2="1792.7924" gradientTransform="matrix(1 0 0 1 0 -1783.8502)">
			<stop  offset="0" style="stop-color:#568BC4"/>
			<stop  offset="0.1908" style="stop-color:#6A9FD0"/>
			<stop  offset="0.4245" style="stop-color:#7BAFDA"/>
			<stop  offset="0.6808" style="stop-color:#85B9E0"/>
			<stop  offset="1" style="stop-color:#88BCE2"/>
		</linearGradient>
		<path fill="url(#SVGID_1_)" d="M93.2,8.9v1c0.9,0.1,1.6,0.9,1.6,1.9s-0.7,1.8-1.6,1.9v1c1.5-0.1,2.7-1.4,2.7-2.9
			S94.7,9.1,93.2,8.9z"/>
	</g>
	<g>
		
			<linearGradient id="SVGID_00000101787977122851453850000004966579655447786677_" gradientUnits="userSpaceOnUse" x1="91.355" y1="1798.6533" x2="91.355" y2="1792.7924" gradientTransform="matrix(1 0 0 1 0 -1783.8502)">
			<stop  offset="0" style="stop-color:#5BAC2A"/>
			<stop  offset="8.199999e-02" style="stop-color:#65B036"/>
			<stop  offset="0.2782" style="stop-color:#79B94E"/>
			<stop  offset="0.4872" style="stop-color:#88BE5F"/>
			<stop  offset="0.7156" style="stop-color:#90C269"/>
			<stop  offset="1" style="stop-color:#93C36C"/>
		</linearGradient>
		<path fill="url(#SVGID_00000101787977122851453850000004966579655447786677_)" d="M92.7,13.8c-0.9-0.1-1.6-0.9-1.6-1.9
			s0.7-1.8,1.6-1.9v-1c-1.5,0.1-2.7,1.4-2.7,2.9s1.2,2.8,2.7,2.9V13.8z"/>
	</g>
	<path fill="#5286C1" d="M95.9,15.9h-5.8c-0.6,0-1.1-0.5-1.1-1.1V9c0-0.6,0.5-1.1,1.1-1.1h5.8C96.5,7.9,97,8.4,97,9v5.8
		C97,15.4,96.5,15.9,95.9,15.9z M90.1,8.1c-0.5,0-0.9,0.4-0.9,0.9v5.8c0,0.5,0.4,0.9,0.9,0.9h5.8c0.5,0,0.9-0.4,0.9-0.9V9
		c0-0.5-0.4-0.9-0.9-0.9H90.1z"/>
</g>
<path fill="#EB0000" d="M165.4,64.8h-20.5c-1.1,0-2-0.9-2-2v-9.5c0-1.1,0.9-2,2-2h20.5c1.1,0,2,0.9,2,2v9.5
	C167.4,63.9,166.5,64.8,165.4,64.8z"/>
<rect x="142.9" y="55.2" fill="#0077B6" width="24.4" height="5.8"/>
<g>
	<g>
		<path fill="#DB6A00" d="M121.2,59.6c-0.3,0-0.5-0.2-0.5-0.5v-4.7c0-0.3,0.2-0.5,0.5-0.5s0.5,0.2,0.5,0.5v4.7
			C121.7,59.4,121.5,59.6,121.2,59.6z"/>
	</g>
	<g>
		<g>
			<path fill="#DB6A00" d="M121.2,62.2c-0.3,0-0.5-0.2-0.5-0.5v-0.5c0-0.3,0.2-0.5,0.5-0.5s0.5,0.2,0.5,0.5v0.5
				C121.7,62,121.5,62.2,121.2,62.2z"/>
		</g>
	</g>
</g>
<g>
	<g>
		<path fill="#DB6A00" d="M109,59.6c-0.3,0-0.5-0.2-0.5-0.5v-4.7c0-0.3,0.2-0.5,0.5-0.5s0.5,0.2,0.5,0.5v4.7
			C109.5,59.4,109.2,59.6,109,59.6z"/>
	</g>
	<g>
		<g>
			<path fill="#DB6A00" d="M109,62.2c-0.3,0-0.5-0.2-0.5-0.5v-0.5c0-0.3,0.2-0.5,0.5-0.5s0.5,0.2,0.5,0.5v0.5
				C109.5,62,109.2,62.2,109,62.2z"/>
		</g>
	</g>
</g>
<g>
	<g>
		<path fill="#DB6A00" d="M96.7,59.6c-0.3,0-0.5-0.2-0.5-0.5v-4.7c0-0.3,0.2-0.5,0.5-0.5s0.5,0.2,0.5,0.5v4.7
			C97.2,59.4,97,59.6,96.7,59.6z"/>
	</g>
	<g>
		<g>
			<path fill="#DB6A00" d="M96.7,62.2c-0.3,0-0.5-0.2-0.5-0.5v-0.5c0-0.3,0.2-0.5,0.5-0.5s0.5,0.2,0.5,0.5v0.5
				C97.2,62,97,62.2,96.7,62.2z"/>
		</g>
	</g>
</g>
<g>
	<g>
		<path fill="#DB6A00" d="M84.4,59.6c-0.3,0-0.5-0.2-0.5-0.5v-4.7c0-0.3,0.2-0.5,0.5-0.5s0.5,0.2,0.5,0.5v4.7
			C84.9,59.4,84.7,59.6,84.4,59.6z"/>
	</g>
	<g>
		<g>
			<path fill="#DB6A00" d="M84.4,62.2c-0.3,0-0.5-0.2-0.5-0.5v-0.5c0-0.3,0.2-0.5,0.5-0.5s0.5,0.2,0.5,0.5v0.5
				C84.9,62,84.7,62.2,84.4,62.2z"/>
		</g>
	</g>
</g>
<g>
	<g>
		<path fill="#DB6A00" d="M72.1,59.6c-0.3,0-0.5-0.2-0.5-0.5v-4.7c0-0.3,0.2-0.5,0.5-0.5s0.5,0.2,0.5,0.5v4.7
			C72.6,59.4,72.4,59.6,72.1,59.6z"/>
	</g>
	<g>
		<g>
			<path fill="#DB6A00" d="M72.1,62.2c-0.3,0-0.5-0.2-0.5-0.5v-0.5c0-0.3,0.2-0.5,0.5-0.5s0.5,0.2,0.5,0.5v0.5
				C72.6,62,72.4,62.2,72.1,62.2z"/>
		</g>
	</g>
</g>
<g>
	<g>
		<path fill="#DB6A00" d="M59.8,59.6c-0.3,0-0.5-0.2-0.5-0.5v-4.7c0-0.3,0.2-0.5,0.5-0.5s0.5,0.2,0.5,0.5v4.7
			C60.3,59.4,60.1,59.6,59.8,59.6z"/>
	</g>
	<g>
		<g>
			<path fill="#DB6A00" d="M59.8,62.2c-0.3,0-0.5-0.2-0.5-0.5v-0.5c0-0.3,0.2-0.5,0.5-0.5s0.5,0.2,0.5,0.5v0.5
				C60.3,62,60.1,62.2,59.8,62.2z"/>
		</g>
	</g>
</g>
<g>
	<g>
		<path fill="#DB6A00" d="M47.6,59.6c-0.3,0-0.5-0.2-0.5-0.5v-4.7c0-0.3,0.2-0.5,0.5-0.5s0.5,0.2,0.5,0.5v4.7
			C48.1,59.4,47.8,59.6,47.6,59.6z"/>
	</g>
	<g>
		<g>
			<path fill="#DB6A00" d="M47.6,62.2c-0.3,0-0.5-0.2-0.5-0.5v-0.5c0-0.3,0.2-0.5,0.5-0.5s0.5,0.2,0.5,0.5v0.5
				C48.1,62,47.8,62.2,47.6,62.2z"/>
		</g>
	</g>
</g>
<g>
	<g>
		<path fill="#DB6A00" d="M35.3,59.6c-0.3,0-0.5-0.2-0.5-0.5v-4.7c0-0.3,0.2-0.5,0.5-0.5s0.5,0.2,0.5,0.5v4.7
			C35.8,59.4,35.5,59.6,35.3,59.6z"/>
	</g>
	<g>
		<g>
			<path fill="#DB6A00" d="M35.3,62.2c-0.3,0-0.5-0.2-0.5-0.5v-0.5c0-0.3,0.2-0.5,0.5-0.5s0.5,0.2,0.5,0.5v0.5
				C35.8,62,35.5,62.2,35.3,62.2z"/>
		</g>
	</g>
</g>
<g>
	<g>
		<path fill="#DB6A00" d="M23,59.6c-0.3,0-0.5-0.2-0.5-0.5v-4.7c0-0.3,0.2-0.5,0.5-0.5s0.5,0.2,0.5,0.5v4.7
			C23.5,59.4,23.3,59.6,23,59.6z"/>
	</g>
	<g>
		<g>
			<path fill="#DB6A00" d="M23,62.2c-0.3,0-0.5-0.2-0.5-0.5v-0.5c0-0.3,0.2-0.5,0.5-0.5s0.5,0.2,0.5,0.5v0.5
				C23.5,62,23.3,62.2,23,62.2z"/>
		</g>
	</g>
</g>
<g>
	<g>
		<path fill="#DB6A00" d="M10.7,59.6c-0.3,0-0.5-0.2-0.5-0.5v-4.7c0-0.3,0.2-0.5,0.5-0.5s0.5,0.2,0.5,0.5v4.7
			C11.2,59.4,11,59.6,10.7,59.6z"/>
	</g>
	<g>
		<g>
			<path fill="#DB6A00" d="M10.7,62.2c-0.3,0-0.5-0.2-0.5-0.5v-0.5c0-0.3,0.2-0.5,0.5-0.5s0.5,0.2,0.5,0.5v0.5
				C11.2,62,11,62.2,10.7,62.2z"/>
		</g>
	</g>
</g>
</svg>
