<?xml version="1.0" encoding="utf-8"?>
<!-- Generator: Adobe Illustrator 27.9.0, SVG Export Plug-In . SVG Version: 6.00 Build 0)  -->
<svg version="1.0" id="Layer_2_00000111149924693926211710000016912779579739984297_"
	 xmlns="http://www.w3.org/2000/svg" xmlns:xlink="http://www.w3.org/1999/xlink" x="0px" y="0px" viewBox="0 0 138 85.8"
	 enable-background="new 0 0 138 85.8" xml:space="preserve">
<path fill="#EB0000" d="M111.7,47.5c-6.6,0-12,5.4-12,12s5.4,12,12,12s12-5.4,12-12S118.4,47.6,111.7,47.5z M111.7,50.5
	c1.9,0,3.7,0.6,5.2,1.7l-12.5,12.5c-1.1-1.5-1.7-3.3-1.7-5.2C102.7,54.6,106.8,50.5,111.7,50.5z M111.7,68.6c-1.9,0-3.7-0.6-5.2-1.7
	l12.5-12.5c1.1,1.5,1.7,3.3,1.7,5.2C120.7,64.5,116.7,68.6,111.7,68.6z"/>
<g>
	<path fill="#0098EB" d="M58.9,17.8h42.3c0.3,0,0.5-0.2,0.5-0.5s-0.2-0.5-0.5-0.5H58.9c-0.3,0-0.5,0.2-0.5,0.5S58.6,17.8,58.9,17.8z
		"/>
	<path fill="#0098EB" d="M113.9,33.4v-26c0-4-3.4-7.4-7.5-7.4H7.5C3.4,0,0,3.4,0,7.4v54.5c0,4,3.4,7.4,7.5,7.4h79.9
		c3.9,9.7,13.3,16.5,24.4,16.5c14.5,0,26.3-11.8,26.3-26.3S127.4,34.5,113.9,33.4z M7.8,68.3C8,55.5,18.3,45.1,31,44.6
		c0.3,0,0.6,0,1,0c0.3,0,0.6,0,0.9,0c12.7,0.5,22.9,10.9,23.2,23.7L7.8,68.3L7.8,68.3z M31,43.6c-6.7-0.5-12-6.1-12-12.9
		S24.9,17.9,32,17.9s12.9,5.8,12.9,12.9s-5.3,12.4-12,12.9c-0.3,0-0.7,0-1,0C31.6,43.6,31.3,43.6,31,43.6L31,43.6z M76.5,50.5
		c0,6.7,2.5,12.9,7,17.8H57.1C56.9,56.2,47.9,46.1,36.3,44c5.6-1.8,9.6-7,9.6-13.2c0-7.7-6.2-13.9-13.9-13.9s-13.9,6.2-13.9,13.9
		c0,6.2,4,11.4,9.6,13.2C16,46,7,56.1,6.8,68.3C3.6,67.9,1,65.2,1,61.9V7.4C1,3.9,4,1,7.5,1h98.9c3.5,0,6.5,2.9,6.5,6.4v18.9
		c-3.2-1.4-6.6-2.1-10.2-2.1c-5.5,0-10.6,1.7-14.8,4.6h-29c-0.3,0-0.5,0.2-0.5,0.5s0.2,0.5,0.5,0.5h27.7
		C80.4,34.7,76.5,42.2,76.5,50.5L76.5,50.5z M101.7,29.4c0,0.3-0.2,0.5-0.5,0.5H88c-0.3,0-0.5-0.2-0.5-0.5s0.2-0.5,0.5-0.5h13.1
		C101.4,28.9,101.7,29.1,101.7,29.4z M111.8,84.8c-10.7,0-19.9-6.7-23.6-16.2c0,0,0,0,0,0c-0.6-1.4-1-2.9-1.3-4.4c0,0,0-0.1,0-0.1
		c-0.1-0.7-0.2-1.5-0.3-2.2c0-0.1,0-0.1,0-0.2c-0.1-0.7-0.1-1.5-0.1-2.2c0-13.9,11.3-25.3,25.3-25.3l0,0c0.5,0,1.1,0,1.6,0
		c13.2,0.8,23.7,11.8,23.7,25.2S125.7,84.8,111.8,84.8L111.8,84.8z"/>
</g>
</svg>
