<?xml version="1.0" encoding="utf-8"?>
<!-- Generator: Adobe Illustrator 16.0.3, SVG Export Plug-In . SVG Version: 6.00 Build 0)  -->
<!DOCTYPE svg PUBLIC "-//W3C//DTD SVG 1.0//EN" "http://www.w3.org/TR/2001/REC-SVG-20010904/DTD/svg10.dtd">
<svg version="1.0" id="Layer_1" xmlns="http://www.w3.org/2000/svg" xmlns:xlink="http://www.w3.org/1999/xlink" x="0px" y="0px"
	 width="206px" height="206px" viewBox="6 6 206 206" enable-background="new 6 6 206 206" xml:space="preserve">
<path d="M90.0473633,175.0385742c-0.5395508-1.3027344-1.0112305-2.6162109-1.4516602-3.9335938l-5.9121094,14.2739258
	l-16.9511719-7.0209961l5.9179688-14.2871094l-3.765625-2.6640625c-5.6796875-4.0185547-10.5898438-8.9267578-14.5957031-14.5878906
	L50.625,143.0551758l-14.2802734,5.9150391l-7.0205078-16.9521484l14.2792969-5.9135742l-0.7783203-4.5463867
	c-1.1699219-6.8344727-1.1669922-13.7768555,0.0068359-20.6357422l0.7783203-4.5463867l-14.2861328-5.9165039l7.0205078-16.9521484
	l14.2861328,5.9179688l2.6640625-3.7651367c4.0195313-5.6806641,8.9277344-10.5908203,14.5869141-14.5966797l3.765625-2.6640625
	l-5.9150391-14.2792969l16.9511719-7.0214844l5.9150391,14.2792969l4.5458984-0.7783203
	c6.8339844-1.1694336,13.7773438-1.168457,20.6367188,0.0063477l4.5458984,0.777832l5.9169922-14.2856445l16.9511719,7.0224609
	L135.2773438,58.40625l3.7646484,2.6645508c5.6767578,4.0166016,10.5869141,8.9248047,14.5966797,14.5878906l2.6640625,3.7641602
	l14.2802734-5.9150391l7.0205078,16.9511719l-14.2416992,5.8989258c4.8979492,1.6362305,9.5795898,3.8930664,13.902832,6.7456055
	l6.3300781-2.6225586c2.4326172-1.0068359,4.3242188-2.9003906,5.3320313-5.3320313
	c1.0068359-2.4316406,1.0068359-5.1113281-0.0019531-7.5410156l-8.3203125-20.0927734
	c-2.0800781-5.0166016-7.8544922-7.4082031-12.8730469-5.3310547l-7.46875,3.09375
	c-3.2216797-3.9853516-6.8486328-7.6113281-10.8408203-10.8330078l3.0966797-7.4746094
	c1.0068359-2.4316406,1.0068359-5.109375-0.0009766-7.5405273c-1.0078125-2.4326172-2.9023438-4.3261719-5.3320313-5.3320313
	L127.09375,25.7749023c-2.4316406-1.0068359-5.109375-1.0053711-7.5400391,0.0019531
	c-2.4316406,1.0068359-4.3251953,2.8999023-5.3330078,5.3310547l-3.09375,7.4716797
	c-5.1054688-0.5429688-10.2333984-0.5449219-15.328125-0.0039063l-3.0917969-7.4667969
	c-2.0800781-5.0205078-7.8554688-7.4121094-12.875-5.3330078L59.7421875,34.097168
	c-5.0195313,2.0791016-7.4121094,7.8544922-5.3320313,12.8745117l3.0917969,7.4667969
	c-3.984375,3.2202148-7.609375,6.847168-10.8330078,10.8413086l-7.4736328-3.0957031
	c-2.4306641-1.0063477-5.109375-1.0068359-7.5410156,0c-2.4316406,1.0078125-4.3251953,2.9018555-5.3320313,5.3334961L18,87.6079102
	c-2.078125,5.019043,0.3134766,10.7939453,5.3330078,12.8730469l7.4736328,3.0957031
	c-0.5449219,5.1044922-0.5458984,10.2324219-0.0058594,15.3261719l-7.4677734,3.09375
	C20.9013672,123.003418,19.0078125,124.8979492,18,127.3295898c-1.0068359,2.4306641-1.0058594,5.1103516,0.0009766,7.5405273
	l8.3212891,20.090332c2.0791016,5.0195313,7.8535156,7.4121094,12.8740234,5.3325195l7.4677734-3.0932617
	c3.2207031,3.984375,6.8466797,7.609375,10.8408203,10.8334961l-3.0957031,7.4731445
	c-1.0068359,2.4316406-1.0068359,5.1098633,0,7.5415039c1.0068359,2.4311523,2.9013672,4.3256836,5.3330078,5.3320313
	l20.0898438,8.3217773c2.4316406,1.0068359,5.109375,1.0068359,7.5410156,0s4.3261719-2.9013672,5.3330078-5.3320313
	l2.637207-6.3666992C93.3041992,181.909668,91.5175781,178.5883789,90.0473633,175.0385742z" fill="#8e8e93"/>
<path d="M85.8178711,146.7548828c-13.0375977-6.4521484-22.0063477-19.8837891-22.0063477-35.4160156
	c0-21.8154297,17.6845703-39.5,39.5-39.5c15.4394531,0,28.8007813,8.8632813,35.2973633,21.7744141
	c3.8745117-0.3999023,7.7416992-0.4106445,11.5522461-0.0512695c-0.1816406-0.4794922-0.3554688-0.9599609-0.5527344-1.4365234
	c-10.5400391-25.4443359-39.8134766-37.5703125-65.2587891-27.0307617
	C58.90625,75.6342773,46.7792969,104.9077148,57.3193359,130.3530273c5.4804688,13.230957,16.0322266,22.8486328,28.4726563,27.5625
	C85.440918,154.171875,85.4604492,150.4365234,85.8178711,146.7548828z" fill="#8e8e93"/>
<path d="M183.5126953,183.3852539l-8.5625,8.5615234c-2.1396484,2.1386719-5.6181641,2.1396484-7.7597656,0.0009766
	l-3.1816406-3.1826172c-2.5058594,1.3637695-5.1445313,2.4555664-7.8857422,3.2636719v4.5029297
	c0,1.465332-0.5703125,2.84375-1.6064453,3.8798828s-2.4150391,1.6064453-3.8798828,1.6074219l-12.109375-0.0009766
	c-1.4648438,0-2.8427734-0.5703125-3.8789063-1.6064453c-1.0351563-1.0371094-1.6064453-2.4150391-1.6064453-3.8798828v-4.5048828
	c-2.7412109-0.8066406-5.3798828-1.8979492-7.8857422-3.2626953l-3.1816406,3.1826172
	c-2.140625,2.1396484-5.6210938,2.1401367-7.7597656,0.0009766l-8.5625-8.5625
	c-1.0351563-1.0351563-1.6064453-2.4140625-1.6064453-3.8789063c-0.0009766-1.4658203,0.5703125-2.84375,1.6064453-3.8798828
	l3.1835938-3.1831055c-1.3642578-2.5053711-2.4550781-5.1435547-3.2636719-7.8862305l-4.5039063,0.0009766
	c-3.0253906,0-5.4863281-2.4609375-5.4863281-5.4863281v-12.1083984c0-1.4648438,0.5703125-2.8432617,1.6064453-3.8798828
	c1.0361328-1.0361328,2.4140625-1.6064453,3.8798828-1.6074219l4.5029297,0.0009766
	c0.8085938-2.7421875,1.9003906-5.3808594,3.2646484-7.8867188l-3.1835938-3.1816406
	c-2.1386719-2.1391602-2.1386719-5.6201172,0-7.7587891l8.5625-8.5625c2.1396484-2.1391602,5.6201172-2.1386719,7.7597656,0
	l3.1816406,3.1821289c2.5058594-1.3637695,5.1445313-2.4545898,7.8857422-3.2636719v-4.503418
	c0-1.4648438,0.5703125-2.8427734,1.6064453-3.8779297c1.0361328-1.0366211,2.4140625-1.6079102,3.8798828-1.6083984
	l12.1083984,0.0009766c1.4658203-0.0009766,2.8427734,0.5693359,3.8798828,1.6064453
	c1.0361328,1.0361328,1.6064453,2.4140625,1.6064453,3.8789063v4.5039063
	c2.7402344,0.8076172,5.3789063,1.9003906,7.8857422,3.2641602l3.1816406-3.1831055
	c2.1396484-2.1386719,5.6201172-2.1386719,7.7597656-0.0009766l8.5615234,8.5634766
	c1.0361328,1.0351563,1.6074219,2.4130859,1.6074219,3.8793945s-0.5693359,2.8427734-1.6064453,3.878418l-3.1826172,3.1835938
	c1.3642578,2.5058594,2.4560547,5.1435547,3.2636719,7.8847656l4.5029297,0.0009766
	c3.0253906-0.0004883,5.4863281,2.4619141,5.4863281,5.4858398l0.0009766,12.1088867
	c0,1.465332-0.5703125,2.8427734-1.6074219,3.8793945c-1.0361328,1.0366211-2.4130859,1.6069336-3.8789063,1.6064453
	l-4.5039063,0.0004883c-0.8085938,2.7412109-1.9003906,5.3779297-3.2636719,7.8857422l3.1826172,3.1826172
	C185.6513672,177.7651367,185.6503906,181.2460938,183.5126953,183.3852539z M168.4873047,183.4428711l6.5200195-6.5200195
	l-5.4921875-5.4916992l1.2353516-1.9614258c1.859375-2.9506836,3.1923828-6.1743164,3.965332-9.5825195l0.5126953-2.2592773
	L183,157.6274414l0.0004883-9.2202148l-7.7700195,0.0004883l-0.5141602-2.2612305
	c-0.7734375-3.4086914-2.1074219-6.6333008-3.9648438-9.5820313l-1.2353516-1.9604492l5.4912109-5.4921875l-6.5200195-6.5200195
	l-5.4916992,5.4921875l-1.9609375-1.2348633c-2.949707-1.8579102-6.1748047-3.1933594-9.5820313-3.9658203l-2.2597656-0.5136719
	v-7.7700195l-9.2207031-0.0004883v7.7705078l-2.2607422,0.5131836c-3.409668,0.7734375-6.6337891,2.1083984-9.5820313,3.965332
	l-1.9609375,1.2353516l-5.4916992-5.4921875l-6.5200195,6.5205078l5.4926758,5.4921875l-1.2358398,1.9609375
	c-1.8574219,2.9477539-3.1914063,6.1713867-3.9648438,9.5810547l-0.5131836,2.2617188l-7.7714844-0.0009766v9.2211914
	l7.7714844-0.0004883l0.5131836,2.2602539c0.7744141,3.4101563,2.1074219,6.6337891,3.9648438,9.581543l1.2348633,1.9619141
	l-5.4926758,5.4912109l6.5209961,6.5205078l5.4916992-5.4921875l1.9619141,1.2353516
	c2.9492188,1.8569336,6.1723633,3.1914063,9.5800781,3.965332l2.2617188,0.5126953v7.7714844l9.2207031-0.0004883v-7.7705078
	l2.2607422-0.512207c3.4086914-0.7744141,6.6318359-2.1083984,9.5810547-3.9663086l1.9609375-1.2353516L168.4873047,183.4428711z" fill="#8e8e93"/>
<path d="M160.6000977,136.9990234c-8.8334961-8.8320313-23.2026367-8.8320313-32.0351563,0.0009766
	c-8.8325195,8.831543-8.8325195,23.2026367,0,32.0341797c8.8325195,8.8325195,23.2026367,8.8330078,32.034668,0.0004883
	C169.4316406,160.2026367,169.4326172,145.831543,160.6000977,136.9990234z M144.4072266,166.7856445
	c-7.5419922,0-13.6557617-6.112793-13.6557617-13.6542969c0-7.5424805,6.1137695-13.6552734,13.6557617-13.6552734
	c7.5424805,0,13.6552734,6.112793,13.6552734,13.6552734C158.0625,160.6728516,151.949707,166.7856445,144.4072266,166.7856445z" fill="#8e8e93"/>
</svg>
