<?xml version="1.0" encoding="UTF-8" standalone="no"?>
<svg version="1.1" xmlns="http://www.w3.org/2000/svg" xmlns:xlink="http://www.w3.org/1999/xlink" width="1440px" height="792px" viewBox="0 0 14400 7920">
  <defs>
    <g id="form">
      <circle cx="855" cy="330" r="140" />
      <path d="M 990 1370 a 70 70 0 0 1 -70 70 h -130 a 70 70 0 0 1 -70 -70 v -310 h -10 a 70 70 0 0 1 -70 -70 v -400 a 70 70 0 0 1 70 -70 h 320 a 100 100 0 0 0 -50 90 v 450 a 100 100 0 0 0 10 40 z" />
    </g>
    <radialGradient id="verlauf" cy="0.82" r="0.71" gradientTransform="scale(1 1.86)">
      <stop offset="0%" stop-color="white" />
      <stop offset="100%" stop-color="#aa417a" />
    </radialGradient>
  </defs>
  <rect width="14400" height="6000" fill="url(#verlauf)" />
  <path d="M 0 4300 C 0 4300 7200 6800 14400 4300 V 7920 H 0 Z" fill="#851e6b"/>
  <g fill="#ffffff" transform="translate(4420,2200) scale(3.25,3.25)">
    <circle cx="855" cy="330" r="140" />
    <rect x="640" y="520" rx="70" ry="70" width="430" height="540" />
    <rect x="720" y="940" rx="70" ry="70" width="270" height="500" />
    <use xlink:href="#form" transform="translate(-290,44) scale(0.91,0.91)" />
    <use xlink:href="#form" transform="translate(2000,44) scale(-0.91,0.91)" />
  </g>
</svg>
