<?xml version="1.0" encoding="UTF-8" standalone="no"?>
<svg version="1.1" xmlns="http://www.w3.org/2000/svg" xmlns:xlink="http://www.w3.org/1999/xlink" width="170px" height="170px" viewBox="0 0 1700 1700">
  <defs>
    <path id="form" d="M2455 2769 c-438 -77 -756 -265 -873 -517 -38 -84 -52 -149 -52 -254 l0 -96 -32 -11 c-18 -5 -69 -19 -113 -31 -44 -12 -83 -24 -86 -26 -6 -3 18 -155 26 -162 1 -1 51 11 110 28 60 16 114 30 120 30 10 0 41 -128 33 -135 -2 -1 -54 -16 -117 -33 -62 -17 -115 -32 -116 -34 -5 -4 23 -150 30 -156 4 -4 99 19 226 55 13 4 21 -8 33 -45 39 -115 137 -227 250 -284 229 -116 600 -86 951 76 l75 35 -19 48 c-11 27 -33 83 -51 125 l-32 76 -91 -43 c-128 -61 -240 -89 -357 -89 -110 -1 -169 20 -231 80 -41 40 -87 130 -73 143 5 4 110 36 234 70 123 34 226 64 228 66 4 3 -26 157 -31 161 -1 1 -107 -28 -235 -64 -128 -35 -235 -62 -238 -59 -3 3 -11 33 -18 67 -15 74 -45 57 239 135 116 32 213 61 218 65 7 6 -18 148 -27 158 -2 2 -109 -26 -237 -62 -129 -35 -236 -63 -238 -60 -3 3 -5 36 -4 73 2 139 82 249 230 318 96 44 239 82 341 90 l82 6 0 138 c0 162 18 148 -155 118z"/>
  </defs>
  <circle cx="850" cy="850" r="850" fill="#eac75a" />
  <g transform="translate(170,170) scale(0.8,0.8)">
    <ellipse cx="850" cy="1000" rx="600" ry="450" fill="#ffffff" />
    <ellipse cx="850" cy="870" rx="600" ry="450" fill="#f49937" />
    <ellipse cx="850" cy="810" rx="600" ry="450" fill="#ffffff" />
    <use xlink:href="#form" transform="translate(200,240) scale(0.30,0.30)" fill="#f49937" />
  </g>
</svg>
