<?xml version="1.0" encoding="UTF-8" standalone="no"?>
<svg version="1.1" xmlns="http://www.w3.org/2000/svg" xmlns:xlink="http://www.w3.org/1999/xlink" width="228px" height="392px" viewBox="0 0 2280 3920">
  <defs>
    <path id="form" d="M723 1450 c-179 -90 -345 -407 -402 -770 -14 -82 -14 -221 -1 -254 12 -32 97 -89 175 -117 78 -28 215 -30 298 -6 52 16 62 16 110 3 127 -36 248 -26 358 29 112 57 129 82 129 192 0 235 -116 594 -253 779 -85 116 -165 165 -277 172 -68 3 -80 1 -137 -28z" />
    <radialGradient id="verlauf" cy="1.76" r="1" gradientTransform="scale(1 0.82)">
      <stop offset="0%" stop-color="white" />
      <stop offset="100%" stop-color="#5455a0" />
    </radialGradient>
  </defs>
  <rect width="2280" height="2400" fill="url(#verlauf)" />
  <path d="M 0 1960 C 0 1960 1140 2700 2280 1960 V 3920 H 0 Z" fill="#53428c"/>
  <g transform="translate(335,1385) scale(0.95,0.95)">
    <use xlink:href="#form" fill="#ffffff" />
    <use xlink:href="#form" fill="#5455a0" transform="translate(60,60) scale(0.93,0.93)" />
    <use xlink:href="#form" fill="#ffffff" transform="translate(112,112) scale(0.87,0.87)" />
  </g>
</svg>
