<?xml version="1.0" encoding="UTF-8" standalone="no"?>
<svg version="1.1" xmlns="http://www.w3.org/2000/svg" width="400" height="400" viewBox="0 0 400 400">
  <linearGradient id="verlauf" gradientUnits="userSpaceOnUse" x1="298" y1="-108" x2="298" y2="292" gradientTransform="matrix(1,0,0,-1,-42,348)">
    <stop offset="0" style="stop-color:#98C8E8" />
    <stop offset="1" style="stop-color:#4d7aa4" />
  </linearGradient>
  <rect width="400" height="400" rx="90" ry="90" fill="url(#verlauf)" />
  <g transform="translate(-56, -56)" fill="#ffffff">
    <path d="m 256,114.621 c 77.953,0 141.376,63.416 141.376,141.376 0,77.953 -63.423,141.362 -141.376,141.362 -77.967,0 -141.376,-63.409 -141.376,-141.362 0,-77.96 63.409,-141.376 141.376,-141.376
             m 0,-10.348 c -83.793,0 -151.717,67.938 -151.717,151.724 0,83.793 67.924,151.717 151.717,151.717 83.779,0 151.717,-67.924 151.717,-151.717 0,-83.786 -67.938,-151.724 -151.717,-151.724" />
  </g>
  <text text-anchor="middle" x="200" y="270" font-size="256" fill="#ffffff">ยง</text>
</svg>
