<?xml version="1.0" encoding="UTF-8" standalone="no"?>
<svg
   xmlns="http://www.w3.org/2000/svg" width="400" height="400" viewBox="0 0 400 400">
  <defs
     id="defs19" />
  <linearGradient id="verlauf" gradientUnits="userSpaceOnUse" x1="298" y1="-108" x2="298" y2="292" gradientTransform="matrix(1,0,0,-1,-42,348)">
    <stop offset="0" style="stop-color:#98C8E8" id="stop2" />
    <stop offset="1" style="stop-color:#4d7aa4" id="stop4" />
  </linearGradient>
  <rect width="400" height="400" rx="90" ry="90" id="rect7" fill="url(#verlauf)" />
    <g transform="translate(-56, -56)" fill="#ffffff">
      <path d="m 256,114.621 c 77.953,0 141.376,63.416 141.376,141.376 0,77.953 -63.423,141.362 -141.376,141.362 -77.967,0 -141.376,-63.409 -141.376,-141.362 0,-77.96 63.409,-141.376 141.376,-141.376 m 0,-10.348 c -83.793,0 -151.717,67.938 -151.717,151.724 0,83.793 67.924,151.717 151.717,151.717 83.779,0 151.717,-67.924 151.717,-151.717 0,-83.786 -67.938,-151.724 -151.717,-151.724" />
    </g>
  <path
     d="M 208.36864,113.14407 H 182.3983 v 103.88135 l 90.89618,54.53772 12.98516,-21.29568 -77.911,-46.22721 z"
     id="path13"
     style="stroke-width:17.31355858;fill:#ffffff" />
</svg>
