<?xml version="1.0" encoding="UTF-8" standalone="no"?>
<svg xmlns="http://www.w3.org/2000/svg" version="1.1" width="400" height="400" viewBox="0 0 400 400" id="svg13">
  <linearGradient id="verlauf" gradientUnits="userSpaceOnUse" x1="298" y1="-108" x2="298" y2="292" gradientTransform="matrix(1,0,0,-1,-42,348)">
    <stop offset="0" style="stop-color:#98C8E8" id="stop2" />
    <stop offset="1" style="stop-color:#4d7aa4" id="stop4" />
  </linearGradient>
  <rect width="400" height="400" rx="90" ry="90" fill="url(#verlauf)" id="rect7" />
  <g transform="scale(16.666667)" style="fill:#ffffff">
    <path d="M 0,0 H 24 V 24 H 0 Z" style="fill:none" />
    <path d="m 2.7369364,15.152 1.92,3.312 c 0.128,0.208 0.368,0.288 0.592,0.208 l 2.384,-0.96 c 0.496,0.384 1.024,0.704 1.616,0.944 l 0.352,2.544 c 0.048,0.224 0.24,0.4 0.4799996,0.4 h 3.84 c 0.24,0 0.432,-0.176 0.48,-0.416 l 0.352,-2.544 c 0.576,-0.24 1.12,-0.56 1.616,-0.944 l 2.384,0.96 c 0.224,0.08 0.464,0 0.592,-0.208 l 1.92,-3.312 c 0.128,-0.208 0.064,-0.464 -0.112,-0.624 l -2.032,-1.584 c 0.048,-0.304 0.064,-0.624 0.064,-0.928 0,-0.32 -0.032,-0.624 -0.064,-0.944 l 2.032,-1.584 c 0.176,-0.144 0.24,-0.416 0.112,-0.624 l -1.92,-3.312 c -0.128,-0.208 -0.368,-0.288 -0.592,-0.208 l -2.384,0.96 c -0.496,-0.384 -1.024,-0.704 -1.616,-0.944 l -0.352,-2.544 c -0.048,-0.224 -0.24,-0.4 -0.48,-0.4 h -3.84 C 9.8409364,2.4 9.6489364,2.576 9.6009364,2.816 l -0.352,2.544 c -0.576,0.24 -1.136,0.544 -1.616,0.928 l -2.384,-0.96 c -0.224,-0.08 -0.464,0 -0.592,0.208 l -1.92,3.312 c -0.128,0.208 -0.064,0.464 0.112,0.624 l 2.032,1.584 c -0.048,0.32 -0.08,0.624 -0.08,0.944 0,0.32 0.032,0.624 0.064,0.944 l -2.032,1.584 c -0.176,0.16 -0.224,0.416 -0.096,0.624 z M 12.000936,9.264 c 1.504,0 2.736,1.232 2.736,2.736 0,1.504 -1.232,2.736 -2.736,2.736 -1.504,0 -2.7359996,-1.232 -2.7359996,-2.736 0,-1.504 1.2319996,-2.736 2.7359996,-2.736 z" style="fill:#ffffff" />
  </g>
</svg>
