<?xml version="1.0" encoding="UTF-8" standalone="no"?>
<!-- Generator: Adobe Illustrator 16.0.0, SVG Export Plug-In . SVG Version: 6.00 Build 0)  -->

<svg
   xmlns:dc="http://purl.org/dc/elements/1.1/"
   xmlns:cc="http://creativecommons.org/ns#"
   xmlns:rdf="http://www.w3.org/1999/02/22-rdf-syntax-ns#"
   xmlns:svg="http://www.w3.org/2000/svg"
   xmlns="http://www.w3.org/2000/svg"
   xmlns:sodipodi="http://sodipodi.sourceforge.net/DTD/sodipodi-0.dtd"
   xmlns:inkscape="http://www.inkscape.org/namespaces/inkscape"
   version="1.1"
   id="Layer_1"
   x="0px"
   y="0px"
   width="400"
   height="399.99301"
   viewBox="0 0 400 399.99301"
   enable-background="new 0 0 512 512"
   xml:space="preserve"
   inkscape:version="0.91 r13725"
   sodipodi:docname="icon_mehr_fragen.svg"><metadata
     id="metadata3496"><rdf:RDF><cc:Work
         rdf:about=""><dc:format>image/svg+xml</dc:format><dc:type
           rdf:resource="http://purl.org/dc/dcmitype/StillImage" /><dc:title></dc:title></cc:Work></rdf:RDF></metadata><defs
     id="defs3494" /><sodipodi:namedview
     pagecolor="#ffffff"
     bordercolor="#666666"
     borderopacity="1"
     objecttolerance="10"
     gridtolerance="10"
     guidetolerance="10"
     inkscape:pageopacity="0"
     inkscape:pageshadow="2"
     inkscape:window-width="1920"
     inkscape:window-height="1056"
     id="namedview3492"
     showgrid="false"
     fit-margin-top="0"
     fit-margin-left="0"
     fit-margin-right="0"
     fit-margin-bottom="0"
     inkscape:zoom="0.4609375"
     inkscape:cx="200"
     inkscape:cy="199.997"
     inkscape:window-x="1920"
     inkscape:window-y="24"
     inkscape:window-maximized="1"
     inkscape:current-layer="Layer_1" /><g
     id="Layer_3"
     transform="translate(-56,-56.004)"><g
       id="g3472"><linearGradient
         id="SVGID_1_"
         gradientUnits="userSpaceOnUse"
         x1="297.66019"
         y1="-107.9565"
         x2="297.6601"
         y2="292.03561"
         gradientTransform="matrix(1,0,0,-1,-41.6602,348.04)"><stop
           offset="0"
           style="stop-color:#98C8E8"
           id="stop3475" /><stop
           offset="1"
           style="stop-color:#659CCD"
           id="stop3477" /></linearGradient><path
         d="m 366.003,455.997 -220.006,0 C 96.295,455.997 56,415.688 56,366 l 0,-220.006 c 0,-49.696 40.295,-89.99 89.997,-89.99 l 220.006,0 c 49.688,0 89.997,40.294 89.997,89.99 L 456,366 c 0,49.688 -40.309,89.997 -89.997,89.997"
         id="path3479"
         inkscape:connector-curvature="0"
         style="fill:url(#SVGID_1_)" /><path
         d="m 256,125.995 c 80.995,0 146.661,54.475 146.661,121.668 0,42.64 -26.467,80.136 -66.505,101.872 -0.055,0.055 -0.162,0.136 -0.324,0.217 -6.488,2.92 -3.162,12.896 4.326,22.061 5.704,7.002 16.68,14.166 12.517,14.166 -6.678,0 -21.194,-3.082 -30.306,-8.138 -13.544,-7.462 -23.006,-13.923 -35.198,-11.272 l 0,-0.027 c -10.03,1.813 -20.479,2.784 -31.171,2.784 -80.995,0 -146.661,-54.474 -146.661,-121.661 0,-67.195 65.666,-121.67 146.661,-121.67"
         id="path3481"
         inkscape:connector-curvature="0"
         style="fill:#ffffff" /><g
         id="g3483"><linearGradient
           id="SVGID_2_"
           gradientUnits="userSpaceOnUse"
           x1="297.6572"
           y1="43.192902"
           x2="297.6572"
           y2="163.5488"
           gradientTransform="matrix(1,0,0,-1,-41.6602,348.04)"><stop
             offset="0"
             style="stop-color:#98C8E8"
             id="stop3486" /><stop
             offset="1"
             style="stop-color:#659CCD"
             id="stop3488" /></linearGradient><path
           d="m 222.585,208.362 c 1.69,-4.832 4.136,-9.029 7.327,-12.598 3.176,-3.562 7.069,-6.333 11.679,-8.313 4.623,-1.974 9.772,-2.96 15.478,-2.96 5.164,0 9.854,0.736 14.084,2.224 4.219,1.48 7.867,3.622 10.949,6.42 3.056,2.798 5.447,6.231 7.15,10.293 1.703,4.055 2.555,8.719 2.555,13.983 0,3.406 -0.404,6.454 -1.242,9.145 -0.813,2.689 -1.894,5.13 -3.19,7.326 -1.324,2.196 -2.838,4.224 -4.541,6.089 -1.703,1.872 -3.435,3.677 -5.19,5.434 -1.758,1.649 -3.488,3.325 -5.178,5.021 -1.703,1.703 -3.23,3.515 -4.609,5.434 -1.379,1.92 -2.459,4.008 -3.297,6.251 -0.813,2.252 -1.23,4.807 -1.23,7.658 l 0,6.42 -13.99,0 0,-7.737 c 0.216,-4.609 1.068,-8.529 2.555,-11.772 1.474,-3.231 3.285,-6.118 5.434,-8.646 2.137,-2.521 4.38,-4.853 6.745,-6.995 2.353,-2.136 4.541,-4.386 6.582,-6.745 2.027,-2.365 3.65,-4.968 4.854,-7.819 1.216,-2.859 1.703,-6.313 1.486,-10.375 -0.433,-6.035 -2.394,-10.753 -5.841,-14.159 -3.459,-3.399 -8.149,-5.109 -14.084,-5.109 -3.946,0 -7.354,0.724 -10.205,2.149 -2.852,1.426 -5.245,3.346 -7.164,5.758 -1.919,2.412 -3.312,5.272 -4.19,8.563 -0.878,3.292 -1.324,6.86 -1.324,10.706 l -13.99,0 c -0.113,-5.603 0.684,-10.813 2.387,-15.646 z m 42.715,78.21 0,18.275 -18.275,0 0,-18.275 18.275,0 z"
           id="path3490"
           inkscape:connector-curvature="0"
           style="fill:url(#SVGID_2_)" /></g></g></g></svg>