<?xml version="1.0" encoding="UTF-8" standalone="no"?>
<!-- Generator: Adobe Illustrator 16.0.0, SVG Export Plug-In . SVG Version: 6.00 Build 0)  -->

<svg
   xmlns:dc="http://purl.org/dc/elements/1.1/"
   xmlns:cc="http://creativecommons.org/ns#"
   xmlns:rdf="http://www.w3.org/1999/02/22-rdf-syntax-ns#"
   xmlns:svg="http://www.w3.org/2000/svg"
   xmlns="http://www.w3.org/2000/svg"
   xmlns:xlink="http://www.w3.org/1999/xlink"
   xmlns:sodipodi="http://sodipodi.sourceforge.net/DTD/sodipodi-0.dtd"
   xmlns:inkscape="http://www.inkscape.org/namespaces/inkscape"
   version="1.1"
   id="Layer_2"
   x="0px"
   y="0px"
   width="400"
   height="399.987"
   viewBox="0 0 400 399.987"
   enable-background="new 0 0 512 512"
   xml:space="preserve"
   inkscape:version="0.91 r13725"
   sodipodi:docname="icon_mehr_info.svg"><metadata
     id="metadata32"><rdf:RDF><cc:Work
         rdf:about=""><dc:format>image/svg+xml</dc:format><dc:type
           rdf:resource="http://purl.org/dc/dcmitype/StillImage" /><dc:title></dc:title></cc:Work></rdf:RDF></metadata><defs
     id="defs30" /><sodipodi:namedview
     pagecolor="#ffffff"
     bordercolor="#666666"
     borderopacity="1"
     objecttolerance="10"
     gridtolerance="10"
     guidetolerance="10"
     inkscape:pageopacity="0"
     inkscape:pageshadow="2"
     inkscape:window-width="1855"
     inkscape:window-height="1056"
     id="namedview28"
     showgrid="false"
     fit-margin-top="0"
     fit-margin-left="0"
     fit-margin-right="0"
     fit-margin-bottom="0"
     inkscape:zoom="0.4609375"
     inkscape:cx="-125.42373"
     inkscape:cy="199.997"
     inkscape:window-x="65"
     inkscape:window-y="24"
     inkscape:window-maximized="1"
     inkscape:current-layer="Layer_2" /><g
     id="g3"
     transform="translate(-56,-56.009998)"><g
       id="g5"><defs
         id="defs7"><path
           id="SVGID_1_"
           d="M 145.673,56.004 C 96.146,56.004 56,96.123 56,145.643 l 0,220.709 c 0,49.473 40.146,89.646 89.673,89.646 l 220.682,0 c 49.526,0 89.646,-40.173 89.646,-89.646 l 0,-220.709 c 0,-49.52 -40.119,-89.639 -89.646,-89.639 l -220.682,0 z"
           inkscape:connector-curvature="0" /></defs><clipPath
         id="SVGID_2_"><use
           xlink:href="#SVGID_1_"
           overflow="visible"
           id="use11"
           style="overflow:visible"
           x="0"
           y="0"
           width="100%"
           height="100%" /></clipPath><linearGradient
         id="SVGID_3_"
         gradientUnits="userSpaceOnUse"
         x1="-6985.3623"
         y1="7359.7578"
         x2="-6978.4658"
         y2="7359.7578"
         gradientTransform="matrix(0,-58,-58,0,427122,-404695)"><stop
           offset="0"
           style="stop-color:#98C8E8"
           id="stop14" /><stop
           offset="1"
           style="stop-color:#659CCD"
           id="stop16" /></linearGradient><rect
         x="56"
         y="56.009998"
         clip-path="url(#SVGID_2_)"
         width="400"
         height="399.987"
         id="rect18"
         style="fill:url(#SVGID_3_)" /></g><g
       id="g20"><path
         d="m 256,114.621 c 77.953,0 141.376,63.416 141.376,141.376 0,77.953 -63.423,141.362 -141.376,141.362 -77.967,0 -141.376,-63.409 -141.376,-141.362 0,-77.96 63.409,-141.376 141.376,-141.376 m 0,-10.348 c -83.793,0 -151.717,67.938 -151.717,151.724 0,83.793 67.924,151.717 151.717,151.717 83.779,0 151.717,-67.924 151.717,-151.717 0,-83.786 -67.938,-151.724 -151.717,-151.724"
         id="path22"
         inkscape:connector-curvature="0"
         style="fill:#ffffff" /><path
         d="m 273.248,180.132 c 0,9.529 -7.732,17.241 -17.248,17.241 -9.529,0 -17.248,-7.712 -17.248,-17.241 0,-9.523 7.719,-17.241 17.248,-17.241 9.516,0 17.248,7.718 17.248,17.241"
         id="path24"
         inkscape:connector-curvature="0"
         style="fill:#ffffff" /><polygon
         points="228.411,228.408 242.199,228.408 242.199,331.855 228.411,331.855 228.411,338.749 283.575,338.749 283.575,331.855 269.787,331.855 269.787,221.515 228.411,221.515 "
         id="polygon26"
         style="fill:#ffffff" /></g></g></svg>