<?xml version="1.0" encoding="utf-8"?>
<!-- Generator: Adobe Illustrator 16.0.0, SVG Export Plug-In . SVG Version: 6.00 Build 0)  -->
<!DOCTYPE svg PUBLIC "-//W3C//DTD SVG 1.1//EN" "http://www.w3.org/Graphics/SVG/1.1/DTD/svg11.dtd">
<svg version="1.1" id="Layer_1" xmlns="http://www.w3.org/2000/svg" xmlns:xlink="http://www.w3.org/1999/xlink" x="0px" y="0px"
	 width="512px" height="512px" viewBox="0 0 512 512" enable-background="new 0 0 512 512" xml:space="preserve">
<g>
	<path fill="#FFFFFF" d="M436.683,256.398c0,100.117-81.166,181.282-181.286,181.282c-100.117,0-181.28-81.165-181.28-181.282
		c0-100.118,81.163-181.281,181.28-181.281C355.517,75.118,436.683,156.281,436.683,256.398z"/>
	<path fill="#DCEBF6" d="M255.396,456.398c-110.28,0-199.997-89.72-199.997-200S145.117,56.401,255.396,56.401
		c110.283,0,200.003,89.717,200.003,199.998S365.68,456.398,255.396,456.398z M255.396,93.835
		c-89.639,0-162.563,72.925-162.563,162.563c0,89.641,72.924,162.566,162.563,162.566c89.645,0,162.569-72.926,162.569-162.566
		C417.966,166.76,345.041,93.835,255.396,93.835z"/>
</g>
<circle fill="#DCEBF6" cx="255.397" cy="256.398" r="133.815"/>
<path fill="#68B633" d="M196.128,280.614c7.912,21.703,20.335,37.694,38.703,51.545c9.032,6.81,20.226-0.987,23.568-9.589
	c17.133-44.117,38.522-86.035,63.694-126.099c11.04-17.578-16.732-33.666-27.71-16.194c-26.665,42.45-48.79,87.045-66.927,133.759
	c7.857-3.196,15.714-6.393,23.568-9.588c-11.286-8.508-19.14-19.15-23.955-32.362C220.042,252.808,189.026,261.13,196.128,280.614
	L196.128,280.614z"/>
</svg>
