<?xml version="1.0" encoding="utf-8"?>
<!-- Generator: Adobe Illustrator 27.9.0, SVG Export Plug-In . SVG Version: 6.00 Build 0)  -->
<svg version="1.2" baseProfile="tiny" id="Layer_1" xmlns="http://www.w3.org/2000/svg" xmlns:xlink="http://www.w3.org/1999/xlink"
	 x="0px" y="0px" viewBox="0 0 78 48" overflow="visible" xml:space="preserve">
<g>
	<path fill="#0077B6" d="M72.8,0H5.2C2.4,0,0,2.4,0,5.2v37.6C0,45.6,2.4,48,5.2,48h67.6l0,0c2.9,0,5.2-2.3,5.2-5.2V5.3
		C78,2.4,75.6,0,72.8,0z M21.1,30.2c-4.5-0.3-8.1-4-8.1-8.6c0-4.8,3.9-8.7,8.7-8.7s8.7,3.9,8.7,8.7c0,4.6-3.6,8.4-8.2,8.6
		c-0.2,0-0.3,0-0.5,0C21.4,30.2,21.2,30.2,21.1,30.2z M21.6,31.2c0.2,0,0.3,0,0.5,0c8.6,0.3,15.6,7.2,15.8,15.9H5.2
		c0.2-8.6,7.2-15.6,15.8-15.9C21.2,31.2,21.4,31.2,21.6,31.2z M76.9,42.8c0,2.3-1.8,4.2-4.1,4.2H38.9c-0.2-8.1-6-14.9-13.7-16.5
		c3.6-1.4,6.1-4.9,6.1-9c0-5.3-4.3-9.7-9.7-9.7s-9.7,4.3-9.7,9.7c0,4.1,2.5,7.6,6.1,9c-7.7,1.6-13.5,8.3-13.8,16.4
		c-1.9-0.4-3.3-2.1-3.3-4.1V5.3c0-2.3,1.9-4.2,4.2-4.2h67.6c2.3,0,4.2,1.9,4.2,4.2V42.8z"/>
	<path fill="#0077B6" d="M68.9,11.8h-29c-0.3,0-0.5,0.2-0.5,0.5s0.2,0.5,0.5,0.5h28.9c0.3,0,0.5-0.2,0.5-0.5
		C69.4,12,69.1,11.8,68.9,11.8z"/>
	<path fill="#0077B6" d="M68.9,20.1h-29c-0.3,0-0.5,0.2-0.5,0.5s0.2,0.5,0.5,0.5h28.9c0.3,0,0.5-0.2,0.5-0.5
		C69.4,20.3,69.1,20.1,68.9,20.1z"/>
</g>
</svg>
