<?xml version="1.0" encoding="utf-8"?>
<!-- Generator: Adobe Illustrator 27.8.1, SVG Export Plug-In . SVG Version: 6.00 Build 0)  -->
<svg version="1.2" baseProfile="tiny" id="Layer_1" xmlns="http://www.w3.org/2000/svg" xmlns:xlink="http://www.w3.org/1999/xlink"
	 x="0px" y="0px" viewBox="0 0 64 80" overflow="visible" xml:space="preserve">
<g>
	<g>
		<g>
			<path fill="#0077B6" d="M57.3,80H6.7C3,80,0,77,0,73.2V13.9c0-3.7,3-6.8,6.7-6.8h11l1.7-6C19.6,0.4,20.1,0,20.8,0H43
				c0.7,0,1.3,0.4,1.4,1.1l1.7,6h11.1c3.7,0,6.7,3,6.7,6.8v59.3C64,77,61,80,57.3,80z M6.7,10.1c-2,0-3.7,1.7-3.7,3.8v59.3
				C3,75.3,4.7,77,6.7,77h50.6c2,0,3.7-1.7,3.7-3.8V13.9c0-2.1-1.7-3.8-3.7-3.8H45.1c-0.7,0-1.3-0.4-1.4-1.1l-1.7-6h-20l-1.7,6
				c-0.2,0.6-0.8,1.1-1.4,1.1H6.7z"/>
		</g>
		<g>
			<path fill="#0077B6" d="M16.7,31.3C16.7,31.3,16.7,31.3,16.7,31.3c-0.4,0-0.8-0.2-1.1-0.4L12,27.2c-0.6-0.6-0.6-1.5,0-2.1
				c0.6-0.6,1.5-0.6,2.1,0l2.5,2.6l6.8-6.8c0.6-0.6,1.5-0.6,2.1,0c0.6,0.6,0.6,1.5,0,2.1l-7.9,7.9C17.4,31.1,17.1,31.3,16.7,31.3z"
				/>
		</g>
		<g>
			<path fill="#0077B6" d="M50.8,27.3H35.4c-0.8,0-1.5-0.7-1.5-1.5c0-0.8,0.7-1.5,1.5-1.5h15.4c0.8,0,1.5,0.7,1.5,1.5
				C52.3,26.6,51.6,27.3,50.8,27.3z"/>
		</g>
		<g>
			<path fill="#0077B6" d="M16.7,49.5C16.7,49.5,16.7,49.5,16.7,49.5c-0.4,0-0.8-0.2-1.1-0.4L12,45.4c-0.6-0.6-0.6-1.5,0-2.1
				c0.6-0.6,1.5-0.6,2.1,0l2.5,2.6l6.8-6.8c0.6-0.6,1.5-0.6,2.1,0c0.6,0.6,0.6,1.5,0,2.1l-7.9,7.9C17.4,49.3,17.1,49.5,16.7,49.5z"
				/>
		</g>
		<g>
			<path fill="#0077B6" d="M50.8,45.5H35.4c-0.8,0-1.5-0.7-1.5-1.5c0-0.8,0.7-1.5,1.5-1.5h15.4c0.8,0,1.5,0.7,1.5,1.5
				C52.3,44.8,51.6,45.5,50.8,45.5z"/>
		</g>
		<g>
			<path fill="#0077B6" d="M16.7,67.7c-0.4,0-0.8-0.1-1.1-0.4L12,63.7c-0.6-0.6-0.6-1.5,0-2.1c0.6-0.6,1.5-0.6,2.1,0l2.5,2.5
				l6.8-6.8c0.6-0.6,1.5-0.6,2.1,0c0.6,0.6,0.6,1.5,0,2.1l-7.9,7.9C17.4,67.6,17,67.7,16.7,67.7z"/>
		</g>
		<g>
			<path fill="#0077B6" d="M50.8,63.7H35.4c-0.8,0-1.5-0.7-1.5-1.5c0-0.8,0.7-1.5,1.5-1.5h15.4c0.8,0,1.5,0.7,1.5,1.5
				C52.3,63.1,51.6,63.7,50.8,63.7z"/>
		</g>
	</g>
</g>
</svg>
