<?xml version="1.0" encoding="UTF-8" standalone="no"?>
<svg version="1.1" xmlns="http://www.w3.org/2000/svg" width="240" height="240" viewBox="0 0 40 40" >
  <path d="M 10 6 a 4 4 0 0 0 -4 4 v 21 a 4 4 0 0 0 4 4 h 16.5 a 6 6 0 0 1 5.5 -9.9 v -15.1 a 4 4 0 0 0 -4 -4 h -4.3 a 5 5 0 0 0 -9.4 0 z
           M 17.4 7.6 a 1.6 1.6 0 0 1 3.2 0 a 1.6 1.6 0 0 1 -3.2 0 z
           M 9 14 l 1 -1 1 1 2.5 -2.5 1 1 -3.55 3.55 z
           m 0 5 l 1 -1 1 1 2.5 -2.5 1 1 -3.55 3.55 z
           m 0 5 l 1 -1 1 1 2.5 -2.5 1 1 -3.55 3.55 z
           m 0 5 l 1 -1 1 1 2.5 -2.5 1 1 -3.55 3.55 z
           M 18 14.5 a 1 1 0 0 1 0 -2 h 9 a 1 1 0 0 1 0 2 z
           m 0 5 a 1 1 0 0 1 0 -2 h 9 a 1 1 0 0 1 0 2 z
           m 0 5 a 1 1 0 0 1 0 -2 h 9 a 1 1 0 0 1 0 2 z
           m 0 5 a 1 1 0 0 1 0 -2 h 5 a 1 1 0 0 1 0 2 z" fill="#ffffff" />
  <path d="M 26 31 a 5 5 0 0 0 10 0 a 5 5 0 0 0 -10 0 z
           m 1 0.6 l 1.4 -1.4 1.4 1.4 3.5 -3.5 1.4 1.4 -4.97 4.97 z" fill="#ffffff" />
</svg>
