<?xml version="1.0" encoding="UTF-8"?>
<svg id="Ebene_2" data-name="Ebene 2" xmlns="http://www.w3.org/2000/svg" viewBox="0 0 136.2 136.24">
  <defs>
    <style>
      .cls-1, .cls-2 {
        fill: none;
      }

      .cls-1, .cls-2, .cls-3 {
        stroke-linecap: round;
        stroke-linejoin: round;
      }

      .cls-1, .cls-3 {
        stroke: #0077b6;
      }

      .cls-4 {
        stroke-width: 0px;
      }

      .cls-4, .cls-3 {
        fill: #0077b6;
      }

      .cls-2 {
        stroke: #fff;
      }
    </style>
  </defs>
  <g id="Layer_1" data-name="Layer 1">
    <circle class="cls-1" cx="14.58" cy="28.91" r="6.05"/>
    <path class="cls-1" d="m3.43,46.04c0-6.17,4.94-11.12,11.12-11.12s11.12,4.94,11.12,11.12"/>
    <path class="cls-1" d="m26.7,22.8h19.08"/>
    <path class="cls-1" d="m26.7,28.28h19.08"/>
    <rect class="cls-1" x="56.81" y="4.16" width="16.63" height="4.28" rx="2.14" ry="2.14"/>
    <polygon class="cls-3" points="90.55 10.39 90.55 20.08 42.47 20.08 42.47 22.8 93.31 22.8 93.31 10.39 90.55 10.39"/>
    <line class="cls-1" x1="49.03" y1="58.04" x2="78.26" y2="58.04"/>
    <line class="cls-1" x1="49.03" y1="62.2" x2="78.26" y2="62.2"/>
    <line class="cls-1" x1="49.03" y1="66.37" x2="75.03" y2="66.37"/>
    <line class="cls-1" x1="92.44" y1="33.62" x2="55.91" y2="33.62"/>
    <line class="cls-1" x1="55.91" y1="38.49" x2="84.7" y2="38.49"/>
    <polyline class="cls-1" points="33.94 62.61 36.59 65.26 42.71 59.15"/>
    <polyline class="cls-1" points="93.64 87.44 100.36 94.17 115.87 78.66"/>
    <line class="cls-1" x1="49.03" y1="79.19" x2="78.26" y2="79.19"/>
    <line class="cls-1" x1="49.03" y1="83.36" x2="78.26" y2="83.36"/>
    <line class="cls-1" x1="49.03" y1="87.52" x2="67.89" y2="87.52"/>
    <polyline class="cls-1" points="33.94 83.76 36.59 86.42 42.71 80.3"/>
    <line class="cls-1" x1="49.03" y1="100.34" x2="78.26" y2="100.34"/>
    <line class="cls-1" x1="49.03" y1="104.51" x2="78.26" y2="104.51"/>
    <line class="cls-1" x1="49.03" y1="108.68" x2="67.89" y2="108.68"/>
    <polyline class="cls-1" points="33.94 104.92 36.59 107.57 42.71 101.45"/>
    <rect class="cls-1" x="79.88" y="48.36" width="49.75" height="81.33" rx="4.8" ry="4.8"/>
    <rect class="cls-1" x="82.56" y="51.05" width="44.38" height="75.96" rx="3.23" ry="3.23"/>
    <rect class="cls-3" x="98.52" y="55.57" width="12.45" height="2.69" rx="1.35" ry="1.35"/>
    <rect class="cls-1" x="82.56" y="116.32" width="44.38" height="10.69" rx="3.26" ry="3.26"/>
    <path class="cls-1" d="m39.7,20.08v-4.84H3.74c-1.7,0-3.12,1.42-3.12,3.12v24.6c0,1.7,1.42,3.12,3.12,3.12h44.17c1.73,0,3.12-1.39,3.12-3.12v-22.87h-11.33Z"/>
    <g>
      <path class="cls-4" d="m52.79,20.08h-1.75v22.87c0,1.73-1.39,3.12-3.12,3.12H15.83v4.87h36.96c1.72,0,3.12-1.4,3.12-3.12v-24.63c0-1.71-1.4-3.12-3.12-3.12Z"/>
      <path class="cls-1" d="m52.79,20.08h-1.75v22.87c0,1.73-1.39,3.12-3.12,3.12H15.83v4.87h36.96c1.72,0,3.12-1.4,3.12-3.12v-24.63c0-1.71-1.4-3.12-3.12-3.12Z"/>
    </g>
    <path class="cls-1" d="m73.05.69h-15.85c-.57,0-1.12.17-1.58.5l-2.72,1.9c-.46.32-1.02.5-1.58.5h-8.86c-1.52,0-2.76,1.24-2.76,2.76v13.73h50.84V6.35c0-1.52-1.24-2.76-2.76-2.76h-8.86c-.57,0-1.12-.17-1.58-.5l-2.72-1.9c-.46-.32-1.02-.5-1.58-.5Z"/>
    <path class="cls-1" d="m39.7,20.08v-4.84H3.74c-1.7,0-3.12,1.42-3.12,3.12v24.6c0,1.7,1.42,3.12,3.12,3.12h44.17c1.73,0,3.12-1.39,3.12-3.12v-22.87h-11.33Z"/>
    <path class="cls-1" d="m39.7,10.39h-17.61c-2.98,0-5.46,2.08-6.1,4.86h23.71v-4.86Zm68.46,0h-17.61v9.7h-34.64v27.75c0,1.73-1.39,3.12-3.12,3.12H15.83v72.48c0,3.46,2.81,6.27,6.27,6.27h62.59c-2.65,0-4.8-2.15-4.8-4.8V53.17c0-2.65,2.15-4.8,4.8-4.8h29.75v-31.71c0-3.46-2.81-6.27-6.27-6.27Z"/>
    <g>
      <path class="cls-4" d="m100.99,20.76v27.6h5.52v-27.6h-5.52ZM29.27,124.83h50.61v-5.52H29.27v5.52Z"/>
      <path class="cls-1" d="m100.99,20.76v27.6h5.52v-27.6h-5.52ZM29.27,124.83h50.61v-5.52H29.27v5.52Z"/>
    </g>
    <path class="cls-1" d="m79.88,53.17c0-2.65,2.15-4.8,4.8-4.8h16.31V15.24h-10.44v4.84h-34.64v27.75c0,1.73-1.39,3.12-3.12,3.12h-29.04v68.37h56.13V53.17Z"/>
    <g>
      <path class="cls-4" d="m130.77,54.28h-1.15v70.57c0,2.65-2.15,4.8-4.8,4.8h-39v1.15c0,2.65,2.15,4.8,4.8,4.8h40.14c2.65,0,4.8-2.15,4.8-4.8V59.09c0-2.65-2.15-4.8-4.8-4.8Z"/>
      <path class="cls-1" d="m130.77,54.28h-1.15v70.57c0,2.65-2.15,4.8-4.8,4.8h-39v1.15c0,2.65,2.15,4.8,4.8,4.8h40.14c2.65,0,4.8-2.15,4.8-4.8V59.09c0-2.65-2.15-4.8-4.8-4.8Z"/>
    </g>
    <line class="cls-2" x1="55.91" y1="33.62" x2="51.04" y2="33.62"/>
    <line class="cls-2" x1="55.91" y1="38.49" x2="51.04" y2="38.49"/>
    <line class="cls-2" x1="23.75" y1="51.05" x2="23.75" y2="46.04"/>
    <line class="cls-2" x1="51.04" y1="20.08" x2="51.04" y2="22.84"/>
    <line class="cls-2" x1="93.64" y1="15.24" x2="90.55" y2="15.24"/>
  </g>
</svg>
