<?xml version="1.0" encoding="UTF-8" ?>
<svg xmlns="http://www.w3.org/2000/svg" xmlns:xlink="http://www.w3.org/1999/xlink" viewBox="0 0 496 313">
  <defs>
    <path id="content90" fill="none" stroke="black"
          d="M 0 0 l 20 20 l 20 -20 l 20 20 l 20 -20 l 10 10
             M 0 10 l 10 -10 l 20 20 l 20 -20 l 20 20 l 20 -20
             M 0 10 l 10 10 l 20 -20 l 20 20 l 20 -20 l 20 20
             M 0 20 l 20 -20 l 20 20 l 20 -20 l 20 20 l 10 -10" />
    <path id="content110" fill="none" stroke="black"
          d="M 0 0 l 20 20 l 20 -20 l 20 20 l 20 -20 l 20 20 l 10 -10
             M 0 10 l 10 -10 l 20 20 l 20 -20 l 20 20 l 20 -20 l 20 20
             M 0 10 l 10 10 l 20 -20 l 20 20 l 20 -20 l 20 20 l 20 -20
             M 0 20 l 20 -20 l 20 20 l 20 -20 l 20 20 l 20 -20 l 10 10" />
    <path id="content130" fill="none" stroke="black"
          d="M 0 0 l 20 20 l 20 -20 l 20 20 l 20 -20 l 20 20 l 20 -20 l 10 10
             M 0 10 l 10 -10 l 20 20 l 20 -20 l 20 20 l 20 -20 l 20 20 l 20 -20
             M 0 10 l 10 10 l 20 -20 l 20 20 l 20 -20 l 20 20 l 20 -20 l 20 20
             M 0 20 l 20 -20 l 20 20 l 20 -20 l 20 20 l 20 -20 l 20 20 l 10 -10" />
   </defs>

  <path fill="#ddd0b5" d="M 339 0 v 313 h -319 a 20 20 0 0 1 -20 -20 v -273 a 20 20 0 0 1 20 -20 z" />
  <path fill="#d0d8b6" d="M 339 0 h 137 a 20 20 0 0 1 20 20 v 273 a 20 20 0 0 1 -20 20 h -137 z" />

  <text x="19" y="24" fill="#1d1d1b" font-family="sans-serif" font-size="15" font-weight="bold" letter-spacing="-1.5">B u n d e s r e p u b l i k</text>
  <text x="190" y="24" fill="#1d1d1b" font-family="sans-serif" font-size="15" font-weight="bold" letter-spacing="-1.5">D e u t s c h l a n d</text>
  <text x="19" y="44" fill="#1d1d1b" font-family="sans-serif" font-size="12" letter-spacing="-1.5">P e r s o n a l a u s w e i s</text>
  <text x="353" y="33" fill="#1d1d1b" font-family="sans-serif" font-size="20" letter-spacing="-1.5">0 0 0 0 0 0 0 0</text>
  <image x="20" y="64" xlink:href="../npa.svg" width="185" height="185" />
  <use x="350" y="16" xlink:href="#content130" />

  <use x="230" y="50" xlink:href="#content130" />
  <use x="230" y="75" xlink:href="#content110" />
  <use x="230" y="105" xlink:href="#content130" />
  <use x="230" y="140" xlink:href="#content90" />
  <use x="350" y="140" xlink:href="#content110" />
  <use x="230" y="180" xlink:href="#content110" />
  <use x="230" y="220" xlink:href="#content90" />

  <text x="373" y="227" fill="#1d1d1b" font-family="sans-serif" font-size="20" letter-spacing="-1.5">0 0 0 0 0 0</text>
  <use x="364" y="210" xlink:href="#content110" />

  <path fill="none" stroke="#000000" stroke-linecap="round" stroke-linejoin="round" stroke-miterlimit="10" stroke-width="2"
        d="m 230,288
           c 8.42,-4.55 15.71,-14 23.26,-20.1
             4.61,-3.72 9.42,-7.9 0.04,-10.28
             -14.08,-3.59 -4.92,21.26 -10.72,26.4
           l 1.75,1.99
           c 7.48,-1.78 18.23,-7.79 23.78,-13.75
             -0.46,2.64 -1.83,5.09 -1.72,7.67
             1.6,-1 3.58,-2.11 4.92,-3.45
             -3.02,1.36 -4.28,4.43 -3.98,7.66
             3.82,-1.11 7.59,-4.94 11.46,-6.88
             4.19,5.52 16.1,8.25 19.32,-0.05
             -3.05,14.1 13.79,12.67 20.25,5.51
             4.02,8.47 16.59,2.06 22.09,-0.68" />
</svg>
