<?xml version="1.0" encoding="utf-8"?>
<!-- Generator: Adobe Illustrator 27.8.1, SVG Export Plug-In . SVG Version: 6.00 Build 0)  -->
<svg version="1.2" baseProfile="tiny" id="Layer_1" xmlns="http://www.w3.org/2000/svg" xmlns:xlink="http://www.w3.org/1999/xlink"
	 x="0px" y="0px" viewBox="0 0 22 22" overflow="visible" xml:space="preserve">
<g>
	<g>
		<g>
			<path fill="#576164" d="M15,21.2h-1.5v-7.3c0-0.4-0.3-0.7-0.7-0.7H9.1c-0.4,0-0.7,0.3-0.7,0.7v7.3H6.9v-7.3c0-1.2,1-2.2,2.2-2.2
				h3.7c1.2,0,2.2,1,2.2,2.2V21.2z"/>
		</g>
		<g>
			<path fill="#576164" d="M19.8,22H2.2C1,22,0,21,0,19.8v-11c0-0.7,0.3-1.3,0.8-1.7l7.6-6.2c1.5-1.2,3.7-1.2,5.2,0l7.7,6.2
				c0.4,0.4,0.7,1,0.7,1.7v11.1C22,21,21,22,19.8,22z M9.3,2.1L1.7,8.3C1.5,8.4,1.5,8.6,1.5,8.8v11.1c0,0.4,0.3,0.7,0.7,0.7h17.6
				c0.4,0,0.7-0.3,0.7-0.7V8.8c0-0.2-0.1-0.4-0.3-0.5l-7.6-6.2C11.6,1.3,10.3,1.3,9.3,2.1z"/>
		</g>
	</g>
</g>
</svg>
