<?xml version="1.0" encoding="utf-8"?>
<svg version="1.2" xmlns="http://www.w3.org/2000/svg" xmlns:xlink="http://www.w3.org/1999/xlink" viewBox="-1 -2.5 24 24">
	<g fill="#000000">
		<g>
			<path  d="M18.6,17H3.4c-1.1,0-2.1-1-2.1-2.1V4.2c0-1.2,0.9-2.1,2.1-2.1h15.3c1.1,0,2.1,1,2.1,2.1v10.7
				C20.7,16,19.8,17,18.6,17z M3.4,3.6C3,3.6,2.8,3.9,2.8,4.2v10.7c0,0.3,0.3,0.6,0.6,0.6h15.3c0.3,0,0.6-0.3,0.6-0.6V4.2
				c0-0.3-0.3-0.6-0.6-0.6H3.4z"/>
		</g>
		<g>
			<path d="M2,10.3H0.8C0.3,10.3,0,9.9,0,9.5s0.3-0.8,0.8-0.8H2c0.4,0,0.8,0.3,0.8,0.8S2.5,10.3,2,10.3z"/>
		</g>
		<g>
			<path d="M2,6.9H0.8C0.3,6.9,0,6.5,0,6.1c0-0.4,0.3-0.8,0.8-0.8H2c0.4,0,0.8,0.3,0.8,0.8C2.8,6.5,2.5,6.9,2,6.9z"/>
		</g>
		<g>
			<path d="M2,13.7H0.8c-0.4,0-0.8-0.3-0.8-0.8c0-0.4,0.3-0.8,0.8-0.8H2c0.4,0,0.8,0.3,0.8,0.8
				C2.8,13.3,2.5,13.7,2,13.7z"/>
		</g>
		<g>
			<path d="M21.2,10.3H20c-0.4,0-0.8-0.3-0.8-0.8s0.3-0.8,0.8-0.8h1.3c0.4,0,0.8,0.3,0.8,0.8S21.7,10.3,21.2,10.3z"/>
		</g>
		<g>
			<path d="M21.2,6.9H20c-0.4,0-0.8-0.3-0.8-0.8c0-0.4,0.3-0.8,0.8-0.8h1.3c0.4,0,0.8,0.3,0.8,0.8
				C22,6.5,21.7,6.9,21.2,6.9z"/>
		</g>
		<g>
			<path d="M21.2,13.7H20c-0.4,0-0.8-0.3-0.8-0.8c0-0.4,0.3-0.8,0.8-0.8h1.3c0.4,0,0.8,0.3,0.8,0.8
				C22,13.3,21.7,13.7,21.2,13.7z"/>
		</g>
		<g>
			<path d="M9.3,3.6c-0.4,0-0.8-0.3-0.8-0.8V0.8C8.6,0.3,8.9,0,9.3,0s0.8,0.3,0.8,0.8v2.1C10.1,3.3,9.7,3.6,9.3,3.6z"/>
		</g>
		<g>
			<path d="M12.6,3.6c-0.4,0-0.8-0.3-0.8-0.8V0.8c0-0.4,0.3-0.8,0.8-0.8s0.8,0.3,0.8,0.8v2.1
				C13.4,3.3,13.1,3.6,12.6,3.6z"/>
		</g>
		<g>
			<path d="M15.9,3.6c-0.4,0-0.8-0.3-0.8-0.8V0.8c0-0.4,0.3-0.8,0.8-0.8s0.8,0.3,0.8,0.8v2.1
				C16.7,3.3,16.4,3.6,15.9,3.6z"/>
		</g>
		<g>
			<path d="M6.1,3.6c-0.4,0-0.8-0.3-0.8-0.8V0.8C5.3,0.3,5.6,0,6.1,0s0.8,0.3,0.8,0.8v2.1C6.8,3.3,6.5,3.6,6.1,3.6z"/>
		</g>
		<g>
			<path d="M9.3,19c-0.4,0-0.8-0.3-0.8-0.8v-2c0-0.4,0.3-0.8,0.8-0.8s0.8,0.3,0.8,0.8v2C10.1,18.7,9.7,19,9.3,19z"/>
		</g>
		<g>
			<path d="M12.6,19c-0.4,0-0.8-0.3-0.8-0.8v-2c0-0.4,0.3-0.8,0.8-0.8s0.8,0.3,0.8,0.8v2C13.4,18.7,13.1,19,12.6,19z"/>
		</g>
		<g>
			<path d="M15.9,19c-0.4,0-0.8-0.3-0.8-0.8v-2c0-0.4,0.3-0.8,0.8-0.8s0.8,0.3,0.8,0.8v2C16.7,18.7,16.4,19,15.9,19z"/>
		</g>
		<g>
			<path d="M6.1,19c-0.4,0-0.8-0.3-0.8-0.8v-2c0-0.4,0.3-0.8,0.8-0.8s0.8,0.3,0.8,0.8v2C6.8,18.7,6.5,19,6.1,19z"/>
		</g>
		<g>
			<path d="M7.9,12.2c-1.8,0-3.3-1.5-3.3-3.4c0-1.9,1.5-3.4,3.3-3.4s3.3,1.5,3.3,3.4C11.3,10.6,9.8,12.2,7.9,12.2z
				 M7.9,6.9c-1,0-1.8,0.8-1.8,1.9s0.8,1.9,1.8,1.9s1.8-0.8,1.8-1.9S8.9,6.9,7.9,6.9z"/>
		</g>
		<g>
			<path d="M12.6,17c-0.4,0-0.8-0.3-0.8-0.8c0-2.2-1.8-4.1-4-4.1c-2.2,0-4,1.8-4,4.1C4,16.6,3.6,17,3.2,17
				s-0.8-0.3-0.8-0.8c0-3.1,2.4-5.6,5.5-5.6c3,0,5.5,2.5,5.5,5.6C13.4,16.6,13,17,12.6,17z"/>
		</g>
		<g>
			<path d="M17.7,6.9h-4.7c-0.4,0-0.8-0.3-0.8-0.8c0-0.4,0.3-0.8,0.8-0.8h4.7c0.4,0,0.8,0.3,0.8,0.8
				C18.5,6.5,18.2,6.9,17.7,6.9z"/>
		</g>
		<g>
			<path d="M17.7,9.3h-4.7c-0.4,0-0.8-0.3-0.8-0.8c0-0.4,0.3-0.8,0.8-0.8h4.7c0.4,0,0.8,0.3,0.8,0.8
				C18.5,8.9,18.2,9.3,17.7,9.3z"/>
		</g>
	</g>
</svg>
