<?xml version="1.0" encoding="utf-8"?>
<svg version="1.2" xmlns="http://www.w3.org/2000/svg" viewBox="-2 -2 26 26">
<path d="M19.9,0H2.2C1,0,0,1,0,2.2v17.6C0,21,1,22,2.2,22h17.6c1.2,0,2.2-1,2.2-2.1V2.2C22,1,21,0,19.9,0z
         M20.6,19.9c0,0.4-0.3,0.7-0.7,0.7H6.2V5.3l7.2,7.2c0.3,0.3,0.8,0.3,1.1,0s0.3-0.8,0-1.1L6,2.9C5.8,2.7,5.4,2.6,5.1,2.7
	 C4.8,2.8,4.6,3.1,4.6,3.4v17.2H2.2c-0.4,0-0.7-0.3-0.7-0.7V2.2c0-0.4,0.3-0.7,0.7-0.7h13.7v15.2L8.7,9.5c-0.3-0.3-0.8-0.3-1.1,0
	 c-0.3,0.3-0.3,0.8,0,1.1l8.5,8.5c0.5,0.5,1.4,0.1,1.4-0.6v-17h2.4c0.4,0,0.7,0.3,0.7,0.7V19.9z"/>
</svg>
