<?xml version="1.0" encoding="utf-8"?>
<!-- Generator: Adobe Illustrator 27.8.1, SVG Export Plug-In . SVG Version: 6.00 Build 0)  -->
<svg version="1.2" baseProfile="tiny" id="Layer_1" xmlns="http://www.w3.org/2000/svg" xmlns:xlink="http://www.w3.org/1999/xlink"
	 x="0px" y="0px" viewBox="0 0 15 22" overflow="visible" xml:space="preserve">
<g>
	<g>
		<g>
			<path fill="#0077B6" d="M12.4,22H2.7C1.2,22,0,20.8,0,19.3V2.7C0,1.2,1.2,0,2.7,0h9.7C13.8,0,15,1.2,15,2.7v16.6
				C15,20.8,13.8,22,12.4,22z M2.7,1.5C2,1.5,1.5,2,1.5,2.7v16.6c0,0.7,0.5,1.2,1.2,1.2h9.7c0.6,0,1.2-0.5,1.2-1.2V2.7
				c0-0.7-0.5-1.2-1.2-1.2H2.7z"/>
		</g>
		<g>
			<path fill="#0077B6" d="M9.2,19H5.8c-0.4,0-0.8-0.3-0.8-0.8s0.3-0.8,0.8-0.8h3.4c0.4,0,0.8,0.3,0.8,0.8S9.6,19,9.2,19z"/>
		</g>
		<g>
			<path fill="#0077B6" d="M7.6,4.5H7.4C7,4.5,6.7,4.2,6.7,3.7S7,3,7.4,3h0.2C8,3,8.4,3.3,8.4,3.7S8,4.5,7.6,4.5z"/>
		</g>
	</g>
</g>
</svg>
