<?xml version="1.0" encoding="UTF-8"?>
<svg id="Ebene_2" data-name="Ebene 2" xmlns="http://www.w3.org/2000/svg" viewBox="0 0 132.95 131.1">
  <defs>
    <style>
      .cls-1, .cls-2 {
        fill: none;
      }

      .cls-1, .cls-2, .cls-3 {
        stroke-linecap: round;
        stroke-linejoin: round;
      }

      .cls-1, .cls-3 {
        stroke: #0077b6;
      }

      .cls-4 {
        stroke-width: 0px;
      }

      .cls-4, .cls-3 {
        fill: #0077b6;
      }

      .cls-2 {
        stroke: #fff;
      }
    </style>
  </defs>
  <g id="Layer_1" data-name="Layer 1">
    <circle class="cls-1" cx="37.29" cy="36.57" r="15.47"/>
    <path class="cls-1" d="M8.77,80.4c0-15.79,12.65-28.44,28.44-28.44s28.44,12.65,28.44,28.44"/>
    <path class="cls-1" d="M68.31,20.94h48.8"/>
    <path class="cls-1" d="M68.31,34.96h48.8"/>
    <line class="cls-1" x1="71.89" y1="102.25" x2="65.8" y2="108.33"/>
    <path class="cls-1" d="M55.31,103.99h0c2.44,0,4.42,1.98,4.42,4.42v25.24h-8.84v-25.24c0-2.44,1.98-4.42,4.42-4.42Z" transform="translate(10.41 241.95) rotate(-135)"/>
    <path class="cls-3" d="M113.48,60.65c-11.49-11.49-30.11-11.49-41.6,0-11.49,11.49-11.49,30.11,0,41.6,11.49,11.49,30.11,11.49,41.6,0,11.49-11.49,11.49-30.11,0-41.6ZM110.27,99.04c-9.71,9.71-25.46,9.71-35.18,0-9.71-9.71-9.71-25.46,0-35.18,9.71-9.71,25.46-9.71,35.18,0,9.71,9.71,9.71,25.46,0,35.18Z"/>
    <path class="cls-1" d="M122.59,1.6H9.58C5.23,1.6,1.6,5.23,1.6,9.58v62.92c0,4.35,3.63,7.98,7.98,7.98h53.72c.24-7.2,3.1-14.33,8.59-19.82,11.49-11.49,30.11-11.49,41.6,0,5.5,5.5,8.35,12.63,8.59,19.82h.51c4.43,0,7.98-3.54,7.98-7.98V9.58c0-4.35-3.63-7.98-7.98-7.98Z"/>
    <g>
      <path class="cls-4" d="M63.29,80.48c.24-7.2,3.1-14.33,8.59-19.82,9.93-9.93,25.2-11.27,36.58-4.02-1.13-1.78-2.47-3.46-4.02-5.02-11.49-11.49-30.11-11.49-41.6,0-7.82,7.82-10.31,18.94-7.49,28.86h7.93Z"/>
      <path class="cls-1" d="M63.29,80.48c.24-7.2,3.1-14.33,8.59-19.82,9.93-9.93,25.2-11.27,36.58-4.02-1.13-1.78-2.47-3.46-4.02-5.02-11.49-11.49-30.11-11.49-41.6,0-7.82,7.82-10.31,18.94-7.49,28.86h7.93Z"/>
    </g>
    <path class="cls-2" d="M57.01,59.92c3.57,3.45,6.22,7.83,7.59,12.76"/>
    <path class="cls-2" d="M108.47,56.62c-11.38-7.25-26.65-5.91-36.58,4.03-5.5,5.5-8.36,12.63-8.6,19.82"/>
    <g>
      <path class="cls-4" d="M92.71,85.58c-.73,0-1.32-.49-1.32-1.09,0-2.44,1.61-4.64,4.2-5.75,2.1-.9,3.41-2.68,3.41-4.63,0-2.87-2.82-5.21-6.29-5.21s-6.29,2.34-6.29,5.21c0,.6-.59,1.09-1.32,1.09s-1.32-.49-1.32-1.09c0-4.08,4-7.39,8.93-7.39s8.93,3.32,8.93,7.39c0,2.78-1.85,5.29-4.84,6.57-1.71.73-2.77,2.19-2.77,3.81,0,.6-.59,1.09-1.32,1.09Z"/>
      <path class="cls-4" d="M92.71,94.08c-.73,0-1.32-.49-1.32-1.09v-2.23c0-.6.59-1.09,1.32-1.09s1.32.49,1.32,1.09v2.23c0,.6-.59,1.09-1.32,1.09Z"/>
    </g>
  </g>
</svg>
