<?xml version="1.0" encoding="utf-8"?>
<!-- Generator: Adobe Illustrator 27.9.0, SVG Export Plug-In . SVG Version: 6.00 Build 0)  -->
<svg version="1.2" baseProfile="tiny" id="Layer_1" xmlns="http://www.w3.org/2000/svg" xmlns:xlink="http://www.w3.org/1999/xlink"
	 x="0px" y="0px" viewBox="0 0 22 22" overflow="visible" xml:space="preserve">
<g>
	<path fill="#0077B6" d="M19.8,0H2.2C1,0,0,1,0,2.2v10.2c0,1.2,1,2.2,2.2,2.2h7.3c0.2,0.7,0.5,1.3,0.9,1.8L6,20.8
		c-0.3,0.3-0.3,0.8,0,1.1c0.1,0,0.3,0.1,0.5,0.1s0.4-0.1,0.5-0.2l4.4-4.4c0.9,0.7,2.1,1.2,3.4,1.2c2.5,0,4.7-1.7,5.4-4
		c1-0.2,1.8-1.1,1.8-2.1V2.2C22,1,21,0,19.8,0z M3,13c0.3-1.8,1.9-3.1,3.8-3.2h0.1H7c1,0,1.9,0.4,2.6,1.1c-0.2,0.6-0.4,1.3-0.4,2V13
		C9.2,13,3,13,3,13z M5.1,6.5c0-1,0.8-1.8,1.8-1.8s1.8,0.8,1.8,1.8S8,8.2,7,8.3H6.9H6.8C5.8,8.2,5.1,7.4,5.1,6.5z M14.8,17
		c-1.1,0-2.2-0.5-2.9-1.2l0,0l0,0c-0.7-0.7-1.2-1.8-1.2-2.9c0-2.3,1.8-4.1,4.1-4.1s4.1,1.8,4.1,4.1S17.1,17,14.8,17z M20.4,12.6
		c-0.1-3-2.6-5.3-5.6-5.3c-1.8,0-3.5,0.9-4.5,2.2C10,9.2,9.6,9,9.3,8.8c0.6-0.6,1-1.4,1-2.3c0-1.8-1.5-3.3-3.3-3.3S3.6,4.7,3.6,6.5
		c0,0.9,0.4,1.7,1,2.3c-1.5,0.7-2.6,2.1-3,3.8c0-0.1-0.1-0.2-0.1-0.3V2.2c0-0.4,0.3-0.7,0.7-0.7h17.7c0.4,0,0.7,0.3,0.7,0.7
		c0,0,0,10,0,10.1S20.5,12.6,20.4,12.6z"/>
	<path fill="#0077B6" d="M18.5,3.2H12c-0.4,0-0.8,0.3-0.8,0.8s0.3,0.8,0.8,0.8h6.5c0.4,0,0.8-0.3,0.8-0.8S19,3.2,18.5,3.2z"/>
	<path fill="#0077B6" d="M18.5,5.5H12c-0.4,0-0.8,0.3-0.8,0.8S11.6,7,12,7h6.5c0.4,0,0.8-0.3,0.8-0.8S19,5.5,18.5,5.5z"/>
</g>
</svg>
