<?xml version="1.0" encoding="utf-8"?>
<!-- Generator: Adobe Illustrator 27.8.1, SVG Export Plug-In . SVG Version: 6.00 Build 0)  -->
<svg version="1.2" baseProfile="tiny" id="Layer_1" xmlns="http://www.w3.org/2000/svg" xmlns:xlink="http://www.w3.org/1999/xlink"
	 x="0px" y="0px" viewBox="0 0 142 81" overflow="visible" xml:space="preserve">
<g>
	<path fill="#FF0000" d="M141.5,70.1l-19.7-34c-0.6-1.1-1.8-1.8-3.1-1.8s-2.5,0.7-3.1,1.8l-1.2,2.1c-12.3-10.8-27.9-16.7-44.5-16.7
		c-8.9,0-17.6,1.7-25.6,5h-0.1c-1.1,0.4-2.1,0.9-3.1,1.4C39,28.9,37,30,35,31.2c-2.9-1.9-6.3-3.2-10-3.6c0.3-0.2,0.7-0.5,1-0.7
		c0.3-0.2,0.5-0.4,0.8-0.6c1.2-0.8,2.4-1.6,3.7-2.4l0.1-0.1c0.7-0.4,1.5-0.9,2.2-1.3c29-16.1,66.3-12,90.9,12.6l0.4,0.4l9.1-9.1
		l-0.4-0.4C116.1,9.2,93.7,0,69.9,0S23.8,9.2,7,26l-0.4,0.4l4.3,4.3C4.4,34.6,0,41.7,0,49.9c0,12.4,10.1,22.5,22.5,22.5
		c8.2,0,15.4-4.4,19.3-10.9l1,1l3.4,3.3l0.4-0.4c6.2-6.2,14.5-9.6,23.3-9.6c8.8,0,17.1,3.4,23.3,9.6l0.4,0.4l9.1-9.1l-0.4-0.4
		c-8.7-8.7-20.2-13.4-32.5-13.4c-8.9,0-17.5,2.5-24.8,7.3c0-0.1,0-0.2,0-0.3c0-3.1-0.6-6-1.8-8.7c0.1-0.1,0.3-0.1,0.4-0.2
		c0.4-0.2,0.9-0.5,1.3-0.7c0.4-0.2,0.7-0.4,1.1-0.6c0.6-0.3,1.1-0.5,1.7-0.8c0.3-0.1,0.5-0.2,0.8-0.4c0.8-0.3,1.5-0.6,2.3-0.9
		c0.1,0,0.2-0.1,0.3-0.1l0.3-0.1c5.8-2.1,12-3.1,18.3-3.1c14.2,0,27.6,5.4,37.8,15.2L95.9,70.1c-0.6,1.2-0.6,2.5,0.1,3.7
		c0.7,1.1,1.8,1.7,3,1.7h39.4c1.3,0,2.4-0.7,3.1-1.8C142.2,72.5,142.2,71.1,141.5,70.1z M11.8,30.1L8,26.3C24.6,10,46.5,1,69.9,1
		c23.4,0,45.3,9,61.9,25.3l-7.7,7.7c-15-14.8-34.6-22.1-54.2-22.1c-12.9,0-25.9,3.2-37.5,9.7c-0.9-0.1-1.7-0.1-2.4-0.1
		c-6.7-0.1-13.1,3-17.4,8.2C12.3,29.8,12.1,30,11.8,30.1z M30.5,55.8c0.6,0.6,0.6,1.5,0,2.1c-0.3,0.3-0.7,0.4-1.1,0.4
		c-0.4,0-0.8-0.1-1.1-0.4L22.5,52l-5.9,5.9c-0.3,0.3-0.7,0.4-1.1,0.4c-0.4,0-0.8-0.1-1.1-0.4c-0.6-0.6-0.6-1.5,0-2.1l5.9-5.9
		L14.5,44c-0.6-0.6-0.6-1.5,0-2.1c0.6-0.6,1.5-0.6,2.1,0l5.9,5.9l5.9-5.9c0.6-0.6,1.5-0.6,2.1,0c0.6,0.6,0.6,1.5,0,2.1l-5.9,5.9
		L30.5,55.8z M52.3,47.5c5.5-2.3,11.4-3.6,17.6-3.6c11.8,0,23,4.5,31.4,12.8l-7.7,7.7c-6.4-6.2-14.8-9.6-23.7-9.6
		c-8.9,0-17.3,3.4-23.7,9.6l-2.5-2.5C48.3,58.4,51.4,53.2,52.3,47.5z M44.1,51.1c0-0.3,0.2-0.5,0.5-0.5c0.3,0,0.5,0.2,0.5,0.5
		c-0.2,3.4-1.2,6.8-2.9,9.8c-0.1,0.2-0.3,0.3-0.4,0.3c-0.1,0-0.2,0-0.2-0.1c-0.2-0.1-0.3-0.4-0.2-0.7C43,57.6,43.9,54.3,44.1,51.1z
		 M42.9,41.5c-0.1,0-0.1,0-0.2,0c-0.2,0-0.4-0.1-0.5-0.3c-1.6-3.7-4.2-6.8-7.6-9.1c-0.2-0.2-0.3-0.5-0.1-0.7
		c0.2-0.2,0.5-0.3,0.7-0.1c3.5,2.4,6.2,5.6,8,9.5C43.3,41.1,43.2,41.3,42.9,41.5z M69.9,33.3c-6.4,0-12.7,1.1-18.6,3.1
		c-1.3-3.6-3.4-6.8-6.2-9.3c7.8-3.1,16.2-4.8,24.8-4.8c16.4,0,31.8,5.9,44,16.6l-5.6,9.7C97.9,38.8,84.3,33.3,69.9,33.3z
		 M140.7,73.1c-0.5,0.8-1.3,1.3-2.2,1.3H99c-0.9,0-1.7-0.5-2.2-1.3s-0.5-1.8-0.1-2.7l0.8-1.4c1.1,0.9,2,1.7,2.9,2.5l0.4,0.4l9.1-9.1
		l-0.4-0.4c-1.7-1.7-3.5-3.2-5.5-4.7l4.3-7.4c2.6,1.8,5.1,3.9,7.3,6.1l0.4,0.4l1.2-1.2v4.8c0,0.8,0.7,1.5,1.5,1.5s1.5-0.7,1.5-1.5
		v-7.8l4.9-4.9l-0.4-0.4c-2.3-2.3-4.7-4.4-7.3-6.3c-0.8-0.8-1.6-1.5-2.4-2.2l1.3-2.3c0.4-0.8,1.3-1.3,2.2-1.3c1,0,1.8,0.5,2.2,1.3
		l19.7,34.1C141.1,71.3,141.1,72.3,140.7,73.1z M116.5,55.5c0-0.2,0-0.5,0.1-0.7l2.8-2.8c0.2-0.2,0.5-0.2,0.7,0
		c0.2,0.2,0.2,0.5,0,0.7l-2.8,2.8c-0.1,0.1-0.2,0.1-0.4,0.1C116.7,55.6,116.6,55.6,116.5,55.5z"/>
	<path fill="#FF0000" d="M52.6,71.5l-0.4,0.4l9.1,9.1l0.4-0.4c2.2-2.2,5-3.3,8.1-3.3c3.1,0,6,1.2,8.1,3.3l0.4,0.4l9.1-9.1L87,71.5
		C77.7,62,62.2,62,52.6,71.5z M78.4,79.6c-2.3-2.1-5.3-3.3-8.5-3.3c-3.2,0-6.2,1.2-8.5,3.3l-7.7-7.7c9-8.6,23.4-8.6,32.4,0
		L78.4,79.6z"/>
	<path fill="#FF0000" d="M118.7,64.6c-0.8,0-1.5,0.7-1.5,1.5v1.3c0,0.8,0.7,1.5,1.5,1.5s1.5-0.7,1.5-1.5v-1.3
		C120.2,65.3,119.6,64.6,118.7,64.6z"/>
</g>
</svg>
