<?xml version="1.0" encoding="utf-8"?>
<!-- Generator: Adobe Illustrator 27.8.1, SVG Export Plug-In . SVG Version: 6.00 Build 0)  -->
<svg version="1.2" baseProfile="tiny" id="Layer_1" xmlns="http://www.w3.org/2000/svg" xmlns:xlink="http://www.w3.org/1999/xlink"
	 x="0px" y="0px" viewBox="0 0 22 22" overflow="visible" xml:space="preserve">
<g>
	<g>
		<g>
			<path fill="#576164" d="M11.6,22H2.4C1.1,22,0,20.9,0,19.6V2.4C0.1,1,1.1,0,2.4,0h9.2c1.3,0,2.4,1.1,2.4,2.4v2.2
				c0,0.4-0.3,0.7-0.8,0.7c-0.4,0-0.8-0.3-0.8-0.7V2.4c0-0.5-0.4-0.9-0.9-0.9H2.4c-0.5,0-0.9,0.4-0.9,0.9l0,17.2
				c0,0.5,0.4,0.9,0.9,0.9h9.2c0.5,0,0.9-0.4,0.9-0.9v-6.8c0-0.4,0.3-0.7,0.8-0.7c0.4,0,0.8,0.3,0.8,0.7v6.8
				C13.9,20.9,12.9,22,11.6,22z"/>
		</g>
		<g>
			<path fill="#576164" d="M15.4,14.5c-0.2,0-0.4-0.1-0.5-0.2c-0.4-0.4-1-0.7-1.7-0.7c0,0,0,0,0,0c-0.6,0-1.2,0.2-1.6,0.7
				c-0.3,0.3-0.8,0.3-1.1,0c-0.3-0.3-0.3-0.8,0-1.1c0.7-0.7,1.7-1.1,2.7-1.1c1.1,0,2,0.4,2.8,1.1c0.3,0.3,0.3,0.8,0,1.1
				C15.8,14.4,15.6,14.5,15.4,14.5z"/>
		</g>
		<g>
			<path fill="#576164" d="M18.3,11.6c-0.2,0-0.4-0.1-0.5-0.2c-2.5-2.5-6.6-2.5-9.2,0c-0.3,0.3-0.8,0.3-1.1,0
				c-0.3-0.3-0.3-0.8,0-1.1c3.1-3.1,8.2-3.1,11.3,0c0.3,0.3,0.3,0.8,0,1.1C18.7,11.5,18.5,11.6,18.3,11.6z"/>
		</g>
		<g>
			<path fill="#576164" d="M21.2,8.7c-0.2,0-0.4-0.1-0.5-0.2c-4.1-4.1-10.9-4.1-15.1,0c-0.3,0.3-0.8,0.3-1.1,0
				c-0.3-0.3-0.3-0.8,0-1.1c4.8-4.7,12.5-4.7,17.2,0c0.3,0.3,0.3,0.8,0,1.1C21.6,8.6,21.4,8.7,21.2,8.7z"/>
		</g>
		<g>
			<path fill="#576164" d="M8.1,18.5H5.9c-0.4,0-0.8-0.3-0.8-0.7S5.5,17,5.9,17h2.2c0.4,0,0.8,0.3,0.8,0.7S8.5,18.5,8.1,18.5z"/>
		</g>
	</g>
</g>
</svg>
