<?xml version="1.0" encoding="UTF-8" standalone="no"?>
<svg xmlns="http://www.w3.org/2000/svg" xmlns:xlink="http://www.w3.org/1999/xlink" width="320" height="500" viewBox="0 0 320 500">
  <defs>
    <g id="air">
      <path d="M 0 0 l -16.7 -20 a 27 27 0 0 1 33.4 0 Z" fill="#ffffff"/>
      <path d="M -24 -30 a 38 38 0 0 1 48 0 M -37 -47 a 58 58 0 0 1 74 0 M -50 -64 a 78 78 0 0 1 100 0" stroke="#ffffff" stroke-width="18" fill="none"/>
    </g>
  </defs>
  <rect x="0" y="0" width="320" height="500" rx="20" ry="20" fill="#444445" />
  <circle cx="160" cy="220" r="80" fill="#164a8c" />
  <path d="m40 40 h240 v360 h-240 v-360 m40,180 a80,80,0 0 0 160,0 a80,80,0 0 0 -160,0 Z" fill="#eef5fb" />
  <use xlink:href="#air" x="160" y="270" />
</svg>
