<?xml version="1.0" encoding="UTF-8" standalone="no"?>
<svg xmlns="http://www.w3.org/2000/svg" xmlns:xlink="http://www.w3.org/1999/xlink" width="320" height="500" viewBox="0 0 320 500">
  <defs>
    <g id="memory" fill="#ffffff">
      <path d="M0 0h24v24H0z" fill="none"/>
      <path d="M15 9H9v6h6V9zm-2 4h-2v-2h2v2zm8-2V9h-2V7c0-1.1-.9-2-2-2h-2V3h-2v2h-2V3H9v2H7c-1.1 0-2 .9-2 2v2H3v2h2v2H3v2h2v2c0 1.1.9 2 2 2h2v2h2v-2h2v2h2v-2h2c1.1 0 2-.9 2-2v-2h2v-2h-2v-2h2zm-4 6H7V7h10v10z"/>
    </g>
  </defs>
  <rect x="0" y="0" width="320" height="500" rx="20" ry="20" fill="#444445" />
  <circle cx="160" cy="220" r="80" fill="#164a8c" />
  <path d="m40 40 h240 v360 h-240 v-360 m40,180 a80,80,0 0 0 160,0 a80,80,0 0 0 -160,0 Z" fill="#eef5fb" />
  <use transform="translate(100,160) scale(5)" xlink:href="#memory"/>
</svg>
