<?xml version="1.0" encoding="utf-8"?>
<!-- Generator: Adobe Illustrator 27.9.0, SVG Export Plug-In . SVG Version: 6.00 Build 0)  -->
<svg version="1.2" baseProfile="tiny" id="Layer_1" xmlns="http://www.w3.org/2000/svg" xmlns:xlink="http://www.w3.org/1999/xlink"
	 x="0px" y="0px" viewBox="0 0 167 118" overflow="visible" xml:space="preserve">
<path fill="#0077B6" d="M102.8,0H44.9c-4.1,0-7.4,3.3-7.4,7.4v15c-2.2,0-4.5-0.1-5.5-0.1c3.5,2.4,4,7,4.4,15.6
	c0.2,5.1,0,22.8,0,23.5l-0.1,4.8L17.7,47.7v-5.8l14.8,14.8c0-2.9,0.1-6.8,0.1-10.2c0-3.4,0-6.5-0.1-8.1C31.9,29,31,24.6,26.1,22.9
	c-1.5-0.5-2.9-0.7-5.2-0.7h-3.8l0,0c-4.7,0-12.1,0-13.5,0.1c-2,0.1-3.4,1.6-3.5,3.5c-0.1,1.9-0.1,37,0,39c0.1,1.9,1.6,3.3,3.5,3.4
	c2.1,0.1,9.2,0.1,11.2,0.1c-3.5-2.4-4-7-4.4-15.6c-0.2-5.1,0-22.8,0-23.5l0.1-4.8L29.2,43v5.8L14.4,34.1c0,2.9-0.1,6.8-0.1,10.2
	c0,3.5,0.1,6.5,0.2,8.1c0.6,9.3,1.4,13.7,6.3,15.4c1.5,0.5,2.9,0.6,5.2,0.7c1.2,0,7,0,11.6,0l0,0c0-0.3,0.2-0.5,0.5-0.5
	c2.7,0,4.4,0,5-0.1c1.7-0.1,2.9-1.3,3-3c0.1-1.6,0.1-27,0-35.9c0-0.3,0.2-0.5,0.5-0.5l0,0c0-1.3,0-2.2,0-2.5
	c-0.1-1.9-1.6-3.3-3.5-3.4c-0.2,0-0.4,0-0.7,0V9c0-2.3,1.9-4.1,4.1-4.1h54.7c2.3,0,4.1,1.9,4.1,4.1v90.8c-0.9-1.3-2.5-2.2-4.2-2.2
	H46.6c-1.7,0-3.2,0.9-4.2,2.2V75.3h8.7c2.2,0,3.9-1.8,3.9-3.9V32.4c0-2.2-1.8-3.9-3.9-3.9h-4.6c0.3,0,0.5,0.2,0.5,0.5
	c0.1,8.8,0,34.3-0.1,35.9c-0.1,2.2-1.7,3.8-4,4c-0.1,0-0.2,0-0.3,0v6.1c0,0.3-0.2,0.5-0.5,0.5s-0.5-0.2-0.5-0.5v-6
	c-1.1,0-2.5,0-3.8,0c-0.3,0-0.5-0.2-0.5-0.5v7v35.2c0,4.1,3.3,7.4,7.4,7.4h57.9c4.1,0,7.4-3.3,7.4-7.4V7.4
	C110.2,3.3,106.9,0,102.8,0z M42.4,102.9c0-2.3,1.9-4.2,4.2-4.2h54.6c2.3,0,4.2,1.9,4.2,4.2v6c0,2-1.4,3.7-3.3,4.1
	c-0.3,0.1-0.5,0.1-0.8,0.1H46.5c-0.3,0-0.6,0-0.8-0.1c-1.9-0.4-3.3-2.1-3.3-4.1C42.4,108.9,42.4,102.9,42.4,102.9z M109.2,110.5
	c0,3.5-2.9,6.4-6.4,6.4H44.9c-3.5,0-6.4-2.9-6.4-6.4V75.3h2.9v27.6v6l0,0c0,2.8,2.3,5.1,5.1,5.1l0,0h54.6l0,0l0,0c0.3,0,0.7,0,1-0.1
	c2.3-0.5,4.1-2.5,4.1-5l0,0v-6V9c0-2.8-2.3-5.1-5.1-5.1H46.5c-2.8,0-5.1,2.3-5.1,5.1v13.5c-0.8,0-1.8-0.1-2.9-0.1v-15
	c0-3.5,2.9-6.4,6.4-6.4h57.9c3.5,0,6.4,2.9,6.4,6.4C109.2,7.4,109.2,110.5,109.2,110.5z"/>
</svg>
