<svg xmlns="http://www.w3.org/2000/svg" width="48" height="48" viewBox="0 -2.223 90.952 90.952">
  <g transform="translate(-314.267 -533.941)" fill="#164a8c">
    <path d="M13406.908,22776.83H13376.5a3.8,3.8,0,0,1,0-7.6h8.231l1.27-3.8h-20.9c-2.228,0-3.438-.309-4.182-1.062s-1.038-1.965-1.038-4.2v-34.211c0-4.23,1.263-5.521,5.4-5.521h49.476a3.805,3.805,0,0,0,3.736,3,5.577,5.577,0,0,0,4.137-2.037c1.054.809,1.522,2.215,1.522,4.559v5.477h-5.728v-5.477h-52.932v34.211h43v5.266h-11.084l1.27,3.8h8.231a3.8,3.8,0,0,1,0,7.6Z"
          transform="translate(-13045.613 -22168)" />
    <path d="M28.562,7.135v1.81a1.815,1.815,0,0,0,1.81,1.81H41.231a1.815,1.815,0,0,0,1.81-1.81V7.135h3.62a1.815,1.815,0,0,1,1.81,1.81V48.76a1.815,1.815,0,0,1-1.81,1.81H24.943a1.815,1.815,0,0,1-1.81-1.81V8.945a1.815,1.815,0,0,1,1.81-1.81Zm-3.62-5.3c-5,0-7.076,2.107-7.076,7.107V48.76c0,5,2.076,7.1,7.076,7.1H46.66c5,0,7.031-2.1,7.031-7.1V8.945c0-5-2.032-7.107-7.031-7.107Z"
          transform="translate(348.012 564.588)" />
    <path d="M20.472,52.468a4.106,4.106,0,1,0,4.105,4.106A4.105,4.105,0,0,0,20.472,52.468Zm.058-10.263A18.452,18.452,0,0,0,8.31,46.826a2.129,2.129,0,0,0-.18,2.955,2.058,2.058,0,0,0,2.9.18,14.358,14.358,0,0,1,19,0,2.054,2.054,0,0,0,2.72-3.079A18.51,18.51,0,0,0,20.53,42.205ZM40.427,40A28.744,28.744,0,0,0,.635,40a2.053,2.053,0,0,0,2.842,2.963A24.176,24.176,0,0,1,20.53,36.105a24.609,24.609,0,0,1,17.049,6.857A2.075,2.075,0,0,0,39,43.533,2.054,2.054,0,0,0,40.427,40Z"
          transform="translate(364.164 501.941)" />
  </g>
</svg>
