<?xml version="1.0" encoding="utf-8"?>
<!-- Generator: Adobe Illustrator 27.9.0, SVG Export Plug-In . SVG Version: 6.00 Build 0)  -->
<svg version="1.2" baseProfile="tiny" id="Layer_2_00000181793447552230537860000000819247068585621671_"
	 xmlns="http://www.w3.org/2000/svg" xmlns:xlink="http://www.w3.org/1999/xlink" x="0px" y="0px" viewBox="0 0 13.2 23.3"
	 overflow="visible" xml:space="preserve">
<g id="Layer_1-2">
	<g>
		<path fill="#0077B6" d="M6.6,16.5c-0.8,0-1.5-0.7-1.5-1.5c0-2.2,1.2-4.2,3.1-5.2c1.2-0.6,1.9-1.8,1.9-3.2c0-2-1.6-3.6-3.6-3.6
			S3,4.6,3,6.6c0,0.8-0.7,1.5-1.5,1.5S0,7.4,0,6.6C0,3,3,0,6.6,0s6.6,3,6.6,6.6c0,2.5-1.4,4.7-3.6,5.9c-0.9,0.5-1.5,1.4-1.5,2.5
			C8.1,15.8,7.4,16.5,6.6,16.5L6.6,16.5z"/>
		<path fill="#0077B6" d="M6.6,23.3c-0.8,0-1.5-0.7-1.5-1.5V20c0-0.8,0.7-1.5,1.5-1.5s1.5,0.7,1.5,1.5v1.8
			C8.1,22.6,7.4,23.3,6.6,23.3z"/>
	</g>
</g>
</svg>
