<?xml version="1.0" encoding="utf-8"?>
<!-- Generator: Adobe Illustrator 27.8.1, SVG Export Plug-In . SVG Version: 6.00 Build 0)  -->
<svg version="1.2" baseProfile="tiny" id="Layer_1" xmlns="http://www.w3.org/2000/svg" xmlns:xlink="http://www.w3.org/1999/xlink"
	 x="0px" y="0px" viewBox="0 0 21 22" overflow="visible" xml:space="preserve">
<g>
	<g>
		<g>
			<path fill="#576164" d="M12.2,22H8.7C8.3,22,8,21.8,8,21.4l-0.5-2.2c-0.9-0.3-1.7-0.8-2.5-1.5l-2.2,0.6c-0.3,0.1-0.7,0-0.9-0.3
				l-1.8-3c-0.2-0.3-0.1-0.7,0.1-1l1.6-1.6c-0.1-0.5-0.1-1-0.1-1.5s0-1,0.1-1.5L0.2,8C0,7.7-0.1,7.3,0.1,7l1.8-3
				c0.2-0.3,0.5-0.4,0.8-0.3L5,4.3c0.7-0.6,1.6-1.1,2.5-1.5L8,0.6C8.1,0.2,8.4,0,8.8,0h3.5c0.3,0,0.6,0.2,0.7,0.6l0.6,2.2
				c0.9,0.3,1.7,0.8,2.5,1.5l2.2-0.6c0.3-0.1,0.7,0,0.9,0.3L21,7c0.1,0.3,0,0.7-0.2,1l-1.6,1.6c0.1,0.5,0.1,1,0.1,1.5
				c0,0.6-0.1,1.1-0.2,1.5l1.6,1.5c0.2,0.2,0.3,0.6,0.1,0.9L19,18c-0.2,0.3-0.5,0.4-0.9,0.3L16,17.7c-0.7,0.6-1.6,1.1-2.5,1.5
				L13,21.4C12.8,21.8,12.5,22,12.2,22z M9.3,20.5h2.3l0.5-2c0.1-0.3,0.2-0.5,0.5-0.5c1-0.3,1.9-0.9,2.7-1.6
				c0.2-0.2,0.5-0.3,0.7-0.2l2,0.6l1.2-2l-1.5-1.5c-0.2-0.2-0.3-0.5-0.2-0.8c0.2-0.4,0.2-0.9,0.2-1.4s-0.1-1-0.2-1.6
				c0-0.3,0-0.5,0.2-0.7l1.5-1.5l-1.2-2l-2,0.6c-0.2,0.1-0.5,0-0.7-0.2c-0.8-0.7-1.7-1.3-2.7-1.6c-0.2-0.1-0.4-0.3-0.5-0.5l-0.5-2
				H9.4l-0.5,2C8.8,3.8,8.6,4,8.4,4.1C7.4,4.4,6.5,5,5.7,5.7C5.5,5.8,5.2,5.9,5,5.8L2.9,5.3l-1.2,2l1.5,1.5C3.4,9,3.5,9.2,3.4,9.5
				c-0.1,0.5-0.2,1-0.2,1.6c0,0.5,0.1,1,0.2,1.6c0.1,0.3,0,0.5-0.2,0.7l-1.5,1.5l1.2,2l2-0.6c0.2-0.1,0.5,0,0.7,0.2
				c0.8,0.7,1.7,1.3,2.7,1.6c0.2,0.1,0.4,0.3,0.5,0.5L9.3,20.5z"/>
		</g>
		<g>
			<path fill="#576164" d="M10.5,14.8c-2.1,0-3.8-1.7-3.8-3.8s1.7-3.8,3.8-3.8s3.8,1.7,3.8,3.8S12.6,14.8,10.5,14.8z M10.5,8.7
				c-1.3,0-2.3,1-2.3,2.3s1,2.3,2.3,2.3s2.3-1,2.3-2.3S11.7,8.7,10.5,8.7z"/>
		</g>
	</g>
</g>
</svg>
