<?xml version="1.0" encoding="utf-8"?>
<!-- Generator: Adobe Illustrator 27.8.1, SVG Export Plug-In . SVG Version: 6.00 Build 0)  -->
<svg version="1.2" baseProfile="tiny" id="Layer_1" xmlns="http://www.w3.org/2000/svg" xmlns:xlink="http://www.w3.org/1999/xlink"
	 x="0px" y="0px" viewBox="0 0 22 22" overflow="visible" xml:space="preserve">
<g>
	<path fill="#576164" d="M18.5,7.1c-2,0-3.5-1.6-3.5-3.5S16.5,0,18.5,0S22,1.6,22,3.5S20.4,7.1,18.5,7.1z M18.5,1.5
		c-1.1,0-2,0.9-2,2s0.9,2,2,2s2-0.9,2-2S19.6,1.5,18.5,1.5z"/>
</g>
<g>
	<path fill="#576164" d="M18.5,22c-2,0-3.5-1.6-3.5-3.5c0-2,1.6-3.5,3.5-3.5s3.5,1.6,3.5,3.5C22,20.4,20.4,22,18.5,22z M18.5,16.4
		c-1.1,0-2,0.9-2,2c0,1.1,0.9,2,2,2s2-0.9,2-2C20.5,17.3,19.6,16.4,18.5,16.4z"/>
</g>
<g>
	<path fill="#576164" d="M3.5,14.5C1.6,14.5,0,13,0,11s1.6-3.5,3.5-3.5S7.1,9,7.1,11S5.5,14.5,3.5,14.5z M3.5,9c-1.1,0-2,0.9-2,2
		c0,1.1,0.9,2,2,2s2-0.9,2-2C5.6,9.9,4.7,9,3.5,9z"/>
</g>
<g>
	<path fill="#576164" d="M16,18c-0.1,0-0.2,0-0.3-0.1l-10-5c-0.4-0.2-0.5-0.6-0.3-1c0.2-0.4,0.6-0.5,1-0.3l10,5
		c0.4,0.2,0.5,0.6,0.3,1C16.5,17.8,16.3,18,16,18z"/>
</g>
<g>
	<path fill="#576164" d="M6,10.5c-0.3,0-0.5-0.2-0.7-0.4c-0.2-0.4,0-0.8,0.3-1l10-5c0.4-0.2,0.8,0,1,0.3c0.2,0.4,0,0.8-0.3,1l-10,5
		C6.3,10.5,6.1,10.5,6,10.5z"/>
</g>
</svg>
