<?xml version="1.0" encoding="utf-8"?>
<!-- Generator: Adobe Illustrator 27.7.0, SVG Export Plug-In . SVG Version: 6.00 Build 0)  -->
<svg version="1.1" id="Layer_1" xmlns="http://www.w3.org/2000/svg" xmlns:xlink="http://www.w3.org/1999/xlink" x="0px" y="0px"
	 viewBox="0 0 160 160" style="enable-background:new 0 0 160 160;" xml:space="preserve">
<style type="text/css">
	.st0{fill:none;stroke:#0077b6;stroke-width:6.9995;stroke-linecap:round;stroke-miterlimit:10;}
</style>
<path class="st0" d="M25.2,128.8c0-20,16.3-36.3,36.3-36.3s36.3,16.3,36.3,36.3"/>
<ellipse class="st0" cx="61.5" cy="73.5" rx="19" ry="19"/>
<line class="st0" x1="97.8" y1="55.6" x2="129.3" y2="55.6"/>
<line class="st0" x1="97.8" y1="81.9" x2="129.3" y2="81.9"/>
<line class="st0" x1="97.8" y1="96.5" x2="129.3" y2="96.5"/>
<path class="st0" d="M136.9,128.8H23.1c-5.4,0-9.8-4.4-9.8-9.8V41.6c0-5.4,4.4-9.8,9.8-9.8h113.8c5.4,0,9.8,4.4,9.8,9.8V119
	C146.7,124.4,142.3,128.8,136.9,128.8z"/>
<line class="st0" x1="13.3" y1="80" x2="3.7" y2="80"/>
<line class="st0" x1="13.3" y1="55.6" x2="3.7" y2="55.6"/>
<line class="st0" x1="13.3" y1="104.7" x2="3.7" y2="104.7"/>
<line class="st0" x1="156.3" y1="80" x2="146.7" y2="80"/>
<line class="st0" x1="156.3" y1="55.6" x2="146.7" y2="55.6"/>
<line class="st0" x1="156.3" y1="104.7" x2="146.7" y2="104.7"/>
<line class="st0" x1="67.5" y1="17.1" x2="67.5" y2="31.8"/>
<line class="st0" x1="92.2" y1="17.1" x2="92.2" y2="31.8"/>
<line class="st0" x1="116.8" y1="17.1" x2="116.8" y2="31.8"/>
<line class="st0" x1="43.2" y1="17.1" x2="43.2" y2="31.8"/>
<line class="st0" x1="67.5" y1="128.8" x2="67.5" y2="143.4"/>
<line class="st0" x1="92.2" y1="128.8" x2="92.2" y2="143.4"/>
<line class="st0" x1="116.8" y1="128.8" x2="116.8" y2="143.4"/>
<line class="st0" x1="43.2" y1="128.8" x2="43.2" y2="143.4"/>
</svg>
