<?xml version="1.0" encoding="utf-8"?>
<!-- Generator: Adobe Illustrator 27.8.1, SVG Export Plug-In . SVG Version: 6.00 Build 0)  -->
<svg version="1.2" baseProfile="tiny" id="Layer_1" xmlns="http://www.w3.org/2000/svg" xmlns:xlink="http://www.w3.org/1999/xlink"
	 x="0px" y="0px" viewBox="0 0 133 94" overflow="visible" xml:space="preserve">
<g>
	<path fill="#0077B6" d="M64.2,8.2H53.1c-1.1,0-2,0.9-2,2s0.9,2,2,2h11.2c1.1,0,2-0.9,2-2S65.4,8.2,64.2,8.2z"/>
	<path fill="#0077B6" d="M108.3,35.6c-4.6,0-8.9,1.3-12.6,3.4l0,0l-0.8,0.5c-0.1,0.1-0.3,0.2-0.4,0.3s-0.2,0.1-0.3,0.2
		c-2.7,1.8-4.9,4.2-6.7,6.8V6c0-3.3-2.7-6-6-6H35.7c-3.3,0-6,2.7-6,6v11.9c-1.8,0-3.5-0.1-4.2-0.1c2.8,1.9,3.2,5.6,3.5,12.4
		c0.2,4,0,18.1,0,18.7l-0.1,3.9L14.1,38v-4.6l11.8,11.8c0-2.3,0.1-5.4,0.1-8.1c0-2.8,0-5.2-0.1-6.4c-0.4-7.4-1.1-10.9-5-12.2
		c-1.2-0.4-2.3-0.5-4.1-0.5h-3l0,0c-3.7,0-9.7,0-10.8,0.1c-1.6,0.1-2.7,1.3-2.8,2.8s-0.1,29.4,0,31c0.1,1.5,1.3,2.6,2.8,2.7
		c1.7,0.1,7.4,0.1,8.9,0.1C9,52.5,8.6,48.9,8.3,42.1c-0.2-4,0-18.1,0-18.7l0.1-3.8l14.8,14.8V39L11.4,27.2c0,2.3-0.1,5.4-0.1,8.1
		c0,2.8,0,5.2,0.1,6.4c0.4,7.4,1.1,10.9,5,12.2c1.2,0.4,2.3,0.5,4.1,0.5c1,0,5.5,0,9.1,0l0,0c0-0.3,0.2-0.5,0.5-0.5
		c2.1,0,3.5,0,4-0.1c1.3-0.1,2.2-1,2.3-2.3s0.1-21.5,0-28.5c0-0.3,0.2-0.5,0.5-0.5c0-1,0-1.7,0-1.9c-0.1-1.5-1.3-2.6-2.8-2.7
		c-0.1,0-0.3,0-0.4,0V7.3c0-1.8,1.4-3.2,3.2-3.2h43.4c1.8,0,3.2,1.4,3.2,3.2V60c0,0.1,0,0.2,0,0.3s0,0.2,0,0.3v18.5
		c-0.8-0.9-1.9-1.5-3.2-1.5H37c-1.3,0-2.5,0.6-3.2,1.5V60.2h6.9c1.8,0,3.2-1.4,3.2-3.2V25.9c0-1.6-1.2-3-2.7-3.2h-4
		c0.2,0.1,0.3,0.2,0.3,0.5c0,7,0,27.3,0,28.6c-0.1,1.8-1.4,3.2-3.3,3.3c-0.1,0-0.3,0-0.5,0v4.7c0,0.3-0.2,0.5-0.5,0.5
		s-0.5-0.2-0.5-0.5V55c-0.9,0-1.9,0-2.6,0l0,0c-0.3,0-0.5-0.2-0.5-0.5v5.7V88c0,3.3,2.7,6,6,6h45.9c3.3,0,6-2.7,6-6V74
		c1.7,2.6,4,4.9,6.7,6.8c0.1,0.1,0.2,0.1,0.3,0.2c0.1,0.1,0.2,0.2,0.4,0.3l0.8,0.5l0,0c3.7,2.2,8,3.4,12.6,3.4
		c13.6,0,24.7-11.1,24.7-24.7C133,46.7,121.9,35.6,108.3,35.6z M80.3,3.1H37c-2.3,0-4.2,1.9-4.2,4.2V18c-0.6,0-1.3,0-2.1-0.1V6
		c0-2.8,2.2-5,5-5h45.9c2.8,0,5,2.2,5,5v42.4c-0.9,1.6-1.6,3.2-2.1,5V7.3C84.5,4.9,82.7,3.1,80.3,3.1z M33.8,81.9
		c0-1.8,1.4-3.2,3.2-3.2h43.3c1.8,0,3.2,1.4,3.2,3.2v4.8c0,1.8-1.4,3.2-3.2,3.2H37c-1.8,0-3.2-1.4-3.2-3.2V81.9z M86.6,88
		c0,2.8-2.2,5-5,5H35.7c-2.8,0-5-2.2-5-5V60.2h2.1V82v4.8l0,0c0,2.3,1.9,4.2,4.2,4.2l0,0h43.3l0,0c2.3,0,4.2-1.9,4.2-4.2l0,0V82
		V67.4c0.5,1.7,1.2,3.4,2.1,5V88z M87.6,72.2c0,0.3-0.2,0.5-0.5,0.5s-0.5-0.2-0.5-0.5V48.6c0-0.3,0.2-0.5,0.5-0.5s0.5,0.2,0.5,0.5
		V72.2z M108.3,84.1c-4.6,0-8.9-1.3-12.6-3.6V40.3c3.6-2.3,7.9-3.6,12.6-3.6c13.1,0,23.7,10.6,23.7,23.7S121.4,84.1,108.3,84.1z"/>
</g>
<g>
	<path fill="#3E8401" d="M104.1,68.4c-0.4,0-0.8-0.1-1.1-0.4l-4.9-4.8c-0.6-0.6-0.6-1.5,0-2.1s1.5-0.6,2.1,0l3.8,3.8l12.1-12.1
		c0.6-0.6,1.5-0.6,2.1,0s0.6,1.5,0,2.1l-13,13.1C104.9,68.3,104.5,68.4,104.1,68.4z"/>
</g>
</svg>
