<?xml version="1.0" encoding="utf-8"?>
<!-- Generator: Adobe Illustrator 27.9.0, SVG Export Plug-In . SVG Version: 6.00 Build 0)  -->
<svg version="1.2" baseProfile="tiny" id="Layer_2_00000018927927095516631400000004821875836316655264_"
	 xmlns="http://www.w3.org/2000/svg" xmlns:xlink="http://www.w3.org/1999/xlink" x="0px" y="0px" viewBox="0 0 16.9 16.9"
	 overflow="visible" xml:space="preserve">
<g id="Layer_1-2">
	<path fill="#EB0000" d="M10.6,8.5l5.9-5.9c0.6-0.6,0.6-1.5,0-2.1s-1.5-0.6-2.1,0L8.5,6.3L2.6,0.4C2-0.2,1-0.2,0.4,0.4
		s-0.6,1.5,0,2.1l5.9,5.9l-5.9,5.9c-0.6,0.6-0.6,1.5,0,2.1c0.3,0.3,0.7,0.4,1.1,0.4s0.8-0.1,1.1-0.4l5.9-5.9l5.9,5.9
		c0.3,0.3,0.7,0.4,1.1,0.4s0.8-0.1,1.1-0.4c0.6-0.6,0.6-1.5,0-2.1C16.5,14.4,10.6,8.5,10.6,8.5z"/>
</g>
</svg>
