<?xml version="1.0" encoding="UTF-8" standalone="no"?>
<svg version="1.1" xmlns="http://www.w3.org/2000/svg" xmlns:xlink="http://www.w3.org/1999/xlink" width="123px" height="123px" viewBox="0 0 1700 1700">
  <circle cx="850" cy="850" r="850" fill="#164a8c" />
  <g transform="translate(-120,-220) scale(1.8,1.8)" fill="#ffffff">
    <path d="M 210 432 c0 -11 8 -26 18 -34 22 -18 293 -128 317 -128 24 0 295 110 318 128 9 8 17 23 17 34 0 17 -16 18 -335 18 -319 0 -335 -1 -335 -18 Z
           M 320 445 H 770 V 840 a 50 50 0 0 1 -50 50 L 370 890 a 50 50 0 0 1 -50 -50 Z
           M 546.5 505 a 168.33 168.33 0 0 0 0 336.66 a 168.33 168.33 0 0 0 0 -336.66 z
           M 546.5 564.58 a 108.75 108.75 0 0 1 0 217.5 a 108.75 108.75 0 0 1 0 -217.5 z
           M 530.875 470 h 31.25 v 410 h -31.25 z" />
  </g>
</svg>
