<?xml version="1.0" encoding="UTF-8" standalone="no"?>
<svg version="1.1" xmlns="http://www.w3.org/2000/svg" xmlns:xlink="http://www.w3.org/1999/xlink" width="135px" height="135px" viewBox="170 180 1040 1040" preserveAspectRatio="xMidYMid meet">
  <defs>
    <g id="circle">
      <path d="M 18.5 5 L 18.5 9.8 A 8.7 8.7 0 0 0 18.5 27.2 L 18.5 32 A 13.5 13.5 0 0 1 18.5 5" style="fill:#ffffff" />
      <path d="M 18.5 5 L 18.5 9.8 A 8.7 8.7 0 0 1 18.5 27.2 L 18.5 32 A 13.5 13.5 0 0 0 18.5 5" style="fill:#ffffff" />
      <rect x="17.25" y="4" width="2.5" height="30" style="fill:#a3cb7f" />
   </g>
  </defs>
  <g fill="#a3cb7f">
    <path d="M210 432 c0 -11 8 -26 18 -34 22 -18 293 -128 317 -128 24 0 295 110 318 128 9 8 17 23 17 34 0 17 -16 18 -335 18 -319 0 -335 -1 -335 -18z" />
    <path d="M320 460 L 770 460 770 890 370 890 a 50 50 0 0 1 -50 -50" />
  </g>
  <use xlink:href="#circle" x="27" y="37" transform="scale(12)"/>
  <circle cx="885" cy="855" r="270" fill="#059ccd" />
  <g fill="#ffffff">
    <circle cx="882" cy="710" r="34" />
    <path d="M835 995 c0 -5 5 -10 10 -10 6 0 10 -35 10 -86 0 -71 -3 -89 -17 -100 -16 -12 -13 -13 25 -14 l42 0 0 100 c0 82 3 100 15 100 8 0 15 5 15 10 0 6 -22 10 -50 10 -27 0 -50 -4 -50 -10z" />
  </g>
</svg>
