<?xml version="1.0" encoding="UTF-8" standalone="no"?>
<svg version="1.1" xmlns="http://www.w3.org/2000/svg" xmlns:xlink="http://www.w3.org/1999/xlink" width="170px" height="170px" viewBox="0 0 1700 1700">
  <defs>
    <path id="form" d="M723 1450 c-179 -90 -345 -407 -402 -770 -14 -82 -14 -221 -1 -254 12 -32 97 -89 175 -117 78 -28 215 -30 298 -6 52 16 62 16 110 3 127 -36 248 -26 358 29 112 57 129 82 129 192 0 235 -116 594 -253 779 -85 116 -165 165 -277 172 -68 3 -80 1 -137 -28z" />
  </defs>
  <rect x="0" y="0" rx="350" ry="350" width="1700" height="1700" fill="#ffffff" style="opacity: 0.7;" />
  <use xlink:href="#form" fill="#53428c" />
  <use xlink:href="#form" fill="#ffffff" transform="translate(60,60) scale(0.93,0.93)" />
  <use xlink:href="#form" fill="#53428c" transform="translate(112,112) scale(0.87,0.87)" />
</svg>
