<?xml version="1.0" encoding="UTF-8" standalone="no"?>
<svg version="1.1" xmlns="http://www.w3.org/2000/svg" width="135px" height="135px" viewBox="170 180 1040 1040" preserveAspectRatio="xMidYMid meet">
  <g fill="#a3cb7f">
    <circle cx="400" cy="335" r="95" />
    <circle cx="655" cy="400" r="95" />
    <path d="M545 802 l-40 -19 31 -16 c51 -26 67 -61 61 -126 -3 -31 -9 -66 -12 -78 -18 -57 153 -42 185 17 9 17 5 23 -28 44 -54 34 -100 92 -116 146 -7 25 -19 46 -27 47 -8 2 -32 -5 -54 -15z" />
    <path d="M280 733 c-33 -17 -35 -22 -38 -73 -4 -69 19 -130 64 -170 29 -25 43 -30 87 -30 33 0 63 7 83 19 43 26 77 99 78 168 1 50 -2 58 -27 77 -40 30 -195 36 -247 9z" />
  </g>
  <circle cx="885" cy="855" r="270" fill="#059ccd" />
  <g fill="#ffffff">
    <circle cx="882" cy="710" r="34" />
    <path d="M835 995 c0 -5 5 -10 10 -10 6 0 10 -35 10 -86 0 -71 -3 -89 -17 -100 -16 -12 -13 -13 25 -14 l42 0 0 100 c0 82 3 100 15 100 8 0 15 5 15 10 0 6 -22 10 -50 10 -27 0 -50 -4 -50 -10z" />
  </g>
</svg>
