<?xml version="1.0" encoding="utf-8"?>
<!-- Generator: Adobe Illustrator 16.0.0, SVG Export Plug-In . SVG Version: 6.00 Build 0)  -->
<!DOCTYPE svg PUBLIC "-//W3C//DTD SVG 1.1//EN" "http://www.w3.org/Graphics/SVG/1.1/DTD/svg11.dtd">
<svg version="1.1" id="Layer_3" xmlns="http://www.w3.org/2000/svg" xmlns:xlink="http://www.w3.org/1999/xlink" x="0px" y="0px"
	 width="512px" height="512px" viewBox="0 0 512 512" enable-background="new 0 0 512 512" xml:space="preserve">
<g>
	<path fill="#959595" d="M147.891,225.97c-16.587,0-30.03,13.443-30.03,30.03s13.443,30.03,30.03,30.03
		c16.587,0,30.03-13.443,30.03-30.03S164.479,225.97,147.891,225.97z M147.891,274.018c-9.936,0-18.018-8.082-18.018-18.018
		s8.083-18.018,18.018-18.018c9.936,0,18.018,8.083,18.018,18.018S157.827,274.018,147.891,274.018z"/>
	<path fill="#959595" d="M256,225.97c-16.587,0-30.03,13.443-30.03,30.03s13.443,30.03,30.03,30.03s30.03-13.443,30.03-30.03
		S272.587,225.97,256,225.97z M256,274.018c-9.936,0-18.018-8.082-18.018-18.018s8.083-18.018,18.018-18.018
		s18.018,8.083,18.018,18.018S265.936,274.018,256,274.018z"/>
	<path fill="#959595" d="M364.108,225.97c-16.587,0-30.03,13.443-30.03,30.03s13.443,30.03,30.03,30.03s30.03-13.443,30.03-30.03
		S380.695,225.97,364.108,225.97z M364.108,274.018c-9.936,0-18.018-8.082-18.018-18.018s8.082-18.018,18.018-18.018
		c9.937,0,18.019,8.083,18.019,18.018S374.045,274.018,364.108,274.018z"/>
</g>
</svg>
