<?xml version="1.0" encoding="utf-8"?>
<!-- Generator: Adobe Illustrator 16.0.0, SVG Export Plug-In . SVG Version: 6.00 Build 0)  -->
<!DOCTYPE svg PUBLIC "-//W3C//DTD SVG 1.1//EN" "http://www.w3.org/Graphics/SVG/1.1/DTD/svg11.dtd">
<svg version="1.1" id="Layer_2" xmlns="http://www.w3.org/2000/svg" xmlns:xlink="http://www.w3.org/1999/xlink" x="0px" y="0px"
	 width="512px" height="512px" viewBox="0 0 512 512" enable-background="new 0 0 512 512" xml:space="preserve">
<g>
	<path fill="#659CCD" d="M147.891,225.971c-16.581,0-30.03,13.443-30.03,30.03s13.449,30.03,30.03,30.03
		c16.587,0,30.03-13.443,30.03-30.03S164.479,225.971,147.891,225.971z"/>
	<path fill="#659CCD" d="M256,225.971c-16.581,0-30.03,13.443-30.03,30.03s13.449,30.03,30.03,30.03
		c16.587,0,30.03-13.443,30.03-30.03S272.587,225.971,256,225.971z"/>
	<path fill="#659CCD" d="M364.108,225.971c-16.581,0-30.03,13.443-30.03,30.03s13.449,30.03,30.03,30.03
		c16.587,0,30.03-13.443,30.03-30.03S380.695,225.971,364.108,225.971z"/>
</g>
</svg>
