<?xml version="1.0" encoding="utf-8" standalone="yes"?>
<svg version="1.0" xmlns="http://www.w3.org/2000/svg" viewBox="0 0 136 96" enable-background="new 0 0 136 96" xml:space="preserve">
<g id="Layer_1">
	<path fill="#0077B6" d="M71.9,7.7H51.2c-0.3,0-0.5,0.2-0.5,0.5s0.2,0.5,0.5,0.5h20.8c0.3,0,0.5-0.2,0.5-0.5S72.2,7.7,71.9,7.7z"/>
	<path fill="#0077B6" d="M89.6,8.7h20.8c0.3,0,0.5-0.2,0.5-0.5s-0.2-0.5-0.5-0.5H89.6c-0.3,0-0.5,0.2-0.5,0.5S89.3,8.7,89.6,8.7z"/>
	<path fill="#0077B6" d="M89.6,12.5h20.8c0.3,0,0.5-0.2,0.5-0.5s-0.2-0.5-0.5-0.5H89.6c-0.3,0-0.5,0.2-0.5,0.5S89.3,12.5,89.6,12.5z
		"/>
	<path fill="#0077B6" d="M6.6,20.3h59.2c0.3,0,0.5-0.2,0.5-0.5s-0.2-0.5-0.5-0.5H6.6c-0.3,0-0.5,0.2-0.5,0.5S6.4,20.3,6.6,20.3z"/>
	<path fill="#0077B6" d="M6.6,24.1h51.2c0.3,0,0.5-0.2,0.5-0.5s-0.2-0.5-0.5-0.5H6.6c-0.3,0-0.5,0.2-0.5,0.5S6.4,24.1,6.6,24.1z"/>
	<path fill="#0077B6" d="M6.6,27.9h59.2c0.3,0,0.5-0.2,0.5-0.5s-0.2-0.5-0.5-0.5H6.6c-0.3,0-0.5,0.2-0.5,0.5S6.4,27.9,6.6,27.9z"/>
	<path fill="#0077B6" d="M6.6,31.8h42.7c0.3,0,0.5-0.2,0.5-0.5s-0.2-0.5-0.5-0.5H6.6c-0.3,0-0.5,0.2-0.5,0.5S6.4,31.8,6.6,31.8z"/>
	<path fill="#0077B6" d="M6.6,41.2h59.2c0.3,0,0.5-0.2,0.5-0.5s-0.2-0.5-0.5-0.5H6.6c-0.3,0-0.5,0.2-0.5,0.5S6.4,41.2,6.6,41.2z"/>
	<path fill="#0077B6" d="M6.6,45h59.2c0.3,0,0.5-0.2,0.5-0.5S66.1,44,65.8,44H6.6c-0.3,0-0.5,0.2-0.5,0.5S6.4,45,6.6,45z"/>
	<path fill="#0077B6" d="M65.8,83.7H6.6c-0.3,0-0.5,0.2-0.5,0.5s0.2,0.5,0.5,0.5h59.2c0.3,0,0.5-0.2,0.5-0.5S66.1,83.7,65.8,83.7z"
		/>
	<path fill="#0077B6" d="M57.8,87.6H6.6c-0.3,0-0.5,0.2-0.5,0.5s0.2,0.5,0.5,0.5h51.2c0.3,0,0.5-0.2,0.5-0.5S58.1,87.6,57.8,87.6z"
		/>
	<path fill="#0077B6" d="M128.8,47H117V0H44.5v11.5H0V96h72.4V82.5h17.7H117V69.1h11.8c4,0,7.2-3.2,7.2-7.2v-7.8
		C136,50.2,132.8,47,128.8,47z M45.5,1H116v46H90.1v-5.7h12.1c0.3,0,0.5-0.2,0.5-0.5s-0.2-0.5-0.5-0.5H90.1v-2.8h20.2
		c0.3,0,0.5-0.2,0.5-0.5s-0.2-0.5-0.5-0.5H90.1v-2.8h20.2c0.3,0,0.5-0.2,0.5-0.5s-0.2-0.5-0.5-0.5H90.1V21.3H72.4v-9.7H45.5V1z
		 M71.4,82.5V95H1V12.5h70.4v8.7v11.9c0-0.3,0.2-0.5,0.5-0.5h17.6c0.3,0,0.5,0.2,0.5,0.5s-0.2,0.5-0.5,0.5H71.9
		c-0.3,0-0.5-0.2-0.5-0.5V37c0-0.3,0.2-0.5,0.5-0.5h17.6c0.3,0,0.5,0.2,0.5,0.5s-0.2,0.5-0.5,0.5H71.9c-0.3,0-0.5-0.2-0.5-0.5v3.8
		c0-0.3,0.2-0.5,0.5-0.5h17.6c0.3,0,0.5,0.2,0.5,0.5s-0.2,0.5-0.5,0.5H71.9c-0.3,0-0.5-0.2-0.5-0.5V47H52.6c-4,0-7.2,3.2-7.2,7.2
		v1.7h-1.7c-4,0-7.2,3.2-7.2,7.2V70H6.1v10.9h60.2V78h5.1V82.5z M37.1,71c-0.3,0-0.5-0.2-0.5-0.5s0.2-0.5,0.5-0.5h29.2v7.5
		c0,0.3-0.2,0.5-0.5,0.5s-0.5-0.2-0.5-0.5V71H37.1z M65.3,78v1.9H7.1V71h29.5c0.1,3.9,3.3,7,7.2,7H65.3z M116,81.5H90.1V69.1H116
		V81.5z M135,62c0,3.4-2.8,6.2-6.2,6.2H90.1H72.4h-0.5c0.3,0,0.5,0.2,0.5,0.5v8.8c0,0.3-0.2,0.5-0.5,0.5s-0.5-0.2-0.5-0.5v-8.8
		c0-0.3,0.2-0.5,0.5-0.5h-0.5H52.6c-3.4,0-6.2-2.8-6.2-6.2v-6.1v-1.7c0-3.4,2.8-6.2,6.2-6.2h18.8h18.7h38.7c3.4,0,6.2,2.8,6.2,6.2
		V62z"/>
</g>
</svg>
