<?xml version="1.0" encoding="UTF-8" standalone="yes"?>
<svg xmlns="http://www.w3.org/2000/svg" viewBox="0 0 137 118">
  <defs>
    <style>
      .cls-1 {
        fill: #0077b6;
        stroke-width: 0px;
      }
    </style>
  </defs>
  <g id="Layer_1-2" data-name="Layer 1">
    <g>
      <path class="cls-1" d="m110.03,33.66h-8.36c-2.62,0-4.75,2.13-4.75,4.75v8.36c0,2.62,2.13,4.75,4.75,4.75h8.36c2.62,0,4.75-2.13,4.75-4.75v-8.36c0-2.62-2.13-4.75-4.75-4.75Zm3.75,13.11c0,2.07-1.68,3.75-3.75,3.75h-8.36c-2.07,0-3.75-1.68-3.75-3.75v-8.36c0-2.07,1.68-3.75,3.75-3.75h8.36c2.07,0,3.75,1.68,3.75,3.75v8.36Z"/>
      <path class="cls-1" d="m132.25,33.66h-8.36c-2.62,0-4.75,2.13-4.75,4.75v8.36c0,2.62,2.13,4.75,4.75,4.75h8.36c2.62,0,4.75-2.13,4.75-4.75v-8.36c0-2.62-2.13-4.75-4.75-4.75Zm3.75,13.11c0,2.07-1.68,3.75-3.75,3.75h-8.36c-2.07,0-3.75-1.68-3.75-3.75v-8.36c0-2.07,1.68-3.75,3.75-3.75h8.36c2.07,0,3.75,1.68,3.75,3.75v8.36Z"/>
      <path class="cls-1" d="m132.25,55.82h-8.36c-2.62,0-4.75,2.13-4.75,4.75v8.36c0,2.62,2.13,4.75,4.75,4.75h8.36c2.62,0,4.75-2.13,4.75-4.75v-8.36c0-2.62-2.13-4.75-4.75-4.75Zm3.75,13.11c0,2.07-1.68,3.75-3.75,3.75h-8.36c-2.07,0-3.75-1.68-3.75-3.75v-8.36c0-2.07,1.68-3.75,3.75-3.75h8.36c2.07,0,3.75,1.68,3.75,3.75v8.36Z"/>
      <path class="cls-1" d="m132.25,77.97h-8.36c-2.62,0-4.75,2.13-4.75,4.75v8.36c0,2.62,2.13,4.75,4.75,4.75h8.36c2.62,0,4.75-2.13,4.75-4.75v-8.36c0-2.62-2.13-4.75-4.75-4.75Zm3.75,13.11c0,2.07-1.68,3.75-3.75,3.75h-8.36c-2.07,0-3.75-1.68-3.75-3.75v-8.36c0-2.07,1.68-3.75,3.75-3.75h8.36c2.07,0,3.75,1.68,3.75,3.75v8.36Z"/>
      <path class="cls-1" d="m110.03,100.13h-8.36c-2.62,0-4.75,2.13-4.75,4.75v8.36c0,2.62,2.13,4.75,4.75,4.75h8.36c2.62,0,4.75-2.13,4.75-4.75v-8.36c0-2.62-2.13-4.75-4.75-4.75Zm3.75,13.11c0,2.07-1.68,3.75-3.75,3.75h-8.36c-2.07,0-3.75-1.68-3.75-3.75v-8.36c0-2.07,1.68-3.75,3.75-3.75h8.36c2.07,0,3.75,1.68,3.75,3.75v8.36Z"/>
      <g>
        <path class="cls-1" d="m114.79,68.93v-8.36c0-2.62-2.13-4.75-4.75-4.75h-8.36c-2.62,0-4.75,2.13-4.75,4.75v4.87c-.95-.43-1.99-.67-3.1-.67h-1.25v-4.2c0-2.45-1.87-4.45-4.25-4.7-.67-1.51-1.46-2.96-2.35-4.34h1.84c2.62,0,4.75-2.13,4.75-4.75v-8.36c0-2.62-2.13-4.75-4.75-4.75h-8.36c-2.62,0-4.75,2.13-4.75,4.75v2.56c-2.17-1.2-4.5-2.18-6.98-2.86l-.1-.03c-.76-.48-1.55-.92-2.36-1.34,6.56-2.55,10.89-8.81,10.89-15.93,0-8.43-6.26-15.66-14.58-16.9-2.96-2.44-6.75-3.91-10.88-3.91-9.44,0-17.11,7.68-17.11,17.11,0,7.82,5.28,14.42,12.46,16.45-5.63.82-10.78,3.13-15.07,6.49.27-.97.42-1.98.42-3.01,0-3.23-1.38-6.33-3.79-8.49-2.44-2.19-5.61-3.2-8.89-2.83-5.24.58-9.45,4.8-10.03,10.04-.42,3.88,1.12,7.66,4.13,10.11,1.55,1.26,2.44,3.12,2.44,5.08v5.12c0,1.54,1.19,2.82,2.71,2.94.32.37.73.62,1.18.78-.28,1.62-.45,3.27-.47,4.96H7.57c-4.17,0-7.57,3.4-7.57,7.57v6.98c0,4.17,3.4,7.57,7.57,7.57h2.16c1.16,2.82,3.91,4.7,6.98,4.7h58.05c.25,2.38,2.25,4.25,4.7,4.25h8.36c2.45,0,4.45-1.87,4.7-4.25h4.45c.25,2.38,2.25,4.25,4.7,4.25h8.36c2.62,0,4.75-2.13,4.75-4.75v-8.36c0-2.45-1.87-4.45-4.25-4.7v-.99c0-1.21-.29-2.34-.79-3.35h.29c2.62,0,4.75-2.13,4.75-4.75Zm-23.21-8.36v4.2h-.78c-.35-2.73-1.05-5.35-2.04-7.82,1.61.42,2.81,1.88,2.81,3.62Zm-3.58-4.75c.28.01.49.24.48.52-.01.27-.23.48-.5.48h-.15s-6.86,0-6.86,0c-.28,0-.5-.22-.5-.5s.22-.5.5-.5h7.03Zm-8.53-4.29c-.22,0-.43-.03-.64-.06-.27-.04-.49-.3-.45-.57.04-.27.26-.46.54-.43h.05c.16.03.32.06.49.06h5.58c.28,0,.5.22.5.5s-.22.5-.5.5h-5.58Zm-3.75-13.11c0-2.07,1.68-3.75,3.75-3.75h8.36c2.07,0,3.75,1.68,3.75,3.75v8.36c0,2.07-1.68,3.75-3.75,3.75h-2.52c-2.52-3.61-5.78-6.66-9.59-8.96v-3.15Zm-1,3.43c0-.28.22-.5.5-.5s.5.22.5.5v3.5c0,.28-.22.5-.5.5s-.5-.22-.5-.5v-3.5Zm-40.12-24.73c0-8.88,7.23-16.11,16.11-16.11,4.12,0,7.86,1.56,10.72,4.11.27.24.53.48.78.73.18.18.34.37.51.56.2.22.4.45.58.68.17.21.32.42.48.64.17.23.33.47.49.71.14.22.28.44.41.67.15.26.29.52.42.79.11.22.22.45.33.67.13.29.25.59.36.89.08.22.17.43.24.65.11.33.2.68.29,1.02.05.2.11.39.15.6.08.39.14.79.2,1.18.02.16.06.32.08.49.06.57.09,1.14.09,1.72,0,8.88-7.23,16.11-16.11,16.11-.42,0-.83-.03-1.24-.06-.31-.03-.63-.06-.98-.11-7.84-1.09-13.9-7.81-13.9-15.94Zm14.16,17.18c.65-.04,1.3-.07,1.95-.07.55,0,1.09.02,1.63.04.38.02.76.05,1.14.09.14.01.29.02.43.03.51.05,1.01.12,1.51.19,0,0,0,0,.01,0,12.19,1.87,22.07,10.86,25.24,22.58.07.28.15.56.21.84.07.3.14.59.21.89.11.52.2,1.03.28,1.55.02.13.04.25.06.38.02.12.03.25.05.37.06.47.11.94.15,1.42,0,.06.01.11.02.17.01.17.03.33.04.5.03.5.04.99.05,1.49H19.66c.03-1.64.19-3.25.47-4.82.74-.03,1.44-.36,1.93-.93,1.51-.13,2.71-1.4,2.71-2.94v-5.12c0-1.95.91-3.83,2.5-5.14,1.32-1.09,2.35-2.44,3.06-3.95,5-4.36,11.39-7.15,18.42-7.59Zm-35.29,10.81c-2.74-2.24-4.15-5.69-3.77-9.23.52-4.78,4.37-8.63,9.14-9.15,3.01-.33,5.89.58,8.12,2.58,2.2,1.97,3.46,4.79,3.46,7.74,0,3.11-1.37,6.02-3.77,8.01-1.82,1.5-2.86,3.66-2.86,5.91v.12h-7.52v-.12c0-2.27-1.02-4.41-2.8-5.86Zm4.36,10.86c-.28,0-.5-.22-.5-.5s.22-.5.5-.5h4.4c.28,0,.5.22.5.5s-.22.5-.5.5h-4.4Zm70.01,38.87h-8.36c-1.9,0-3.46-1.42-3.7-3.25h15.77c-.25,1.83-1.81,3.25-3.7,3.25Zm4.75-8.95h-.5c.28,0,.5.22.5.5v4.7c0,.28-.22.5-.5.5s-.5-.22-.5-.5v-4.7c0-.28.22-.5.5-.5h-16.87c.28,0,.5.22.5.5v4.7c0,.28-.22.5-.5.5s-.5-.22-.5-.5v-4.7c0-.28.22-.5.5-.5H7.57c-3.62,0-6.57-2.95-6.57-6.57v-6.98c0-3.62,2.95-6.57,6.57-6.57h86.25c1.13,0,2.19.29,3.12.79l.08.04c.06.03.12.07.18.11.23.14.45.29.66.46,0,0,.01,0,.02.01.44.35.84.76,1.18,1.2,0,0,0,.01.01.02.43.57.76,1.22.98,1.9.08.25.15.51.2.76.02.09.04.18.05.26.05.34.09.68.09,1.01v6.98c0,.27-.02.53-.05.79,0,.06-.02.11-.03.17-.03.22-.08.44-.13.66,0,.04-.02.07-.03.11-.22.8-.59,1.55-1.09,2.21,0,0,0,.01-.01.02-.34.45-.73.85-1.18,1.2,0,0-.01,0-.02.01-.21.16-.43.32-.66.46-.06.04-.12.08-.18.11l-.08.04c-.93.5-1.99.79-3.12.79h-1.25Zm5.34,5.2c0,.28-.22.5-.5.5s-.5-.22-.5-.5v-5.69c0-.28.22-.5.5-.5s.5.22.5.5v5.69Zm15.87-8.36v8.36c0,2.07-1.68,3.75-3.75,3.75h-8.36c-1.9,0-3.46-1.42-3.7-3.25h4.99c4.17,0,7.57-3.4,7.57-7.57v-4.99c1.83.25,3.25,1.8,3.25,3.7Zm-3.75-4.75c.28,0,.5.22.5.5s-.22.5-.5.5h-8.36c-.21,0-.44.02-.69.07-.03,0-.06,0-.09,0-.24,0-.45-.17-.49-.41-.05-.27.13-.53.4-.58.31-.06.6-.09.87-.09h8.36Zm-9.63-4.96c.05-.27.31-.46.58-.4.26.05.48.07.69.07h7.21c.28,0,.5.22.5.5s-.22.5-.5.5h-7.21c-.27,0-.55-.03-.87-.09-.27-.05-.45-.31-.4-.58Zm8.74-.33c-1.37-1.94-3.63-3.22-6.18-3.22h-2.14c-.23-.55-.52-1.06-.86-1.54,0,0,0,0,0-.01-.17-.24-.36-.47-.56-.69-.02-.02-.04-.04-.05-.06-.42-.45-.9-.85-1.42-1.19,0,0,0,0,0,0v-5.41c0-2.07,1.68-3.75,3.75-3.75h8.36c2.07,0,3.75,1.68,3.75,3.75v8.36c0,2.07-1.68,3.75-3.75,3.75h-.89Z"/>
        <path class="cls-1" d="m20.01,23.59c.28,0,.5-.22.5-.5v-3.76c0-.28-.22-.5-.5-.5s-.5.22-.5.5v3.76c0,.28.22.5.5.5Z"/>
        <path class="cls-1" d="m12.98,24.98c.09.17.26.26.44.26.08,0,.16-.02.24-.06.24-.13.33-.43.2-.68l-1.78-3.31c-.13-.24-.43-.34-.68-.2-.24.13-.33.43-.2.68l1.78,3.31Z"/>
        <path class="cls-1" d="m4.98,27.64l3.13,2.08c.08.06.18.08.28.08.16,0,.32-.08.42-.22.15-.23.09-.54-.14-.69l-3.13-2.08c-.23-.15-.54-.09-.69.14-.15.23-.09.54.14.69Z"/>
        <path class="cls-1" d="m2.32,35.85l3.74.36s.03,0,.05,0c.25,0,.47-.19.5-.45.03-.28-.17-.52-.45-.55l-3.74-.36c-.27-.02-.52.17-.55.45s.17.52.45.55Z"/>
        <path class="cls-1" d="m26.37,25.18c.07.04.16.06.24.06.18,0,.35-.1.44-.26l1.77-3.31c.13-.24.04-.55-.21-.68-.24-.13-.55-.04-.68.2l-1.77,3.31c-.13.24-.04.55.21.68Z"/>
      </g>
    </g>
  </g>
</svg>
