<?xml version="1.0" encoding="utf-8" standalone="yes"?>
<svg viewBox="0 0 140 97" fill="none" xmlns="http://www.w3.org/2000/svg">
<g fill="#0077B6">
	<path d="M130.22 30.8799H100.19C99.9099 30.8799 99.6899 31.0999 99.6899 31.3799C99.6899 31.6599 99.9099 31.8799 100.19 31.8799H130.22C130.5 31.8799 130.72 31.6599 130.72 31.3799C130.72 31.0999 130.5 30.8799 130.22 30.8799Z"/>
	<path d="M130.22 39.48H100.19C99.9099 39.48 99.6899 39.7 99.6899 39.98C99.6899 40.26 99.9099 40.48 100.19 40.48H130.22C130.5 40.48 130.72 40.26 130.72 39.98C130.72 39.7 130.5 39.48 130.22 39.48Z" fill="#0077B6"/>
	<path d="M109.61 61.6002H130.72V52.1602H109.61V61.6002ZM110.61 53.1602H129.72V60.6002H110.61V53.1602Z" fill="#0077B6"/>
	<path d="M113.11 55.8301C112.83 55.8301 112.61 56.0501 112.61 56.3301V57.4301C112.61 57.7101 112.83 57.9301 113.11 57.9301C113.39 57.9301 113.61 57.7101 113.61 57.4301V56.3301C113.61 56.0501 113.39 55.8301 113.11 55.8301Z"/>
	<path d="M127.21 55.8301C126.93 55.8301 126.71 56.0501 126.71 56.3301V57.4301C126.71 57.7101 126.93 57.9301 127.21 57.9301C127.49 57.9301 127.71 57.7101 127.71 57.4301V56.3301C127.71 56.0501 127.49 55.8301 127.21 55.8301Z"/>
	<path d="M124.39 55.8301C124.11 55.8301 123.89 56.0501 123.89 56.3301V57.4301C123.89 57.7101 124.11 57.9301 124.39 57.9301C124.67 57.9301 124.89 57.7101 124.89 57.4301V56.3301C124.89 56.0501 124.67 55.8301 124.39 55.8301Z"/>
	<path d="M121.57 55.8301C121.29 55.8301 121.07 56.0501 121.07 56.3301V57.4301C121.07 57.7101 121.29 57.9301 121.57 57.9301C121.85 57.9301 122.07 57.7101 122.07 57.4301V56.3301C122.07 56.0501 121.85 55.8301 121.57 55.8301Z"/>
	<path d="M118.75 55.8301C118.47 55.8301 118.25 56.0501 118.25 56.3301V57.4301C118.25 57.7101 118.47 57.9301 118.75 57.9301C119.03 57.9301 119.25 57.7101 119.25 57.4301V56.3301C119.25 56.0501 119.03 55.8301 118.75 55.8301Z"/>
	<path d="M115.93 55.8301C115.65 55.8301 115.43 56.0501 115.43 56.3301V57.4301C115.43 57.7101 115.65 57.9301 115.93 57.9301C116.21 57.9301 116.43 57.7101 116.43 57.4301V56.3301C116.43 56.0501 116.21 55.8301 115.93 55.8301Z"/>
	<path d="M133.59 19H64.04C61.11 19 58.63 21.47 58.63 24.4V56.88H8.59C4.41 56.88 1 60.28 1 64.45V71.43C1 75.6 4.4 79 8.59 79H95.02C99.2 79 102.61 75.6 102.61 71.43V68.44H133.59C136.57 68.44 139 66.02 139 63.04V24.4C139 21.47 136.52 19 133.59 19ZM101.6 68.44V71.43C101.6 75.05 98.65 78 95.02 78H8.59C4.96 78 2.01 75.05 2.01 71.43V64.45C2.01 60.83 4.96 57.88 8.59 57.88H95.02C98.65 57.88 101.6 60.83 101.6 64.45V68.44ZM66.63 57.08C68.13 55.08 70 53.44 72.19 52.22C72.43 52.08 72.74 52.17 72.87 52.41C73.01 52.65 72.92 52.96 72.68 53.09C70.62 54.25 68.85 55.79 67.43 57.68C67.33 57.81 67.18 57.88 67.03 57.88C66.93 57.88 66.82 57.85 66.73 57.78C66.51 57.61 66.46 57.3 66.63 57.08ZM80.97 50.97C80.97 50.97 81.05 50.97 81.09 50.97C81.12 50.97 81.15 50.97 81.18 50.97C83.32 50.99 85.46 51.38 87.44 52.16H74.65C76.65 51.37 78.81 50.98 80.97 50.97ZM80.47 49.94C75.79 49.62 72.07 45.72 72.07 40.97C72.07 36.22 76.12 31.97 81.09 31.97C86.06 31.97 90.11 36.01 90.11 40.97C90.11 45.93 86.38 49.64 81.68 49.94C81.47 49.94 81.26 49.92 81.05 49.92C80.86 49.92 80.67 49.93 80.48 49.94H80.47ZM89.22 52.41C89.36 52.17 89.66 52.08 89.9 52.22C92.08 53.44 93.95 55.08 95.45 57.08C95.62 57.3 95.57 57.61 95.35 57.78C95.26 57.85 95.15 57.88 95.05 57.88C94.9 57.88 94.75 57.81 94.65 57.68C93.23 55.79 91.46 54.25 89.41 53.09C89.17 52.96 89.08 52.65 89.22 52.41ZM138 63.04C138 65.47 136.02 67.44 133.59 67.44H107.3C107.33 67.19 107.34 66.95 107.34 66.71V59.73C107.34 55.56 103.94 52.16 99.75 52.16H89.78C88.19 51.29 86.47 50.66 84.69 50.3C88.44 48.85 91.11 45.22 91.11 40.98C91.11 35.47 86.61 30.98 81.09 30.98C75.57 30.98 71.07 35.47 71.07 40.98C71.07 45.21 73.72 48.83 77.45 50.29C75.64 50.65 73.9 51.28 72.3 52.17H59.62V24.4C59.62 22.02 61.64 20 64.03 20H133.58C135.97 20 137.99 22.01 137.99 24.4V63.04H138Z"/>
</g>
</svg>
