<?xml version="1.0" encoding="UTF-8" standalone="yes"?>
<svg viewBox="0 0 164.21 70" fill="none" xmlns="http://www.w3.org/2000/svg">
	<path fill="#0077B6" d="M39.5929 46.6396C35.4929 46.6396 31.6329 48.2397 28.7429 51.1297L28.3929 51.4796L34.3329 57.4296
		L34.6829 57.0797 C37.3929 54.3697 41.7929 54.3697 44.5029 57.0797L44.8529 57.4296L50.7929 51.4796L50.4429 51.1297
		C47.5529 48.2297 43.6929 46.6396 39.5929 46.6396ZM44.8429 56.0296C43.3429 54.7096 41.4729 54.0496 39.5929 54.0496
		C37.7129 54.0496 35.8329 54.7096 34.3429 56.0296L29.8029 51.4897C32.4629 48.9997 35.9229 47.6396 39.5929 47.6396
		C43.2629 47.6396 46.7129 48.9997 49.3829 51.4897L44.8429 56.0296Z"/>
	<path fill="#0077B6" d="M39.5929 33.25C31.9229 33.25 24.7129 36.24 19.2929 41.67L18.9429 42.02L24.8829 47.97L25.2329 47.62
		C29.0729 43.78 34.1729 41.66 39.5929 41.66C45.0129 41.66 50.1129 43.78 53.9529 47.62L54.3029 47.97L60.2429 42.02L59.8929 41.67
		C54.4729 36.24 47.2629 33.25 39.5929 33.25ZM54.3029 46.56C50.3229 42.75 45.1229 40.66 39.5929 40.66
		C34.0629 40.66 28.8629 42.75 24.8829 46.56L20.3529 42.02C25.5429 37 32.3529 34.24 39.5929 34.24
		C46.8329 34.24 53.6429 37 58.8329 42.02L54.3029 46.56Z"/>
	<path fill="#0077B6" d="M86.353 6.13965H78.083C77.183 6.13965 76.443 6.87965 76.443 7.77965
		C76.443 8.67965 77.183 9.41965 78.083 9.41965H86.353C87.253 9.41965 87.993 8.67965 87.993 7.77965
		C87.993 6.87965 87.253 6.13965 86.353 6.13965ZM86.353 8.41965H78.083C77.733 8.41965 77.443 8.12965 77.443 7.77965
		C77.443 7.42965 77.733 7.13965 78.083 7.13965H86.353C86.703 7.13965 86.993 7.42965 86.993 7.77965C86.993 8.12965 86.703 8.41965 86.353 8.41965Z"/>
	<path fill="#0077B6" d="M156.863 34.5195H103.793V4.59953C103.793 2.07953 101.743 0.0195312 99.223 0.0195312H65.203
		C62.683 0.0195312 60.633 2.06953 60.633 4.59953V10.6495C40.573 2.42953 16.643 6.45953 0.382959 22.7395L0.032959 23.0895
		L5.97296 29.0395L6.32296 28.6895C20.993 13.9995 43.013 11.0795 60.633 19.8795V25.4995C54.303 21.8295 47.093 19.8595 39.583 19.8595
		C28.343 19.8595 17.783 24.2395 9.83296 32.1995L9.48296 32.5495L15.423 38.4995L15.773 38.1495C22.133 31.7795 30.593 28.2695 39.583 28.2695
		C47.333 28.2695 54.673 30.8795 60.633 35.6695V65.4295C60.633 67.9495 62.683 70.0095 65.203 70.0095H99.223
		C101.743 70.0095 103.793 67.9595 103.793 65.4295V56.6195H156.863C160.813 56.6195 164.033 53.3995 164.033 49.4395V41.6795
		C164.033 37.7195 160.813 34.4995 156.863 34.4995V34.5195ZM63.913 5.52953C63.913 4.29953 64.913 3.28953 66.153 3.28953H98.293
		C99.523 3.28953 100.533 4.28953 100.533 5.52953V34.5195H96.313C92.463 34.5195 89.323 37.5695 89.163 41.3795
		C85.353 41.5495 82.313 44.6895 82.313 48.5395V56.2995C82.313 56.7695 82.363 57.2295 82.443 57.6695H66.183
		C65.303 57.6695 64.503 58.0195 63.923 58.5895V42.6695C64.443 43.1295 64.953 43.5995 65.433 44.0795L65.783 44.4295
		L71.723 38.4795L71.373 38.1295C70.173 36.9295 68.873 35.7895 67.523 34.7395L69.703 32.5495L69.353 32.1995
		C67.653 30.4995 65.833 28.9795 63.923 27.6095V26.4595C67.963 28.6295 71.643 31.3695 74.883 34.6195L75.233 34.9695
		L81.173 29.0195L80.823 28.6695C79.613 27.4595 78.333 26.2995 77.023 25.2195L79.143 23.0895L78.793 22.7395
		C74.333 18.2695 69.283 14.7395 63.913 12.1195V5.52953ZM5.98296 27.6295L1.45296 23.0895
		C17.513 7.29953 41.003 3.51953 60.633 11.7295L60.833 11.8195C60.873 11.8395 60.913 11.8595 60.953 11.8695
		C61.683 12.1795 62.413 12.5095 63.143 12.8595C68.403 15.3795 73.343 18.7795 77.723 23.0895L76.243 24.5695
		L73.193 27.6295C72.463 26.9195 71.713 26.2395 70.953 25.5795C70.773 25.4295 70.603 25.2795 70.423 25.1295
		C69.733 24.5495 69.023 23.9895 68.303 23.4495C68.223 23.3895 68.133 23.3195 68.053 23.2595
		C66.673 22.2395 65.233 21.3195 63.773 20.4695C63.853 20.5595 63.913 20.6795 63.913 20.8095
		V25.6395C63.913 25.9195 63.693 26.1395 63.413 26.1395C63.133 26.1395 62.913 25.9195 62.913 25.6395
		V20.8095C62.913 20.5295 63.133 20.3095 63.413 20.3095C63.463 20.3095 63.513 20.3195 63.553 20.3395
		C63.373 20.2295 63.193 20.1195 63.003 20.0095C62.813 19.8995 62.623 19.7995 62.433 19.6895L62.073 19.4995
		C61.763 19.3295 61.443 19.1695 61.123 19.0095L60.633 18.7595C42.863 10.1195 20.833 13.0595 5.98296 27.6295Z
		M61.783 35.2895V35.3195C61.783 35.3195 61.753 35.2995 61.743 35.2895C61.653 35.2095 61.553 35.1195 61.463 35.0495
		L61.313 34.9295C61.313 34.9295 61.223 34.8595 61.183 34.8195L60.643 34.3795V34.4095C54.623 29.7895 47.303 27.2795 39.593 27.2795
		C30.503 27.2795 21.943 30.7595 15.433 37.0995L10.903 32.5595C18.623 25.0095 28.793 20.8595 39.593 20.8595
		C47.433 20.8595 54.933 23.0595 61.413 27.1395C61.963 27.4895 62.523 27.8595 63.123 28.2795L63.803 28.7595
		C65.373 29.9095 66.863 31.1695 68.273 32.5495L66.713 34.1095L63.743 37.0895C63.283 36.6495 62.823 36.2195 62.343 35.7995
		L61.763 35.2895H61.783ZM63.923 41.5795C63.923 41.8595 63.703 42.0795 63.423 42.0795C63.143 42.0795 62.923 41.8595 62.923 41.5795
		V37.4695C62.923 37.1895 63.143 36.9695 63.423 36.9695C63.703 36.9695 63.923 37.1895 63.923 37.4695V41.5795ZM100.533 64.4695
		C100.533 65.7195 99.513 66.7395 98.273 66.7395H66.193C64.943 66.7395 63.933 65.7295 63.933 64.4795V60.9395
		C63.933 59.6895 64.953 58.6795 66.193 58.6795H82.733C83.713 61.4695 86.373 63.4895 89.493 63.4895H100.543V64.4795
		L100.533 64.4695ZM163.043 49.4495C163.043 52.8595 160.273 55.6295 156.873 55.6295H101.023
		C101.303 55.6295 101.523 55.8495 101.523 56.1295V62.9795C101.523 63.2595 101.303 63.4795 101.023 63.4795
		C100.743 63.4795 100.523 63.2595 100.523 62.9795V60.9395C100.523 59.6895 99.503 58.6695 98.263 58.6695H83.073
		C82.793 58.6695 82.573 58.4495 82.573 58.1695C82.573 57.8895 82.793 57.6695 83.073 57.6695H98.263
		C99.143 57.6695 99.943 58.0195 100.523 58.5895V56.1295C100.523 55.8495 100.743 55.6295 101.023 55.6295H96.303
		C92.903 55.6295 90.133 52.8595 90.133 49.4495V41.6895C90.133 38.2795 92.903 35.5095 96.303 35.5095
		H156.863C160.263 35.5095 163.033 38.2795 163.033 41.6895V49.4495H163.043Z"/>
</svg>
