<?xml version="1.0" encoding="utf-8" standalone="yes"?>
<svg width="88" height="88" viewBox="0 0 11 11" xmlns="http://www.w3.org/2000/svg">
  <path d="M10.18 5.35015H6.90002L9.22002 3.05016C9.42002 2.86016 9.42002 2.54015 9.22002 2.35015C9.02002 2.16015 8.71002 2.16015 8.51002 2.35015L6.19002 4.65016V1.40016C6.19002 1.13016 5.97002 0.910156 5.69002 0.910156C5.41002 0.910156 5.19002 1.13016 5.19002 1.40016V4.65016L2.87002 2.35015C2.67002 2.16015 2.36002 2.16015 2.16002 2.35015C1.96002 2.54015 1.96002 2.86016 2.16002 3.05016L4.48002 5.35015H1.20001C0.920012 5.35015 0.700012 5.57016 0.700012 5.84016C0.700012 6.11016 0.920012 6.33016 1.20001 6.33016H4.48002L2.16002 8.63016C1.96002 8.82016 1.96002 9.14016 2.16002 9.33016C2.26002 9.43016 2.39002 9.47016 2.51002 9.47016C2.63002 9.47016 2.77002 9.42016 2.86002 9.33016L5.18002 7.03016V10.2802C5.18002 10.5502 5.40002 10.7702 5.68002 10.7702C5.96002 10.7702 6.18002 10.5502 6.18002 10.2802V7.03016L8.50002 9.33016C8.60002 9.43016 8.73001 9.47016 8.85001 9.47016C8.97001 9.47016 9.11001 9.42016 9.20001 9.33016C9.40001 9.14016 9.40001 8.82016 9.20001 8.63016L6.88001 6.33016H10.16C10.44 6.33016 10.66 6.11016 10.66 5.84016C10.66 5.57016 10.44 5.35015 10.16 5.35015H10.18Z" fill="#0077B6"/>
</svg>
