<?xml version="1.0" encoding="utf-8" standalone="yes"?>
<svg version="1.2" baseProfile="tiny" xmlns="http://www.w3.org/2000/svg" viewBox="0 0 136 96" overflow="visible">
<g>
	<path fill="#0077B6" d="M109,12.5h-8.4c-2.6,0-4.8,2.1-4.8,4.7v8.3c0,2.6,2.1,4.7,4.8,4.7h8.4c2.6,0,4.8-2.1,4.8-4.7v-8.3
		C113.8,14.6,111.7,12.5,109,12.5z M112.8,25.5c0,2-1.7,3.7-3.8,3.7h-8.4c-2.1,0-3.8-1.7-3.8-3.7v-8.3c0-2,1.7-3.7,3.8-3.7h8.4
		c2.1,0,3.8,1.7,3.8,3.7V25.5z"/>
	<path fill="#0077B6" d="M78.5,30.2h8.4c2.6,0,4.8-2.1,4.8-4.7v-8.3c0-2.6-2.1-4.7-4.8-4.7h-8.4c-2.6,0-4.8,2.1-4.8,4.7v8.3
		C73.7,28.1,75.8,30.2,78.5,30.2z M74.7,17.2c0-2,1.7-3.7,3.8-3.7h8.4c2.1,0,3.8,1.7,3.8,3.7v8.3c0,2-1.7,3.7-3.8,3.7h-8.4
		c-2.1,0-3.8-1.7-3.8-3.7V17.2z"/>
	<path fill="#0077B6" d="M131.2,12.5h-8.4c-2.6,0-4.8,2.1-4.8,4.7v8.3c0,2.6,2.1,4.7,4.8,4.7h8.4c2.6,0,4.8-2.1,4.8-4.7v-8.3
		C136,14.6,133.9,12.5,131.2,12.5z M135,25.5c0,2-1.7,3.7-3.8,3.7h-8.4c-2.1,0-3.8-1.7-3.8-3.7v-8.3c0-2,1.7-3.7,3.8-3.7h8.4
		c2.1,0,3.8,1.7,3.8,3.7V25.5z"/>
	<path fill="#0077B6" d="M131.2,34.5h-8.4c-2.6,0-4.8,2.1-4.8,4.7v8.3c0,2.6,2.1,4.7,4.8,4.7h8.4c2.6,0,4.8-2.1,4.8-4.7v-8.3
		C136,36.6,133.9,34.5,131.2,34.5z M135,47.4c0,2-1.7,3.7-3.8,3.7h-8.4c-2.1,0-3.8-1.7-3.8-3.7v-8.3c0-2,1.7-3.7,3.8-3.7h8.4
		c2.1,0,3.8,1.7,3.8,3.7V47.4z"/>
	<path fill="#0077B6" d="M131.2,56.4h-8.4c-2.6,0-4.8,2.1-4.8,4.7v8.3c0,2.6,2.1,4.7,4.8,4.7h8.4c2.6,0,4.8-2.1,4.8-4.7v-8.3
		C136,58.5,133.9,56.4,131.2,56.4z M135,69.4c0,2-1.7,3.7-3.8,3.7h-8.4c-2.1,0-3.8-1.7-3.8-3.7v-8.3c0-2,1.7-3.7,3.8-3.7h8.4
		c2.1,0,3.8,1.7,3.8,3.7V69.4z"/>
	<path fill="#0077B6" d="M109,78.3h-8.4c-2.6,0-4.8,2.1-4.8,4.7v8.3c0,2.6,2.1,4.7,4.8,4.7h8.4c2.6,0,4.8-2.1,4.8-4.7V83
		C113.8,80.4,111.7,78.3,109,78.3z M112.8,91.3c0,2-1.7,3.7-3.8,3.7h-8.4c-2.1,0-3.8-1.7-3.8-3.7V83c0-2,1.7-3.7,3.8-3.7h8.4
		c2.1,0,3.8,1.7,3.8,3.7V91.3z"/>
	<path fill="#0077B6" d="M109,52.1c2.6,0,4.8-2.1,4.8-4.7v-8.3c0-2.6-2.1-4.7-4.8-4.7h-8.4c-2.6,0-4.8,2.1-4.8,4.7v8.3
		c0,1.3,0.5,2.5,1.4,3.3c-1-0.5-2.2-0.8-3.5-0.8h-3c0.5-0.7,0.7-1.6,0.7-2.5v-8.3c0-2.6-2.1-4.7-4.8-4.7h-8.4c-1.6,0-3.1,0.8-4,2.1
		c-2.5-2.8-5.8-5.1-9.5-6.6l-0.1,0c-1.1-0.8-2.3-1.4-3.5-2c4.7-2.2,7.7-6.9,7.7-12c0-5.9-4-11.1-9.7-12.8C57.1,1.2,54,0,50.7,0
		c-7.4,0-13.4,6-13.4,13.3c0,5.9,3.9,10.9,9.3,12.6c-11.7,1.9-20.7,11.9-20.9,24H7.6c-4.2,0-7.6,3.4-7.6,7.5v6.9
		c0,4.1,3.4,7.5,7.6,7.5h2.2c1.2,2.8,3.9,4.7,7,4.7H103c2.2,0,4.1-0.9,5.5-2.4h0.6c2.6,0,4.8-2.1,4.8-4.7v-8.3
		c0-2.6-2.1-4.7-4.8-4.7h-1.1c-1.3-1.1-3.1-1.8-5-1.8h-2.1c-0.4-1.1-1.2-2-2-2.8c0.6,0.2,1.2,0.4,1.9,0.4H109z M78.5,35.4h8.4
		c2.1,0,3.8,1.7,3.8,3.7v8.3c0,0.9-0.3,1.8-1,2.5h-9.1c-0.6-4.7-2.5-9-5.4-12.5C75.8,36.2,77.1,35.4,78.5,35.4z M73.7,39.2
		c0-0.7,0.1-1.3,0.4-1.9c0.1-0.2,0.4-0.4,0.7-0.3c0.3,0.1,0.4,0.4,0.3,0.7c-0.2,0.5-0.3,1-0.3,1.5v4.2c0,0.3-0.2,0.5-0.5,0.5
		s-0.5-0.2-0.5-0.5V39.2z M38.3,13.3C38.3,6.5,43.8,1,50.7,1c3,0,5.7,1.1,7.9,2.8l0.1,0.1C58.8,3.9,58.9,4,59,4.1
		c0.3,0.2,0.5,0.5,0.8,0.7c0.1,0.1,0.1,0.1,0.2,0.2c0.2,0.2,0.4,0.5,0.6,0.8c0.1,0.1,0.1,0.2,0.2,0.2c0.2,0.3,0.4,0.5,0.5,0.8
		c0.1,0.1,0.1,0.2,0.2,0.3c0.2,0.3,0.3,0.6,0.5,0.9C62,8.1,62,8.2,62,8.3c0.1,0.3,0.3,0.6,0.4,1c0,0.1,0.1,0.1,0.1,0.2
		c0.1,0.3,0.2,0.7,0.3,1c0,0.1,0,0.1,0.1,0.2c0.1,0.4,0.1,0.7,0.2,1.1c0,0.1,0,0.1,0,0.2c0,0.4,0.1,0.9,0.1,1.3
		c0,6.8-5.6,12.3-12.4,12.3c0,0,0,0-0.1,0c-0.3,0-0.7,0-1,0c-0.2,0-0.3,0-0.5,0c-0.2,0-0.3,0-0.5-0.1c-0.4-0.1-0.9-0.2-1.3-0.3
		c0,0-0.1,0-0.1,0L46.9,25C41.9,23.4,38.3,18.8,38.3,13.3z M48.2,26.7c0.4,0,0.7-0.1,1.1-0.1c0.1,0,0.1,0,0.2,0c0.3,0,0.6,0,0.9,0
		c0.1,0,0.3,0,0.4,0c11,0,20.3,7.3,23.1,17.3c0.1,0.2,0.1,0.4,0.2,0.7c0,0.2,0.1,0.4,0.1,0.5c0.1,0.3,0.1,0.5,0.2,0.8
		c0,0.2,0.1,0.3,0.1,0.5c0,0.3,0.1,0.6,0.1,0.9c0,0.2,0,0.3,0.1,0.5c0,0.3,0.1,0.6,0.1,0.9c0,0.1,0,0.3,0,0.4c0,0.3,0,0.6,0,0.9
		H26.7C26.9,37.8,36.2,28,48.2,26.7z M91,71.5c-0.8,1.6-2.4,2.6-4.2,2.6h-8.4c-1.8,0-3.4-1-4.2-2.6c-0.1-0.2,0-0.5,0.2-0.7
		c0.2-0.1,0.5,0,0.7,0.2c0.6,1.2,1.9,2,3.3,2h8.4c1.4,0,2.7-0.8,3.3-2c0.1-0.2,0.4-0.3,0.7-0.2C91.1,71,91.2,71.3,91,71.5z
		 M109,57.4c2.1,0,3.8,1.7,3.8,3.7v8.3c0,2-1.6,3.6-3.5,3.7c0.8-1.2,1.2-2.6,1.2-4.1V62c0-1.8-0.6-3.4-1.7-4.7H109z M108.8,73.6
		c0,0.3-0.2,0.5-0.5,0.5h-7.6c-2,0-3.9-1.3-4.5-3.2c-0.1-0.3,0.1-0.5,0.3-0.6c0.3-0.1,0.5,0.1,0.6,0.3c0.5,1.5,1.9,2.5,3.6,2.5h7.6
		C108.5,73.1,108.8,73.3,108.8,73.6z M100.9,56.4h6.9c0.3,0,0.5,0.2,0.5,0.5s-0.2,0.5-0.5,0.5h-6.9c-0.3,0-0.5-0.2-0.5-0.5
		S100.6,56.4,100.9,56.4z M100,55.2c0.1,0.3,0.2,0.7,0.3,1c0,0,0,0.1,0,0.1c0.1,0.3,0.1,0.7,0.1,1v6.9c0,3.6-2.9,6.5-6.6,6.5H7.6
		c-3.6,0-6.6-2.9-6.6-6.5v-6.9c0-3.6,2.9-6.5,6.6-6.5h86.3C96.7,50.9,99.1,52.7,100,55.2z M96.9,47.4v-8.3c0-2,1.7-3.7,3.8-3.7h8.4
		c2.1,0,3.8,1.7,3.8,3.7v8.3c0,2-1.7,3.7-3.8,3.7h-8.4C98.6,51.2,96.9,49.5,96.9,47.4z"/>
</g>
</svg>
