<?xml version="1.0" encoding="utf-8" standalone="yes"?>
<svg version="1.0" xmlns="http://www.w3.org/2000/svg" viewBox="0 0 174 118" enable-background="new 0 0 174 118" xml:space="preserve">
<g>
	<path fill="#0077B6" d="M60.6,8.7h20.8c0.3,0,0.5-0.2,0.5-0.5s-0.2-0.5-0.5-0.5H60.6c-0.3,0-0.5,0.2-0.5,0.5S60.4,8.7,60.6,8.7z"/>
	<path fill="#0077B6" d="M60.6,12.5h20.8c0.3,0,0.5-0.2,0.5-0.5s-0.2-0.5-0.5-0.5H60.6c-0.3,0-0.5,0.2-0.5,0.5S60.4,12.5,60.6,12.5z
		"/>
	<path fill="#0077B6" d="M99,8.7h20.8c0.3,0,0.5-0.2,0.5-0.5s-0.2-0.5-0.5-0.5H99c-0.3,0-0.5,0.2-0.5,0.5S98.8,8.7,99,8.7z"/>
	<path fill="#0077B6" d="M99,12.5h20.8c0.3,0,0.5-0.2,0.5-0.5s-0.2-0.5-0.5-0.5H99c-0.3,0-0.5,0.2-0.5,0.5S98.8,12.5,99,12.5z"/>
	<path fill="#0077B6" d="M60.6,16.4h20.8c0.3,0,0.5-0.2,0.5-0.5s-0.2-0.5-0.5-0.5H60.6c-0.3,0-0.5,0.2-0.5,0.5S60.4,16.4,60.6,16.4z
		"/>
	<path fill="#0077B6" d="M60.6,20.2h20.8c0.3,0,0.5-0.2,0.5-0.5s-0.2-0.5-0.5-0.5H60.6c-0.3,0-0.5,0.2-0.5,0.5S60.4,20.2,60.6,20.2z
		"/>
	<path fill="#0077B6" d="M74.9,61.4H60.6c-0.3,0-0.5,0.2-0.5,0.5s0.2,0.5,0.5,0.5h14.3c0.3,0,0.5-0.2,0.5-0.5S75.2,61.4,74.9,61.4z"
		/>
	<path fill="#0077B6" d="M60.6,29.8h20.8c0.3,0,0.5-0.2,0.5-0.5s-0.2-0.5-0.5-0.5H60.6c-0.3,0-0.5,0.2-0.5,0.5S60.4,29.8,60.6,29.8z
		"/>
	<path fill="#0077B6" d="M107.7,38.8c0,0.3,0.2,0.5,0.5,0.5h59.2c0.3,0,0.5-0.2,0.5-0.5s-0.2-0.5-0.5-0.5h-59.2
		C107.9,38.3,107.7,38.5,107.7,38.8z"/>
	<path fill="#0077B6" d="M108.2,43.1h51.2c0.3,0,0.5-0.2,0.5-0.5s-0.2-0.5-0.5-0.5h-51.2c-0.3,0-0.5,0.2-0.5,0.5
		S107.9,43.1,108.2,43.1z"/>
	<path fill="#0077B6" d="M167.4,45.9h-59.2c-0.3,0-0.5,0.2-0.5,0.5s0.2,0.5,0.5,0.5h59.2c0.3,0,0.5-0.2,0.5-0.5
		S167.6,45.9,167.4,45.9z"/>
	<path fill="#0077B6" d="M108.2,50.8h42.7c0.3,0,0.5-0.2,0.5-0.5s-0.2-0.5-0.5-0.5h-42.7c-0.3,0-0.5,0.2-0.5,0.5
		S107.9,50.8,108.2,50.8z"/>
	<path fill="#0077B6" d="M167.4,59.4h-59.2c-0.3,0-0.5,0.2-0.5,0.5s0.2,0.5,0.5,0.5h59.2c0.3,0,0.5-0.2,0.5-0.5
		S167.6,59.4,167.4,59.4z"/>
	<path fill="#0077B6" d="M167.4,63.2h-59.2c-0.3,0-0.5,0.2-0.5,0.5s0.2,0.5,0.5,0.5h59.2c0.3,0,0.5-0.2,0.5-0.5
		S167.6,63.2,167.4,63.2z"/>
	<path fill="#0077B6" d="M167.4,105.8h-59.2c-0.3,0-0.5,0.2-0.5,0.5s0.2,0.5,0.5,0.5h59.2c0.3,0,0.5-0.2,0.5-0.5
		S167.6,105.8,167.4,105.8z"/>
	<path fill="#0077B6" d="M159.4,109.6h-51.2c-0.3,0-0.5,0.2-0.5,0.5s0.2,0.5,0.5,0.5h51.2c0.3,0,0.5-0.2,0.5-0.5
		S159.7,109.6,159.4,109.6z"/>
	<path fill="#0077B6" d="M126.4,30.6v-6.9V0H54v67H7.2c-4,0-7.2,3.2-7.2,7.2V82c0,4,3.2,7.2,7.2,7.2h94.4v6.7V118H174V30.6H126.4z
		 M55,1h70.4v22.7H83.9v9H60.6c-0.3,0-0.5,0.2-0.5,0.5s0.2,0.5,0.5,0.5h23.2v2.8H60.6c-0.3,0-0.5,0.2-0.5,0.5s0.2,0.5,0.5,0.5h23.2
		v2.8H60.6c-0.3,0-0.5,0.2-0.5,0.5s0.2,0.5,0.5,0.5h23.2V50H60.6c-0.3,0-0.5,0.2-0.5,0.5s0.2,0.5,0.5,0.5h23.2v2.8H60.6
		c-0.3,0-0.5,0.2-0.5,0.5s0.2,0.5,0.5,0.5h23.2v2.8H60.6c-0.3,0-0.5,0.2-0.5,0.5s0.2,0.5,0.5,0.5h23.2V67H55V1z M84.4,40.3h9.6
		c0.3,0,0.5,0.2,0.5,0.5s-0.2,0.5-0.5,0.5h-9.6c-0.3,0-0.5-0.2-0.5-0.5S84.1,40.3,84.4,40.3z M7.2,88.2C3.8,88.2,1,85.4,1,82v-7.8
		C1,70.8,3.8,68,7.2,68h76.7h18.7h5.6h16.9c3.4,0,6.2,2.8,6.2,6.2V82c0,3.4-2.8,6.2-6.2,6.2h-23.5H7.2z M136.6,93h-27.9v2.4
		c0,0.3-0.2,0.5-0.5,0.5s-0.5-0.2-0.5-0.5V92h28.9c0.3,0,0.5,0.2,0.5,0.5S136.9,93,136.6,93z M166.9,93v8.9h-58.2v-6h22.4
		c2.4,0,4.4-1.1,5.8-2.9H166.9z M173,117h-70.4V95.9h5.1v7h60.2V92h-30.4c0.5-1,0.8-2.1,0.8-3.3V81c0-3.5-2.6-6.5-6-7.1
		c-0.1-2.5-1.5-4.6-3.5-5.8h30.6c0.3,0,0.5-0.2,0.5-0.5s-0.2-0.5-0.5-0.5h-34.3h-16.9h-5.6v-8.9c0,0.3-0.2,0.5-0.5,0.5H84.4
		c-0.3,0-0.5-0.2-0.5-0.5s0.2-0.5,0.5-0.5h17.7c0.3,0,0.5,0.2,0.5,0.5v-3.8c0,0.3-0.2,0.5-0.5,0.5H84.4c-0.3,0-0.5-0.2-0.5-0.5
		s0.2-0.5,0.5-0.5h17.7c0.3,0,0.5,0.2,0.5,0.5v-3.8c0,0.3-0.2,0.5-0.5,0.5H84.4c-0.3,0-0.5-0.2-0.5-0.5s0.2-0.5,0.5-0.5h17.7
		c0.3,0,0.5,0.2,0.5,0.5V37c0,0.3-0.2,0.5-0.5,0.5H84.4c-0.3,0-0.5-0.2-0.5-0.5s0.2-0.5,0.5-0.5h17.7c0.3,0,0.5,0.2,0.5,0.5v-3.8
		c0,0.3-0.2,0.5-0.5,0.5H84.4c-0.3,0-0.5-0.2-0.5-0.5s0.2-0.5,0.5-0.5h17.7c0.3,0,0.5,0.2,0.5,0.5v-1.6h23.9H173V117z"/>
</g>
</svg>
