<?xml version="1.0" encoding="utf-8" standalone="yes"?>
<svg version="1.0" xmlns="http://www.w3.org/2000/svg" viewBox="0 0 174 96" enable-background="new 0 0 174 96" xml:space="preserve">
<g>
	<path fill="#0077B6" d="M60.6,8.7h20.8c0.3,0,0.5-0.2,0.5-0.5s-0.2-0.5-0.5-0.5H60.6c-0.3,0-0.5,0.2-0.5,0.5S60.4,8.7,60.6,8.7z"/>
	<path fill="#0077B6" d="M60.6,12.6h20.8c0.3,0,0.5-0.2,0.5-0.5s-0.2-0.5-0.5-0.5H60.6c-0.3,0-0.5,0.2-0.5,0.5S60.4,12.6,60.6,12.6z
		"/>
	<path fill="#0077B6" d="M99,8.7h20.8c0.3,0,0.5-0.2,0.5-0.5s-0.2-0.5-0.5-0.5H99c-0.3,0-0.5,0.2-0.5,0.5S98.8,8.7,99,8.7z"/>
	<path fill="#0077B6" d="M60.6,16.4h20.8c0.3,0,0.5-0.2,0.5-0.5s-0.2-0.5-0.5-0.5H60.6c-0.3,0-0.5,0.2-0.5,0.5S60.4,16.4,60.6,16.4z
		"/>
	<path fill="#0077B6" d="M60.6,20.2h20.8c0.3,0,0.5-0.2,0.5-0.5s-0.2-0.5-0.5-0.5H60.6c-0.3,0-0.5,0.2-0.5,0.5S60.4,20.2,60.6,20.2z
		"/>
	<path fill="#0077B6" d="M75.2,72H60.6c-0.3,0-0.5,0.2-0.5,0.5s0.2,0.5,0.5,0.5h14.5c0.3,0,0.5-0.2,0.5-0.5S75.4,72,75.2,72z"/>
	<path fill="#0077B6" d="M60.6,29.9h20.8c0.3,0,0.5-0.2,0.5-0.5s-0.2-0.5-0.5-0.5H60.6c-0.3,0-0.5,0.2-0.5,0.5S60.4,29.9,60.6,29.9z
		"/>
	<path fill="#0077B6" d="M107.7,19.8c0,0.3,0.2,0.5,0.5,0.5h59.2c0.3,0,0.5-0.2,0.5-0.5s-0.2-0.5-0.5-0.5h-59.2
		C107.9,19.3,107.7,19.5,107.7,19.8z"/>
	<path fill="#0077B6" d="M108.2,24.1h51.2c0.3,0,0.5-0.2,0.5-0.5s-0.2-0.5-0.5-0.5h-51.2c-0.3,0-0.5,0.2-0.5,0.5
		S107.9,24.1,108.2,24.1z"/>
	<path fill="#0077B6" d="M167.4,26.9h-59.2c-0.3,0-0.5,0.2-0.5,0.5s0.2,0.5,0.5,0.5h59.2c0.3,0,0.5-0.2,0.5-0.5
		S167.6,26.9,167.4,26.9z"/>
	<path fill="#0077B6" d="M108.2,31.8h42.7c0.3,0,0.5-0.2,0.5-0.5s-0.2-0.5-0.5-0.5h-42.7c-0.3,0-0.5,0.2-0.5,0.5
		S107.9,31.8,108.2,31.8z"/>
	<path fill="#0077B6" d="M167.4,40.2h-59.2c-0.3,0-0.5,0.2-0.5,0.5s0.2,0.5,0.5,0.5h59.2c0.3,0,0.5-0.2,0.5-0.5
		S167.6,40.2,167.4,40.2z"/>
	<path fill="#0077B6" d="M167.4,44h-59.2c-0.3,0-0.5,0.2-0.5,0.5s0.2,0.5,0.5,0.5h59.2c0.3,0,0.5-0.2,0.5-0.5S167.6,44,167.4,44z"/>
	<path fill="#0077B6" d="M167.4,83.7h-59.2c-0.3,0-0.5,0.2-0.5,0.5s0.2,0.5,0.5,0.5h59.2c0.3,0,0.5-0.2,0.5-0.5
		S167.6,83.7,167.4,83.7z"/>
	<path fill="#0077B6" d="M159.4,87.6h-51.2c-0.3,0-0.5,0.2-0.5,0.5s0.2,0.5,0.5,0.5h51.2c0.3,0,0.5-0.2,0.5-0.5
		S159.7,87.6,159.4,87.6z"/>
	<path fill="#0077B6" d="M126.4,11.5V0H54v47H7.2c-4,0-7.2,3.2-7.2,7.2V62c0,4,3.2,7.2,7.2,7.2H54v13.3h29.9h17.7V96H174V11.5H126.4
		z M55,1h70.4v10.5h-23.9v9.7H83.9v11.4H60.6c-0.3,0-0.5,0.2-0.5,0.5s0.2,0.5,0.5,0.5h23.2v2.8H60.6c-0.3,0-0.5,0.2-0.5,0.5
		s0.2,0.5,0.5,0.5h23.2v2.8H60.6c-0.3,0-0.5,0.2-0.5,0.5s0.2,0.5,0.5,0.5h23.2V47H55V1z M84.4,40.3h9.6c0.3,0,0.5,0.2,0.5,0.5
		s-0.2,0.5-0.5,0.5h-9.6c-0.3,0-0.5-0.2-0.5-0.5S84.1,40.3,84.4,40.3z M83.9,81.5H55V69.1h28.9V81.5z M102.1,75.9
		c-0.3,0-0.5-0.2-0.5-0.5v-6.7c0-0.3,0.2-0.5,0.5-0.5h-0.5H83.9H7.2C3.8,68.1,1,65.4,1,62v-7.8C1,50.8,3.8,48,7.2,48h76.7h18.7h22.5
		c3.4,0,6.2,2.8,6.2,6.2V62c0,3.4-2.8,6.2-6.2,6.2h-22.5h-0.5c0.3,0,0.5,0.2,0.5,0.5v6.7C102.6,75.7,102.3,75.9,102.1,75.9z
		 M137.5,71h-28.8v4.5c0,0.3-0.2,0.5-0.5,0.5s-0.5-0.2-0.5-0.5V70h29.8c0.3,0,0.5,0.2,0.5,0.5S137.8,71,137.5,71z M166.9,71v8.9
		h-58.2v-4h22.4c3.2,0,5.9-2.1,6.8-4.9H166.9z M173,95h-70.4V82.5v-6.6h5.1v5h60.2V70h-29.7c0.1-0.4,0.1-0.8,0.1-1.3v-7.8
		c0-3.5-2.6-6.5-6-7.1c-0.2-3.8-3.3-6.8-7.2-6.8h-22.5V37c0,0.3-0.2,0.5-0.5,0.5H84.4c-0.3,0-0.5-0.2-0.5-0.5s0.2-0.5,0.5-0.5h17.7
		c0.3,0,0.5,0.2,0.5,0.5v-3.8c0,0.3-0.2,0.5-0.5,0.5H84.4c-0.3,0-0.5-0.2-0.5-0.5s0.2-0.5,0.5-0.5h17.7c0.3,0,0.5,0.2,0.5,0.5V21.3
		v-8.7H173V95z"/>
</g>
</svg>
