<?xml version="1.0" encoding="UTF-8" standalone="yes"?>
<svg xmlns="http://www.w3.org/2000/svg" viewBox="0 0 33.7 33.7">
  <defs>
    <style>
      .cls-1 {
        fill: #0077b6;
        stroke-width: 0px;
      }
    </style>
  </defs>
  <g id="Arrows">
    <path class="cls-1" d="m16.85,0C7.54,0,0,7.54,0,16.85s7.54,16.85,16.85,16.85,16.85-7.54,16.85-16.85S26.16,0,16.85,0Zm0,27.23c-5.24,0-9.57-3.9-10.27-8.95l-1.68,2.4c-.1.14-.25.21-.41.21-.1,0-.2-.03-.29-.09-.23-.16-.28-.47-.12-.7l2.76-3.95,3.95,2.76c.23.16.28.47.12.7-.16.23-.47.28-.7.12l-2.7-1.89c.5,4.7,4.49,8.38,9.32,8.38.28,0,.5.22.5.5s-.22.5-.5.5Zm10-9.68l-3.95-2.76c-.23-.16-.28-.47-.12-.7.16-.23.47-.28.7-.12l2.7,1.89c-.5-4.7-4.49-8.38-9.33-8.38-.28,0-.5-.22-.5-.5s.22-.5.5-.5c5.24,0,9.57,3.9,10.27,8.95l1.68-2.4c.16-.23.47-.28.7-.12s.28.47.12.7l-2.76,3.95Z"/>
  </g>
</svg>
