<?xml version="1.0" encoding="UTF-8" standalone="yes"?>
<svg xmlns="http://www.w3.org/2000/svg" viewBox="0 0 99 118">
  <defs>
    <style>
      .cls-1 {
        fill: #0077b6;
        stroke-width: 0px;
      }
    </style>
  </defs>
  <g>
    <path class="cls-1" d="m94.47,34.05V5.78h4.53V0H27.19v5.78h4.53v28.27c0,.36.01.72.02,1.08-3.36-2.77-7.66-4.44-12.34-4.44C8.71,30.68,0,39.39,0,50.09s8.71,19.41,19.41,19.41c9.54,0,17.48-6.93,19.09-16.02.05.06.09.12.14.18.27.34.55.67.84,1,.13.15.25.3.38.44l.04.05c.09.09.17.19.26.28l.16.17h0c1.16,1.22,2.41,2.36,3.76,3.39-7.75,5.92-12.36,15.19-12.36,24.95v28.27h-4.53v5.78h71.81v-5.78h-4.53v-28.27c0-9.75-4.61-19.03-12.36-24.95,7.75-5.92,12.36-15.2,12.36-24.95ZM31.72,4.78h-3.53V1h52.72v3.78H31.72Zm40.59,1v6.57h-39.59v-6.57h39.59Zm-52.91,59.26c-8.26,0-14.95-6.69-14.95-14.95s6.69-14.95,14.95-14.95,14.95,6.69,14.95,14.95-6.69,14.95-14.95,14.95Zm19.28-12.71c-.03.25-.25.44-.5.44-.02,0-.04,0-.06,0-.27-.03-.47-.28-.44-.55.08-.7.12-1.42.12-2.13,0-5.08-2.13-9.99-5.85-13.46-.2-.19-.21-.5-.02-.71.19-.2.51-.21.71-.02,3.92,3.66,6.17,8.83,6.17,14.19,0,.75-.04,1.51-.13,2.25Zm-5.96,53.31h39.59v6.57h-39.59v-6.57Zm48.19,11.35H28.19v-3.78h52.72v3.78Zm8.12-11.35h-16.22c-.28,0-.5-.22-.5-.5s.22-.5.5-.5h16.22c.28,0,.5.22.5.5s-.22.5-.5.5Zm-8.06-46.25c7.82,5.71,12.49,14.88,12.49,24.55v20.7h-3.94v-1.45h-52.87v1.45h-3.94v-20.7c0-9.66,4.67-18.84,12.49-24.55l.55-.4-.55-.4c-1.6-1.16-3.05-2.48-4.37-3.91,1.62-2.9,2.49-6.16,2.49-9.45,0-7.35-4.06-13.93-10.61-17.27v-14.62h60.74v20.7c0,9.66-4.67,18.84-12.49,24.55l-.55.4.55.4Z"/>
  </g>
</svg>
