<?xml version="1.0" encoding="utf-8"?>
<!-- Generator: Adobe Illustrator 27.8.1, SVG Export Plug-In . SVG Version: 6.00 Build 0)  -->
<svg version="1.2" baseProfile="tiny" xmlns="http://www.w3.org/2000/svg" xmlns:xlink="http://www.w3.org/1999/xlink" x="0px"
	 y="0px" viewBox="0 0 110 118" overflow="visible" xml:space="preserve">
<g id="Handy_x2F_Icon">
	<g>
		<path fill="#0077B6" d="M80.7,10.4h-14c-1.3,0-2.4,1.1-2.4,2.4s1.1,2.4,2.4,2.4h14c1.3,0,2.4-1.1,2.4-2.4S82.1,10.4,80.7,10.4z"/>
		<path fill="#0077B6" d="M102.6,0H44.8c-4.1,0-7.4,3.3-7.4,7.4v14.1H3.9c-2.2,0-3.9,1.8-3.9,3.9v39.1c0,2.2,1.8,3.9,3.9,3.9h33.5
			v6.5h0v35.7c0,4.1,3.3,7.4,7.4,7.4h57.8c4.1,0,7.4-3.3,7.4-7.4V7.4C110,3.3,106.7,0,102.6,0z M25.8,56.6c-1.4-1.4-3.6-1.4-5,0
			l-2.5-2.5c2.7-2.7,7.2-2.7,9.9,0L25.8,56.6z M30.3,52.1c-1.9-1.9-4.3-2.9-7-2.9c-2.6,0-5.1,1-7,2.9l-2.5-2.5
			c2.5-2.5,5.9-3.9,9.4-3.9c3.6,0,6.9,1.4,9.4,3.9L30.3,52.1z M34.8,47.6c-3.1-3.1-7.1-4.7-11.4-4.7c-4.3,0-8.4,1.7-11.4,4.7
			l-2.5-2.5c3.7-3.7,8.6-5.8,13.9-5.8c5.2,0,10.2,2,13.9,5.8L34.8,47.6z M7.5,43.2L5,40.7c10.1-10.1,26.6-10.1,36.7,0l-2.5,2.5
			C30.5,34.4,16.2,34.4,7.5,43.2z M37.4,67.9c0-0.3,0.2-0.5,0.5-0.5h5.2c1.6,0,2.9-1.3,2.9-2.9v-36c0-0.3,0.2-0.5,0.5-0.5
			s0.5,0.2,0.5,0.5v36c0,2.2-1.8,3.9-3.9,3.9h-0.8v6c0,0.3-0.2,0.5-0.5,0.5s-0.5-0.2-0.5-0.5v-6h-3.4C37.7,68.4,37.4,68.2,37.4,67.9
			z M101,97.8H46.5c-1.7,0-3.2,0.9-4.2,2.2v-25h8.8c2.2,0,3.9-1.8,3.9-3.9V31.9c0-2.2-1.8-3.9-3.9-3.9h-4v-2.5
			c0-2.2-1.8-3.9-3.9-3.9h-0.8V9c0-2.3,1.9-4.1,4.1-4.1H101c2.3,0,4.1,1.9,4.1,4.1v90.9C104.2,98.6,102.7,97.8,101,97.8z M105.1,103
			v6c0,2.3-1.9,4.2-4.2,4.2H46.5c-2.3,0-4.2-1.9-4.2-4.2v-6c0-2.3,1.9-4.2,4.2-4.2H101C103.3,98.8,105.1,100.6,105.1,103z
			 M109,110.6c0,3.5-2.9,6.4-6.4,6.4H44.8c-3.5,0-6.4-2.9-6.4-6.4V74.9h2.9v28v6v0c0,2.8,2.3,5.1,5.1,5.1h0H101h0
			c2.8,0,5.1-2.3,5.1-5.1v0v-6V9c0-2.8-2.3-5.1-5.1-5.1H46.4c-2.8,0-5.1,2.3-5.1,5.1v12.5h-2.9V7.4c0-3.5,2.9-6.4,6.4-6.4h57.8
			c3.5,0,6.4,2.9,6.4,6.4V110.6z"/>
	</g>
</g>
</svg>
