<?xml version="1.0" encoding="utf-8"?>
<!-- Generator: Adobe Illustrator 27.9.0, SVG Export Plug-In . SVG Version: 6.00 Build 0)  -->
<svg version="1.2" baseProfile="tiny" id="Layer_2_00000145754301769073924730000012908186152850869897_"
	 xmlns="http://www.w3.org/2000/svg" xmlns:xlink="http://www.w3.org/1999/xlink" x="0px" y="0px" viewBox="0 0 132 94"
	 width="167" height="118"
	 overflow="visible" xml:space="preserve">
<g>
	<path fill="#0077B6" d="M63.2,8.2H52.1c-1.1,0-2,0.9-2,2s0.9,2,2,2h11.2c1.1,0,2-0.9,2-2S64.4,8.2,63.2,8.2z"/>
	<path fill="#0077B6" d="M107.3,35.6L107.3,35.6c-4.6,0-8.9,1.3-12.6,3.5v0l-0.8,0.5c-0.1,0.1-0.2,0.1-0.3,0.2
		c-0.2,0.1-0.4,0.3-0.6,0.4c-0.2,0.1-0.4,0.3-0.5,0.4c-0.1,0.1-0.1,0.1-0.2,0.2c-0.5,0.4-1,0.8-1.5,1.3c0,0-0.1,0.1-0.1,0.1
		c-1.5,1.4-2.9,3-4,4.7V6c0-3.3-2.7-6-6-6H34.7c-3.3,0-6,2.7-6,6v11.9c0,0-24.8-0.1-25.9,0c-1.6,0.1-2.7,1.3-2.8,2.8
		c-0.1,1.5-0.1,29.5,0,31c0.1,1.5,1.2,2.6,2.8,2.7c1.7,0.1,22.2,0.2,25.9,0.2V88c0,3.3,2.7,6,6,6h45.9c3.3,0,6-2.7,6-6V74
		c1.1,1.7,2.5,3.3,4,4.7c0,0,0.1,0.1,0.1,0.1c0.6,0.5,1.1,1,1.7,1.4c0,0,0,0,0,0c0.2,0.2,0.4,0.3,0.6,0.4c0.2,0.1,0.4,0.3,0.6,0.4
		c0.1,0.1,0.2,0.1,0.3,0.2l0.8,0.5v0c3.7,2.2,8,3.4,12.6,3.4c13.6,0,24.7-11.1,24.7-24.7S120.9,35.6,107.3,35.6z M29.7,6
		c0-2.8,2.2-5,5-5h45.9c2.8,0,5,2.2,5,5v42.4c-0.4,0.7-0.8,1.5-1.1,2.3c0,0,0,0.1,0,0.1c-0.1,0.3-0.3,0.7-0.4,1
		c0,0.1-0.1,0.2-0.1,0.3c-0.1,0.3-0.2,0.6-0.3,0.9c0,0.1-0.1,0.3-0.1,0.4V7.3c0-2.3-1.9-4.2-4.2-4.2v0H36c-2.3,0-4.2,1.9-4.2,4.2
		v10.6h-2.1V6z M79.3,77.7H36c-1.3,0-2.5,0.6-3.2,1.5V60.2h6.9c1.8,0,3.2-1.5,3.2-3.2V25.8c0-1.8-1.5-3.2-3.2-3.2H36c0-1,0-1.8,0-2
		c-0.1-1.5-1.2-2.6-2.8-2.7c-0.1,0-0.3,0-0.4,0V7.3c0-1.8,1.4-3.2,3.2-3.2h43.4c1.8,0,3.2,1.4,3.2,3.2v72
		C81.8,78.3,80.6,77.7,79.3,77.7z M82.5,81.9v4.8c0,1.8-1.5,3.2-3.2,3.2H36c-1.8,0-3.2-1.5-3.2-3.2v-4.8c0-1.8,1.4-3.2,3.2-3.2h43.3
		C81.1,78.7,82.5,80.2,82.5,81.9z M20,44.8L20,44.8c-1-1-2.7-1-3.8,0L14.3,43c2.1-2.1,5.4-2.1,7.5,0L20,44.8z M23.3,41.5L23.3,41.5
		c-1.4-1.4-3.3-2.2-5.2-2.2c-2,0-3.8,0.8-5.2,2.2L11,39.6c1.9-1.9,4.4-2.9,7.1-2.9c2.7,0,5.2,1,7.1,2.9L23.3,41.5z M26.7,38.1
		L26.7,38.1c-2.3-2.3-5.4-3.6-8.6-3.6s-6.3,1.3-8.6,3.6l-1.9-1.9c2.8-2.8,6.5-4.3,10.5-4.3c3.9,0,7.7,1.5,10.5,4.3L26.7,38.1z
		 M6.1,34.8l-1.9-1.9c7.6-7.6,20-7.6,27.6,0L30,34.8h0C23.4,28.2,12.7,28.2,6.1,34.8z M28.7,54.5C28.7,54.5,28.7,54.5,28.7,54.5
		c0-0.3,0.2-0.5,0.5-0.5c2.2,0,3.5,0,4-0.1c1.3-0.1,2.2-1,2.3-2.3c0.1-1.3,0.1-21.5,0-28.5c0-0.3,0.2-0.5,0.5-0.5c0,0,0,0,0,0
		c0.3,0,0.5,0.2,0.5,0.5c0,7,0,27.3,0,28.5c-0.1,1.8-1.4,3.2-3.2,3.2c0,0-0.1,0-0.1,0v4.7c0,0.3-0.2,0.5-0.5,0.5
		c-0.3,0-0.5-0.2-0.5-0.5V55c-0.7,0-1.7,0-2.9,0C28.9,55,28.7,54.8,28.7,54.5z M85.6,88L85.6,88c0,2.8-2.2,5-5,5H34.7
		c-2.8,0-5-2.2-5-5V60.2h2.1v26.6c0,2.3,1.9,4.2,4.2,4.2h43.4c2.3,0,4.2-1.9,4.2-4.2V67.3c0,0.2,0.1,0.3,0.1,0.4
		c0.1,0.3,0.2,0.6,0.3,0.9c0,0.1,0.1,0.2,0.1,0.3c0.1,0.3,0.2,0.7,0.4,1c0,0,0,0.1,0,0.1c0.3,0.8,0.7,1.5,1.1,2.3V88z M86.6,72.2
		c0,0.3-0.2,0.5-0.5,0.5c-0.3,0-0.5-0.2-0.5-0.5V48.6c0-0.3,0.2-0.5,0.5-0.5c0.3,0,0.5,0.2,0.5,0.5V72.2z M107.3,84.1L107.3,84.1
		c-4.6,0-8.9-1.3-12.6-3.6V40.3c3.6-2.3,8-3.6,12.6-3.6c13.1,0,23.7,10.6,23.7,23.7S120.3,84.1,107.3,84.1z"/>
</g>
</svg>
