<?xml version="1.0" encoding="UTF-8" standalone="yes"?>
<svg width="28" height="42" viewBox="0 0 14 24" fill="none" xmlns="http://www.w3.org/2000/svg">
  <g fill="#0077B6">
    <path d="M6.73137 0.27832C3.10137 0.27832 0.151367 3.22832 0.151367 6.85832C0.151367 7.68832 0.821367 8.35832 1.65137 8.35832C2.48137 8.35832 3.15137 7.68832 3.15137 6.85832C3.15137 4.87832 4.76137 3.27832 6.73137 3.27832C8.70137 3.27832 10.3114 4.88832 10.3114 6.85832C10.3114 8.20832 9.56136 9.42832 8.36136 10.0483C6.43136 11.0483 5.22136 13.0383 5.22136 15.2383C5.22136 16.0683 5.89136 16.7383 6.72136 16.7383C7.55136 16.7383 8.22136 16.0683 8.22136 15.2383C8.22136 14.1683 8.80136 13.1983 9.74136 12.7083C11.9414 11.5683 13.3114 9.32832 13.3114 6.85832C13.3114 3.22832 10.3614 0.27832 6.73137 0.27832Z" />
    <path d="M6.73137 18.7783C5.90137 18.7783 5.23137 19.4483 5.23137 20.2783V22.0783C5.23137 22.9083 5.90137 23.5783 6.73137 23.5783C7.56137 23.5783 8.23137 22.9083 8.23137 22.0783V20.2783C8.23137 19.4483 7.56137 18.7783 6.73137 18.7783Z" />
  </g>
</svg>
