<?xml version="1.0" encoding="UTF-8" standalone="yes"?>
<svg viewBox="0 0 163 119" fill="none" xmlns="http://www.w3.org/2000/svg">
  <defs>
    <clipPath id="clip0_695_16869">
      <rect width="162" height="118" fill="white" transform="translate(0.461365 0.238281)"/>
    </clipPath>
  </defs>
  <g clip-path="url(#clip0_695_16869)" fill="#0077B6">
    <path d="M64.6414 79.3284C64.7414 79.4284 64.8714 79.4784 64.9914 79.4784C65.1114 79.4784 65.2514 79.4284 65.3414 79.3284C66.9114 77.7584 67.7814 75.6684 67.7814 73.4384C67.7814 71.2084 66.9114 69.1284 65.3414 67.5484C65.1414 67.3484 64.8314 67.3484 64.6314 67.5484C64.4314 67.7484 64.4314 68.0584 64.6314 68.2584C66.0114 69.6384 66.7814 71.4784 66.7814 73.4384C66.7814 75.3984 66.0214 77.2384 64.6314 78.6184C64.4314 78.8184 64.4314 79.1284 64.6314 79.3284H64.6414Z" />
    <path d="M53.9314 79.4784C54.0614 79.4784 54.1914 79.4284 54.2814 79.3284C54.4814 79.1284 54.4814 78.8184 54.2814 78.6184C51.4214 75.7584 51.4214 71.1184 54.2814 68.2584C54.4814 68.0584 54.4814 67.7484 54.2814 67.5484C54.0814 67.3484 53.7714 67.3484 53.5714 67.5484C50.3214 70.7984 50.3214 76.0784 53.5714 79.3184C53.6714 79.4184 53.8014 79.4684 53.9214 79.4684L53.9314 79.4784Z" />
    <path d="M71.1914 85.8884C71.2914 85.9884 71.4214 86.0384 71.5414 86.0384C71.6614 86.0384 71.8014 85.9884 71.8914 85.8884C78.7514 79.0284 78.7514 67.8684 71.8914 61.0084C71.6914 60.8084 71.3814 60.8084 71.1814 61.0084C70.9814 61.2084 70.9814 61.5184 71.1814 61.7184C77.6514 68.1884 77.6514 78.7084 71.1814 85.1784C70.9814 85.3784 70.9814 85.6884 71.1814 85.8884H71.1914Z" />
    <path d="M77.7414 92.4386C77.8414 92.5386 77.9714 92.5886 78.0914 92.5886C78.2114 92.5886 78.3514 92.5386 78.4414 92.4386C88.9114 81.9686 88.9114 64.9286 78.4414 54.4586C78.2414 54.2586 77.9314 54.2586 77.7314 54.4586C77.5314 54.6586 77.5314 54.9686 77.7314 55.1686C87.8114 65.2486 87.8114 81.6586 77.7314 91.7386C77.5314 91.9386 77.5314 92.2486 77.7314 92.4486L77.7414 92.4386Z" />
    <path d="M59.4614 74.8386C60.2314 74.8386 60.8514 74.2186 60.8514 73.4486C60.8514 72.6786 60.2314 72.0586 59.4614 72.0586C58.6914 72.0586 58.0714 72.6786 58.0714 73.4486C58.0714 74.2186 58.6914 74.8386 59.4614 74.8386ZM59.4614 73.0586C59.6714 73.0586 59.8514 73.2286 59.8514 73.4486C59.8514 73.6686 59.6814 73.8386 59.4614 73.8386C59.2414 73.8386 59.0714 73.6686 59.0714 73.4486C59.0714 73.2286 59.2414 73.0586 59.4614 73.0586Z" />
    <path d="M47.7314 85.8884C47.9314 85.6884 47.9314 85.3784 47.7314 85.1784C41.2614 78.7084 41.2614 68.1884 47.7314 61.7184C47.9314 61.5184 47.9314 61.2084 47.7314 61.0084C47.6314 60.9084 47.5014 60.8584 47.3814 60.8584C47.2614 60.8584 47.1214 60.9084 47.0314 61.0084C40.1714 67.8684 40.1714 79.0284 47.0314 85.8884C47.2314 86.0884 47.5414 86.0884 47.7414 85.8884H47.7314Z" />
    <path d="M40.4714 92.4378C40.6714 92.6378 40.9814 92.6378 41.1814 92.4378C41.3814 92.2378 41.3814 91.9278 41.1814 91.7278C31.1014 81.6478 31.1014 65.2378 41.1814 55.1578C41.3814 54.9578 41.3814 54.6478 41.1814 54.4478C41.0814 54.3478 40.9514 54.2979 40.8314 54.2979C40.7114 54.2979 40.5714 54.3478 40.4814 54.4478C30.0114 64.9178 30.0114 81.9579 40.4814 92.4279L40.4714 92.4378Z" />
    <path d="M140.291 61.3288C135.231 60.8188 130.451 61.8488 126.331 63.9888V63.9588L125.581 64.3787C125.471 64.4387 125.371 64.5088 125.271 64.5687C125.021 64.7188 124.761 64.8687 124.521 65.0287C124.341 65.1387 124.161 65.2487 123.991 65.3687C123.641 65.6087 123.291 65.8487 122.951 66.0987C122.761 66.2387 122.591 66.3787 122.401 66.5287C122.201 66.6888 122.011 66.8387 121.821 66.9987C121.641 67.1488 121.461 67.3087 121.281 67.4688C121.081 67.6488 120.891 67.8287 120.701 68.0087C120.551 68.1487 120.401 68.2887 120.251 68.4387C119.941 68.7487 119.641 69.0687 119.341 69.3988C119.221 69.5287 119.111 69.6587 119.001 69.7987C118.821 70.0087 118.641 70.2287 118.461 70.4387V46.7288C118.461 44.2388 116.451 42.2288 113.961 42.2288H67.7014L66.2214 34.1087C65.9614 32.6987 64.8614 31.6188 63.4914 31.3488C64.7114 25.4688 67.9314 23.7188 71.9814 21.5387C77.4814 18.5788 84.3214 14.9087 84.3214 0.71875V0.21875H77.3214V0.71875C77.3214 10.7188 73.6914 12.6688 68.6614 15.3788C63.9214 17.9288 58.0514 21.0988 56.4114 31.2887H56.0814C54.4214 31.2887 52.9914 32.4787 52.7014 34.1087L51.2214 42.2288H4.96136C2.47136 42.2288 0.461365 44.2388 0.461365 46.7288V107.729C0.461365 113.529 5.16136 118.229 10.9614 118.229H107.961C113.761 118.229 118.461 113.529 118.461 107.729V101.409C118.641 101.629 118.831 101.849 119.011 102.069C119.121 102.189 119.221 102.319 119.331 102.439C119.631 102.769 119.931 103.099 120.251 103.409C120.391 103.549 120.531 103.679 120.681 103.819C120.881 104.009 121.081 104.199 121.291 104.379C121.461 104.529 121.641 104.689 121.821 104.839C122.021 105.009 122.221 105.169 122.431 105.329C122.601 105.469 122.771 105.599 122.951 105.739C123.291 105.999 123.651 106.249 124.001 106.489C124.171 106.609 124.351 106.719 124.531 106.829C124.781 106.989 125.031 107.139 125.291 107.289C125.391 107.349 125.491 107.419 125.601 107.479L126.351 107.899V107.869C129.761 109.649 133.641 110.659 137.751 110.659C151.901 110.659 163.311 98.7188 162.441 84.3887C161.711 72.4187 152.241 62.5288 140.311 61.3188L140.291 61.3288ZM69.1414 16.2788C73.9914 13.6688 78.1914 11.4188 78.3214 1.23875H83.3214C83.1614 14.4188 76.7114 17.8888 71.5114 20.6788C67.3614 22.9088 63.7714 24.8387 62.4814 31.2987H57.4214C59.0114 21.7188 64.3914 18.8288 69.1414 16.2788ZM53.6814 34.3088C53.8914 33.1488 54.9014 32.3088 56.0814 32.3088H56.2514H62.8814C64.0414 32.3288 65.0214 33.1587 65.2314 34.3088L66.6814 42.2487H52.2314L53.6814 34.3088ZM102.451 103.659H16.4614V43.2487H102.461V103.659H102.451ZM118.451 99.9487C118.451 100.219 118.231 100.449 117.951 100.449C117.671 100.449 117.451 100.229 117.451 99.9487V71.9187C117.451 71.6488 117.671 71.4187 117.951 71.4187C118.231 71.4187 118.451 71.6387 118.451 71.9187V99.9487ZM137.721 109.669C133.591 109.669 129.711 108.609 126.321 106.749V65.1287C129.711 63.2687 133.591 62.2088 137.721 62.2088C150.811 62.2088 161.451 72.8587 161.451 85.9387C161.451 99.0187 150.801 109.669 137.721 109.669Z" />
  </g>
</svg>
