<?xml version="1.0" encoding="UTF-8" standalone="yes"?>
<svg viewBox="0 0 177 119" fill="none" xmlns="http://www.w3.org/2000/svg">
  <g fill="#0077B6">
    <path d="M167.041 4.21777H112.471C109.631 4.21777 107.331 6.52777 107.331 9.35777V109.348C107.331 112.188 109.641 114.488 112.471 114.488H167.041C169.881 114.488 172.181 112.178 172.181 109.348V9.35777C172.181 6.51777 169.871 4.21777 167.041 4.21777ZM112.521 113.498C110.211 113.498 108.331 111.618 108.331 109.308V103.318C108.331 101.008 110.211 99.1278 112.521 99.1278H166.991C169.301 99.1278 171.181 101.008 171.181 103.318V109.308C171.181 111.618 169.301 113.498 166.991 113.498H112.521ZM171.181 100.278C170.241 98.9778 168.721 98.1278 166.991 98.1278H112.521C110.791 98.1278 109.271 98.9778 108.331 100.278V9.35777C108.331 7.07777 110.191 5.21777 112.471 5.21777H167.041C169.331 5.21777 171.181 7.07777 171.181 9.35777V100.278Z" />
    <path d="M146.781 10.7275H132.731C131.391 10.7275 130.291 11.8175 130.291 13.1675C130.291 14.5175 131.381 15.6075 132.731 15.6075H146.781C148.121 15.6075 149.221 14.5175 149.221 13.1675C149.221 11.8175 148.131 10.7275 146.781 10.7275Z" />
    <path d="M168.631 0.357422H110.881C106.791 0.357422 103.471 3.67742 103.471 7.76742V20.2074H40.9211C37.4311 20.2074 34.4811 23.1574 34.4811 26.6474V55.8474C31.5011 54.5674 28.2211 53.8674 24.7811 53.8674C11.1411 53.8674 0.051136 64.9674 0.051136 78.5974C0.051136 92.2274 11.1511 103.327 24.7811 103.327C38.4111 103.327 48.7611 92.9674 49.4711 79.9574H103.471V110.937C103.471 115.027 106.791 118.347 110.881 118.347H168.631C172.721 118.347 176.041 115.027 176.041 110.937V7.76742C176.041 3.67742 172.721 0.357422 168.631 0.357422ZM48.4911 79.5074V79.9074C47.8011 92.3974 37.4311 102.347 24.7811 102.347C12.1311 102.347 1.04114 91.6974 1.04114 78.6074C1.04114 65.5174 11.6911 54.8774 24.7711 54.8774C28.3911 54.8774 31.8211 55.6974 34.9011 57.1574C35.3311 57.3574 35.7511 57.5774 36.1611 57.7974C36.3111 57.8774 36.4511 57.9674 36.5911 58.0474C36.8811 58.2174 37.1711 58.3874 37.4511 58.5674C37.6111 58.6674 37.7611 58.7674 37.9111 58.8674C38.2911 59.1174 38.6511 59.3774 39.0111 59.6474C39.1311 59.7374 39.2511 59.8374 39.3811 59.9374C39.6611 60.1574 39.9411 60.3874 40.2211 60.6274C40.3311 60.7274 40.4411 60.8174 40.5511 60.9174C40.9211 61.2474 41.2811 61.5874 41.6211 61.9374C41.6511 61.9674 41.6711 61.9974 41.7011 62.0274C42.0511 62.3874 42.3911 62.7574 42.7211 63.1374C42.7511 63.1674 42.7811 63.1974 42.8011 63.2374C46.0011 66.9974 48.0011 71.7074 48.4111 76.7374C48.4111 76.8474 48.4311 76.9574 48.4411 77.0774C48.4711 77.5974 48.5011 78.1174 48.5011 78.6374C48.5011 78.9374 48.4911 79.2374 48.4811 79.5374L48.4911 79.5074ZM52.4511 60.7874C49.8411 62.0474 47.5611 63.8174 45.6811 66.0374C45.5811 66.1574 45.4411 66.2174 45.3011 66.2174C45.1911 66.2174 45.0711 66.1774 44.9811 66.0974C44.7711 65.9174 44.7411 65.6074 44.9211 65.3974C46.8911 63.0674 49.2711 61.2174 52.0111 59.8874C52.2611 59.7674 52.5611 59.8674 52.6811 60.1174C52.8011 60.3674 52.7011 60.6674 52.4511 60.7874ZM54.9311 78.9774C55.5411 76.7974 55.8711 74.5474 55.8711 72.2674C55.8711 68.0474 54.8111 64.0674 52.9411 60.5774C55.6311 59.3574 58.5111 58.7374 61.5111 58.7374C72.7711 58.7374 81.9411 67.7774 82.1811 78.9874H54.9311V78.9774ZM50.4911 46.7074C50.4911 40.6274 55.4411 35.6874 61.5111 35.6874C67.5811 35.6874 72.5311 40.6374 72.5311 46.7074C72.5311 52.7774 67.5811 57.7274 61.5111 57.7274C55.4411 57.7274 50.4911 52.7774 50.4911 46.7074ZM92.7911 78.9774H83.1911C82.9811 68.5374 75.3611 59.8874 65.3811 58.0774C70.1211 56.4674 73.5411 51.9774 73.5411 46.6974C73.5411 40.0674 68.1511 34.6774 61.5211 34.6774C54.8911 34.6774 49.5011 40.0674 49.5011 46.6974C49.5011 51.9674 52.9111 56.4474 57.6411 58.0674C55.8611 58.3874 54.1411 58.9274 52.4911 59.6774C48.9411 53.6274 42.8511 49.2274 35.5011 47.9274V26.6574C35.5011 23.7074 37.9911 21.2174 40.9411 21.2174H92.8011V34.6274H84.6911C84.4111 34.6274 84.1911 34.8474 84.1911 35.1274C84.1911 35.4074 84.4111 35.6274 84.6911 35.6274H92.8011V45.0674H84.6911C84.4111 45.0674 84.1911 45.2874 84.1911 45.5674C84.1911 45.8474 84.4111 46.0674 84.6911 46.0674H92.8011V78.9774H92.7911ZM175.061 110.957C175.061 114.487 172.181 117.367 168.651 117.367H110.901C107.371 117.367 104.491 114.487 104.491 110.957V45.5574C104.491 45.8374 104.271 46.0574 103.991 46.0574H93.3011C93.0211 46.0574 92.8011 45.8374 92.8011 45.5574C92.8011 45.2774 93.0211 45.0574 93.3011 45.0574H103.991C104.271 45.0574 104.491 45.2774 104.491 45.5574V35.1174C104.491 35.3974 104.271 35.6174 103.991 35.6174H93.3011C93.0211 35.6174 92.8011 35.3974 92.8011 35.1174C92.8011 34.8374 93.0211 34.6174 93.3011 34.6174H103.991C104.271 34.6174 104.491 34.8374 104.491 35.1174V7.76742C104.491 4.23742 107.371 1.35742 110.901 1.35742H168.651C172.181 1.35742 175.061 4.23742 175.061 7.76742V110.947V110.957Z" />
  </g>
</svg>
