<?xml version="1.0" encoding="UTF-8" standalone="yes"?>
<svg viewBox="0 0 201 119" fill="none" xmlns="http://www.w3.org/2000/svg">
  <defs>
    <clipPath id="clip0_695_16921">
      <rect width="201" height="118" fill="white" transform="translate(0 0.358398)"/>
    </clipPath>
  </defs>
  <g clip-path="url(#clip0_695_16921)" fill="#0077B6">
    <path d="M85.4 54.8086H114.3C114.58 54.8086 114.8 54.5886 114.8 54.3086C114.8 54.0286 114.58 53.8086 114.3 53.8086H85.4C85.12 53.8086 84.9 54.0286 84.9 54.3086C84.9 54.5886 85.12 54.8086 85.4 54.8086Z" />
    <path d="M85.4 63.1084H114.3C114.58 63.1084 114.8 62.8884 114.8 62.6084C114.8 62.3284 114.58 62.1084 114.3 62.1084H85.4C85.12 62.1084 84.9 62.3284 84.9 62.6084C84.9 62.8884 85.12 63.1084 85.4 63.1084Z" />
    <path d="M147.18 79.4486C147.28 79.5486 147.41 79.5986 147.53 79.5986C147.65 79.5986 147.79 79.5486 147.88 79.4486C149.45 77.8786 150.32 75.7886 150.32 73.5586C150.32 71.3286 149.45 69.2486 147.88 67.6686C147.68 67.4686 147.37 67.4686 147.17 67.6686C146.97 67.8686 146.97 68.1786 147.17 68.3786C148.55 69.7586 149.32 71.5986 149.32 73.5586C149.32 75.5186 148.56 77.3586 147.17 78.7386C146.97 78.9386 146.97 79.2486 147.17 79.4486H147.18Z" />
    <path d="M136.47 79.5986C136.6 79.5986 136.73 79.5486 136.82 79.4486C137.02 79.2486 137.02 78.9386 136.82 78.7386C133.96 75.8786 133.96 71.2386 136.82 68.3786C137.02 68.1786 137.02 67.8686 136.82 67.6686C136.62 67.4686 136.31 67.4686 136.11 67.6686C132.86 70.9186 132.86 76.1986 136.11 79.4386C136.21 79.5386 136.34 79.5886 136.46 79.5886L136.47 79.5986Z" />
    <path d="M153.73 86.0085C153.83 86.1085 153.96 86.1585 154.08 86.1585C154.2 86.1585 154.34 86.1085 154.43 86.0085C161.29 79.1485 161.29 67.9885 154.43 61.1285C154.23 60.9285 153.92 60.9285 153.72 61.1285C153.52 61.3285 153.52 61.6385 153.72 61.8385C160.19 68.3085 160.19 78.8285 153.72 85.2985C153.52 85.4985 153.52 85.8085 153.72 86.0085H153.73Z" />
    <path d="M160.28 92.5587C160.38 92.6587 160.51 92.7087 160.63 92.7087C160.75 92.7087 160.89 92.6587 160.98 92.5587C171.45 82.0887 171.45 65.0487 160.98 54.5787C160.78 54.3787 160.47 54.3787 160.27 54.5787C160.07 54.7787 160.07 55.0887 160.27 55.2887C170.35 65.3687 170.35 81.7787 160.27 91.8587C160.07 92.0587 160.07 92.3687 160.27 92.5687L160.28 92.5587Z" />
    <path d="M142 74.9587C142.77 74.9587 143.39 74.3387 143.39 73.5687C143.39 72.7987 142.77 72.1787 142 72.1787C141.23 72.1787 140.61 72.7987 140.61 73.5687C140.61 74.3387 141.23 74.9587 142 74.9587ZM142 73.1787C142.21 73.1787 142.39 73.3487 142.39 73.5687C142.39 73.7887 142.22 73.9587 142 73.9587C141.78 73.9587 141.61 73.7887 141.61 73.5687C141.61 73.3487 141.78 73.1787 142 73.1787Z" />
    <path d="M196.5 42.3586H150.24L148.76 34.2386C148.5 32.8286 147.4 31.7486 146.03 31.4786C147.25 25.5986 150.47 23.8486 154.52 21.6686C160.02 18.7086 166.86 15.0386 166.86 0.848633V0.348633H159.86V0.848633C159.86 10.8486 156.23 12.8086 151.2 15.5086C146.46 18.0586 140.59 21.2286 138.95 31.4186H138.62C136.96 31.4186 135.53 32.6086 135.24 34.2386L133.76 42.3586H50.62C47.79 42.3586 45.4 44.7486 45.4 47.5786V72.4786C40.97 65.7586 33.36 61.3086 24.73 61.3086C11.09 61.3086 0 72.4086 0 86.0386C0 99.6686 11.1 110.769 24.73 110.769C37.08 110.769 47.35 101.669 49.18 89.8086C49.49 89.8986 49.8 89.9586 50.11 89.9886C49.85 89.9686 49.65 89.7586 49.65 89.4986C49.65 83.5786 52.6 78.1286 57.54 74.9286C57.77 74.7786 58.08 74.8486 58.23 75.0786C58.38 75.3086 58.31 75.6186 58.08 75.7686C53.43 78.7786 50.65 83.9086 50.65 89.4986C50.65 89.7686 50.43 89.9886 50.16 89.9986C50.32 90.0086 50.47 90.0486 50.63 90.0486H83.01V107.839C83.01 113.629 87.72 118.339 93.51 118.339H190.51C196.3 118.339 201.01 113.629 201.01 107.839V46.8386C201.01 44.3586 198.99 42.3386 196.51 42.3386L196.5 42.3586ZM151.68 16.3986C156.53 13.7886 160.73 11.5386 160.86 1.35863H165.86C165.7 14.5386 159.25 18.0086 154.05 20.7986C149.9 23.0286 146.31 24.9586 145.02 31.4186H139.96C141.55 21.8386 146.93 18.9486 151.68 16.3986ZM136.22 34.4286C136.43 33.2686 137.44 32.4286 138.62 32.4286H145.39H145.43C146.58 32.4586 147.56 33.2886 147.76 34.4286L149.21 42.3686H134.76L136.21 34.4286H136.22ZM48.41 87.5186C48.41 87.5186 48.41 87.5986 48.41 87.6386C48.38 88.1186 48.33 88.6086 48.27 89.1086C48.27 89.1686 48.26 89.2286 48.25 89.2786L48.22 89.4886C46.55 100.959 36.66 109.799 24.74 109.799C11.65 109.799 1.01 99.1486 1.01 86.0686C1.01 72.9886 11.66 62.3386 24.74 62.3386C33.7 62.3386 41.51 67.3286 45.55 74.6786C45.75 75.0486 45.95 75.4286 46.13 75.8086C46.17 75.8986 46.21 75.9986 46.26 76.0886C46.41 76.4186 46.56 76.7586 46.7 77.0986C46.75 77.2186 46.79 77.3286 46.84 77.4486C46.98 77.7986 47.11 78.1486 47.22 78.5086C47.25 78.5886 47.28 78.6686 47.3 78.7486C47.6 79.6586 47.84 80.5886 48.02 81.5386C48.02 81.5886 48.04 81.6286 48.05 81.6786C48.13 82.0886 48.19 82.4986 48.25 82.9086C48.26 83.0186 48.28 83.1286 48.29 83.2386C48.33 83.5986 48.37 83.9686 48.39 84.3286C48.39 84.4486 48.41 84.5586 48.42 84.6786C48.45 85.1486 48.46 85.6086 48.46 86.0786C48.46 86.5486 48.44 87.0486 48.41 87.5486V87.5186ZM82.99 89.0686H56.63C57.95 85.9886 58.62 82.7286 58.62 79.3586C58.62 78.1186 58.52 76.8886 58.33 75.6786C60.72 74.1786 63.53 73.2786 66.53 73.1986C66.69 73.1986 66.85 73.2186 67.02 73.2186C67.17 73.2186 67.31 73.1986 67.46 73.1986C76.09 73.4586 83.05 80.4286 83.29 89.0586H82.98L82.99 89.0686ZM66.54 72.1986C61.99 71.9486 58.37 68.1786 58.37 63.5686C58.37 58.9586 62.25 54.9086 67.03 54.9086C71.81 54.9086 75.69 58.7886 75.69 63.5686C75.69 68.3486 72.04 71.9786 67.47 72.2086C67.31 72.2086 67.15 72.1886 66.98 72.1886C66.83 72.1886 66.69 72.2086 66.54 72.2086V72.1986ZM98.49 100.189C98.21 100.189 97.99 99.9686 97.99 99.6886V89.5586C97.99 89.2786 98.21 89.0586 98.49 89.0586H84.29C84.08 80.9186 78.25 74.1686 70.54 72.5486C74.13 71.1386 76.68 67.6486 76.68 63.5586C76.68 58.2286 72.35 53.8986 67.02 53.8986C61.69 53.8986 57.36 58.2286 57.36 63.5586C57.36 67.6286 59.89 71.1086 63.46 72.5286C61.55 72.9186 59.77 73.6486 58.15 74.6086C56.8 67.7286 52.55 61.6486 46.38 58.0186V47.5686C46.38 45.2786 48.31 43.3486 50.6 43.3486H117.52C119.81 43.3486 121.74 45.2786 121.74 47.5686V56.1086C121.74 55.9786 121.77 55.8486 121.86 55.7486C122.22 55.3486 122.59 54.9486 122.98 54.5586C123.18 54.3586 123.49 54.3586 123.69 54.5586C123.89 54.7586 123.89 55.0686 123.69 55.2686C123.32 55.6386 122.96 56.0186 122.61 56.4086C122.51 56.5186 122.37 56.5786 122.24 56.5786C122.12 56.5786 122 56.5386 121.91 56.4486C121.81 56.3586 121.75 56.2286 121.74 56.1086V84.8286C121.74 87.1586 119.85 89.0486 117.52 89.0486H98.48C98.76 89.0486 98.98 89.2686 98.98 89.5486V99.6786C98.98 99.9586 98.76 100.179 98.48 100.179L98.49 100.189ZM123.71 92.5486C123.61 92.6486 123.48 92.6986 123.36 92.6986C123.24 92.6986 123.1 92.6486 123.01 92.5486C121.89 91.4286 120.86 90.2086 119.96 88.9086C119.8 88.6786 119.86 88.3686 120.08 88.2086C120.31 88.0486 120.62 88.1086 120.78 88.3286C121.65 89.5786 122.64 90.7486 123.72 91.8286C123.92 92.0286 123.92 92.3386 123.72 92.5386L123.71 92.5486ZM184.99 103.769H98.99V100.189H127.08C129.96 100.189 132.3 97.8486 132.3 94.9686V57.7086C132.3 54.8786 129.91 52.4886 127.08 52.4886H122.76V47.5886C122.76 45.8686 121.87 44.3186 120.55 43.3686H184.99V103.779V103.769ZM130.26 85.2886C130.46 85.4886 130.46 85.7986 130.26 85.9986C130.16 86.0986 130.03 86.1486 129.91 86.1486C129.79 86.1486 129.65 86.0986 129.56 85.9986C126.24 82.6786 124.41 78.2586 124.41 73.5586C124.41 68.8586 126.24 64.4386 129.56 61.1186C129.76 60.9186 130.07 60.9186 130.27 61.1186C130.47 61.3186 130.47 61.6286 130.27 61.8286C127.14 64.9586 125.41 69.1286 125.41 73.5586C125.41 77.9886 127.14 82.1586 130.27 85.2886H130.26Z" />
  </g>
</svg>
