<?xml version="1.0" encoding="UTF-8" ?>
<svg version="1.1" xmlns="http://www.w3.org/2000/svg" xmlns:xlink="http://www.w3.org/1999/xlink" width="512" height="512" viewBox="0 0 96 96">
  <image xlink:href="../npa_circle.svg" x="16" y="16" width="64" height="64" />
  <image xlink:href="../npa_bar.svg" x="16" y="16" width="64" height="64" />
  <g id="schrift" fill="#FFFFFF" transform="translate(16.9,24.7) scale(0.0605,0.0605)">
    <path d="M71.8759766,408.8876953l41.2275391-6.4589844 c4.1943359-0.6572266,8.1435547-0.7929688,11.8447266-0.4082031c3.6992188,0.3857422,7,1.2939453,9.9013672,2.7246094
             c2.8994141,1.4335938,5.3017578,3.46875,7.2070313,6.1083984c1.9052734,2.6416016,3.1601563,5.8867188,3.7636719,9.7392578
             c0.8857422,5.6513672,0.2158203,10.3408203-2.0078125,14.0654297c-2.2236328,3.7265625-5.7265625,6.8417969-10.5097656,9.3447266
             l0.0400391,0.2568359c12.4628906,0.5927734,19.53125,6.2392578,21.2080078,16.9414063
             c0.8457031,5.3945313,0.4580078,9.9287109-1.1582031,13.6035156c-1.6171875,3.6748047-3.9443359,6.7363281-6.9814453,9.1865234
             c-3.0371094,2.4492188-6.5791016,4.3427734-10.625,5.6777344c-4.0458984,1.3369141-8.0800781,2.3183594-12.1035156,2.9492188 l-37.7597656,5.9160156L71.8759766,408.8876953z
             M101.3193359,440.5927734l6.6796875-1.046875 c1.9667969-0.3076172,3.8710938-0.7587891,5.7080078-1.3544922c1.8349609-0.59375,3.4501953-1.3505859,4.8417969-2.2724609
             c1.3896484-0.9179688,2.4580078-2.0722656,3.2080078-3.4628906c0.7460938-1.3876953,0.9726563-3.0244141,0.6777344-4.9091797
             c-0.3222656-2.0546875-1.0263672-3.609375-2.1132813-4.6689453c-1.0869141-1.0576172-2.40625-1.7714844-3.9541016-2.1435547
             c-1.5507813-0.3701172-3.2802734-0.4941406-5.1904297-0.3710938c-1.9111328,0.1240234-3.8505859,0.3398438-5.8193359,0.6484375 l-6.9355469,1.0859375L101.3193359,440.5927734z
             M107.1552734,477.8378906l7.0634766-1.1064453 c2.1396484-0.3349609,4.2646484-0.7773438,6.3710938-1.3271484c2.1064453-0.5478516,3.9589844-1.3212891,5.5585938-2.3183594
             c1.5986328-0.9951172,2.8046875-2.2597656,3.6171875-3.7910156c0.8134766-1.5292969,1.0380859-3.4521484,0.6757813-5.7636719
             c-0.375-2.3964844-1.2128906-4.2382813-2.5107422-5.5283203c-1.2998047-1.2871094-2.8359375-2.1416016-4.6132813-2.5664063
             c-1.7773438-0.4228516-3.7314453-0.5771484-5.8623047-0.4628906c-2.1328125,0.1162109-4.2246094,0.3330078-6.2792969,0.6542969 l-7.3212891,1.1474609L107.1552734,477.8378906z" />
    <path d="M154.9716797,395.8681641l63.1894531-9.9003906l2.65625,16.953125l-39.3007813,6.1572266
             l2.8984375,18.4951172l37.1171875-5.8164063l2.65625,16.953125l-37.1171875,5.8164063L190.25,464.8183594l40.7138672-6.3789063
             l2.65625,16.953125l-64.6025391,10.1220703L154.9716797,395.8681641z" />
    <path d="M249.7060547,399.1835938l-22.0908203,3.4619141l-2.7763672-17.7241211l68.0683594-10.6655273
             l2.7773438,17.7236328l-22.0898438,3.4619141l11.2685547,71.921875l-23.8886719,3.7431641L249.7060547,399.1835938z" />
    <path d="M317.5693359,370.3916016l29.2822266-4.5878906l48.5947266,84.2333984l-26.2001953,4.1044922
             l-9.6767578-18.0898438l-33.6503906,5.2724609l-4.0654297,20.2431641l-24.2734375,3.8037109L317.5693359,370.3916016z
             M335.1074219,386.5917969l-0.2568359,0.0410156l-6.0644531,36.8730469l22.4755859-3.5214844L335.1074219,386.5917969z" />
    <path d="M391.1445313,406.6298828l34.8056641-5.4541016l2.65625,16.953125l-34.8056641,5.4541016 L391.1445313,406.6298828z" />
    <path d="M446.5947266,368.3349609l-22.0908203,3.4609375l-2.7763672-17.7241211l68.0683594-10.6655273
             l2.7773438,17.7241211l-22.0898438,3.4614258l11.2685547,71.921875l-23.8886719,3.7431641L446.5947266,368.3349609z" />
    <path d="M496.6025391,342.3398438l63.1894531-9.9008789l2.65625,16.953125l-39.2998047,6.1577148
             l2.8974609,18.4951172l37.1171875-5.815918l2.65625,16.9526367l-37.1171875,5.8164063l3.1796875,20.2919922l40.7128906-6.3789063
             l2.65625,16.953125l-64.6015625,10.1220703L496.6025391,342.3398438z" />
    <path d="M583.9902344,397.8623047c3.3505859,1.2304688,7.2109375,2.0732422,11.5810547,2.5273438
             c4.3681641,0.4560547,9.0371094,0.2949219,14.0039063-0.4833984c1.8818359-0.2949219,3.7070313-0.6904297,5.4716797-1.1865234
             c1.765625-0.4941406,3.28125-1.171875,4.5507813-2.0283203c1.2685547-0.8564453,2.2197266-1.9267578,2.8525391-3.2109375
             c0.6318359-1.2832031,0.8076172-2.8232422,0.5263672-4.6220703c-0.4433594-2.8251953-1.8271484-4.7998047-4.1533203-5.9287109
             c-2.3271484-1.1259766-5.1357422-1.9785156-8.4277344-2.5610352c-3.2939453-0.5795898-6.8652344-1.1157227-10.7138672-1.6108398
             c-3.8496094-0.4926758-7.4882813-1.4580078-10.9140625-2.8955078c-3.4287109-1.4370117-6.4453125-3.6162109-9.0527344-6.5429688
             c-2.6083984-2.9233398-4.3398438-7.1259766-5.1982422-12.6064453c-0.8457031-5.394043-0.3486328-10.0556641,1.4931641-13.9848633
             c1.8388672-3.9272461,4.4619141-7.2124023,7.8642578-9.8515625c3.4023438-2.6381836,7.3486328-4.7475586,11.8378906-6.3286133
             c4.4902344-1.5791016,9.0019531-2.7255859,13.5419922-3.4370117c4.3662109-0.684082,8.6074219-1.0405273,12.7265625-1.0737305
             c4.1181641-0.0302734,7.7548828,0.2329102,10.9140625,0.7905273l1.3564453,18.7353516
             c-3.3105469-0.972168-6.7070313-1.5141602-10.1894531-1.6264648c-3.484375-0.1123047-6.9375,0.1000977-10.3613281,0.6362305
             c-1.5410156,0.2416992-3.2226563,0.5708008-5.0429688,0.9873047c-1.8222656,0.4174805-3.5019531,1.0322266-5.0410156,1.8422852
             c-1.5390625,0.8125-2.7792969,1.8623047-3.7167969,3.1489258c-0.9394531,1.2875977-1.2539063,2.9160156-0.9453125,4.8847656
             c0.3759766,2.3984375,1.7109375,4.0742188,4.0117188,5.0297852c2.2988281,0.9555664,5.0839844,1.6601563,8.3574219,2.1118164
             c3.2724609,0.4536133,6.8300781,0.9038086,10.6738281,1.3540039c3.8417969,0.4506836,7.4794922,1.4169922,10.9140625,2.8955078
             c3.4335938,1.480957,6.453125,3.6826172,9.0625,6.6064453c2.6064453,2.9267578,4.3339844,7.0849609,5.1787109,12.4794922
             c0.9130859,5.8232422,0.5537109,10.8134766-1.0751953,14.9716797c-1.6308594,4.1591797-4.1113281,7.640625-7.4433594,10.4423828
             c-3.3339844,2.8046875-7.3046875,5.0273438-11.9160156,6.6699219c-4.6113281,1.6435547-9.4013672,2.8554688-14.3662109,3.6328125
             c-4.1953125,0.6582031-8.7412109,1.0410156-13.6357422,1.1503906c-4.8964844,0.109375-9.4570313-0.1640625-13.6816406-0.8173828 L583.9902344,397.8623047z" />
    <path d="M667.2402344,333.7626953l-22.0908203,3.4614258L642.3720703,319.5l68.0703125-10.6655273
             l2.7763672,17.7241211l-22.0898438,3.4609375l11.2685547,71.9228516l-23.8886719,3.7421875L667.2402344,333.7626953z" />
    <path d="M719.046875,307.4863281l23.8886719-3.7431641l14.0458984,89.6464844l-23.8886719,3.7431641 L719.046875,307.4863281z" />
    <path d="M758.6044922,301.2880859l30.4384766-4.769043l39.8486328,56.1279297l0.2578125-0.0400391
             l-9.9238281-60.8168945l21.8330078-3.4208984l14.0458984,89.6464844l-29.6679688,4.6484375L784.5,326.3115234
             l-0.2558594,0.0405273l10.3681641,61.1411133l-21.9619141,3.4414063L758.6044922,301.2880859z" />
    <path d="M952.0546875,360.1928711c-7.3134766,3.1650391-13.7851563,5.3842773-19.4179688,6.6616211 c-5.6347656,1.2773438-10.5048828,2.2382813-14.6142578,2.8818359
             c-5.9951172,0.9394531-12.1816406,1.0737305-18.5566406,0.4072266    c-6.3769531-0.6660156-12.3085938-2.4140625-17.7949219-5.2382813
             c-5.4873047-2.824707-10.2529297-6.9243164-14.2958984-12.3007813c-4.0458984-5.3735352-6.7304688-12.3007813-8.0585938-20.777832
             c-1.328125-8.4765625-1.0429688-15.8901367,0.8574219-22.2402344c1.8994141-6.3510742,5.0615234-11.7807617,9.4873047-16.2900391
             s9.9716797-8.1625977,16.6376953-10.9633789c6.6679688-2.7983398,14.1113281-4.8417969,22.3310547-6.1298828
             c1.4550781-0.2280273,3.2822266-0.4697266,5.4785156-0.7275391c2.1962891-0.2553711,4.5585938-0.4287109,7.0898438-0.5185547
             c2.5292969-0.0878906,5.0976563-0.0751953,7.7050781,0.0424805c2.6044922,0.1186523,5.0878906,0.4326172,7.4492188,0.9384766
             l1.1328125,19.8237305c-4.1171875-1.6347656-8.2294922-2.546875-12.3369141-2.7382813
             c-4.109375-0.1884766-7.5771484-0.0625-10.4013672,0.3798828c-4.8808594,0.7646484-9.3789063,2.0175781-13.4921875,3.7587891
             c-4.1142578,1.7421875-7.59375,4.019043-10.4423828,6.8334961c-2.8486328,2.8149414-4.9052734,6.2094727-6.1689453,10.1777344
             c-1.265625,3.9711914-1.4863281,8.5683594-0.6679688,13.7895508c0.6835938,4.3666992,2.0498047,8.1884766,4.0976563,11.4638672
             c2.0478516,3.2768555,4.5693359,5.9291992,7.5644531,7.9599609c2.9921875,2.03125,6.4316406,3.4008789,10.3144531,4.1083984
             c3.8818359,0.7070313,8.0087891,0.71875,12.375,0.0341797c3.4238281-0.5361328,6.1689453-1.4926758,8.2353516-2.8691406
             l-2.7763672-17.7236328l-14,2.1933594l-2.65625-16.9536133l37.1162109-5.8154297L952.0546875,360.1928711z" />
  </g>
</svg>
