<?xml version="1.0" encoding="UTF-8" ?>
<svg version="1.1" xmlns="http://www.w3.org/2000/svg" xmlns:xlink="http://www.w3.org/1999/xlink" width="64.8" height="64.8" viewBox="0 0 37 37">
  <defs>
    <g id="background">
      <path d="M 0 0 h 37 v 37 h -37
               M 7.5 18.5 a 11 11 0 0 0 22 0 a 11 11 0 0 0 -22 0" />
    </g>
    <g id="circle">
      <path d="M 17.25 5.058 v 4.832 a 8.7 8.7 0 0 0 0 17.22 v 4.832 a 13.5 13.5 0 0 1 0 -26.884 z" />
      <path d="M 19.75 5.058 v 4.832 a 8.7 8.7 0 0 1 0 17.22 v 4.832 a 13.5 13.5 0 0 0 0 -26.884 z" />
    </g>
  </defs>
  <use xlink:href="#background" />
  <use xlink:href="#circle" transform="translate(7 7) scale(0.622 0.622)" />
</svg>
