<?xml version="1.0" encoding="utf-8"?>
<!-- Generator: Adobe Illustrator 17.0.0, SVG Export Plug-In . SVG Version: 6.00 Build 0)  -->
<!DOCTYPE svg PUBLIC "-//W3C//DTD SVG 1.1//EN" "http://www.w3.org/Graphics/SVG/1.1/DTD/svg11.dtd">
<svg version="1.1" id="Ebene_1" xmlns="http://www.w3.org/2000/svg" xmlns:xlink="http://www.w3.org/1999/xlink" x="0px" y="0px"
	 width="56px" height="24px" viewBox="0 0 56 24" enable-background="new 0 0 56 24" xml:space="preserve">
<symbol  id="ic_x5F_delete_x0D_" viewBox="0 -24 24 24">
	<g>
		<path fill="#010202" d="M6-19c0-1.104,0.895-2,2-2h8c1.104,0,2,0.896,2,2v12H6V-19z M19-4h-3.5l-1,1h-5l-1-1H5v-2h14V-4z"/>
	</g>
	<polygon fill="none" points="24,-24 0,-24 0,0 24,0 	"/>
</symbol>
<use xlink:href="#ic_x5F_delete_x0D_"  width="24" height="24" id="ic_x5F_delete" y="-24" transform="matrix(1 0 0 -1 0 0)" display="none" overflow="visible" opacity="0.54"/>
<path display="none" fill="#538AC3" d="M18.443,3H5.556C5.556,3,3,3,3,5.556v12.887C3,18.443,3,21,5.556,21h12.887
	c0-0.001,2.556-0.001,2.556-2.557V5.556C21,5.556,21,3,18.443,3z M11.395,7.815C9.368,8.14,7.815,9.882,7.815,12
	c0,2.118,1.553,3.86,3.58,4.185v2.314C8.088,18.158,5.5,15.396,5.5,12c0-3.397,2.588-6.158,5.895-6.5V7.815z M12.605,18.499v-2.314
	c2.027-0.325,3.58-2.067,3.58-4.185s-1.553-3.861-3.58-4.185V5.5C15.911,5.841,18.5,8.603,18.5,12
	C18.5,15.396,15.911,18.158,12.605,18.499z"/>
<g id="TAGS_1_" enable-background="new    ">
	<g id="TAGS">
		<g>
			<path fill="#548AC3" d="M20.028,10.283l-1.709-1.634c-0.002,0.003-0.004,0.006-0.006,0.009l-5.605-5.362
				c-0.181-0.182-0.431-0.294-0.708-0.294c-0.001,0-0.002,0-0.003,0V3H5.676v0.002c-0.552,0-0.999,0.447-0.999,0.999h7.324
				l8.016,7.708l0.073-0.085l0.001,0c0.142-0.172,0.232-0.391,0.232-0.633C20.323,10.715,20.21,10.464,20.028,10.283z
				 M19.657,13.306c0-0.029-0.001-0.058-0.004-0.087c-0.001-0.006-0.002-0.01-0.003-0.015c-0.004-0.029-0.007-0.057-0.013-0.085
				c0-0.001,0-0.001,0-0.001c-0.041-0.198-0.14-0.374-0.28-0.51L11.71,5.294C11.529,5.112,11.279,5,11.002,5C11.001,5,11.001,5,11,5
				V4.997H4.678V5C4.126,5,3.679,5.447,3.679,5.998H3.677v6.341h0.004c0.005,0.292,0.136,0.552,0.341,0.731l-0.004,0.004
				l8.322,7.656l0.002-0.002c0.131,0.116,0.293,0.198,0.472,0.231c0.007,0.002,0.015,0.003,0.022,0.004
				c0.022,0.004,0.045,0.007,0.067,0.009c0.032,0.004,0.064,0.005,0.097,0.005c0.305,0,0.577-0.137,0.76-0.353l0,0.001l5.659-6.658
				l0-0.001c0.148-0.174,0.238-0.399,0.238-0.646C19.658,13.317,19.657,13.311,19.657,13.306z M6.342,8.994
				c-0.735,0-1.332-0.596-1.332-1.332s0.596-1.332,1.332-1.332s1.332,0.596,1.332,1.332S7.077,8.994,6.342,8.994z"/>
		</g>
	</g>
</g>
<g id="TEXT__x2F__LEFT_1_" display="none" enable-background="new    ">
	<g id="TEXT__x2F__LEFT" display="inline">
		<g>
			<path fill="#548AC3" d="M2.345,10.325h13.317c0,0,0,0,0,0h1.997c0.552,0,0.999-0.447,0.999-0.999
				c0-0.552-0.447-0.999-0.999-0.999H2.345c-0.552,0-0.999,0.447-0.999,0.999C1.346,9.877,1.793,10.325,2.345,10.325z M2.345,4.998
				h19.31c0.552,0,0.999-0.447,0.999-0.999S22.207,3,21.655,3H2.345C1.793,3,1.346,3.447,1.346,3.999S1.793,4.998,2.345,4.998z
				 M21.655,13.654H2.345c-0.552,0-0.999,0.447-0.999,0.999c0,0.552,0.447,0.999,0.999,0.999h19.31c0.552,0,0.999-0.447,0.999-0.999
				C22.654,14.101,22.207,13.654,21.655,13.654z M15.662,18.981H2.345c-0.552,0-0.999,0.447-0.999,0.999
				c0,0.552,0.447,0.999,0.999,0.999h13.317c0.552,0,0.999-0.447,0.999-0.999C16.661,19.428,16.214,18.981,15.662,18.981z"/>
		</g>
	</g>
</g>
<g id="COG_1_" display="none" enable-background="new    ">
	<g id="COG" display="inline">
		<g>
			<path fill="#548AC3" d="M12.003,8.627c-1.864,0-3.375,1.511-3.375,3.375c0,1.864,1.511,3.375,3.375,3.375
				s3.375-1.511,3.375-3.375S13.866,8.627,12.003,8.627z M12.003,13.69c-0.932,0-1.688-0.755-1.688-1.688s0.756-1.688,1.688-1.688
				c0.932,0,1.688,0.755,1.688,1.688S12.935,13.69,12.003,13.69z M18.617,10.163c-0.152-0.55-0.373-1.072-0.65-1.557
				c0.315-0.424,1.401-2.009,0.618-2.792L18.184,5.39c-0.669-0.669-2.378,0.376-2.793,0.646c-0.491-0.278-1.018-0.499-1.575-0.65
				C13.726,4.856,13.336,3,12.235,3h-0.44c-0.945,0-1.488,1.919-1.609,2.4C9.636,5.554,9.116,5.775,8.632,6.053
				C8.251,5.769,6.614,4.637,5.815,5.436L5.391,5.793C4.695,6.489,5.852,8.325,6.063,8.647c-0.267,0.478-0.482,0.989-0.63,1.529
				c-0.462,0.074-2.433,0.454-2.433,1.588v0.44c0,0.982,2.067,1.528,2.444,1.62c0.15,0.536,0.366,1.043,0.634,1.517
				c-0.222,0.348-1.335,2.176-0.645,2.867l0.401,0.334c0.908,0.908,2.805-0.584,2.805-0.584l-0.088-0.094
				c0.503,0.298,1.048,0.533,1.623,0.695c0.094,0.388,0.64,2.44,1.619,2.44h0.44c1.284,0,1.602-2.397,1.602-2.397L13.72,18.6
				c0.582-0.149,1.134-0.373,1.646-0.66c0.401,0.267,2.082,1.319,2.752,0.648l0.446-0.447c0.896-0.896-0.562-2.727-0.602-2.778
				c0.276-0.485,0.498-1.004,0.651-1.554c0.501-0.127,2.386-0.668,2.386-1.605v-0.44C20.999,10.52,18.757,10.183,18.617,10.163z
				 M12.003,17.065c-2.796,0-5.063-2.267-5.063-5.063s2.267-5.063,5.063-5.063c2.796,0,5.063,2.267,5.063,5.063
				S14.799,17.065,12.003,17.065z"/>
		</g>
	</g>
</g>
</svg>
