<?xml version="1.0" encoding="UTF-8" standalone="no"?>
<svg xmlns:svg="http://www.w3.org/2000/svg" xmlns="http://www.w3.org/2000/svg" xmlns:xlink="http://www.w3.org/1999/xlink" version="1.1" width="768" height="768" viewBox="0 0 37 37" id="svg2696">
  <defs id="defs2698">
    <linearGradient x1="0" y1="0" x2="1" y2="0" id="linearGradient2559">
      <stop style="stop-color:#58ab27;stop-opacity:1" offset="0"/>
      <stop style="stop-color:#93c36c;stop-opacity:1" offset="0.78019702"/>
    </linearGradient>
    <linearGradient x1="0" y1="0" x2="1" y2="0" id="linearGradient2688" xlink:href="#linearGradient2559" gradientUnits="userSpaceOnUse" gradientTransform="matrix(0,-26.61169,26.61169,0,5.06287,31.67544)" spreadMethod="pad"/>
    <linearGradient x1="0" y1="0" x2="1" y2="0" id="linearGradient2583">
      <stop style="stop-color:#88bce2;stop-opacity:1" offset="0"/>
      <stop style="stop-color:#5489c2;stop-opacity:1" offset="1"/>
    </linearGradient>
    <linearGradient x1="0" y1="0" x2="1" y2="0" id="linearGradient2683" xlink:href="#linearGradient2583" gradientUnits="userSpaceOnUse" gradientTransform="matrix(0,26.61169,26.61169,0,19.60739,5.06376)" spreadMethod="pad"/>
    <mask id="maskLeft">
      <rect x="0" y="0" width="17.25" height="37" style="fill:#ffffff" />
    </mask>
    <mask id="maskRight">
      <rect x="19.75" y="0" width="17.25" height="37" style="fill:#ffffff" />
    </mask>
  </defs>
  <path d="M 18.5 5 L 18.5 9.8 A 8.7 8.7 0 0 0 18.5 27.2 L 18.5 32 A 13.5 13.5 0 0 1 18.5 5" style="fill:url(#linearGradient2688);stroke:none" mask="url(#maskLeft)"/>
  <path d="M 18.5 5 L 18.5 9.8 A 8.7 8.7 0 0 1 18.5 27.2 L 18.5 32 A 13.5 13.5 0 0 0 18.5 5" style="fill:url(#linearGradient2683);stroke:none" mask="url(#maskRight)"/>
</svg>
