<?xml version="1.0" encoding="UTF-8" standalone="no"?>
<svg version="1.1" xmlns="http://www.w3.org/2000/svg" xmlns:xlink="http://www.w3.org/1999/xlink" width="90px" height="90px" viewBox="0 0 1700 1700">
  <defs>
    <g id="form">
      <circle cx="855" cy="330" r="140" />
      <path d="M 990 1370 a 70 70 0 0 1 -70 70 h -130 a 70 70 0 0 1 -70 -70 v -310 h -10 a 70 70 0 0 1 -70 -70 v -400 a 70 70 0 0 1 70 -70 h 320 a 100 100 0 0 0 -50 90 v 450 a 100 100 0 0 0 10 40 z" />
    </g>
    <radialGradient id="verlauf">
      <stop offset="0%" stop-color="#eac8da" />
      <stop offset="100%" stop-color="#aa417a" />
    </radialGradient>
  </defs>
  <rect x="0" y="0" rx="350" ry="350" width="1700" height="1700" fill="url(#verlauf)" />
  <path d="M 0 1350 a 350 350 0 0 0 350 350 h 1000 a 350 350 0 0 0 350 -350 v -600 c 0 0 -850 300 -1700 0 z" fill="#851e6b" />
  <g fill="#ffffff" transform="translate(85,85) scale(0.90,0.90)">
    <circle cx="855" cy="330" r="140" />
    <rect x="640" y="520" rx="70" ry="70" width="430" height="540" />
    <rect x="720" y="940" rx="70" ry="70" width="270" height="500" />
    <use xlink:href="#form" transform="translate(-290,44) scale(0.91,0.91)" />
    <use xlink:href="#form" transform="translate(2000,44) scale(-0.91,0.91)" />
  </g>
</svg>
