<?xml version="1.0" encoding="UTF-8" standalone="no"?>
<svg version="1.1" xmlns="http://www.w3.org/2000/svg" xmlns:xlink="http://www.w3.org/1999/xlink" width="90px" height="90px" viewBox="0 0 1700 1700">
  <defs>
    <radialGradient id="verlauf">
      <stop offset="0%" stop-color="white" />
      <stop offset="100%" stop-color="#659bcd" />
    </radialGradient>
  </defs>
  <rect x="0" y="0" rx="350" ry="350" width="1700" height="1700" fill="url(#verlauf)" />
  <path d="M 0 1350 a 350 350 0 0 0 350 350 h 1000 a 350 350 0 0 0 350 -350 v -600 c 0 0 -850 300 -1700 0 z" fill="#3383cd" />
  <g transform="translate(85,85) scale(0.9,0.9)">
    <circle cx="375" cy="337.5" r="100" fill="#1c8d94" />
    <rect x="600" y="302.5" width="800" height="75" fill="#1c8d94" />
    <circle cx="375" cy="667.5" r="100" fill="#5455a0" />
    <rect x="600" y="642.5" width="800" height="75" fill="#5455a0" />
    <circle cx="375" cy="1007.5" r="100" fill="#eac75a" />
    <rect x="600" y="982.5" width="800" height="75" fill="#eac75a" />
    <circle cx="375" cy="1347.5" r="100" fill="#b62d7c" />
    <rect x="600" y="1322.5" width="800" height="75" fill="#b62d7c" />
  </g>
</svg>
