<?xml version="1.0" encoding="utf-8"?>
<!-- Generator: Adobe Illustrator 15.0.0, SVG Export Plug-In . SVG Version: 6.00 Build 0)  -->
<!DOCTYPE svg PUBLIC "-//W3C//DTD SVG 1.1//EN" "http://www.w3.org/Graphics/SVG/1.1/DTD/svg11.dtd">
<svg version="1.1" id="Ebene_1" xmlns="http://www.w3.org/2000/svg" xmlns:xlink="http://www.w3.org/1999/xlink" x="0px" y="0px"
	 width="512px" height="512px" viewBox="0 0 512 512" enable-background="new 0 0 512 512" xml:space="preserve">
<g>
	<g>
		<g>
			<path fill="#FFFFFF" d="M82.733,254.789c-6.559,0-11.88-5.297-11.88-11.839V71.698c0-6.535,5.321-11.839,11.88-11.839h86.265
				c6.559,0,11.884,5.304,11.884,11.839V242.95c0,6.542-5.325,11.839-11.884,11.839H82.733z"/>
			<path fill="#4F89BC" d="M168.998,257.094H82.733c-7.826,0-14.192-6.344-14.192-14.144V71.698c0-7.8,6.367-14.144,14.192-14.144
				h86.265c7.828,0,14.197,6.344,14.197,14.144V242.95C183.195,250.75,176.826,257.094,168.998,257.094z M82.733,62.163
				c-5.275,0-9.567,4.278-9.567,9.535V242.95c0,5.257,4.292,9.535,9.567,9.535h86.265c5.278,0,9.572-4.278,9.572-9.535V71.698
				c0-5.257-4.294-9.535-9.572-9.535H82.733z"/>
		</g>
		<rect x="152.064" y="145.973" fill="#4F89BC" width="6.961" height="40.545"/>
		<rect x="119.899" y="145.973" fill="#4F89BC" width="3.857" height="80.367"/>
		<rect x="93.227" y="145.973" fill="#4F89BC" width="3.853" height="60.223"/>
		<rect x="106.533" y="145.973" fill="#4F89BC" width="3.862" height="83.132"/>
		<rect x="132.962" y="145.973" fill="#4F89BC" width="3.871" height="83.132"/>
	</g>
	<g>
		<path fill="#4F89BC" d="M91.826,143.774h4.973v0.648h-4.973V143.774z"/>
		<path fill="#4F89BC" d="M91.894,142.658c-0.063-0.387-0.104-0.851-0.104-1.359c0-0.918,0.222-1.571,0.619-2.007
			c0.407-0.45,0.98-0.702,1.789-0.702c0.804,0,1.473,0.252,1.929,0.711c0.465,0.468,0.718,1.233,0.718,2.196
			c0,0.468-0.022,0.837-0.059,1.161H91.894z M96.298,142.019c0.018-0.162,0.027-0.396,0.027-0.648c0-1.377-0.768-2.106-2.109-2.106
			c-1.17-0.009-1.919,0.653-1.919,2.007c0,0.333,0.031,0.576,0.072,0.747H96.298z"/>
		<path fill="#4F89BC" d="M91.894,137.761c-0.063-0.387-0.104-0.855-0.104-1.359c0-0.918,0.222-1.575,0.619-2.007
			c0.407-0.45,0.98-0.711,1.789-0.711c0.804,0,1.473,0.261,1.929,0.716c0.465,0.472,0.718,1.237,0.718,2.201
			c0,0.459-0.022,0.837-0.059,1.161H91.894z M96.298,137.122c0.018-0.162,0.027-0.396,0.027-0.648c0-1.377-0.768-2.111-2.109-2.111
			c-1.17-0.004-1.919,0.652-1.919,2.007c0,0.329,0.031,0.581,0.072,0.751H96.298z"/>
		<path fill="#4F89BC" d="M94.636,132.936l-1.767-3.412h0.511l1.45,2.872h0.009l1.45-2.872h0.511l-1.766,3.412H94.636z"/>
		<path fill="#4F89BC" d="M94.636,128.548l-1.767-3.412h0.511l1.45,2.876h0.009l1.45-2.876h0.511l-1.766,3.412H94.636z"/>
		<path fill="#4F89BC" d="M96.799,121.374l-1.102,0.644c-0.416,0.252-0.696,0.41-0.98,0.567v0.009
			c0.285,0.144,0.556,0.288,0.989,0.54l1.093,0.594v0.738l-2.511-1.521l-2.462,1.458v-0.738l1.165-0.657
			c0.33-0.185,0.574-0.324,0.836-0.455v-0.022c-0.294-0.135-0.515-0.261-0.836-0.45l-1.165-0.666v-0.743l2.425,1.503l2.548-1.543
			V121.374z"/>
		<path fill="#4F89BC" d="M96.799,117.287l-1.102,0.639c-0.416,0.256-0.696,0.414-0.98,0.572v0.009
			c0.285,0.144,0.556,0.288,0.989,0.54l1.093,0.594v0.738l-2.511-1.521l-2.462,1.458v-0.738l1.165-0.657
			c0.33-0.189,0.574-0.324,0.836-0.455v-0.022c-0.294-0.14-0.515-0.266-0.836-0.45l-1.165-0.666v-0.747l2.425,1.508l2.548-1.544
			V117.287z"/>
		<path fill="#4F89BC" d="M92.549,113.177v1.818l1.233,0.189c-0.018-0.108-0.027-0.216-0.027-0.392c0-0.374,0.072-0.733,0.262-1.03
			c0.203-0.374,0.627-0.685,1.229-0.685c0.93,0,1.635,0.748,1.635,1.783c0,0.522-0.145,0.954-0.293,1.188l-0.497-0.162
			c0.122-0.198,0.266-0.585,0.266-1.026c0-0.604-0.397-1.134-1.043-1.125c-0.619,0-1.053,0.414-1.053,1.368
			c0,0.279,0.028,0.491,0.046,0.667l-2.304-0.306v-2.287H92.549z"/>
		<path fill="#4F89BC" d="M96.799,109.315l-1.102,0.635c-0.416,0.257-0.696,0.414-0.98,0.572v0.009
			c0.285,0.144,0.556,0.288,0.989,0.54l1.093,0.594v0.738l-2.511-1.521l-2.462,1.458v-0.738l1.165-0.657
			c0.33-0.189,0.574-0.324,0.836-0.455v-0.022c-0.294-0.14-0.515-0.266-0.836-0.45l-1.165-0.666v-0.743l2.425,1.503l2.548-1.544
			V109.315z"/>
		<path fill="#4F89BC" d="M96.799,105.22l-1.102,0.639c-0.416,0.261-0.696,0.414-0.98,0.567v0.018
			c0.285,0.135,0.556,0.288,0.989,0.531l1.093,0.594v0.738l-2.511-1.512l-2.462,1.454v-0.743l1.165-0.648
			c0.33-0.189,0.574-0.333,0.836-0.459v-0.027c-0.294-0.135-0.515-0.261-0.836-0.441l-1.165-0.675v-0.738l2.425,1.503l2.548-1.544
			V105.22z"/>
		<path fill="#4F89BC" d="M96.799,101.133l-1.102,0.639c-0.416,0.261-0.696,0.414-0.98,0.567v0.014
			c0.285,0.139,0.556,0.292,0.989,0.536l1.093,0.594v0.738l-2.511-1.512l-2.462,1.449v-0.738l1.165-0.648
			c0.33-0.189,0.574-0.333,0.836-0.459v-0.027c-0.294-0.135-0.515-0.261-0.836-0.441l-1.165-0.675v-0.738l2.425,1.503l2.548-1.548
			V101.133z"/>
		<path fill="#4F89BC" d="M94.636,99.72l-1.767-3.412h0.511l1.45,2.872h0.009l1.45-2.872h0.511l-1.766,3.412H94.636z"/>
		<path fill="#4F89BC" d="M94.636,95.336l-1.767-3.412h0.511l1.45,2.872h0.009l1.45-2.872h0.511l-1.766,3.412H94.636z"/>
		<path fill="#4F89BC" d="M94.636,90.948l-1.767-3.412h0.511l1.45,2.876h0.009l1.45-2.876h0.511l-1.766,3.412H94.636z"/>
		<path fill="#4F89BC" d="M94.636,86.56l-1.767-3.412h0.511l1.45,2.876h0.009l1.45-2.876h0.511l-1.766,3.412H94.636z"/>
		<path fill="#4F89BC" d="M94.636,82.176l-1.767-3.412h0.511l1.45,2.872h0.009l1.45-2.872h0.511l-1.766,3.412H94.636z"/>
		<path fill="#4F89BC" d="M94.636,77.792l-1.767-3.414h0.511l1.45,2.874h0.009l1.45-2.874h0.511l-1.766,3.414H94.636z"/>
		<path fill="#4F89BC" d="M94.636,73.406l-1.767-3.416h0.511l1.45,2.876h0.009l1.45-2.876h0.511l-1.766,3.416H94.636z"/>
		<path fill="#4F89BC" d="M94.636,69.02l-1.767-3.414h0.511l1.45,2.872h0.009l1.45-2.872h0.511l-1.766,3.414H94.636z"/>
		<path fill="#4F89BC" d="M94.636,64.634l-1.767-3.416h0.511l1.45,2.876h0.009l1.45-2.876h0.511l-1.766,3.416H94.636z"/>
		<path fill="#4F89BC" d="M103.498,144.49l-1.766-3.412h0.515l1.437,2.876h0.018l1.446-2.876h0.511l-1.762,3.412H103.498z"/>
		<path fill="#4F89BC" d="M103.213,137.077c1.626,0,2.529,0.603,2.529,1.656c0,0.937-0.885,1.575-2.466,1.593
			c-1.617,0-2.498-0.702-2.498-1.669C100.779,137.653,101.682,137.077,103.213,137.077z M103.285,139.669
			c1.242,0,1.952-0.378,1.952-0.972c0-0.653-0.772-0.963-1.997-0.963c-1.184,0-1.96,0.288-1.96,0.963
			C101.28,139.264,101.98,139.669,103.285,139.669z"/>
		<path fill="#4F89BC" d="M103.213,133.301c1.626,0,2.529,0.607,2.529,1.661c0,0.936-0.885,1.575-2.466,1.584
			c-1.617,0-2.498-0.693-2.498-1.665C100.779,133.881,101.682,133.301,103.213,133.301z M103.285,135.897
			c1.242,0,1.952-0.387,1.952-0.972c0-0.657-0.772-0.972-1.997-0.972c-1.184,0-1.96,0.297-1.96,0.972
			C101.28,135.483,101.98,135.897,103.285,135.897z"/>
		<path fill="#4F89BC" d="M103.213,129.524c1.626,0,2.529,0.607,2.529,1.656c0,0.936-0.885,1.575-2.466,1.593
			c-1.617,0-2.498-0.698-2.498-1.666C100.779,130.101,101.682,129.524,103.213,129.524z M103.285,132.117
			c1.242,0,1.952-0.378,1.952-0.972c0-0.648-0.772-0.963-1.997-0.963c-1.184,0-1.96,0.288-1.96,0.963
			C101.28,131.712,101.98,132.117,103.285,132.117z"/>
		<path fill="#4F89BC" d="M103.213,125.752c1.626,0,2.529,0.604,2.529,1.657c0,0.936-0.885,1.575-2.466,1.588
			c-1.617,0-2.498-0.697-2.498-1.669C100.779,126.329,101.682,125.752,103.213,125.752z M103.285,128.345
			c1.242,0,1.952-0.383,1.952-0.972c0-0.657-0.772-0.972-1.997-0.972c-1.184,0-1.96,0.297-1.96,0.972
			C101.28,127.931,101.98,128.345,103.285,128.345z"/>
		<path fill="#4F89BC" d="M103.213,121.972c1.626,0,2.529,0.612,2.529,1.665c0,0.927-0.885,1.566-2.466,1.584
			c-1.617,0-2.498-0.698-2.498-1.666C100.779,122.553,101.682,121.972,103.213,121.972z M103.285,124.564
			c1.242,0,1.952-0.378,1.952-0.968c0-0.652-0.772-0.968-1.997-0.968c-1.184,0-1.96,0.297-1.96,0.968
			C101.28,124.159,101.98,124.564,103.285,124.564z"/>
		<path fill="#4F89BC" d="M103.213,118.2c1.626,0,2.529,0.608,2.529,1.656c0,0.937-0.885,1.575-2.466,1.589
			c-1.617,0-2.498-0.698-2.498-1.67C100.779,118.776,101.682,118.2,103.213,118.2z M103.285,120.793
			c1.242,0,1.952-0.378,1.952-0.972c0-0.648-0.772-0.972-1.997-0.972c-1.184,0-1.96,0.297-1.96,0.972
			C101.28,120.379,101.98,120.793,103.285,120.793z"/>
		<path fill="#4F89BC" d="M103.498,117.453l-1.766-3.412h0.515l1.437,2.872h0.018l1.446-2.872h0.511l-1.762,3.412H103.498z"/>
		<path fill="#4F89BC" d="M103.213,110.036c1.626,0,2.529,0.612,2.529,1.666c0,0.927-0.885,1.571-2.466,1.584
			c-1.617,0-2.498-0.697-2.498-1.665C100.779,110.616,101.682,110.036,103.213,110.036z M103.285,112.628
			c1.242,0,1.952-0.378,1.952-0.963c0-0.657-0.772-0.972-1.997-0.972c-1.184,0-1.96,0.297-1.96,0.972
			C101.28,112.223,101.98,112.628,103.285,112.628z"/>
		<path fill="#4F89BC" d="M103.213,106.264c1.626,0,2.529,0.603,2.529,1.656c0,0.936-0.885,1.575-2.466,1.589
			c-1.617,0-2.498-0.698-2.498-1.67C100.779,106.84,101.682,106.264,103.213,106.264z M103.285,108.856
			c1.242,0,1.952-0.382,1.952-0.972c0-0.652-0.772-0.968-1.997-0.968c-1.184,0-1.96,0.293-1.96,0.968
			C101.28,108.447,101.98,108.856,103.285,108.856z"/>
		<path fill="#4F89BC" d="M103.213,102.488c1.626,0,2.529,0.608,2.529,1.661c0,0.932-0.885,1.571-2.466,1.584
			c-1.617,0-2.498-0.698-2.498-1.665C100.779,103.064,101.682,102.488,103.213,102.488z M103.285,105.081
			c1.242,0,1.952-0.383,1.952-0.968c0-0.657-0.772-0.972-1.997-0.972c-1.184,0-1.96,0.297-1.96,0.972
			C101.28,104.671,101.98,105.081,103.285,105.081z"/>
		<path fill="#4F89BC" d="M103.213,98.712c1.626,0,2.529,0.607,2.529,1.656c0,0.936-0.885,1.575-2.466,1.593
			c-1.617,0-2.498-0.702-2.498-1.666C100.779,99.288,101.682,98.712,103.213,98.712z M103.285,101.304
			c1.242,0,1.952-0.378,1.952-0.972c0-0.648-0.772-0.963-1.997-0.963c-1.184,0-1.96,0.288-1.96,0.963
			C101.28,100.895,101.98,101.304,103.285,101.304z"/>
		<path fill="#4F89BC" d="M103.213,94.936c1.626,0,2.529,0.607,2.529,1.661c0,0.932-0.885,1.575-2.466,1.584
			c-1.617,0-2.498-0.693-2.498-1.666C100.779,95.516,101.682,94.936,103.213,94.936z M103.285,97.528
			c1.242,0,1.952-0.382,1.952-0.967c0-0.657-0.772-0.973-1.997-0.973c-1.184,0-1.96,0.297-1.96,0.973
			C101.28,97.119,101.98,97.528,103.285,97.528z"/>
		<path fill="#4F89BC" d="M103.213,91.159c1.626,0,2.529,0.608,2.529,1.661c0,0.932-0.885,1.571-2.466,1.588
			c-1.617,0-2.498-0.697-2.498-1.665C100.779,91.735,101.682,91.159,103.213,91.159z M103.285,93.752
			c1.242,0,1.952-0.378,1.952-0.963c0-0.657-0.772-0.972-1.997-0.972c-1.184,0-1.96,0.292-1.96,0.972
			C101.28,93.347,101.98,93.752,103.285,93.752z"/>
		<path fill="#4F89BC" d="M103.213,87.388c1.626,0,2.529,0.603,2.529,1.656c0,0.936-0.885,1.575-2.466,1.589
			c-1.617,0-2.498-0.698-2.498-1.67C100.779,87.964,101.682,87.388,103.213,87.388z M103.285,89.98c1.242,0,1.952-0.378,1.952-0.972
			c0-0.652-0.772-0.968-1.997-0.968c-1.184,0-1.96,0.293-1.96,0.968C101.28,89.57,101.98,89.98,103.285,89.98z"/>
		<path fill="#4F89BC" d="M103.498,86.641l-1.766-3.416h0.515l1.437,2.876h0.018l1.446-2.876h0.511l-1.762,3.416H103.498z"/>
		<path fill="#4F89BC" d="M103.498,82.252l-1.766-3.416h0.515l1.437,2.881h0.018l1.446-2.881h0.511l-1.762,3.416H103.498z"/>
		<path fill="#4F89BC" d="M103.498,77.864l-1.766-3.409h0.515l1.437,2.869h0.018l1.446-2.869h0.511l-1.762,3.409H103.498z"/>
		<path fill="#4F89BC" d="M103.498,73.48l-1.766-3.412h0.515l1.437,2.874h0.018l1.446-2.874h0.511l-1.762,3.412H103.498z"/>
		<path fill="#4F89BC" d="M103.498,69.094l-1.766-3.412h0.515l1.437,2.874h0.018l1.446-2.874h0.511l-1.762,3.412H103.498z"/>
		<path fill="#4F89BC" d="M103.213,61.679c1.626,0,2.529,0.608,2.529,1.659c0,0.936-0.885,1.575-2.466,1.589
			c-1.617,0-2.498-0.695-2.498-1.667C100.779,62.257,101.682,61.679,103.213,61.679z M103.285,64.273
			c1.242,0,1.952-0.382,1.952-0.97c0-0.655-0.772-0.97-1.997-0.97c-1.184,0-1.96,0.292-1.96,0.97
			C101.28,63.864,101.98,64.273,103.285,64.273z"/>
		<path fill="#4F89BC" d="M112.333,140.241c-0.695,0.036-1.531,0.077-2.141,0.077v0.018c0.569,0.18,1.197,0.378,1.888,0.621
			l2.407,0.882v0.486l-2.367,0.801c-0.705,0.243-1.341,0.432-1.929,0.567v0.018c0.619,0.018,1.441,0.049,2.2,0.099l2.127,0.126
			v0.612l-4.969-0.342v-0.819l2.399-0.846c0.614-0.207,1.156-0.369,1.68-0.5v-0.013c-0.506-0.135-1.053-0.311-1.68-0.531
			l-2.399-0.882V139.8l4.969-0.311v0.63L112.333,140.241z"/>
		<path fill="#4F89BC" d="M109.55,137.86h2.945c1.107,0,1.581-0.495,1.581-1.152c0-0.729-0.487-1.206-1.581-1.206h-2.945v-0.648
			h2.904c1.527,0,2.146,0.801,2.146,1.872c0,1.017-0.574,1.782-2.128,1.782h-2.922V137.86z"/>
		<path fill="#4F89BC" d="M113.738,133.823c0.185-0.292,0.325-0.702,0.325-1.139c0-0.657-0.348-1.044-0.854-1.044
			c-0.452,0-0.727,0.27-0.98,0.936c-0.298,0.811-0.723,1.314-1.414,1.314c-0.776,0-1.351-0.644-1.351-1.607
			c0-0.5,0.118-0.869,0.24-1.084l0.528,0.171c-0.095,0.153-0.239,0.486-0.239,0.936c0,0.68,0.411,0.937,0.746,0.937
			c0.469,0,0.695-0.306,0.962-0.99c0.32-0.837,0.727-1.251,1.458-1.251c0.773,0,1.441,0.558,1.441,1.724
			c0,0.481-0.149,1.003-0.321,1.265L113.738,133.823z"/>
		<path fill="#4F89BC" d="M110.092,129.173v1.503h-0.542v-3.664h0.542v1.513h4.427v0.648H110.092z"/>
		<path fill="#4F89BC" d="M112.184,123.898v1.917h1.798v-2.142h0.538v2.791h-4.969v-2.683h0.533v2.034h1.572v-1.917H112.184z"/>
		<path fill="#4F89BC" d="M109.609,122.836c-0.054-0.324-0.1-0.801-0.1-1.229c0-0.688,0.131-1.134,0.407-1.436
			c0.221-0.243,0.564-0.387,0.949-0.387c0.65,0,1.084,0.414,1.265,0.927h0.022c0.131-0.378,0.483-0.604,0.998-0.725
			c0.695-0.158,1.174-0.275,1.369-0.383v0.666c-0.149,0.081-0.569,0.189-1.188,0.324c-0.687,0.144-0.94,0.414-0.967,0.999v0.599
			h2.154v0.644H109.609z M111.876,122.192v-0.652c0-0.684-0.379-1.116-0.944-1.116c-0.642,0-0.926,0.459-0.926,1.134
			c0,0.315,0.028,0.526,0.055,0.634H111.876z"/>
		<path fill="#4F89BC" d="M112.36,118.947l-1.766-3.412h0.51l1.446,2.872h0.014l1.45-2.872h0.506l-1.761,3.412H112.36z"/>
		<path fill="#4F89BC" d="M112.36,114.563l-1.766-3.412h0.51l1.446,2.872h0.014l1.45-2.872h0.506l-1.761,3.412H112.36z"/>
		<path fill="#4F89BC" d="M112.333,105.931c-0.695,0.031-1.531,0.076-2.141,0.076v0.014c0.569,0.18,1.197,0.378,1.888,0.621
			l2.407,0.882v0.486l-2.367,0.806c-0.705,0.239-1.341,0.428-1.929,0.567v0.013c0.619,0.018,1.441,0.054,2.2,0.099l2.127,0.126
			v0.612l-4.969-0.342v-0.819l2.399-0.846c0.614-0.207,1.156-0.369,1.68-0.5v-0.014c-0.506-0.135-1.053-0.306-1.68-0.527
			l-2.399-0.886v-0.811l4.969-0.315v0.63L112.333,105.931z"/>
		<path fill="#4F89BC" d="M112.952,103.456l1.567,0.518v0.662l-4.969-1.692v-0.765l4.969-1.692v0.684l-1.567,0.531V103.456z
			 M112.455,101.826l-1.432,0.491c-0.33,0.112-0.619,0.185-0.908,0.256v0.018c0.289,0.072,0.596,0.144,0.895,0.248l1.445,0.486
			V101.826z"/>
		<path fill="#4F89BC" d="M114.519,97.146l-1.102,0.644c-0.416,0.256-0.691,0.41-0.98,0.567v0.014
			c0.289,0.144,0.556,0.288,0.989,0.536l1.093,0.599v0.733l-2.516-1.517l-2.453,1.458v-0.743l1.161-0.653
			c0.325-0.189,0.574-0.329,0.84-0.459v-0.018c-0.298-0.144-0.524-0.266-0.84-0.45l-1.161-0.67v-0.743l2.417,1.503l2.552-1.54
			V97.146z"/>
		<path fill="#4F89BC" d="M112.36,95.737l-1.766-3.417h0.51l1.446,2.881h0.014l1.45-2.881h0.506l-1.761,3.417H112.36z"/>
		<path fill="#4F89BC" d="M112.36,91.348l-1.766-3.412h0.51l1.446,2.872h0.014l1.45-2.872h0.506l-1.761,3.412H112.36z"/>
		<path fill="#4F89BC" d="M112.36,86.964l-1.766-3.412h0.51l1.446,2.872h0.014l1.45-2.872h0.506l-1.761,3.412H112.36z"/>
		<path fill="#4F89BC" d="M112.36,82.581l-1.766-3.412h0.51l1.446,2.872h0.014l1.45-2.872h0.506l-1.761,3.412H112.36z"/>
		<path fill="#4F89BC" d="M112.36,78.192l-1.766-3.412h0.51l1.446,2.876h0.014l1.45-2.876h0.506l-1.761,3.412H112.36z"/>
		<path fill="#4F89BC" d="M112.36,73.807l-1.766-3.414h0.51l1.446,2.874h0.014l1.45-2.874h0.506l-1.761,3.414H112.36z"/>
		<path fill="#4F89BC" d="M112.36,69.422l-1.766-3.416h0.51l1.446,2.874h0.014l1.45-2.874h0.506l-1.761,3.416H112.36z"/>
		<path fill="#4F89BC" d="M112.36,65.034l-1.766-3.412h0.51l1.446,2.872h0.014l1.45-2.872h0.506l-1.761,3.412H112.36z"/>
	</g>
	<path fill="#4F89BC" d="M218.743,343.282c0,10.824-8.804,19.597-19.667,19.597H55.465c-10.864,0-19.667-8.772-19.667-19.597V162.93
		c0-10.82,8.803-19.597,19.667-19.597h143.611c10.863,0,19.667,8.776,19.667,19.597V343.282z"/>
	<path fill="#FFFFFF" d="M98.845,231.315c0-5.554-4.521-10.064-10.1-10.064h-7.792c-5.574,0-10.1,4.51-10.1,10.064v7.769
		c0,5.554,4.526,10.064,10.1,10.064h7.792c5.579,0,10.1-4.51,10.1-10.064V231.315z"/>
	<path fill="#FFFFFF" d="M141.269,231.315c0-5.554-4.521-10.064-10.104-10.064h-7.787c-5.583,0-10.104,4.51-10.104,10.064v7.769
		c0,5.554,4.521,10.064,10.104,10.064h7.787c5.583,0,10.104-4.51,10.104-10.064V231.315z"/>
	<path fill="#FFFFFF" d="M183.687,231.315c0-5.554-4.526-10.064-10.1-10.064h-7.796c-5.574,0-10.1,4.51-10.1,10.064v7.769
		c0,5.554,4.526,10.064,10.1,10.064h7.796c5.574,0,10.1-4.51,10.1-10.064V231.315z"/>
	<path fill="#FFFFFF" d="M98.845,273.947c0-5.555-4.521-10.064-10.1-10.064h-7.792c-5.574,0-10.1,4.51-10.1,10.064v7.768
		c0,5.555,4.526,10.064,10.1,10.064h7.792c5.579,0,10.1-4.51,10.1-10.064V273.947z"/>
	<path fill="#FFFFFF" d="M183.687,273.947c0-5.555-4.526-10.064-10.1-10.064h-7.796c-5.574,0-10.1,4.51-10.1,10.064v7.768
		c0,5.555,4.526,10.064,10.1,10.064h7.796c5.574,0,10.1-4.51,10.1-10.064V273.947z"/>
	<path fill="#FFFFFF" d="M98.845,316.578c0-5.558-4.521-10.063-10.1-10.063h-7.792c-5.574,0-10.1,4.506-10.1,10.063v7.76
		c0,5.563,4.526,10.073,10.1,10.073h7.792c5.579,0,10.1-4.51,10.1-10.073V316.578z"/>
	<path fill="#FFFFFF" d="M141.269,316.578c0-5.558-4.521-10.063-10.104-10.063h-7.787c-5.583,0-10.104,4.506-10.104,10.063v7.76
		c0,5.563,4.521,10.073,10.104,10.073h7.787c5.583,0,10.104-4.51,10.104-10.073V316.578z"/>
	<path fill="#FFFFFF" d="M183.687,316.578c0-5.558-4.526-10.063-10.1-10.063h-7.796c-5.574,0-10.1,4.506-10.1,10.063v7.76
		c0,5.563,4.526,10.073,10.1,10.073h7.796c5.574,0,10.1-4.51,10.1-10.073V316.578z"/>
	<path fill="#FFFFFF" d="M181.723,170.63h-4.034h-15.944H92.789H76.843h-4.038c-5.773,0-10.461,4.667-10.461,10.428v8.039
		c0,5.761,4.688,10.424,10.461,10.424h4.038h15.945h68.956h15.944h4.034c5.777,0,10.465-4.663,10.465-10.424v-8.039
		C192.188,175.298,187.5,170.63,181.723,170.63z"/>
</g>
<g>
	<g>
		<g>
			<path fill="#FFFFFF" d="M306.521,303.54c-6.559,0-11.879-5.298-11.879-11.842v-171.25c0-6.535,5.32-11.839,11.879-11.839h86.266
				c6.559,0,11.884,5.304,11.884,11.839v171.25c0,6.544-5.325,11.842-11.884,11.842H306.521z"/>
			<path fill="#4F89BC" d="M392.786,305.844h-86.266c-7.827,0-14.192-6.346-14.192-14.146v-171.25c0-7.8,6.365-14.144,14.192-14.144
				h86.266c7.827,0,14.196,6.344,14.196,14.144v171.25C406.982,299.498,400.613,305.844,392.786,305.844z M306.521,110.914
				c-5.275,0-9.567,4.278-9.567,9.535v171.25c0,5.257,4.292,9.537,9.567,9.537h86.266c5.275,0,9.571-4.28,9.571-9.537v-171.25
				c0-5.257-4.296-9.535-9.571-9.535H306.521z"/>
		</g>
		<path fill="#4F89BC" d="M319.394,181.239c-3.288,0-5.943-2.649-5.943-5.921v-44.819c0-3.268,2.655-5.919,5.943-5.919h61.048
			c3.279,0,5.943,2.651,5.943,5.919v44.819c0,3.272-2.664,5.921-5.943,5.921H319.394z"/>
		<rect x="375.852" y="194.723" fill="#4F89BC" width="6.96" height="40.546"/>
		<rect x="343.687" y="194.723" fill="#4F89BC" width="3.857" height="80.367"/>
		<rect x="317.014" y="194.723" fill="#4F89BC" width="3.854" height="60.224"/>
		<rect x="330.32" y="194.723" fill="#4F89BC" width="3.862" height="83.13"/>
		<rect x="356.749" y="194.723" fill="#4F89BC" width="3.871" height="83.13"/>
		<g>
			<path fill="#FFFFFF" d="M341.292,168.844c2.71-8.311,2.304-8.457,4.473-8.662c2.177-0.205,3.532,0,3.532,0v-9.528l0,0v-5.016
				c0,0-1.355,0.205-3.532,0c-2.169-0.2-1.763-0.353-4.473-8.664c-2.72-8.315-7.742-8.648-8.961-8.648c-1.211,0-6.848,0-6.848,0
				c-6.921,9.866-6.541,20.623-6.541,20.623c0,5.743,0,7.516,0,7.921c0,0-0.38,10.761,6.541,20.623c0,0,5.637,0,6.848,0
				C333.55,177.492,338.572,177.159,341.292,168.844z"/>
			<g>
				<path fill="#4F89BC" d="M366.027,166.514c0-0.508-0.361-0.859-0.361-0.859s-1.518-0.751-2.517-1.238
					c9.734-0.783,14.535-9.985,14.535-11.544c0-1.558-4.805-10.771-14.544-11.545c0.989-0.479,2.525-1.242,2.525-1.242
					s0.361-0.355,0.361-0.862c0-0.504-0.312-0.884-1.771-0.632c-1.423,0.25-3.315,0.707-5.014,2.795
					c-8.893,0.783-13.289,5.644-13.289,11.486c0,5.851,4.4,10.705,13.289,11.486c1.708,2.084,3.591,2.539,5.014,2.791
					C365.716,167.401,366.027,167.019,366.027,166.514z"/>
				<path fill="#4F89BC" d="M345.565,152.873c0-6.54,5.154-11.079,13.469-11.867c1.662-1.958,3.456-2.507,5.159-2.806
					c0.922-0.16,1.522-0.092,1.884,0.203c0.23,0.196,0.338,0.473,0.338,0.821c0,0.653-0.406,1.094-0.469,1.136l-0.046,0.047
					l-0.05,0.032c0,0-0.627,0.306-1.337,0.659c9.021,1.472,13.569,10.046,13.569,11.774c0,1.732-4.549,10.295-13.556,11.774
					c0.705,0.347,1.323,0.657,1.323,0.657l0.05,0.027l0.046,0.043c0.063,0.052,0.469,0.486,0.469,1.141
					c0,0.349-0.107,0.626-0.338,0.824c-0.361,0.302-0.962,0.365-1.884,0.203c-1.703-0.297-3.487-0.839-5.154-2.797
					C350.729,163.96,345.565,159.421,345.565,152.873z M365.625,139.224c0-0.158-0.045-0.198-0.067-0.209
					c-0.063-0.049-0.312-0.189-1.237-0.031c-1.581,0.274-3.248,0.788-4.775,2.658l-0.112,0.128l-0.168,0.013
					c-7.968,0.702-12.904,4.951-12.904,11.09c0,6.141,4.946,10.392,12.918,11.094l0.168,0.014l0.107,0.128
					c1.519,1.863,3.194,2.37,4.767,2.648c0.926,0.16,1.174,0.018,1.237-0.034c0.022-0.009,0.067-0.047,0.067-0.209
					c0-0.248-0.14-0.455-0.207-0.535c-0.313-0.158-1.581-0.783-2.439-1.204l-1.301-0.637l1.44-0.112
					c9.63-0.779,14.17-9.992,14.17-11.153c0-1.159-4.54-10.377-14.179-11.146l-1.454-0.115l1.31-0.639
					c0.867-0.421,2.141-1.053,2.453-1.21C365.485,139.678,365.625,139.476,365.625,139.224z"/>
			</g>
			<path fill="#FFFFFF" d="M379.257,158.332c0,0,1.799-2.151,1.799-5.228c0-3.079-2.444-10.163-6.319-12.451
				c-3.881-2.295-11.135-3.583-15.439-3.439c-4.323,0.144-8.186,0.86-10.922,2.721c0,0,1.363-0.213,2.736-0.213
				c0,0-2.316,0.904-3.951,2.486c0,0,0.867-0.241,1.792-0.358c0,0-3.242,1.404-3.626,5.5c0,0,1.567-2.088,2.683-2.468
				c0,0-1.115,1.008-1.449,2.887c0,0,2.922-2.568,6.738-4.175c3.804-1.606,6.677-0.713,7.48,0.581
				c0.805,1.292,2.371,5.984,3.049,7.184c0,0-1.251-0.446-1.978-1.697c0,0,0.916,8.63,9.458,9.884c0,0-4.062,4.586-10.634,4.586
				c-6.571,0-10.162-4.17-10.936-5.658c0,0-0.356,0.772-0.054,1.901c0,0-3.107-1.305-4.065-3.81c0,0,0.592,2.728,2.074,4.58
				c0,0-1.147,0.112-2.038-0.646c0,0,2.769,5.176,9.342,7.023c6.572,1.845,11.292,0.95,16.129-0.95
				C375.964,164.665,380.526,161.635,379.257,158.332z"/>
		</g>
	</g>
	<path fill="#4F89BC" d="M456.131,202.753c10.859,0,19.667,8.772,19.667,19.596v143.099c0,10.825-8.808,19.597-19.667,19.597
		H248.903c-10.859,0-19.667-8.771-19.667-19.597V222.349c0-10.824,8.808-19.596,19.667-19.596H456.131z"/>
	<path fill="#FFFFFF" d="M316.078,273.604c0-5.554-4.521-10.063-10.1-10.063h-7.791c-5.574,0-10.101,4.51-10.101,10.063v7.769
		c0,5.554,4.526,10.063,10.101,10.063h7.791c5.579,0,10.1-4.51,10.1-10.063V273.604z"/>
	<path fill="#FFFFFF" d="M411.4,273.604c0-5.554-4.526-10.063-10.101-10.063h-7.797c-5.573,0-10.1,4.51-10.1,10.063v7.769
		c0,5.554,4.526,10.063,10.1,10.063h7.797c5.574,0,10.101-4.51,10.101-10.063V273.604z"/>
	<path fill="#FFFFFF" d="M316.078,311.016c0-5.554-4.521-10.063-10.1-10.063h-7.791c-5.574,0-10.101,4.51-10.101,10.063v7.769
		c0,5.554,4.526,10.063,10.101,10.063h7.791c5.579,0,10.1-4.51,10.1-10.063V311.016z"/>
	<path fill="#FFFFFF" d="M363.742,311.016c0-5.554-4.522-10.063-10.104-10.063h-7.788c-5.582,0-10.104,4.51-10.104,10.063v7.769
		c0,5.554,4.522,10.063,10.104,10.063h7.788c5.582,0,10.104-4.51,10.104-10.063V311.016z"/>
	<path fill="#FFFFFF" d="M411.4,311.016c0-5.554-4.526-10.063-10.101-10.063h-7.797c-5.573,0-10.1,4.51-10.1,10.063v7.769
		c0,5.554,4.526,10.063,10.1,10.063h7.797c5.574,0,10.101-4.51,10.101-10.063V311.016z"/>
	<path fill="#FFFFFF" d="M316.078,348.427c0-5.559-4.521-10.064-10.1-10.064h-7.791c-5.574,0-10.101,4.506-10.101,10.064v7.759
		c0,5.563,4.526,10.073,10.101,10.073h7.791c5.579,0,10.1-4.51,10.1-10.073V348.427z"/>
	<path fill="#FFFFFF" d="M363.742,348.427c0-5.559-4.522-10.064-10.104-10.064h-7.788c-5.582,0-10.104,4.506-10.104,10.064v7.759
		c0,5.563,4.522,10.073,10.104,10.073h7.788c5.582,0,10.104-4.51,10.104-10.073V348.427z"/>
	<path fill="#FFFFFF" d="M411.4,348.427c0-5.559-4.526-10.064-10.101-10.064h-7.797c-5.573,0-10.1,4.506-10.1,10.064v7.759
		c0,5.563,4.526,10.073,10.1,10.073h7.797c5.574,0,10.101-4.51,10.101-10.073V348.427z"/>
	<path fill="#FFFFFF" d="M411.774,220.751h-4.594h-18.162h-78.55h-18.163h-4.602c-6.577,0-11.917,4.667-11.917,10.429v8.038
		c0,5.761,5.34,10.424,11.917,10.424h4.602h18.163h78.55h18.162h4.594c6.586,0,11.926-4.663,11.926-10.424v-8.038
		C423.7,225.419,418.36,220.751,411.774,220.751z"/>
</g>
<g>
	<g>
		<path fill="#4F89BC" d="M344.617,267.016c10.867,0,19.666,8.776,19.666,19.597v143.081c0,10.824-8.799,19.597-19.666,19.597
			h-207.22c-10.868,0-19.667-8.772-19.667-19.597V286.612c0-10.82,8.799-19.597,19.667-19.597H344.617z"/>
		<path fill="#FFFFFF" d="M344.617,267.016c10.867,0,19.666,8.776,19.666,19.597v143.081c0,10.824-8.799,19.597-19.666,19.597
			h-207.22c-10.868,0-19.667-8.772-19.667-19.597V286.612c0-10.82,8.799-19.597,19.667-19.597H344.617 M344.617,262.406h-207.22
			c-13.395,0-24.292,10.861-24.292,24.206v143.081c0,13.345,10.897,24.205,24.292,24.205h207.22
			c13.393,0,24.291-10.86,24.291-24.205V286.612C368.908,273.268,358.01,262.406,344.617,262.406L344.617,262.406z"/>
	</g>
	<g>
		<path fill="#FFFFFF" d="M344.125,391.733c0,6.886-5.611,12.477-12.53,12.477H150.42c-6.92,0-12.53-5.591-12.53-12.477v-90.61
			c0-6.896,5.61-12.477,12.53-12.477h181.175c6.919,0,12.53,5.581,12.53,12.477V391.733z"/>
		<path fill="#4F89BC" d="M331.595,406.514H150.42c-8.185,0-14.843-6.629-14.843-14.78v-90.61c0-8.151,6.658-14.781,14.843-14.781
			h181.175c8.185,0,14.842,6.63,14.842,14.781v90.61C346.437,399.885,339.779,406.514,331.595,406.514z M150.42,290.951
			c-5.635,0-10.217,4.563-10.217,10.172v90.61c0,5.608,4.583,10.172,10.217,10.172h181.175c5.633,0,10.217-4.563,10.217-10.172
			v-90.61c0-5.608-4.584-10.172-10.217-10.172H150.42z"/>
	</g>
	<path fill="#4F89BC" d="M214.732,378.222c0,3.438-2.801,6.238-6.26,6.238h-47.419c-3.46,0-6.26-2.8-6.26-6.238v-64.137
		c0-3.438,2.8-6.238,6.26-6.238h47.419c3.459,0,6.26,2.8,6.26,6.238V378.222z"/>
	<rect x="228.997" y="311.601" fill="#4F89BC" width="42.902" height="7.31"/>
	<rect x="228.997" y="348.643" fill="#4F89BC" width="85.027" height="4.051"/>
	<rect x="228.997" y="376.665" fill="#4F89BC" width="63.716" height="4.05"/>
	<rect x="228.997" y="362.676" fill="#4F89BC" width="87.949" height="4.06"/>
	<rect x="228.997" y="334.906" fill="#4F89BC" width="87.949" height="4.06"/>
	<g>
		<path fill="#FFFFFF" d="M201.619,355.214c-8.794-2.854-8.948-2.422-9.165-4.699c-0.217-2.286,0-3.709,0-3.709h-10.082l0,0h-5.307
			c0,0,0.217,1.423,0,3.709c-0.212,2.277-0.371,1.846-9.165,4.699s-9.151,8.119-9.151,9.406c0,1.278,0,7.192,0,7.192
			c10.443,7.273,21.821,6.877,21.821,6.877c6.076,0,7.954,0,8.379,0c0,0,11.388,0.396,21.821-6.877c0,0,0-5.914,0-7.192
			C210.771,363.333,210.414,358.067,201.619,355.214z"/>
		<g>
			<path fill="#4F89BC" d="M199.153,329.235c-0.538,0-0.908,0.368-0.908,0.368s-0.794,1.603-1.31,2.646
				c-0.831-10.217-10.565-15.267-12.214-15.267s-11.392,5.05-12.214,15.276c-0.505-1.035-1.314-2.656-1.314-2.656
				s-0.375-0.368-0.908-0.368c-0.538,0-0.939,0.323-0.673,1.854c0.267,1.495,0.746,3.484,2.959,5.275
				c0.826,9.335,5.971,13.943,12.15,13.943c6.188,0,11.328-4.608,12.15-13.952c2.208-1.792,2.692-3.771,2.954-5.267
				C200.093,329.559,199.69,329.235,199.153,329.235z"/>
			<path fill="#4F89BC" d="M184.722,350.73c-6.92,0-11.722-5.419-12.553-14.159c-2.078-1.737-2.656-3.628-2.968-5.41
				c-0.171-0.981-0.1-1.603,0.212-1.98c0.203-0.243,0.497-0.36,0.872-0.36c0.687,0,1.156,0.441,1.202,0.496l0.045,0.045l0.036,0.054
				c0,0,0.326,0.657,0.696,1.404c1.559-9.47,10.628-14.259,12.458-14.259c1.829,0,10.895,4.78,12.458,14.24
				c0.37-0.737,0.691-1.386,0.691-1.386l0.031-0.054l0.045-0.045c0.055-0.055,0.515-0.496,1.207-0.496
				c0.37,0,0.664,0.117,0.872,0.36c0.316,0.378,0.384,0.999,0.217,1.98c-0.312,1.782-0.89,3.664-2.963,5.401
				C196.452,345.312,191.65,350.73,184.722,350.73z M170.285,329.649c-0.171,0-0.208,0.054-0.226,0.071
				c-0.054,0.063-0.198,0.324-0.031,1.297c0.289,1.665,0.835,3.42,2.81,5.022l0.14,0.117l0.009,0.171
				c0.745,8.362,5.239,13.565,11.735,13.565c6.5,0,10.994-5.203,11.739-13.574l0.014-0.171l0.135-0.117
				c1.97-1.603,2.507-3.349,2.801-5.014c0.171-0.973,0.018-1.233-0.036-1.297c-0.009-0.018-0.05-0.071-0.221-0.071
				c-0.267,0-0.479,0.144-0.565,0.216c-0.162,0.324-0.831,1.665-1.273,2.565l-0.673,1.368l-0.122-1.513
				c-0.822-10.117-10.57-14.889-11.798-14.889c-1.224,0-10.977,4.78-11.794,14.898l-0.122,1.521l-0.673-1.368
				c-0.447-0.909-1.116-2.259-1.278-2.583C170.764,329.793,170.552,329.649,170.285,329.649z"/>
		</g>
		<path fill="#FFFFFF" d="M190.494,315.336c0,0-2.272-1.89-5.529-1.89c-3.256,0-10.75,2.565-13.171,6.634
			c-2.426,4.078-3.785,11.693-3.636,16.221c0.154,4.528,0.908,8.606,2.877,11.469c0,0-0.226-1.432-0.226-2.862
			c0,0,0.958,2.43,2.633,4.141c0,0-0.257-0.919-0.379-1.882c0,0,1.482,3.412,5.813,3.808c0,0-2.208-1.647-2.61-2.817
			c0,0,1.066,1.17,3.053,1.521c0,0-2.715-3.069-4.417-7.075c-1.699-3.997-0.75-7.013,0.614-7.858
			c1.369-0.847,6.333-2.494,7.607-3.205c0,0-0.47,1.323-1.798,2.08c0,0,9.133-0.964,10.457-9.938c0,0,4.852,4.276,4.852,11.171
			c0,6.904-4.414,10.677-5.985,11.486c0,0,0.817,0.378,2.015,0.063c0,0-1.387,3.258-4.029,4.267c0,0,2.881-0.63,4.842-2.179
			c0,0,0.117,1.206-0.683,2.134c0,0,5.475-2.908,7.431-9.803c1.951-6.904,1.002-11.864-1.012-16.95
			C197.197,318.793,193.99,314.004,190.494,315.336z"/>
	</g>
	<path fill="#FFFFFF" d="M167.575,424.558c0-3.501-2.855-6.337-6.373-6.337h-4.915c-3.519,0-6.374,2.836-6.374,6.337v4.893
		c0,3.511,2.854,6.355,6.374,6.355h4.915c3.518,0,6.373-2.845,6.373-6.355V424.558z"/>
	<path fill="#FFFFFF" d="M193.593,424.558c0-3.501-2.854-6.337-6.374-6.337h-4.914c-3.519,0-6.374,2.836-6.374,6.337v4.893
		c0,3.511,2.855,6.355,6.374,6.355h4.914c3.519,0,6.374-2.845,6.374-6.355V424.558z"/>
</g>
</svg>
