<?xml version="1.0" encoding="utf-8"?>
<!-- Generator: Adobe Illustrator 15.0.0, SVG Export Plug-In . SVG Version: 6.00 Build 0)  -->
<!DOCTYPE svg PUBLIC "-//W3C//DTD SVG 1.1//EN" "http://www.w3.org/Graphics/SVG/1.1/DTD/svg11.dtd">
<svg version="1.1" xmlns="http://www.w3.org/2000/svg" xmlns:xlink="http://www.w3.org/1999/xlink" x="0px" y="0px" width="512px"
	 height="512px" viewBox="0 0 512 512" enable-background="new 0 0 512 512" xml:space="preserve">
<g id="Ebene_1" display="none">
	<g display="inline">
		<g>
			<g>
				<path fill="#FFFFFF" d="M82.733,254.789c-6.559,0-11.88-5.297-11.88-11.839V71.698c0-6.535,5.321-11.839,11.88-11.839h86.265
					c6.559,0,11.884,5.304,11.884,11.839V242.95c0,6.542-5.325,11.839-11.884,11.839H82.733z"/>
				<path fill="#4F89BC" d="M168.998,257.094H82.733c-7.826,0-14.192-6.344-14.192-14.144V71.698c0-7.8,6.367-14.144,14.192-14.144
					h86.265c7.828,0,14.197,6.344,14.197,14.144V242.95C183.195,250.75,176.826,257.094,168.998,257.094z M82.733,62.163
					c-5.275,0-9.567,4.278-9.567,9.535V242.95c0,5.257,4.292,9.535,9.567,9.535h86.265c5.278,0,9.572-4.278,9.572-9.535V71.698
					c0-5.257-4.294-9.535-9.572-9.535H82.733z"/>
			</g>
			<rect x="152.064" y="145.973" fill="#4F89BC" width="6.961" height="40.545"/>
			<rect x="119.899" y="145.973" fill="#4F89BC" width="3.857" height="80.367"/>
			<rect x="93.227" y="145.973" fill="#4F89BC" width="3.853" height="60.223"/>
			<rect x="106.533" y="145.973" fill="#4F89BC" width="3.862" height="83.132"/>
			<rect x="132.962" y="145.973" fill="#4F89BC" width="3.871" height="83.132"/>
		</g>
		<g>
			<path fill="#4F89BC" d="M91.826,143.774h4.973v0.648h-4.973V143.774z"/>
			<path fill="#4F89BC" d="M91.894,142.658c-0.063-0.387-0.104-0.851-0.104-1.359c0-0.918,0.222-1.571,0.619-2.007
				c0.407-0.45,0.98-0.702,1.789-0.702c0.804,0,1.473,0.252,1.929,0.711c0.465,0.468,0.718,1.233,0.718,2.196
				c0,0.468-0.022,0.837-0.059,1.161H91.894z M96.298,142.019c0.018-0.162,0.027-0.396,0.027-0.648c0-1.377-0.768-2.106-2.109-2.106
				c-1.17-0.009-1.919,0.653-1.919,2.007c0,0.333,0.031,0.576,0.072,0.747H96.298z"/>
			<path fill="#4F89BC" d="M91.894,137.761c-0.063-0.387-0.104-0.855-0.104-1.359c0-0.918,0.222-1.575,0.619-2.007
				c0.407-0.45,0.98-0.711,1.789-0.711c0.804,0,1.473,0.261,1.929,0.716c0.465,0.472,0.718,1.237,0.718,2.201
				c0,0.459-0.022,0.837-0.059,1.161H91.894z M96.298,137.122c0.018-0.162,0.027-0.396,0.027-0.648c0-1.377-0.768-2.111-2.109-2.111
				c-1.17-0.004-1.919,0.652-1.919,2.007c0,0.329,0.031,0.581,0.072,0.751H96.298z"/>
			<path fill="#4F89BC" d="M94.636,132.936l-1.767-3.412h0.511l1.45,2.872h0.009l1.45-2.872h0.511l-1.766,3.412H94.636z"/>
			<path fill="#4F89BC" d="M94.636,128.548l-1.767-3.412h0.511l1.45,2.876h0.009l1.45-2.876h0.511l-1.766,3.412H94.636z"/>
			<path fill="#4F89BC" d="M96.799,121.374l-1.102,0.644c-0.416,0.252-0.696,0.41-0.98,0.567v0.009
				c0.285,0.144,0.556,0.288,0.989,0.54l1.093,0.594v0.738l-2.511-1.521l-2.462,1.458v-0.738l1.165-0.657
				c0.33-0.185,0.574-0.324,0.836-0.455v-0.022c-0.294-0.135-0.515-0.261-0.836-0.45l-1.165-0.666v-0.743l2.425,1.503l2.548-1.543
				V121.374z"/>
			<path fill="#4F89BC" d="M96.799,117.287l-1.102,0.639c-0.416,0.256-0.696,0.414-0.98,0.572v0.009
				c0.285,0.144,0.556,0.288,0.989,0.54l1.093,0.594v0.738l-2.511-1.521l-2.462,1.458v-0.738l1.165-0.657
				c0.33-0.189,0.574-0.324,0.836-0.455v-0.022c-0.294-0.14-0.515-0.266-0.836-0.45l-1.165-0.666v-0.747l2.425,1.508l2.548-1.544
				V117.287z"/>
			<path fill="#4F89BC" d="M92.549,113.177v1.818l1.233,0.189c-0.018-0.108-0.027-0.216-0.027-0.392c0-0.374,0.072-0.733,0.262-1.03
				c0.203-0.374,0.627-0.685,1.229-0.685c0.93,0,1.635,0.748,1.635,1.783c0,0.522-0.145,0.954-0.293,1.188l-0.497-0.162
				c0.122-0.198,0.266-0.585,0.266-1.026c0-0.604-0.397-1.134-1.043-1.125c-0.619,0-1.053,0.414-1.053,1.368
				c0,0.279,0.028,0.491,0.046,0.667l-2.304-0.306v-2.287H92.549z"/>
			<path fill="#4F89BC" d="M96.799,109.315l-1.102,0.635c-0.416,0.257-0.696,0.414-0.98,0.572v0.009
				c0.285,0.144,0.556,0.288,0.989,0.54l1.093,0.594v0.738l-2.511-1.521l-2.462,1.458v-0.738l1.165-0.657
				c0.33-0.189,0.574-0.324,0.836-0.455v-0.022c-0.294-0.14-0.515-0.266-0.836-0.45l-1.165-0.666v-0.743l2.425,1.503l2.548-1.544
				V109.315z"/>
			<path fill="#4F89BC" d="M96.799,105.22l-1.102,0.639c-0.416,0.261-0.696,0.414-0.98,0.567v0.018
				c0.285,0.135,0.556,0.288,0.989,0.531l1.093,0.594v0.738l-2.511-1.512l-2.462,1.454v-0.743l1.165-0.648
				c0.33-0.189,0.574-0.333,0.836-0.459v-0.027c-0.294-0.135-0.515-0.261-0.836-0.441l-1.165-0.675v-0.738l2.425,1.503l2.548-1.544
				V105.22z"/>
			<path fill="#4F89BC" d="M96.799,101.133l-1.102,0.639c-0.416,0.261-0.696,0.414-0.98,0.567v0.014
				c0.285,0.139,0.556,0.292,0.989,0.536l1.093,0.594v0.738l-2.511-1.512l-2.462,1.449v-0.738l1.165-0.648
				c0.33-0.189,0.574-0.333,0.836-0.459v-0.027c-0.294-0.135-0.515-0.261-0.836-0.441l-1.165-0.675v-0.738l2.425,1.503l2.548-1.548
				V101.133z"/>
			<path fill="#4F89BC" d="M94.636,99.72l-1.767-3.412h0.511l1.45,2.872h0.009l1.45-2.872h0.511l-1.766,3.412H94.636z"/>
			<path fill="#4F89BC" d="M94.636,95.336l-1.767-3.412h0.511l1.45,2.872h0.009l1.45-2.872h0.511l-1.766,3.412H94.636z"/>
			<path fill="#4F89BC" d="M94.636,90.948l-1.767-3.412h0.511l1.45,2.876h0.009l1.45-2.876h0.511l-1.766,3.412H94.636z"/>
			<path fill="#4F89BC" d="M94.636,86.56l-1.767-3.412h0.511l1.45,2.876h0.009l1.45-2.876h0.511l-1.766,3.412H94.636z"/>
			<path fill="#4F89BC" d="M94.636,82.176l-1.767-3.412h0.511l1.45,2.872h0.009l1.45-2.872h0.511l-1.766,3.412H94.636z"/>
			<path fill="#4F89BC" d="M94.636,77.792l-1.767-3.414h0.511l1.45,2.874h0.009l1.45-2.874h0.511l-1.766,3.414H94.636z"/>
			<path fill="#4F89BC" d="M94.636,73.406l-1.767-3.416h0.511l1.45,2.876h0.009l1.45-2.876h0.511l-1.766,3.416H94.636z"/>
			<path fill="#4F89BC" d="M94.636,69.02l-1.767-3.414h0.511l1.45,2.872h0.009l1.45-2.872h0.511l-1.766,3.414H94.636z"/>
			<path fill="#4F89BC" d="M94.636,64.634l-1.767-3.416h0.511l1.45,2.876h0.009l1.45-2.876h0.511l-1.766,3.416H94.636z"/>
			<path fill="#4F89BC" d="M103.498,144.49l-1.766-3.412h0.515l1.437,2.876h0.018l1.446-2.876h0.511l-1.762,3.412H103.498z"/>
			<path fill="#4F89BC" d="M103.213,137.077c1.626,0,2.529,0.603,2.529,1.656c0,0.937-0.885,1.575-2.466,1.593
				c-1.617,0-2.498-0.702-2.498-1.669C100.779,137.653,101.682,137.077,103.213,137.077z M103.285,139.669
				c1.242,0,1.952-0.378,1.952-0.972c0-0.653-0.772-0.963-1.997-0.963c-1.184,0-1.96,0.288-1.96,0.963
				C101.28,139.264,101.98,139.669,103.285,139.669z"/>
			<path fill="#4F89BC" d="M103.213,133.301c1.626,0,2.529,0.607,2.529,1.661c0,0.936-0.885,1.575-2.466,1.584
				c-1.617,0-2.498-0.693-2.498-1.665C100.779,133.881,101.682,133.301,103.213,133.301z M103.285,135.897
				c1.242,0,1.952-0.387,1.952-0.972c0-0.657-0.772-0.972-1.997-0.972c-1.184,0-1.96,0.297-1.96,0.972
				C101.28,135.483,101.98,135.897,103.285,135.897z"/>
			<path fill="#4F89BC" d="M103.213,129.524c1.626,0,2.529,0.607,2.529,1.656c0,0.936-0.885,1.575-2.466,1.593
				c-1.617,0-2.498-0.698-2.498-1.666C100.779,130.101,101.682,129.524,103.213,129.524z M103.285,132.117
				c1.242,0,1.952-0.378,1.952-0.972c0-0.648-0.772-0.963-1.997-0.963c-1.184,0-1.96,0.288-1.96,0.963
				C101.28,131.712,101.98,132.117,103.285,132.117z"/>
			<path fill="#4F89BC" d="M103.213,125.752c1.626,0,2.529,0.604,2.529,1.657c0,0.936-0.885,1.575-2.466,1.588
				c-1.617,0-2.498-0.697-2.498-1.669C100.779,126.329,101.682,125.752,103.213,125.752z M103.285,128.345
				c1.242,0,1.952-0.383,1.952-0.972c0-0.657-0.772-0.972-1.997-0.972c-1.184,0-1.96,0.297-1.96,0.972
				C101.28,127.931,101.98,128.345,103.285,128.345z"/>
			<path fill="#4F89BC" d="M103.213,121.972c1.626,0,2.529,0.612,2.529,1.665c0,0.927-0.885,1.566-2.466,1.584
				c-1.617,0-2.498-0.698-2.498-1.666C100.779,122.553,101.682,121.972,103.213,121.972z M103.285,124.564
				c1.242,0,1.952-0.378,1.952-0.968c0-0.652-0.772-0.968-1.997-0.968c-1.184,0-1.96,0.297-1.96,0.968
				C101.28,124.159,101.98,124.564,103.285,124.564z"/>
			<path fill="#4F89BC" d="M103.213,118.2c1.626,0,2.529,0.608,2.529,1.656c0,0.937-0.885,1.575-2.466,1.589
				c-1.617,0-2.498-0.698-2.498-1.67C100.779,118.776,101.682,118.2,103.213,118.2z M103.285,120.793
				c1.242,0,1.952-0.378,1.952-0.972c0-0.648-0.772-0.972-1.997-0.972c-1.184,0-1.96,0.297-1.96,0.972
				C101.28,120.379,101.98,120.793,103.285,120.793z"/>
			<path fill="#4F89BC" d="M103.498,117.453l-1.766-3.412h0.515l1.437,2.872h0.018l1.446-2.872h0.511l-1.762,3.412H103.498z"/>
			<path fill="#4F89BC" d="M103.213,110.036c1.626,0,2.529,0.612,2.529,1.666c0,0.927-0.885,1.571-2.466,1.584
				c-1.617,0-2.498-0.697-2.498-1.665C100.779,110.616,101.682,110.036,103.213,110.036z M103.285,112.628
				c1.242,0,1.952-0.378,1.952-0.963c0-0.657-0.772-0.972-1.997-0.972c-1.184,0-1.96,0.297-1.96,0.972
				C101.28,112.223,101.98,112.628,103.285,112.628z"/>
			<path fill="#4F89BC" d="M103.213,106.264c1.626,0,2.529,0.603,2.529,1.656c0,0.936-0.885,1.575-2.466,1.589
				c-1.617,0-2.498-0.698-2.498-1.67C100.779,106.84,101.682,106.264,103.213,106.264z M103.285,108.856
				c1.242,0,1.952-0.382,1.952-0.972c0-0.652-0.772-0.968-1.997-0.968c-1.184,0-1.96,0.293-1.96,0.968
				C101.28,108.447,101.98,108.856,103.285,108.856z"/>
			<path fill="#4F89BC" d="M103.213,102.488c1.626,0,2.529,0.608,2.529,1.661c0,0.932-0.885,1.571-2.466,1.584
				c-1.617,0-2.498-0.698-2.498-1.665C100.779,103.064,101.682,102.488,103.213,102.488z M103.285,105.081
				c1.242,0,1.952-0.383,1.952-0.968c0-0.657-0.772-0.972-1.997-0.972c-1.184,0-1.96,0.297-1.96,0.972
				C101.28,104.671,101.98,105.081,103.285,105.081z"/>
			<path fill="#4F89BC" d="M103.213,98.712c1.626,0,2.529,0.607,2.529,1.656c0,0.936-0.885,1.575-2.466,1.593
				c-1.617,0-2.498-0.702-2.498-1.666C100.779,99.288,101.682,98.712,103.213,98.712z M103.285,101.304
				c1.242,0,1.952-0.378,1.952-0.972c0-0.648-0.772-0.963-1.997-0.963c-1.184,0-1.96,0.288-1.96,0.963
				C101.28,100.895,101.98,101.304,103.285,101.304z"/>
			<path fill="#4F89BC" d="M103.213,94.936c1.626,0,2.529,0.607,2.529,1.661c0,0.932-0.885,1.575-2.466,1.584
				c-1.617,0-2.498-0.693-2.498-1.666C100.779,95.516,101.682,94.936,103.213,94.936z M103.285,97.528
				c1.242,0,1.952-0.382,1.952-0.967c0-0.657-0.772-0.973-1.997-0.973c-1.184,0-1.96,0.297-1.96,0.973
				C101.28,97.119,101.98,97.528,103.285,97.528z"/>
			<path fill="#4F89BC" d="M103.213,91.159c1.626,0,2.529,0.608,2.529,1.661c0,0.932-0.885,1.571-2.466,1.588
				c-1.617,0-2.498-0.697-2.498-1.665C100.779,91.735,101.682,91.159,103.213,91.159z M103.285,93.752
				c1.242,0,1.952-0.378,1.952-0.963c0-0.657-0.772-0.972-1.997-0.972c-1.184,0-1.96,0.292-1.96,0.972
				C101.28,93.347,101.98,93.752,103.285,93.752z"/>
			<path fill="#4F89BC" d="M103.213,87.388c1.626,0,2.529,0.603,2.529,1.656c0,0.936-0.885,1.575-2.466,1.589
				c-1.617,0-2.498-0.698-2.498-1.67C100.779,87.964,101.682,87.388,103.213,87.388z M103.285,89.98
				c1.242,0,1.952-0.378,1.952-0.972c0-0.652-0.772-0.968-1.997-0.968c-1.184,0-1.96,0.293-1.96,0.968
				C101.28,89.57,101.98,89.98,103.285,89.98z"/>
			<path fill="#4F89BC" d="M103.498,86.641l-1.766-3.416h0.515l1.437,2.876h0.018l1.446-2.876h0.511l-1.762,3.416H103.498z"/>
			<path fill="#4F89BC" d="M103.498,82.252l-1.766-3.416h0.515l1.437,2.881h0.018l1.446-2.881h0.511l-1.762,3.416H103.498z"/>
			<path fill="#4F89BC" d="M103.498,77.864l-1.766-3.409h0.515l1.437,2.869h0.018l1.446-2.869h0.511l-1.762,3.409H103.498z"/>
			<path fill="#4F89BC" d="M103.498,73.48l-1.766-3.412h0.515l1.437,2.874h0.018l1.446-2.874h0.511l-1.762,3.412H103.498z"/>
			<path fill="#4F89BC" d="M103.498,69.094l-1.766-3.412h0.515l1.437,2.874h0.018l1.446-2.874h0.511l-1.762,3.412H103.498z"/>
			<path fill="#4F89BC" d="M103.213,61.679c1.626,0,2.529,0.608,2.529,1.659c0,0.936-0.885,1.575-2.466,1.589
				c-1.617,0-2.498-0.695-2.498-1.667C100.779,62.257,101.682,61.679,103.213,61.679z M103.285,64.273
				c1.242,0,1.952-0.382,1.952-0.97c0-0.655-0.772-0.97-1.997-0.97c-1.184,0-1.96,0.292-1.96,0.97
				C101.28,63.864,101.98,64.273,103.285,64.273z"/>
			<path fill="#4F89BC" d="M112.333,140.241c-0.695,0.036-1.531,0.077-2.141,0.077v0.018c0.569,0.18,1.197,0.378,1.888,0.621
				l2.407,0.882v0.486l-2.367,0.801c-0.705,0.243-1.341,0.432-1.929,0.567v0.018c0.619,0.018,1.441,0.049,2.2,0.099l2.127,0.126
				v0.612l-4.969-0.342v-0.819l2.399-0.846c0.614-0.207,1.156-0.369,1.68-0.5v-0.013c-0.506-0.135-1.053-0.311-1.68-0.531
				l-2.399-0.882V139.8l4.969-0.311v0.63L112.333,140.241z"/>
			<path fill="#4F89BC" d="M109.55,137.86h2.945c1.107,0,1.581-0.495,1.581-1.152c0-0.729-0.487-1.206-1.581-1.206h-2.945v-0.648
				h2.904c1.527,0,2.146,0.801,2.146,1.872c0,1.017-0.574,1.782-2.128,1.782h-2.922V137.86z"/>
			<path fill="#4F89BC" d="M113.738,133.823c0.185-0.292,0.325-0.702,0.325-1.139c0-0.657-0.348-1.044-0.854-1.044
				c-0.452,0-0.727,0.27-0.98,0.936c-0.298,0.811-0.723,1.314-1.414,1.314c-0.776,0-1.351-0.644-1.351-1.607
				c0-0.5,0.118-0.869,0.24-1.084l0.528,0.171c-0.095,0.153-0.239,0.486-0.239,0.936c0,0.68,0.411,0.937,0.746,0.937
				c0.469,0,0.695-0.306,0.962-0.99c0.32-0.837,0.727-1.251,1.458-1.251c0.773,0,1.441,0.558,1.441,1.724
				c0,0.481-0.149,1.003-0.321,1.265L113.738,133.823z"/>
			<path fill="#4F89BC" d="M110.092,129.173v1.503h-0.542v-3.664h0.542v1.513h4.427v0.648H110.092z"/>
			<path fill="#4F89BC" d="M112.184,123.898v1.917h1.798v-2.142h0.538v2.791h-4.969v-2.683h0.533v2.034h1.572v-1.917H112.184z"/>
			<path fill="#4F89BC" d="M109.609,122.836c-0.054-0.324-0.1-0.801-0.1-1.229c0-0.688,0.131-1.134,0.407-1.436
				c0.221-0.243,0.564-0.387,0.949-0.387c0.65,0,1.084,0.414,1.265,0.927h0.022c0.131-0.378,0.483-0.604,0.998-0.725
				c0.695-0.158,1.174-0.275,1.369-0.383v0.666c-0.149,0.081-0.569,0.189-1.188,0.324c-0.687,0.144-0.94,0.414-0.967,0.999v0.599
				h2.154v0.644H109.609z M111.876,122.192v-0.652c0-0.684-0.379-1.116-0.944-1.116c-0.642,0-0.926,0.459-0.926,1.134
				c0,0.315,0.028,0.526,0.055,0.634H111.876z"/>
			<path fill="#4F89BC" d="M112.36,118.947l-1.766-3.412h0.51l1.446,2.872h0.014l1.45-2.872h0.506l-1.761,3.412H112.36z"/>
			<path fill="#4F89BC" d="M112.36,114.563l-1.766-3.412h0.51l1.446,2.872h0.014l1.45-2.872h0.506l-1.761,3.412H112.36z"/>
			<path fill="#4F89BC" d="M112.333,105.931c-0.695,0.031-1.531,0.076-2.141,0.076v0.014c0.569,0.18,1.197,0.378,1.888,0.621
				l2.407,0.882v0.486l-2.367,0.806c-0.705,0.239-1.341,0.428-1.929,0.567v0.013c0.619,0.018,1.441,0.054,2.2,0.099l2.127,0.126
				v0.612l-4.969-0.342v-0.819l2.399-0.846c0.614-0.207,1.156-0.369,1.68-0.5v-0.014c-0.506-0.135-1.053-0.306-1.68-0.527
				l-2.399-0.886v-0.811l4.969-0.315v0.63L112.333,105.931z"/>
			<path fill="#4F89BC" d="M112.952,103.456l1.567,0.518v0.662l-4.969-1.692v-0.765l4.969-1.692v0.684l-1.567,0.531V103.456z
				 M112.455,101.826l-1.432,0.491c-0.33,0.112-0.619,0.185-0.908,0.256v0.018c0.289,0.072,0.596,0.144,0.895,0.248l1.445,0.486
				V101.826z"/>
			<path fill="#4F89BC" d="M114.519,97.146l-1.102,0.644c-0.416,0.256-0.691,0.41-0.98,0.567v0.014
				c0.289,0.144,0.556,0.288,0.989,0.536l1.093,0.599v0.733l-2.516-1.517l-2.453,1.458v-0.743l1.161-0.653
				c0.325-0.189,0.574-0.329,0.84-0.459v-0.018c-0.298-0.144-0.524-0.266-0.84-0.45l-1.161-0.67v-0.743l2.417,1.503l2.552-1.54
				V97.146z"/>
			<path fill="#4F89BC" d="M112.36,95.737l-1.766-3.417h0.51l1.446,2.881h0.014l1.45-2.881h0.506l-1.761,3.417H112.36z"/>
			<path fill="#4F89BC" d="M112.36,91.348l-1.766-3.412h0.51l1.446,2.872h0.014l1.45-2.872h0.506l-1.761,3.412H112.36z"/>
			<path fill="#4F89BC" d="M112.36,86.964l-1.766-3.412h0.51l1.446,2.872h0.014l1.45-2.872h0.506l-1.761,3.412H112.36z"/>
			<path fill="#4F89BC" d="M112.36,82.581l-1.766-3.412h0.51l1.446,2.872h0.014l1.45-2.872h0.506l-1.761,3.412H112.36z"/>
			<path fill="#4F89BC" d="M112.36,78.192l-1.766-3.412h0.51l1.446,2.876h0.014l1.45-2.876h0.506l-1.761,3.412H112.36z"/>
			<path fill="#4F89BC" d="M112.36,73.807l-1.766-3.414h0.51l1.446,2.874h0.014l1.45-2.874h0.506l-1.761,3.414H112.36z"/>
			<path fill="#4F89BC" d="M112.36,69.422l-1.766-3.416h0.51l1.446,2.874h0.014l1.45-2.874h0.506l-1.761,3.416H112.36z"/>
			<path fill="#4F89BC" d="M112.36,65.034l-1.766-3.412h0.51l1.446,2.872h0.014l1.45-2.872h0.506l-1.761,3.412H112.36z"/>
		</g>
		<path fill="#4F89BC" d="M218.743,343.282c0,10.824-8.804,19.597-19.667,19.597H55.465c-10.864,0-19.667-8.772-19.667-19.597
			V162.93c0-10.82,8.803-19.597,19.667-19.597h143.611c10.863,0,19.667,8.776,19.667,19.597V343.282z"/>
		<path fill="#FFFFFF" d="M98.845,231.315c0-5.554-4.521-10.064-10.1-10.064h-7.792c-5.574,0-10.1,4.51-10.1,10.064v7.769
			c0,5.554,4.526,10.064,10.1,10.064h7.792c5.579,0,10.1-4.51,10.1-10.064V231.315z"/>
		<path fill="#FFFFFF" d="M141.269,231.315c0-5.554-4.521-10.064-10.104-10.064h-7.787c-5.583,0-10.104,4.51-10.104,10.064v7.769
			c0,5.554,4.521,10.064,10.104,10.064h7.787c5.583,0,10.104-4.51,10.104-10.064V231.315z"/>
		<path fill="#FFFFFF" d="M183.687,231.315c0-5.554-4.526-10.064-10.1-10.064h-7.796c-5.574,0-10.1,4.51-10.1,10.064v7.769
			c0,5.554,4.526,10.064,10.1,10.064h7.796c5.574,0,10.1-4.51,10.1-10.064V231.315z"/>
		<path fill="#FFFFFF" d="M98.845,273.947c0-5.555-4.521-10.064-10.1-10.064h-7.792c-5.574,0-10.1,4.51-10.1,10.064v7.768
			c0,5.555,4.526,10.064,10.1,10.064h7.792c5.579,0,10.1-4.51,10.1-10.064V273.947z"/>
		<path fill="#FFFFFF" d="M183.687,273.947c0-5.555-4.526-10.064-10.1-10.064h-7.796c-5.574,0-10.1,4.51-10.1,10.064v7.768
			c0,5.555,4.526,10.064,10.1,10.064h7.796c5.574,0,10.1-4.51,10.1-10.064V273.947z"/>
		<path fill="#FFFFFF" d="M98.845,316.578c0-5.558-4.521-10.063-10.1-10.063h-7.792c-5.574,0-10.1,4.506-10.1,10.063v7.76
			c0,5.563,4.526,10.073,10.1,10.073h7.792c5.579,0,10.1-4.51,10.1-10.073V316.578z"/>
		<path fill="#FFFFFF" d="M141.269,316.578c0-5.558-4.521-10.063-10.104-10.063h-7.787c-5.583,0-10.104,4.506-10.104,10.063v7.76
			c0,5.563,4.521,10.073,10.104,10.073h7.787c5.583,0,10.104-4.51,10.104-10.073V316.578z"/>
		<path fill="#FFFFFF" d="M183.687,316.578c0-5.558-4.526-10.063-10.1-10.063h-7.796c-5.574,0-10.1,4.506-10.1,10.063v7.76
			c0,5.563,4.526,10.073,10.1,10.073h7.796c5.574,0,10.1-4.51,10.1-10.073V316.578z"/>
		<path fill="#FFFFFF" d="M181.723,170.63h-4.034h-15.944H92.789H76.843h-4.038c-5.773,0-10.461,4.667-10.461,10.428v8.039
			c0,5.761,4.688,10.424,10.461,10.424h4.038h15.945h68.956h15.944h4.034c5.777,0,10.465-4.663,10.465-10.424v-8.039
			C192.188,175.298,187.5,170.63,181.723,170.63z"/>
	</g>
	<g display="inline">
		<g>
			<g>
				<path fill="#FFFFFF" d="M306.521,303.54c-6.559,0-11.879-5.298-11.879-11.842v-171.25c0-6.535,5.32-11.839,11.879-11.839h86.266
					c6.559,0,11.884,5.304,11.884,11.839v171.25c0,6.544-5.325,11.842-11.884,11.842H306.521z"/>
				<path fill="#4F89BC" d="M392.786,305.844h-86.266c-7.827,0-14.192-6.346-14.192-14.146v-171.25
					c0-7.8,6.365-14.144,14.192-14.144h86.266c7.827,0,14.196,6.344,14.196,14.144v171.25
					C406.982,299.498,400.613,305.844,392.786,305.844z M306.521,110.914c-5.275,0-9.567,4.278-9.567,9.535v171.25
					c0,5.257,4.292,9.537,9.567,9.537h86.266c5.275,0,9.571-4.28,9.571-9.537v-171.25c0-5.257-4.296-9.535-9.571-9.535H306.521z"/>
			</g>
			<path fill="#4F89BC" d="M319.394,181.239c-3.288,0-5.943-2.649-5.943-5.921v-44.819c0-3.268,2.655-5.919,5.943-5.919h61.048
				c3.279,0,5.943,2.651,5.943,5.919v44.819c0,3.272-2.664,5.921-5.943,5.921H319.394z"/>
			<rect x="375.852" y="194.723" fill="#4F89BC" width="6.96" height="40.546"/>
			<rect x="343.687" y="194.723" fill="#4F89BC" width="3.857" height="80.367"/>
			<rect x="317.014" y="194.723" fill="#4F89BC" width="3.854" height="60.224"/>
			<rect x="330.32" y="194.723" fill="#4F89BC" width="3.862" height="83.13"/>
			<rect x="356.749" y="194.723" fill="#4F89BC" width="3.871" height="83.13"/>
			<g>
				<path fill="#FFFFFF" d="M341.292,168.844c2.71-8.311,2.304-8.457,4.473-8.662c2.177-0.205,3.532,0,3.532,0v-9.528l0,0v-5.016
					c0,0-1.355,0.205-3.532,0c-2.169-0.2-1.763-0.353-4.473-8.664c-2.72-8.315-7.742-8.648-8.961-8.648c-1.211,0-6.848,0-6.848,0
					c-6.921,9.866-6.541,20.623-6.541,20.623c0,5.743,0,7.516,0,7.921c0,0-0.38,10.761,6.541,20.623c0,0,5.637,0,6.848,0
					C333.55,177.492,338.572,177.159,341.292,168.844z"/>
				<g>
					<path fill="#4F89BC" d="M366.027,166.514c0-0.508-0.361-0.859-0.361-0.859s-1.518-0.751-2.517-1.238
						c9.734-0.783,14.535-9.985,14.535-11.544c0-1.558-4.805-10.771-14.544-11.545c0.989-0.479,2.525-1.242,2.525-1.242
						s0.361-0.355,0.361-0.862c0-0.504-0.312-0.884-1.771-0.632c-1.423,0.25-3.315,0.707-5.014,2.795
						c-8.893,0.783-13.289,5.644-13.289,11.486c0,5.851,4.4,10.705,13.289,11.486c1.708,2.084,3.591,2.539,5.014,2.791
						C365.716,167.401,366.027,167.019,366.027,166.514z"/>
					<path fill="#4F89BC" d="M345.565,152.873c0-6.54,5.154-11.079,13.469-11.867c1.662-1.958,3.456-2.507,5.159-2.806
						c0.922-0.16,1.522-0.092,1.884,0.203c0.23,0.196,0.338,0.473,0.338,0.821c0,0.653-0.406,1.094-0.469,1.136l-0.046,0.047
						l-0.05,0.032c0,0-0.627,0.306-1.337,0.659c9.021,1.472,13.569,10.046,13.569,11.774c0,1.732-4.549,10.295-13.556,11.774
						c0.705,0.347,1.323,0.657,1.323,0.657l0.05,0.027l0.046,0.043c0.063,0.052,0.469,0.486,0.469,1.141
						c0,0.349-0.107,0.626-0.338,0.824c-0.361,0.302-0.962,0.365-1.884,0.203c-1.703-0.297-3.487-0.839-5.154-2.797
						C350.729,163.96,345.565,159.421,345.565,152.873z M365.625,139.224c0-0.158-0.045-0.198-0.067-0.209
						c-0.063-0.049-0.312-0.189-1.237-0.031c-1.581,0.274-3.248,0.788-4.775,2.658l-0.112,0.128l-0.168,0.013
						c-7.968,0.702-12.904,4.951-12.904,11.09c0,6.141,4.946,10.392,12.918,11.094l0.168,0.014l0.107,0.128
						c1.519,1.863,3.194,2.37,4.767,2.648c0.926,0.16,1.174,0.018,1.237-0.034c0.022-0.009,0.067-0.047,0.067-0.209
						c0-0.248-0.14-0.455-0.207-0.535c-0.313-0.158-1.581-0.783-2.439-1.204l-1.301-0.637l1.44-0.112
						c9.63-0.779,14.17-9.992,14.17-11.153c0-1.159-4.54-10.377-14.179-11.146l-1.454-0.115l1.31-0.639
						c0.867-0.421,2.141-1.053,2.453-1.21C365.485,139.678,365.625,139.476,365.625,139.224z"/>
				</g>
				<path fill="#FFFFFF" d="M379.257,158.332c0,0,1.799-2.151,1.799-5.228c0-3.079-2.444-10.163-6.319-12.451
					c-3.881-2.295-11.135-3.583-15.439-3.439c-4.323,0.144-8.186,0.86-10.922,2.721c0,0,1.363-0.213,2.736-0.213
					c0,0-2.316,0.904-3.951,2.486c0,0,0.867-0.241,1.792-0.358c0,0-3.242,1.404-3.626,5.5c0,0,1.567-2.088,2.683-2.468
					c0,0-1.115,1.008-1.449,2.887c0,0,2.922-2.568,6.738-4.175c3.804-1.606,6.677-0.713,7.48,0.581
					c0.805,1.292,2.371,5.984,3.049,7.184c0,0-1.251-0.446-1.978-1.697c0,0,0.916,8.63,9.458,9.884c0,0-4.062,4.586-10.634,4.586
					c-6.571,0-10.162-4.17-10.936-5.658c0,0-0.356,0.772-0.054,1.901c0,0-3.107-1.305-4.065-3.81c0,0,0.592,2.728,2.074,4.58
					c0,0-1.147,0.112-2.038-0.646c0,0,2.769,5.176,9.342,7.023c6.572,1.845,11.292,0.95,16.129-0.95
					C375.964,164.665,380.526,161.635,379.257,158.332z"/>
			</g>
		</g>
		<path fill="#4F89BC" d="M456.131,202.753c10.859,0,19.667,8.772,19.667,19.596v143.099c0,10.825-8.808,19.597-19.667,19.597
			H248.903c-10.859,0-19.667-8.771-19.667-19.597V222.349c0-10.824,8.808-19.596,19.667-19.596H456.131z"/>
		<path fill="#FFFFFF" d="M316.078,273.604c0-5.554-4.521-10.063-10.1-10.063h-7.791c-5.574,0-10.101,4.51-10.101,10.063v7.769
			c0,5.554,4.526,10.063,10.101,10.063h7.791c5.579,0,10.1-4.51,10.1-10.063V273.604z"/>
		<path fill="#FFFFFF" d="M411.4,273.604c0-5.554-4.526-10.063-10.101-10.063h-7.797c-5.573,0-10.1,4.51-10.1,10.063v7.769
			c0,5.554,4.526,10.063,10.1,10.063h7.797c5.574,0,10.101-4.51,10.101-10.063V273.604z"/>
		<path fill="#FFFFFF" d="M316.078,311.016c0-5.554-4.521-10.063-10.1-10.063h-7.791c-5.574,0-10.101,4.51-10.101,10.063v7.769
			c0,5.554,4.526,10.063,10.101,10.063h7.791c5.579,0,10.1-4.51,10.1-10.063V311.016z"/>
		<path fill="#FFFFFF" d="M363.742,311.016c0-5.554-4.522-10.063-10.104-10.063h-7.788c-5.582,0-10.104,4.51-10.104,10.063v7.769
			c0,5.554,4.522,10.063,10.104,10.063h7.788c5.582,0,10.104-4.51,10.104-10.063V311.016z"/>
		<path fill="#FFFFFF" d="M411.4,311.016c0-5.554-4.526-10.063-10.101-10.063h-7.797c-5.573,0-10.1,4.51-10.1,10.063v7.769
			c0,5.554,4.526,10.063,10.1,10.063h7.797c5.574,0,10.101-4.51,10.101-10.063V311.016z"/>
		<path fill="#FFFFFF" d="M316.078,348.427c0-5.559-4.521-10.064-10.1-10.064h-7.791c-5.574,0-10.101,4.506-10.101,10.064v7.759
			c0,5.563,4.526,10.073,10.101,10.073h7.791c5.579,0,10.1-4.51,10.1-10.073V348.427z"/>
		<path fill="#FFFFFF" d="M363.742,348.427c0-5.559-4.522-10.064-10.104-10.064h-7.788c-5.582,0-10.104,4.506-10.104,10.064v7.759
			c0,5.563,4.522,10.073,10.104,10.073h7.788c5.582,0,10.104-4.51,10.104-10.073V348.427z"/>
		<path fill="#FFFFFF" d="M411.4,348.427c0-5.559-4.526-10.064-10.101-10.064h-7.797c-5.573,0-10.1,4.506-10.1,10.064v7.759
			c0,5.563,4.526,10.073,10.1,10.073h7.797c5.574,0,10.101-4.51,10.101-10.073V348.427z"/>
		<path fill="#FFFFFF" d="M411.774,220.751h-4.594h-18.162h-78.55h-18.163h-4.602c-6.577,0-11.917,4.667-11.917,10.429v8.038
			c0,5.761,5.34,10.424,11.917,10.424h4.602h18.163h78.55h18.162h4.594c6.586,0,11.926-4.663,11.926-10.424v-8.038
			C423.7,225.419,418.36,220.751,411.774,220.751z"/>
	</g>
	<g display="inline">
		<g>
			<path fill="#4F89BC" d="M344.617,267.016c10.867,0,19.666,8.776,19.666,19.597v143.081c0,10.824-8.799,19.597-19.666,19.597
				h-207.22c-10.868,0-19.667-8.772-19.667-19.597V286.612c0-10.82,8.799-19.597,19.667-19.597H344.617z"/>
			<path fill="#FFFFFF" d="M344.617,267.016c10.867,0,19.666,8.776,19.666,19.597v143.081c0,10.824-8.799,19.597-19.666,19.597
				h-207.22c-10.868,0-19.667-8.772-19.667-19.597V286.612c0-10.82,8.799-19.597,19.667-19.597H344.617 M344.617,262.406h-207.22
				c-13.395,0-24.292,10.861-24.292,24.206v143.081c0,13.345,10.897,24.205,24.292,24.205h207.22
				c13.393,0,24.291-10.86,24.291-24.205V286.612C368.908,273.268,358.01,262.406,344.617,262.406L344.617,262.406z"/>
		</g>
		<g>
			<path fill="#FFFFFF" d="M344.125,391.733c0,6.886-5.611,12.477-12.53,12.477H150.42c-6.92,0-12.53-5.591-12.53-12.477v-90.61
				c0-6.896,5.61-12.477,12.53-12.477h181.175c6.919,0,12.53,5.581,12.53,12.477V391.733z"/>
			<path fill="#4F89BC" d="M331.595,406.514H150.42c-8.185,0-14.843-6.629-14.843-14.78v-90.61c0-8.151,6.658-14.781,14.843-14.781
				h181.175c8.185,0,14.842,6.63,14.842,14.781v90.61C346.437,399.885,339.779,406.514,331.595,406.514z M150.42,290.951
				c-5.635,0-10.217,4.563-10.217,10.172v90.61c0,5.608,4.583,10.172,10.217,10.172h181.175c5.633,0,10.217-4.563,10.217-10.172
				v-90.61c0-5.608-4.584-10.172-10.217-10.172H150.42z"/>
		</g>
		<path fill="#4F89BC" d="M214.732,378.222c0,3.438-2.801,6.238-6.26,6.238h-47.419c-3.46,0-6.26-2.8-6.26-6.238v-64.137
			c0-3.438,2.8-6.238,6.26-6.238h47.419c3.459,0,6.26,2.8,6.26,6.238V378.222z"/>
		<rect x="228.997" y="311.601" fill="#4F89BC" width="42.902" height="7.31"/>
		<rect x="228.997" y="348.643" fill="#4F89BC" width="85.027" height="4.051"/>
		<rect x="228.997" y="376.665" fill="#4F89BC" width="63.716" height="4.05"/>
		<rect x="228.997" y="362.676" fill="#4F89BC" width="87.949" height="4.06"/>
		<rect x="228.997" y="334.906" fill="#4F89BC" width="87.949" height="4.06"/>
		<g>
			<path fill="#FFFFFF" d="M201.619,355.214c-8.794-2.854-8.948-2.422-9.165-4.699c-0.217-2.286,0-3.709,0-3.709h-10.082l0,0h-5.307
				c0,0,0.217,1.423,0,3.709c-0.212,2.277-0.371,1.846-9.165,4.699s-9.151,8.119-9.151,9.406c0,1.278,0,7.192,0,7.192
				c10.443,7.273,21.821,6.877,21.821,6.877c6.076,0,7.954,0,8.379,0c0,0,11.388,0.396,21.821-6.877c0,0,0-5.914,0-7.192
				C210.771,363.333,210.414,358.067,201.619,355.214z"/>
			<g>
				<path fill="#4F89BC" d="M199.153,329.235c-0.538,0-0.908,0.368-0.908,0.368s-0.794,1.603-1.31,2.646
					c-0.831-10.217-10.565-15.267-12.214-15.267s-11.392,5.05-12.214,15.276c-0.505-1.035-1.314-2.656-1.314-2.656
					s-0.375-0.368-0.908-0.368c-0.538,0-0.939,0.323-0.673,1.854c0.267,1.495,0.746,3.484,2.959,5.275
					c0.826,9.335,5.971,13.943,12.15,13.943c6.188,0,11.328-4.608,12.15-13.952c2.208-1.792,2.692-3.771,2.954-5.267
					C200.093,329.559,199.69,329.235,199.153,329.235z"/>
				<path fill="#4F89BC" d="M184.722,350.73c-6.92,0-11.722-5.419-12.553-14.159c-2.078-1.737-2.656-3.628-2.968-5.41
					c-0.171-0.981-0.1-1.603,0.212-1.98c0.203-0.243,0.497-0.36,0.872-0.36c0.687,0,1.156,0.441,1.202,0.496l0.045,0.045
					l0.036,0.054c0,0,0.326,0.657,0.696,1.404c1.559-9.47,10.628-14.259,12.458-14.259c1.829,0,10.895,4.78,12.458,14.24
					c0.37-0.737,0.691-1.386,0.691-1.386l0.031-0.054l0.045-0.045c0.055-0.055,0.515-0.496,1.207-0.496
					c0.37,0,0.664,0.117,0.872,0.36c0.316,0.378,0.384,0.999,0.217,1.98c-0.312,1.782-0.89,3.664-2.963,5.401
					C196.452,345.312,191.65,350.73,184.722,350.73z M170.285,329.649c-0.171,0-0.208,0.054-0.226,0.071
					c-0.054,0.063-0.198,0.324-0.031,1.297c0.289,1.665,0.835,3.42,2.81,5.022l0.14,0.117l0.009,0.171
					c0.745,8.362,5.239,13.565,11.735,13.565c6.5,0,10.994-5.203,11.739-13.574l0.014-0.171l0.135-0.117
					c1.97-1.603,2.507-3.349,2.801-5.014c0.171-0.973,0.018-1.233-0.036-1.297c-0.009-0.018-0.05-0.071-0.221-0.071
					c-0.267,0-0.479,0.144-0.565,0.216c-0.162,0.324-0.831,1.665-1.273,2.565l-0.673,1.368l-0.122-1.513
					c-0.822-10.117-10.57-14.889-11.798-14.889c-1.224,0-10.977,4.78-11.794,14.898l-0.122,1.521l-0.673-1.368
					c-0.447-0.909-1.116-2.259-1.278-2.583C170.764,329.793,170.552,329.649,170.285,329.649z"/>
			</g>
			<path fill="#FFFFFF" d="M190.494,315.336c0,0-2.272-1.89-5.529-1.89c-3.256,0-10.75,2.565-13.171,6.634
				c-2.426,4.078-3.785,11.693-3.636,16.221c0.154,4.528,0.908,8.606,2.877,11.469c0,0-0.226-1.432-0.226-2.862
				c0,0,0.958,2.43,2.633,4.141c0,0-0.257-0.919-0.379-1.882c0,0,1.482,3.412,5.813,3.808c0,0-2.208-1.647-2.61-2.817
				c0,0,1.066,1.17,3.053,1.521c0,0-2.715-3.069-4.417-7.075c-1.699-3.997-0.75-7.013,0.614-7.858
				c1.369-0.847,6.333-2.494,7.607-3.205c0,0-0.47,1.323-1.798,2.08c0,0,9.133-0.964,10.457-9.938c0,0,4.852,4.276,4.852,11.171
				c0,6.904-4.414,10.677-5.985,11.486c0,0,0.817,0.378,2.015,0.063c0,0-1.387,3.258-4.029,4.267c0,0,2.881-0.63,4.842-2.179
				c0,0,0.117,1.206-0.683,2.134c0,0,5.475-2.908,7.431-9.803c1.951-6.904,1.002-11.864-1.012-16.95
				C197.197,318.793,193.99,314.004,190.494,315.336z"/>
		</g>
		<path fill="#FFFFFF" d="M167.575,424.558c0-3.501-2.855-6.337-6.373-6.337h-4.915c-3.519,0-6.374,2.836-6.374,6.337v4.893
			c0,3.511,2.854,6.355,6.374,6.355h4.915c3.518,0,6.373-2.845,6.373-6.355V424.558z"/>
		<path fill="#FFFFFF" d="M193.593,424.558c0-3.501-2.854-6.337-6.374-6.337h-4.914c-3.519,0-6.374,2.836-6.374,6.337v4.893
			c0,3.511,2.855,6.355,6.374,6.355h4.914c3.519,0,6.374-2.845,6.374-6.355V424.558z"/>
	</g>
</g>
<g id="Ebene_2" display="none">
	<g display="inline">
		<g>
			<path fill="#FFFFFF" d="M194.203,323.432c-9.396,0-17.02-7.623-17.02-17.026V60.18c0-9.396,7.623-17.019,17.02-17.019h123.588
				c9.396,0,17.025,7.623,17.025,17.019v246.225c0,9.403-7.63,17.026-17.025,17.026H194.203z"/>
			<path fill="#4F89BC" d="M317.791,326.745H194.203c-11.215,0-20.333-9.125-20.333-20.34V60.18
				c0-11.214,9.118-20.333,20.333-20.333h123.588c11.214,0,20.339,9.118,20.339,20.333v246.225
				C338.13,317.62,329.005,326.745,317.791,326.745z M194.203,46.474c-7.559,0-13.706,6.148-13.706,13.706v246.225
				c0,7.559,6.147,13.713,13.706,13.713h123.588c7.558,0,13.712-6.154,13.712-13.713V60.18c0-7.558-6.154-13.706-13.712-13.706
				H194.203z"/>
		</g>
		<path fill="#4F89BC" d="M212.646,147.581c-4.711,0-8.516-3.805-8.516-8.51v-64.44c0-4.698,3.805-8.51,8.516-8.51h87.458
			c4.698,0,8.517,3.812,8.517,8.51v64.44c0,4.705-3.818,8.51-8.517,8.51H212.646z"/>
		<rect x="293.53" y="166.969" fill="#4F89BC" width="9.972" height="58.3"/>
		<rect x="247.448" y="166.969" fill="#4F89BC" width="5.526" height="115.551"/>
		<rect x="209.236" y="166.969" fill="#4F89BC" width="5.52" height="86.592"/>
		<rect x="228.3" y="166.969" fill="#4F89BC" width="5.532" height="119.531"/>
		<rect x="266.163" y="166.969" fill="#4F89BC" width="5.546" height="119.531"/>
		<g>
			<path fill="#FFFFFF" d="M244.019,129.759c3.883-11.946,3.3-12.153,6.406-12.451c3.119-0.298,5.061,0,5.061,0v-13.7l0,0v-7.215
				c0,0-1.941,0.298-5.061,0c-3.106-0.285-2.523-0.505-6.406-12.451c-3.896-11.959-11.092-12.438-12.839-12.438
				c-1.734,0-9.81,0-9.81,0c-9.914,14.185-9.371,29.651-9.371,29.651c0,8.257,0,10.807,0,11.39c0,0-0.543,15.473,9.371,29.651
				c0,0,8.076,0,9.81,0C232.927,142.197,240.123,141.718,244.019,129.759z"/>
			<g>
				<path fill="#4F89BC" d="M279.455,126.414c0-0.731-0.518-1.236-0.518-1.236s-2.175-1.081-3.604-1.78
					c13.945-1.126,20.824-14.359,20.824-16.599s-6.886-15.486-20.838-16.599c1.418-0.692,3.618-1.786,3.618-1.786
					s0.518-0.511,0.518-1.236c0-0.725-0.446-1.274-2.537-0.912c-2.038,0.356-4.75,1.016-7.183,4.019
					c-12.742,1.126-19.039,8.115-19.039,16.515c0,8.413,6.304,15.389,19.039,16.515c2.446,2.996,5.145,3.65,7.183,4.012
					C279.009,127.688,279.455,127.139,279.455,126.414z"/>
				<path fill="#4F89BC" d="M250.14,106.799c0-9.403,7.384-15.932,19.298-17.058c2.381-2.822,4.95-3.611,7.39-4.038
					c1.32-0.233,2.182-0.129,2.699,0.291c0.33,0.278,0.485,0.68,0.485,1.184c0,0.932-0.583,1.566-0.674,1.631l-0.064,0.065
					l-0.071,0.052c0,0-0.899,0.44-1.915,0.945c12.923,2.116,19.439,14.444,19.439,16.929c0,2.491-6.517,14.806-19.42,16.929
					c1.01,0.499,1.896,0.945,1.896,0.945l0.071,0.039l0.064,0.064c0.091,0.071,0.674,0.699,0.674,1.637
					c0,0.499-0.155,0.899-0.485,1.185c-0.518,0.434-1.379,0.524-2.699,0.291c-2.439-0.427-4.995-1.21-7.384-4.019
					C257.537,122.745,250.14,116.215,250.14,106.799z M278.879,87.178c0-0.233-0.064-0.285-0.097-0.304
					c-0.091-0.071-0.447-0.272-1.773-0.045c-2.265,0.395-4.653,1.132-6.84,3.818l-0.162,0.188l-0.239,0.02
					c-11.415,1.01-18.488,7.119-18.488,15.945s7.086,14.942,18.508,15.952l0.239,0.02l0.155,0.181
					c2.174,2.679,4.575,3.41,6.827,3.812c1.326,0.227,1.683,0.026,1.773-0.045c0.032-0.013,0.097-0.071,0.097-0.304
					c0-0.356-0.2-0.653-0.298-0.77c-0.446-0.227-2.265-1.126-3.494-1.734l-1.864-0.912l2.064-0.162
					c13.797-1.12,20.301-14.366,20.301-16.036s-6.504-14.923-20.313-16.023l-2.084-0.168l1.877-0.919
					c1.242-0.608,3.067-1.515,3.514-1.741C278.679,87.826,278.879,87.541,278.879,87.178z"/>
			</g>
			<path fill="#FFFFFF" d="M298.409,114.649c0,0,2.575-3.093,2.575-7.513c0-4.426-3.501-14.612-9.053-17.906
				c-5.559-3.3-15.952-5.151-22.119-4.944c-6.192,0.207-11.726,1.236-15.647,3.915c0,0,1.954-0.311,3.922-0.311
				c0,0-3.32,1.301-5.662,3.572c0,0,1.242-0.343,2.568-0.511c0,0-4.646,2.019-5.196,7.908c0,0,2.246-3.002,3.844-3.553
				c0,0-1.598,1.45-2.077,4.155c0,0,4.188-3.688,9.655-6.005c5.449-2.304,9.564-1.022,10.717,0.841
				c1.151,1.851,3.397,8.6,4.368,10.328c0,0-1.793-0.647-2.835-2.446c0,0,1.313,12.412,13.551,14.211c0,0-5.817,6.601-15.233,6.601
				c-9.415,0-14.56-5.999-15.667-8.141c0,0-0.511,1.113-0.077,2.737c0,0-4.452-1.876-5.824-5.481c0,0,0.848,3.921,2.971,6.587
				c0,0-1.645,0.162-2.919-0.932c0,0,3.967,7.442,13.383,10.102c9.415,2.653,16.178,1.365,23.108-1.366
				C293.691,123.754,300.228,119.399,298.409,114.649z"/>
		</g>
	</g>
	<path display="inline" fill="#4F89BC" d="M387.05,451.672c0,15.563-12.613,28.177-28.177,28.177H153.126
		c-15.563,0-28.176-12.613-28.176-28.177v-259.31c0-15.557,12.612-28.176,28.176-28.176h205.747
		c15.563,0,28.177,12.619,28.177,28.176V451.672z"/>
	<g display="inline">
		<path fill="#FFFFFF" d="M239.259,371.125c0.104-13.654,1.281-23.122,3.533-28.396c2.265-5.28,8.192-12.243,17.803-20.915
			c9.324-11.014,15.964-19.491,19.925-25.432c3.954-5.928,5.934-13.085,5.934-21.472c0-9.979-2.659-17.667-7.985-23.032
			c-5.326-5.364-12.923-8.057-22.817-8.057c-8.574,0-15.861,2.336-21.898,7.002c-6.039,4.659-9.042,11.506-9.042,20.553h-26.564
			l-0.42-0.842c-0.285-15.168,5.054-27.322,16.036-36.459c10.975-9.137,24.934-13.706,41.889-13.706
			c18.553,0,32.958,4.737,43.234,14.198c10.27,9.474,15.401,22.675,15.401,39.637c0,12.146-3.326,23.264-9.966,33.346
			c-6.64,10.076-15.428,20.385-26.351,30.933c-5.08,5.087-8.167,9.662-9.247,13.706c-1.094,4.052-1.625,10.367-1.625,18.936H239.259
			z M268.081,429.062H238.98v-29.398h29.101V429.062z"/>
	</g>
</g>
<g id="Ebene_3" display="none">
	<g display="inline">
		<g>
			<path fill="#FFFFFF" d="M193.685,323.715c-9.396,0-17.02-7.623-17.02-17.026V60.464c0-9.396,7.623-17.019,17.02-17.019h123.587
				c9.396,0,17.026,7.623,17.026,17.019v246.225c0,9.403-7.63,17.026-17.026,17.026H193.685z"/>
			<path fill="#4F89BC" d="M317.272,327.028H193.685c-11.215,0-20.333-9.125-20.333-20.34V60.464
				c0-11.214,9.118-20.333,20.333-20.333h123.587c11.215,0,20.34,9.118,20.34,20.333v246.225
				C337.612,317.903,328.487,327.028,317.272,327.028z M193.685,46.758c-7.559,0-13.706,6.148-13.706,13.706v246.225
				c0,7.559,6.147,13.713,13.706,13.713h123.587c7.559,0,13.713-6.154,13.713-13.713V60.464c0-7.558-6.154-13.706-13.713-13.706
				H193.685z"/>
		</g>
		<rect x="293.013" y="167.253" fill="#4F89BC" width="9.972" height="58.3"/>
		<rect x="246.931" y="167.253" fill="#4F89BC" width="5.526" height="115.551"/>
		<rect x="208.718" y="167.253" fill="#4F89BC" width="5.52" height="86.592"/>
		<rect x="227.782" y="167.253" fill="#4F89BC" width="5.533" height="119.53"/>
		<rect x="265.646" y="167.253" fill="#4F89BC" width="5.546" height="119.53"/>
	</g>
	<g display="inline">
		<path fill="#4F89BC" d="M204.706,165.104h7.125v0.932h-7.125V165.104z"/>
		<path fill="#4F89BC" d="M204.803,163.5c-0.091-0.557-0.149-1.223-0.149-1.955c0-1.32,0.317-2.258,0.886-2.886
			c0.583-0.647,1.404-1.009,2.563-1.009c1.152,0,2.109,0.362,2.763,1.022c0.667,0.673,1.029,1.773,1.029,3.158
			c0,0.673-0.032,1.204-0.084,1.67H204.803z M211.112,162.581c0.026-0.233,0.039-0.569,0.039-0.932c0-1.98-1.1-3.028-3.022-3.028
			c-1.676-0.013-2.75,0.938-2.75,2.886c0,0.479,0.045,0.828,0.104,1.074H211.112z"/>
		<path fill="#4F89BC" d="M204.803,156.458c-0.091-0.556-0.149-1.229-0.149-1.954c0-1.32,0.317-2.265,0.886-2.886
			c0.583-0.647,1.404-1.022,2.563-1.022c1.152,0,2.109,0.375,2.763,1.029c0.667,0.68,1.029,1.78,1.029,3.165
			c0,0.66-0.032,1.204-0.084,1.669H204.803z M211.112,155.54c0.026-0.233,0.039-0.569,0.039-0.932c0-1.98-1.1-3.035-3.022-3.035
			c-1.676-0.006-2.75,0.938-2.75,2.886c0,0.473,0.045,0.835,0.104,1.081H211.112z"/>
		<path fill="#4F89BC" d="M208.73,149.521l-2.53-4.905h0.731l2.077,4.129h0.013l2.077-4.129h0.731l-2.53,4.905H208.73z"/>
		<path fill="#4F89BC" d="M208.73,143.212l-2.53-4.905h0.731l2.077,4.135h0.013l2.077-4.135h0.731l-2.53,4.905H208.73z"/>
		<path fill="#4F89BC" d="M211.83,132.897l-1.579,0.925c-0.596,0.362-0.997,0.589-1.404,0.815v0.013
			c0.408,0.207,0.796,0.414,1.417,0.777l1.566,0.854v1.062l-3.598-2.188l-3.527,2.097v-1.061l1.669-0.945
			c0.473-0.266,0.822-0.466,1.197-0.654v-0.032c-0.421-0.194-0.738-0.375-1.197-0.647l-1.669-0.958v-1.068l3.475,2.162l3.649-2.22
			V132.897z"/>
		<path fill="#4F89BC" d="M211.83,127.021l-1.579,0.919c-0.596,0.369-0.997,0.595-1.404,0.822v0.013
			c0.408,0.208,0.796,0.415,1.417,0.777l1.566,0.854v1.062l-3.598-2.188l-3.527,2.097v-1.061l1.669-0.945
			c0.473-0.272,0.822-0.466,1.197-0.654v-0.032c-0.421-0.201-0.738-0.382-1.197-0.647l-1.669-0.958v-1.074l3.475,2.168l3.649-2.22
			V127.021z"/>
		<path fill="#4F89BC" d="M205.741,121.113v2.614l1.767,0.272c-0.026-0.155-0.039-0.311-0.039-0.563
			c0-0.537,0.104-1.055,0.375-1.482c0.291-0.537,0.899-0.984,1.76-0.984c1.333,0,2.343,1.074,2.343,2.563
			c0,0.751-0.207,1.372-0.42,1.708l-0.712-0.233c0.175-0.285,0.382-0.841,0.382-1.476c0-0.867-0.57-1.63-1.495-1.618
			c-0.886,0-1.508,0.595-1.508,1.967c0,0.401,0.039,0.706,0.065,0.958l-3.3-0.44v-3.287H205.741z"/>
		<path fill="#4F89BC" d="M211.83,115.561l-1.579,0.912c-0.596,0.369-0.997,0.596-1.404,0.822v0.013
			c0.408,0.207,0.796,0.414,1.417,0.776l1.566,0.854V120l-3.598-2.187l-3.527,2.097v-1.062l1.669-0.945
			c0.473-0.271,0.822-0.466,1.197-0.653v-0.033c-0.421-0.2-0.738-0.382-1.197-0.647l-1.669-0.958v-1.068l3.475,2.161l3.649-2.219
			V115.561z"/>
		<path fill="#4F89BC" d="M211.83,109.671l-1.579,0.919c-0.596,0.375-0.997,0.595-1.404,0.815v0.026
			c0.408,0.194,0.796,0.414,1.417,0.764l1.566,0.854v1.062l-3.598-2.174l-3.527,2.09v-1.068l1.669-0.932
			c0.473-0.271,0.822-0.479,1.197-0.66v-0.039c-0.421-0.194-0.738-0.375-1.197-0.634l-1.669-0.971v-1.061l3.475,2.161l3.649-2.22
			V109.671z"/>
		<path fill="#4F89BC" d="M211.83,103.795l-1.579,0.919c-0.596,0.375-0.997,0.596-1.404,0.815v0.02
			c0.408,0.201,0.796,0.42,1.417,0.77l1.566,0.854v1.061l-3.598-2.174l-3.527,2.084v-1.062l1.669-0.932
			c0.473-0.272,0.822-0.479,1.197-0.66v-0.039c-0.421-0.194-0.738-0.375-1.197-0.634l-1.669-0.971v-1.061l3.475,2.161l3.649-2.226
			V103.795z"/>
		<path fill="#4F89BC" d="M208.73,101.764l-2.53-4.905h0.731l2.077,4.129h0.013l2.077-4.129h0.731l-2.53,4.905H208.73z"/>
		<path fill="#4F89BC" d="M208.73,95.46l-2.53-4.905h0.731l2.077,4.128h0.013l2.077-4.128h0.731l-2.53,4.905H208.73z"/>
		<path fill="#4F89BC" d="M208.73,89.151l-2.53-4.905h0.731l2.077,4.135h0.013l2.077-4.135h0.731l-2.53,4.905H208.73z"/>
		<path fill="#4F89BC" d="M208.73,82.842l-2.53-4.905h0.731l2.077,4.135h0.013l2.077-4.135h0.731l-2.53,4.905H208.73z"/>
		<path fill="#4F89BC" d="M208.73,76.539l-2.53-4.905h0.731l2.077,4.129h0.013l2.077-4.129h0.731l-2.53,4.905H208.73z"/>
		<path fill="#4F89BC" d="M208.73,70.236l-2.53-4.905h0.731l2.077,4.128h0.013l2.077-4.128h0.731l-2.53,4.905H208.73z"/>
		<path fill="#4F89BC" d="M208.73,63.933l-2.53-4.918h0.731l2.077,4.142h0.013l2.077-4.142h0.731l-2.53,4.918H208.73z"/>
		<path fill="#4F89BC" d="M208.73,57.623l-2.53-4.912h0.731l2.077,4.129h0.013l2.077-4.129h0.731l-2.53,4.912H208.73z"/>
		<path fill="#4F89BC" d="M208.73,51.314l-2.53-4.905h0.731l2.077,4.128h0.013l2.077-4.128h0.731l-2.53,4.905H208.73z"/>
		<path fill="#4F89BC" d="M221.427,166.133l-2.53-4.905h0.738l2.058,4.135h0.026l2.071-4.135h0.731l-2.524,4.905H221.427z"/>
		<path fill="#4F89BC" d="M221.02,155.475c2.33,0,3.624,0.867,3.624,2.381c0,1.346-1.269,2.265-3.534,2.291
			c-2.316,0-3.579-1.01-3.579-2.401C217.531,156.303,218.826,155.475,221.02,155.475z M221.123,159.203
			c1.78,0,2.795-0.544,2.795-1.398c0-0.938-1.106-1.385-2.86-1.385c-1.695,0-2.808,0.414-2.808,1.385
			C218.25,158.62,219.253,159.203,221.123,159.203z"/>
		<path fill="#4F89BC" d="M221.02,150.046c2.33,0,3.624,0.874,3.624,2.388c0,1.346-1.269,2.265-3.534,2.278
			c-2.316,0-3.579-0.997-3.579-2.395C217.531,150.88,218.826,150.046,221.02,150.046z M221.123,153.78
			c1.78,0,2.795-0.557,2.795-1.398c0-0.945-1.106-1.398-2.86-1.398c-1.695,0-2.808,0.427-2.808,1.398
			C218.25,153.184,219.253,153.78,221.123,153.78z"/>
		<path fill="#4F89BC" d="M221.02,144.616c2.33,0,3.624,0.874,3.624,2.381c0,1.346-1.269,2.265-3.534,2.291
			c-2.316,0-3.579-1.003-3.579-2.395C217.531,145.445,218.826,144.616,221.02,144.616z M221.123,148.344
			c1.78,0,2.795-0.543,2.795-1.398c0-0.932-1.106-1.385-2.86-1.385c-1.695,0-2.808,0.414-2.808,1.385
			C218.25,147.761,219.253,148.344,221.123,148.344z"/>
		<path fill="#4F89BC" d="M221.02,139.193c2.33,0,3.624,0.867,3.624,2.381c0,1.346-1.269,2.265-3.534,2.285
			c-2.316,0-3.579-1.003-3.579-2.401C217.531,140.021,218.826,139.193,221.02,139.193z M221.123,142.921
			c1.78,0,2.795-0.55,2.795-1.398c0-0.945-1.106-1.398-2.86-1.398c-1.695,0-2.808,0.427-2.808,1.398
			C218.25,142.326,219.253,142.921,221.123,142.921z"/>
		<path fill="#4F89BC" d="M221.02,133.757c2.33,0,3.624,0.88,3.624,2.395c0,1.333-1.269,2.252-3.534,2.278
			c-2.316,0-3.579-1.003-3.579-2.395C217.531,134.592,218.826,133.757,221.02,133.757z M221.123,137.485
			c1.78,0,2.795-0.543,2.795-1.391c0-0.938-1.106-1.392-2.86-1.392c-1.695,0-2.808,0.427-2.808,1.392
			C218.25,136.902,219.253,137.485,221.123,137.485z"/>
		<path fill="#4F89BC" d="M221.02,128.334c2.33,0,3.624,0.874,3.624,2.381c0,1.346-1.269,2.265-3.534,2.285
			c-2.316,0-3.579-1.003-3.579-2.401C217.531,129.163,218.826,128.334,221.02,128.334z M221.123,132.062
			c1.78,0,2.795-0.543,2.795-1.398c0-0.932-1.106-1.397-2.86-1.397c-1.695,0-2.808,0.427-2.808,1.397
			C218.25,131.467,219.253,132.062,221.123,132.062z"/>
		<path fill="#4F89BC" d="M221.427,127.26l-2.53-4.905h0.738l2.058,4.129h0.026l2.071-4.129h0.731l-2.524,4.905H221.427z"/>
		<path fill="#4F89BC" d="M221.02,116.596c2.33,0,3.624,0.88,3.624,2.395c0,1.333-1.269,2.258-3.534,2.278
			c-2.316,0-3.579-1.003-3.579-2.395C217.531,117.431,218.826,116.596,221.02,116.596z M221.123,120.323
			c1.78,0,2.795-0.543,2.795-1.385c0-0.945-1.106-1.398-2.86-1.398c-1.695,0-2.808,0.427-2.808,1.398
			C218.25,119.741,219.253,120.323,221.123,120.323z"/>
		<path fill="#4F89BC" d="M221.02,111.173c2.33,0,3.624,0.867,3.624,2.381c0,1.346-1.269,2.265-3.534,2.284
			c-2.316,0-3.579-1.003-3.579-2.4C217.531,112.001,218.826,111.173,221.02,111.173z M221.123,114.9c1.78,0,2.795-0.55,2.795-1.398
			c0-0.938-1.106-1.391-2.86-1.391c-1.695,0-2.808,0.42-2.808,1.391C218.25,114.312,219.253,114.9,221.123,114.9z"/>
		<path fill="#4F89BC" d="M221.02,105.744c2.33,0,3.624,0.874,3.624,2.388c0,1.339-1.269,2.258-3.534,2.278
			c-2.316,0-3.579-1.003-3.579-2.395C217.531,106.572,218.826,105.744,221.02,105.744z M221.123,109.471
			c1.78,0,2.795-0.55,2.795-1.391c0-0.945-1.106-1.398-2.86-1.398c-1.695,0-2.808,0.427-2.808,1.398
			C218.25,108.882,219.253,109.471,221.123,109.471z"/>
		<path fill="#4F89BC" d="M221.02,100.314c2.33,0,3.624,0.874,3.624,2.381c0,1.346-1.269,2.265-3.534,2.291
			c-2.316,0-3.579-1.01-3.579-2.395C217.531,101.143,218.826,100.314,221.02,100.314z M221.123,104.042
			c1.78,0,2.795-0.543,2.795-1.398c0-0.932-1.106-1.385-2.86-1.385c-1.695,0-2.808,0.414-2.808,1.385
			C218.25,103.453,219.253,104.042,221.123,104.042z"/>
		<path fill="#4F89BC" d="M221.02,94.885c2.33,0,3.624,0.874,3.624,2.388c0,1.34-1.269,2.265-3.534,2.278
			c-2.316,0-3.579-0.997-3.579-2.394C217.531,95.719,218.826,94.885,221.02,94.885z M221.123,98.612c1.78,0,2.795-0.55,2.795-1.392
			c0-0.945-1.106-1.397-2.86-1.397c-1.695,0-2.808,0.427-2.808,1.397C218.25,98.023,219.253,98.612,221.123,98.612z"/>
		<path fill="#4F89BC" d="M221.02,89.455c2.33,0,3.624,0.874,3.624,2.388c0,1.339-1.269,2.258-3.534,2.284
			c-2.316,0-3.579-1.003-3.579-2.394C217.531,90.284,218.826,89.455,221.02,89.455z M221.123,93.183c1.78,0,2.795-0.543,2.795-1.385
			c0-0.945-1.106-1.398-2.86-1.398c-1.695,0-2.808,0.421-2.808,1.398C218.25,92.6,219.253,93.183,221.123,93.183z"/>
		<path fill="#4F89BC" d="M221.02,84.032c2.33,0,3.624,0.867,3.624,2.381c0,1.346-1.269,2.265-3.534,2.285
			c-2.316,0-3.579-1.003-3.579-2.401C217.531,84.861,218.826,84.032,221.02,84.032z M221.123,87.76c1.78,0,2.795-0.543,2.795-1.398
			c0-0.938-1.106-1.391-2.86-1.391c-1.695,0-2.808,0.42-2.808,1.391C218.25,87.171,219.253,87.76,221.123,87.76z"/>
		<path fill="#4F89BC" d="M221.427,82.958l-2.53-4.912h0.738l2.058,4.135h0.026l2.071-4.135h0.731l-2.524,4.912H221.427z"/>
		<path fill="#4F89BC" d="M221.427,76.649l-2.53-4.912h0.738l2.058,4.142h0.026l2.071-4.142h0.731l-2.524,4.912H221.427z"/>
		<path fill="#4F89BC" d="M221.427,70.339l-2.53-4.905h0.738l2.058,4.128h0.026l2.071-4.128h0.731l-2.524,4.905H221.427z"/>
		<path fill="#4F89BC" d="M221.427,64.036l-2.53-4.905h0.738l2.058,4.129h0.026l2.071-4.129h0.731l-2.524,4.905H221.427z"/>
		<path fill="#4F89BC" d="M221.427,57.733l-2.53-4.905h0.738l2.058,4.128h0.026l2.071-4.128h0.731l-2.524,4.905H221.427z"/>
		<path fill="#4F89BC" d="M221.02,47.068c2.33,0,3.624,0.874,3.624,2.382c0,1.346-1.269,2.265-3.534,2.291
			c-2.316,0-3.579-1.003-3.579-2.401C217.531,47.897,218.826,47.068,221.02,47.068z M221.123,50.796c1.78,0,2.795-0.543,2.795-1.391
			c0-0.938-1.106-1.392-2.86-1.392c-1.695,0-2.808,0.415-2.808,1.392C218.25,50.213,219.253,50.796,221.123,50.796z"/>
		<path fill="#4F89BC" d="M234.085,160.024c-0.996,0.052-2.193,0.11-3.067,0.11v0.026c0.815,0.259,1.715,0.543,2.705,0.893
			l3.449,1.269v0.699l-3.391,1.152c-1.01,0.35-1.923,0.621-2.764,0.815v0.026c0.887,0.026,2.064,0.071,3.151,0.143l3.048,0.181v0.88
			l-7.118-0.492v-1.178l3.437-1.217c0.88-0.297,1.656-0.531,2.407-0.718v-0.02c-0.725-0.194-1.508-0.446-2.407-0.764l-3.437-1.268
			v-1.171l7.118-0.446v0.906L234.085,160.024z"/>
		<path fill="#4F89BC" d="M230.099,156.601h4.22c1.585,0,2.265-0.712,2.265-1.657c0-1.048-0.699-1.734-2.265-1.734h-4.22v-0.932
			h4.161c2.188,0,3.074,1.152,3.074,2.692c0,1.462-0.822,2.563-3.049,2.563h-4.187V156.601z"/>
		<path fill="#4F89BC" d="M236.098,150.796c0.266-0.421,0.466-1.01,0.466-1.637c0-0.945-0.498-1.501-1.223-1.501
			c-0.647,0-1.042,0.388-1.404,1.346c-0.428,1.165-1.036,1.89-2.026,1.89c-1.112,0-1.935-0.926-1.935-2.311
			c0-0.718,0.168-1.249,0.343-1.56l0.758,0.246c-0.136,0.22-0.344,0.699-0.344,1.346c0,0.977,0.589,1.346,1.068,1.346
			c0.673,0,0.996-0.44,1.378-1.423c0.46-1.204,1.042-1.799,2.091-1.799c1.106,0,2.064,0.803,2.064,2.479
			c0,0.692-0.214,1.443-0.46,1.818L236.098,150.796z"/>
		<path fill="#4F89BC" d="M230.875,144.111v2.162h-0.776v-5.268h0.776v2.174h6.342v0.932H230.875z"/>
		<path fill="#4F89BC" d="M233.871,136.527v2.757h2.576v-3.081h0.77v4.012h-7.118v-3.857h0.764v2.925h2.252v-2.757H233.871z"/>
		<path fill="#4F89BC" d="M230.183,135c-0.077-0.466-0.143-1.152-0.143-1.767c0-0.99,0.188-1.631,0.583-2.064
			c0.317-0.35,0.809-0.557,1.358-0.557c0.933,0,1.554,0.596,1.813,1.333h0.032c0.188-0.543,0.692-0.867,1.43-1.042
			c0.997-0.227,1.683-0.395,1.961-0.55v0.958c-0.213,0.116-0.815,0.271-1.702,0.466c-0.983,0.207-1.346,0.595-1.385,1.437v0.861
			h3.087V135H230.183z M233.432,134.075v-0.938c0-0.983-0.544-1.605-1.353-1.605c-0.919,0-1.327,0.66-1.327,1.631
			c0,0.453,0.039,0.757,0.078,0.913H233.432z"/>
		<path fill="#4F89BC" d="M234.124,129.409l-2.53-4.905h0.731l2.07,4.129h0.02l2.077-4.129h0.725l-2.523,4.905H234.124z"/>
		<path fill="#4F89BC" d="M234.124,123.106l-2.53-4.905h0.731l2.07,4.128h0.02l2.077-4.128h0.725l-2.523,4.905H234.124z"/>
		<path fill="#4F89BC" d="M234.085,110.694c-0.996,0.045-2.193,0.11-3.067,0.11v0.019c0.815,0.259,1.715,0.544,2.705,0.893
			l3.449,1.269v0.699l-3.391,1.158c-1.01,0.343-1.923,0.615-2.764,0.815v0.02c0.887,0.026,2.064,0.078,3.151,0.143l3.048,0.181v0.88
			l-7.118-0.492v-1.178l3.437-1.217c0.88-0.297,1.656-0.53,2.407-0.718v-0.02c-0.725-0.194-1.508-0.44-2.407-0.757l-3.437-1.275
			v-1.165l7.118-0.453v0.906L234.085,110.694z"/>
		<path fill="#4F89BC" d="M234.972,107.135l2.245,0.744v0.951l-7.118-2.433v-1.1l7.118-2.433v0.983l-2.245,0.764V107.135z
			 M234.26,104.792l-2.052,0.706c-0.472,0.162-0.887,0.265-1.301,0.369v0.026c0.414,0.104,0.854,0.208,1.281,0.356l2.071,0.699
			V104.792z"/>
		<path fill="#4F89BC" d="M237.217,98.062l-1.579,0.925c-0.595,0.369-0.99,0.589-1.404,0.815v0.02
			c0.414,0.207,0.796,0.414,1.418,0.77l1.565,0.861v1.055l-3.604-2.181l-3.514,2.097v-1.068l1.663-0.938
			c0.466-0.271,0.822-0.472,1.204-0.66v-0.026c-0.428-0.207-0.751-0.382-1.204-0.647l-1.663-0.964v-1.067l3.462,2.161l3.656-2.213
			V98.062z"/>
		<path fill="#4F89BC" d="M234.124,96.037l-2.53-4.912h0.731l2.07,4.142h0.02l2.077-4.142h0.725l-2.523,4.912H234.124z"/>
		<path fill="#4F89BC" d="M234.124,89.727l-2.53-4.905h0.731l2.07,4.129h0.02l2.077-4.129h0.725l-2.523,4.905H234.124z"/>
		<path fill="#4F89BC" d="M234.124,83.424l-2.53-4.905h0.731l2.07,4.128h0.02l2.077-4.128h0.725l-2.523,4.905H234.124z"/>
		<path fill="#4F89BC" d="M234.124,77.121l-2.53-4.905h0.731l2.07,4.129h0.02l2.077-4.129h0.725l-2.523,4.905H234.124z"/>
		<path fill="#4F89BC" d="M234.124,70.812l-2.53-4.905h0.731l2.07,4.135h0.02l2.077-4.135h0.725l-2.523,4.905H234.124z"/>
		<path fill="#4F89BC" d="M234.124,64.502l-2.53-4.905h0.731l2.07,4.128h0.02l2.077-4.128h0.725l-2.523,4.905H234.124z"/>
		<path fill="#4F89BC" d="M234.124,58.199l-2.53-4.905h0.731l2.07,4.128h0.02l2.077-4.128h0.725l-2.523,4.905H234.124z"/>
		<path fill="#4F89BC" d="M234.124,51.896l-2.53-4.905h0.731l2.07,4.129h0.02l2.077-4.129h0.725l-2.523,4.905H234.124z"/>
	</g>
	<path display="inline" fill="#4F89BC" d="M386.535,451.955c0,15.563-12.613,28.177-28.176,28.177H152.612
		c-15.563,0-28.176-12.613-28.176-28.177V192.646c0-15.557,12.612-28.176,28.176-28.176h205.748
		c15.563,0,28.176,12.619,28.176,28.176V451.955z"/>
	<g display="inline">
		<path fill="#FFFFFF" d="M236.861,371.408c0.104-13.654,1.281-23.122,3.533-28.396c2.265-5.28,8.192-12.243,17.803-20.915
			c9.324-11.014,15.964-19.491,19.925-25.432c3.954-5.928,5.934-13.085,5.934-21.472c0-9.979-2.659-17.667-7.985-23.031
			c-5.325-5.364-12.923-8.057-22.817-8.057c-8.574,0-15.861,2.336-21.898,7.002c-6.038,4.659-9.041,11.506-9.041,20.553h-26.565
			l-0.42-0.842c-0.285-15.168,5.054-27.321,16.036-36.459c10.976-9.137,24.934-13.706,41.889-13.706
			c18.553,0,32.958,4.737,43.234,14.198c10.27,9.474,15.401,22.675,15.401,39.637c0,12.146-3.326,23.264-9.966,33.346
			c-6.64,10.076-15.427,20.385-26.351,30.933c-5.08,5.087-8.167,9.662-9.247,13.706c-1.094,4.052-1.625,10.367-1.625,18.936H236.861
			z M265.685,429.345h-29.102v-29.398h29.102V429.345z"/>
	</g>
</g>
<g id="Ebene_4" display="none">
	<g display="inline">
		<g>
			<path fill="#FFFFFF" d="M194.2,323.153c-9.396,0-17.019-7.616-17.019-17.02V59.905c0-9.396,7.623-17.02,17.019-17.02h123.587
				c9.396,0,17.025,7.623,17.025,17.02v246.229c0,9.403-7.629,17.02-17.025,17.02H194.2z"/>
			<path fill="#4F89BC" d="M317.787,326.467H194.2c-11.211,0-20.333-9.118-20.333-20.333V59.905
				c0-11.215,9.121-20.333,20.333-20.333h123.587c11.215,0,20.339,9.118,20.339,20.333v246.229
				C338.126,317.349,329.002,326.467,317.787,326.467z M194.2,46.199c-7.558,0-13.706,6.147-13.706,13.706v246.229
				c0,7.559,6.148,13.706,13.706,13.706h123.587c7.559,0,13.713-6.147,13.713-13.706V59.905c0-7.559-6.154-13.706-13.713-13.706
				H194.2z"/>
		</g>
		<rect x="293.526" y="166.699" fill="#4F89BC" width="9.972" height="58.299"/>
		<rect x="247.445" y="185.485" fill="#4F89BC" width="5.526" height="115.549"/>
		<polygon fill="#4F89BC" points="209.232,272.076 209.232,166.699 214.752,185.485 214.752,272.076 		"/>
		<rect x="228.297" y="185.485" fill="#4F89BC" width="5.533" height="119.53"/>
		<rect x="266.16" y="185.485" fill="#4F89BC" width="5.545" height="119.53"/>
	</g>
	<g display="inline">
		<path fill="#4F89BC" d="M205.22,164.55h7.125v0.925h-7.125V164.55z"/>
		<path fill="#4F89BC" d="M205.317,162.946c-0.091-0.563-0.149-1.223-0.149-1.955c0-1.327,0.317-2.258,0.887-2.886
			c0.583-0.647,1.404-1.016,2.563-1.016c1.152,0,2.11,0.369,2.763,1.022c0.667,0.679,1.029,1.779,1.029,3.164
			c0,0.667-0.032,1.204-0.084,1.67H205.317z M211.627,162.02c0.026-0.226,0.039-0.563,0.039-0.925c0-1.98-1.1-3.035-3.022-3.035
			c-1.676-0.007-2.75,0.944-2.75,2.893c0,0.472,0.045,0.828,0.104,1.067H211.627z"/>
		<path fill="#4F89BC" d="M205.317,155.898c-0.091-0.557-0.149-1.223-0.149-1.954c0-1.32,0.317-2.265,0.887-2.886
			c0.583-0.647,1.404-1.022,2.563-1.022c1.152,0,2.11,0.375,2.763,1.035c0.667,0.673,1.029,1.773,1.029,3.158
			c0,0.667-0.032,1.204-0.084,1.669H205.317z M211.627,154.979c0.026-0.233,0.039-0.569,0.039-0.932c0-1.98-1.1-3.029-3.022-3.029
			c-1.676-0.013-2.75,0.938-2.75,2.886c0,0.473,0.045,0.828,0.104,1.074H211.627z"/>
		<path fill="#4F89BC" d="M209.246,148.961l-2.53-4.905h0.731l2.077,4.128h0.013l2.077-4.128h0.731l-2.53,4.905H209.246z"/>
		<path fill="#4F89BC" d="M209.246,142.658l-2.53-4.905h0.731l2.077,4.128h0.013l2.077-4.128h0.731l-2.53,4.905H209.246z"/>
		<path fill="#4F89BC" d="M212.345,132.343l-1.579,0.919c-0.595,0.369-0.997,0.595-1.404,0.815v0.02
			c0.408,0.2,0.796,0.414,1.417,0.77l1.566,0.854v1.062l-3.598-2.181l-3.527,2.09v-1.061l1.669-0.938
			c0.473-0.266,0.822-0.473,1.197-0.654V134c-0.42-0.194-0.738-0.375-1.197-0.641l-1.669-0.964v-1.061l3.475,2.161l3.65-2.226
			V132.343z"/>
		<path fill="#4F89BC" d="M212.345,126.467l-1.579,0.919c-0.595,0.369-0.997,0.595-1.404,0.815v0.02
			c0.408,0.201,0.796,0.408,1.417,0.77l1.566,0.854v1.062l-3.598-2.181l-3.527,2.09v-1.061l1.669-0.945
			c0.473-0.266,0.822-0.466,1.197-0.647v-0.039c-0.42-0.194-0.738-0.375-1.197-0.641l-1.669-0.964v-1.068l3.475,2.168l3.65-2.226
			V126.467z"/>
		<path fill="#4F89BC" d="M206.256,120.553v2.621l1.767,0.266c-0.026-0.155-0.039-0.304-0.039-0.557
			c0-0.543,0.104-1.061,0.375-1.488c0.291-0.531,0.899-0.977,1.76-0.977c1.333,0,2.342,1.067,2.342,2.556
			c0,0.75-0.207,1.378-0.42,1.715l-0.712-0.233c0.175-0.285,0.382-0.848,0.382-1.482c0-0.861-0.569-1.631-1.495-1.618
			c-0.887,0-1.508,0.602-1.508,1.967c0,0.401,0.039,0.712,0.064,0.964l-3.3-0.447v-3.287H206.256z"/>
		<path fill="#4F89BC" d="M212.345,115l-1.579,0.919c-0.595,0.369-0.997,0.595-1.404,0.815v0.019
			c0.408,0.201,0.796,0.415,1.417,0.771l1.566,0.854v1.061l-3.598-2.181l-3.527,2.09v-1.062l1.669-0.938
			c0.473-0.272,0.822-0.473,1.197-0.654v-0.039c-0.42-0.194-0.738-0.375-1.197-0.641l-1.669-0.964v-1.062l3.475,2.162l3.65-2.226
			V115z"/>
		<path fill="#4F89BC" d="M212.345,109.118l-1.579,0.913c-0.595,0.375-0.997,0.595-1.404,0.815v0.026
			c0.408,0.201,0.796,0.415,1.417,0.771l1.566,0.854v1.061l-3.598-2.181l-3.527,2.097v-1.068l1.669-0.938
			c0.473-0.272,0.822-0.473,1.197-0.66v-0.032c-0.42-0.201-0.738-0.382-1.197-0.641l-1.669-0.971v-1.062l3.475,2.162l3.65-2.213
			V109.118z"/>
		<path fill="#4F89BC" d="M212.345,103.236l-1.579,0.919c-0.595,0.375-0.997,0.595-1.404,0.815v0.026
			c0.408,0.201,0.796,0.414,1.417,0.77l1.566,0.854v1.055l-3.598-2.174l-3.527,2.09v-1.068l1.669-0.932
			c0.473-0.272,0.822-0.479,1.197-0.66v-0.039c-0.42-0.194-0.738-0.375-1.197-0.634l-1.669-0.971v-1.062l3.475,2.162l3.65-2.22
			V103.236z"/>
		<path fill="#4F89BC" d="M209.246,101.204l-2.53-4.898h0.731l2.077,4.128h0.013l2.077-4.128h0.731l-2.53,4.898H209.246z"/>
		<path fill="#4F89BC" d="M209.246,94.901l-2.53-4.905h0.731l2.077,4.129h0.013l2.077-4.129h0.731l-2.53,4.905H209.246z"/>
		<path fill="#4F89BC" d="M209.246,88.598l-2.53-4.905h0.731l2.077,4.128h0.013l2.077-4.128h0.731l-2.53,4.905H209.246z"/>
		<path fill="#4F89BC" d="M209.246,82.289l-2.53-4.905h0.731l2.077,4.135h0.013l2.077-4.135h0.731l-2.53,4.905H209.246z"/>
		<path fill="#4F89BC" d="M209.246,75.979l-2.53-4.905h0.731l2.077,4.135h0.013l2.077-4.135h0.731l-2.53,4.905H209.246z"/>
		<path fill="#4F89BC" d="M209.246,69.676l-2.53-4.905h0.731l2.077,4.128h0.013l2.077-4.128h0.731l-2.53,4.905H209.246z"/>
		<path fill="#4F89BC" d="M209.246,63.373l-2.53-4.912h0.731l2.077,4.135h0.013l2.077-4.135h0.731l-2.53,4.912H209.246z"/>
		<path fill="#4F89BC" d="M209.246,57.07l-2.53-4.912h0.731l2.077,4.128h0.013l2.077-4.128h0.731l-2.53,4.912H209.246z"/>
		<path fill="#4F89BC" d="M209.246,50.761l-2.53-4.912h0.731l2.077,4.135h0.013l2.077-4.135h0.731l-2.53,4.912H209.246z"/>
		<path fill="#4F89BC" d="M221.942,165.58l-2.53-4.905h0.738l2.058,4.128h0.026l2.071-4.128h0.731l-2.524,4.905H221.942z"/>
		<path fill="#4F89BC" d="M221.534,154.915c2.33,0,3.624,0.874,3.624,2.388c0,1.339-1.269,2.265-3.533,2.284
			c-2.317,0-3.579-1.003-3.579-2.394C218.046,155.75,219.34,154.915,221.534,154.915z M221.638,158.642
			c1.78,0,2.795-0.543,2.795-1.391c0-0.938-1.106-1.392-2.86-1.392c-1.696,0-2.809,0.421-2.809,1.392
			C218.765,158.06,219.768,158.642,221.638,158.642z"/>
		<path fill="#4F89BC" d="M221.534,149.492c2.33,0,3.624,0.867,3.624,2.381c0,1.346-1.269,2.265-3.533,2.284
			c-2.317,0-3.579-1.003-3.579-2.401C218.046,150.32,219.34,149.492,221.534,149.492z M221.638,153.219
			c1.78,0,2.795-0.55,2.795-1.397c0-0.938-1.106-1.392-2.86-1.392c-1.696,0-2.809,0.421-2.809,1.392
			C218.765,152.63,219.768,153.219,221.638,153.219z"/>
		<path fill="#4F89BC" d="M221.534,144.063c2.33,0,3.624,0.874,3.624,2.381c0,1.346-1.269,2.265-3.533,2.285
			c-2.317,0-3.579-0.997-3.579-2.395C218.046,144.891,219.34,144.063,221.534,144.063z M221.638,147.79
			c1.78,0,2.795-0.55,2.795-1.398c0-0.938-1.106-1.391-2.86-1.391c-1.696,0-2.809,0.42-2.809,1.391
			C218.765,147.201,219.768,147.79,221.638,147.79z"/>
		<path fill="#4F89BC" d="M221.534,138.633c2.33,0,3.624,0.874,3.624,2.388c0,1.34-1.269,2.259-3.533,2.285
			c-2.317,0-3.579-1.01-3.579-2.401C218.046,139.461,219.34,138.633,221.534,138.633z M221.638,142.361
			c1.78,0,2.795-0.544,2.795-1.398c0-0.938-1.106-1.391-2.86-1.391c-1.696,0-2.809,0.427-2.809,1.391
			C218.765,141.772,219.768,142.361,221.638,142.361z"/>
		<path fill="#4F89BC" d="M221.534,133.204c2.33,0,3.624,0.874,3.624,2.388c0,1.339-1.269,2.258-3.533,2.278
			c-2.317,0-3.579-0.997-3.579-2.395C218.046,134.039,219.34,133.204,221.534,133.204z M221.638,136.931
			c1.78,0,2.795-0.55,2.795-1.391c0-0.945-1.106-1.398-2.86-1.398c-1.696,0-2.809,0.427-2.809,1.398
			C218.765,136.342,219.768,136.931,221.638,136.931z"/>
		<path fill="#4F89BC" d="M221.534,127.774c2.33,0,3.624,0.88,3.624,2.388c0,1.339-1.269,2.265-3.533,2.284
			c-2.317,0-3.579-1.003-3.579-2.401C218.046,128.603,219.34,127.774,221.534,127.774z M221.638,131.502
			c1.78,0,2.795-0.543,2.795-1.391c0-0.938-1.106-1.398-2.86-1.398c-1.696,0-2.809,0.427-2.809,1.398
			C218.765,130.913,219.768,131.502,221.638,131.502z"/>
		<path fill="#4F89BC" d="M221.942,126.7l-2.53-4.905h0.738l2.058,4.128h0.026l2.071-4.128h0.731l-2.524,4.905H221.942z"/>
		<path fill="#4F89BC" d="M221.534,116.042c2.33,0,3.624,0.874,3.624,2.388c0,1.339-1.269,2.265-3.533,2.278
			c-2.317,0-3.579-0.997-3.579-2.395C218.046,116.877,219.34,116.042,221.534,116.042z M221.638,119.77
			c1.78,0,2.795-0.55,2.795-1.391c0-0.945-1.106-1.398-2.86-1.398c-1.696,0-2.809,0.427-2.809,1.398
			C218.765,119.181,219.768,119.77,221.638,119.77z"/>
		<path fill="#4F89BC" d="M221.534,110.613c2.33,0,3.624,0.874,3.624,2.388c0,1.339-1.269,2.258-3.533,2.284
			c-2.317,0-3.579-1.009-3.579-2.401C218.046,111.441,219.34,110.613,221.534,110.613z M221.638,114.34
			c1.78,0,2.795-0.543,2.795-1.391c0-0.938-1.106-1.392-2.86-1.392c-1.696,0-2.809,0.421-2.809,1.392
			C218.765,113.758,219.768,114.34,221.638,114.34z"/>
		<path fill="#4F89BC" d="M221.534,105.19c2.33,0,3.624,0.867,3.624,2.381c0,1.346-1.269,2.265-3.533,2.285
			c-2.317,0-3.579-1.003-3.579-2.401C218.046,106.019,219.34,105.19,221.534,105.19z M221.638,108.917
			c1.78,0,2.795-0.55,2.795-1.398c0-0.938-1.106-1.397-2.86-1.397c-1.696,0-2.809,0.427-2.809,1.397
			C218.765,108.322,219.768,108.917,221.638,108.917z"/>
		<path fill="#4F89BC" d="M221.534,99.754c2.33,0,3.624,0.88,3.624,2.388c0,1.339-1.269,2.265-3.533,2.284
			c-2.317,0-3.579-1.003-3.579-2.394C218.046,100.583,219.34,99.754,221.534,99.754z M221.638,103.481
			c1.78,0,2.795-0.543,2.795-1.391c0-0.938-1.106-1.391-2.86-1.391c-1.696,0-2.809,0.42-2.809,1.391
			C218.765,102.899,219.768,103.481,221.638,103.481z"/>
		<path fill="#4F89BC" d="M221.534,94.332c2.33,0,3.624,0.867,3.624,2.381c0,1.346-1.269,2.265-3.533,2.284
			c-2.317,0-3.579-1.003-3.579-2.395C218.046,95.16,219.34,94.332,221.534,94.332z M221.638,98.059c1.78,0,2.795-0.55,2.795-1.397
			c0-0.938-1.106-1.392-2.86-1.392c-1.696,0-2.809,0.421-2.809,1.392C218.765,97.47,219.768,98.059,221.638,98.059z"/>
		<path fill="#4F89BC" d="M221.534,88.896c2.33,0,3.624,0.88,3.624,2.395c0,1.339-1.269,2.258-3.533,2.278
			c-2.317,0-3.579-0.997-3.579-2.395C218.046,89.73,219.34,88.896,221.534,88.896z M221.638,92.629c1.78,0,2.795-0.55,2.795-1.391
			c0-0.945-1.106-1.398-2.86-1.398c-1.696,0-2.809,0.427-2.809,1.398C218.765,92.041,219.768,92.629,221.638,92.629z"/>
		<path fill="#4F89BC" d="M221.534,83.473c2.33,0,3.624,0.874,3.624,2.388c0,1.34-1.269,2.259-3.533,2.285
			c-2.317,0-3.579-1.01-3.579-2.401C218.046,84.301,219.34,83.473,221.534,83.473z M221.638,87.2c1.78,0,2.795-0.543,2.795-1.392
			c0-0.938-1.106-1.391-2.86-1.391c-1.696,0-2.809,0.42-2.809,1.391C218.765,86.618,219.768,87.2,221.638,87.2z"/>
		<path fill="#4F89BC" d="M221.942,82.398l-2.53-4.905h0.738l2.058,4.129h0.026l2.071-4.129h0.731l-2.524,4.905H221.942z"/>
		<path fill="#4F89BC" d="M221.942,76.096l-2.53-4.912h0.738l2.058,4.135h0.026l2.071-4.135h0.731l-2.524,4.912H221.942z"/>
		<path fill="#4F89BC" d="M221.942,69.786l-2.53-4.905h0.738l2.058,4.129h0.026l2.071-4.129h0.731l-2.524,4.905H221.942z"/>
		<path fill="#4F89BC" d="M221.942,63.477l-2.53-4.905h0.738l2.058,4.135h0.026l2.071-4.135h0.731l-2.524,4.905H221.942z"/>
		<path fill="#4F89BC" d="M221.942,57.174l-2.53-4.905h0.738l2.058,4.128h0.026l2.071-4.128h0.731l-2.524,4.905H221.942z"/>
		<path fill="#4F89BC" d="M221.534,46.509c2.33,0,3.624,0.88,3.624,2.388c0,1.346-1.269,2.265-3.533,2.284
			c-2.317,0-3.579-0.997-3.579-2.394C218.046,47.344,219.34,46.509,221.534,46.509z M221.638,50.243c1.78,0,2.795-0.55,2.795-1.392
			c0-0.945-1.106-1.397-2.86-1.397c-1.696,0-2.809,0.42-2.809,1.397C218.765,49.654,219.768,50.243,221.638,50.243z"/>
		<path fill="#4F89BC" d="M234.6,159.471c-0.997,0.052-2.194,0.11-3.067,0.11v0.02c0.815,0.259,1.715,0.543,2.705,0.899l3.449,1.262
			v0.699l-3.391,1.158c-1.009,0.343-1.922,0.615-2.763,0.815v0.02c0.887,0.026,2.064,0.078,3.151,0.142l3.048,0.188v0.874
			l-7.118-0.492v-1.178l3.436-1.216c0.88-0.292,1.657-0.524,2.408-0.712v-0.026c-0.725-0.194-1.508-0.44-2.408-0.757l-3.436-1.275
			v-1.165l7.118-0.447v0.906L234.6,159.471z"/>
		<path fill="#4F89BC" d="M230.613,156.041h4.219c1.585,0,2.265-0.706,2.265-1.657c0-1.048-0.699-1.734-2.265-1.734h-4.219v-0.932
			h4.161c2.187,0,3.074,1.152,3.074,2.698c0,1.462-0.822,2.556-3.048,2.556h-4.187V156.041z"/>
		<path fill="#4F89BC" d="M236.612,150.243c0.265-0.421,0.466-1.01,0.466-1.644c0-0.938-0.499-1.495-1.223-1.495
			c-0.647,0-1.042,0.382-1.404,1.346c-0.427,1.165-1.035,1.883-2.025,1.883c-1.113,0-1.935-0.919-1.935-2.304
			c0-0.718,0.168-1.255,0.343-1.566l0.757,0.252c-0.136,0.22-0.343,0.699-0.343,1.339c0,0.984,0.589,1.346,1.068,1.346
			c0.673,0,0.997-0.434,1.378-1.417c0.459-1.204,1.042-1.806,2.09-1.806c1.107,0,2.064,0.802,2.064,2.485
			c0,0.686-0.213,1.437-0.459,1.818L236.612,150.243z"/>
		<path fill="#4F89BC" d="M231.39,143.551v2.168h-0.776v-5.274h0.776v2.174h6.342v0.932H231.39z"/>
		<path fill="#4F89BC" d="M234.386,135.967v2.756h2.575v-3.08h0.77v4.012h-7.118v-3.857h0.764v2.925h2.252v-2.756H234.386z"/>
		<path fill="#4F89BC" d="M230.697,134.44c-0.078-0.466-0.142-1.146-0.142-1.76c0-0.99,0.188-1.631,0.583-2.071
			c0.317-0.343,0.809-0.557,1.359-0.557c0.932,0,1.553,0.596,1.812,1.333h0.032c0.188-0.544,0.692-0.867,1.43-1.036
			c0.997-0.233,1.683-0.401,1.96-0.55v0.951c-0.213,0.116-0.815,0.271-1.702,0.466c-0.984,0.207-1.346,0.602-1.385,1.437v0.867
			h3.086v0.919H230.697z M233.946,133.521v-0.945c0-0.977-0.543-1.605-1.352-1.605c-0.919,0-1.327,0.667-1.327,1.637
			c0,0.447,0.039,0.757,0.078,0.913H233.946z"/>
		<path fill="#4F89BC" d="M234.638,128.855l-2.53-4.905h0.731l2.071,4.128h0.02l2.077-4.128h0.725l-2.523,4.905H234.638z"/>
		<path fill="#4F89BC" d="M234.638,122.546l-2.53-4.905h0.731l2.071,4.135h0.02l2.077-4.135h0.725l-2.523,4.905H234.638z"/>
		<path fill="#4F89BC" d="M234.6,110.134c-0.997,0.052-2.194,0.116-3.067,0.116v0.013c0.815,0.259,1.715,0.543,2.705,0.899
			l3.449,1.262v0.699l-3.391,1.165c-1.009,0.336-1.922,0.608-2.763,0.815v0.013c0.887,0.026,2.064,0.078,3.151,0.143l3.048,0.188
			v0.88l-7.118-0.499v-1.171l3.436-1.223c0.88-0.292,1.657-0.524,2.408-0.712v-0.026c-0.725-0.188-1.508-0.44-2.408-0.751
			l-3.436-1.274V109.5l7.118-0.447v0.906L234.6,110.134z"/>
		<path fill="#4F89BC" d="M235.486,106.582l2.245,0.744v0.945l-7.118-2.433v-1.094l7.118-2.44v0.99l-2.245,0.757V106.582z
			 M234.774,104.232l-2.051,0.712c-0.473,0.155-0.887,0.259-1.301,0.369v0.02c0.414,0.104,0.854,0.213,1.281,0.362l2.071,0.699
			V104.232z"/>
		<path fill="#4F89BC" d="M237.731,97.509l-1.579,0.925c-0.596,0.369-0.99,0.589-1.404,0.815v0.013
			c0.414,0.207,0.796,0.42,1.417,0.776l1.566,0.854v1.062l-3.604-2.181l-3.514,2.09v-1.061l1.663-0.945
			c0.466-0.266,0.822-0.466,1.204-0.654v-0.032c-0.427-0.201-0.75-0.375-1.204-0.647l-1.663-0.958v-1.074l3.462,2.168l3.656-2.22
			V97.509z"/>
		<path fill="#4F89BC" d="M234.638,95.483l-2.53-4.912h0.731l2.071,4.135h0.02l2.077-4.135h0.725l-2.523,4.912H234.638z"/>
		<path fill="#4F89BC" d="M234.638,89.174l-2.53-4.905h0.731l2.071,4.129h0.02l2.077-4.129h0.725l-2.523,4.905H234.638z"/>
		<path fill="#4F89BC" d="M234.638,82.864l-2.53-4.905h0.731l2.071,4.135h0.02l2.077-4.135h0.725l-2.523,4.905H234.638z"/>
		<path fill="#4F89BC" d="M234.638,76.562l-2.53-4.905h0.731l2.071,4.129h0.02l2.077-4.129h0.725l-2.523,4.905H234.638z"/>
		<path fill="#4F89BC" d="M234.638,70.258l-2.53-4.905h0.731l2.071,4.128h0.02l2.077-4.128h0.725l-2.523,4.905H234.638z"/>
		<path fill="#4F89BC" d="M234.638,63.949l-2.53-4.912h0.731l2.071,4.135h0.02l2.077-4.135h0.725l-2.523,4.912H234.638z"/>
		<path fill="#4F89BC" d="M234.638,57.646l-2.53-4.912h0.731l2.071,4.129h0.02l2.077-4.129h0.725l-2.523,4.912H234.638z"/>
		<path fill="#4F89BC" d="M234.638,51.337l-2.53-4.905h0.731l2.071,4.128h0.02l2.077-4.128h0.725l-2.523,4.905H234.638z"/>
	</g>
	<path display="inline" fill="#4F89BC" d="M387.049,451.399c0,15.557-12.613,28.176-28.176,28.176H153.127
		c-15.563,0-28.175-12.619-28.175-28.176V192.085c0-15.557,12.612-28.176,28.175-28.176h205.746
		c15.563,0,28.176,12.619,28.176,28.176V451.399z"/>
	<path display="inline" opacity="0.6" fill="#FFFFFF" d="M212.254,310.029c0-7.991-6.478-14.47-14.47-14.47h-11.163
		c-7.985,0-14.47,6.479-14.47,14.47v11.156c0,7.999,6.484,14.47,14.47,14.47h11.163c7.992,0,14.47-6.471,14.47-14.47V310.029z"/>
	<path display="inline" opacity="0.6" fill="#FFFFFF" d="M273.032,310.029c0-7.991-6.478-14.47-14.476-14.47h-11.157
		c-7.998,0-14.476,6.479-14.476,14.47v11.156c0,7.999,6.478,14.47,14.476,14.47h11.157c7.998,0,14.476-6.471,14.476-14.47V310.029z"
		/>
	<path display="inline" opacity="0.6" fill="#FFFFFF" d="M333.803,310.029c0-7.991-6.484-14.47-14.469-14.47h-11.17
		c-7.985,0-14.469,6.479-14.469,14.47v11.156c0,7.999,6.483,14.47,14.469,14.47h11.17c7.984,0,14.469-6.471,14.469-14.47V310.029z"
		/>
	<path display="inline" opacity="0.6" fill="#FFFFFF" d="M212.254,363.818c0-7.998-6.478-14.477-14.47-14.477h-11.163
		c-7.985,0-14.47,6.479-14.47,14.477v11.156c0,7.998,6.484,14.47,14.47,14.47h11.163c7.992,0,14.47-6.472,14.47-14.47V363.818z"/>
	<path display="inline" opacity="0.6" fill="#FFFFFF" d="M273.032,363.818c0-7.998-6.478-14.477-14.476-14.477h-11.157
		c-7.998,0-14.476,6.479-14.476,14.477v11.156c0,7.998,6.478,14.47,14.476,14.47h11.157c7.998,0,14.476-6.472,14.476-14.47V363.818z
		"/>
	<path display="inline" opacity="0.6" fill="#FFFFFF" d="M333.803,363.818c0-7.998-6.484-14.477-14.469-14.477h-11.17
		c-7.985,0-14.469,6.479-14.469,14.477v11.156c0,7.998,6.483,14.47,14.469,14.47h11.17c7.984,0,14.469-6.472,14.469-14.47V363.818z"
		/>
	<path display="inline" opacity="0.6" fill="#FFFFFF" d="M212.254,417.601c0-7.992-6.478-14.477-14.47-14.477h-11.163
		c-7.985,0-14.47,6.484-14.47,14.477v11.163c0,7.991,6.484,14.47,14.47,14.47h11.163c7.992,0,14.47-6.479,14.47-14.47V417.601z"/>
	<path display="inline" opacity="0.6" fill="#FFFFFF" d="M273.032,417.601c0-7.992-6.478-14.477-14.476-14.477h-11.157
		c-7.998,0-14.476,6.484-14.476,14.477v11.163c0,7.991,6.478,14.47,14.476,14.47h11.157c7.998,0,14.476-6.479,14.476-14.47V417.601z
		"/>
	<path display="inline" opacity="0.6" fill="#FFFFFF" d="M333.803,417.601c0-7.992-6.484-14.477-14.469-14.477h-11.17
		c-7.985,0-14.469,6.484-14.469,14.477v11.163c0,7.991,6.483,14.47,14.469,14.47h11.17c7.984,0,14.469-6.479,14.469-14.47V417.601z"
		/>
	<path display="inline" fill="#FFFFFF" d="M330.988,204.005h-5.779h-22.843h-98.79h-22.843h-5.785
		c-8.271,0-14.987,6.717-14.987,14.988v30.356c0,8.27,6.717,14.987,14.987,14.987h5.785h22.843h98.79h22.843h5.779
		c8.276,0,14.994-6.718,14.994-14.987v-30.356C345.982,210.723,339.265,204.005,330.988,204.005z"/>
	<g display="inline">
		<path fill="#4F89BC" d="M188.816,237.785v12.903h-7.138v-35.591h14.185c4.083,0,7.306,1.048,9.649,3.125
			c2.355,2.09,3.52,4.841,3.52,8.244c0,3.397-1.165,6.142-3.52,8.212c-2.343,2.071-5.565,3.106-9.649,3.106H188.816z
			 M188.816,232.284h7.047c1.987,0,3.488-0.543,4.523-1.63c1.022-1.081,1.54-2.46,1.54-4.142c0-1.709-0.518-3.126-1.534-4.239
			c-1.016-1.119-2.53-1.676-4.53-1.676h-7.047V232.284z"/>
		<path fill="#4F89BC" d="M221.871,250.688h-7.138v-35.591h7.138V250.688z"/>
		<path fill="#4F89BC" d="M257.76,250.688h-7.112l-14.379-24.318l-0.149,0.02v24.299h-7.131v-35.591h7.131l14.379,24.299l0.148-0.02
			v-24.28h7.112V250.688z"/>
		<path fill="#4F89BC" d="M283.387,256.047h-22.256v-5.358h22.256V256.047z"/>
	</g>
</g>
<g id="Ebene_5" display="none">
	<g display="inline">
		<g>
			<path fill="#FFFFFF" d="M193.147,323.759c-9.396,0-17.02-7.616-17.02-17.02V60.51c0-9.396,7.623-17.02,17.02-17.02h123.587
				c9.396,0,17.026,7.623,17.026,17.02v246.229c0,9.403-7.63,17.02-17.026,17.02H193.147z"/>
			<path fill="#4F89BC" d="M316.734,327.072H193.147c-11.215,0-20.333-9.118-20.333-20.333V60.51
				c0-11.215,9.118-20.333,20.333-20.333h123.587c11.215,0,20.339,9.118,20.339,20.333v246.229
				C337.073,317.954,327.949,327.072,316.734,327.072z M193.147,46.804c-7.559,0-13.706,6.147-13.706,13.706v246.229
				c0,7.559,6.147,13.706,13.706,13.706h123.587c7.559,0,13.713-6.147,13.713-13.706V60.51c0-7.559-6.154-13.706-13.713-13.706
				H193.147z"/>
		</g>
		<path fill="#4F89BC" d="M211.591,147.917c-4.712,0-8.517-3.812-8.517-8.509v-64.44c0-4.698,3.805-8.516,8.517-8.516h87.458
			c4.698,0,8.516,3.818,8.516,8.516v64.44c0,4.698-3.817,8.509-8.516,8.509H211.591z"/>
		<rect x="292.474" y="167.304" fill="#4F89BC" width="9.973" height="58.299"/>
		<rect x="246.393" y="186.09" fill="#4F89BC" width="5.526" height="115.549"/>
		<rect x="208.18" y="167.304" fill="#4F89BC" width="5.521" height="105.377"/>
		<rect x="227.244" y="186.09" fill="#4F89BC" width="5.533" height="119.53"/>
		<rect x="265.107" y="186.09" fill="#4F89BC" width="5.546" height="119.53"/>
		<g>
			<path fill="#FFFFFF" d="M242.963,130.095c3.883-11.952,3.3-12.159,6.406-12.457c3.119-0.291,5.061,0,5.061,0v-13.693l0,0v-7.215
				c0,0-1.941,0.291-5.061,0c-3.106-0.292-2.523-0.511-6.406-12.457c-3.896-11.959-11.092-12.438-12.839-12.438
				c-1.734,0-9.811,0-9.811,0c-9.914,14.185-9.37,29.651-9.37,29.651c0,8.257,0,10.807,0,11.389c0,0-0.544,15.479,9.37,29.651
				c0,0,8.076,0,9.811,0C231.871,142.526,239.067,142.047,242.963,130.095z"/>
			<g>
				<path fill="#4F89BC" d="M278.399,126.75c0-0.738-0.518-1.243-0.518-1.243s-2.175-1.074-3.604-1.773
					c13.945-1.126,20.824-14.36,20.824-16.605c0-2.239-6.886-15.479-20.838-16.592c1.418-0.692,3.618-1.786,3.618-1.786
					s0.518-0.518,0.518-1.243c0-0.725-0.447-1.268-2.537-0.906c-2.038,0.356-4.75,1.009-7.183,4.012
					c-12.742,1.126-19.039,8.115-19.039,16.514c0,8.413,6.304,15.395,19.039,16.515c2.445,3.003,5.145,3.65,7.183,4.012
					C277.952,128.018,278.399,127.474,278.399,126.75z"/>
				<path fill="#4F89BC" d="M249.085,107.128c0-9.396,7.383-15.925,19.297-17.058c2.381-2.815,4.95-3.604,7.39-4.038
					c1.32-0.227,2.181-0.13,2.699,0.297c0.329,0.278,0.485,0.673,0.485,1.178c0,0.938-0.583,1.573-0.674,1.631l-0.064,0.071
					l-0.071,0.045c0,0-0.899,0.44-1.915,0.944c12.923,2.123,19.439,14.444,19.439,16.929c0,2.498-6.517,14.806-19.42,16.929
					c1.009,0.505,1.896,0.945,1.896,0.945l0.071,0.039l0.064,0.064c0.091,0.078,0.674,0.699,0.674,1.644
					c0,0.498-0.156,0.893-0.485,1.178c-0.519,0.44-1.379,0.53-2.699,0.297c-2.439-0.427-4.995-1.21-7.384-4.025
					C256.481,123.074,249.085,116.551,249.085,107.128z M277.823,87.508c0-0.227-0.064-0.285-0.098-0.297
					c-0.09-0.078-0.446-0.272-1.772-0.052c-2.265,0.401-4.653,1.139-6.84,3.824l-0.162,0.188l-0.239,0.013
					c-11.415,1.009-18.488,7.118-18.488,15.945c0,8.833,7.086,14.949,18.508,15.958l0.239,0.013l0.155,0.188
					c2.174,2.679,4.575,3.411,6.827,3.812c1.326,0.227,1.683,0.026,1.772-0.052c0.033-0.013,0.098-0.064,0.098-0.297
					c0-0.363-0.201-0.66-0.298-0.777c-0.446-0.22-2.265-1.126-3.494-1.728l-1.864-0.913l2.064-0.168
					c13.797-1.113,20.301-14.366,20.301-16.036c0-1.663-6.504-14.916-20.313-16.022l-2.084-0.168l1.877-0.919
					c1.242-0.602,3.067-1.514,3.514-1.734C277.622,88.162,277.823,87.87,277.823,87.508z"/>
			</g>
			<path fill="#FFFFFF" d="M297.354,114.985c0,0,2.575-3.093,2.575-7.52c0-4.427-3.501-14.612-9.053-17.899
				c-5.56-3.3-15.952-5.151-22.119-4.944c-6.192,0.207-11.726,1.229-15.647,3.909c0,0,1.954-0.311,3.922-0.311
				c0,0-3.319,1.307-5.662,3.579c0,0,1.242-0.343,2.568-0.511c0,0-4.646,2.019-5.196,7.908c0,0,2.246-3.002,3.844-3.553
				c0,0-1.598,1.45-2.077,4.148c0,0,4.188-3.688,9.655-5.999c5.449-2.31,9.564-1.029,10.717,0.835
				c1.151,1.857,3.397,8.606,4.368,10.328c0,0-1.793-0.641-2.835-2.439c0,0,1.313,12.405,13.551,14.211
				c0,0-5.817,6.594-15.233,6.594c-9.415,0-14.56-5.992-15.667-8.134c0,0-0.511,1.107-0.077,2.737c0,0-4.452-1.876-5.824-5.481
				c0,0,0.848,3.921,2.971,6.581c0,0-1.644,0.168-2.919-0.925c0,0,3.967,7.442,13.383,10.102c9.415,2.653,16.178,1.359,23.108-1.372
				C292.636,124.083,299.172,119.734,297.354,114.985z"/>
		</g>
	</g>
	<path display="inline" fill="#4F89BC" d="M386.501,452.005c0,15.557-12.613,28.176-28.176,28.176H152.579
		c-15.563,0-28.176-12.619-28.176-28.176V192.691c0-15.557,12.613-28.176,28.176-28.176h205.746
		c15.563,0,28.176,12.619,28.176,28.176V452.005z"/>
	<path display="inline" opacity="0.6" fill="#FFFFFF" d="M213.713,310.635c0-7.991-6.478-14.47-14.47-14.47H188.08
		c-7.985,0-14.47,6.479-14.47,14.47v11.156c0,7.999,6.484,14.47,14.47,14.47h11.163c7.992,0,14.47-6.471,14.47-14.47V310.635z"/>
	<path display="inline" opacity="0.6" fill="#FFFFFF" d="M274.49,310.635c0-7.991-6.478-14.47-14.476-14.47h-11.156
		c-7.999,0-14.477,6.479-14.477,14.47v11.156c0,7.999,6.478,14.47,14.477,14.47h11.156c7.998,0,14.476-6.471,14.476-14.47V310.635z"
		/>
	<path display="inline" opacity="0.6" fill="#FFFFFF" d="M335.262,310.635c0-7.991-6.484-14.47-14.47-14.47h-11.169
		c-7.986,0-14.47,6.479-14.47,14.47v11.156c0,7.999,6.483,14.47,14.47,14.47h11.169c7.985,0,14.47-6.471,14.47-14.47V310.635z"/>
	<path display="inline" opacity="0.6" fill="#FFFFFF" d="M213.713,364.424c0-7.998-6.478-14.477-14.47-14.477H188.08
		c-7.985,0-14.47,6.479-14.47,14.477v11.156c0,7.998,6.484,14.47,14.47,14.47h11.163c7.992,0,14.47-6.472,14.47-14.47V364.424z"/>
	<path display="inline" opacity="0.6" fill="#FFFFFF" d="M274.49,364.424c0-7.998-6.478-14.477-14.476-14.477h-11.156
		c-7.999,0-14.477,6.479-14.477,14.477v11.156c0,7.998,6.478,14.47,14.477,14.47h11.156c7.998,0,14.476-6.472,14.476-14.47V364.424z
		"/>
	<path display="inline" opacity="0.6" fill="#FFFFFF" d="M335.262,364.424c0-7.998-6.484-14.477-14.47-14.477h-11.169
		c-7.986,0-14.47,6.479-14.47,14.477v11.156c0,7.998,6.483,14.47,14.47,14.47h11.169c7.985,0,14.47-6.472,14.47-14.47V364.424z"/>
	<path display="inline" opacity="0.6" fill="#FFFFFF" d="M213.713,418.206c0-7.992-6.478-14.477-14.47-14.477H188.08
		c-7.985,0-14.47,6.484-14.47,14.477v11.163c0,7.991,6.484,14.47,14.47,14.47h11.163c7.992,0,14.47-6.479,14.47-14.47V418.206z"/>
	<path display="inline" opacity="0.6" fill="#FFFFFF" d="M274.49,418.206c0-7.992-6.478-14.477-14.476-14.477h-11.156
		c-7.999,0-14.477,6.484-14.477,14.477v11.163c0,7.991,6.478,14.47,14.477,14.47h11.156c7.998,0,14.476-6.479,14.476-14.47V418.206z
		"/>
	<path display="inline" opacity="0.6" fill="#FFFFFF" d="M335.262,418.206c0-7.992-6.484-14.477-14.47-14.477h-11.169
		c-7.986,0-14.47,6.484-14.47,14.477v11.163c0,7.991,6.483,14.47,14.47,14.47h11.169c7.985,0,14.47-6.479,14.47-14.47V418.206z"/>
	<path display="inline" fill="#FFFFFF" d="M332.446,204.611h-5.778h-22.844h-98.789h-22.844h-5.785
		c-8.271,0-14.987,6.717-14.987,14.988v30.356c0,8.27,6.717,14.987,14.987,14.987h5.785h22.844h98.789h22.844h5.778
		c8.277,0,14.994-6.718,14.994-14.987v-30.356C347.44,211.328,340.724,204.611,332.446,204.611z"/>
	<g display="inline">
		<path fill="#4F89BC" d="M190.662,238.391v12.903h-7.138v-35.591h14.186c4.083,0,7.306,1.048,9.648,3.125
			c2.355,2.09,3.521,4.841,3.521,8.244c0,3.397-1.165,6.142-3.521,8.212c-2.343,2.071-5.565,3.106-9.648,3.106H190.662z
			 M190.662,232.89h7.048c1.986,0,3.487-0.543,4.523-1.63c1.022-1.081,1.54-2.46,1.54-4.142c0-1.709-0.518-3.126-1.534-4.239
			c-1.016-1.119-2.53-1.676-4.529-1.676h-7.048V232.89z"/>
		<path fill="#4F89BC" d="M223.718,251.294h-7.138v-35.591h7.138V251.294z"/>
		<path fill="#4F89BC" d="M259.606,251.294h-7.111l-14.379-24.318l-0.149,0.02v24.299h-7.131v-35.591h7.131l14.379,24.299
			l0.149-0.02v-24.28h7.111V251.294z"/>
		<path fill="#4F89BC" d="M285.232,256.652h-22.254v-5.358h22.254V256.652z"/>
	</g>
</g>
<g id="Ebene_6">
	<g>
		<path fill="#FFFFFF" d="M474.893,351.639c0,14.449-11.718,26.167-26.167,26.167H70.29c-14.449,0-26.167-11.718-26.167-26.167
			V161.7c0-14.449,11.718-26.167,26.167-26.167h378.436c14.449,0,26.167,11.718,26.167,26.167V351.639z"/>
		<path fill="#4F89BC" d="M448.726,382.421H70.29c-16.973,0-30.782-13.81-30.782-30.782V161.7c0-16.973,13.809-30.782,30.782-30.782
			h378.436c16.973,0,30.782,13.809,30.782,30.782v189.939C479.508,368.611,465.698,382.421,448.726,382.421z M70.29,140.147
			c-11.88,0-21.552,9.672-21.552,21.552v189.939c0,11.88,9.672,21.552,21.552,21.552h378.436c11.88,0,21.552-9.672,21.552-21.552
			V161.7c0-11.88-9.672-21.552-21.552-21.552H70.29z"/>
	</g>
	<path fill="#4F89BC" d="M204.623,323.308c0,7.229-5.85,13.089-13.079,13.089H92.5c-7.22,0-13.079-5.859-13.079-13.089V188.876
		c0-7.22,5.859-13.079,13.079-13.079h99.044c7.229,0,13.079,5.859,13.079,13.079V323.308z"/>
	<g>
		<path fill="#FFFFFF" d="M129.563,284.921c0.059-8.712,0.811-14.751,2.253-18.117c1.442-3.365,5.228-7.812,11.357-13.341
			c5.949-7.03,10.186-12.438,12.709-16.225s3.786-8.352,3.786-13.701c0-6.368-1.698-11.267-5.093-14.692
			c-3.396-3.425-8.248-5.138-14.557-5.138c-5.469,0-10.126,1.487-13.972,4.462c-3.846,2.974-5.769,7.346-5.769,13.115h-16.946
			l-0.271-0.541c-0.18-9.674,3.229-17.426,10.23-23.256c7-5.828,15.91-8.743,26.726-8.743c11.837,0,21.032,3.02,27.582,9.059
			c6.549,6.04,9.825,14.467,9.825,25.284c0,7.752-2.118,14.843-6.354,21.272c-4.237,6.431-9.841,13.011-16.811,19.74
			c-3.245,3.245-5.214,6.16-5.904,8.743c-0.692,2.584-1.037,6.611-1.037,12.078H129.563z M147.952,321.878h-18.568v-18.749h18.568
			V321.878z"/>
	</g>
	<rect x="234.423" y="183.657" fill="#4F89BC" width="89.605" height="15.333"/>
	<rect x="234.423" y="261.312" fill="#4F89BC" width="177.599" height="8.49"/>
	<rect x="234.423" y="320.054" fill="#4F89BC" width="133.079" height="8.491"/>
	<rect x="234.423" y="290.732" fill="#4F89BC" width="183.701" height="8.509"/>
	<rect x="234.423" y="232.521" fill="#4F89BC" width="183.701" height="8.509"/>
</g>
</svg>
