<?xml version="1.0" encoding="UTF-8"?>
<svg id="Ebene_1" data-name="Ebene 1" xmlns="http://www.w3.org/2000/svg" xmlns:xlink="http://www.w3.org/1999/xlink" viewBox="0 0 597.7 201">
  <defs>
    <style>
      .cls-1 {
        fill: #5588c6;
      }

      .cls-2 {
        fill: #5488c3;
      }

      .cls-3 {
        fill: #5aa72d;
      }

      .cls-4 {
        fill: url(#Unbenannter_Verlauf_4);
      }

      .cls-5 {
        fill: url(#Unbenannter_Verlauf_2);
      }
    </style>
    <linearGradient id="Unbenannter_Verlauf_2" data-name="Unbenannter Verlauf 2" x1="127.26" y1="149.43" x2="127.26" y2="51.57" gradientUnits="userSpaceOnUse">
      <stop offset="0" stop-color="#588cc5"/>
      <stop offset=".18" stop-color="#6a9ed0"/>
      <stop offset=".42" stop-color="#7bafda"/>
      <stop offset=".68" stop-color="#85b8e0"/>
      <stop offset="1" stop-color="#89bce2"/>
    </linearGradient>
    <linearGradient id="Unbenannter_Verlauf_4" data-name="Unbenannter Verlauf 4" x1="73.53" y1="149.43" x2="73.53" y2="51.57" gradientUnits="userSpaceOnUse">
      <stop offset="0" stop-color="#5ead2d"/>
      <stop offset=".08" stop-color="#67b038"/>
      <stop offset=".27" stop-color="#7bb94f"/>
      <stop offset=".48" stop-color="#89bf60"/>
      <stop offset=".71" stop-color="#92c26a"/>
      <stop offset="1" stop-color="#95c46e"/>
    </linearGradient>
  </defs>
  <path class="cls-5" d="M104.98,51.57v17.32c15.47,2.23,27.36,15.53,27.36,31.61s-11.89,29.39-27.36,31.61v17.32c24.99-2.32,44.56-23.33,44.56-48.93s-19.57-46.61-44.56-48.93Z"/>
  <path class="cls-4" d="M95.83,132.12c-15.48-2.21-27.39-15.52-27.39-31.62s11.91-29.41,27.39-31.62v-17.31c-25.01,2.3-44.59,23.33-44.59,48.93s19.59,46.63,44.59,48.93v-17.31Z"/>
  <path class="cls-2" d="M148.94,167.5H52.06c-10.23,0-18.56-8.33-18.56-18.56V52.06c0-10.23,8.33-18.56,18.56-18.56h96.88c10.23,0,18.56,8.33,18.56,18.56v96.88c0,10.23-8.33,18.56-18.56,18.56ZM52.06,37.5c-8.03,0-14.56,6.53-14.56,14.56v96.88c0,8.03,6.53,14.56,14.56,14.56h96.88c8.03,0,14.56-6.53,14.56-14.56V52.06c0-8.03-6.53-14.56-14.56-14.56H52.06Z"/>
  <g>
    <path class="cls-1" d="M229.64,99.03l-3.33-11.22h-13.87l-3.33,11.22h-9.93l15.5-47.39h10.27l14.89,47.39h-10.2ZM221.41,70.4l-1.9-8.36c-.27,1.09-1.43,5.98-2.24,9.11-.88,3.4-1.5,5.64-2.52,8.77h9.25c-.34-1.02-1.84-6.26-2.58-9.52Z"/>
    <path class="cls-1" d="M267.51,99.98c-1.16-.82-2.11-1.97-2.72-3.4-2.24,2.18-5.51,3.33-9.18,3.33-4.9,0-9.11-2.31-10.27-5.64-.54-1.56-.75-3.4-.75-6.94v-22.3l8.97-1.7v22.37c0,3.13.27,4.76.75,5.71s1.84,1.63,3.2,1.63c2.24,0,4.96-1.63,5.64-3.33v-24.48l8.7-1.84v26.59c0,2.31.75,4.69,2.11,6.32l-6.46,3.67Z"/>
    <path class="cls-1" d="M292.95,100.11c-4.28,0-8.98-1.36-14.07-4.01l3.26-6.66c2.79,1.7,7.62,3.94,11.56,3.94,2.58,0,4.62-1.7,4.62-3.94,0-2.38-1.7-3.6-5.37-4.28l-4.08-.75c-2.31-.41-5.17-2.04-6.39-3.54-1.22-1.5-1.97-4.01-1.97-6.26,0-6.8,5.37-11.35,13.46-11.35,5.58,0,9.25,1.7,12.44,3.26l-2.99,6.12c-3.47-1.77-5.98-2.52-8.57-2.52s-4.42,1.36-4.42,3.4c0,1.77,1.16,2.72,4.35,3.54l4.22,1.09c4.28,1.09,5.71,2.38,6.94,3.94,1.29,1.63,1.9,3.6,1.9,5.92,0,7.21-5.98,12.1-14.89,12.1Z"/>
    <path class="cls-1" d="M348.36,99.03h-8.36l-3.13-11.97c-.75-2.79-1.56-6.12-1.97-8.43l-.54-3.47c-.2,1.5-.27,1.97-.82,4.49-.68,2.99-2.18,8.98-2.99,12.24l-1.77,7.14h-8.5l-9.52-34.2,9.04-1.02,2.86,13.4c.82,3.6,1.77,9.45,1.97,10.81.41-2.65,1.43-8.23,2.52-12.1l3.26-11.69h8.57l2.79,11.49c1.36,5.78,2.38,11.15,2.58,12.31.2-1.5.95-6.94,1.9-11.35l2.65-12.44h9.38l-9.93,34.81Z"/>
    <path class="cls-1" d="M371.42,84.48v.27c0,5.37,2.65,8.43,7.34,8.43,3.13,0,6.05-1.16,8.84-3.47l3.54,5.44c-4.01,3.26-8.23,4.83-13.12,4.83-10,0-16.45-7.07-16.45-18.02,0-6.26,1.29-10.4,4.35-13.8,2.86-3.2,6.32-4.69,10.95-4.69,4.01,0,7.82,1.36,10.06,3.67,3.2,3.26,4.62,7.96,4.62,15.23v2.11h-20.13ZM382.09,77.4c0-2.58-.27-3.94-1.09-5.24-.88-1.36-2.18-2.04-4.01-2.04-3.47,0-5.44,2.72-5.44,7.55v.14h10.54v-.41Z"/>
    <path class="cls-1" d="M403.45,60.27c-3.06,0-5.58-2.52-5.58-5.64s2.58-5.64,5.71-5.64,5.51,2.52,5.51,5.64-2.52,5.64-5.64,5.64ZM398.89,99.03v-34.2l9.11-1.43v35.63h-9.11Z"/>
    <path class="cls-1" d="M428.74,100.11c-4.28,0-8.97-1.36-14.07-4.01l3.26-6.66c2.79,1.7,7.62,3.94,11.56,3.94,2.58,0,4.62-1.7,4.62-3.94,0-2.38-1.7-3.6-5.37-4.28l-4.08-.75c-2.31-.41-5.17-2.04-6.39-3.54-1.22-1.5-1.97-4.01-1.97-6.26,0-6.8,5.37-11.35,13.46-11.35,5.58,0,9.25,1.7,12.44,3.26l-2.99,6.12c-3.47-1.77-5.98-2.52-8.57-2.52s-4.42,1.36-4.42,3.4c0,1.77,1.16,2.72,4.35,3.54l4.22,1.09c4.28,1.09,5.71,2.38,6.93,3.94,1.29,1.63,1.9,3.6,1.9,5.92,0,7.21-5.98,12.1-14.89,12.1Z"/>
    <path class="cls-1" d="M480.76,99.03l-3.33-11.22h-13.87l-3.33,11.22h-9.93l15.5-47.39h10.27l14.89,47.39h-10.2ZM472.53,70.4l-1.9-8.36c-.27,1.09-1.43,5.98-2.24,9.11-.88,3.4-1.5,5.64-2.52,8.77h9.25c-.34-1.02-1.84-6.26-2.58-9.52Z"/>
    <path class="cls-1" d="M522.1,95.83c-2.38,2.52-5.51,3.94-9.32,3.94-2.72,0-5.3-.68-7.28-1.84.14.82.14,1.84.14,2.86v10.88l-8.77,2.31v-40.25c0-4.56-.07-5.85-.54-8.77l8.09-1.43c.34,1.22.54,2.18.61,3.26,1.56-1.9,5.03-3.26,8.57-3.26,2.45,0,4.96.82,6.87,2.11,3.74,2.52,6.46,7,6.46,15.03,0,7.48-1.22,11.29-4.83,15.16ZM516.12,73.87c-.68-1.9-2.11-2.92-4.35-2.92s-4.42.95-6.05,2.65v16.93c1.22,1.02,3.2,2.04,5.03,2.04,4.49,0,6.26-3.06,6.26-11.01,0-3.33-.27-5.98-.88-7.68Z"/>
    <path class="cls-1" d="M559.37,95.83c-2.38,2.52-5.51,3.94-9.32,3.94-2.72,0-5.3-.68-7.28-1.84.14.82.14,1.84.14,2.86v10.88l-8.77,2.31v-40.25c0-4.56-.07-5.85-.54-8.77l8.09-1.43c.34,1.22.54,2.18.61,3.26,1.56-1.9,5.03-3.26,8.57-3.26,2.45,0,4.96.82,6.87,2.11,3.74,2.52,6.46,7,6.46,15.03,0,7.48-1.22,11.29-4.83,15.16ZM553.39,73.87c-.68-1.9-2.11-2.92-4.35-2.92s-4.42.95-6.05,2.65v16.93c1.22,1.02,3.2,2.04,5.03,2.04,4.49,0,6.26-3.06,6.26-11.01,0-3.33-.27-5.98-.88-7.68Z"/>
  </g>
  <g>
    <path class="cls-3" d="M201.51,149.58v-24.84h14.43l-.29,3.96h-9.32v7.16h8.75v3.96h-8.75v9.75h-4.82Z"/>
    <path class="cls-3" d="M232.18,142.06h-9.4c.25,2.95,1.87,4.14,4.75,4.14,2.27,0,3.71-1.04,4.17-1.4l1.04,3.17c-.54.5-2.09,2.05-6.23,2.05-4.75,0-8.14-2.66-8.14-9.32,0-6.23,3.64-9.07,7.99-9.07,3.78,0,6.08,2.41,6.08,7.02,0,1.58-.14,2.59-.29,3.42ZM222.74,139.03h5.65c.04-.32.04-.58.04-.83,0-1.87-.9-3.06-2.48-3.06-1.8,0-3.1,1.3-3.2,3.89Z"/>
    <path class="cls-3" d="M243.7,131.62c1.44,0,2.41.36,3.06.76v-8.17l4.54-.4v25.77h-4.14v-1.98h-.07c-.4.65-1.62,2.41-4.75,2.41-3.96,0-6.7-3.06-6.7-9.14s3.82-9.25,8.06-9.25ZM246.76,144.93v-9c-.54-.36-1.3-.65-2.38-.65-2.41,0-4.1,1.73-4.1,5.36,0,3.96,1.44,5.47,3.38,5.47,1.51,0,2.48-.61,3.1-1.19Z"/>
    <path class="cls-3" d="M268.86,142.06h-9.4c.25,2.95,1.87,4.14,4.75,4.14,2.27,0,3.71-1.04,4.17-1.4l1.04,3.17c-.54.5-2.09,2.05-6.23,2.05-4.75,0-8.14-2.66-8.14-9.32,0-6.23,3.64-9.07,7.99-9.07,3.78,0,6.08,2.41,6.08,7.02,0,1.58-.14,2.59-.29,3.42ZM259.43,139.03h5.65c.04-.32.04-.58.04-.83,0-1.87-.9-3.06-2.48-3.06-1.8,0-3.1,1.3-3.2,3.89Z"/>
    <path class="cls-3" d="M282.86,135.83c-.14-.07-.61-.22-1.33-.22-2.02,0-3.24.86-3.85,1.8v12.17h-4.54v-17.53h4.17v2.45h.07c.79-1.58,2.02-2.77,4.36-2.77.65,0,1.26.11,1.44.14l-.32,3.96Z"/>
    <path class="cls-3" d="M293.09,139.43h.72v-.61c0-2.27-.97-3.42-2.95-3.42-2.16,0-3.53,1.12-4.14,1.69l-1.4-2.88c.83-.86,2.88-2.59,6.48-2.59,4.1,0,6.41,2.3,6.41,7.34v5.9c0,2.02.14,3.6.29,4.72h-4.18c-.04-.5-.11-1.26-.11-1.94h-.07c-.61,1.08-1.69,2.38-4.18,2.38-2.88,0-4.89-2.09-4.89-5.26,0-3.67,3.53-5.33,8.03-5.33ZM293.81,145.4v-3.24l-.9.04c-2.34.11-3.56.72-3.56,2.12,0,1.26.83,2.16,1.91,2.16,1.3,0,2.05-.54,2.56-1.08Z"/>
    <path class="cls-3" d="M307.16,143.93c0,1.87.43,2.38,1.55,2.38.65,0,1.15-.18,1.33-.25l.29,3.17c-.4.22-1.4.68-3.02.68-2.92,0-4.68-1.37-4.68-5.33v-20.37l4.54-.4v20.12Z"/>
    <path class="cls-3" d="M333.55,142.06h-9.4c.25,2.95,1.87,4.14,4.75,4.14,2.27,0,3.71-1.04,4.17-1.4l1.04,3.17c-.54.5-2.09,2.05-6.23,2.05-4.75,0-8.14-2.66-8.14-9.32,0-6.23,3.64-9.07,7.99-9.07,3.78,0,6.08,2.41,6.08,7.02,0,1.58-.14,2.59-.29,3.42ZM324.12,139.03h5.65c.04-.32.04-.58.04-.83,0-1.87-.9-3.06-2.48-3.06-1.8,0-3.1,1.3-3.2,3.89Z"/>
    <path class="cls-3" d="M340.17,128.23h-2.95v-3.49h10.73v3.49h-2.95v17.85h2.99v3.49h-10.8v-3.49h2.99v-17.85Z"/>
    <path class="cls-3" d="M352.52,149.58v-24.84h5.94c9.43,0,13.75,3.49,13.75,12.06s-5.4,12.78-14.07,12.78h-5.62ZM357.35,128.74v16.85h.79c5.9,0,9.04-2.41,9.04-8.78,0-5.98-2.95-8.06-8.71-8.06h-1.12Z"/>
    <path class="cls-3" d="M395.83,130.07c-.58-.47-2.05-1.73-4.43-1.73s-3.35,1.01-3.35,2.23c0,1.55.72,2.3,2.74,3.53l2.7,1.66c3.38,2.09,4.86,4.07,4.86,7.23,0,3.46-2.45,7.02-8.46,7.02-4,0-6.08-1.73-6.91-2.41l1.58-4.03c.83.83,2.66,2.34,5.26,2.34s3.74-1.08,3.74-2.3c0-1.66-.72-2.52-2.63-3.78l-2.7-1.8c-3.42-2.27-4.9-4.03-4.9-7.34,0-3.53,2.95-6.37,7.92-6.37,3.49,0,5.29,1.37,6.08,1.94l-1.51,3.82Z"/>
    <path class="cls-3" d="M409.08,150.01c-4.43,0-7.92-2.84-7.92-9.21s3.92-9.18,8.17-9.18c4.46,0,7.92,2.81,7.92,9.18s-3.92,9.21-8.17,9.21ZM409.22,135.5c-1.87,0-3.42,1.51-3.42,5.29s1.55,5.33,3.42,5.33,3.38-1.51,3.38-5.33-1.55-5.29-3.38-5.29Z"/>
    <path class="cls-3" d="M430.42,135.65h-3.92v13.93h-4.54v-13.93h-2.38v-3.1l2.38-.43v-1.51c0-4.61,2.34-6.98,6.48-6.98,1.69,0,2.63.47,2.95.65l-.72,3.6c-.22-.11-.94-.43-1.73-.43-1.62,0-2.45.79-2.45,3.02v1.58h4.36l-.43,3.6Z"/>
    <path class="cls-3" d="M443.06,135.65h-4.03v7.09c0,2.56.68,3.38,2.34,3.38.83,0,1.55-.22,1.83-.32l.32,3.35c-.36.18-1.37.79-3.35.79-3.92,0-5.69-1.8-5.69-6.77v-7.52h-2.38v-3.1l2.38-.43.5-4.9h4.03v4.82h4.43l-.4,3.6Z"/>
    <path class="cls-3" d="M464.26,149.58h-3.74l-2.81-8.17h-.07l-3.17,8.17h-3.74l-6.08-17.53h4.9l3.38,11.7h.07l2.99-7.31-1.51-4.39h4.46l3.6,11.7h.07l3.28-11.7h4.46l-6.08,17.53Z"/>
    <path class="cls-3" d="M479.96,139.43h.72v-.61c0-2.27-.97-3.42-2.95-3.42-2.16,0-3.53,1.12-4.14,1.69l-1.4-2.88c.83-.86,2.88-2.59,6.48-2.59,4.1,0,6.41,2.3,6.41,7.34v5.9c0,2.02.14,3.6.29,4.72h-4.17c-.04-.5-.11-1.26-.11-1.94h-.07c-.61,1.08-1.69,2.38-4.17,2.38-2.88,0-4.9-2.09-4.9-5.26,0-3.67,3.53-5.33,8.03-5.33ZM480.68,145.4v-3.24l-.9.04c-2.34.11-3.56.72-3.56,2.12,0,1.26.83,2.16,1.91,2.16,1.3,0,2.05-.54,2.56-1.08Z"/>
    <path class="cls-3" d="M499.29,135.83c-.14-.07-.61-.22-1.33-.22-2.02,0-3.24.86-3.85,1.8v12.17h-4.54v-17.53h4.18v2.45h.07c.79-1.58,2.02-2.77,4.36-2.77.65,0,1.26.11,1.44.14l-.32,3.96Z"/>
    <path class="cls-3" d="M515.17,142.06h-9.39c.25,2.95,1.87,4.14,4.75,4.14,2.27,0,3.71-1.04,4.17-1.4l1.04,3.17c-.54.5-2.09,2.05-6.23,2.05-4.75,0-8.13-2.66-8.13-9.32,0-6.23,3.64-9.07,7.99-9.07,3.78,0,6.08,2.41,6.08,7.02,0,1.58-.14,2.59-.29,3.42ZM505.74,139.03h5.65c.04-.32.04-.58.04-.83,0-1.87-.9-3.06-2.48-3.06-1.8,0-3.1,1.3-3.2,3.89Z"/>
  </g>
</svg>
