<?xml version="1.0" encoding="utf-8"?>
<!-- Generator: Adobe Illustrator 27.8.1, SVG Export Plug-In . SVG Version: 6.00 Build 0)  -->
<svg version="1.1" id="Ebene_1" xmlns="http://www.w3.org/2000/svg" xmlns:xlink="http://www.w3.org/1999/xlink" x="0px" y="0px"
	 viewBox="0 0 597.7 201" style="enable-background:new 0 0 597.7 201;" xml:space="preserve">
<style type="text/css">
	.st0{fill:#78A2CF;}
	.st1{fill:url(#SVGID_1_);}
	.st2{fill:url(#SVGID_00000153690945357075624380000003608536867473977742_);}
	.st3{fill:#5488C3;}
	.st4{fill:url(#SVGID_00000172423937377734252410000003735972538986541485_);}
	.st5{fill:url(#SVGID_00000060715873097646019320000010883349668308911755_);}
	.st6{fill:url(#SVGID_00000136393856716779074270000006029127303660841630_);}
	.st7{fill:url(#SVGID_00000158027819244184819940000006562106279784555909_);}
	.st8{fill:url(#SVGID_00000027569064245718541000000011892608424531755138_);}
	.st9{fill:url(#SVGID_00000139261993044268003170000000645057721005259155_);}
	.st10{fill:url(#SVGID_00000127007721038888711880000017570503859427875518_);}
	.st11{fill:url(#SVGID_00000033359506536519684650000003208349641526175907_);}
	.st12{fill:url(#SVGID_00000020363338386104783330000001374799504374496662_);}
	.st13{fill:url(#SVGID_00000153707468795953137590000002078865549931763858_);}
	.st14{fill:url(#SVGID_00000134934358200451548070000003727767091515969673_);}
	.st15{fill:url(#SVGID_00000036935873700611621030000005563827073985436845_);}
	.st16{fill:#5CAB2F;}
	.st17{fill:url(#SVGID_00000170963314870034924600000005881908043017208996_);}
	.st18{fill:url(#SVGID_00000032622498123756979260000008502724143086752405_);}
	.st19{fill:url(#SVGID_00000041999853693385785580000012039427703941165189_);}
	.st20{fill:url(#SVGID_00000057146483758387637950000014187364844991527328_);}
	.st21{fill:url(#SVGID_00000050647333512500519740000007030498008650704815_);}
	.st22{fill:url(#SVGID_00000175292552534882048810000004838391488416909237_);}
	.st23{fill:url(#SVGID_00000181087237979257516470000012652586706808569781_);}
	.st24{fill:url(#SVGID_00000178900768729071933830000009353562446750027139_);}
	.st25{fill:url(#SVGID_00000026857193754488241600000002747366842974726792_);}
	.st26{fill:url(#SVGID_00000054224810012194001030000014993288359485215135_);}
	.st27{fill:url(#SVGID_00000071554293773725668770000009977600408970832001_);}
	.st28{fill:url(#SVGID_00000080924445288746309640000010100421549627577489_);}
	.st29{fill:#5588C6;}
	.st30{fill:#91C46D;}
	.st31{fill:#FFFFFF;}
	.st32{fill:url(#SVGID_00000095301619303859841030000014658809044068209071_);}
	.st33{fill:url(#SVGID_00000141413299763757711050000006097910108406790299_);}
</style>
<g>
	<path class="st0" d="M4491.3,1143l-4.7-15.7h-19.4l-4.7,15.7h-13.9l21.6-66.8h14.3l20.8,66.8H4491.3z M4479.8,1102.7l-2.7-12
		c-0.4,1.5-2,8.5-3.1,13.1c-1.2,5-2.1,8.1-3.5,12.5h12.9C4483,1114.9,4480.9,1107.5,4479.8,1102.7z"/>
	<path class="st0" d="M4542.1,1144.3c-1.6-1.1-2.9-2.8-3.8-4.7c-3.1,3-7.7,4.7-12.8,4.7c-6.8,0-12.7-3.2-14.3-7.9
		c-0.8-2.2-1-4.7-1-9.7v-31.8l12.5-2.4v31.9c0,4.4,0.4,6.6,1,8c0.7,1.3,2.6,2.3,4.5,2.3c3.1,0,6.9-2.3,7.9-4.7v-34.8l12.1-2.6v37.8
		c0,3.2,1,6.5,2.9,8.8L4542.1,1144.3z"/>
	<path class="st0" d="M4574.1,1144.5c-6,0-12.5-1.9-19.6-5.6l4.6-9.3c3.9,2.4,10.6,5.5,16.1,5.5c3.6,0,6.5-2.4,6.5-5.5
		c0-3.3-2.4-5-7.5-6l-5.7-1c-3.2-0.6-7.2-2.9-8.9-4.9c-1.7-2.1-2.8-5.6-2.8-8.7c0-10,7.5-16.5,18.8-16.5c7.8,0,12.9,2.4,17.4,4.6
		l-4.2,9c-4.8-2.6-8.4-3.7-12-3.7c-3.7,0-6.2,2-6.2,5c0,2.5,1.6,3.9,6.1,5l5.9,1.5c6,1.5,8,3.3,9.7,5.5c1.8,2.3,2.7,5,2.7,8.3
		C4594.9,1137.7,4586.5,1144.5,4574.1,1144.5z"/>
	<path class="st0" d="M4647.3,1143h-11.7l-4.4-16.7c-1-3.9-2.2-8.5-2.8-11.8l-0.8-4.8c-0.3,2.1-0.4,2.8-1.1,6.3
		c-0.9,4.2-3,12.5-4.2,17.1l-2.5,10h-11.9l-13.3-48.4l12.6-1.4l4,19.3c1.1,5,2.5,13.2,2.8,15.1c0.6-3.7,2-11.5,3.5-16.9l4.6-17h12
		l3.9,16.7c1.9,8.1,3.3,15.6,3.6,17.2c0.3-2.1,1.3-9.7,2.7-15.9l3.7-18h13.1L4647.3,1143z"/>
	<path class="st0" d="M4679.7,1122.7v0.4c0,7.5,3.7,11.8,10.3,11.8c4.4,0,8.4-1.6,12.3-4.8l4.9,7.6c-5.6,4.6-11.5,6.7-18.3,6.7
		c-14,0-23-9.9-23-25.2c0-8.7,1.8-14.7,6.1-19.7c4-4.7,8.8-6.7,15.3-6.7c5.6,0,10.9,1.9,14,5.3c4.5,4.8,6.5,11.6,6.5,21.8v2.9
		H4679.7z M4694.6,1112.8c0-3.6-0.4-5.6-1.5-7.5c-1.2-2-3-3-5.6-3c-4.8,0-7.6,4-7.6,10.8v0.2h14.7V1112.8z"/>
	<path class="st0" d="M4720.4,1088.2c-4.3,0-7.8-3.5-7.8-7.9c0-4.4,3.6-7.9,8-7.9c4.3,0,7.7,3.5,7.7,7.9
		C4728.3,1084.7,4724.8,1088.2,4720.4,1088.2z M4714.1,1143v-48.4l12.7-2v50.4H4714.1z"/>
	<path class="st0" d="M4752.7,1144.5c-6,0-12.5-1.9-19.6-5.6l4.6-9.3c3.9,2.4,10.6,5.5,16.1,5.5c3.6,0,6.5-2.4,6.5-5.5
		c0-3.3-2.4-5-7.5-6l-5.7-1c-3.2-0.6-7.2-2.9-8.9-4.9c-1.7-2.1-2.8-5.6-2.8-8.7c0-10,7.5-16.5,18.8-16.5c7.8,0,12.9,2.4,17.4,4.6
		l-4.2,9c-4.8-2.6-8.4-3.7-12-3.7c-3.7,0-6.2,2-6.2,5c0,2.5,1.6,3.9,6.1,5l5.9,1.5c6,1.5,8,3.3,9.7,5.5c1.8,2.3,2.7,5,2.7,8.3
		C4773.5,1137.7,4765.1,1144.5,4752.7,1144.5z"/>
	<path class="st0" d="M4819,1143l-4.7-15.7H4795l-4.7,15.7h-13.9l21.6-66.8h14.3l20.8,66.8H4819z M4807.5,1102.7l-2.7-12
		c-0.4,1.5-2,8.5-3.1,13.1c-1.2,5-2.1,8.1-3.5,12.5h12.9C4810.7,1114.9,4808.6,1107.5,4807.5,1102.7z"/>
	<path class="st0" d="M4875.3,1138.5c-3.3,3.5-7.7,5.5-13,5.5c-3.8,0-7.4-1-10.2-2.6c0.2,1.1,0.2,2.6,0.2,4v15.2l-12.2,3.2v-56.2
		c0-6.7-0.1-8.6-0.8-12.8l11.3-2c0.5,1.7,0.8,3.1,0.9,4.7c2.2-2.8,7-4.7,12-4.7c3.4,0,6.9,1.1,9.6,3c5.2,3.7,9,10.3,9,21.6
		C4882,1127.8,4880.3,1133.1,4875.3,1138.5z M4867,1107.8c-1-2.8-2.9-4.3-6.1-4.3c-3.1,0-6.2,1.4-8.4,3.9v23.7
		c1.7,1.4,4.5,2.8,7,2.8c6.3,0,8.7-4.3,8.7-15.4C4868.2,1113.9,4867.8,1110.2,4867,1107.8z"/>
	<path class="st0" d="M4923,1138.5c-3.3,3.5-7.7,5.5-13,5.5c-3.8,0-7.4-1-10.2-2.6c0.2,1.1,0.2,2.6,0.2,4v15.2l-12.2,3.2v-56.2
		c0-6.7-0.1-8.6-0.8-12.8l11.3-2c0.5,1.7,0.8,3.1,0.9,4.7c2.2-2.8,7-4.7,12-4.7c3.4,0,6.9,1.1,9.6,3c5.2,3.7,9,10.3,9,21.6
		C4929.7,1127.8,4928,1133.1,4923,1138.5z M4914.6,1107.8c-0.9-2.8-2.9-4.3-6.1-4.3c-3.1,0-6.2,1.4-8.4,3.9v23.7
		c1.7,1.4,4.5,2.8,7,2.8c6.3,0,8.7-4.3,8.7-15.4C4915.8,1113.9,4915.5,1110.2,4914.6,1107.8z"/>
</g>
<g>
	<linearGradient id="SVGID_1_" gradientUnits="userSpaceOnUse" x1="5108.4688" y1="2272.7644" x2="5108.4688" y2="2174.9041">
		<stop  offset="0" style="stop-color:#588CC5"/>
		<stop  offset="3.661215e-02" style="stop-color:#5C90C8"/>
		<stop  offset="0.2426" style="stop-color:#70A4D4"/>
		<stop  offset="0.4618" style="stop-color:#7EB1DC"/>
		<stop  offset="0.7015" style="stop-color:#86BAE1"/>
		<stop  offset="1" style="stop-color:#89BCE2"/>
	</linearGradient>
	<path class="st1" d="M5086.2,2174.9v17.3c15.5,2.2,27.4,15.5,27.4,31.6s-11.9,29.4-27.4,31.6v17.3c25-2.3,44.6-23.3,44.6-48.9
		C5130.7,2198.2,5111.2,2177.2,5086.2,2174.9z"/>
</g>
<g>
	
		<linearGradient id="SVGID_00000130608899190920982190000004299477564746931378_" gradientUnits="userSpaceOnUse" x1="5054.7427" y1="2272.7668" x2="5054.7427" y2="2174.9014">
		<stop  offset="0" style="stop-color:#5EAD2D"/>
		<stop  offset="0.1421" style="stop-color:#71B340"/>
		<stop  offset="0.3254" style="stop-color:#81BA53"/>
		<stop  offset="0.5207" style="stop-color:#8CBF62"/>
		<stop  offset="0.7342" style="stop-color:#93C36B"/>
		<stop  offset="1" style="stop-color:#95C46E"/>
	</linearGradient>
	<path style="fill:url(#SVGID_00000130608899190920982190000004299477564746931378_);" d="M5077,2255.5
		c-15.5-2.2-27.4-15.5-27.4-31.6s11.9-29.4,27.4-31.6v-17.3c-25,2.3-44.6,23.3-44.6,48.9c0,25.6,19.6,46.6,44.6,48.9V2255.5z"/>
</g>
<path class="st3" d="M5509.9,2290.8h-476.6c-10.2,0-18.6-8.3-18.6-18.6v-96.9c0-10.2,8.3-18.6,18.6-18.6h476.6
	c10.2,0,18.6,8.3,18.6,18.6v96.9C5528.4,2282.5,5520.1,2290.8,5509.9,2290.8z M5033.3,2160.8c-8,0-14.6,6.5-14.6,14.6v96.9
	c0,8,6.5,14.6,14.6,14.6h476.6c8,0,14.6-6.5,14.6-14.6v-96.9c0-8-6.5-14.6-14.6-14.6H5033.3z"/>
<rect x="5151.6" y="2172.9" style="fill:none;" width="529.1" height="63.5"/>
<text transform="matrix(1 0 0 1 5151.5996 2223.1155)"><tspan x="0" y="0" class="st3" style="font-family:'BundesSans-Bold'; font-size:68px;">Auswei</tspan><tspan x="207" y="0" class="st3" style="font-family:'BundesSans-Bold'; font-size:68px; letter-spacing:4;">s</tspan><tspan x="239.1" y="0" class="st3" style="font-family:'BundesSans-Bold'; font-size:68px; letter-spacing:1;">A</tspan><tspan x="282.3" y="0" class="st3" style="font-family:'BundesSans-Bold'; font-size:68px;">p</tspan><tspan x="318.1" y="0" class="st3" style="font-family:'BundesSans-Bold'; font-size:68px; letter-spacing:1;">p</tspan></text>
<g>
	
		<linearGradient id="SVGID_00000096024530983554936080000006786586417496761004_" gradientUnits="userSpaceOnUse" x1="5669.4487" y1="1908.1405" x2="5669.4487" y2="1810.28">
		<stop  offset="0" style="stop-color:#588CC5"/>
		<stop  offset="3.661215e-02" style="stop-color:#5C90C8"/>
		<stop  offset="0.2426" style="stop-color:#70A4D4"/>
		<stop  offset="0.4618" style="stop-color:#7EB1DC"/>
		<stop  offset="0.7015" style="stop-color:#86BAE1"/>
		<stop  offset="1" style="stop-color:#89BCE2"/>
	</linearGradient>
	<path style="fill:url(#SVGID_00000096024530983554936080000006786586417496761004_);" d="M5647.2,1810.3v17.3
		c15.5,2.2,27.4,15.5,27.4,31.6c0,16.1-11.9,29.4-27.4,31.6v17.3c25-2.3,44.6-23.3,44.6-48.9S5672.2,1812.6,5647.2,1810.3z"/>
</g>
<g>
	
		<linearGradient id="SVGID_00000156586165489806913710000017779152820909704884_" gradientUnits="userSpaceOnUse" x1="5615.7222" y1="1908.1431" x2="5615.7222" y2="1810.2775">
		<stop  offset="0" style="stop-color:#5EAD2D"/>
		<stop  offset="0.1421" style="stop-color:#71B340"/>
		<stop  offset="0.3254" style="stop-color:#81BA53"/>
		<stop  offset="0.5207" style="stop-color:#8CBF62"/>
		<stop  offset="0.7342" style="stop-color:#93C36B"/>
		<stop  offset="1" style="stop-color:#95C46E"/>
	</linearGradient>
	<path style="fill:url(#SVGID_00000156586165489806913710000017779152820909704884_);" d="M5638,1890.8
		c-15.5-2.2-27.4-15.5-27.4-31.6s11.9-29.4,27.4-31.6v-17.3c-25,2.3-44.6,23.3-44.6,48.9c0,25.6,19.6,46.6,44.6,48.9V1890.8z"/>
</g>
<path class="st3" d="M5691.1,1926.2h-96.9c-10.2,0-18.6-8.3-18.6-18.6v-96.9c0-10.2,8.3-18.6,18.6-18.6h96.9
	c10.2,0,18.6,8.3,18.6,18.6v96.9C5709.7,1917.9,5701.4,1926.2,5691.1,1926.2z M5594.3,1796.2c-8,0-14.6,6.5-14.6,14.6v96.9
	c0,8,6.5,14.6,14.6,14.6h96.9c8,0,14.6-6.5,14.6-14.6v-96.9c0-8-6.5-14.6-14.6-14.6H5594.3z"/>
<rect x="4996.1" y="1104.2" style="fill:none;" width="1246.5" height="80.9"/>
<text transform="matrix(1 0 0 1 4996.0781 1147.8691)" class="st0" style="font-family:'BundesSans-Bold'; font-size:61px;">Anwendung eID-Client/App des Bundes</text>
<rect x="5180.6" y="1796.2" style="fill:none;" width="529.1" height="63.5"/>
<text transform="matrix(1 0 0 1 5180.5898 1846.3813)"><tspan x="0" y="0" class="st3" style="font-family:'BundesSans-Bold'; font-size:68px;">Auswei</tspan><tspan x="207" y="0" class="st3" style="font-family:'BundesSans-Bold'; font-size:68px; letter-spacing:4;">s</tspan><tspan x="239.1" y="0" class="st16" style="font-family:'BundesSans-Bold'; font-size:68px; letter-spacing:1;">A</tspan><tspan x="282.3" y="0" class="st16" style="font-family:'BundesSans-Bold'; font-size:68px;">p</tspan><tspan x="318.1" y="0" class="st16" style="font-family:'BundesSans-Bold'; font-size:68px; letter-spacing:1;">p</tspan></text>
<g>
	
		<linearGradient id="SVGID_00000165231138897206195480000013308360157690140834_" gradientUnits="userSpaceOnUse" x1="5108.4688" y1="2649.2781" x2="5108.4688" y2="2551.4177">
		<stop  offset="0" style="stop-color:#588CC5"/>
		<stop  offset="3.661215e-02" style="stop-color:#5C90C8"/>
		<stop  offset="0.2426" style="stop-color:#70A4D4"/>
		<stop  offset="0.4618" style="stop-color:#7EB1DC"/>
		<stop  offset="0.7015" style="stop-color:#86BAE1"/>
		<stop  offset="1" style="stop-color:#89BCE2"/>
	</linearGradient>
	<path style="fill:url(#SVGID_00000165231138897206195480000013308360157690140834_);" d="M5086.2,2551.4v17.3
		c15.5,2.2,27.4,15.5,27.4,31.6s-11.9,29.4-27.4,31.6v17.3c25-2.3,44.6-23.3,44.6-48.9S5111.2,2553.7,5086.2,2551.4z"/>
</g>
<g>
	
		<linearGradient id="SVGID_00000013914642129985551440000009867452452781691778_" gradientUnits="userSpaceOnUse" x1="5054.7427" y1="2649.2808" x2="5054.7427" y2="2551.415">
		<stop  offset="0" style="stop-color:#5EAD2D"/>
		<stop  offset="0.1421" style="stop-color:#71B340"/>
		<stop  offset="0.3254" style="stop-color:#81BA53"/>
		<stop  offset="0.5207" style="stop-color:#8CBF62"/>
		<stop  offset="0.7342" style="stop-color:#93C36B"/>
		<stop  offset="1" style="stop-color:#95C46E"/>
	</linearGradient>
	<path style="fill:url(#SVGID_00000013914642129985551440000009867452452781691778_);" d="M5077,2632c-15.5-2.2-27.4-15.5-27.4-31.6
		s11.9-29.4,27.4-31.6v-17.3c-25,2.3-44.6,23.3-44.6,48.9c0,25.6,19.6,46.6,44.6,48.9V2632z"/>
</g>
<path class="st3" d="M5509.9,2667.3h-476.6c-10.2,0-18.6-8.3-18.6-18.6v-96.9c0-10.2,8.3-18.6,18.6-18.6h476.6
	c10.2,0,18.6,8.3,18.6,18.6v96.9C5528.4,2659,5520.1,2667.3,5509.9,2667.3z M5033.3,2537.3c-8,0-14.6,6.5-14.6,14.6v96.9
	c0,8,6.5,14.6,14.6,14.6h476.6c8,0,14.6-6.5,14.6-14.6v-96.9c0-8-6.5-14.6-14.6-14.6H5033.3z"/>
<g>
	
		<linearGradient id="SVGID_00000045602698167003556450000017248351997945571469_" gradientUnits="userSpaceOnUse" x1="5108.4688" y1="3025.7917" x2="5108.4688" y2="2927.9314">
		<stop  offset="0" style="stop-color:#588CC5"/>
		<stop  offset="3.661215e-02" style="stop-color:#5C90C8"/>
		<stop  offset="0.2426" style="stop-color:#70A4D4"/>
		<stop  offset="0.4618" style="stop-color:#7EB1DC"/>
		<stop  offset="0.7015" style="stop-color:#86BAE1"/>
		<stop  offset="1" style="stop-color:#89BCE2"/>
	</linearGradient>
	<path style="fill:url(#SVGID_00000045602698167003556450000017248351997945571469_);" d="M5086.2,2927.9v17.3
		c15.5,2.2,27.4,15.5,27.4,31.6s-11.9,29.4-27.4,31.6v17.3c25-2.3,44.6-23.3,44.6-48.9S5111.2,2930.2,5086.2,2927.9z"/>
</g>
<g>
	
		<linearGradient id="SVGID_00000028302301594822280950000001976921046496946830_" gradientUnits="userSpaceOnUse" x1="5054.7427" y1="3025.7944" x2="5054.7427" y2="2927.929">
		<stop  offset="0" style="stop-color:#5EAD2D"/>
		<stop  offset="0.1421" style="stop-color:#71B340"/>
		<stop  offset="0.3254" style="stop-color:#81BA53"/>
		<stop  offset="0.5207" style="stop-color:#8CBF62"/>
		<stop  offset="0.7342" style="stop-color:#93C36B"/>
		<stop  offset="1" style="stop-color:#95C46E"/>
	</linearGradient>
	<path style="fill:url(#SVGID_00000028302301594822280950000001976921046496946830_);" d="M5077,3008.5
		c-15.5-2.2-27.4-15.5-27.4-31.6s11.9-29.4,27.4-31.6v-17.3c-25,2.3-44.6,23.3-44.6,48.9c0,25.6,19.6,46.6,44.6,48.9V3008.5z"/>
</g>
<path class="st3" d="M5509.9,3043.9h-476.6c-10.2,0-18.6-8.3-18.6-18.6v-96.9c0-10.2,8.3-18.6,18.6-18.6h476.6
	c10.2,0,18.6,8.3,18.6,18.6v96.9C5528.4,3035.5,5520.1,3043.9,5509.9,3043.9z M5033.3,2913.9c-8,0-14.6,6.5-14.6,14.6v96.9
	c0,8,6.5,14.6,14.6,14.6h476.6c8,0,14.6-6.5,14.6-14.6v-96.9c0-8-6.5-14.6-14.6-14.6H5033.3z"/>
<g>
	
		<linearGradient id="SVGID_00000088843460273479728260000009482164446529014663_" gradientUnits="userSpaceOnUse" x1="2758.8909" y1="2272.7644" x2="2758.8909" y2="2174.9041">
		<stop  offset="0" style="stop-color:#588CC5"/>
		<stop  offset="3.661215e-02" style="stop-color:#5C90C8"/>
		<stop  offset="0.2426" style="stop-color:#70A4D4"/>
		<stop  offset="0.4618" style="stop-color:#7EB1DC"/>
		<stop  offset="0.7015" style="stop-color:#86BAE1"/>
		<stop  offset="1" style="stop-color:#89BCE2"/>
	</linearGradient>
	<path style="fill:url(#SVGID_00000088843460273479728260000009482164446529014663_);" d="M2736.6,2174.9v17.3
		c15.5,2.2,27.4,15.5,27.4,31.6s-11.9,29.4-27.4,31.6v17.3c25-2.3,44.6-23.3,44.6-48.9C2781.2,2198.2,2761.6,2177.2,2736.6,2174.9z"
		/>
</g>
<g>
	
		<linearGradient id="SVGID_00000139993903124316956130000008475241749550860437_" gradientUnits="userSpaceOnUse" x1="2705.1646" y1="2272.7668" x2="2705.1646" y2="2174.9014">
		<stop  offset="0" style="stop-color:#5EAD2D"/>
		<stop  offset="0.1421" style="stop-color:#71B340"/>
		<stop  offset="0.3254" style="stop-color:#81BA53"/>
		<stop  offset="0.5207" style="stop-color:#8CBF62"/>
		<stop  offset="0.7342" style="stop-color:#93C36B"/>
		<stop  offset="1" style="stop-color:#95C46E"/>
	</linearGradient>
	<path style="fill:url(#SVGID_00000139993903124316956130000008475241749550860437_);" d="M2727.5,2255.5
		c-15.5-2.2-27.4-15.5-27.4-31.6s11.9-29.4,27.4-31.6v-17.3c-25,2.3-44.6,23.3-44.6,48.9c0,25.6,19.6,46.6,44.6,48.9V2255.5z"/>
</g>
<path class="st3" d="M3160.3,2290.8h-476.6c-10.2,0-18.6-8.3-18.6-18.6v-96.9c0-10.2,8.3-18.6,18.6-18.6h476.6
	c10.2,0,18.6,8.3,18.6,18.6v96.9C3178.9,2282.5,3170.5,2290.8,3160.3,2290.8z M2683.7,2160.8c-8,0-14.6,6.5-14.6,14.6v96.9
	c0,8,6.5,14.6,14.6,14.6h476.6c8,0,14.6-6.5,14.6-14.6v-96.9c0-8-6.5-14.6-14.6-14.6H2683.7z"/>
<g>
	
		<linearGradient id="SVGID_00000171702426666497063860000000708881653077545138_" gradientUnits="userSpaceOnUse" x1="1662.047" y1="1908.1405" x2="1662.047" y2="1810.28">
		<stop  offset="0" style="stop-color:#588CC5"/>
		<stop  offset="3.661215e-02" style="stop-color:#5C90C8"/>
		<stop  offset="0.2426" style="stop-color:#70A4D4"/>
		<stop  offset="0.4618" style="stop-color:#7EB1DC"/>
		<stop  offset="0.7015" style="stop-color:#86BAE1"/>
		<stop  offset="1" style="stop-color:#89BCE2"/>
	</linearGradient>
	<path style="fill:url(#SVGID_00000171702426666497063860000000708881653077545138_);" d="M1639.8,1810.3v17.3
		c15.5,2.2,27.4,15.5,27.4,31.6c0,16.1-11.9,29.4-27.4,31.6v17.3c25-2.3,44.6-23.3,44.6-48.9S1664.8,1812.6,1639.8,1810.3z"/>
</g>
<g>
	
		<linearGradient id="SVGID_00000153663020810377276840000009184396057456407448_" gradientUnits="userSpaceOnUse" x1="1608.3206" y1="1908.1431" x2="1608.3206" y2="1810.2775">
		<stop  offset="0" style="stop-color:#5EAD2D"/>
		<stop  offset="0.1421" style="stop-color:#71B340"/>
		<stop  offset="0.3254" style="stop-color:#81BA53"/>
		<stop  offset="0.5207" style="stop-color:#8CBF62"/>
		<stop  offset="0.7342" style="stop-color:#93C36B"/>
		<stop  offset="1" style="stop-color:#95C46E"/>
	</linearGradient>
	<path style="fill:url(#SVGID_00000153663020810377276840000009184396057456407448_);" d="M1630.6,1890.8
		c-15.5-2.2-27.4-15.5-27.4-31.6s11.9-29.4,27.4-31.6v-17.3c-25,2.3-44.6,23.3-44.6,48.9c0,25.6,19.6,46.6,44.6,48.9V1890.8z"/>
</g>
<path class="st3" d="M1683.7,1926.2h-96.9c-10.2,0-18.6-8.3-18.6-18.6v-96.9c0-10.2,8.3-18.6,18.6-18.6h96.9
	c10.2,0,18.6,8.3,18.6,18.6v96.9C1702.3,1917.9,1694,1926.2,1683.7,1926.2z M1586.8,1796.2c-8,0-14.6,6.5-14.6,14.6v96.9
	c0,8,6.5,14.6,14.6,14.6h96.9c8,0,14.6-6.5,14.6-14.6v-96.9c0-8-6.5-14.6-14.6-14.6H1586.8z"/>
<rect x="1734.2" y="1805.1" style="fill:none;" width="529.1" height="63.5"/>
<text transform="matrix(1 0 0 1 1734.1667 1855.2609)"><tspan x="0" y="0" class="st3" style="font-family:'BundesSans-Bold'; font-size:68px;">Auswei</tspan><tspan x="207" y="0" class="st3" style="font-family:'BundesSans-Bold'; font-size:68px; letter-spacing:4;">s</tspan><tspan x="239.1" y="0" class="st3" style="font-family:'BundesSans-Bold'; font-size:68px; letter-spacing:1;">A</tspan><tspan x="282.3" y="0" class="st3" style="font-family:'BundesSans-Bold'; font-size:68px;">p</tspan><tspan x="318.1" y="0" class="st3" style="font-family:'BundesSans-Bold'; font-size:68px; letter-spacing:1;">p</tspan></text>
<g>
	
		<linearGradient id="SVGID_00000031168560519626057420000004061368184229487271_" gradientUnits="userSpaceOnUse" x1="3827.001" y1="1908.1405" x2="3827.001" y2="1810.28">
		<stop  offset="0" style="stop-color:#588CC5"/>
		<stop  offset="3.661215e-02" style="stop-color:#5C90C8"/>
		<stop  offset="0.2426" style="stop-color:#70A4D4"/>
		<stop  offset="0.4618" style="stop-color:#7EB1DC"/>
		<stop  offset="0.7015" style="stop-color:#86BAE1"/>
		<stop  offset="1" style="stop-color:#89BCE2"/>
	</linearGradient>
	<path style="fill:url(#SVGID_00000031168560519626057420000004061368184229487271_);" d="M3804.7,1810.3v17.3
		c15.5,2.2,27.4,15.5,27.4,31.6c0,16.1-11.9,29.4-27.4,31.6v17.3c25-2.3,44.6-23.3,44.6-48.9S3829.7,1812.6,3804.7,1810.3z"/>
</g>
<g>
	
		<linearGradient id="SVGID_00000132052978943099715190000008770435587555178173_" gradientUnits="userSpaceOnUse" x1="3773.2747" y1="1908.1431" x2="3773.2747" y2="1810.2775">
		<stop  offset="0" style="stop-color:#5EAD2D"/>
		<stop  offset="0.1421" style="stop-color:#71B340"/>
		<stop  offset="0.3254" style="stop-color:#81BA53"/>
		<stop  offset="0.5207" style="stop-color:#8CBF62"/>
		<stop  offset="0.7342" style="stop-color:#93C36B"/>
		<stop  offset="1" style="stop-color:#95C46E"/>
	</linearGradient>
	<path style="fill:url(#SVGID_00000132052978943099715190000008770435587555178173_);" d="M3795.6,1890.8
		c-15.5-2.2-27.4-15.5-27.4-31.6s11.9-29.4,27.4-31.6v-17.3c-25,2.3-44.6,23.3-44.6,48.9c0,25.6,19.6,46.6,44.6,48.9V1890.8z"/>
</g>
<path class="st3" d="M3848.7,1926.2h-96.9c-10.2,0-18.6-8.3-18.6-18.6v-96.9c0-10.2,8.3-18.6,18.6-18.6h96.9
	c10.2,0,18.6,8.3,18.6,18.6v96.9C3867.2,1917.9,3858.9,1926.2,3848.7,1926.2z M3751.8,1796.2c-8,0-14.6,6.5-14.6,14.6v96.9
	c0,8,6.5,14.6,14.6,14.6h96.9c8,0,14.6-6.5,14.6-14.6v-96.9c0-8-6.5-14.6-14.6-14.6H3751.8z"/>
<rect x="3899.1" y="1805.1" style="fill:none;" width="529.1" height="63.5"/>
<text transform="matrix(1 0 0 1 3899.1216 1855.2604)"><tspan x="0" y="0" class="st3" style="font-family:'BundesSans-Bold'; font-size:68px;">Auswei</tspan><tspan x="207" y="0" class="st3" style="font-family:'BundesSans-Bold'; font-size:68px; letter-spacing:4;">s</tspan><tspan x="239.1" y="0" class="st3" style="font-family:'BundesSans-Bold'; font-size:68px; letter-spacing:1;">A</tspan><tspan x="282.3" y="0" class="st3" style="font-family:'BundesSans-Bold'; font-size:68px;">p</tspan><tspan x="318.1" y="0" class="st3" style="font-family:'BundesSans-Bold'; font-size:68px; letter-spacing:1;">p</tspan></text>
<g>
	<path class="st16" d="M3916.3,1904.8l-2.2-6.8h-7.8l-2.2,6.8h-4.9l9.3-25.2h3.8l9.2,25.2H3916.3z M3910.3,1885.9L3910.3,1885.9
		l-2.8,8.6h5.6L3910.3,1885.9z"/>
	<path class="st16" d="M3934.8,1904.8v-10.5c0-2.6-0.9-3.8-2.8-3.8c-1.5,0-2.6,0.6-3.2,1.2v13h-4.6v-17.8h4.2v2h0.1
		c0.7-0.9,2.2-2.4,5.1-2.4c3.8,0,5.8,2.5,5.8,6.9v11.3H3934.8z"/>
	<path class="st16" d="M3961.5,1904.8h-3.8l-2.8-8.3h-0.1l-3.2,8.3h-3.8l-6.2-17.8h5l3.4,11.8h0.1l3-7.4l-1.5-4.4h4.5l3.6,11.8h0.1
		l3.3-11.8h4.5L3961.5,1904.8z"/>
	<path class="st16" d="M3983.1,1897.2h-9.5c0.3,3,1.9,4.2,4.8,4.2c2.3,0,3.8-1.1,4.2-1.4l1.1,3.2c-0.5,0.5-2.1,2.1-6.3,2.1
		c-4.8,0-8.2-2.7-8.2-9.4c0-6.3,3.7-9.2,8.1-9.2c3.8,0,6.2,2.4,6.2,7.1C3983.4,1895.3,3983.3,1896.4,3983.1,1897.2z M3973.6,1894.1
		h5.7c0-0.3,0-0.6,0-0.8c0-1.9-0.9-3.1-2.5-3.1C3975,1890.2,3973.7,1891.5,3973.6,1894.1z"/>
	<path class="st16" d="M3998.2,1904.8v-10.5c0-2.6-0.9-3.8-2.8-3.8c-1.5,0-2.6,0.6-3.2,1.2v13h-4.6v-17.8h4.2v2h0.1
		c0.7-0.9,2.2-2.4,5.1-2.4c3.8,0,5.8,2.5,5.8,6.9v11.3H3998.2z"/>
	<path class="st16" d="M4014.6,1886.6c1.5,0,2.4,0.4,3.1,0.8v-8.3l4.6-0.4v26.1h-4.2v-2h-0.1c-0.4,0.7-1.6,2.4-4.8,2.4
		c-4,0-6.8-3.1-6.8-9.3C4006.4,1889.8,4010.3,1886.6,4014.6,1886.6z M4017.7,1900.1v-9.1c-0.5-0.4-1.3-0.7-2.4-0.7
		c-2.4,0-4.2,1.8-4.2,5.4c0,4,1.5,5.5,3.4,5.5C4016.1,1901.3,4017.1,1900.7,4017.7,1900.1z"/>
	<path class="st16" d="M4041.9,1904.8h-4.2v-2h-0.1c-0.7,0.9-2.1,2.4-5.1,2.4c-3.8,0-5.8-2.5-5.8-6.9v-11.3h4.6v10.5
		c0,2.7,0.8,3.8,2.8,3.8c1.5,0,2.4-0.6,3.1-1.2v-13.1h4.6V1904.8z"/>
	<path class="st16" d="M4057.3,1904.8v-10.5c0-2.6-0.9-3.8-2.8-3.8c-1.5,0-2.6,0.6-3.2,1.2v13h-4.6v-17.8h4.2v2h0.1
		c0.7-0.9,2.2-2.4,5.1-2.4c3.8,0,5.8,2.5,5.8,6.9v11.3H4057.3z"/>
	<path class="st16" d="M4081.3,1889.9h-2.2c0.5,0.8,0.7,1.8,0.7,2.8c0,4.1-3.1,6.1-7.1,6.1c-0.6,0-1.2,0-1.7-0.1
		c-0.4,0.3-0.8,0.7-0.8,1.3c0,0.6,0.4,1,1.3,1h3.8c3.8,0,6.1,1.5,6.1,4.8c0,3.6-3.4,6.7-9.9,6.7c-4.7,0-6.9-1.7-6.9-4.7
		c0-2.3,1.8-3.5,2.8-4v-0.1c-0.7-0.6-1.1-1.4-1.1-2.4c0-2,1.6-3.1,2.2-3.5v0c-1.8-0.9-3-2.7-3-5.2c0-4.2,3.2-6.1,7.1-6.1
		c1,0,1.9,0.1,2.7,0.4h6.2L4081.3,1889.9z M4069.6,1904.6c-0.5,0.4-1,1.1-1,2.2c0,1.8,1.2,2.4,3.5,2.4c3.5,0,5.3-1.2,5.3-2.8
		c0-1.2-0.7-1.7-2.5-1.7h-3.8C4070.5,1904.7,4070,1904.6,4069.6,1904.6z M4072.8,1889.8c-1.6,0-3.1,0.8-3.1,2.9c0,2,1.5,2.8,3,2.8
		c1.6,0,3-0.8,3-2.8C4075.7,1890.7,4074.3,1889.8,4072.8,1889.8z"/>
	<path class="st16" d="M4105.5,1897.2h-9.5c0.3,3,1.9,4.2,4.8,4.2c2.3,0,3.8-1.1,4.2-1.4l1.1,3.2c-0.5,0.5-2.1,2.1-6.3,2.1
		c-4.8,0-8.2-2.7-8.2-9.4c0-6.3,3.7-9.2,8.1-9.2c3.8,0,6.2,2.4,6.2,7.1C4105.8,1895.3,4105.6,1896.4,4105.5,1897.2z M4095.9,1894.1
		h5.7c0-0.3,0-0.6,0-0.8c0-1.9-0.9-3.1-2.5-3.1C4097.4,1890.2,4096.1,1891.5,4095.9,1894.1z"/>
	<path class="st16" d="M4112.2,1883.2h-3v-3.5h10.9v3.5h-3v18.1h3v3.5h-10.9v-3.5h3V1883.2z"/>
	<path class="st16" d="M4124.7,1904.8v-25.2h6c9.6,0,13.9,3.5,13.9,12.2c0,9.1-5.5,12.9-14.3,12.9H4124.7z M4129.6,1883.7v17.1h0.8
		c6,0,9.1-2.4,9.1-8.9c0-6.1-3-8.2-8.8-8.2H4129.6z"/>
	<path class="st16" d="M4158.7,1895.5h-10.2v-3.6h10.2V1895.5z"/>
	<path class="st16" d="M4174.9,1879.2c4.3,0,6.3,1.9,6.9,2.4l-1.7,3.7c-0.7-0.7-2.3-2-5-2c-4.1,0-7.4,2.5-7.4,8.7c0,6.5,2.7,9,7,9
		c3,0,4.7-1.3,5.5-1.9l1.3,3.5c-0.8,0.7-2.8,2.6-7.5,2.6c-6.6,0-11.4-3.6-11.4-13.1C4162.6,1883,4168.8,1879.2,4174.9,1879.2z"/>
	<path class="st16" d="M4189.7,1899.1c0,1.9,0.4,2.4,1.6,2.4c0.7,0,1.2-0.2,1.3-0.3l0.3,3.2c-0.4,0.2-1.4,0.7-3.1,0.7
		c-3,0-4.7-1.4-4.7-5.4v-20.6l4.6-0.4V1899.1z"/>
	<path class="st16" d="M4198,1884c-1.6,0-2.7-1-2.7-2.6c0-1.6,1.1-2.7,2.7-2.7c1.6,0,2.7,1,2.7,2.7
		C4200.7,1883,4199.6,1884,4198,1884z M4200.3,1904.8h-4.6v-17.8h4.6V1904.8z"/>
	<path class="st16" d="M4218.1,1897.2h-9.5c0.3,3,1.9,4.2,4.8,4.2c2.3,0,3.8-1.1,4.2-1.4l1.1,3.2c-0.5,0.5-2.1,2.1-6.3,2.1
		c-4.8,0-8.2-2.7-8.2-9.4c0-6.3,3.7-9.2,8.1-9.2c3.8,0,6.2,2.4,6.2,7.1C4218.4,1895.3,4218.2,1896.4,4218.1,1897.2z M4208.5,1894.1
		h5.7c0-0.3,0-0.6,0-0.8c0-1.9-0.9-3.1-2.5-3.1C4210,1890.2,4208.6,1891.5,4208.5,1894.1z"/>
	<path class="st16" d="M4233.1,1904.8v-10.5c0-2.6-0.9-3.8-2.8-3.8c-1.5,0-2.6,0.6-3.2,1.2v13h-4.6v-17.8h4.2v2h0.1
		c0.7-0.9,2.2-2.4,5.1-2.4c3.8,0,5.8,2.5,5.8,6.9v11.3H4233.1z"/>
	<path class="st16" d="M4251.8,1890.7h-4.1v7.2c0,2.6,0.7,3.4,2.4,3.4c0.8,0,1.6-0.2,1.9-0.3l0.3,3.4c-0.4,0.2-1.4,0.8-3.4,0.8
		c-4,0-5.8-1.8-5.8-6.9v-7.6h-2.4v-3.1l2.4-0.4l0.5-5h4.1v4.9h4.5L4251.8,1890.7z"/>
</g>
<g>
	
		<linearGradient id="SVGID_00000021800388583305912140000016078544986488188854_" gradientUnits="userSpaceOnUse" x1="2758.8909" y1="2649.2781" x2="2758.8909" y2="2551.4177">
		<stop  offset="0" style="stop-color:#588CC5"/>
		<stop  offset="3.661215e-02" style="stop-color:#5C90C8"/>
		<stop  offset="0.2426" style="stop-color:#70A4D4"/>
		<stop  offset="0.4618" style="stop-color:#7EB1DC"/>
		<stop  offset="0.7015" style="stop-color:#86BAE1"/>
		<stop  offset="1" style="stop-color:#89BCE2"/>
	</linearGradient>
	<path style="fill:url(#SVGID_00000021800388583305912140000016078544986488188854_);" d="M2736.6,2551.4v17.3
		c15.5,2.2,27.4,15.5,27.4,31.6s-11.9,29.4-27.4,31.6v17.3c25-2.3,44.6-23.3,44.6-48.9S2761.6,2553.7,2736.6,2551.4z"/>
</g>
<g>
	
		<linearGradient id="SVGID_00000054971095971760769100000009245770217781715346_" gradientUnits="userSpaceOnUse" x1="2705.1646" y1="2649.2808" x2="2705.1646" y2="2551.415">
		<stop  offset="0" style="stop-color:#5EAD2D"/>
		<stop  offset="0.1421" style="stop-color:#71B340"/>
		<stop  offset="0.3254" style="stop-color:#81BA53"/>
		<stop  offset="0.5207" style="stop-color:#8CBF62"/>
		<stop  offset="0.7342" style="stop-color:#93C36B"/>
		<stop  offset="1" style="stop-color:#95C46E"/>
	</linearGradient>
	<path style="fill:url(#SVGID_00000054971095971760769100000009245770217781715346_);" d="M2727.5,2632
		c-15.5-2.2-27.4-15.5-27.4-31.6s11.9-29.4,27.4-31.6v-17.3c-25,2.3-44.6,23.3-44.6,48.9c0,25.6,19.6,46.6,44.6,48.9V2632z"/>
</g>
<path class="st3" d="M3160.3,2667.3h-476.6c-10.2,0-18.6-8.3-18.6-18.6v-96.9c0-10.2,8.3-18.6,18.6-18.6h476.6
	c10.2,0,18.6,8.3,18.6,18.6v96.9C3178.9,2659,3170.5,2667.3,3160.3,2667.3z M2683.7,2537.3c-8,0-14.6,6.5-14.6,14.6v96.9
	c0,8,6.5,14.6,14.6,14.6h476.6c8,0,14.6-6.5,14.6-14.6v-96.9c0-8-6.5-14.6-14.6-14.6H2683.7z"/>
<g>
	
		<linearGradient id="SVGID_00000093140803680050388560000007403551480137827976_" gradientUnits="userSpaceOnUse" x1="3827.001" y1="2272.7644" x2="3827.001" y2="2174.9041">
		<stop  offset="0" style="stop-color:#588CC5"/>
		<stop  offset="3.661215e-02" style="stop-color:#5C90C8"/>
		<stop  offset="0.2426" style="stop-color:#70A4D4"/>
		<stop  offset="0.4618" style="stop-color:#7EB1DC"/>
		<stop  offset="0.7015" style="stop-color:#86BAE1"/>
		<stop  offset="1" style="stop-color:#89BCE2"/>
	</linearGradient>
	<path style="fill:url(#SVGID_00000093140803680050388560000007403551480137827976_);" d="M3804.7,2174.9v17.3
		c15.5,2.2,27.4,15.5,27.4,31.6s-11.9,29.4-27.4,31.6v17.3c25-2.3,44.6-23.3,44.6-48.9C3849.3,2198.2,3829.7,2177.2,3804.7,2174.9z"
		/>
</g>
<g>
	
		<linearGradient id="SVGID_00000156589532938201016540000007459852065999803302_" gradientUnits="userSpaceOnUse" x1="3773.2747" y1="2272.7668" x2="3773.2747" y2="2174.9014">
		<stop  offset="0" style="stop-color:#5EAD2D"/>
		<stop  offset="0.1421" style="stop-color:#71B340"/>
		<stop  offset="0.3254" style="stop-color:#81BA53"/>
		<stop  offset="0.5207" style="stop-color:#8CBF62"/>
		<stop  offset="0.7342" style="stop-color:#93C36B"/>
		<stop  offset="1" style="stop-color:#95C46E"/>
	</linearGradient>
	<path style="fill:url(#SVGID_00000156589532938201016540000007459852065999803302_);" d="M3795.6,2255.5
		c-15.5-2.2-27.4-15.5-27.4-31.6s11.9-29.4,27.4-31.6v-17.3c-25,2.3-44.6,23.3-44.6,48.9c0,25.6,19.6,46.6,44.6,48.9V2255.5z"/>
</g>
<path class="st3" d="M4228.4,2290.8h-476.6c-10.2,0-18.6-8.3-18.6-18.6v-96.9c0-10.2,8.3-18.6,18.6-18.6h476.6
	c10.2,0,18.6,8.3,18.6,18.6v96.9C4247,2282.5,4238.7,2290.8,4228.4,2290.8z M3751.8,2160.8c-8,0-14.6,6.5-14.6,14.6v96.9
	c0,8,6.5,14.6,14.6,14.6h476.6c8,0,14.6-6.5,14.6-14.6v-96.9c0-8-6.5-14.6-14.6-14.6H3751.8z"/>
<rect x="3870.1" y="2172.9" style="fill:none;" width="529.1" height="63.5"/>
<text transform="matrix(1 0 0 1 3870.1313 2223.115)"><tspan x="0" y="0" class="st3" style="font-family:'BundesSans-Bold'; font-size:68px;">Auswei</tspan><tspan x="207" y="0" class="st3" style="font-family:'BundesSans-Bold'; font-size:68px; letter-spacing:4;">s</tspan><tspan x="239.1" y="0" class="st3" style="font-family:'BundesSans-Bold'; font-size:68px; letter-spacing:1;">A</tspan><tspan x="282.3" y="0" class="st3" style="font-family:'BundesSans-Bold'; font-size:68px;">p</tspan><tspan x="318.1" y="0" class="st3" style="font-family:'BundesSans-Bold'; font-size:68px; letter-spacing:1;">p</tspan></text>
<g>
	<path class="st16" d="M3887.3,2267.7l-2.2-6.8h-7.8l-2.2,6.8h-4.9l9.3-25.2h3.8l9.2,25.2H3887.3z M3881.3,2248.8L3881.3,2248.8
		l-2.8,8.6h5.6L3881.3,2248.8z"/>
	<path class="st16" d="M3905.8,2267.7v-10.5c0-2.6-0.9-3.8-2.8-3.8c-1.5,0-2.6,0.6-3.2,1.2v13h-4.6V2250h4.2v2h0.1
		c0.7-0.9,2.2-2.4,5.1-2.4c3.8,0,5.8,2.5,5.8,6.9v11.3H3905.8z"/>
	<path class="st16" d="M3932.5,2267.7h-3.8l-2.8-8.3h-0.1l-3.2,8.3h-3.8l-6.2-17.8h5l3.4,11.8h0.1l3-7.4l-1.5-4.4h4.5l3.6,11.8h0.1
		l3.3-11.8h4.5L3932.5,2267.7z"/>
	<path class="st16" d="M3954.1,2260.1h-9.5c0.3,3,1.9,4.2,4.8,4.2c2.3,0,3.8-1.1,4.2-1.4l1.1,3.2c-0.5,0.5-2.1,2.1-6.3,2.1
		c-4.8,0-8.2-2.7-8.2-9.4c0-6.3,3.7-9.2,8.1-9.2c3.8,0,6.2,2.4,6.2,7.1C3954.4,2258.2,3954.3,2259.3,3954.1,2260.1z M3944.6,2257
		h5.7c0-0.3,0-0.6,0-0.8c0-1.9-0.9-3.1-2.5-3.1C3946,2253.1,3944.7,2254.4,3944.6,2257z"/>
	<path class="st16" d="M3969.2,2267.7v-10.5c0-2.6-0.9-3.8-2.8-3.8c-1.5,0-2.6,0.6-3.2,1.2v13h-4.6V2250h4.2v2h0.1
		c0.7-0.9,2.2-2.4,5.1-2.4c3.8,0,5.8,2.5,5.8,6.9v11.3H3969.2z"/>
	<path class="st16" d="M3985.6,2249.5c1.5,0,2.4,0.4,3.1,0.8v-8.3l4.6-0.4v26.1h-4.2v-2h-0.1c-0.4,0.7-1.6,2.4-4.8,2.4
		c-4,0-6.8-3.1-6.8-9.3C3977.4,2252.7,3981.3,2249.5,3985.6,2249.5z M3988.7,2263v-9.1c-0.5-0.4-1.3-0.7-2.4-0.7
		c-2.4,0-4.2,1.8-4.2,5.4c0,4,1.5,5.5,3.4,5.5C3987.1,2264.2,3988.1,2263.6,3988.7,2263z"/>
	<path class="st16" d="M4012.9,2267.7h-4.2v-2h-0.1c-0.7,0.9-2.1,2.4-5.1,2.4c-3.8,0-5.8-2.5-5.8-6.9V2250h4.6v10.5
		c0,2.7,0.8,3.8,2.8,3.8c1.5,0,2.4-0.6,3.1-1.2V2250h4.6V2267.7z"/>
	<path class="st16" d="M4028.3,2267.7v-10.5c0-2.6-0.9-3.8-2.8-3.8c-1.5,0-2.6,0.6-3.2,1.2v13h-4.6V2250h4.2v2h0.1
		c0.7-0.9,2.2-2.4,5.1-2.4c3.8,0,5.8,2.5,5.8,6.9v11.3H4028.3z"/>
	<path class="st16" d="M4052.3,2252.8h-2.2c0.5,0.8,0.7,1.8,0.7,2.8c0,4.1-3.1,6.1-7.1,6.1c-0.6,0-1.2,0-1.7-0.1
		c-0.4,0.3-0.8,0.7-0.8,1.3c0,0.6,0.4,1,1.3,1h3.8c3.8,0,6.1,1.5,6.1,4.8c0,3.6-3.4,6.7-9.9,6.7c-4.7,0-6.9-1.7-6.9-4.7
		c0-2.3,1.8-3.5,2.8-4v-0.1c-0.7-0.6-1.1-1.4-1.1-2.4c0-2,1.6-3.1,2.2-3.5v0c-1.8-0.9-3-2.7-3-5.2c0-4.2,3.2-6.1,7.1-6.1
		c1,0,1.9,0.1,2.7,0.4h6.2L4052.3,2252.8z M4040.6,2267.5c-0.5,0.4-1,1.1-1,2.2c0,1.8,1.2,2.4,3.5,2.4c3.5,0,5.3-1.2,5.3-2.8
		c0-1.2-0.7-1.7-2.5-1.7h-3.8C4041.5,2267.6,4041,2267.5,4040.6,2267.5z M4043.8,2252.7c-1.6,0-3.1,0.8-3.1,2.9c0,2,1.5,2.8,3,2.8
		c1.6,0,3-0.8,3-2.8C4046.8,2253.6,4045.3,2252.7,4043.8,2252.7z"/>
	<path class="st16" d="M4076.5,2260.1h-9.5c0.3,3,1.9,4.2,4.8,4.2c2.3,0,3.8-1.1,4.2-1.4l1.1,3.2c-0.5,0.5-2.1,2.1-6.3,2.1
		c-4.8,0-8.2-2.7-8.2-9.4c0-6.3,3.7-9.2,8.1-9.2c3.8,0,6.2,2.4,6.2,7.1C4076.8,2258.2,4076.7,2259.3,4076.5,2260.1z M4067,2257h5.7
		c0-0.3,0-0.6,0-0.8c0-1.9-0.9-3.1-2.5-3.1C4068.4,2253.1,4067.1,2254.4,4067,2257z"/>
	<path class="st16" d="M4083.2,2246.1h-3v-3.5h10.9v3.5h-3v18.1h3v3.5h-10.9v-3.5h3V2246.1z"/>
	<path class="st16" d="M4095.7,2267.7v-25.2h6c9.6,0,13.9,3.5,13.9,12.2c0,9.1-5.5,12.9-14.3,12.9H4095.7z M4100.6,2246.6v17.1h0.8
		c6,0,9.1-2.4,9.1-8.9c0-6.1-3-8.2-8.8-8.2H4100.6z"/>
	<path class="st16" d="M4129.7,2258.4h-10.2v-3.6h10.2V2258.4z"/>
	<path class="st16" d="M4145.9,2242.1c4.3,0,6.3,1.9,6.9,2.4l-1.7,3.7c-0.7-0.7-2.3-2-5-2c-4.1,0-7.4,2.5-7.4,8.7c0,6.5,2.7,9,7,9
		c3,0,4.7-1.3,5.5-1.9l1.3,3.5c-0.8,0.7-2.8,2.6-7.5,2.6c-6.6,0-11.4-3.6-11.4-13.1C4133.6,2245.8,4139.8,2242.1,4145.9,2242.1z"/>
	<path class="st16" d="M4160.7,2262c0,1.9,0.4,2.4,1.6,2.4c0.7,0,1.2-0.2,1.3-0.3l0.3,3.2c-0.4,0.2-1.4,0.7-3.1,0.7
		c-3,0-4.7-1.4-4.7-5.4V2242l4.6-0.4V2262z"/>
	<path class="st16" d="M4169,2246.9c-1.6,0-2.7-1-2.7-2.6c0-1.6,1.1-2.7,2.7-2.7c1.6,0,2.7,1,2.7,2.7
		C4171.7,2245.9,4170.6,2246.9,4169,2246.9z M4171.3,2267.7h-4.6V2250h4.6V2267.7z"/>
	<path class="st16" d="M4189.1,2260.1h-9.5c0.3,3,1.9,4.2,4.8,4.2c2.3,0,3.8-1.1,4.2-1.4l1.1,3.2c-0.5,0.5-2.1,2.1-6.3,2.1
		c-4.8,0-8.2-2.7-8.2-9.4c0-6.3,3.7-9.2,8.1-9.2c3.8,0,6.2,2.4,6.2,7.1C4189.4,2258.2,4189.2,2259.3,4189.1,2260.1z M4179.5,2257
		h5.7c0-0.3,0-0.6,0-0.8c0-1.9-0.9-3.1-2.5-3.1C4181,2253.1,4179.7,2254.4,4179.5,2257z"/>
	<path class="st16" d="M4204.1,2267.7v-10.5c0-2.6-0.9-3.8-2.8-3.8c-1.5,0-2.6,0.6-3.2,1.2v13h-4.6V2250h4.2v2h0.1
		c0.7-0.9,2.2-2.4,5.1-2.4c3.8,0,5.8,2.5,5.8,6.9v11.3H4204.1z"/>
	<path class="st16" d="M4222.8,2253.6h-4.1v7.2c0,2.6,0.7,3.4,2.4,3.4c0.8,0,1.6-0.2,1.9-0.3l0.3,3.4c-0.4,0.2-1.4,0.8-3.4,0.8
		c-4,0-5.8-1.8-5.8-6.9v-7.6h-2.4v-3.1l2.4-0.4l0.5-5h4.1v4.9h4.5L4222.8,2253.6z"/>
</g>
<g>
	
		<linearGradient id="SVGID_00000005234053990252607160000007223289901965628601_" gradientUnits="userSpaceOnUse" x1="3827.001" y1="2649.2781" x2="3827.001" y2="2551.4177">
		<stop  offset="0" style="stop-color:#588CC5"/>
		<stop  offset="3.661215e-02" style="stop-color:#5C90C8"/>
		<stop  offset="0.2426" style="stop-color:#70A4D4"/>
		<stop  offset="0.4618" style="stop-color:#7EB1DC"/>
		<stop  offset="0.7015" style="stop-color:#86BAE1"/>
		<stop  offset="1" style="stop-color:#89BCE2"/>
	</linearGradient>
	<path style="fill:url(#SVGID_00000005234053990252607160000007223289901965628601_);" d="M3804.7,2551.4v17.3
		c15.5,2.2,27.4,15.5,27.4,31.6s-11.9,29.4-27.4,31.6v17.3c25-2.3,44.6-23.3,44.6-48.9S3829.7,2553.7,3804.7,2551.4z"/>
</g>
<g>
	
		<linearGradient id="SVGID_00000165200284256769732110000016079148270966962592_" gradientUnits="userSpaceOnUse" x1="3773.2747" y1="2649.2808" x2="3773.2747" y2="2551.415">
		<stop  offset="0" style="stop-color:#5EAD2D"/>
		<stop  offset="0.1421" style="stop-color:#71B340"/>
		<stop  offset="0.3254" style="stop-color:#81BA53"/>
		<stop  offset="0.5207" style="stop-color:#8CBF62"/>
		<stop  offset="0.7342" style="stop-color:#93C36B"/>
		<stop  offset="1" style="stop-color:#95C46E"/>
	</linearGradient>
	<path style="fill:url(#SVGID_00000165200284256769732110000016079148270966962592_);" d="M3795.6,2632
		c-15.5-2.2-27.4-15.5-27.4-31.6s11.9-29.4,27.4-31.6v-17.3c-25,2.3-44.6,23.3-44.6,48.9c0,25.6,19.6,46.6,44.6,48.9V2632z"/>
</g>
<path class="st3" d="M4228.4,2667.3h-476.6c-10.2,0-18.6-8.3-18.6-18.6v-96.9c0-10.2,8.3-18.6,18.6-18.6h476.6
	c10.2,0,18.6,8.3,18.6,18.6v96.9C4247,2659,4238.7,2667.3,4228.4,2667.3z M3751.8,2537.3c-8,0-14.6,6.5-14.6,14.6v96.9
	c0,8,6.5,14.6,14.6,14.6h476.6c8,0,14.6-6.5,14.6-14.6v-96.9c0-8-6.5-14.6-14.6-14.6H3751.8z"/>
<g>
	<path class="st3" d="M3902.2,2605.7l-4.1-12.6h-14.5l-4.1,12.6h-9.1l17.3-46.9h7.1l17.2,46.9H3902.2z M3890.9,2570.5h-0.1l-5.2,16
		h10.5L3890.9,2570.5z"/>
	<path class="st3" d="M3944.3,2605.7h-7.8v-3.7h-0.1c-1.2,1.6-3.9,4.6-9.5,4.6c-7.1,0-10.7-4.6-10.7-12.9v-21h8.6v19.5
		c0,5,1.5,7.1,5.2,7.1c2.8,0,4.6-1.1,5.8-2.2v-24.3h8.6V2605.7z"/>
	<path class="st3" d="M3970.8,2581c-1-0.7-3.4-2.4-6.9-2.4c-2.9,0-4.4,1-4.4,2.3c0,1.7,1.2,2.5,4.3,4l2,1c5,2.4,8.4,5.2,8.4,10.5
		c0,6.1-4.4,10.1-12.5,10.1c-5.9,0-9-2.2-10.6-3.5l2.7-6.9c1.3,1.3,4,3.5,7.7,3.5c2.9,0,4.8-1,4.8-2.4c0-2-1.4-2.7-4.8-4.4l-2-1
		c-4.6-2.4-7.5-5.1-7.5-10.3c0-5.8,5-9.5,11.8-9.5c5.4,0,8.2,2.1,9.3,3L3970.8,2581z"/>
	<path class="st3" d="M4014.2,2605.7h-7.1l-5.3-15.4h-0.1l-6,15.4h-7.1l-11.5-33.1h9.2l6.4,22.1h0.1l5.6-13.8l-2.9-8.3h8.4l6.8,22.1
		h0.1l6.2-22.1h8.4L4014.2,2605.7z"/>
	<path class="st3" d="M4054.8,2591.5h-17.7c0.5,5.6,3.5,7.8,9,7.8c4.3,0,7-2,7.9-2.7l2,6c-1,1-3.9,3.9-11.8,3.9
		c-9,0-15.4-5-15.4-17.6c0-11.8,6.9-17.1,15.1-17.1c7.1,0,11.5,4.6,11.5,13.3C4055.4,2588,4055.1,2589.9,4054.8,2591.5z
		 M4037,2585.8h10.7c0.1-0.6,0.1-1.1,0.1-1.6c0-3.5-1.7-5.8-4.7-5.8C4039.7,2578.4,4037.2,2580.9,4037,2585.8z"/>
	<path class="st3" d="M4067.4,2566.9c-3,0-5-1.9-5-4.9c0-3.1,2-5,5-5c2.9,0,5,1.9,5,5C4072.4,2565,4070.3,2566.9,4067.4,2566.9z
		 M4071.7,2605.7h-8.6v-33.1h8.6V2605.7z"/>
	<path class="st3" d="M4098.2,2581c-1-0.7-3.4-2.4-6.9-2.4c-2.9,0-4.4,1-4.4,2.3c0,1.7,1.2,2.5,4.3,4l2,1c5,2.4,8.4,5.2,8.4,10.5
		c0,6.1-4.4,10.1-12.5,10.1c-5.9,0-9-2.2-10.6-3.5l2.7-6.9c1.3,1.3,4,3.5,7.7,3.5c2.9,0,4.8-1,4.8-2.4c0-2-1.4-2.7-4.8-4.4l-2-1
		c-4.6-2.4-7.5-5.1-7.5-10.3c0-5.8,5-9.5,11.8-9.5c5.4,0,8.2,2.1,9.3,3L4098.2,2581z"/>
	<path class="st3" d="M4140.4,2605.7l-4.1-12.6h-14.5l-4.1,12.6h-9.1l17.3-46.9h7.1l17.2,46.9H4140.4z M4129.1,2570.5h-0.1l-5.2,16
		h10.5L4129.1,2570.5z"/>
	<path class="st3" d="M4170.2,2606.4c-2.6,0-4.5-0.6-5.7-1.3v30.8h-8.6v-63.4h7.9v3.7h0.1c1-1.6,4-4.5,9.2-4.5
		c7.3,0,12.3,5.3,12.3,16.6C4185.5,2600.3,4179.4,2606.4,4170.2,2606.4z M4164.5,2581v17.5c1,0.6,2.4,1.1,4.1,1.1
		c5.2,0,8.1-3.1,8.1-10.8c0-7-2.7-9.7-6.7-9.7C4167.5,2579.1,4165.7,2580,4164.5,2581z"/>
	<path class="st3" d="M4206,2606.4c-2.6,0-4.5-0.6-5.7-1.3v30.8h-8.6v-63.4h7.9v3.7h0.1c1-1.6,4-4.5,9.2-4.5
		c7.3,0,12.3,5.3,12.3,16.6C4221.3,2600.3,4215.2,2606.4,4206,2606.4z M4200.3,2581v17.5c1,0.6,2.4,1.1,4.1,1.1
		c5.2,0,8.1-3.1,8.1-10.8c0-7-2.7-9.7-6.7-9.7C4203.3,2579.1,4201.4,2580,4200.3,2581z"/>
</g>
<g>
	<path class="st16" d="M3883.7,2636.1l-1.7-5.3h-6.1l-1.7,5.3h-3.8l7.3-19.8h3l7.3,19.8H3883.7z M3879,2621.2L3879,2621.2l-2.2,6.8
		h4.4L3879,2621.2z"/>
	<path class="st16" d="M3898.3,2636.1v-8.3c0-2.1-0.7-3-2.2-3c-1.2,0-2,0.5-2.6,1v10.2h-3.6v-14h3.3v1.6h0.1c0.5-0.7,1.8-1.9,4-1.9
		c3,0,4.6,2,4.6,5.5v8.9H3898.3z"/>
	<path class="st16" d="M3919.3,2636.1h-3l-2.2-6.5h-0.1l-2.5,6.5h-3l-4.9-14h3.9l2.7,9.3h0.1l2.4-5.8l-1.2-3.5h3.6l2.9,9.3h0.1
		l2.6-9.3h3.6L3919.3,2636.1z"/>
	<path class="st16" d="M3936.3,2630.1h-7.5c0.2,2.4,1.5,3.3,3.8,3.3c1.8,0,3-0.8,3.3-1.1l0.8,2.5c-0.4,0.4-1.7,1.6-5,1.6
		c-3.8,0-6.5-2.1-6.5-7.4c0-5,2.9-7.2,6.4-7.2c3,0,4.9,1.9,4.9,5.6C3936.6,2628.6,3936.4,2629.4,3936.3,2630.1z M3928.8,2627.7h4.5
		c0-0.3,0-0.5,0-0.7c0-1.5-0.7-2.4-2-2.4C3929.9,2624.6,3928.9,2625.6,3928.8,2627.7z"/>
	<path class="st16" d="M3948.2,2636.1v-8.3c0-2.1-0.7-3-2.2-3c-1.2,0-2,0.5-2.6,1v10.2h-3.6v-14h3.3v1.6h0.1c0.5-0.7,1.8-1.9,4-1.9
		c3,0,4.6,2,4.6,5.5v8.9H3948.2z"/>
	<path class="st16" d="M3961.1,2621.7c1.1,0,1.9,0.3,2.4,0.6v-6.5l3.6-0.3v20.6h-3.3v-1.6h-0.1c-0.3,0.5-1.3,1.9-3.8,1.9
		c-3.2,0-5.3-2.4-5.3-7.3C3954.7,2624.2,3957.7,2621.7,3961.1,2621.7z M3963.6,2632.4v-7.2c-0.4-0.3-1-0.5-1.9-0.5
		c-1.9,0-3.3,1.4-3.3,4.3c0,3.2,1.1,4.4,2.7,4.4C3962.3,2633.3,3963.1,2632.8,3963.6,2632.4z"/>
	<path class="st16" d="M3982.6,2636.1h-3.3v-1.6h-0.1c-0.5,0.7-1.6,1.9-4,1.9c-3,0-4.5-2-4.5-5.5v-8.9h3.6v8.2c0,2.1,0.6,3,2.2,3
		c1.2,0,1.9-0.5,2.5-0.9v-10.3h3.6V2636.1z"/>
	<path class="st16" d="M3994.7,2636.1v-8.3c0-2.1-0.7-3-2.2-3c-1.2,0-2,0.5-2.6,1v10.2h-3.6v-14h3.3v1.6h0.1c0.5-0.7,1.8-1.9,4-1.9
		c3,0,4.6,2,4.6,5.5v8.9H3994.7z"/>
	<path class="st16" d="M4013.6,2624.3h-1.7c0.4,0.7,0.6,1.4,0.6,2.2c0,3.2-2.5,4.8-5.6,4.8c-0.5,0-0.9,0-1.3-0.1
		c-0.3,0.2-0.6,0.5-0.6,1c0,0.5,0.3,0.8,1,0.8h3c3,0,4.8,1.2,4.8,3.8c0,2.8-2.6,5.3-7.8,5.3c-3.7,0-5.4-1.4-5.4-3.7
		c0-1.8,1.4-2.7,2.2-3.2v-0.1c-0.6-0.5-0.8-1.1-0.8-1.9c0-1.6,1.3-2.5,1.7-2.7v0c-1.4-0.7-2.3-2.1-2.3-4.1c0-3.3,2.5-4.8,5.6-4.8
		c0.8,0,1.5,0.1,2.2,0.3h4.9L4013.6,2624.3z M4004.4,2635.9c-0.4,0.3-0.8,0.8-0.8,1.7c0,1.4,1,1.9,2.7,1.9c2.7,0,4.2-0.9,4.2-2.2
		c0-0.9-0.5-1.3-2-1.3h-3C4005.1,2635.9,4004.8,2635.9,4004.4,2635.9z M4006.9,2624.3c-1.3,0-2.4,0.7-2.4,2.3c0,1.6,1.1,2.2,2.4,2.2
		c1.3,0,2.4-0.7,2.4-2.2C4009.3,2624.9,4008.1,2624.3,4006.9,2624.3z"/>
	<path class="st16" d="M4032.7,2630.1h-7.5c0.2,2.4,1.5,3.3,3.8,3.3c1.8,0,3-0.8,3.3-1.1l0.8,2.5c-0.4,0.4-1.7,1.6-5,1.6
		c-3.8,0-6.5-2.1-6.5-7.4c0-5,2.9-7.2,6.4-7.2c3,0,4.9,1.9,4.9,5.6C4032.9,2628.6,4032.8,2629.4,4032.7,2630.1z M4025.2,2627.7h4.5
		c0-0.3,0-0.5,0-0.7c0-1.5-0.7-2.4-2-2.4C4026.3,2624.6,4025.3,2625.6,4025.2,2627.7z"/>
	<path class="st16" d="M4038,2619h-2.4v-2.8h8.6v2.8h-2.4v14.2h2.4v2.8h-8.6v-2.8h2.4V2619z"/>
	<path class="st16" d="M4047.8,2636.1v-19.8h4.7c7.5,0,11,2.8,11,9.6c0,7.1-4.3,10.2-11.2,10.2H4047.8z M4051.7,2619.4v13.4h0.6
		c4.7,0,7.2-1.9,7.2-7c0-4.8-2.4-6.4-6.9-6.4H4051.7z"/>
	<path class="st16" d="M4074.6,2628.7h-8v-2.9h8V2628.7z"/>
	<path class="st16" d="M4087.3,2615.9c3.4,0,5,1.5,5.5,1.9l-1.3,2.9c-0.6-0.5-1.8-1.5-3.9-1.5c-3.2,0-5.8,2-5.8,6.9
		c0,5.1,2.1,7.1,5.5,7.1c2.4,0,3.7-1,4.3-1.5l1,2.7c-0.6,0.6-2.2,2-5.9,2c-5.2,0-9-2.8-9-10.3
		C4077.7,2618.8,4082.5,2615.9,4087.3,2615.9z"/>
	<path class="st16" d="M4099,2631.6c0,1.5,0.3,1.9,1.2,1.9c0.5,0,0.9-0.1,1.1-0.2l0.2,2.5c-0.3,0.2-1.1,0.5-2.4,0.5
		c-2.3,0-3.7-1.1-3.7-4.2v-16.2l3.6-0.3V2631.6z"/>
	<path class="st16" d="M4105.5,2619.7c-1.3,0-2.1-0.8-2.1-2.1c0-1.3,0.9-2.1,2.1-2.1c1.2,0,2.1,0.8,2.1,2.1
		C4107.6,2618.9,4106.8,2619.7,4105.5,2619.7z M4107.3,2636.1h-3.6v-14h3.6V2636.1z"/>
	<path class="st16" d="M4121.4,2630.1h-7.5c0.2,2.4,1.5,3.3,3.8,3.3c1.8,0,3-0.8,3.3-1.1l0.8,2.5c-0.4,0.4-1.7,1.6-5,1.6
		c-3.8,0-6.5-2.1-6.5-7.4c0-5,2.9-7.2,6.4-7.2c3,0,4.9,1.9,4.9,5.6C4121.6,2628.6,4121.5,2629.4,4121.4,2630.1z M4113.8,2627.7h4.5
		c0-0.3,0-0.5,0-0.7c0-1.5-0.7-2.4-2-2.4C4115,2624.6,4113.9,2625.6,4113.8,2627.7z"/>
	<path class="st16" d="M4133.2,2636.1v-8.3c0-2.1-0.7-3-2.2-3c-1.2,0-2,0.5-2.6,1v10.2h-3.6v-14h3.3v1.6h0.1c0.5-0.7,1.8-1.9,4-1.9
		c3,0,4.6,2,4.6,5.5v8.9H4133.2z"/>
	<path class="st16" d="M4147.9,2625h-3.2v5.7c0,2,0.5,2.7,1.9,2.7c0.7,0,1.2-0.2,1.5-0.3l0.3,2.7c-0.3,0.1-1.1,0.6-2.7,0.6
		c-3.1,0-4.5-1.4-4.5-5.4v-6h-1.9v-2.5l1.9-0.3l0.4-3.9h3.2v3.8h3.5L4147.9,2625z"/>
</g>
<g>
	
		<linearGradient id="SVGID_00000029740660012907389060000015470695860420905607_" gradientUnits="userSpaceOnUse" x1="3827.001" y1="3025.7917" x2="3827.001" y2="2927.9314">
		<stop  offset="0" style="stop-color:#588CC5"/>
		<stop  offset="3.661215e-02" style="stop-color:#5C90C8"/>
		<stop  offset="0.2426" style="stop-color:#70A4D4"/>
		<stop  offset="0.4618" style="stop-color:#7EB1DC"/>
		<stop  offset="0.7015" style="stop-color:#86BAE1"/>
		<stop  offset="1" style="stop-color:#89BCE2"/>
	</linearGradient>
	<path style="fill:url(#SVGID_00000029740660012907389060000015470695860420905607_);" d="M3804.7,2927.9v17.3
		c15.5,2.2,27.4,15.5,27.4,31.6s-11.9,29.4-27.4,31.6v17.3c25-2.3,44.6-23.3,44.6-48.9S3829.7,2930.2,3804.7,2927.9z"/>
</g>
<g>
	
		<linearGradient id="SVGID_00000181074607197419102360000011328962782660914590_" gradientUnits="userSpaceOnUse" x1="3773.2747" y1="3025.7944" x2="3773.2747" y2="2927.929">
		<stop  offset="0" style="stop-color:#5EAD2D"/>
		<stop  offset="0.1421" style="stop-color:#71B340"/>
		<stop  offset="0.3254" style="stop-color:#81BA53"/>
		<stop  offset="0.5207" style="stop-color:#8CBF62"/>
		<stop  offset="0.7342" style="stop-color:#93C36B"/>
		<stop  offset="1" style="stop-color:#95C46E"/>
	</linearGradient>
	<path style="fill:url(#SVGID_00000181074607197419102360000011328962782660914590_);" d="M3795.6,3008.5
		c-15.5-2.2-27.4-15.5-27.4-31.6s11.9-29.4,27.4-31.6v-17.3c-25,2.3-44.6,23.3-44.6,48.9c0,25.6,19.6,46.6,44.6,48.9V3008.5z"/>
</g>
<path class="st3" d="M4228.4,3043.9h-476.6c-10.2,0-18.6-8.3-18.6-18.6v-96.9c0-10.2,8.3-18.6,18.6-18.6h476.6
	c10.2,0,18.6,8.3,18.6,18.6v96.9C4247,3035.5,4238.7,3043.9,4228.4,3043.9z M3751.8,2913.9c-8,0-14.6,6.5-14.6,14.6v96.9
	c0,8,6.5,14.6,14.6,14.6h476.6c8,0,14.6-6.5,14.6-14.6v-96.9c0-8-6.5-14.6-14.6-14.6H3751.8z"/>
<g>
	<path class="st0" d="M3883.7,3012.6l-1.7-5.3h-6.1l-1.7,5.3h-3.8l7.3-19.8h3l7.3,19.8H3883.7z M3879,2997.7L3879,2997.7l-2.2,6.8
		h4.4L3879,2997.7z"/>
	<path class="st0" d="M3898.3,3012.6v-8.3c0-2.1-0.7-3-2.2-3c-1.2,0-2,0.5-2.6,1v10.2h-3.6v-14h3.3v1.6h0.1c0.5-0.7,1.8-1.9,4-1.9
		c3,0,4.6,2,4.6,5.5v8.9H3898.3z"/>
	<path class="st0" d="M3919.3,3012.6h-3l-2.2-6.5h-0.1l-2.5,6.5h-3l-4.9-14h3.9l2.7,9.3h0.1l2.4-5.8l-1.2-3.5h3.6l2.9,9.3h0.1
		l2.6-9.3h3.6L3919.3,3012.6z"/>
	<path class="st0" d="M3936.3,3006.6h-7.5c0.2,2.4,1.5,3.3,3.8,3.3c1.8,0,3-0.8,3.3-1.1l0.8,2.5c-0.4,0.4-1.7,1.6-5,1.6
		c-3.8,0-6.5-2.1-6.5-7.4c0-5,2.9-7.2,6.4-7.2c3,0,4.9,1.9,4.9,5.6C3936.6,3005.1,3936.4,3005.9,3936.3,3006.6z M3928.8,3004.2h4.5
		c0-0.3,0-0.5,0-0.7c0-1.5-0.7-2.4-2-2.4C3929.9,3001.1,3928.9,3002.1,3928.8,3004.2z"/>
	<path class="st0" d="M3948.2,3012.6v-8.3c0-2.1-0.7-3-2.2-3c-1.2,0-2,0.5-2.6,1v10.2h-3.6v-14h3.3v1.6h0.1c0.5-0.7,1.8-1.9,4-1.9
		c3,0,4.6,2,4.6,5.5v8.9H3948.2z"/>
	<path class="st0" d="M3961.1,2998.3c1.1,0,1.9,0.3,2.4,0.6v-6.5l3.6-0.3v20.6h-3.3v-1.6h-0.1c-0.3,0.5-1.3,1.9-3.8,1.9
		c-3.2,0-5.3-2.4-5.3-7.3C3954.7,3000.7,3957.7,2998.3,3961.1,2998.3z M3963.6,3008.9v-7.2c-0.4-0.3-1-0.5-1.9-0.5
		c-1.9,0-3.3,1.4-3.3,4.3c0,3.2,1.1,4.4,2.7,4.4C3962.3,3009.8,3963.1,3009.3,3963.6,3008.9z"/>
	<path class="st0" d="M3982.6,3012.6h-3.3v-1.6h-0.1c-0.5,0.7-1.6,1.9-4,1.9c-3,0-4.5-2-4.5-5.5v-8.9h3.6v8.2c0,2.1,0.6,3,2.2,3
		c1.2,0,1.9-0.5,2.5-0.9v-10.3h3.6V3012.6z"/>
	<path class="st0" d="M3994.7,3012.6v-8.3c0-2.1-0.7-3-2.2-3c-1.2,0-2,0.5-2.6,1v10.2h-3.6v-14h3.3v1.6h0.1c0.5-0.7,1.8-1.9,4-1.9
		c3,0,4.6,2,4.6,5.5v8.9H3994.7z"/>
	<path class="st0" d="M4013.6,3000.8h-1.7c0.4,0.7,0.6,1.4,0.6,2.2c0,3.2-2.5,4.8-5.6,4.8c-0.5,0-0.9,0-1.3-0.1
		c-0.3,0.2-0.6,0.5-0.6,1c0,0.5,0.3,0.8,1,0.8h3c3,0,4.8,1.2,4.8,3.8c0,2.8-2.6,5.3-7.8,5.3c-3.7,0-5.4-1.4-5.4-3.7
		c0-1.8,1.4-2.7,2.2-3.2v-0.1c-0.6-0.5-0.8-1.1-0.8-1.9c0-1.6,1.3-2.5,1.7-2.7v0c-1.4-0.7-2.3-2.1-2.3-4.1c0-3.3,2.5-4.8,5.6-4.8
		c0.8,0,1.5,0.1,2.2,0.3h4.9L4013.6,3000.8z M4004.4,3012.4c-0.4,0.3-0.8,0.8-0.8,1.7c0,1.4,1,1.9,2.7,1.9c2.7,0,4.2-0.9,4.2-2.2
		c0-0.9-0.5-1.3-2-1.3h-3C4005.1,3012.5,4004.8,3012.4,4004.4,3012.4z M4006.9,3000.8c-1.3,0-2.4,0.7-2.4,2.3c0,1.6,1.1,2.2,2.4,2.2
		c1.3,0,2.4-0.7,2.4-2.2C4009.3,3001.4,4008.1,3000.8,4006.9,3000.8z"/>
	<path class="st0" d="M4032.7,3006.6h-7.5c0.2,2.4,1.5,3.3,3.8,3.3c1.8,0,3-0.8,3.3-1.1l0.8,2.5c-0.4,0.4-1.7,1.6-5,1.6
		c-3.8,0-6.5-2.1-6.5-7.4c0-5,2.9-7.2,6.4-7.2c3,0,4.9,1.9,4.9,5.6C4032.9,3005.1,4032.8,3005.9,4032.7,3006.6z M4025.2,3004.2h4.5
		c0-0.3,0-0.5,0-0.7c0-1.5-0.7-2.4-2-2.4C4026.3,3001.1,4025.3,3002.1,4025.2,3004.2z"/>
	<path class="st0" d="M4038,2995.6h-2.4v-2.8h8.6v2.8h-2.4v14.2h2.4v2.8h-8.6v-2.8h2.4V2995.6z"/>
	<path class="st0" d="M4047.8,3012.6v-19.8h4.7c7.5,0,11,2.8,11,9.6c0,7.1-4.3,10.2-11.2,10.2H4047.8z M4051.7,2996v13.4h0.6
		c4.7,0,7.2-1.9,7.2-7c0-4.8-2.4-6.4-6.9-6.4H4051.7z"/>
	<path class="st0" d="M4074.6,3005.2h-8v-2.9h8V3005.2z"/>
	<path class="st0" d="M4087.3,2992.4c3.4,0,5,1.5,5.5,1.9l-1.3,2.9c-0.6-0.5-1.8-1.5-3.9-1.5c-3.2,0-5.8,2-5.8,6.9
		c0,5.1,2.1,7.1,5.5,7.1c2.4,0,3.7-1,4.3-1.5l1,2.7c-0.6,0.6-2.2,2-5.9,2c-5.2,0-9-2.8-9-10.3
		C4077.7,2995.4,4082.5,2992.4,4087.3,2992.4z"/>
	<path class="st0" d="M4099,3008.1c0,1.5,0.3,1.9,1.2,1.9c0.5,0,0.9-0.1,1.1-0.2l0.2,2.5c-0.3,0.2-1.1,0.5-2.4,0.5
		c-2.3,0-3.7-1.1-3.7-4.2v-16.2l3.6-0.3V3008.1z"/>
	<path class="st0" d="M4105.5,2996.2c-1.3,0-2.1-0.8-2.1-2.1c0-1.3,0.9-2.1,2.1-2.1c1.2,0,2.1,0.8,2.1,2.1
		C4107.6,2995.4,4106.8,2996.2,4105.5,2996.2z M4107.3,3012.6h-3.6v-14h3.6V3012.6z"/>
	<path class="st0" d="M4121.4,3006.6h-7.5c0.2,2.4,1.5,3.3,3.8,3.3c1.8,0,3-0.8,3.3-1.1l0.8,2.5c-0.4,0.4-1.7,1.6-5,1.6
		c-3.8,0-6.5-2.1-6.5-7.4c0-5,2.9-7.2,6.4-7.2c3,0,4.9,1.9,4.9,5.6C4121.6,3005.1,4121.5,3005.9,4121.4,3006.6z M4113.8,3004.2h4.5
		c0-0.3,0-0.5,0-0.7c0-1.5-0.7-2.4-2-2.4C4115,3001.1,4113.9,3002.1,4113.8,3004.2z"/>
	<path class="st0" d="M4133.2,3012.6v-8.3c0-2.1-0.7-3-2.2-3c-1.2,0-2,0.5-2.6,1v10.2h-3.6v-14h3.3v1.6h0.1c0.5-0.7,1.8-1.9,4-1.9
		c3,0,4.6,2,4.6,5.5v8.9H4133.2z"/>
	<path class="st0" d="M4147.9,3001.5h-3.2v5.7c0,2,0.5,2.7,1.9,2.7c0.7,0,1.2-0.2,1.5-0.3l0.3,2.7c-0.3,0.1-1.1,0.6-2.7,0.6
		c-3.1,0-4.5-1.4-4.5-5.4v-6h-1.9v-2.5l1.9-0.3l0.4-3.9h3.2v3.8h3.5L4147.9,3001.5z"/>
</g>
<g>
	<path class="st16" d="M3902.2,2976.1l-4.1-12.6h-14.5l-4.1,12.6h-9.1l17.3-46.9h7.1l17.2,46.9H3902.2z M3890.9,2940.9h-0.1l-5.2,16
		h10.5L3890.9,2940.9z"/>
	<path class="st16" d="M3944.3,2976.1h-7.8v-3.7h-0.1c-1.2,1.6-3.9,4.6-9.5,4.6c-7.1,0-10.7-4.6-10.7-12.9v-21h8.6v19.5
		c0,5,1.5,7.1,5.2,7.1c2.8,0,4.6-1.1,5.8-2.2V2943h8.6V2976.1z"/>
	<path class="st16" d="M3970.8,2951.5c-1-0.7-3.4-2.4-6.9-2.4c-2.9,0-4.4,1-4.4,2.3c0,1.7,1.2,2.5,4.3,4l2,1c5,2.4,8.4,5.2,8.4,10.5
		c0,6.1-4.4,10.1-12.5,10.1c-5.9,0-9-2.2-10.6-3.5l2.7-6.9c1.3,1.3,4,3.5,7.7,3.5c2.9,0,4.8-1,4.8-2.4c0-2-1.4-2.7-4.8-4.4l-2-1
		c-4.6-2.4-7.5-5.1-7.5-10.3c0-5.8,5-9.5,11.8-9.5c5.4,0,8.2,2.1,9.3,3L3970.8,2951.5z"/>
	<path class="st16" d="M4014.2,2976.1h-7.1l-5.3-15.4h-0.1l-6,15.4h-7.1l-11.5-33.1h9.2l6.4,22.1h0.1l5.6-13.8l-2.9-8.3h8.4
		l6.8,22.1h0.1l6.2-22.1h8.4L4014.2,2976.1z"/>
	<path class="st16" d="M4054.8,2961.9h-17.7c0.5,5.6,3.5,7.8,9,7.8c4.3,0,7-2,7.9-2.7l2,6c-1,1-3.9,3.9-11.8,3.9
		c-9,0-15.4-5-15.4-17.6c0-11.8,6.9-17.1,15.1-17.1c7.1,0,11.5,4.6,11.5,13.3C4055.4,2958.5,4055.1,2960.4,4054.8,2961.9z
		 M4037,2956.2h10.7c0.1-0.6,0.1-1.1,0.1-1.6c0-3.5-1.7-5.8-4.7-5.8C4039.7,2948.9,4037.2,2951.3,4037,2956.2z"/>
	<path class="st16" d="M4067.4,2937.4c-3,0-5-1.9-5-4.9c0-3.1,2-5,5-5c2.9,0,5,1.9,5,5C4072.4,2935.5,4070.3,2937.4,4067.4,2937.4z
		 M4071.7,2976.1h-8.6V2943h8.6V2976.1z"/>
	<path class="st16" d="M4098.2,2951.5c-1-0.7-3.4-2.4-6.9-2.4c-2.9,0-4.4,1-4.4,2.3c0,1.7,1.2,2.5,4.3,4l2,1c5,2.4,8.4,5.2,8.4,10.5
		c0,6.1-4.4,10.1-12.5,10.1c-5.9,0-9-2.2-10.6-3.5l2.7-6.9c1.3,1.3,4,3.5,7.7,3.5c2.9,0,4.8-1,4.8-2.4c0-2-1.4-2.7-4.8-4.4l-2-1
		c-4.6-2.4-7.5-5.1-7.5-10.3c0-5.8,5-9.5,11.8-9.5c5.4,0,8.2,2.1,9.3,3L4098.2,2951.5z"/>
	<path class="st3" d="M4140.4,2976.1l-4.1-12.6h-14.5l-4.1,12.6h-9.1l17.3-46.9h7.1l17.2,46.9H4140.4z M4129.1,2940.9h-0.1l-5.2,16
		h10.5L4129.1,2940.9z"/>
	<path class="st3" d="M4170.2,2976.9c-2.6,0-4.5-0.6-5.7-1.3v14.1h-8.6V2943h7.9v3.7h0.1c1-1.6,4-4.5,9.2-4.5
		c7.3,0,12.3,5.3,12.3,16.6C4185.5,2970.8,4179.4,2976.9,4170.2,2976.9z M4164.5,2951.5v17.5c1,0.6,2.4,1.1,4.1,1.1
		c5.2,0,8.1-3.1,8.1-10.8c0-7-2.7-9.7-6.7-9.7C4167.5,2949.6,4165.7,2950.5,4164.5,2951.5z"/>
	<path class="st3" d="M4206,2976.9c-2.6,0-4.5-0.6-5.7-1.3v14.1h-8.6V2943h7.9v3.7h0.1c1-1.6,4-4.5,9.2-4.5
		c7.3,0,12.3,5.3,12.3,16.6C4221.3,2970.8,4215.2,2976.9,4206,2976.9z M4200.3,2951.5v17.5c1,0.6,2.4,1.1,4.1,1.1
		c5.2,0,8.1-3.1,8.1-10.8c0-7-2.7-9.7-6.7-9.7C4203.3,2949.6,4201.4,2950.5,4200.3,2951.5z"/>
</g>
<rect x="5276.1" y="1879.6" style="fill:none;" width="511.3" height="61.4"/>
<text transform="matrix(1 0 0 1 5276.105 1917.5869)" class="st3" style="font-family:'BundesSans-Bold'; font-size:53px;">des Bundes</text>
<rect x="1737.8" y="1879" style="fill:none;" width="767.2" height="61.4"/>
<text transform="matrix(1.02 0 0 1 1737.8027 1899.2988)" class="st16" style="font-family:'BundesSerif-Bold'; font-size:28px;">Anwendung eID-Client</text>
<g>
	
		<linearGradient id="SVGID_00000026164250466605187020000008080432026497660299_" gradientUnits="userSpaceOnUse" x1="2758.8909" y1="1908.1405" x2="2758.8909" y2="1810.28">
		<stop  offset="0" style="stop-color:#588CC5"/>
		<stop  offset="3.661215e-02" style="stop-color:#5C90C8"/>
		<stop  offset="0.2426" style="stop-color:#70A4D4"/>
		<stop  offset="0.4618" style="stop-color:#7EB1DC"/>
		<stop  offset="0.7015" style="stop-color:#86BAE1"/>
		<stop  offset="1" style="stop-color:#89BCE2"/>
	</linearGradient>
	<path style="fill:url(#SVGID_00000026164250466605187020000008080432026497660299_);" d="M2736.6,1810.3v17.3
		c15.5,2.2,27.4,15.5,27.4,31.6c0,16.1-11.9,29.4-27.4,31.6v17.3c25-2.3,44.6-23.3,44.6-48.9S2761.6,1812.6,2736.6,1810.3z"/>
</g>
<g>
	
		<linearGradient id="SVGID_00000007392339569205708810000004769861464410796167_" gradientUnits="userSpaceOnUse" x1="2705.1646" y1="1908.1431" x2="2705.1646" y2="1810.2775">
		<stop  offset="0" style="stop-color:#5EAD2D"/>
		<stop  offset="0.1421" style="stop-color:#71B340"/>
		<stop  offset="0.3254" style="stop-color:#81BA53"/>
		<stop  offset="0.5207" style="stop-color:#8CBF62"/>
		<stop  offset="0.7342" style="stop-color:#93C36B"/>
		<stop  offset="1" style="stop-color:#95C46E"/>
	</linearGradient>
	<path style="fill:url(#SVGID_00000007392339569205708810000004769861464410796167_);" d="M2727.5,1890.8
		c-15.5-2.2-27.4-15.5-27.4-31.6s11.9-29.4,27.4-31.6v-17.3c-25,2.3-44.6,23.3-44.6,48.9c0,25.6,19.6,46.6,44.6,48.9V1890.8z"/>
</g>
<path class="st3" d="M2780.6,1926.2h-96.9c-10.2,0-18.6-8.3-18.6-18.6v-96.9c0-10.2,8.3-18.6,18.6-18.6h96.9
	c10.2,0,18.6,8.3,18.6,18.6v96.9C2799.1,1917.9,2790.8,1926.2,2780.6,1926.2z M2683.7,1796.2c-8,0-14.6,6.5-14.6,14.6v96.9
	c0,8,6.5,14.6,14.6,14.6h96.9c8,0,14.6-6.5,14.6-14.6v-96.9c0-8-6.5-14.6-14.6-14.6H2683.7z"/>
<rect x="2831" y="1812" style="fill:none;" width="529.1" height="63.5"/>
<text transform="matrix(1 0 0 1 2831.0107 1862.1654)"><tspan x="0" y="0" class="st3" style="font-family:'BundesSans-Bold'; font-size:68px;">Auswei</tspan><tspan x="207" y="0" class="st3" style="font-family:'BundesSans-Bold'; font-size:68px; letter-spacing:4;">s</tspan><tspan x="239.1" y="0" class="st3" style="font-family:'BundesSans-Bold'; font-size:68px; letter-spacing:1;">A</tspan><tspan x="282.3" y="0" class="st3" style="font-family:'BundesSans-Bold'; font-size:68px;">p</tspan><tspan x="318.1" y="0" class="st3" style="font-family:'BundesSans-Bold'; font-size:68px; letter-spacing:1;">p</tspan></text>
<rect x="5154.9" y="2242" style="fill:none;" width="511.3" height="61.4"/>
<text transform="matrix(1 0 0 1 5154.9053 2269.9719)" class="st16" style="font-family:'BundesSans-Bold'; font-size:39px; letter-spacing:2;">App  des  Bundes</text>
<rect x="2799.1" y="2173.2" style="fill:none;" width="529.1" height="63.5"/>
<text transform="matrix(1 0 0 1 2799.1321 2223.3716)"><tspan x="0" y="0" class="st3" style="font-family:'BundesSans-Bold'; font-size:68px;">Auswei</tspan><tspan x="207" y="0" class="st3" style="font-family:'BundesSans-Bold'; font-size:68px; letter-spacing:4;">s</tspan><tspan x="239.1" y="0" class="st3" style="font-family:'BundesSans-Bold'; font-size:68px; letter-spacing:1;">A</tspan><tspan x="282.3" y="0" class="st3" style="font-family:'BundesSans-Bold'; font-size:68px;">p</tspan><tspan x="318.1" y="0" class="st3" style="font-family:'BundesSans-Bold'; font-size:68px; letter-spacing:1;">p</tspan></text>
<rect x="2802.8" y="2247.2" style="fill:none;" width="767.2" height="61.4"/>
<text transform="matrix(1.07 0 0 1 2802.7683 2267.1294)" class="st16" style="font-family:'BundesSans-Bold'; font-size:28px;">Anwendung eID-Client</text>
<rect x="2831.3" y="1891" style="fill:none;" width="767.2" height="61.4"/>
<text transform="matrix(1.07 0 0 1 2831.2825 1910.9261)" class="st16" style="font-family:'BundesSans-Bold'; font-size:28px;">Anwendung eID-Client</text>
<g>
	
		<linearGradient id="SVGID_00000034779183175957576520000001277476602032914308_" gradientUnits="userSpaceOnUse" x1="127.2579" y1="149.4301" x2="127.2579" y2="51.5698">
		<stop  offset="0" style="stop-color:#588CC5"/>
		<stop  offset="3.661215e-02" style="stop-color:#5C90C8"/>
		<stop  offset="0.2426" style="stop-color:#70A4D4"/>
		<stop  offset="0.4618" style="stop-color:#7EB1DC"/>
		<stop  offset="0.7015" style="stop-color:#86BAE1"/>
		<stop  offset="1" style="stop-color:#89BCE2"/>
	</linearGradient>
	<path style="fill:url(#SVGID_00000034779183175957576520000001277476602032914308_);" d="M105,51.6v17.3
		c15.5,2.2,27.4,15.5,27.4,31.6s-11.9,29.4-27.4,31.6v17.3c25-2.3,44.6-23.3,44.6-48.9S130,53.9,105,51.6z"/>
</g>
<g>
	
		<linearGradient id="SVGID_00000165936824893290475730000006719780409785010613_" gradientUnits="userSpaceOnUse" x1="73.5315" y1="149.4328" x2="73.5315" y2="51.5672">
		<stop  offset="0" style="stop-color:#5EAD2D"/>
		<stop  offset="0.1421" style="stop-color:#71B340"/>
		<stop  offset="0.3254" style="stop-color:#81BA53"/>
		<stop  offset="0.5207" style="stop-color:#8CBF62"/>
		<stop  offset="0.7342" style="stop-color:#93C36B"/>
		<stop  offset="1" style="stop-color:#95C46E"/>
	</linearGradient>
	<path style="fill:url(#SVGID_00000165936824893290475730000006719780409785010613_);" d="M95.8,132.1
		c-15.5-2.2-27.4-15.5-27.4-31.6s11.9-29.4,27.4-31.6V51.6c-25,2.3-44.6,23.3-44.6,48.9c0,25.6,19.6,46.6,44.6,48.9V132.1z"/>
</g>
<path class="st3" d="M148.9,167.5H52.1c-10.2,0-18.6-8.3-18.6-18.6V52.1c0-10.2,8.3-18.6,18.6-18.6h96.9c10.2,0,18.6,8.3,18.6,18.6
	v96.9C167.5,159.2,159.2,167.5,148.9,167.5z M52.1,37.5c-8,0-14.6,6.5-14.6,14.6v96.9c0,8,6.5,14.6,14.6,14.6h96.9
	c8,0,14.6-6.5,14.6-14.6V52.1c0-8-6.5-14.6-14.6-14.6H52.1z"/>
<g>
	<path class="st29" d="M229.6,99l-3.3-11.2h-13.9L209.1,99h-9.9l15.5-47.4h10.3L239.8,99H229.6z M221.4,70.4l-1.9-8.4
		c-0.3,1.1-1.4,6-2.2,9.1c-0.9,3.4-1.5,5.6-2.5,8.8h9.2C223.7,78.9,222.2,73.7,221.4,70.4z"/>
	<path class="st29" d="M267.5,100c-1.2-0.8-2.1-2-2.7-3.4c-2.2,2.2-5.5,3.3-9.2,3.3c-4.9,0-9.1-2.3-10.3-5.6
		c-0.5-1.6-0.7-3.4-0.7-6.9V65l9-1.7v22.4c0,3.1,0.3,4.8,0.7,5.7s1.8,1.6,3.2,1.6c2.2,0,5-1.6,5.6-3.3V65.2l8.7-1.8V90
		c0,2.3,0.7,4.7,2.1,6.3L267.5,100z"/>
	<path class="st29" d="M292.9,100.1c-4.3,0-9-1.4-14.1-4l3.3-6.7c2.8,1.7,7.6,3.9,11.6,3.9c2.6,0,4.6-1.7,4.6-3.9
		c0-2.4-1.7-3.6-5.4-4.3l-4.1-0.7c-2.3-0.4-5.2-2-6.4-3.5c-1.2-1.5-2-4-2-6.3c0-6.8,5.4-11.4,13.5-11.4c5.6,0,9.2,1.7,12.4,3.3
		l-3,6.1c-3.5-1.8-6-2.5-8.6-2.5c-2.7,0-4.4,1.4-4.4,3.4c0,1.8,1.2,2.7,4.4,3.5l4.2,1.1c4.3,1.1,5.7,2.4,6.9,3.9
		c1.3,1.6,1.9,3.6,1.9,5.9C307.8,95.2,301.9,100.1,292.9,100.1z"/>
	<path class="st29" d="M348.4,99H340l-3.1-12c-0.7-2.8-1.6-6.1-2-8.4l-0.5-3.5c-0.2,1.5-0.3,2-0.8,4.5c-0.7,3-2.2,9-3,12.2l-1.8,7.1
		h-8.5l-9.5-34.2l9-1l2.9,13.4c0.8,3.6,1.8,9.5,2,10.8c0.4-2.7,1.4-8.2,2.5-12.1l3.3-11.7h8.6l2.8,11.5c1.4,5.8,2.4,11.2,2.6,12.3
		c0.2-1.5,1-6.9,1.9-11.4l2.7-12.4h9.4L348.4,99z"/>
	<path class="st29" d="M371.4,84.5v0.3c0,5.4,2.7,8.4,7.3,8.4c3.1,0,6.1-1.2,8.8-3.5l3.5,5.4c-4,3.3-8.2,4.8-13.1,4.8
		c-10,0-16.5-7.1-16.5-18c0-6.3,1.3-10.4,4.4-13.8c2.9-3.2,6.3-4.7,10.9-4.7c4,0,7.8,1.4,10.1,3.7c3.2,3.3,4.6,8,4.6,15.2v2.1H371.4
		z M382.1,77.4c0-2.6-0.3-3.9-1.1-5.2c-0.9-1.4-2.2-2-4-2c-3.5,0-5.4,2.7-5.4,7.5v0.1h10.5V77.4z"/>
	<path class="st29" d="M403.4,60.3c-3.1,0-5.6-2.5-5.6-5.6c0-3.1,2.6-5.6,5.7-5.6c3.1,0,5.5,2.5,5.5,5.6
		C409.1,57.8,406.6,60.3,403.4,60.3z M398.9,99V64.8l9.1-1.4V99H398.9z"/>
	<path class="st29" d="M428.7,100.1c-4.3,0-9-1.4-14.1-4l3.3-6.7c2.8,1.7,7.6,3.9,11.6,3.9c2.6,0,4.6-1.7,4.6-3.9
		c0-2.4-1.7-3.6-5.4-4.3l-4.1-0.7c-2.3-0.4-5.2-2-6.4-3.5c-1.2-1.5-2-4-2-6.3c0-6.8,5.4-11.4,13.5-11.4c5.6,0,9.2,1.7,12.4,3.3
		l-3,6.1c-3.5-1.8-6-2.5-8.6-2.5c-2.7,0-4.4,1.4-4.4,3.4c0,1.8,1.2,2.7,4.4,3.5l4.2,1.1c4.3,1.1,5.7,2.4,6.9,3.9
		c1.3,1.6,1.9,3.6,1.9,5.9C443.6,95.2,437.6,100.1,428.7,100.1z"/>
	<path class="st29" d="M480.8,99l-3.3-11.2h-13.9L460.2,99h-9.9l15.5-47.4h10.3L491,99H480.8z M472.5,70.4l-1.9-8.4
		c-0.3,1.1-1.4,6-2.2,9.1c-0.9,3.4-1.5,5.6-2.5,8.8h9.2C474.8,78.9,473.3,73.7,472.5,70.4z"/>
	<path class="st29" d="M522.1,95.8c-2.4,2.5-5.5,3.9-9.3,3.9c-2.7,0-5.3-0.7-7.3-1.8c0.1,0.8,0.1,1.8,0.1,2.9v10.9l-8.8,2.3V73.7
		c0-4.6-0.1-5.8-0.5-8.8l8.1-1.4c0.3,1.2,0.5,2.2,0.6,3.3c1.6-1.9,5-3.3,8.6-3.3c2.4,0,5,0.8,6.9,2.1c3.7,2.5,6.5,7,6.5,15
		C526.9,88.1,525.7,92,522.1,95.8z M516.1,73.9c-0.7-1.9-2.1-2.9-4.4-2.9c-2.2,0-4.4,1-6.1,2.7v16.9c1.2,1,3.2,2,5,2
		c4.5,0,6.3-3.1,6.3-11C517,78.2,516.7,75.6,516.1,73.9z"/>
	<path class="st29" d="M559.4,95.8c-2.4,2.5-5.5,3.9-9.3,3.9c-2.7,0-5.3-0.7-7.3-1.8c0.1,0.8,0.1,1.8,0.1,2.9v10.9l-8.8,2.3V73.7
		c0-4.6-0.1-5.8-0.5-8.8l8.1-1.4c0.3,1.2,0.5,2.2,0.6,3.3c1.6-1.9,5-3.3,8.6-3.3c2.4,0,5,0.8,6.9,2.1c3.7,2.5,6.5,7,6.5,15
		C564.2,88.1,563,92,559.4,95.8z M553.4,73.9c-0.7-1.9-2.1-2.9-4.4-2.9c-2.2,0-4.4,1-6.1,2.7v16.9c1.2,1,3.2,2,5,2
		c4.5,0,6.3-3.1,6.3-11C554.3,78.2,554,75.6,553.4,73.9z"/>
</g>
<g>
	<path class="st30" d="M211.9,140.8h-10.3c0.3,3,2.1,4.2,5.2,4.2c2.5,0,4.1-1.1,4.6-1.4l1.1,3.2c-0.6,0.5-2.3,2.1-6.8,2.1
		c-5.2,0-8.9-2.7-8.9-9.6c0-6.4,4-9.3,8.8-9.3c4.1,0,6.7,2.5,6.7,7.2C212.2,139,212.1,140,211.9,140.8z M201.6,137.7h6.2
		c0-0.3,0-0.6,0-0.8c0-1.9-1-3.1-2.7-3.1C203.1,133.8,201.7,135.1,201.6,137.7z"/>
	<path class="st30" d="M219.2,126.7h-3.2v-3.6h11.8v3.6h-3.2V145h3.3v3.6h-11.8V145h3.3V126.7z"/>
	<path class="st30" d="M232.7,148.6v-25.4h6.5c10.3,0,15.1,3.6,15.1,12.4c0,9.2-5.9,13.1-15.4,13.1H232.7z M238,127.2v17.3h0.9
		c6.5,0,9.9-2.5,9.9-9c0-6.1-3.2-8.3-9.5-8.3H238z"/>
	<path class="st30" d="M269.5,139.1h-11v-3.7h11V139.1z"/>
	<path class="st30" d="M287,122.7c4.7,0,6.9,1.9,7.5,2.4l-1.9,3.7c-0.8-0.7-2.5-2-5.4-2c-4.4,0-8,2.5-8,8.9c0,6.5,2.9,9.1,7.5,9.1
		c3.3,0,5.1-1.3,6-2l1.4,3.5c-0.9,0.7-3,2.6-8.1,2.6c-7.2,0-12.4-3.6-12.4-13.2C273.7,126.4,280.4,122.7,287,122.7z"/>
	<path class="st30" d="M303,142.8c0,1.9,0.5,2.4,1.7,2.4c0.7,0,1.3-0.2,1.5-0.3l0.3,3.2c-0.4,0.2-1.5,0.7-3.3,0.7
		c-3.2,0-5.1-1.4-5.1-5.5v-20.9l5-0.4V142.8z"/>
	<path class="st30" d="M312,127.5c-1.7,0-2.9-1-2.9-2.7c0-1.7,1.2-2.7,2.9-2.7c1.7,0,2.9,1,2.9,2.7
		C314.9,126.5,313.7,127.5,312,127.5z M314.5,148.6h-5v-18h5V148.6z"/>
	<path class="st30" d="M333.8,140.8h-10.3c0.3,3,2.1,4.2,5.2,4.2c2.5,0,4.1-1.1,4.6-1.4l1.1,3.2c-0.6,0.5-2.3,2.1-6.8,2.1
		c-5.2,0-8.9-2.7-8.9-9.6c0-6.4,4-9.3,8.8-9.3c4.1,0,6.7,2.5,6.7,7.2C334.1,139,333.9,140,333.8,140.8z M323.4,137.7h6.2
		c0-0.3,0-0.6,0-0.8c0-1.9-1-3.1-2.7-3.1C325,133.8,323.5,135.1,323.4,137.7z"/>
	<path class="st30" d="M350,148.6v-10.6c0-2.7-0.9-3.8-3.1-3.8c-1.6,0-2.8,0.6-3.5,1.3v13.2h-5v-18h4.6v2h0.1
		c0.7-0.9,2.4-2.4,5.6-2.4c4.1,0,6.3,2.5,6.3,7v11.4H350z"/>
	<path class="st30" d="M370.3,134.3h-4.4v7.3c0,2.6,0.7,3.5,2.6,3.5c0.9,0,1.7-0.2,2-0.3l0.4,3.4c-0.4,0.2-1.5,0.8-3.7,0.8
		c-4.3,0-6.2-1.8-6.2-6.9v-7.7h-2.6v-3.2l2.6-0.4l0.6-5h4.4v4.9h4.9L370.3,134.3z"/>
	<path class="st30" d="M390.4,130.1c1.6,0,2.6,0.4,3.4,0.8v-8.4l5-0.4v26.4h-4.5v-2h-0.1c-0.4,0.7-1.8,2.5-5.2,2.5
		c-4.3,0-7.3-3.1-7.3-9.4C381.6,133.4,385.7,130.1,390.4,130.1z M393.7,143.8v-9.2c-0.6-0.4-1.4-0.7-2.6-0.7c-2.6,0-4.5,1.8-4.5,5.5
		c0,4.1,1.6,5.6,3.7,5.6C392,145,393.1,144.4,393.7,143.8z"/>
	<path class="st30" d="M418,140.8h-10.3c0.3,3,2.1,4.2,5.2,4.2c2.5,0,4.1-1.1,4.6-1.4l1.1,3.2c-0.6,0.5-2.3,2.1-6.8,2.1
		c-5.2,0-8.9-2.7-8.9-9.6c0-6.4,4-9.3,8.8-9.3c4.1,0,6.7,2.5,6.7,7.2C418.3,139,418.1,140,418,140.8z M407.6,137.7h6.2
		c0-0.3,0-0.6,0-0.8c0-1.9-1-3.1-2.7-3.1C409.2,133.8,407.8,135.1,407.6,137.7z"/>
	<path class="st30" d="M432.9,135.2c-0.6-0.4-2-1.3-4-1.3c-1.7,0-2.6,0.6-2.6,1.3c0,0.9,0.7,1.4,2.5,2.2l1.1,0.5
		c2.9,1.3,4.9,2.8,4.9,5.7c0,3.3-2.5,5.5-7.3,5.5c-3.4,0-5.2-1.2-6.2-1.9l1.5-3.8c0.7,0.7,2.3,1.9,4.5,1.9c1.7,0,2.8-0.5,2.8-1.3
		c0-1.1-0.8-1.4-2.8-2.4l-1.1-0.6c-2.6-1.3-4.3-2.8-4.3-5.6c0-3.2,2.9-5.2,6.9-5.2c3.2,0,4.7,1.1,5.4,1.6L432.9,135.2z"/>
	<path class="st30" d="M459.8,135.4L459.8,135.4c2.6,0.6,5.6,2.4,5.6,6c0,4.2-3.4,7.2-11.2,7.2h-6.8v-25.4h6.4
		c8,0,10.8,2.6,10.8,6.7C464.7,133.5,462.2,134.8,459.8,135.4z M454,127h-1.1v6.8h1.1c3.7,0,5.5-1.4,5.5-3.7
		C459.4,128.2,457.9,127,454,127z M454.6,137.7h-1.7v6.9h1.5c4,0,5.7-1.2,5.7-3.5C460,138.9,458.1,137.7,454.6,137.7z"/>
	<path class="st30" d="M486.1,148.6h-4.5v-2h-0.1c-0.7,0.9-2.2,2.5-5.5,2.5c-4.1,0-6.2-2.5-6.2-7v-11.4h5v10.6c0,2.7,0.9,3.8,3,3.8
		c1.6,0,2.6-0.6,3.4-1.2v-13.2h5V148.6z"/>
	<path class="st30" d="M502.7,148.6v-10.6c0-2.7-0.9-3.8-3.1-3.8c-1.6,0-2.8,0.6-3.5,1.3v13.2h-5v-18h4.6v2h0.1
		c0.7-0.9,2.4-2.4,5.6-2.4c4.1,0,6.3,2.5,6.3,7v11.4H502.7z"/>
	<path class="st30" d="M520.5,130.1c1.6,0,2.6,0.4,3.4,0.8v-8.4l5-0.4v26.4h-4.5v-2h-0.1c-0.4,0.7-1.8,2.5-5.2,2.5
		c-4.3,0-7.3-3.1-7.3-9.4C511.7,133.4,515.8,130.1,520.5,130.1z M523.9,143.8v-9.2c-0.6-0.4-1.4-0.7-2.6-0.7c-2.6,0-4.5,1.8-4.5,5.5
		c0,4.1,1.6,5.6,3.7,5.6C522.1,145,523.2,144.4,523.9,143.8z"/>
	<path class="st30" d="M548.1,140.8h-10.3c0.3,3,2.1,4.2,5.2,4.2c2.5,0,4.1-1.1,4.6-1.4l1.1,3.2c-0.6,0.5-2.3,2.1-6.8,2.1
		c-5.2,0-8.9-2.7-8.9-9.6c0-6.4,4-9.3,8.8-9.3c4.1,0,6.7,2.5,6.7,7.2C548.4,139,548.2,140,548.1,140.8z M537.8,137.7h6.2
		c0-0.3,0-0.6,0-0.8c0-1.9-1-3.1-2.7-3.1C539.3,133.8,537.9,135.1,537.8,137.7z"/>
	<path class="st30" d="M563,135.2c-0.6-0.4-2-1.3-4-1.3c-1.7,0-2.6,0.6-2.6,1.3c0,0.9,0.7,1.4,2.5,2.2l1.1,0.5
		c2.9,1.3,4.9,2.8,4.9,5.7c0,3.3-2.5,5.5-7.3,5.5c-3.4,0-5.2-1.2-6.2-1.9l1.5-3.8c0.7,0.7,2.3,1.9,4.5,1.9c1.7,0,2.8-0.5,2.8-1.3
		c0-1.1-0.8-1.4-2.8-2.4l-1.1-0.6c-2.6-1.3-4.3-2.8-4.3-5.6c0-3.2,2.9-5.2,6.9-5.2c3.2,0,4.7,1.1,5.4,1.6L563,135.2z"/>
</g>
<path class="st3" d="M3211.4,3043.9h-524.8c-10.2,0-18.6-8.3-18.6-18.6v-96.9c0-10.2,8.3-18.6,18.6-18.6h524.8
	c10.2,0,18.6,8.3,18.6,18.6v96.9C3230,3035.5,3221.6,3043.9,3211.4,3043.9z M2686.6,2913.9c-8,0-14.6,6.5-14.6,14.6v96.9
	c0,8,6.5,14.6,14.6,14.6h524.8c8,0,14.6-6.5,14.6-14.6v-96.9c0-8-6.5-14.6-14.6-14.6H2686.6z"/>
<rect x="3083.2" y="3036.9" class="st31" width="30.4" height="10.3"/>
<rect x="3146.3" y="3036.9" class="st31" width="30.4" height="10.3"/>
<g>
	
		<linearGradient id="SVGID_00000103982139180855041060000017677486618078295972_" gradientUnits="userSpaceOnUse" x1="2758.8909" y1="3025.7917" x2="2758.8909" y2="2927.9314">
		<stop  offset="0" style="stop-color:#588CC5"/>
		<stop  offset="3.661215e-02" style="stop-color:#5C90C8"/>
		<stop  offset="0.2426" style="stop-color:#70A4D4"/>
		<stop  offset="0.4618" style="stop-color:#7EB1DC"/>
		<stop  offset="0.7015" style="stop-color:#86BAE1"/>
		<stop  offset="1" style="stop-color:#89BCE2"/>
	</linearGradient>
	<path style="fill:url(#SVGID_00000103982139180855041060000017677486618078295972_);" d="M2736.6,2927.9v17.3
		c15.5,2.2,27.4,15.5,27.4,31.6s-11.9,29.4-27.4,31.6v17.3c25-2.3,44.6-23.3,44.6-48.9S2761.6,2930.2,2736.6,2927.9z"/>
</g>
<g>
	
		<linearGradient id="SVGID_00000145037769782731187230000003986347864752695985_" gradientUnits="userSpaceOnUse" x1="2705.1646" y1="3025.7944" x2="2705.1646" y2="2927.929">
		<stop  offset="0" style="stop-color:#5EAD2D"/>
		<stop  offset="0.1421" style="stop-color:#71B340"/>
		<stop  offset="0.3254" style="stop-color:#81BA53"/>
		<stop  offset="0.5207" style="stop-color:#8CBF62"/>
		<stop  offset="0.7342" style="stop-color:#93C36B"/>
		<stop  offset="1" style="stop-color:#95C46E"/>
	</linearGradient>
	<path style="fill:url(#SVGID_00000145037769782731187230000003986347864752695985_);" d="M2727.5,3008.5
		c-15.5-2.2-27.4-15.5-27.4-31.6s11.9-29.4,27.4-31.6v-17.3c-25,2.3-44.6,23.3-44.6,48.9c0,25.6,19.6,46.6,44.6,48.9V3008.5z"/>
</g>
<rect x="2799.1" y="2931.9" style="fill:none;" width="529.1" height="63.5"/>
<text transform="matrix(1 0 0 1 2799.1311 2977.821)"><tspan x="0" y="0" class="st16" style="font-family:'BundesSans-Bold'; font-size:62px;">Auswei</tspan><tspan x="188.7" y="0" class="st16" style="font-family:'BundesSans-Bold'; font-size:62px; letter-spacing:4;">s</tspan></text>
<g>
	<path class="st3" d="M3063.1,3017.9l-7.2-22.3h-25.6l-7.2,22.3h-16.1l30.5-82.8h12.6l30.4,82.8H3063.1z M3043.3,2955.7h-0.2
		l-9.1,28.3h18.5L3043.3,2955.7z"/>
	<path class="st3" d="M3115.8,3019.2c-4.6,0-7.9-1.1-10.1-2.3v32.7h-15.1v-90.2h13.9v6.5h0.2c1.8-2.8,7.1-7.9,16.3-7.9
		c12.8,0,21.7,9.4,21.7,29.3C3142.8,3008.4,3132,3019.2,3115.8,3019.2z M3105.7,2974.3v30.8c1.8,1.1,4.2,1.9,7.3,1.9
		c9.1,0,14.3-5.5,14.3-19.1c0-12.4-4.7-17-11.9-17C3111,2970.9,3107.7,2972.6,3105.7,2974.3z"/>
	<path class="st3" d="M3178.9,3019.2c-4.6,0-7.9-1.1-10.1-2.3v32.7h-15.1v-90.2h13.9v6.5h0.2c1.8-2.8,7.1-7.9,16.3-7.9
		c12.8,0,21.7,9.4,21.7,29.3C3205.9,3008.4,3195.1,3019.2,3178.9,3019.2z M3168.8,2974.3v30.8c1.8,1.1,4.2,1.9,7.3,1.9
		c9.1,0,14.3-5.5,14.3-19.1c0-12.4-4.7-17-11.9-17C3174.1,2970.9,3170.9,2972.6,3168.8,2974.3z"/>
</g>
<rect x="2797.1" y="2988.1" style="fill:none;" width="767.2" height="61.4"/>
<text transform="matrix(1.07 0 0 1 2797.072 3017.4277)" class="st0" style="font-family:'BundesSans-Bold'; font-size:41px;">eID-Client</text>
<rect x="659.8" y="84.1" style="fill:none;" width="381.8" height="56.1"/>
<text transform="matrix(1 0 0 1 659.7825 111.5044)" class="st31" style="font-family:'MetaOT-Bold'; font-size:37px;">CMYK</text>
</svg>
